G04 #@! TF.GenerationSoftware,KiCad,Pcbnew,(5.1.12)-1*
G04 #@! TF.CreationDate,2024-01-30T16:00:46+00:00*
G04 #@! TF.ProjectId,Backplane,4261636b-706c-4616-9e65-2e6b69636164,rev?*
G04 #@! TF.SameCoordinates,Original*
G04 #@! TF.FileFunction,Soldermask,Bot*
G04 #@! TF.FilePolarity,Negative*
%FSLAX46Y46*%
G04 Gerber Fmt 4.6, Leading zero omitted, Abs format (unit mm)*
G04 Created by KiCad (PCBNEW (5.1.12)-1) date 2024-01-30 16:00:46*
%MOMM*%
%LPD*%
G01*
G04 APERTURE LIST*
%ADD10C,0.100000*%
%ADD11R,10.000000X1.600000*%
%ADD12R,2.000000X1.500000*%
%ADD13O,2.000000X1.500000*%
%ADD14O,1.600000X1.600000*%
%ADD15R,1.600000X1.600000*%
%ADD16C,1.600000*%
%ADD17O,1.700000X1.700000*%
%ADD18R,1.700000X1.700000*%
%ADD19R,3.500000X3.500000*%
%ADD20O,1.700000X1.950000*%
%ADD21O,2.400000X2.400000*%
%ADD22R,2.400000X2.400000*%
%ADD23C,3.200000*%
%ADD24C,1.800000*%
%ADD25R,1.800000X1.800000*%
%ADD26C,2.100000*%
%ADD27C,1.750000*%
%ADD28C,2.200000*%
%ADD29C,3.500000*%
%ADD30C,1.700000*%
%ADD31C,2.010000*%
G04 APERTURE END LIST*
D10*
G04 #@! TO.C,J13*
G36*
X290195000Y-86360000D02*
G01*
X300990000Y-86360000D01*
X300990000Y-20320000D01*
X290195000Y-20320000D01*
X290195000Y-86360000D01*
G37*
X290195000Y-86360000D02*
X300990000Y-86360000D01*
X300990000Y-20320000D01*
X290195000Y-20320000D01*
X290195000Y-86360000D01*
G04 #@! TD*
D11*
G04 #@! TO.C,J13*
X295380000Y-83820000D03*
X295380000Y-81280000D03*
X295380000Y-78740000D03*
X295380000Y-76200000D03*
X295380000Y-73660000D03*
X295380000Y-71120000D03*
X295380000Y-68580000D03*
X295380000Y-66040000D03*
X295380000Y-63500000D03*
X295380000Y-60960000D03*
X295380000Y-58420000D03*
X295380000Y-55880000D03*
X295380000Y-53340000D03*
X295380000Y-50800000D03*
X295380000Y-48260000D03*
X295380000Y-45720000D03*
X295380000Y-43180000D03*
X295380000Y-40640000D03*
X295380000Y-38100000D03*
X295380000Y-35560000D03*
X295380000Y-33020000D03*
X295380000Y-30480000D03*
X295380000Y-27940000D03*
X295380000Y-25400000D03*
X295380000Y-22860000D03*
G04 #@! TD*
D12*
G04 #@! TO.C,U3*
X262255000Y-92710000D03*
D13*
X262255000Y-95250000D03*
X262255000Y-97790000D03*
X262255000Y-100330000D03*
G04 #@! TD*
D14*
G04 #@! TO.C,U2*
X106045000Y-91440000D03*
X121285000Y-99060000D03*
X108585000Y-91440000D03*
X118745000Y-99060000D03*
X111125000Y-91440000D03*
X116205000Y-99060000D03*
X113665000Y-91440000D03*
X113665000Y-99060000D03*
X116205000Y-91440000D03*
X111125000Y-99060000D03*
X118745000Y-91440000D03*
X108585000Y-99060000D03*
X121285000Y-91440000D03*
D15*
X106045000Y-99060000D03*
G04 #@! TD*
D14*
G04 #@! TO.C,R3*
X120015000Y-110490000D03*
D16*
X120015000Y-102870000D03*
G04 #@! TD*
D14*
G04 #@! TO.C,R2*
X104775000Y-102870000D03*
D16*
X104775000Y-110490000D03*
G04 #@! TD*
D17*
G04 #@! TO.C,J17*
X200025000Y-116205000D03*
D18*
X202565000Y-116205000D03*
G04 #@! TD*
G04 #@! TO.C,J16*
G36*
G01*
X217030000Y-115240000D02*
X215280000Y-115240000D01*
G75*
G02*
X214405000Y-114365000I0J875000D01*
G01*
X214405000Y-112615000D01*
G75*
G02*
X215280000Y-111740000I875000J0D01*
G01*
X217030000Y-111740000D01*
G75*
G02*
X217905000Y-112615000I0J-875000D01*
G01*
X217905000Y-114365000D01*
G75*
G02*
X217030000Y-115240000I-875000J0D01*
G01*
G37*
G36*
G01*
X212455000Y-117990000D02*
X210455000Y-117990000D01*
G75*
G02*
X209705000Y-117240000I0J750000D01*
G01*
X209705000Y-115740000D01*
G75*
G02*
X210455000Y-114990000I750000J0D01*
G01*
X212455000Y-114990000D01*
G75*
G02*
X213205000Y-115740000I0J-750000D01*
G01*
X213205000Y-117240000D01*
G75*
G02*
X212455000Y-117990000I-750000J0D01*
G01*
G37*
D19*
X211455000Y-110490000D03*
G04 #@! TD*
D20*
G04 #@! TO.C,J15*
X266185000Y-114935000D03*
X268685000Y-114935000D03*
X271185000Y-114935000D03*
G36*
G01*
X274535000Y-114210000D02*
X274535000Y-115660000D01*
G75*
G02*
X274285000Y-115910000I-250000J0D01*
G01*
X273085000Y-115910000D01*
G75*
G02*
X272835000Y-115660000I0J250000D01*
G01*
X272835000Y-114210000D01*
G75*
G02*
X273085000Y-113960000I250000J0D01*
G01*
X274285000Y-113960000D01*
G75*
G02*
X274535000Y-114210000I0J-250000D01*
G01*
G37*
G04 #@! TD*
D21*
G04 #@! TO.C,D53*
X273685000Y-94615000D03*
D22*
X273685000Y-107315000D03*
G04 #@! TD*
D14*
G04 #@! TO.C,D52*
X107950000Y-102870000D03*
D15*
X107950000Y-110490000D03*
G04 #@! TD*
D16*
G04 #@! TO.C,C4*
X113665000Y-106640000D03*
D15*
X113665000Y-104140000D03*
G04 #@! TD*
D16*
G04 #@! TO.C,C3*
X263565000Y-107315000D03*
D15*
X266065000Y-107315000D03*
G04 #@! TD*
D23*
G04 #@! TO.C,H6*
X284480000Y-120015000D03*
G04 #@! TD*
G04 #@! TO.C,H5*
X284480000Y-15240000D03*
G04 #@! TD*
G04 #@! TO.C,H4*
X179070000Y-120015000D03*
G04 #@! TD*
G04 #@! TO.C,H3*
X179070000Y-15240000D03*
G04 #@! TD*
G04 #@! TO.C,H2*
X58420000Y-120015000D03*
G04 #@! TD*
G04 #@! TO.C,H1*
X58420000Y-15240000D03*
G04 #@! TD*
D24*
G04 #@! TO.C,J11*
X68580000Y-83820000D03*
X63500000Y-83820000D03*
X68580000Y-40640000D03*
X68580000Y-43180000D03*
X68580000Y-45720000D03*
X68580000Y-48260000D03*
X68580000Y-50800000D03*
X68580000Y-53340000D03*
X68580000Y-55880000D03*
X68580000Y-58420000D03*
X68580000Y-60960000D03*
X68580000Y-63500000D03*
X68580000Y-66040000D03*
X68580000Y-68580000D03*
X68580000Y-71120000D03*
X68580000Y-73660000D03*
X68580000Y-76200000D03*
X68580000Y-78740000D03*
X68580000Y-81280000D03*
X63500000Y-81280000D03*
X63500000Y-78740000D03*
X63500000Y-76200000D03*
X63500000Y-73660000D03*
X63500000Y-71120000D03*
X63500000Y-68580000D03*
X63500000Y-66040000D03*
X63500000Y-63500000D03*
X63500000Y-60960000D03*
X63500000Y-58420000D03*
X63500000Y-55880000D03*
X63500000Y-53340000D03*
X63500000Y-50800000D03*
X63500000Y-48260000D03*
X63500000Y-45720000D03*
X63500000Y-43180000D03*
X63500000Y-40640000D03*
X68580000Y-38100000D03*
X68580000Y-35560000D03*
X68580000Y-33020000D03*
X68580000Y-30480000D03*
X68580000Y-27940000D03*
X68580000Y-25400000D03*
X68580000Y-22860000D03*
X63500000Y-38100000D03*
X63500000Y-35560000D03*
X63500000Y-33020000D03*
X63500000Y-30480000D03*
X63500000Y-27940000D03*
X63500000Y-25400000D03*
D25*
X63500000Y-22860000D03*
G04 #@! TD*
D24*
G04 #@! TO.C,J10*
X88265000Y-83820000D03*
X83185000Y-83820000D03*
X88265000Y-40640000D03*
X88265000Y-43180000D03*
X88265000Y-45720000D03*
X88265000Y-48260000D03*
X88265000Y-50800000D03*
X88265000Y-53340000D03*
X88265000Y-55880000D03*
X88265000Y-58420000D03*
X88265000Y-60960000D03*
X88265000Y-63500000D03*
X88265000Y-66040000D03*
X88265000Y-68580000D03*
X88265000Y-71120000D03*
X88265000Y-73660000D03*
X88265000Y-76200000D03*
X88265000Y-78740000D03*
X88265000Y-81280000D03*
X83185000Y-81280000D03*
X83185000Y-78740000D03*
X83185000Y-76200000D03*
X83185000Y-73660000D03*
X83185000Y-71120000D03*
X83185000Y-68580000D03*
X83185000Y-66040000D03*
X83185000Y-63500000D03*
X83185000Y-60960000D03*
X83185000Y-58420000D03*
X83185000Y-55880000D03*
X83185000Y-53340000D03*
X83185000Y-50800000D03*
X83185000Y-48260000D03*
X83185000Y-45720000D03*
X83185000Y-43180000D03*
X83185000Y-40640000D03*
X88265000Y-38100000D03*
X88265000Y-35560000D03*
X88265000Y-33020000D03*
X88265000Y-30480000D03*
X88265000Y-27940000D03*
X88265000Y-25400000D03*
X88265000Y-22860000D03*
X83185000Y-38100000D03*
X83185000Y-35560000D03*
X83185000Y-33020000D03*
X83185000Y-30480000D03*
X83185000Y-27940000D03*
X83185000Y-25400000D03*
D25*
X83185000Y-22860000D03*
G04 #@! TD*
D24*
G04 #@! TO.C,J9*
X107950000Y-83820000D03*
X102870000Y-83820000D03*
X107950000Y-40640000D03*
X107950000Y-43180000D03*
X107950000Y-45720000D03*
X107950000Y-48260000D03*
X107950000Y-50800000D03*
X107950000Y-53340000D03*
X107950000Y-55880000D03*
X107950000Y-58420000D03*
X107950000Y-60960000D03*
X107950000Y-63500000D03*
X107950000Y-66040000D03*
X107950000Y-68580000D03*
X107950000Y-71120000D03*
X107950000Y-73660000D03*
X107950000Y-76200000D03*
X107950000Y-78740000D03*
X107950000Y-81280000D03*
X102870000Y-81280000D03*
X102870000Y-78740000D03*
X102870000Y-76200000D03*
X102870000Y-73660000D03*
X102870000Y-71120000D03*
X102870000Y-68580000D03*
X102870000Y-66040000D03*
X102870000Y-63500000D03*
X102870000Y-60960000D03*
X102870000Y-58420000D03*
X102870000Y-55880000D03*
X102870000Y-53340000D03*
X102870000Y-50800000D03*
X102870000Y-48260000D03*
X102870000Y-45720000D03*
X102870000Y-43180000D03*
X102870000Y-40640000D03*
X107950000Y-38100000D03*
X107950000Y-35560000D03*
X107950000Y-33020000D03*
X107950000Y-30480000D03*
X107950000Y-27940000D03*
X107950000Y-25400000D03*
X107950000Y-22860000D03*
X102870000Y-38100000D03*
X102870000Y-35560000D03*
X102870000Y-33020000D03*
X102870000Y-30480000D03*
X102870000Y-27940000D03*
X102870000Y-25400000D03*
D25*
X102870000Y-22860000D03*
G04 #@! TD*
D24*
G04 #@! TO.C,J8*
X132715000Y-111760000D03*
X132715000Y-109220000D03*
X132715000Y-106680000D03*
X132715000Y-104140000D03*
X132715000Y-101600000D03*
X132715000Y-99060000D03*
X132715000Y-96520000D03*
X132715000Y-93980000D03*
X132715000Y-91440000D03*
X132715000Y-88900000D03*
X132715000Y-86360000D03*
X132715000Y-83820000D03*
X132715000Y-81280000D03*
X132715000Y-78740000D03*
X132715000Y-76200000D03*
X132715000Y-73660000D03*
X132715000Y-71120000D03*
X132715000Y-68580000D03*
X132715000Y-66040000D03*
X132715000Y-63500000D03*
X132715000Y-60960000D03*
X132715000Y-58420000D03*
X132715000Y-55880000D03*
X127635000Y-83820000D03*
X127635000Y-104140000D03*
X127635000Y-106680000D03*
X127635000Y-109220000D03*
X127635000Y-111760000D03*
X132715000Y-22860000D03*
X132715000Y-25400000D03*
X132715000Y-27940000D03*
X132715000Y-30480000D03*
X132715000Y-33020000D03*
X132715000Y-35560000D03*
X132715000Y-38100000D03*
X132715000Y-40640000D03*
X132715000Y-43180000D03*
X132715000Y-45720000D03*
X132715000Y-48260000D03*
X132715000Y-50800000D03*
X132715000Y-53340000D03*
X127635000Y-81280000D03*
X127635000Y-78740000D03*
X127635000Y-76200000D03*
X127635000Y-73660000D03*
X127635000Y-71120000D03*
X127635000Y-68580000D03*
X127635000Y-66040000D03*
X127635000Y-63500000D03*
X127635000Y-60960000D03*
X127635000Y-58420000D03*
X127635000Y-55880000D03*
X127635000Y-53340000D03*
X127635000Y-50800000D03*
X127635000Y-48260000D03*
X127635000Y-45720000D03*
X127635000Y-43180000D03*
X127635000Y-40640000D03*
X127635000Y-101600000D03*
X127635000Y-99060000D03*
X127635000Y-96520000D03*
X127635000Y-93980000D03*
X127635000Y-91440000D03*
X127635000Y-88900000D03*
X127635000Y-86360000D03*
X127635000Y-38100000D03*
X127635000Y-35560000D03*
X127635000Y-33020000D03*
X127635000Y-30480000D03*
X127635000Y-27940000D03*
X127635000Y-25400000D03*
D25*
X127635000Y-22860000D03*
G04 #@! TD*
D24*
G04 #@! TO.C,J7*
X152400000Y-111760000D03*
X152400000Y-109220000D03*
X152400000Y-106680000D03*
X152400000Y-104140000D03*
X152400000Y-101600000D03*
X152400000Y-99060000D03*
X152400000Y-96520000D03*
X152400000Y-93980000D03*
X152400000Y-91440000D03*
X152400000Y-88900000D03*
X152400000Y-86360000D03*
X152400000Y-83820000D03*
X152400000Y-81280000D03*
X152400000Y-78740000D03*
X152400000Y-76200000D03*
X152400000Y-73660000D03*
X152400000Y-71120000D03*
X152400000Y-68580000D03*
X152400000Y-66040000D03*
X152400000Y-63500000D03*
X152400000Y-60960000D03*
X152400000Y-58420000D03*
X152400000Y-55880000D03*
X147320000Y-83820000D03*
X147320000Y-104140000D03*
X147320000Y-106680000D03*
X147320000Y-109220000D03*
X147320000Y-111760000D03*
X152400000Y-22860000D03*
X152400000Y-25400000D03*
X152400000Y-27940000D03*
X152400000Y-30480000D03*
X152400000Y-33020000D03*
X152400000Y-35560000D03*
X152400000Y-38100000D03*
X152400000Y-40640000D03*
X152400000Y-43180000D03*
X152400000Y-45720000D03*
X152400000Y-48260000D03*
X152400000Y-50800000D03*
X152400000Y-53340000D03*
X147320000Y-81280000D03*
X147320000Y-78740000D03*
X147320000Y-76200000D03*
X147320000Y-73660000D03*
X147320000Y-71120000D03*
X147320000Y-68580000D03*
X147320000Y-66040000D03*
X147320000Y-63500000D03*
X147320000Y-60960000D03*
X147320000Y-58420000D03*
X147320000Y-55880000D03*
X147320000Y-53340000D03*
X147320000Y-50800000D03*
X147320000Y-48260000D03*
X147320000Y-45720000D03*
X147320000Y-43180000D03*
X147320000Y-40640000D03*
X147320000Y-101600000D03*
X147320000Y-99060000D03*
X147320000Y-96520000D03*
X147320000Y-93980000D03*
X147320000Y-91440000D03*
X147320000Y-88900000D03*
X147320000Y-86360000D03*
X147320000Y-38100000D03*
X147320000Y-35560000D03*
X147320000Y-33020000D03*
X147320000Y-30480000D03*
X147320000Y-27940000D03*
X147320000Y-25400000D03*
D25*
X147320000Y-22860000D03*
G04 #@! TD*
D24*
G04 #@! TO.C,J6*
X172085000Y-111760000D03*
X172085000Y-109220000D03*
X172085000Y-106680000D03*
X172085000Y-104140000D03*
X172085000Y-101600000D03*
X172085000Y-99060000D03*
X172085000Y-96520000D03*
X172085000Y-93980000D03*
X172085000Y-91440000D03*
X172085000Y-88900000D03*
X172085000Y-86360000D03*
X172085000Y-83820000D03*
X172085000Y-81280000D03*
X172085000Y-78740000D03*
X172085000Y-76200000D03*
X172085000Y-73660000D03*
X172085000Y-71120000D03*
X172085000Y-68580000D03*
X172085000Y-66040000D03*
X172085000Y-63500000D03*
X172085000Y-60960000D03*
X172085000Y-58420000D03*
X172085000Y-55880000D03*
X167005000Y-83820000D03*
X167005000Y-104140000D03*
X167005000Y-106680000D03*
X167005000Y-109220000D03*
X167005000Y-111760000D03*
X172085000Y-22860000D03*
X172085000Y-25400000D03*
X172085000Y-27940000D03*
X172085000Y-30480000D03*
X172085000Y-33020000D03*
X172085000Y-35560000D03*
X172085000Y-38100000D03*
X172085000Y-40640000D03*
X172085000Y-43180000D03*
X172085000Y-45720000D03*
X172085000Y-48260000D03*
X172085000Y-50800000D03*
X172085000Y-53340000D03*
X167005000Y-81280000D03*
X167005000Y-78740000D03*
X167005000Y-76200000D03*
X167005000Y-73660000D03*
X167005000Y-71120000D03*
X167005000Y-68580000D03*
X167005000Y-66040000D03*
X167005000Y-63500000D03*
X167005000Y-60960000D03*
X167005000Y-58420000D03*
X167005000Y-55880000D03*
X167005000Y-53340000D03*
X167005000Y-50800000D03*
X167005000Y-48260000D03*
X167005000Y-45720000D03*
X167005000Y-43180000D03*
X167005000Y-40640000D03*
X167005000Y-101600000D03*
X167005000Y-99060000D03*
X167005000Y-96520000D03*
X167005000Y-93980000D03*
X167005000Y-91440000D03*
X167005000Y-88900000D03*
X167005000Y-86360000D03*
X167005000Y-38100000D03*
X167005000Y-35560000D03*
X167005000Y-33020000D03*
X167005000Y-30480000D03*
X167005000Y-27940000D03*
X167005000Y-25400000D03*
D25*
X167005000Y-22860000D03*
G04 #@! TD*
D24*
G04 #@! TO.C,J5*
X191770000Y-111760000D03*
X191770000Y-109220000D03*
X191770000Y-106680000D03*
X191770000Y-104140000D03*
X191770000Y-101600000D03*
X191770000Y-99060000D03*
X191770000Y-96520000D03*
X191770000Y-93980000D03*
X191770000Y-91440000D03*
X191770000Y-88900000D03*
X191770000Y-86360000D03*
X191770000Y-83820000D03*
X191770000Y-81280000D03*
X191770000Y-78740000D03*
X191770000Y-76200000D03*
X191770000Y-73660000D03*
X191770000Y-71120000D03*
X191770000Y-68580000D03*
X191770000Y-66040000D03*
X191770000Y-63500000D03*
X191770000Y-60960000D03*
X191770000Y-58420000D03*
X191770000Y-55880000D03*
X186690000Y-83820000D03*
X186690000Y-104140000D03*
X186690000Y-106680000D03*
X186690000Y-109220000D03*
X186690000Y-111760000D03*
X191770000Y-22860000D03*
X191770000Y-25400000D03*
X191770000Y-27940000D03*
X191770000Y-30480000D03*
X191770000Y-33020000D03*
X191770000Y-35560000D03*
X191770000Y-38100000D03*
X191770000Y-40640000D03*
X191770000Y-43180000D03*
X191770000Y-45720000D03*
X191770000Y-48260000D03*
X191770000Y-50800000D03*
X191770000Y-53340000D03*
X186690000Y-81280000D03*
X186690000Y-78740000D03*
X186690000Y-76200000D03*
X186690000Y-73660000D03*
X186690000Y-71120000D03*
X186690000Y-68580000D03*
X186690000Y-66040000D03*
X186690000Y-63500000D03*
X186690000Y-60960000D03*
X186690000Y-58420000D03*
X186690000Y-55880000D03*
X186690000Y-53340000D03*
X186690000Y-50800000D03*
X186690000Y-48260000D03*
X186690000Y-45720000D03*
X186690000Y-43180000D03*
X186690000Y-40640000D03*
X186690000Y-101600000D03*
X186690000Y-99060000D03*
X186690000Y-96520000D03*
X186690000Y-93980000D03*
X186690000Y-91440000D03*
X186690000Y-88900000D03*
X186690000Y-86360000D03*
X186690000Y-38100000D03*
X186690000Y-35560000D03*
X186690000Y-33020000D03*
X186690000Y-30480000D03*
X186690000Y-27940000D03*
X186690000Y-25400000D03*
D25*
X186690000Y-22860000D03*
G04 #@! TD*
D26*
G04 #@! TO.C,SW2*
X116820000Y-117525000D03*
D27*
X115570000Y-120015000D03*
X111070000Y-120015000D03*
D26*
X109810000Y-117525000D03*
G04 #@! TD*
D14*
G04 #@! TO.C,R1*
X63500000Y-100330000D03*
D16*
X63500000Y-92710000D03*
G04 #@! TD*
D24*
G04 #@! TO.C,D3*
X63500000Y-103505000D03*
D25*
X63500000Y-106045000D03*
G04 #@! TD*
D24*
G04 #@! TO.C,TH1*
X224315000Y-97275000D03*
X221615000Y-104775000D03*
G04 #@! TD*
D28*
G04 #@! TO.C,SW1*
X82805000Y-121285000D03*
X69595000Y-121285000D03*
X80900000Y-111755000D03*
X76200000Y-111755000D03*
X71500000Y-111755000D03*
G04 #@! TD*
D29*
G04 #@! TO.C,J14*
X242920000Y-116470000D03*
X254960000Y-116470000D03*
D30*
X250190000Y-113760000D03*
X247690000Y-113760000D03*
X247690000Y-111760000D03*
D18*
X250190000Y-111760000D03*
G04 #@! TD*
D24*
G04 #@! TO.C,U1*
X92710000Y-92710000D03*
X92710000Y-95250000D03*
X92710000Y-97790000D03*
X92710000Y-100330000D03*
X92710000Y-105410000D03*
X92710000Y-107950000D03*
X92710000Y-110490000D03*
G04 #@! TD*
D31*
G04 #@! TO.C,F1*
X243205000Y-102235000D03*
X244405000Y-97135000D03*
G04 #@! TD*
D21*
G04 #@! TO.C,D2*
X83185000Y-104775000D03*
D22*
X83185000Y-92075000D03*
G04 #@! TD*
D21*
G04 #@! TO.C,D1*
X238125000Y-106045000D03*
D22*
X238125000Y-93345000D03*
G04 #@! TD*
D16*
G04 #@! TO.C,C2*
X73660000Y-92115000D03*
D15*
X73660000Y-94615000D03*
G04 #@! TD*
D16*
G04 #@! TO.C,C1*
X73660000Y-101005000D03*
D15*
X73660000Y-103505000D03*
G04 #@! TD*
D17*
G04 #@! TO.C,J4*
X212725000Y-83820000D03*
X215265000Y-83820000D03*
X212725000Y-81280000D03*
X215265000Y-81280000D03*
X212725000Y-78740000D03*
X215265000Y-78740000D03*
X212725000Y-76200000D03*
X215265000Y-76200000D03*
X212725000Y-73660000D03*
X215265000Y-73660000D03*
X212725000Y-71120000D03*
X215265000Y-71120000D03*
X212725000Y-68580000D03*
X215265000Y-68580000D03*
X212725000Y-66040000D03*
X215265000Y-66040000D03*
X212725000Y-63500000D03*
X215265000Y-63500000D03*
X212725000Y-60960000D03*
X215265000Y-60960000D03*
X212725000Y-58420000D03*
X215265000Y-58420000D03*
X212725000Y-55880000D03*
X215265000Y-55880000D03*
X212725000Y-53340000D03*
X215265000Y-53340000D03*
X212725000Y-50800000D03*
X215265000Y-50800000D03*
X212725000Y-48260000D03*
X215265000Y-48260000D03*
X212725000Y-45720000D03*
X215265000Y-45720000D03*
X212725000Y-43180000D03*
X215265000Y-43180000D03*
X212725000Y-40640000D03*
X215265000Y-40640000D03*
X212725000Y-38100000D03*
X215265000Y-38100000D03*
X212725000Y-35560000D03*
X215265000Y-35560000D03*
X212725000Y-33020000D03*
X215265000Y-33020000D03*
X212725000Y-30480000D03*
X215265000Y-30480000D03*
X212725000Y-27940000D03*
X215265000Y-27940000D03*
X212725000Y-25400000D03*
X215265000Y-25400000D03*
X212725000Y-22860000D03*
D18*
X215265000Y-22860000D03*
G04 #@! TD*
D17*
G04 #@! TO.C,J3*
X232410000Y-83820000D03*
X234950000Y-83820000D03*
X232410000Y-81280000D03*
X234950000Y-81280000D03*
X232410000Y-78740000D03*
X234950000Y-78740000D03*
X232410000Y-76200000D03*
X234950000Y-76200000D03*
X232410000Y-73660000D03*
X234950000Y-73660000D03*
X232410000Y-71120000D03*
X234950000Y-71120000D03*
X232410000Y-68580000D03*
X234950000Y-68580000D03*
X232410000Y-66040000D03*
X234950000Y-66040000D03*
X232410000Y-63500000D03*
X234950000Y-63500000D03*
X232410000Y-60960000D03*
X234950000Y-60960000D03*
X232410000Y-58420000D03*
X234950000Y-58420000D03*
X232410000Y-55880000D03*
X234950000Y-55880000D03*
X232410000Y-53340000D03*
X234950000Y-53340000D03*
X232410000Y-50800000D03*
X234950000Y-50800000D03*
X232410000Y-48260000D03*
X234950000Y-48260000D03*
X232410000Y-45720000D03*
X234950000Y-45720000D03*
X232410000Y-43180000D03*
X234950000Y-43180000D03*
X232410000Y-40640000D03*
X234950000Y-40640000D03*
X232410000Y-38100000D03*
X234950000Y-38100000D03*
X232410000Y-35560000D03*
X234950000Y-35560000D03*
X232410000Y-33020000D03*
X234950000Y-33020000D03*
X232410000Y-30480000D03*
X234950000Y-30480000D03*
X232410000Y-27940000D03*
X234950000Y-27940000D03*
X232410000Y-25400000D03*
X234950000Y-25400000D03*
X232410000Y-22860000D03*
D18*
X234950000Y-22860000D03*
G04 #@! TD*
D17*
G04 #@! TO.C,J2*
X252095000Y-83820000D03*
X254635000Y-83820000D03*
X252095000Y-81280000D03*
X254635000Y-81280000D03*
X252095000Y-78740000D03*
X254635000Y-78740000D03*
X252095000Y-76200000D03*
X254635000Y-76200000D03*
X252095000Y-73660000D03*
X254635000Y-73660000D03*
X252095000Y-71120000D03*
X254635000Y-71120000D03*
X252095000Y-68580000D03*
X254635000Y-68580000D03*
X252095000Y-66040000D03*
X254635000Y-66040000D03*
X252095000Y-63500000D03*
X254635000Y-63500000D03*
X252095000Y-60960000D03*
X254635000Y-60960000D03*
X252095000Y-58420000D03*
X254635000Y-58420000D03*
X252095000Y-55880000D03*
X254635000Y-55880000D03*
X252095000Y-53340000D03*
X254635000Y-53340000D03*
X252095000Y-50800000D03*
X254635000Y-50800000D03*
X252095000Y-48260000D03*
X254635000Y-48260000D03*
X252095000Y-45720000D03*
X254635000Y-45720000D03*
X252095000Y-43180000D03*
X254635000Y-43180000D03*
X252095000Y-40640000D03*
X254635000Y-40640000D03*
X252095000Y-38100000D03*
X254635000Y-38100000D03*
X252095000Y-35560000D03*
X254635000Y-35560000D03*
X252095000Y-33020000D03*
X254635000Y-33020000D03*
X252095000Y-30480000D03*
X254635000Y-30480000D03*
X252095000Y-27940000D03*
X254635000Y-27940000D03*
X252095000Y-25400000D03*
X254635000Y-25400000D03*
X252095000Y-22860000D03*
D18*
X254635000Y-22860000D03*
G04 #@! TD*
D17*
G04 #@! TO.C,J1*
X271780000Y-83820000D03*
X274320000Y-83820000D03*
X271780000Y-81280000D03*
X274320000Y-81280000D03*
X271780000Y-78740000D03*
X274320000Y-78740000D03*
X271780000Y-76200000D03*
X274320000Y-76200000D03*
X271780000Y-73660000D03*
X274320000Y-73660000D03*
X271780000Y-71120000D03*
X274320000Y-71120000D03*
X271780000Y-68580000D03*
X274320000Y-68580000D03*
X271780000Y-66040000D03*
X274320000Y-66040000D03*
X271780000Y-63500000D03*
X274320000Y-63500000D03*
X271780000Y-60960000D03*
X274320000Y-60960000D03*
X271780000Y-58420000D03*
X274320000Y-58420000D03*
X271780000Y-55880000D03*
X274320000Y-55880000D03*
X271780000Y-53340000D03*
X274320000Y-53340000D03*
X271780000Y-50800000D03*
X274320000Y-50800000D03*
X271780000Y-48260000D03*
X274320000Y-48260000D03*
X271780000Y-45720000D03*
X274320000Y-45720000D03*
X271780000Y-43180000D03*
X274320000Y-43180000D03*
X271780000Y-40640000D03*
X274320000Y-40640000D03*
X271780000Y-38100000D03*
X274320000Y-38100000D03*
X271780000Y-35560000D03*
X274320000Y-35560000D03*
X271780000Y-33020000D03*
X274320000Y-33020000D03*
X271780000Y-30480000D03*
X274320000Y-30480000D03*
X271780000Y-27940000D03*
X274320000Y-27940000D03*
X271780000Y-25400000D03*
X274320000Y-25400000D03*
X271780000Y-22860000D03*
D18*
X274320000Y-22860000D03*
G04 #@! TD*
M02*
