M48
INCH,TZ
T1C0.0157
T2C0.0276
T3C0.0315
T4C0.0354
T5C0.0362
T6C0.0374
T7C0.0390
T8C0.0394
T9C0.0398
T10C0.0453
T11C0.0472
T12C0.0512
T13C0.0551
T14C0.0917
%
G90
G05
T1
X43625Y-32125
X43850Y-24500
X47250Y-44850
X76700Y-24000
X89000Y-34850
X109850Y-10000
X109850Y-11000
X109850Y-12000
X109850Y-13000
X109850Y-14000
X109850Y-15000
X109850Y-16000
X109850Y-17000
X109850Y-18000
X109850Y-19000
X109850Y-20000
X109850Y-21000
X109850Y-22000
X109850Y-23000
X109850Y-24000
X109850Y-25000
X109850Y-26000
X109850Y-27000
X109850Y-28000
X109850Y-29000
X109850Y-30000
X109850Y-31000
X109850Y-32000
X109850Y-33000
X111581Y-20913
X111650Y-10000
X111650Y-11000
X111650Y-12000
X111650Y-13000
X111650Y-14000
X111650Y-15000
X111650Y-16000
X111650Y-17000
X111650Y-18000
X111650Y-19000
X111650Y-20000
X111650Y-22000
X111650Y-23000
X111650Y-24000
X111650Y-25000
X111650Y-26000
X111650Y-27000
X111650Y-28000
X111650Y-29000
X111650Y-30000
X111650Y-31000
X111650Y-32000
X111650Y-33000
X111850Y-9000
X111850Y-10390
X111850Y-11390
X111850Y-12390
X111850Y-13390
X111850Y-14390
X111850Y-15390
X111850Y-16390
X111850Y-17390
X111850Y-18390
X111850Y-19390
X111850Y-22390
X111850Y-23390
X111850Y-24390
X111850Y-25390
X111850Y-26390
X111850Y-27390
X111850Y-28390
X111850Y-29390
X111850Y-30390
X111850Y-31390
X111850Y-32400
X111856Y-20378
X111869Y-21268
T2
X103250Y-36500
X103250Y-37500
X103250Y-38500
X103250Y-39500
T3
X25000Y-36500
X25000Y-39500
X29000Y-36266
X29000Y-37250
X29000Y-39766
X29000Y-40750
X41250Y-40500
X41250Y-43500
X41750Y-36000
X41750Y-39000
X42500Y-40500
X42500Y-43500
X42750Y-36000
X42750Y-39000
X43750Y-36000
X43750Y-39000
X44750Y-36000
X44750Y-39000
X44750Y-41000
X44750Y-41984
X45750Y-36000
X45750Y-39000
X46750Y-36000
X46750Y-39000
X47250Y-40500
X47250Y-43500
X47750Y-36000
X47750Y-39000
X87250Y-41250
X88313Y-38297
X103766Y-42250
X104750Y-42250
T4
X25000Y-40750
X25000Y-41750
T5
X97516Y-44000
X97516Y-44787
X98500Y-44000
X98500Y-44787
T6
X104797Y-45250
X105781Y-45250
X106766Y-45250
X107750Y-45250
T7
X43728Y-47250
X45500Y-47250
T8
X23750Y-34100
X36500Y-36500
X36500Y-37500
X36500Y-38500
X36500Y-39500
X36500Y-41500
X36500Y-42500
X36500Y-43500
X39050Y-36451
X56950Y-45200
X64850Y-45200
X72600Y-45200
X78750Y-45750
X79750Y-45750
X83750Y-9000
X83750Y-10000
X83750Y-11000
X83750Y-12000
X83750Y-13000
X83750Y-14000
X83750Y-15000
X83750Y-16000
X83750Y-17000
X83750Y-18000
X83750Y-19000
X83750Y-20000
X83750Y-21000
X83750Y-22000
X83750Y-23000
X83750Y-24000
X83750Y-25000
X83750Y-26000
X83750Y-27000
X83750Y-28000
X83750Y-29000
X83750Y-30000
X83750Y-31000
X83750Y-32000
X83750Y-33000
X84750Y-9000
X84750Y-10000
X84750Y-11000
X84750Y-12000
X84750Y-13000
X84750Y-14000
X84750Y-15000
X84750Y-16000
X84750Y-17000
X84750Y-18000
X84750Y-19000
X84750Y-20000
X84750Y-21000
X84750Y-22000
X84750Y-23000
X84750Y-24000
X84750Y-25000
X84750Y-26000
X84750Y-27000
X84750Y-28000
X84750Y-29000
X84750Y-30000
X84750Y-31000
X84750Y-32000
X84750Y-33000
X86400Y-34150
X91500Y-9000
X91500Y-10000
X91500Y-11000
X91500Y-12000
X91500Y-13000
X91500Y-14000
X91500Y-15000
X91500Y-16000
X91500Y-17000
X91500Y-18000
X91500Y-19000
X91500Y-20000
X91500Y-21000
X91500Y-22000
X91500Y-23000
X91500Y-24000
X91500Y-25000
X91500Y-26000
X91500Y-27000
X91500Y-28000
X91500Y-29000
X91500Y-30000
X91500Y-31000
X91500Y-32000
X91500Y-33000
X92500Y-9000
X92500Y-10000
X92500Y-11000
X92500Y-12000
X92500Y-13000
X92500Y-14000
X92500Y-15000
X92500Y-16000
X92500Y-17000
X92500Y-18000
X92500Y-19000
X92500Y-20000
X92500Y-21000
X92500Y-22000
X92500Y-23000
X92500Y-24000
X92500Y-25000
X92500Y-26000
X92500Y-27000
X92500Y-28000
X92500Y-29000
X92500Y-30000
X92500Y-31000
X92500Y-32000
X92500Y-33000
X93150Y-34150
X99250Y-9000
X99250Y-10000
X99250Y-11000
X99250Y-12000
X99250Y-13000
X99250Y-14000
X99250Y-15000
X99250Y-16000
X99250Y-17000
X99250Y-18000
X99250Y-19000
X99250Y-20000
X99250Y-21000
X99250Y-22000
X99250Y-23000
X99250Y-24000
X99250Y-25000
X99250Y-26000
X99250Y-27000
X99250Y-28000
X99250Y-29000
X99250Y-30000
X99250Y-31000
X99250Y-32000
X99250Y-33000
X100250Y-9000
X100250Y-10000
X100250Y-11000
X100250Y-12000
X100250Y-13000
X100250Y-14000
X100250Y-15000
X100250Y-16000
X100250Y-17000
X100250Y-18000
X100250Y-19000
X100250Y-20000
X100250Y-21000
X100250Y-22000
X100250Y-23000
X100250Y-24000
X100250Y-25000
X100250Y-26000
X100250Y-27000
X100250Y-28000
X100250Y-29000
X100250Y-30000
X100250Y-31000
X100250Y-32000
X100250Y-33000
X101050Y-34150
X107000Y-9000
X107000Y-10000
X107000Y-11000
X107000Y-12000
X107000Y-13000
X107000Y-14000
X107000Y-15000
X107000Y-16000
X107000Y-17000
X107000Y-18000
X107000Y-19000
X107000Y-20000
X107000Y-21000
X107000Y-22000
X107000Y-23000
X107000Y-24000
X107000Y-25000
X107000Y-26000
X107000Y-27000
X107000Y-28000
X107000Y-29000
X107000Y-30000
X107000Y-31000
X107000Y-32000
X107000Y-33000
X108000Y-9000
X108000Y-10000
X108000Y-11000
X108000Y-12000
X108000Y-13000
X108000Y-14000
X108000Y-15000
X108000Y-16000
X108000Y-17000
X108000Y-18000
X108000Y-19000
X108000Y-20000
X108000Y-21000
X108000Y-22000
X108000Y-23000
X108000Y-24000
X108000Y-25000
X108000Y-26000
X108000Y-27000
X108000Y-28000
X108000Y-29000
X108000Y-30000
X108000Y-31000
X108000Y-32000
X108000Y-33000
X109000Y-34150
T9
X95750Y-40250
X96222Y-38242
T10
X25000Y-9000
X25000Y-10000
X25000Y-11000
X25000Y-12000
X25000Y-13000
X25000Y-14000
X25000Y-15000
X25000Y-16000
X25000Y-17000
X25000Y-18000
X25000Y-19000
X25000Y-20000
X25000Y-21000
X25000Y-22000
X25000Y-23000
X25000Y-24000
X25000Y-25000
X25000Y-26000
X25000Y-27000
X25000Y-28000
X25000Y-29000
X25000Y-30000
X25000Y-31000
X25000Y-32000
X25000Y-33000
X27000Y-9000
X27000Y-10000
X27000Y-11000
X27000Y-12000
X27000Y-13000
X27000Y-14000
X27000Y-15000
X27000Y-16000
X27000Y-17000
X27000Y-18000
X27000Y-19000
X27000Y-20000
X27000Y-21000
X27000Y-22000
X27000Y-23000
X27000Y-24000
X27000Y-25000
X27000Y-26000
X27000Y-27000
X27000Y-28000
X27000Y-29000
X27000Y-30000
X27000Y-31000
X27000Y-32000
X27000Y-33000
X32750Y-9000
X32750Y-10000
X32750Y-11000
X32750Y-12000
X32750Y-13000
X32750Y-14000
X32750Y-15000
X32750Y-16000
X32750Y-17000
X32750Y-18000
X32750Y-19000
X32750Y-20000
X32750Y-21000
X32750Y-22000
X32750Y-23000
X32750Y-24000
X32750Y-25000
X32750Y-26000
X32750Y-27000
X32750Y-28000
X32750Y-29000
X32750Y-30000
X32750Y-31000
X32750Y-32000
X32750Y-33000
X34750Y-9000
X34750Y-10000
X34750Y-11000
X34750Y-12000
X34750Y-13000
X34750Y-14000
X34750Y-15000
X34750Y-16000
X34750Y-17000
X34750Y-18000
X34750Y-19000
X34750Y-20000
X34750Y-21000
X34750Y-22000
X34750Y-23000
X34750Y-24000
X34750Y-25000
X34750Y-26000
X34750Y-27000
X34750Y-28000
X34750Y-29000
X34750Y-30000
X34750Y-31000
X34750Y-32000
X34750Y-33000
X40500Y-9000
X40500Y-10000
X40500Y-11000
X40500Y-12000
X40500Y-13000
X40500Y-14000
X40500Y-15000
X40500Y-16000
X40500Y-17000
X40500Y-18000
X40500Y-19000
X40500Y-20000
X40500Y-21000
X40500Y-22000
X40500Y-23000
X40500Y-24000
X40500Y-25000
X40500Y-26000
X40500Y-27000
X40500Y-28000
X40500Y-29000
X40500Y-30000
X40500Y-31000
X40500Y-32000
X40500Y-33000
X42500Y-9000
X42500Y-10000
X42500Y-11000
X42500Y-12000
X42500Y-13000
X42500Y-14000
X42500Y-15000
X42500Y-16000
X42500Y-17000
X42500Y-18000
X42500Y-19000
X42500Y-20000
X42500Y-21000
X42500Y-22000
X42500Y-23000
X42500Y-24000
X42500Y-25000
X42500Y-26000
X42500Y-27000
X42500Y-28000
X42500Y-29000
X42500Y-30000
X42500Y-31000
X42500Y-32000
X42500Y-33000
X50250Y-9000
X50250Y-10000
X50250Y-11000
X50250Y-12000
X50250Y-13000
X50250Y-14000
X50250Y-15000
X50250Y-16000
X50250Y-17000
X50250Y-18000
X50250Y-19000
X50250Y-20000
X50250Y-21000
X50250Y-22000
X50250Y-23000
X50250Y-24000
X50250Y-25000
X50250Y-26000
X50250Y-27000
X50250Y-28000
X50250Y-29000
X50250Y-30000
X50250Y-31000
X50250Y-32000
X50250Y-33000
X50250Y-34000
X50250Y-35000
X50250Y-36000
X50250Y-37000
X50250Y-38000
X50250Y-39000
X50250Y-40000
X50250Y-41000
X50250Y-42000
X50250Y-43000
X50250Y-44000
X52250Y-9000
X52250Y-10000
X52250Y-11000
X52250Y-12000
X52250Y-13000
X52250Y-14000
X52250Y-15000
X52250Y-16000
X52250Y-17000
X52250Y-18000
X52250Y-19000
X52250Y-20000
X52250Y-21000
X52250Y-22000
X52250Y-23000
X52250Y-24000
X52250Y-25000
X52250Y-26000
X52250Y-27000
X52250Y-28000
X52250Y-29000
X52250Y-30000
X52250Y-31000
X52250Y-32000
X52250Y-33000
X52250Y-34000
X52250Y-35000
X52250Y-36000
X52250Y-37000
X52250Y-38000
X52250Y-39000
X52250Y-40000
X52250Y-41000
X52250Y-42000
X52250Y-43000
X52250Y-44000
X58000Y-9000
X58000Y-10000
X58000Y-11000
X58000Y-12000
X58000Y-13000
X58000Y-14000
X58000Y-15000
X58000Y-16000
X58000Y-17000
X58000Y-18000
X58000Y-19000
X58000Y-20000
X58000Y-21000
X58000Y-22000
X58000Y-23000
X58000Y-24000
X58000Y-25000
X58000Y-26000
X58000Y-27000
X58000Y-28000
X58000Y-29000
X58000Y-30000
X58000Y-31000
X58000Y-32000
X58000Y-33000
X58000Y-34000
X58000Y-35000
X58000Y-36000
X58000Y-37000
X58000Y-38000
X58000Y-39000
X58000Y-40000
X58000Y-41000
X58000Y-42000
X58000Y-43000
X58000Y-44000
X60000Y-9000
X60000Y-10000
X60000Y-11000
X60000Y-12000
X60000Y-13000
X60000Y-14000
X60000Y-15000
X60000Y-16000
X60000Y-17000
X60000Y-18000
X60000Y-19000
X60000Y-20000
X60000Y-21000
X60000Y-22000
X60000Y-23000
X60000Y-24000
X60000Y-25000
X60000Y-26000
X60000Y-27000
X60000Y-28000
X60000Y-29000
X60000Y-30000
X60000Y-31000
X60000Y-32000
X60000Y-33000
X60000Y-34000
X60000Y-35000
X60000Y-36000
X60000Y-37000
X60000Y-38000
X60000Y-39000
X60000Y-40000
X60000Y-41000
X60000Y-42000
X60000Y-43000
X60000Y-44000
X65750Y-9000
X65750Y-10000
X65750Y-11000
X65750Y-12000
X65750Y-13000
X65750Y-14000
X65750Y-15000
X65750Y-16000
X65750Y-17000
X65750Y-18000
X65750Y-19000
X65750Y-20000
X65750Y-21000
X65750Y-22000
X65750Y-23000
X65750Y-24000
X65750Y-25000
X65750Y-26000
X65750Y-27000
X65750Y-28000
X65750Y-29000
X65750Y-30000
X65750Y-31000
X65750Y-32000
X65750Y-33000
X65750Y-34000
X65750Y-35000
X65750Y-36000
X65750Y-37000
X65750Y-38000
X65750Y-39000
X65750Y-40000
X65750Y-41000
X65750Y-42000
X65750Y-43000
X65750Y-44000
X67750Y-9000
X67750Y-10000
X67750Y-11000
X67750Y-12000
X67750Y-13000
X67750Y-14000
X67750Y-15000
X67750Y-16000
X67750Y-17000
X67750Y-18000
X67750Y-19000
X67750Y-20000
X67750Y-21000
X67750Y-22000
X67750Y-23000
X67750Y-24000
X67750Y-25000
X67750Y-26000
X67750Y-27000
X67750Y-28000
X67750Y-29000
X67750Y-30000
X67750Y-31000
X67750Y-32000
X67750Y-33000
X67750Y-34000
X67750Y-35000
X67750Y-36000
X67750Y-37000
X67750Y-38000
X67750Y-39000
X67750Y-40000
X67750Y-41000
X67750Y-42000
X67750Y-43000
X67750Y-44000
X73500Y-9000
X73500Y-10000
X73500Y-11000
X73500Y-12000
X73500Y-13000
X73500Y-14000
X73500Y-15000
X73500Y-16000
X73500Y-17000
X73500Y-18000
X73500Y-19000
X73500Y-20000
X73500Y-21000
X73500Y-22000
X73500Y-23000
X73500Y-24000
X73500Y-25000
X73500Y-26000
X73500Y-27000
X73500Y-28000
X73500Y-29000
X73500Y-30000
X73500Y-31000
X73500Y-32000
X73500Y-33000
X73500Y-34000
X73500Y-35000
X73500Y-36000
X73500Y-37000
X73500Y-38000
X73500Y-39000
X73500Y-40000
X73500Y-41000
X73500Y-42000
X73500Y-43000
X73500Y-44000
X75500Y-9000
X75500Y-10000
X75500Y-11000
X75500Y-12000
X75500Y-13000
X75500Y-14000
X75500Y-15000
X75500Y-16000
X75500Y-17000
X75500Y-18000
X75500Y-19000
X75500Y-20000
X75500Y-21000
X75500Y-22000
X75500Y-23000
X75500Y-24000
X75500Y-25000
X75500Y-26000
X75500Y-27000
X75500Y-28000
X75500Y-29000
X75500Y-30000
X75500Y-31000
X75500Y-32000
X75500Y-33000
X75500Y-34000
X75500Y-35000
X75500Y-36000
X75500Y-37000
X75500Y-38000
X75500Y-39000
X75500Y-40000
X75500Y-41000
X75500Y-42000
X75500Y-43000
X75500Y-44000
T11
X32750Y-36250
X32750Y-41250
X93750Y-36750
X93750Y-41750
X107750Y-37250
X107750Y-42250
T12
X43232Y-46270
X45992Y-46270
T13
X27400Y-47750
X28150Y-43998
X30000Y-43998
X31850Y-43998
X32600Y-47750
T14
X95638Y-45854
X100378Y-45854
T8
G00X82856Y-43500
M15
G01X83644Y-43500
M16
G05
G00X82856Y-45862
M15
G01X83644Y-45862
M16
G05
G00X85100Y-45075
M15
G01X85100Y-44287
M16
G05
T0
M30
