G04 #@! TF.GenerationSoftware,KiCad,Pcbnew,(5.1.12)-1*
G04 #@! TF.CreationDate,2024-01-30T16:00:46+00:00*
G04 #@! TF.ProjectId,Backplane,4261636b-706c-4616-9e65-2e6b69636164,rev?*
G04 #@! TF.SameCoordinates,Original*
G04 #@! TF.FileFunction,Legend,Bot*
G04 #@! TF.FilePolarity,Positive*
%FSLAX46Y46*%
G04 Gerber Fmt 4.6, Leading zero omitted, Abs format (unit mm)*
G04 Created by KiCad (PCBNEW (5.1.12)-1) date 2024-01-30 16:00:46*
%MOMM*%
%LPD*%
G01*
G04 APERTURE LIST*
%ADD10C,0.200000*%
%ADD11C,0.150000*%
G04 APERTURE END LIST*
D10*
X114817857Y-23161428D02*
X116017857Y-23447142D01*
X115160714Y-23675714D01*
X116017857Y-23904285D01*
X114817857Y-24190000D01*
X116017857Y-24647142D02*
X115217857Y-24647142D01*
X114817857Y-24647142D02*
X114875000Y-24590000D01*
X114932142Y-24647142D01*
X114875000Y-24704285D01*
X114817857Y-24647142D01*
X114932142Y-24647142D01*
X115217857Y-25047142D02*
X115217857Y-25504285D01*
X114817857Y-25218571D02*
X115846428Y-25218571D01*
X115960714Y-25275714D01*
X116017857Y-25390000D01*
X116017857Y-25504285D01*
X116017857Y-25904285D02*
X114817857Y-25904285D01*
X116017857Y-26418571D02*
X115389285Y-26418571D01*
X115275000Y-26361428D01*
X115217857Y-26247142D01*
X115217857Y-26075714D01*
X115275000Y-25961428D01*
X115332142Y-25904285D01*
X115217857Y-27732857D02*
X115217857Y-28190000D01*
X114817857Y-27904285D02*
X115846428Y-27904285D01*
X115960714Y-27961428D01*
X116017857Y-28075714D01*
X116017857Y-28190000D01*
X116017857Y-28590000D02*
X114817857Y-28590000D01*
X116017857Y-29104285D02*
X115389285Y-29104285D01*
X115275000Y-29047142D01*
X115217857Y-28932857D01*
X115217857Y-28761428D01*
X115275000Y-28647142D01*
X115332142Y-28590000D01*
X116017857Y-30190000D02*
X115389285Y-30190000D01*
X115275000Y-30132857D01*
X115217857Y-30018571D01*
X115217857Y-29790000D01*
X115275000Y-29675714D01*
X115960714Y-30190000D02*
X116017857Y-30075714D01*
X116017857Y-29790000D01*
X115960714Y-29675714D01*
X115846428Y-29618571D01*
X115732142Y-29618571D01*
X115617857Y-29675714D01*
X115560714Y-29790000D01*
X115560714Y-30075714D01*
X115503571Y-30190000D01*
X115217857Y-30761428D02*
X116017857Y-30761428D01*
X115332142Y-30761428D02*
X115275000Y-30818571D01*
X115217857Y-30932857D01*
X115217857Y-31104285D01*
X115275000Y-31218571D01*
X115389285Y-31275714D01*
X116017857Y-31275714D01*
X116017857Y-31847142D02*
X114817857Y-31847142D01*
X115560714Y-31961428D02*
X116017857Y-32304285D01*
X115217857Y-32304285D02*
X115675000Y-31847142D01*
X115960714Y-32761428D02*
X116017857Y-32875714D01*
X116017857Y-33104285D01*
X115960714Y-33218571D01*
X115846428Y-33275714D01*
X115789285Y-33275714D01*
X115675000Y-33218571D01*
X115617857Y-33104285D01*
X115617857Y-32932857D01*
X115560714Y-32818571D01*
X115446428Y-32761428D01*
X115389285Y-32761428D01*
X115275000Y-32818571D01*
X115217857Y-32932857D01*
X115217857Y-33104285D01*
X115275000Y-33218571D01*
X115217857Y-34532857D02*
X115217857Y-34990000D01*
X114817857Y-34704285D02*
X115846428Y-34704285D01*
X115960714Y-34761428D01*
X116017857Y-34875714D01*
X116017857Y-34990000D01*
X116017857Y-35561428D02*
X115960714Y-35447142D01*
X115903571Y-35390000D01*
X115789285Y-35332857D01*
X115446428Y-35332857D01*
X115332142Y-35390000D01*
X115275000Y-35447142D01*
X115217857Y-35561428D01*
X115217857Y-35732857D01*
X115275000Y-35847142D01*
X115332142Y-35904285D01*
X115446428Y-35961428D01*
X115789285Y-35961428D01*
X115903571Y-35904285D01*
X115960714Y-35847142D01*
X116017857Y-35732857D01*
X116017857Y-35561428D01*
X116017857Y-38075714D02*
X115446428Y-37675714D01*
X116017857Y-37390000D02*
X114817857Y-37390000D01*
X114817857Y-37847142D01*
X114875000Y-37961428D01*
X114932142Y-38018571D01*
X115046428Y-38075714D01*
X115217857Y-38075714D01*
X115332142Y-38018571D01*
X115389285Y-37961428D01*
X115446428Y-37847142D01*
X115446428Y-37390000D01*
X116017857Y-38761428D02*
X115960714Y-38647142D01*
X115903571Y-38590000D01*
X115789285Y-38532857D01*
X115446428Y-38532857D01*
X115332142Y-38590000D01*
X115275000Y-38647142D01*
X115217857Y-38761428D01*
X115217857Y-38932857D01*
X115275000Y-39047142D01*
X115332142Y-39104285D01*
X115446428Y-39161428D01*
X115789285Y-39161428D01*
X115903571Y-39104285D01*
X115960714Y-39047142D01*
X116017857Y-38932857D01*
X116017857Y-38761428D01*
X116017857Y-39847142D02*
X115960714Y-39732857D01*
X115846428Y-39675714D01*
X114817857Y-39675714D01*
X116017857Y-40818571D02*
X115389285Y-40818571D01*
X115275000Y-40761428D01*
X115217857Y-40647142D01*
X115217857Y-40418571D01*
X115275000Y-40304285D01*
X115960714Y-40818571D02*
X116017857Y-40704285D01*
X116017857Y-40418571D01*
X115960714Y-40304285D01*
X115846428Y-40247142D01*
X115732142Y-40247142D01*
X115617857Y-40304285D01*
X115560714Y-40418571D01*
X115560714Y-40704285D01*
X115503571Y-40818571D01*
X115217857Y-41390000D02*
X116017857Y-41390000D01*
X115332142Y-41390000D02*
X115275000Y-41447142D01*
X115217857Y-41561428D01*
X115217857Y-41732857D01*
X115275000Y-41847142D01*
X115389285Y-41904285D01*
X116017857Y-41904285D01*
X116017857Y-42990000D02*
X114817857Y-42990000D01*
X115960714Y-42990000D02*
X116017857Y-42875714D01*
X116017857Y-42647142D01*
X115960714Y-42532857D01*
X115903571Y-42475714D01*
X115789285Y-42418571D01*
X115446428Y-42418571D01*
X115332142Y-42475714D01*
X115275000Y-42532857D01*
X115217857Y-42647142D01*
X115217857Y-42875714D01*
X115275000Y-42990000D01*
X116017857Y-44475714D02*
X114817857Y-44475714D01*
X114817857Y-44932857D01*
X114875000Y-45047142D01*
X114932142Y-45104285D01*
X115046428Y-45161428D01*
X115217857Y-45161428D01*
X115332142Y-45104285D01*
X115389285Y-45047142D01*
X115446428Y-44932857D01*
X115446428Y-44475714D01*
X115960714Y-46132857D02*
X116017857Y-46018571D01*
X116017857Y-45790000D01*
X115960714Y-45675714D01*
X115846428Y-45618571D01*
X115389285Y-45618571D01*
X115275000Y-45675714D01*
X115217857Y-45790000D01*
X115217857Y-46018571D01*
X115275000Y-46132857D01*
X115389285Y-46190000D01*
X115503571Y-46190000D01*
X115617857Y-45618571D01*
X116017857Y-46704285D02*
X115217857Y-46704285D01*
X115446428Y-46704285D02*
X115332142Y-46761428D01*
X115275000Y-46818571D01*
X115217857Y-46932857D01*
X115217857Y-47047142D01*
X116017857Y-47447142D02*
X115217857Y-47447142D01*
X115446428Y-47447142D02*
X115332142Y-47504285D01*
X115275000Y-47561428D01*
X115217857Y-47675714D01*
X115217857Y-47790000D01*
X115217857Y-48075714D02*
X116017857Y-48361428D01*
X115217857Y-48647142D02*
X116017857Y-48361428D01*
X116303571Y-48247142D01*
X116360714Y-48190000D01*
X116417857Y-48075714D01*
X115960714Y-49161428D02*
X116017857Y-49161428D01*
X116132142Y-49104285D01*
X116189285Y-49047142D01*
X114817857Y-50475714D02*
X116017857Y-50761428D01*
X115160714Y-50989999D01*
X116017857Y-51218571D01*
X114817857Y-51504285D01*
X116017857Y-51961428D02*
X115217857Y-51961428D01*
X114817857Y-51961428D02*
X114875000Y-51904285D01*
X114932142Y-51961428D01*
X114875000Y-52018571D01*
X114817857Y-51961428D01*
X114932142Y-51961428D01*
X116017857Y-52704285D02*
X115960714Y-52589999D01*
X115846428Y-52532857D01*
X114817857Y-52532857D01*
X116017857Y-53332857D02*
X115960714Y-53218571D01*
X115846428Y-53161428D01*
X114817857Y-53161428D01*
X116017857Y-53789999D02*
X115217857Y-53789999D01*
X114817857Y-53789999D02*
X114875000Y-53732857D01*
X114932142Y-53789999D01*
X114875000Y-53847142D01*
X114817857Y-53789999D01*
X114932142Y-53789999D01*
X116017857Y-54875714D02*
X115389285Y-54875714D01*
X115275000Y-54818571D01*
X115217857Y-54704285D01*
X115217857Y-54475714D01*
X115275000Y-54361428D01*
X115960714Y-54875714D02*
X116017857Y-54761428D01*
X116017857Y-54475714D01*
X115960714Y-54361428D01*
X115846428Y-54304285D01*
X115732142Y-54304285D01*
X115617857Y-54361428D01*
X115560714Y-54475714D01*
X115560714Y-54761428D01*
X115503571Y-54875714D01*
X116017857Y-55447142D02*
X115217857Y-55447142D01*
X115332142Y-55447142D02*
X115275000Y-55504285D01*
X115217857Y-55618571D01*
X115217857Y-55789999D01*
X115275000Y-55904285D01*
X115389285Y-55961428D01*
X116017857Y-55961428D01*
X115389285Y-55961428D02*
X115275000Y-56018571D01*
X115217857Y-56132857D01*
X115217857Y-56304285D01*
X115275000Y-56418571D01*
X115389285Y-56475714D01*
X116017857Y-56475714D01*
X116017857Y-57961428D02*
X114817857Y-57961428D01*
X114817857Y-58418571D01*
X114875000Y-58532857D01*
X114932142Y-58589999D01*
X115046428Y-58647142D01*
X115217857Y-58647142D01*
X115332142Y-58589999D01*
X115389285Y-58532857D01*
X115446428Y-58418571D01*
X115446428Y-57961428D01*
X116017857Y-59332857D02*
X115960714Y-59218571D01*
X115903571Y-59161428D01*
X115789285Y-59104285D01*
X115446428Y-59104285D01*
X115332142Y-59161428D01*
X115275000Y-59218571D01*
X115217857Y-59332857D01*
X115217857Y-59504285D01*
X115275000Y-59618571D01*
X115332142Y-59675714D01*
X115446428Y-59732857D01*
X115789285Y-59732857D01*
X115903571Y-59675714D01*
X115960714Y-59618571D01*
X116017857Y-59504285D01*
X116017857Y-59332857D01*
X115960714Y-60704285D02*
X116017857Y-60589999D01*
X116017857Y-60361428D01*
X115960714Y-60247142D01*
X115846428Y-60189999D01*
X115389285Y-60189999D01*
X115275000Y-60247142D01*
X115217857Y-60361428D01*
X115217857Y-60589999D01*
X115275000Y-60704285D01*
X115389285Y-60761428D01*
X115503571Y-60761428D01*
X115617857Y-60189999D01*
X116017857Y-61447142D02*
X115960714Y-61332857D01*
X115846428Y-61275714D01*
X114817857Y-61275714D01*
X115960714Y-61961428D02*
X116017857Y-61961428D01*
X116132142Y-61904285D01*
X116189285Y-61847142D01*
X116017857Y-63389999D02*
X114817857Y-63389999D01*
X115675000Y-63789999D01*
X114817857Y-64189999D01*
X116017857Y-64189999D01*
X116017857Y-65275714D02*
X115389285Y-65275714D01*
X115275000Y-65218571D01*
X115217857Y-65104285D01*
X115217857Y-64875714D01*
X115275000Y-64761428D01*
X115960714Y-65275714D02*
X116017857Y-65161428D01*
X116017857Y-64875714D01*
X115960714Y-64761428D01*
X115846428Y-64704285D01*
X115732142Y-64704285D01*
X115617857Y-64761428D01*
X115560714Y-64875714D01*
X115560714Y-65161428D01*
X115503571Y-65275714D01*
X116017857Y-65847142D02*
X115217857Y-65847142D01*
X115446428Y-65847142D02*
X115332142Y-65904285D01*
X115275000Y-65961428D01*
X115217857Y-66075714D01*
X115217857Y-66189999D01*
X116017857Y-66589999D02*
X114817857Y-66589999D01*
X115560714Y-66704285D02*
X116017857Y-67047142D01*
X115217857Y-67047142D02*
X115675000Y-66589999D01*
X115560714Y-67561428D02*
X115560714Y-68475714D01*
X115389285Y-69047142D02*
X115389285Y-69447142D01*
X116017857Y-69618571D02*
X116017857Y-69047142D01*
X114817857Y-69047142D01*
X114817857Y-69618571D01*
X116017857Y-70132857D02*
X115217857Y-70132857D01*
X115446428Y-70132857D02*
X115332142Y-70189999D01*
X115275000Y-70247142D01*
X115217857Y-70361428D01*
X115217857Y-70475714D01*
X116017857Y-70875714D02*
X115217857Y-70875714D01*
X114817857Y-70875714D02*
X114875000Y-70818571D01*
X114932142Y-70875714D01*
X114875000Y-70932857D01*
X114817857Y-70875714D01*
X114932142Y-70875714D01*
X115960714Y-71961428D02*
X116017857Y-71847142D01*
X116017857Y-71618571D01*
X115960714Y-71504285D01*
X115903571Y-71447142D01*
X115789285Y-71389999D01*
X115446428Y-71389999D01*
X115332142Y-71447142D01*
X115275000Y-71504285D01*
X115217857Y-71618571D01*
X115217857Y-71847142D01*
X115275000Y-71961428D01*
X114817857Y-73732857D02*
X115675000Y-73732857D01*
X115846428Y-73675714D01*
X115960714Y-73561428D01*
X116017857Y-73389999D01*
X116017857Y-73275714D01*
X116017857Y-74475714D02*
X115960714Y-74361428D01*
X115903571Y-74304285D01*
X115789285Y-74247142D01*
X115446428Y-74247142D01*
X115332142Y-74304285D01*
X115275000Y-74361428D01*
X115217857Y-74475714D01*
X115217857Y-74647142D01*
X115275000Y-74761428D01*
X115332142Y-74818571D01*
X115446428Y-74875714D01*
X115789285Y-74875714D01*
X115903571Y-74818571D01*
X115960714Y-74761428D01*
X116017857Y-74647142D01*
X116017857Y-74475714D01*
X115217857Y-75389999D02*
X116017857Y-75389999D01*
X115332142Y-75389999D02*
X115275000Y-75447142D01*
X115217857Y-75561428D01*
X115217857Y-75732857D01*
X115275000Y-75847142D01*
X115389285Y-75904285D01*
X116017857Y-75904285D01*
X115960714Y-76932857D02*
X116017857Y-76818571D01*
X116017857Y-76589999D01*
X115960714Y-76475714D01*
X115846428Y-76418571D01*
X115389285Y-76418571D01*
X115275000Y-76475714D01*
X115217857Y-76589999D01*
X115217857Y-76818571D01*
X115275000Y-76932857D01*
X115389285Y-76989999D01*
X115503571Y-76989999D01*
X115617857Y-76418571D01*
X115960714Y-77447142D02*
X116017857Y-77561428D01*
X116017857Y-77789999D01*
X115960714Y-77904285D01*
X115846428Y-77961428D01*
X115789285Y-77961428D01*
X115675000Y-77904285D01*
X115617857Y-77789999D01*
X115617857Y-77618571D01*
X115560714Y-77504285D01*
X115446428Y-77447142D01*
X115389285Y-77447142D01*
X115275000Y-77504285D01*
X115217857Y-77618571D01*
X115217857Y-77789999D01*
X115275000Y-77904285D01*
X115960714Y-78532857D02*
X116017857Y-78532857D01*
X116132142Y-78475714D01*
X116189285Y-78418571D01*
X118017857Y-23961428D02*
X117446428Y-23561428D01*
X118017857Y-23275714D02*
X116817857Y-23275714D01*
X116817857Y-23732857D01*
X116875000Y-23847142D01*
X116932142Y-23904285D01*
X117046428Y-23961428D01*
X117217857Y-23961428D01*
X117332142Y-23904285D01*
X117389285Y-23847142D01*
X117446428Y-23732857D01*
X117446428Y-23275714D01*
X118017857Y-24647142D02*
X117960714Y-24532857D01*
X117903571Y-24475714D01*
X117789285Y-24418571D01*
X117446428Y-24418571D01*
X117332142Y-24475714D01*
X117275000Y-24532857D01*
X117217857Y-24647142D01*
X117217857Y-24818571D01*
X117275000Y-24932857D01*
X117332142Y-24990000D01*
X117446428Y-25047142D01*
X117789285Y-25047142D01*
X117903571Y-24990000D01*
X117960714Y-24932857D01*
X118017857Y-24818571D01*
X118017857Y-24647142D01*
X117217857Y-26075714D02*
X118189285Y-26075714D01*
X118303571Y-26018571D01*
X118360714Y-25961428D01*
X118417857Y-25847142D01*
X118417857Y-25675714D01*
X118360714Y-25561428D01*
X117960714Y-26075714D02*
X118017857Y-25961428D01*
X118017857Y-25732857D01*
X117960714Y-25618571D01*
X117903571Y-25561428D01*
X117789285Y-25504285D01*
X117446428Y-25504285D01*
X117332142Y-25561428D01*
X117275000Y-25618571D01*
X117217857Y-25732857D01*
X117217857Y-25961428D01*
X117275000Y-26075714D01*
X117960714Y-27104285D02*
X118017857Y-26990000D01*
X118017857Y-26761428D01*
X117960714Y-26647142D01*
X117846428Y-26590000D01*
X117389285Y-26590000D01*
X117275000Y-26647142D01*
X117217857Y-26761428D01*
X117217857Y-26990000D01*
X117275000Y-27104285D01*
X117389285Y-27161428D01*
X117503571Y-27161428D01*
X117617857Y-26590000D01*
X118017857Y-27675714D02*
X117217857Y-27675714D01*
X117446428Y-27675714D02*
X117332142Y-27732857D01*
X117275000Y-27790000D01*
X117217857Y-27904285D01*
X117217857Y-28018571D01*
X118017857Y-29332857D02*
X116817857Y-29332857D01*
X117389285Y-29332857D02*
X117389285Y-30018571D01*
X118017857Y-30018571D02*
X116817857Y-30018571D01*
X117217857Y-31104285D02*
X118017857Y-31104285D01*
X117217857Y-30590000D02*
X117846428Y-30590000D01*
X117960714Y-30647142D01*
X118017857Y-30761428D01*
X118017857Y-30932857D01*
X117960714Y-31047142D01*
X117903571Y-31104285D01*
X118017857Y-31675714D02*
X117217857Y-31675714D01*
X117446428Y-31675714D02*
X117332142Y-31732857D01*
X117275000Y-31790000D01*
X117217857Y-31904285D01*
X117217857Y-32018571D01*
X118017857Y-32418571D02*
X117217857Y-32418571D01*
X117446428Y-32418571D02*
X117332142Y-32475714D01*
X117275000Y-32532857D01*
X117217857Y-32647142D01*
X117217857Y-32761428D01*
X117960714Y-33618571D02*
X118017857Y-33504285D01*
X118017857Y-33275714D01*
X117960714Y-33161428D01*
X117846428Y-33104285D01*
X117389285Y-33104285D01*
X117275000Y-33161428D01*
X117217857Y-33275714D01*
X117217857Y-33504285D01*
X117275000Y-33618571D01*
X117389285Y-33675714D01*
X117503571Y-33675714D01*
X117617857Y-33104285D01*
X117217857Y-34075714D02*
X118017857Y-34361428D01*
X117217857Y-34647142D02*
X118017857Y-34361428D01*
X118303571Y-34247142D01*
X118360714Y-34189999D01*
X118417857Y-34075714D01*
X117960714Y-35161428D02*
X118017857Y-35161428D01*
X118132142Y-35104285D01*
X118189285Y-35047142D01*
X118017857Y-37275714D02*
X117446428Y-36875714D01*
X118017857Y-36590000D02*
X116817857Y-36590000D01*
X116817857Y-37047142D01*
X116875000Y-37161428D01*
X116932142Y-37218571D01*
X117046428Y-37275714D01*
X117217857Y-37275714D01*
X117332142Y-37218571D01*
X117389285Y-37161428D01*
X117446428Y-37047142D01*
X117446428Y-36590000D01*
X118017857Y-37790000D02*
X117217857Y-37790000D01*
X116817857Y-37790000D02*
X116875000Y-37732857D01*
X116932142Y-37790000D01*
X116875000Y-37847142D01*
X116817857Y-37790000D01*
X116932142Y-37790000D01*
X117960714Y-38875714D02*
X118017857Y-38761428D01*
X118017857Y-38532857D01*
X117960714Y-38418571D01*
X117903571Y-38361428D01*
X117789285Y-38304285D01*
X117446428Y-38304285D01*
X117332142Y-38361428D01*
X117275000Y-38418571D01*
X117217857Y-38532857D01*
X117217857Y-38761428D01*
X117275000Y-38875714D01*
X118017857Y-39390000D02*
X116817857Y-39390000D01*
X118017857Y-39904285D02*
X117389285Y-39904285D01*
X117275000Y-39847142D01*
X117217857Y-39732857D01*
X117217857Y-39561428D01*
X117275000Y-39447142D01*
X117332142Y-39390000D01*
X118017857Y-40990000D02*
X117389285Y-40990000D01*
X117275000Y-40932857D01*
X117217857Y-40818571D01*
X117217857Y-40590000D01*
X117275000Y-40475714D01*
X117960714Y-40990000D02*
X118017857Y-40875714D01*
X118017857Y-40590000D01*
X117960714Y-40475714D01*
X117846428Y-40418571D01*
X117732142Y-40418571D01*
X117617857Y-40475714D01*
X117560714Y-40590000D01*
X117560714Y-40875714D01*
X117503571Y-40990000D01*
X118017857Y-41561428D02*
X117217857Y-41561428D01*
X117446428Y-41561428D02*
X117332142Y-41618571D01*
X117275000Y-41675714D01*
X117217857Y-41790000D01*
X117217857Y-41904285D01*
X118017857Y-42818571D02*
X116817857Y-42818571D01*
X117960714Y-42818571D02*
X118017857Y-42704285D01*
X118017857Y-42475714D01*
X117960714Y-42361428D01*
X117903571Y-42304285D01*
X117789285Y-42247142D01*
X117446428Y-42247142D01*
X117332142Y-42304285D01*
X117275000Y-42361428D01*
X117217857Y-42475714D01*
X117217857Y-42704285D01*
X117275000Y-42818571D01*
X117903571Y-44990000D02*
X117960714Y-44932857D01*
X118017857Y-44761428D01*
X118017857Y-44647142D01*
X117960714Y-44475714D01*
X117846428Y-44361428D01*
X117732142Y-44304285D01*
X117503571Y-44247142D01*
X117332142Y-44247142D01*
X117103571Y-44304285D01*
X116989285Y-44361428D01*
X116875000Y-44475714D01*
X116817857Y-44647142D01*
X116817857Y-44761428D01*
X116875000Y-44932857D01*
X116932142Y-44990000D01*
X118017857Y-45675714D02*
X117960714Y-45561428D01*
X117846428Y-45504285D01*
X116817857Y-45504285D01*
X118017857Y-46647142D02*
X117389285Y-46647142D01*
X117275000Y-46590000D01*
X117217857Y-46475714D01*
X117217857Y-46247142D01*
X117275000Y-46132857D01*
X117960714Y-46647142D02*
X118017857Y-46532857D01*
X118017857Y-46247142D01*
X117960714Y-46132857D01*
X117846428Y-46075714D01*
X117732142Y-46075714D01*
X117617857Y-46132857D01*
X117560714Y-46247142D01*
X117560714Y-46532857D01*
X117503571Y-46647142D01*
X117217857Y-47104285D02*
X118017857Y-47390000D01*
X117217857Y-47675714D02*
X118017857Y-47390000D01*
X118303571Y-47275714D01*
X118360714Y-47218571D01*
X118417857Y-47104285D01*
X117217857Y-47961428D02*
X117217857Y-48418571D01*
X116817857Y-48132857D02*
X117846428Y-48132857D01*
X117960714Y-48190000D01*
X118017857Y-48304285D01*
X118017857Y-48418571D01*
X118017857Y-48990000D02*
X117960714Y-48875714D01*
X117903571Y-48818571D01*
X117789285Y-48761428D01*
X117446428Y-48761428D01*
X117332142Y-48818571D01*
X117275000Y-48875714D01*
X117217857Y-48990000D01*
X117217857Y-49161428D01*
X117275000Y-49275714D01*
X117332142Y-49332857D01*
X117446428Y-49390000D01*
X117789285Y-49390000D01*
X117903571Y-49332857D01*
X117960714Y-49275714D01*
X118017857Y-49161428D01*
X118017857Y-48990000D01*
X117217857Y-49904285D02*
X118017857Y-49904285D01*
X117332142Y-49904285D02*
X117275000Y-49961428D01*
X117217857Y-50075714D01*
X117217857Y-50247142D01*
X117275000Y-50361428D01*
X117389285Y-50418571D01*
X118017857Y-50418571D01*
X117960714Y-51047142D02*
X118017857Y-51047142D01*
X118132142Y-50990000D01*
X118189285Y-50932857D01*
X117903571Y-53161428D02*
X117960714Y-53104285D01*
X118017857Y-52932857D01*
X118017857Y-52818571D01*
X117960714Y-52647142D01*
X117846428Y-52532857D01*
X117732142Y-52475714D01*
X117503571Y-52418571D01*
X117332142Y-52418571D01*
X117103571Y-52475714D01*
X116989285Y-52532857D01*
X116875000Y-52647142D01*
X116817857Y-52818571D01*
X116817857Y-52932857D01*
X116875000Y-53104285D01*
X116932142Y-53161428D01*
X118017857Y-53675714D02*
X116817857Y-53675714D01*
X118017857Y-54190000D02*
X117389285Y-54190000D01*
X117275000Y-54132857D01*
X117217857Y-54018571D01*
X117217857Y-53847142D01*
X117275000Y-53732857D01*
X117332142Y-53675714D01*
X118017857Y-54761428D02*
X117217857Y-54761428D01*
X117446428Y-54761428D02*
X117332142Y-54818571D01*
X117275000Y-54875714D01*
X117217857Y-54990000D01*
X117217857Y-55104285D01*
X118017857Y-55504285D02*
X117217857Y-55504285D01*
X116817857Y-55504285D02*
X116875000Y-55447142D01*
X116932142Y-55504285D01*
X116875000Y-55561428D01*
X116817857Y-55504285D01*
X116932142Y-55504285D01*
X117960714Y-56018571D02*
X118017857Y-56132857D01*
X118017857Y-56361428D01*
X117960714Y-56475714D01*
X117846428Y-56532857D01*
X117789285Y-56532857D01*
X117675000Y-56475714D01*
X117617857Y-56361428D01*
X117617857Y-56190000D01*
X117560714Y-56075714D01*
X117446428Y-56018571D01*
X117389285Y-56018571D01*
X117275000Y-56075714D01*
X117217857Y-56190000D01*
X117217857Y-56361428D01*
X117275000Y-56475714D01*
X118017857Y-57961428D02*
X116817857Y-57961428D01*
X117389285Y-57961428D02*
X117389285Y-58647142D01*
X118017857Y-58647142D02*
X116817857Y-58647142D01*
X118017857Y-59732857D02*
X117389285Y-59732857D01*
X117275000Y-59675714D01*
X117217857Y-59561428D01*
X117217857Y-59332857D01*
X117275000Y-59218571D01*
X117960714Y-59732857D02*
X118017857Y-59618571D01*
X118017857Y-59332857D01*
X117960714Y-59218571D01*
X117846428Y-59161428D01*
X117732142Y-59161428D01*
X117617857Y-59218571D01*
X117560714Y-59332857D01*
X117560714Y-59618571D01*
X117503571Y-59732857D01*
X118017857Y-60475714D02*
X117960714Y-60361428D01*
X117846428Y-60304285D01*
X116817857Y-60304285D01*
X118017857Y-61104285D02*
X117960714Y-60990000D01*
X117846428Y-60932857D01*
X116817857Y-60932857D01*
X117960714Y-61618571D02*
X118017857Y-61618571D01*
X118132142Y-61561428D01*
X118189285Y-61504285D01*
X118017857Y-63047142D02*
X116817857Y-63047142D01*
X116817857Y-63504285D01*
X116875000Y-63618571D01*
X116932142Y-63675714D01*
X117046428Y-63732857D01*
X117217857Y-63732857D01*
X117332142Y-63675714D01*
X117389285Y-63618571D01*
X117446428Y-63504285D01*
X117446428Y-63047142D01*
X118017857Y-64761428D02*
X117389285Y-64761428D01*
X117275000Y-64704285D01*
X117217857Y-64590000D01*
X117217857Y-64361428D01*
X117275000Y-64247142D01*
X117960714Y-64761428D02*
X118017857Y-64647142D01*
X118017857Y-64361428D01*
X117960714Y-64247142D01*
X117846428Y-64190000D01*
X117732142Y-64190000D01*
X117617857Y-64247142D01*
X117560714Y-64361428D01*
X117560714Y-64647142D01*
X117503571Y-64761428D01*
X117217857Y-65847142D02*
X118017857Y-65847142D01*
X117217857Y-65332857D02*
X117846428Y-65332857D01*
X117960714Y-65390000D01*
X118017857Y-65504285D01*
X118017857Y-65675714D01*
X117960714Y-65790000D01*
X117903571Y-65847142D01*
X118017857Y-66590000D02*
X117960714Y-66475714D01*
X117846428Y-66418571D01*
X116817857Y-66418571D01*
X116817857Y-68190000D02*
X116817857Y-68418571D01*
X116875000Y-68532857D01*
X116989285Y-68647142D01*
X117217857Y-68704285D01*
X117617857Y-68704285D01*
X117846428Y-68647142D01*
X117960714Y-68532857D01*
X118017857Y-68418571D01*
X118017857Y-68190000D01*
X117960714Y-68075714D01*
X117846428Y-67961428D01*
X117617857Y-67904285D01*
X117217857Y-67904285D01*
X116989285Y-67961428D01*
X116875000Y-68075714D01*
X116817857Y-68190000D01*
X117217857Y-69104285D02*
X118017857Y-69390000D01*
X117217857Y-69675714D01*
X117960714Y-70590000D02*
X118017857Y-70475714D01*
X118017857Y-70247142D01*
X117960714Y-70132857D01*
X117846428Y-70075714D01*
X117389285Y-70075714D01*
X117275000Y-70132857D01*
X117217857Y-70247142D01*
X117217857Y-70475714D01*
X117275000Y-70590000D01*
X117389285Y-70647142D01*
X117503571Y-70647142D01*
X117617857Y-70075714D01*
X118017857Y-71161428D02*
X117217857Y-71161428D01*
X117446428Y-71161428D02*
X117332142Y-71218571D01*
X117275000Y-71275714D01*
X117217857Y-71390000D01*
X117217857Y-71504285D01*
X117960714Y-72361428D02*
X118017857Y-72247142D01*
X118017857Y-72018571D01*
X117960714Y-71904285D01*
X117846428Y-71847142D01*
X117389285Y-71847142D01*
X117275000Y-71904285D01*
X117217857Y-72018571D01*
X117217857Y-72247142D01*
X117275000Y-72361428D01*
X117389285Y-72418571D01*
X117503571Y-72418571D01*
X117617857Y-71847142D01*
X118017857Y-73104285D02*
X117960714Y-72990000D01*
X117846428Y-72932857D01*
X116817857Y-72932857D01*
X118017857Y-73732857D02*
X117960714Y-73618571D01*
X117846428Y-73561428D01*
X116817857Y-73561428D01*
X117960714Y-74247142D02*
X118017857Y-74247142D01*
X118132142Y-74190000D01*
X118189285Y-74132857D01*
X118817857Y-23104285D02*
X118817857Y-23790000D01*
X120017857Y-23447142D02*
X118817857Y-23447142D01*
X120017857Y-24361428D02*
X119960714Y-24247142D01*
X119903571Y-24190000D01*
X119789285Y-24132857D01*
X119446428Y-24132857D01*
X119332142Y-24190000D01*
X119275000Y-24247142D01*
X119217857Y-24361428D01*
X119217857Y-24532857D01*
X119275000Y-24647142D01*
X119332142Y-24704285D01*
X119446428Y-24761428D01*
X119789285Y-24761428D01*
X119903571Y-24704285D01*
X119960714Y-24647142D01*
X120017857Y-24532857D01*
X120017857Y-24361428D01*
X119217857Y-25275714D02*
X120017857Y-25275714D01*
X119332142Y-25275714D02*
X119275000Y-25332857D01*
X119217857Y-25447142D01*
X119217857Y-25618571D01*
X119275000Y-25732857D01*
X119389285Y-25790000D01*
X120017857Y-25790000D01*
X119217857Y-26247142D02*
X120017857Y-26532857D01*
X119217857Y-26818571D02*
X120017857Y-26532857D01*
X120303571Y-26418571D01*
X120360714Y-26361428D01*
X120417857Y-26247142D01*
X119389285Y-28590000D02*
X119446428Y-28761428D01*
X119503571Y-28818571D01*
X119617857Y-28875714D01*
X119789285Y-28875714D01*
X119903571Y-28818571D01*
X119960714Y-28761428D01*
X120017857Y-28647142D01*
X120017857Y-28190000D01*
X118817857Y-28190000D01*
X118817857Y-28590000D01*
X118875000Y-28704285D01*
X118932142Y-28761428D01*
X119046428Y-28818571D01*
X119160714Y-28818571D01*
X119275000Y-28761428D01*
X119332142Y-28704285D01*
X119389285Y-28590000D01*
X119389285Y-28190000D01*
X119217857Y-29904285D02*
X120017857Y-29904285D01*
X119217857Y-29390000D02*
X119846428Y-29390000D01*
X119960714Y-29447142D01*
X120017857Y-29561428D01*
X120017857Y-29732857D01*
X119960714Y-29847142D01*
X119903571Y-29904285D01*
X119960714Y-30418571D02*
X120017857Y-30532857D01*
X120017857Y-30761428D01*
X119960714Y-30875714D01*
X119846428Y-30932857D01*
X119789285Y-30932857D01*
X119675000Y-30875714D01*
X119617857Y-30761428D01*
X119617857Y-30590000D01*
X119560714Y-30475714D01*
X119446428Y-30418571D01*
X119389285Y-30418571D01*
X119275000Y-30475714D01*
X119217857Y-30590000D01*
X119217857Y-30761428D01*
X119275000Y-30875714D01*
X120017857Y-31447142D02*
X118817857Y-31447142D01*
X120017857Y-31961428D02*
X119389285Y-31961428D01*
X119275000Y-31904285D01*
X119217857Y-31790000D01*
X119217857Y-31618571D01*
X119275000Y-31504285D01*
X119332142Y-31447142D01*
X120017857Y-33961428D02*
X119389285Y-33961428D01*
X119275000Y-33904285D01*
X119217857Y-33790000D01*
X119217857Y-33561428D01*
X119275000Y-33447142D01*
X119960714Y-33961428D02*
X120017857Y-33847142D01*
X120017857Y-33561428D01*
X119960714Y-33447142D01*
X119846428Y-33390000D01*
X119732142Y-33390000D01*
X119617857Y-33447142D01*
X119560714Y-33561428D01*
X119560714Y-33847142D01*
X119503571Y-33961428D01*
X119217857Y-34532857D02*
X120017857Y-34532857D01*
X119332142Y-34532857D02*
X119275000Y-34590000D01*
X119217857Y-34704285D01*
X119217857Y-34875714D01*
X119275000Y-34990000D01*
X119389285Y-35047142D01*
X120017857Y-35047142D01*
X120017857Y-36132857D02*
X118817857Y-36132857D01*
X119960714Y-36132857D02*
X120017857Y-36018571D01*
X120017857Y-35790000D01*
X119960714Y-35675714D01*
X119903571Y-35618571D01*
X119789285Y-35561428D01*
X119446428Y-35561428D01*
X119332142Y-35618571D01*
X119275000Y-35675714D01*
X119217857Y-35790000D01*
X119217857Y-36018571D01*
X119275000Y-36132857D01*
X119389285Y-38018571D02*
X119446428Y-38190000D01*
X119503571Y-38247142D01*
X119617857Y-38304285D01*
X119789285Y-38304285D01*
X119903571Y-38247142D01*
X119960714Y-38190000D01*
X120017857Y-38075714D01*
X120017857Y-37618571D01*
X118817857Y-37618571D01*
X118817857Y-38018571D01*
X118875000Y-38132857D01*
X118932142Y-38190000D01*
X119046428Y-38247142D01*
X119160714Y-38247142D01*
X119275000Y-38190000D01*
X119332142Y-38132857D01*
X119389285Y-38018571D01*
X119389285Y-37618571D01*
X120017857Y-38818571D02*
X119217857Y-38818571D01*
X119446428Y-38818571D02*
X119332142Y-38875714D01*
X119275000Y-38932857D01*
X119217857Y-39047142D01*
X119217857Y-39161428D01*
X119217857Y-40075714D02*
X120017857Y-40075714D01*
X119217857Y-39561428D02*
X119846428Y-39561428D01*
X119960714Y-39618571D01*
X120017857Y-39732857D01*
X120017857Y-39904285D01*
X119960714Y-40018571D01*
X119903571Y-40075714D01*
X119960714Y-41161428D02*
X120017857Y-41047142D01*
X120017857Y-40818571D01*
X119960714Y-40704285D01*
X119903571Y-40647142D01*
X119789285Y-40590000D01*
X119446428Y-40590000D01*
X119332142Y-40647142D01*
X119275000Y-40704285D01*
X119217857Y-40818571D01*
X119217857Y-41047142D01*
X119275000Y-41161428D01*
X119960714Y-42132857D02*
X120017857Y-42018571D01*
X120017857Y-41790000D01*
X119960714Y-41675714D01*
X119846428Y-41618571D01*
X119389285Y-41618571D01*
X119275000Y-41675714D01*
X119217857Y-41790000D01*
X119217857Y-42018571D01*
X119275000Y-42132857D01*
X119389285Y-42190000D01*
X119503571Y-42190000D01*
X119617857Y-41618571D01*
X118875000Y-44247142D02*
X118817857Y-44132857D01*
X118817857Y-43961428D01*
X118875000Y-43790000D01*
X118989285Y-43675714D01*
X119103571Y-43618571D01*
X119332142Y-43561428D01*
X119503571Y-43561428D01*
X119732142Y-43618571D01*
X119846428Y-43675714D01*
X119960714Y-43790000D01*
X120017857Y-43961428D01*
X120017857Y-44075714D01*
X119960714Y-44247142D01*
X119903571Y-44304285D01*
X119503571Y-44304285D01*
X119503571Y-44075714D01*
X120017857Y-44990000D02*
X119960714Y-44875714D01*
X119903571Y-44818571D01*
X119789285Y-44761428D01*
X119446428Y-44761428D01*
X119332142Y-44818571D01*
X119275000Y-44875714D01*
X119217857Y-44990000D01*
X119217857Y-45161428D01*
X119275000Y-45275714D01*
X119332142Y-45332857D01*
X119446428Y-45390000D01*
X119789285Y-45390000D01*
X119903571Y-45332857D01*
X119960714Y-45275714D01*
X120017857Y-45161428D01*
X120017857Y-44990000D01*
X120017857Y-46418571D02*
X118817857Y-46418571D01*
X119960714Y-46418571D02*
X120017857Y-46304285D01*
X120017857Y-46075714D01*
X119960714Y-45961428D01*
X119903571Y-45904285D01*
X119789285Y-45847142D01*
X119446428Y-45847142D01*
X119332142Y-45904285D01*
X119275000Y-45961428D01*
X119217857Y-46075714D01*
X119217857Y-46304285D01*
X119275000Y-46418571D01*
X120017857Y-47504285D02*
X118817857Y-47504285D01*
X119960714Y-47504285D02*
X120017857Y-47390000D01*
X120017857Y-47161428D01*
X119960714Y-47047142D01*
X119903571Y-46990000D01*
X119789285Y-46932857D01*
X119446428Y-46932857D01*
X119332142Y-46990000D01*
X119275000Y-47047142D01*
X119217857Y-47161428D01*
X119217857Y-47390000D01*
X119275000Y-47504285D01*
X119960714Y-48532857D02*
X120017857Y-48418571D01*
X120017857Y-48190000D01*
X119960714Y-48075714D01*
X119846428Y-48018571D01*
X119389285Y-48018571D01*
X119275000Y-48075714D01*
X119217857Y-48190000D01*
X119217857Y-48418571D01*
X119275000Y-48532857D01*
X119389285Y-48590000D01*
X119503571Y-48590000D01*
X119617857Y-48018571D01*
X119217857Y-49104285D02*
X120017857Y-49104285D01*
X119332142Y-49104285D02*
X119275000Y-49161428D01*
X119217857Y-49275714D01*
X119217857Y-49447142D01*
X119275000Y-49561428D01*
X119389285Y-49618571D01*
X120017857Y-49618571D01*
X119903571Y-50190000D02*
X119960714Y-50247142D01*
X120017857Y-50190000D01*
X119960714Y-50132857D01*
X119903571Y-50190000D01*
X120017857Y-50190000D01*
X194844285Y-23675714D02*
X194901428Y-23847142D01*
X194958571Y-23904285D01*
X195072857Y-23961428D01*
X195244285Y-23961428D01*
X195358571Y-23904285D01*
X195415714Y-23847142D01*
X195472857Y-23732857D01*
X195472857Y-23275714D01*
X194272857Y-23275714D01*
X194272857Y-23675714D01*
X194330000Y-23790000D01*
X194387142Y-23847142D01*
X194501428Y-23904285D01*
X194615714Y-23904285D01*
X194730000Y-23847142D01*
X194787142Y-23790000D01*
X194844285Y-23675714D01*
X194844285Y-23275714D01*
X194672857Y-24990000D02*
X195472857Y-24990000D01*
X194672857Y-24475714D02*
X195301428Y-24475714D01*
X195415714Y-24532857D01*
X195472857Y-24647142D01*
X195472857Y-24818571D01*
X195415714Y-24932857D01*
X195358571Y-24990000D01*
X195472857Y-25561428D02*
X194672857Y-25561428D01*
X194272857Y-25561428D02*
X194330000Y-25504285D01*
X194387142Y-25561428D01*
X194330000Y-25618571D01*
X194272857Y-25561428D01*
X194387142Y-25561428D01*
X195472857Y-26304285D02*
X195415714Y-26190000D01*
X195301428Y-26132857D01*
X194272857Y-26132857D01*
X195472857Y-27275714D02*
X194272857Y-27275714D01*
X195415714Y-27275714D02*
X195472857Y-27161428D01*
X195472857Y-26932857D01*
X195415714Y-26818571D01*
X195358571Y-26761428D01*
X195244285Y-26704285D01*
X194901428Y-26704285D01*
X194787142Y-26761428D01*
X194730000Y-26818571D01*
X194672857Y-26932857D01*
X194672857Y-27161428D01*
X194730000Y-27275714D01*
X194672857Y-28761428D02*
X195472857Y-28761428D01*
X194787142Y-28761428D02*
X194730000Y-28818571D01*
X194672857Y-28932857D01*
X194672857Y-29104285D01*
X194730000Y-29218571D01*
X194844285Y-29275714D01*
X195472857Y-29275714D01*
X195472857Y-30018571D02*
X195415714Y-29904285D01*
X195358571Y-29847142D01*
X195244285Y-29790000D01*
X194901428Y-29790000D01*
X194787142Y-29847142D01*
X194730000Y-29904285D01*
X194672857Y-30018571D01*
X194672857Y-30190000D01*
X194730000Y-30304285D01*
X194787142Y-30361428D01*
X194901428Y-30418571D01*
X195244285Y-30418571D01*
X195358571Y-30361428D01*
X195415714Y-30304285D01*
X195472857Y-30190000D01*
X195472857Y-30018571D01*
X194672857Y-30761428D02*
X194672857Y-31218571D01*
X194272857Y-30932857D02*
X195301428Y-30932857D01*
X195415714Y-30990000D01*
X195472857Y-31104285D01*
X195472857Y-31218571D01*
X195415714Y-32075714D02*
X195472857Y-31961428D01*
X195472857Y-31732857D01*
X195415714Y-31618571D01*
X195301428Y-31561428D01*
X194844285Y-31561428D01*
X194730000Y-31618571D01*
X194672857Y-31732857D01*
X194672857Y-31961428D01*
X194730000Y-32075714D01*
X194844285Y-32132857D01*
X194958571Y-32132857D01*
X195072857Y-31561428D01*
X195415714Y-32590000D02*
X195472857Y-32704285D01*
X195472857Y-32932857D01*
X195415714Y-33047142D01*
X195301428Y-33104285D01*
X195244285Y-33104285D01*
X195130000Y-33047142D01*
X195072857Y-32932857D01*
X195072857Y-32761428D01*
X195015714Y-32647142D01*
X194901428Y-32590000D01*
X194844285Y-32590000D01*
X194730000Y-32647142D01*
X194672857Y-32761428D01*
X194672857Y-32932857D01*
X194730000Y-33047142D01*
X195358571Y-33618571D02*
X195415714Y-33675714D01*
X195472857Y-33618571D01*
X195415714Y-33561428D01*
X195358571Y-33618571D01*
X195472857Y-33618571D01*
X194730000Y-33618571D02*
X194787142Y-33675714D01*
X194844285Y-33618571D01*
X194787142Y-33561428D01*
X194730000Y-33618571D01*
X194844285Y-33618571D01*
X197130000Y-23218571D02*
X197130000Y-23790000D01*
X197472857Y-23104285D02*
X196272857Y-23504285D01*
X197472857Y-23904285D01*
X197472857Y-24475714D02*
X197415714Y-24361428D01*
X197301428Y-24304285D01*
X196272857Y-24304285D01*
X197472857Y-25104285D02*
X197415714Y-24990000D01*
X197301428Y-24932857D01*
X196272857Y-24932857D01*
X197472857Y-26990000D02*
X196272857Y-26990000D01*
X197415714Y-26990000D02*
X197472857Y-26875714D01*
X197472857Y-26647142D01*
X197415714Y-26532857D01*
X197358571Y-26475714D01*
X197244285Y-26418571D01*
X196901428Y-26418571D01*
X196787142Y-26475714D01*
X196730000Y-26532857D01*
X196672857Y-26647142D01*
X196672857Y-26875714D01*
X196730000Y-26990000D01*
X197472857Y-27561428D02*
X196672857Y-27561428D01*
X196272857Y-27561428D02*
X196330000Y-27504285D01*
X196387142Y-27561428D01*
X196330000Y-27618571D01*
X196272857Y-27561428D01*
X196387142Y-27561428D01*
X197472857Y-28304285D02*
X197415714Y-28190000D01*
X197358571Y-28132857D01*
X197244285Y-28075714D01*
X196901428Y-28075714D01*
X196787142Y-28132857D01*
X196730000Y-28190000D01*
X196672857Y-28304285D01*
X196672857Y-28475714D01*
X196730000Y-28590000D01*
X196787142Y-28647142D01*
X196901428Y-28704285D01*
X197244285Y-28704285D01*
X197358571Y-28647142D01*
X197415714Y-28590000D01*
X197472857Y-28475714D01*
X197472857Y-28304285D01*
X197472857Y-29732857D02*
X196272857Y-29732857D01*
X197415714Y-29732857D02*
X197472857Y-29618571D01*
X197472857Y-29390000D01*
X197415714Y-29275714D01*
X197358571Y-29218571D01*
X197244285Y-29161428D01*
X196901428Y-29161428D01*
X196787142Y-29218571D01*
X196730000Y-29275714D01*
X196672857Y-29390000D01*
X196672857Y-29618571D01*
X196730000Y-29732857D01*
X197415714Y-30761428D02*
X197472857Y-30647142D01*
X197472857Y-30418571D01*
X197415714Y-30304285D01*
X197301428Y-30247142D01*
X196844285Y-30247142D01*
X196730000Y-30304285D01*
X196672857Y-30418571D01*
X196672857Y-30647142D01*
X196730000Y-30761428D01*
X196844285Y-30818571D01*
X196958571Y-30818571D01*
X197072857Y-30247142D01*
X197415714Y-31275714D02*
X197472857Y-31390000D01*
X197472857Y-31618571D01*
X197415714Y-31732857D01*
X197301428Y-31790000D01*
X197244285Y-31790000D01*
X197130000Y-31732857D01*
X197072857Y-31618571D01*
X197072857Y-31447142D01*
X197015714Y-31332857D01*
X196901428Y-31275714D01*
X196844285Y-31275714D01*
X196730000Y-31332857D01*
X196672857Y-31447142D01*
X196672857Y-31618571D01*
X196730000Y-31732857D01*
X197930000Y-33561428D02*
X197872857Y-33504285D01*
X197701428Y-33390000D01*
X197587142Y-33332857D01*
X197415714Y-33275714D01*
X197130000Y-33218571D01*
X196901428Y-33218571D01*
X196615714Y-33275714D01*
X196444285Y-33332857D01*
X196330000Y-33390000D01*
X196158571Y-33504285D01*
X196101428Y-33561428D01*
X197415714Y-34475714D02*
X197472857Y-34361428D01*
X197472857Y-34132857D01*
X197415714Y-34018571D01*
X197301428Y-33961428D01*
X196844285Y-33961428D01*
X196730000Y-34018571D01*
X196672857Y-34132857D01*
X196672857Y-34361428D01*
X196730000Y-34475714D01*
X196844285Y-34532857D01*
X196958571Y-34532857D01*
X197072857Y-33961428D01*
X197472857Y-34932857D02*
X196672857Y-35561428D01*
X196672857Y-34932857D02*
X197472857Y-35561428D01*
X197415714Y-36532857D02*
X197472857Y-36418571D01*
X197472857Y-36190000D01*
X197415714Y-36075714D01*
X197358571Y-36018571D01*
X197244285Y-35961428D01*
X196901428Y-35961428D01*
X196787142Y-36018571D01*
X196730000Y-36075714D01*
X196672857Y-36190000D01*
X196672857Y-36418571D01*
X196730000Y-36532857D01*
X197415714Y-37504285D02*
X197472857Y-37390000D01*
X197472857Y-37161428D01*
X197415714Y-37047142D01*
X197301428Y-36990000D01*
X196844285Y-36990000D01*
X196730000Y-37047142D01*
X196672857Y-37161428D01*
X196672857Y-37390000D01*
X196730000Y-37504285D01*
X196844285Y-37561428D01*
X196958571Y-37561428D01*
X197072857Y-36990000D01*
X196672857Y-38075714D02*
X197872857Y-38075714D01*
X196730000Y-38075714D02*
X196672857Y-38190000D01*
X196672857Y-38418571D01*
X196730000Y-38532857D01*
X196787142Y-38590000D01*
X196901428Y-38647142D01*
X197244285Y-38647142D01*
X197358571Y-38590000D01*
X197415714Y-38532857D01*
X197472857Y-38418571D01*
X197472857Y-38190000D01*
X197415714Y-38075714D01*
X196672857Y-38990000D02*
X196672857Y-39447142D01*
X196272857Y-39161428D02*
X197301428Y-39161428D01*
X197415714Y-39218571D01*
X197472857Y-39332857D01*
X197472857Y-39447142D01*
X196672857Y-40590000D02*
X196672857Y-41047142D01*
X196272857Y-40761428D02*
X197301428Y-40761428D01*
X197415714Y-40818571D01*
X197472857Y-40932857D01*
X197472857Y-41047142D01*
X197472857Y-41447142D02*
X196272857Y-41447142D01*
X197472857Y-41961428D02*
X196844285Y-41961428D01*
X196730000Y-41904285D01*
X196672857Y-41790000D01*
X196672857Y-41618571D01*
X196730000Y-41504285D01*
X196787142Y-41447142D01*
X197415714Y-42990000D02*
X197472857Y-42875714D01*
X197472857Y-42647142D01*
X197415714Y-42532857D01*
X197301428Y-42475714D01*
X196844285Y-42475714D01*
X196730000Y-42532857D01*
X196672857Y-42647142D01*
X196672857Y-42875714D01*
X196730000Y-42990000D01*
X196844285Y-43047142D01*
X196958571Y-43047142D01*
X197072857Y-42475714D01*
X197472857Y-45047142D02*
X197472857Y-44475714D01*
X196272857Y-44475714D01*
X196844285Y-45447142D02*
X196844285Y-45847142D01*
X197472857Y-46018571D02*
X197472857Y-45447142D01*
X196272857Y-45447142D01*
X196272857Y-46018571D01*
X197472857Y-46532857D02*
X196272857Y-46532857D01*
X196272857Y-46818571D01*
X196330000Y-46990000D01*
X196444285Y-47104285D01*
X196558571Y-47161428D01*
X196787142Y-47218571D01*
X196958571Y-47218571D01*
X197187142Y-47161428D01*
X197301428Y-47104285D01*
X197415714Y-46990000D01*
X197472857Y-46818571D01*
X197472857Y-46532857D01*
X197930000Y-47618571D02*
X197872857Y-47675714D01*
X197701428Y-47790000D01*
X197587142Y-47847142D01*
X197415714Y-47904285D01*
X197130000Y-47961428D01*
X196901428Y-47961428D01*
X196615714Y-47904285D01*
X196444285Y-47847142D01*
X196330000Y-47790000D01*
X196158571Y-47675714D01*
X196101428Y-47618571D01*
X197472857Y-49961428D02*
X196844285Y-49961428D01*
X196730000Y-49904285D01*
X196672857Y-49790000D01*
X196672857Y-49561428D01*
X196730000Y-49447142D01*
X197415714Y-49961428D02*
X197472857Y-49847142D01*
X197472857Y-49561428D01*
X197415714Y-49447142D01*
X197301428Y-49390000D01*
X197187142Y-49390000D01*
X197072857Y-49447142D01*
X197015714Y-49561428D01*
X197015714Y-49847142D01*
X196958571Y-49961428D01*
X197472857Y-50532857D02*
X196672857Y-50532857D01*
X196901428Y-50532857D02*
X196787142Y-50590000D01*
X196730000Y-50647142D01*
X196672857Y-50761428D01*
X196672857Y-50875714D01*
X197415714Y-51732857D02*
X197472857Y-51618571D01*
X197472857Y-51390000D01*
X197415714Y-51275714D01*
X197301428Y-51218571D01*
X196844285Y-51218571D01*
X196730000Y-51275714D01*
X196672857Y-51390000D01*
X196672857Y-51618571D01*
X196730000Y-51732857D01*
X196844285Y-51790000D01*
X196958571Y-51790000D01*
X197072857Y-51218571D01*
X197472857Y-53218571D02*
X196272857Y-53218571D01*
X196730000Y-53218571D02*
X196672857Y-53332857D01*
X196672857Y-53561428D01*
X196730000Y-53675714D01*
X196787142Y-53732857D01*
X196901428Y-53790000D01*
X197244285Y-53790000D01*
X197358571Y-53732857D01*
X197415714Y-53675714D01*
X197472857Y-53561428D01*
X197472857Y-53332857D01*
X197415714Y-53218571D01*
X197472857Y-54304285D02*
X196672857Y-54304285D01*
X196272857Y-54304285D02*
X196330000Y-54247142D01*
X196387142Y-54304285D01*
X196330000Y-54361428D01*
X196272857Y-54304285D01*
X196387142Y-54304285D01*
X197472857Y-55390000D02*
X196272857Y-55390000D01*
X197415714Y-55390000D02*
X197472857Y-55275714D01*
X197472857Y-55047142D01*
X197415714Y-54932857D01*
X197358571Y-54875714D01*
X197244285Y-54818571D01*
X196901428Y-54818571D01*
X196787142Y-54875714D01*
X196730000Y-54932857D01*
X196672857Y-55047142D01*
X196672857Y-55275714D01*
X196730000Y-55390000D01*
X197472857Y-55961428D02*
X196672857Y-55961428D01*
X196272857Y-55961428D02*
X196330000Y-55904285D01*
X196387142Y-55961428D01*
X196330000Y-56018571D01*
X196272857Y-55961428D01*
X196387142Y-55961428D01*
X197472857Y-56532857D02*
X196672857Y-56532857D01*
X196901428Y-56532857D02*
X196787142Y-56590000D01*
X196730000Y-56647142D01*
X196672857Y-56761428D01*
X196672857Y-56875714D01*
X197415714Y-57732857D02*
X197472857Y-57618571D01*
X197472857Y-57390000D01*
X197415714Y-57275714D01*
X197301428Y-57218571D01*
X196844285Y-57218571D01*
X196730000Y-57275714D01*
X196672857Y-57390000D01*
X196672857Y-57618571D01*
X196730000Y-57732857D01*
X196844285Y-57790000D01*
X196958571Y-57790000D01*
X197072857Y-57218571D01*
X197415714Y-58818571D02*
X197472857Y-58704285D01*
X197472857Y-58475714D01*
X197415714Y-58361428D01*
X197358571Y-58304285D01*
X197244285Y-58247142D01*
X196901428Y-58247142D01*
X196787142Y-58304285D01*
X196730000Y-58361428D01*
X196672857Y-58475714D01*
X196672857Y-58704285D01*
X196730000Y-58818571D01*
X196672857Y-59161428D02*
X196672857Y-59618571D01*
X196272857Y-59332857D02*
X197301428Y-59332857D01*
X197415714Y-59390000D01*
X197472857Y-59504285D01*
X197472857Y-59618571D01*
X197472857Y-60018571D02*
X196672857Y-60018571D01*
X196272857Y-60018571D02*
X196330000Y-59961428D01*
X196387142Y-60018571D01*
X196330000Y-60075714D01*
X196272857Y-60018571D01*
X196387142Y-60018571D01*
X197472857Y-60761428D02*
X197415714Y-60647142D01*
X197358571Y-60590000D01*
X197244285Y-60532857D01*
X196901428Y-60532857D01*
X196787142Y-60590000D01*
X196730000Y-60647142D01*
X196672857Y-60761428D01*
X196672857Y-60932857D01*
X196730000Y-61047142D01*
X196787142Y-61104285D01*
X196901428Y-61161428D01*
X197244285Y-61161428D01*
X197358571Y-61104285D01*
X197415714Y-61047142D01*
X197472857Y-60932857D01*
X197472857Y-60761428D01*
X196672857Y-61675714D02*
X197472857Y-61675714D01*
X196787142Y-61675714D02*
X196730000Y-61732857D01*
X196672857Y-61847142D01*
X196672857Y-62018571D01*
X196730000Y-62132857D01*
X196844285Y-62190000D01*
X197472857Y-62190000D01*
X197472857Y-64190000D02*
X196844285Y-64190000D01*
X196730000Y-64132857D01*
X196672857Y-64018571D01*
X196672857Y-63790000D01*
X196730000Y-63675714D01*
X197415714Y-64190000D02*
X197472857Y-64075714D01*
X197472857Y-63790000D01*
X197415714Y-63675714D01*
X197301428Y-63618571D01*
X197187142Y-63618571D01*
X197072857Y-63675714D01*
X197015714Y-63790000D01*
X197015714Y-64075714D01*
X196958571Y-64190000D01*
X196672857Y-64761428D02*
X197472857Y-64761428D01*
X196787142Y-64761428D02*
X196730000Y-64818571D01*
X196672857Y-64932857D01*
X196672857Y-65104285D01*
X196730000Y-65218571D01*
X196844285Y-65275714D01*
X197472857Y-65275714D01*
X197472857Y-66361428D02*
X196272857Y-66361428D01*
X197415714Y-66361428D02*
X197472857Y-66247142D01*
X197472857Y-66018571D01*
X197415714Y-65904285D01*
X197358571Y-65847142D01*
X197244285Y-65790000D01*
X196901428Y-65790000D01*
X196787142Y-65847142D01*
X196730000Y-65904285D01*
X196672857Y-66018571D01*
X196672857Y-66247142D01*
X196730000Y-66361428D01*
X199415714Y-23790000D02*
X199472857Y-23675714D01*
X199472857Y-23447142D01*
X199415714Y-23332857D01*
X199358571Y-23275714D01*
X199244285Y-23218571D01*
X198901428Y-23218571D01*
X198787142Y-23275714D01*
X198730000Y-23332857D01*
X198672857Y-23447142D01*
X198672857Y-23675714D01*
X198730000Y-23790000D01*
X199472857Y-24818571D02*
X198844285Y-24818571D01*
X198730000Y-24761428D01*
X198672857Y-24647142D01*
X198672857Y-24418571D01*
X198730000Y-24304285D01*
X199415714Y-24818571D02*
X199472857Y-24704285D01*
X199472857Y-24418571D01*
X199415714Y-24304285D01*
X199301428Y-24247142D01*
X199187142Y-24247142D01*
X199072857Y-24304285D01*
X199015714Y-24418571D01*
X199015714Y-24704285D01*
X198958571Y-24818571D01*
X198672857Y-25390000D02*
X199472857Y-25390000D01*
X198787142Y-25390000D02*
X198730000Y-25447142D01*
X198672857Y-25561428D01*
X198672857Y-25732857D01*
X198730000Y-25847142D01*
X198844285Y-25904285D01*
X199472857Y-25904285D01*
X199472857Y-27390000D02*
X198272857Y-27390000D01*
X198730000Y-27390000D02*
X198672857Y-27504285D01*
X198672857Y-27732857D01*
X198730000Y-27847142D01*
X198787142Y-27904285D01*
X198901428Y-27961428D01*
X199244285Y-27961428D01*
X199358571Y-27904285D01*
X199415714Y-27847142D01*
X199472857Y-27732857D01*
X199472857Y-27504285D01*
X199415714Y-27390000D01*
X199415714Y-28932857D02*
X199472857Y-28818571D01*
X199472857Y-28590000D01*
X199415714Y-28475714D01*
X199301428Y-28418571D01*
X198844285Y-28418571D01*
X198730000Y-28475714D01*
X198672857Y-28590000D01*
X198672857Y-28818571D01*
X198730000Y-28932857D01*
X198844285Y-28990000D01*
X198958571Y-28990000D01*
X199072857Y-28418571D01*
X198672857Y-30247142D02*
X198672857Y-30704285D01*
X199472857Y-30418571D02*
X198444285Y-30418571D01*
X198330000Y-30475714D01*
X198272857Y-30590000D01*
X198272857Y-30704285D01*
X199472857Y-31104285D02*
X198672857Y-31104285D01*
X198272857Y-31104285D02*
X198330000Y-31047142D01*
X198387142Y-31104285D01*
X198330000Y-31161428D01*
X198272857Y-31104285D01*
X198387142Y-31104285D01*
X198672857Y-31504285D02*
X198672857Y-31961428D01*
X198272857Y-31675714D02*
X199301428Y-31675714D01*
X199415714Y-31732857D01*
X199472857Y-31847142D01*
X199472857Y-31961428D01*
X198672857Y-32190000D02*
X198672857Y-32647142D01*
X198272857Y-32361428D02*
X199301428Y-32361428D01*
X199415714Y-32418571D01*
X199472857Y-32532857D01*
X199472857Y-32647142D01*
X199415714Y-33504285D02*
X199472857Y-33390000D01*
X199472857Y-33161428D01*
X199415714Y-33047142D01*
X199301428Y-32990000D01*
X198844285Y-32990000D01*
X198730000Y-33047142D01*
X198672857Y-33161428D01*
X198672857Y-33390000D01*
X198730000Y-33504285D01*
X198844285Y-33561428D01*
X198958571Y-33561428D01*
X199072857Y-32990000D01*
X199472857Y-34590000D02*
X198272857Y-34590000D01*
X199415714Y-34590000D02*
X199472857Y-34475714D01*
X199472857Y-34247142D01*
X199415714Y-34132857D01*
X199358571Y-34075714D01*
X199244285Y-34018571D01*
X198901428Y-34018571D01*
X198787142Y-34075714D01*
X198730000Y-34132857D01*
X198672857Y-34247142D01*
X198672857Y-34475714D01*
X198730000Y-34590000D01*
X199472857Y-36075714D02*
X198672857Y-36075714D01*
X198272857Y-36075714D02*
X198330000Y-36018571D01*
X198387142Y-36075714D01*
X198330000Y-36132857D01*
X198272857Y-36075714D01*
X198387142Y-36075714D01*
X198672857Y-36647142D02*
X199472857Y-36647142D01*
X198787142Y-36647142D02*
X198730000Y-36704285D01*
X198672857Y-36818571D01*
X198672857Y-36990000D01*
X198730000Y-37104285D01*
X198844285Y-37161428D01*
X199472857Y-37161428D01*
X199415714Y-39104285D02*
X199472857Y-38990000D01*
X199472857Y-38761428D01*
X199415714Y-38647142D01*
X199301428Y-38590000D01*
X198844285Y-38590000D01*
X198730000Y-38647142D01*
X198672857Y-38761428D01*
X198672857Y-38990000D01*
X198730000Y-39104285D01*
X198844285Y-39161428D01*
X198958571Y-39161428D01*
X199072857Y-38590000D01*
X199472857Y-39675714D02*
X198672857Y-39675714D01*
X198272857Y-39675714D02*
X198330000Y-39618571D01*
X198387142Y-39675714D01*
X198330000Y-39732857D01*
X198272857Y-39675714D01*
X198387142Y-39675714D01*
X198672857Y-40075714D02*
X198672857Y-40532857D01*
X198272857Y-40247142D02*
X199301428Y-40247142D01*
X199415714Y-40304285D01*
X199472857Y-40418571D01*
X199472857Y-40532857D01*
X199472857Y-40932857D02*
X198272857Y-40932857D01*
X199472857Y-41447142D02*
X198844285Y-41447142D01*
X198730000Y-41390000D01*
X198672857Y-41275714D01*
X198672857Y-41104285D01*
X198730000Y-40990000D01*
X198787142Y-40932857D01*
X199415714Y-42475714D02*
X199472857Y-42361428D01*
X199472857Y-42132857D01*
X199415714Y-42018571D01*
X199301428Y-41961428D01*
X198844285Y-41961428D01*
X198730000Y-42018571D01*
X198672857Y-42132857D01*
X198672857Y-42361428D01*
X198730000Y-42475714D01*
X198844285Y-42532857D01*
X198958571Y-42532857D01*
X199072857Y-41961428D01*
X199472857Y-43047142D02*
X198672857Y-43047142D01*
X198901428Y-43047142D02*
X198787142Y-43104285D01*
X198730000Y-43161428D01*
X198672857Y-43275714D01*
X198672857Y-43390000D01*
X199472857Y-44875714D02*
X199415714Y-44761428D01*
X199358571Y-44704285D01*
X199244285Y-44647142D01*
X198901428Y-44647142D01*
X198787142Y-44704285D01*
X198730000Y-44761428D01*
X198672857Y-44875714D01*
X198672857Y-45047142D01*
X198730000Y-45161428D01*
X198787142Y-45218571D01*
X198901428Y-45275714D01*
X199244285Y-45275714D01*
X199358571Y-45218571D01*
X199415714Y-45161428D01*
X199472857Y-45047142D01*
X199472857Y-44875714D01*
X199472857Y-45790000D02*
X198672857Y-45790000D01*
X198901428Y-45790000D02*
X198787142Y-45847142D01*
X198730000Y-45904285D01*
X198672857Y-46018571D01*
X198672857Y-46132857D01*
X199472857Y-46532857D02*
X198672857Y-46532857D01*
X198272857Y-46532857D02*
X198330000Y-46475714D01*
X198387142Y-46532857D01*
X198330000Y-46590000D01*
X198272857Y-46532857D01*
X198387142Y-46532857D01*
X199415714Y-47561428D02*
X199472857Y-47447142D01*
X199472857Y-47218571D01*
X199415714Y-47104285D01*
X199301428Y-47047142D01*
X198844285Y-47047142D01*
X198730000Y-47104285D01*
X198672857Y-47218571D01*
X198672857Y-47447142D01*
X198730000Y-47561428D01*
X198844285Y-47618571D01*
X198958571Y-47618571D01*
X199072857Y-47047142D01*
X198672857Y-48132857D02*
X199472857Y-48132857D01*
X198787142Y-48132857D02*
X198730000Y-48190000D01*
X198672857Y-48304285D01*
X198672857Y-48475714D01*
X198730000Y-48590000D01*
X198844285Y-48647142D01*
X199472857Y-48647142D01*
X198672857Y-49047142D02*
X198672857Y-49504285D01*
X198272857Y-49218571D02*
X199301428Y-49218571D01*
X199415714Y-49275714D01*
X199472857Y-49390000D01*
X199472857Y-49504285D01*
X199472857Y-50418571D02*
X198844285Y-50418571D01*
X198730000Y-50361428D01*
X198672857Y-50247142D01*
X198672857Y-50018571D01*
X198730000Y-49904285D01*
X199415714Y-50418571D02*
X199472857Y-50304285D01*
X199472857Y-50018571D01*
X199415714Y-49904285D01*
X199301428Y-49847142D01*
X199187142Y-49847142D01*
X199072857Y-49904285D01*
X199015714Y-50018571D01*
X199015714Y-50304285D01*
X198958571Y-50418571D01*
X198672857Y-50818571D02*
X198672857Y-51275714D01*
X198272857Y-50990000D02*
X199301428Y-50990000D01*
X199415714Y-51047142D01*
X199472857Y-51161428D01*
X199472857Y-51275714D01*
X199472857Y-51675714D02*
X198672857Y-51675714D01*
X198272857Y-51675714D02*
X198330000Y-51618571D01*
X198387142Y-51675714D01*
X198330000Y-51732857D01*
X198272857Y-51675714D01*
X198387142Y-51675714D01*
X199472857Y-52418571D02*
X199415714Y-52304285D01*
X199358571Y-52247142D01*
X199244285Y-52190000D01*
X198901428Y-52190000D01*
X198787142Y-52247142D01*
X198730000Y-52304285D01*
X198672857Y-52418571D01*
X198672857Y-52590000D01*
X198730000Y-52704285D01*
X198787142Y-52761428D01*
X198901428Y-52818571D01*
X199244285Y-52818571D01*
X199358571Y-52761428D01*
X199415714Y-52704285D01*
X199472857Y-52590000D01*
X199472857Y-52418571D01*
X198672857Y-53332857D02*
X199472857Y-53332857D01*
X198787142Y-53332857D02*
X198730000Y-53390000D01*
X198672857Y-53504285D01*
X198672857Y-53675714D01*
X198730000Y-53790000D01*
X198844285Y-53847142D01*
X199472857Y-53847142D01*
X199358571Y-54418571D02*
X199415714Y-54475714D01*
X199472857Y-54418571D01*
X199415714Y-54361428D01*
X199358571Y-54418571D01*
X199472857Y-54418571D01*
X199472857Y-55904285D02*
X198272857Y-55904285D01*
X198272857Y-56361428D01*
X198330000Y-56475714D01*
X198387142Y-56532857D01*
X198501428Y-56590000D01*
X198672857Y-56590000D01*
X198787142Y-56532857D01*
X198844285Y-56475714D01*
X198901428Y-56361428D01*
X198901428Y-55904285D01*
X199472857Y-57275714D02*
X199415714Y-57161428D01*
X199301428Y-57104285D01*
X198272857Y-57104285D01*
X199415714Y-58190000D02*
X199472857Y-58075714D01*
X199472857Y-57847142D01*
X199415714Y-57732857D01*
X199301428Y-57675714D01*
X198844285Y-57675714D01*
X198730000Y-57732857D01*
X198672857Y-57847142D01*
X198672857Y-58075714D01*
X198730000Y-58190000D01*
X198844285Y-58247142D01*
X198958571Y-58247142D01*
X199072857Y-57675714D01*
X199472857Y-59275714D02*
X198844285Y-59275714D01*
X198730000Y-59218571D01*
X198672857Y-59104285D01*
X198672857Y-58875714D01*
X198730000Y-58761428D01*
X199415714Y-59275714D02*
X199472857Y-59161428D01*
X199472857Y-58875714D01*
X199415714Y-58761428D01*
X199301428Y-58704285D01*
X199187142Y-58704285D01*
X199072857Y-58761428D01*
X199015714Y-58875714D01*
X199015714Y-59161428D01*
X198958571Y-59275714D01*
X199415714Y-59790000D02*
X199472857Y-59904285D01*
X199472857Y-60132857D01*
X199415714Y-60247142D01*
X199301428Y-60304285D01*
X199244285Y-60304285D01*
X199130000Y-60247142D01*
X199072857Y-60132857D01*
X199072857Y-59961428D01*
X199015714Y-59847142D01*
X198901428Y-59790000D01*
X198844285Y-59790000D01*
X198730000Y-59847142D01*
X198672857Y-59961428D01*
X198672857Y-60132857D01*
X198730000Y-60247142D01*
X199415714Y-61275714D02*
X199472857Y-61161428D01*
X199472857Y-60932857D01*
X199415714Y-60818571D01*
X199301428Y-60761428D01*
X198844285Y-60761428D01*
X198730000Y-60818571D01*
X198672857Y-60932857D01*
X198672857Y-61161428D01*
X198730000Y-61275714D01*
X198844285Y-61332857D01*
X198958571Y-61332857D01*
X199072857Y-60761428D01*
X199472857Y-62761428D02*
X198672857Y-62761428D01*
X198272857Y-62761428D02*
X198330000Y-62704285D01*
X198387142Y-62761428D01*
X198330000Y-62818571D01*
X198272857Y-62761428D01*
X198387142Y-62761428D01*
X198672857Y-63847142D02*
X199644285Y-63847142D01*
X199758571Y-63790000D01*
X199815714Y-63732857D01*
X199872857Y-63618571D01*
X199872857Y-63447142D01*
X199815714Y-63332857D01*
X199415714Y-63847142D02*
X199472857Y-63732857D01*
X199472857Y-63504285D01*
X199415714Y-63390000D01*
X199358571Y-63332857D01*
X199244285Y-63275714D01*
X198901428Y-63275714D01*
X198787142Y-63332857D01*
X198730000Y-63390000D01*
X198672857Y-63504285D01*
X198672857Y-63732857D01*
X198730000Y-63847142D01*
X198672857Y-64418571D02*
X199472857Y-64418571D01*
X198787142Y-64418571D02*
X198730000Y-64475714D01*
X198672857Y-64590000D01*
X198672857Y-64761428D01*
X198730000Y-64875714D01*
X198844285Y-64932857D01*
X199472857Y-64932857D01*
X199472857Y-65675714D02*
X199415714Y-65561428D01*
X199358571Y-65504285D01*
X199244285Y-65447142D01*
X198901428Y-65447142D01*
X198787142Y-65504285D01*
X198730000Y-65561428D01*
X198672857Y-65675714D01*
X198672857Y-65847142D01*
X198730000Y-65961428D01*
X198787142Y-66018571D01*
X198901428Y-66075714D01*
X199244285Y-66075714D01*
X199358571Y-66018571D01*
X199415714Y-65961428D01*
X199472857Y-65847142D01*
X199472857Y-65675714D01*
X199472857Y-66590000D02*
X198672857Y-66590000D01*
X198901428Y-66590000D02*
X198787142Y-66647142D01*
X198730000Y-66704285D01*
X198672857Y-66818571D01*
X198672857Y-66932857D01*
X199415714Y-67790000D02*
X199472857Y-67675714D01*
X199472857Y-67447142D01*
X199415714Y-67332857D01*
X199301428Y-67275714D01*
X198844285Y-67275714D01*
X198730000Y-67332857D01*
X198672857Y-67447142D01*
X198672857Y-67675714D01*
X198730000Y-67790000D01*
X198844285Y-67847142D01*
X198958571Y-67847142D01*
X199072857Y-67275714D01*
X201472857Y-23447142D02*
X201415714Y-23332857D01*
X201358571Y-23275714D01*
X201244285Y-23218571D01*
X200901428Y-23218571D01*
X200787142Y-23275714D01*
X200730000Y-23332857D01*
X200672857Y-23447142D01*
X200672857Y-23618571D01*
X200730000Y-23732857D01*
X200787142Y-23790000D01*
X200901428Y-23847142D01*
X201244285Y-23847142D01*
X201358571Y-23790000D01*
X201415714Y-23732857D01*
X201472857Y-23618571D01*
X201472857Y-23447142D01*
X201472857Y-24361428D02*
X200672857Y-24361428D01*
X200901428Y-24361428D02*
X200787142Y-24418571D01*
X200730000Y-24475714D01*
X200672857Y-24590000D01*
X200672857Y-24704285D01*
X201472857Y-25104285D02*
X200672857Y-25104285D01*
X200272857Y-25104285D02*
X200330000Y-25047142D01*
X200387142Y-25104285D01*
X200330000Y-25161428D01*
X200272857Y-25104285D01*
X200387142Y-25104285D01*
X201415714Y-26132857D02*
X201472857Y-26018571D01*
X201472857Y-25790000D01*
X201415714Y-25675714D01*
X201301428Y-25618571D01*
X200844285Y-25618571D01*
X200730000Y-25675714D01*
X200672857Y-25790000D01*
X200672857Y-26018571D01*
X200730000Y-26132857D01*
X200844285Y-26190000D01*
X200958571Y-26190000D01*
X201072857Y-25618571D01*
X200672857Y-26704285D02*
X201472857Y-26704285D01*
X200787142Y-26704285D02*
X200730000Y-26761428D01*
X200672857Y-26875714D01*
X200672857Y-27047142D01*
X200730000Y-27161428D01*
X200844285Y-27218571D01*
X201472857Y-27218571D01*
X200672857Y-27618571D02*
X200672857Y-28075714D01*
X200272857Y-27790000D02*
X201301428Y-27790000D01*
X201415714Y-27847142D01*
X201472857Y-27961428D01*
X201472857Y-28075714D01*
X201472857Y-28990000D02*
X200844285Y-28990000D01*
X200730000Y-28932857D01*
X200672857Y-28818571D01*
X200672857Y-28590000D01*
X200730000Y-28475714D01*
X201415714Y-28990000D02*
X201472857Y-28875714D01*
X201472857Y-28590000D01*
X201415714Y-28475714D01*
X201301428Y-28418571D01*
X201187142Y-28418571D01*
X201072857Y-28475714D01*
X201015714Y-28590000D01*
X201015714Y-28875714D01*
X200958571Y-28990000D01*
X200672857Y-29390000D02*
X200672857Y-29847142D01*
X200272857Y-29561428D02*
X201301428Y-29561428D01*
X201415714Y-29618571D01*
X201472857Y-29732857D01*
X201472857Y-29847142D01*
X201472857Y-30247142D02*
X200672857Y-30247142D01*
X200272857Y-30247142D02*
X200330000Y-30190000D01*
X200387142Y-30247142D01*
X200330000Y-30304285D01*
X200272857Y-30247142D01*
X200387142Y-30247142D01*
X201472857Y-30990000D02*
X201415714Y-30875714D01*
X201358571Y-30818571D01*
X201244285Y-30761428D01*
X200901428Y-30761428D01*
X200787142Y-30818571D01*
X200730000Y-30875714D01*
X200672857Y-30990000D01*
X200672857Y-31161428D01*
X200730000Y-31275714D01*
X200787142Y-31332857D01*
X200901428Y-31390000D01*
X201244285Y-31390000D01*
X201358571Y-31332857D01*
X201415714Y-31275714D01*
X201472857Y-31161428D01*
X201472857Y-30990000D01*
X200672857Y-31904285D02*
X201472857Y-31904285D01*
X200787142Y-31904285D02*
X200730000Y-31961428D01*
X200672857Y-32075714D01*
X200672857Y-32247142D01*
X200730000Y-32361428D01*
X200844285Y-32418571D01*
X201472857Y-32418571D01*
X201472857Y-33904285D02*
X200672857Y-33904285D01*
X200787142Y-33904285D02*
X200730000Y-33961428D01*
X200672857Y-34075714D01*
X200672857Y-34247142D01*
X200730000Y-34361428D01*
X200844285Y-34418571D01*
X201472857Y-34418571D01*
X200844285Y-34418571D02*
X200730000Y-34475714D01*
X200672857Y-34590000D01*
X200672857Y-34761428D01*
X200730000Y-34875714D01*
X200844285Y-34932857D01*
X201472857Y-34932857D01*
X201472857Y-36018571D02*
X200844285Y-36018571D01*
X200730000Y-35961428D01*
X200672857Y-35847142D01*
X200672857Y-35618571D01*
X200730000Y-35504285D01*
X201415714Y-36018571D02*
X201472857Y-35904285D01*
X201472857Y-35618571D01*
X201415714Y-35504285D01*
X201301428Y-35447142D01*
X201187142Y-35447142D01*
X201072857Y-35504285D01*
X201015714Y-35618571D01*
X201015714Y-35904285D01*
X200958571Y-36018571D01*
X201472857Y-36590000D02*
X200672857Y-36590000D01*
X200901428Y-36590000D02*
X200787142Y-36647142D01*
X200730000Y-36704285D01*
X200672857Y-36818571D01*
X200672857Y-36932857D01*
X201472857Y-37332857D02*
X200272857Y-37332857D01*
X201015714Y-37447142D02*
X201472857Y-37790000D01*
X200672857Y-37790000D02*
X201130000Y-37332857D01*
X201472857Y-38304285D02*
X200672857Y-38304285D01*
X200272857Y-38304285D02*
X200330000Y-38247142D01*
X200387142Y-38304285D01*
X200330000Y-38361428D01*
X200272857Y-38304285D01*
X200387142Y-38304285D01*
X200672857Y-38875714D02*
X201472857Y-38875714D01*
X200787142Y-38875714D02*
X200730000Y-38932857D01*
X200672857Y-39047142D01*
X200672857Y-39218571D01*
X200730000Y-39332857D01*
X200844285Y-39390000D01*
X201472857Y-39390000D01*
X200672857Y-40475714D02*
X201644285Y-40475714D01*
X201758571Y-40418571D01*
X201815714Y-40361428D01*
X201872857Y-40247142D01*
X201872857Y-40075714D01*
X201815714Y-39961428D01*
X201415714Y-40475714D02*
X201472857Y-40361428D01*
X201472857Y-40132857D01*
X201415714Y-40018571D01*
X201358571Y-39961428D01*
X201244285Y-39904285D01*
X200901428Y-39904285D01*
X200787142Y-39961428D01*
X200730000Y-40018571D01*
X200672857Y-40132857D01*
X200672857Y-40361428D01*
X200730000Y-40475714D01*
X201415714Y-40990000D02*
X201472857Y-41104285D01*
X201472857Y-41332857D01*
X201415714Y-41447142D01*
X201301428Y-41504285D01*
X201244285Y-41504285D01*
X201130000Y-41447142D01*
X201072857Y-41332857D01*
X201072857Y-41161428D01*
X201015714Y-41047142D01*
X200901428Y-40990000D01*
X200844285Y-40990000D01*
X200730000Y-41047142D01*
X200672857Y-41161428D01*
X200672857Y-41332857D01*
X200730000Y-41447142D01*
X201472857Y-43104285D02*
X201415714Y-42990000D01*
X201358571Y-42932857D01*
X201244285Y-42875714D01*
X200901428Y-42875714D01*
X200787142Y-42932857D01*
X200730000Y-42990000D01*
X200672857Y-43104285D01*
X200672857Y-43275714D01*
X200730000Y-43390000D01*
X200787142Y-43447142D01*
X200901428Y-43504285D01*
X201244285Y-43504285D01*
X201358571Y-43447142D01*
X201415714Y-43390000D01*
X201472857Y-43275714D01*
X201472857Y-43104285D01*
X200672857Y-44018571D02*
X201472857Y-44018571D01*
X200787142Y-44018571D02*
X200730000Y-44075714D01*
X200672857Y-44190000D01*
X200672857Y-44361428D01*
X200730000Y-44475714D01*
X200844285Y-44532857D01*
X201472857Y-44532857D01*
X200672857Y-45847142D02*
X200672857Y-46304285D01*
X201472857Y-46018571D02*
X200444285Y-46018571D01*
X200330000Y-46075714D01*
X200272857Y-46190000D01*
X200272857Y-46304285D01*
X201472857Y-46875714D02*
X201415714Y-46761428D01*
X201358571Y-46704285D01*
X201244285Y-46647142D01*
X200901428Y-46647142D01*
X200787142Y-46704285D01*
X200730000Y-46761428D01*
X200672857Y-46875714D01*
X200672857Y-47047142D01*
X200730000Y-47161428D01*
X200787142Y-47218571D01*
X200901428Y-47275714D01*
X201244285Y-47275714D01*
X201358571Y-47218571D01*
X201415714Y-47161428D01*
X201472857Y-47047142D01*
X201472857Y-46875714D01*
X201472857Y-47961428D02*
X201415714Y-47847142D01*
X201358571Y-47790000D01*
X201244285Y-47732857D01*
X200901428Y-47732857D01*
X200787142Y-47790000D01*
X200730000Y-47847142D01*
X200672857Y-47961428D01*
X200672857Y-48132857D01*
X200730000Y-48247142D01*
X200787142Y-48304285D01*
X200901428Y-48361428D01*
X201244285Y-48361428D01*
X201358571Y-48304285D01*
X201415714Y-48247142D01*
X201472857Y-48132857D01*
X201472857Y-47961428D01*
X200672857Y-48704285D02*
X200672857Y-49161428D01*
X200272857Y-48875714D02*
X201301428Y-48875714D01*
X201415714Y-48932857D01*
X201472857Y-49047142D01*
X201472857Y-49161428D01*
X200672857Y-49561428D02*
X201872857Y-49561428D01*
X200730000Y-49561428D02*
X200672857Y-49675714D01*
X200672857Y-49904285D01*
X200730000Y-50018571D01*
X200787142Y-50075714D01*
X200901428Y-50132857D01*
X201244285Y-50132857D01*
X201358571Y-50075714D01*
X201415714Y-50018571D01*
X201472857Y-49904285D01*
X201472857Y-49675714D01*
X201415714Y-49561428D01*
X201472857Y-50647142D02*
X200672857Y-50647142D01*
X200901428Y-50647142D02*
X200787142Y-50704285D01*
X200730000Y-50761428D01*
X200672857Y-50875714D01*
X200672857Y-50990000D01*
X201472857Y-51390000D02*
X200672857Y-51390000D01*
X200272857Y-51390000D02*
X200330000Y-51332857D01*
X200387142Y-51390000D01*
X200330000Y-51447142D01*
X200272857Y-51390000D01*
X200387142Y-51390000D01*
X200672857Y-51961428D02*
X201472857Y-51961428D01*
X200787142Y-51961428D02*
X200730000Y-52018571D01*
X200672857Y-52132857D01*
X200672857Y-52304285D01*
X200730000Y-52418571D01*
X200844285Y-52475714D01*
X201472857Y-52475714D01*
X200672857Y-52875714D02*
X200672857Y-53332857D01*
X200272857Y-53047142D02*
X201301428Y-53047142D01*
X201415714Y-53104285D01*
X201472857Y-53218571D01*
X201472857Y-53332857D01*
X201358571Y-53732857D02*
X201415714Y-53790000D01*
X201472857Y-53732857D01*
X201415714Y-53675714D01*
X201358571Y-53732857D01*
X201472857Y-53732857D01*
X203415714Y-23218571D02*
X203472857Y-23390000D01*
X203472857Y-23675714D01*
X203415714Y-23790000D01*
X203358571Y-23847142D01*
X203244285Y-23904285D01*
X203130000Y-23904285D01*
X203015714Y-23847142D01*
X202958571Y-23790000D01*
X202901428Y-23675714D01*
X202844285Y-23447142D01*
X202787142Y-23332857D01*
X202730000Y-23275714D01*
X202615714Y-23218571D01*
X202501428Y-23218571D01*
X202387142Y-23275714D01*
X202330000Y-23332857D01*
X202272857Y-23447142D01*
X202272857Y-23732857D01*
X202330000Y-23904285D01*
X202672857Y-24932857D02*
X203472857Y-24932857D01*
X202672857Y-24418571D02*
X203301428Y-24418571D01*
X203415714Y-24475714D01*
X203472857Y-24590000D01*
X203472857Y-24761428D01*
X203415714Y-24875714D01*
X203358571Y-24932857D01*
X203472857Y-25504285D02*
X202672857Y-25504285D01*
X202901428Y-25504285D02*
X202787142Y-25561428D01*
X202730000Y-25618571D01*
X202672857Y-25732857D01*
X202672857Y-25847142D01*
X202672857Y-26075714D02*
X202672857Y-26532857D01*
X203472857Y-26247142D02*
X202444285Y-26247142D01*
X202330000Y-26304285D01*
X202272857Y-26418571D01*
X202272857Y-26532857D01*
X203472857Y-27447142D02*
X202844285Y-27447142D01*
X202730000Y-27390000D01*
X202672857Y-27275714D01*
X202672857Y-27047142D01*
X202730000Y-26932857D01*
X203415714Y-27447142D02*
X203472857Y-27332857D01*
X203472857Y-27047142D01*
X203415714Y-26932857D01*
X203301428Y-26875714D01*
X203187142Y-26875714D01*
X203072857Y-26932857D01*
X203015714Y-27047142D01*
X203015714Y-27332857D01*
X202958571Y-27447142D01*
X203415714Y-28532857D02*
X203472857Y-28418571D01*
X203472857Y-28190000D01*
X203415714Y-28075714D01*
X203358571Y-28018571D01*
X203244285Y-27961428D01*
X202901428Y-27961428D01*
X202787142Y-28018571D01*
X202730000Y-28075714D01*
X202672857Y-28190000D01*
X202672857Y-28418571D01*
X202730000Y-28532857D01*
X203415714Y-29504285D02*
X203472857Y-29390000D01*
X203472857Y-29161428D01*
X203415714Y-29047142D01*
X203301428Y-28990000D01*
X202844285Y-28990000D01*
X202730000Y-29047142D01*
X202672857Y-29161428D01*
X202672857Y-29390000D01*
X202730000Y-29504285D01*
X202844285Y-29561428D01*
X202958571Y-29561428D01*
X203072857Y-28990000D01*
X203472857Y-30990000D02*
X202672857Y-30990000D01*
X202787142Y-30990000D02*
X202730000Y-31047142D01*
X202672857Y-31161428D01*
X202672857Y-31332857D01*
X202730000Y-31447142D01*
X202844285Y-31504285D01*
X203472857Y-31504285D01*
X202844285Y-31504285D02*
X202730000Y-31561428D01*
X202672857Y-31675714D01*
X202672857Y-31847142D01*
X202730000Y-31961428D01*
X202844285Y-32018571D01*
X203472857Y-32018571D01*
X203472857Y-32761428D02*
X203415714Y-32647142D01*
X203358571Y-32590000D01*
X203244285Y-32532857D01*
X202901428Y-32532857D01*
X202787142Y-32590000D01*
X202730000Y-32647142D01*
X202672857Y-32761428D01*
X202672857Y-32932857D01*
X202730000Y-33047142D01*
X202787142Y-33104285D01*
X202901428Y-33161428D01*
X203244285Y-33161428D01*
X203358571Y-33104285D01*
X203415714Y-33047142D01*
X203472857Y-32932857D01*
X203472857Y-32761428D01*
X202672857Y-34190000D02*
X203472857Y-34190000D01*
X202672857Y-33675714D02*
X203301428Y-33675714D01*
X203415714Y-33732857D01*
X203472857Y-33847142D01*
X203472857Y-34018571D01*
X203415714Y-34132857D01*
X203358571Y-34190000D01*
X202672857Y-34761428D02*
X203472857Y-34761428D01*
X202787142Y-34761428D02*
X202730000Y-34818571D01*
X202672857Y-34932857D01*
X202672857Y-35104285D01*
X202730000Y-35218571D01*
X202844285Y-35275714D01*
X203472857Y-35275714D01*
X202672857Y-35675714D02*
X202672857Y-36132857D01*
X202272857Y-35847142D02*
X203301428Y-35847142D01*
X203415714Y-35904285D01*
X203472857Y-36018571D01*
X203472857Y-36132857D01*
X202272857Y-37275714D02*
X202272857Y-37961428D01*
X203472857Y-37618571D02*
X202272857Y-37618571D01*
X202272857Y-38190000D02*
X203472857Y-38590000D01*
X202272857Y-38990000D01*
X203415714Y-39332857D02*
X203472857Y-39504285D01*
X203472857Y-39790000D01*
X203415714Y-39904285D01*
X203358571Y-39961428D01*
X203244285Y-40018571D01*
X203130000Y-40018571D01*
X203015714Y-39961428D01*
X202958571Y-39904285D01*
X202901428Y-39790000D01*
X202844285Y-39561428D01*
X202787142Y-39447142D01*
X202730000Y-39390000D01*
X202615714Y-39332857D01*
X202501428Y-39332857D01*
X202387142Y-39390000D01*
X202330000Y-39447142D01*
X202272857Y-39561428D01*
X202272857Y-39847142D01*
X202330000Y-40018571D01*
X203472857Y-41961428D02*
X202272857Y-41961428D01*
X203415714Y-41961428D02*
X203472857Y-41847142D01*
X203472857Y-41618571D01*
X203415714Y-41504285D01*
X203358571Y-41447142D01*
X203244285Y-41390000D01*
X202901428Y-41390000D01*
X202787142Y-41447142D01*
X202730000Y-41504285D01*
X202672857Y-41618571D01*
X202672857Y-41847142D01*
X202730000Y-41961428D01*
X203472857Y-42532857D02*
X202672857Y-42532857D01*
X202272857Y-42532857D02*
X202330000Y-42475714D01*
X202387142Y-42532857D01*
X202330000Y-42590000D01*
X202272857Y-42532857D01*
X202387142Y-42532857D01*
X203472857Y-43275714D02*
X203415714Y-43161428D01*
X203358571Y-43104285D01*
X203244285Y-43047142D01*
X202901428Y-43047142D01*
X202787142Y-43104285D01*
X202730000Y-43161428D01*
X202672857Y-43275714D01*
X202672857Y-43447142D01*
X202730000Y-43561428D01*
X202787142Y-43618571D01*
X202901428Y-43675714D01*
X203244285Y-43675714D01*
X203358571Y-43618571D01*
X203415714Y-43561428D01*
X203472857Y-43447142D01*
X203472857Y-43275714D01*
X203472857Y-44704285D02*
X202272857Y-44704285D01*
X203415714Y-44704285D02*
X203472857Y-44590000D01*
X203472857Y-44361428D01*
X203415714Y-44247142D01*
X203358571Y-44190000D01*
X203244285Y-44132857D01*
X202901428Y-44132857D01*
X202787142Y-44190000D01*
X202730000Y-44247142D01*
X202672857Y-44361428D01*
X202672857Y-44590000D01*
X202730000Y-44704285D01*
X203415714Y-45732857D02*
X203472857Y-45618571D01*
X203472857Y-45390000D01*
X203415714Y-45275714D01*
X203301428Y-45218571D01*
X202844285Y-45218571D01*
X202730000Y-45275714D01*
X202672857Y-45390000D01*
X202672857Y-45618571D01*
X202730000Y-45732857D01*
X202844285Y-45790000D01*
X202958571Y-45790000D01*
X203072857Y-45218571D01*
X203415714Y-46247142D02*
X203472857Y-46361428D01*
X203472857Y-46590000D01*
X203415714Y-46704285D01*
X203301428Y-46761428D01*
X203244285Y-46761428D01*
X203130000Y-46704285D01*
X203072857Y-46590000D01*
X203072857Y-46418571D01*
X203015714Y-46304285D01*
X202901428Y-46247142D01*
X202844285Y-46247142D01*
X202730000Y-46304285D01*
X202672857Y-46418571D01*
X202672857Y-46590000D01*
X202730000Y-46704285D01*
X203930000Y-48532857D02*
X203872857Y-48475714D01*
X203701428Y-48361428D01*
X203587142Y-48304285D01*
X203415714Y-48247142D01*
X203130000Y-48190000D01*
X202901428Y-48190000D01*
X202615714Y-48247142D01*
X202444285Y-48304285D01*
X202330000Y-48361428D01*
X202158571Y-48475714D01*
X202101428Y-48532857D01*
X203472857Y-48990000D02*
X202272857Y-48990000D01*
X202272857Y-49275714D01*
X202330000Y-49447142D01*
X202444285Y-49561428D01*
X202558571Y-49618571D01*
X202787142Y-49675714D01*
X202958571Y-49675714D01*
X203187142Y-49618571D01*
X203301428Y-49561428D01*
X203415714Y-49447142D01*
X203472857Y-49275714D01*
X203472857Y-48990000D01*
X202672857Y-50704285D02*
X203472857Y-50704285D01*
X202215714Y-50418571D02*
X203072857Y-50132857D01*
X203072857Y-50875714D01*
X202672857Y-52075714D02*
X202672857Y-52532857D01*
X202272857Y-52247142D02*
X203301428Y-52247142D01*
X203415714Y-52304285D01*
X203472857Y-52418571D01*
X203472857Y-52532857D01*
X203472857Y-53104285D02*
X203415714Y-52990000D01*
X203358571Y-52932857D01*
X203244285Y-52875714D01*
X202901428Y-52875714D01*
X202787142Y-52932857D01*
X202730000Y-52990000D01*
X202672857Y-53104285D01*
X202672857Y-53275714D01*
X202730000Y-53390000D01*
X202787142Y-53447142D01*
X202901428Y-53504285D01*
X203244285Y-53504285D01*
X203358571Y-53447142D01*
X203415714Y-53390000D01*
X203472857Y-53275714D01*
X203472857Y-53104285D01*
X203472857Y-54932857D02*
X202272857Y-54932857D01*
X202272857Y-55218571D01*
X202330000Y-55390000D01*
X202444285Y-55504285D01*
X202558571Y-55561428D01*
X202787142Y-55618571D01*
X202958571Y-55618571D01*
X203187142Y-55561428D01*
X203301428Y-55504285D01*
X203415714Y-55390000D01*
X203472857Y-55218571D01*
X203472857Y-54932857D01*
X202272857Y-56704285D02*
X202272857Y-56132857D01*
X202844285Y-56075714D01*
X202787142Y-56132857D01*
X202730000Y-56247142D01*
X202730000Y-56532857D01*
X202787142Y-56647142D01*
X202844285Y-56704285D01*
X202958571Y-56761428D01*
X203244285Y-56761428D01*
X203358571Y-56704285D01*
X203415714Y-56647142D01*
X203472857Y-56532857D01*
X203472857Y-56247142D01*
X203415714Y-56132857D01*
X203358571Y-56075714D01*
X203472857Y-57904285D02*
X203472857Y-57218571D01*
X203472857Y-57561428D02*
X202272857Y-57561428D01*
X202444285Y-57447142D01*
X202558571Y-57332857D01*
X202615714Y-57218571D01*
X203930000Y-58304285D02*
X203872857Y-58361428D01*
X203701428Y-58475714D01*
X203587142Y-58532857D01*
X203415714Y-58590000D01*
X203130000Y-58647142D01*
X202901428Y-58647142D01*
X202615714Y-58590000D01*
X202444285Y-58532857D01*
X202330000Y-58475714D01*
X202158571Y-58361428D01*
X202101428Y-58304285D01*
X203472857Y-60647142D02*
X202844285Y-60647142D01*
X202730000Y-60590000D01*
X202672857Y-60475714D01*
X202672857Y-60247142D01*
X202730000Y-60132857D01*
X203415714Y-60647142D02*
X203472857Y-60532857D01*
X203472857Y-60247142D01*
X203415714Y-60132857D01*
X203301428Y-60075714D01*
X203187142Y-60075714D01*
X203072857Y-60132857D01*
X203015714Y-60247142D01*
X203015714Y-60532857D01*
X202958571Y-60647142D01*
X203472857Y-61218571D02*
X202672857Y-61218571D01*
X202901428Y-61218571D02*
X202787142Y-61275714D01*
X202730000Y-61332857D01*
X202672857Y-61447142D01*
X202672857Y-61561428D01*
X203415714Y-62418571D02*
X203472857Y-62304285D01*
X203472857Y-62075714D01*
X203415714Y-61961428D01*
X203301428Y-61904285D01*
X202844285Y-61904285D01*
X202730000Y-61961428D01*
X202672857Y-62075714D01*
X202672857Y-62304285D01*
X202730000Y-62418571D01*
X202844285Y-62475714D01*
X202958571Y-62475714D01*
X203072857Y-61904285D01*
X202672857Y-63904285D02*
X203472857Y-63904285D01*
X202787142Y-63904285D02*
X202730000Y-63961428D01*
X202672857Y-64075714D01*
X202672857Y-64247142D01*
X202730000Y-64361428D01*
X202844285Y-64418571D01*
X203472857Y-64418571D01*
X203472857Y-65161428D02*
X203415714Y-65047142D01*
X203358571Y-64990000D01*
X203244285Y-64932857D01*
X202901428Y-64932857D01*
X202787142Y-64990000D01*
X202730000Y-65047142D01*
X202672857Y-65161428D01*
X202672857Y-65332857D01*
X202730000Y-65447142D01*
X202787142Y-65504285D01*
X202901428Y-65561428D01*
X203244285Y-65561428D01*
X203358571Y-65504285D01*
X203415714Y-65447142D01*
X203472857Y-65332857D01*
X203472857Y-65161428D01*
X202672857Y-65904285D02*
X202672857Y-66361428D01*
X202272857Y-66075714D02*
X203301428Y-66075714D01*
X203415714Y-66132857D01*
X203472857Y-66247142D01*
X203472857Y-66361428D01*
X205415714Y-23732857D02*
X205472857Y-23618571D01*
X205472857Y-23390000D01*
X205415714Y-23275714D01*
X205301428Y-23218571D01*
X204844285Y-23218571D01*
X204730000Y-23275714D01*
X204672857Y-23390000D01*
X204672857Y-23618571D01*
X204730000Y-23732857D01*
X204844285Y-23790000D01*
X204958571Y-23790000D01*
X205072857Y-23218571D01*
X205415714Y-24247142D02*
X205472857Y-24361428D01*
X205472857Y-24590000D01*
X205415714Y-24704285D01*
X205301428Y-24761428D01*
X205244285Y-24761428D01*
X205130000Y-24704285D01*
X205072857Y-24590000D01*
X205072857Y-24418571D01*
X205015714Y-24304285D01*
X204901428Y-24247142D01*
X204844285Y-24247142D01*
X204730000Y-24304285D01*
X204672857Y-24418571D01*
X204672857Y-24590000D01*
X204730000Y-24704285D01*
X205415714Y-25218571D02*
X205472857Y-25332857D01*
X205472857Y-25561428D01*
X205415714Y-25675714D01*
X205301428Y-25732857D01*
X205244285Y-25732857D01*
X205130000Y-25675714D01*
X205072857Y-25561428D01*
X205072857Y-25390000D01*
X205015714Y-25275714D01*
X204901428Y-25218571D01*
X204844285Y-25218571D01*
X204730000Y-25275714D01*
X204672857Y-25390000D01*
X204672857Y-25561428D01*
X204730000Y-25675714D01*
X205415714Y-26704285D02*
X205472857Y-26590000D01*
X205472857Y-26361428D01*
X205415714Y-26247142D01*
X205301428Y-26190000D01*
X204844285Y-26190000D01*
X204730000Y-26247142D01*
X204672857Y-26361428D01*
X204672857Y-26590000D01*
X204730000Y-26704285D01*
X204844285Y-26761428D01*
X204958571Y-26761428D01*
X205072857Y-26190000D01*
X204672857Y-27275714D02*
X205472857Y-27275714D01*
X204787142Y-27275714D02*
X204730000Y-27332857D01*
X204672857Y-27447142D01*
X204672857Y-27618571D01*
X204730000Y-27732857D01*
X204844285Y-27790000D01*
X205472857Y-27790000D01*
X204672857Y-28190000D02*
X204672857Y-28647142D01*
X204272857Y-28361428D02*
X205301428Y-28361428D01*
X205415714Y-28418571D01*
X205472857Y-28532857D01*
X205472857Y-28647142D01*
X205472857Y-29047142D02*
X204672857Y-29047142D01*
X204272857Y-29047142D02*
X204330000Y-28990000D01*
X204387142Y-29047142D01*
X204330000Y-29104285D01*
X204272857Y-29047142D01*
X204387142Y-29047142D01*
X205472857Y-30132857D02*
X204844285Y-30132857D01*
X204730000Y-30075714D01*
X204672857Y-29961428D01*
X204672857Y-29732857D01*
X204730000Y-29618571D01*
X205415714Y-30132857D02*
X205472857Y-30018571D01*
X205472857Y-29732857D01*
X205415714Y-29618571D01*
X205301428Y-29561428D01*
X205187142Y-29561428D01*
X205072857Y-29618571D01*
X205015714Y-29732857D01*
X205015714Y-30018571D01*
X204958571Y-30132857D01*
X205472857Y-30875714D02*
X205415714Y-30761428D01*
X205301428Y-30704285D01*
X204272857Y-30704285D01*
X205472857Y-32247142D02*
X204272857Y-32247142D01*
X204730000Y-32247142D02*
X204672857Y-32361428D01*
X204672857Y-32590000D01*
X204730000Y-32704285D01*
X204787142Y-32761428D01*
X204901428Y-32818571D01*
X205244285Y-32818571D01*
X205358571Y-32761428D01*
X205415714Y-32704285D01*
X205472857Y-32590000D01*
X205472857Y-32361428D01*
X205415714Y-32247142D01*
X204672857Y-33847142D02*
X205472857Y-33847142D01*
X204672857Y-33332857D02*
X205301428Y-33332857D01*
X205415714Y-33390000D01*
X205472857Y-33504285D01*
X205472857Y-33675714D01*
X205415714Y-33790000D01*
X205358571Y-33847142D01*
X204672857Y-34247142D02*
X204672857Y-34704285D01*
X204272857Y-34418571D02*
X205301428Y-34418571D01*
X205415714Y-34475714D01*
X205472857Y-34590000D01*
X205472857Y-34704285D01*
X204672857Y-35847142D02*
X204672857Y-36304285D01*
X204272857Y-36018571D02*
X205301428Y-36018571D01*
X205415714Y-36075714D01*
X205472857Y-36190000D01*
X205472857Y-36304285D01*
X205472857Y-36704285D02*
X204272857Y-36704285D01*
X205472857Y-37218571D02*
X204844285Y-37218571D01*
X204730000Y-37161428D01*
X204672857Y-37047142D01*
X204672857Y-36875714D01*
X204730000Y-36761428D01*
X204787142Y-36704285D01*
X205415714Y-38247142D02*
X205472857Y-38132857D01*
X205472857Y-37904285D01*
X205415714Y-37790000D01*
X205301428Y-37732857D01*
X204844285Y-37732857D01*
X204730000Y-37790000D01*
X204672857Y-37904285D01*
X204672857Y-38132857D01*
X204730000Y-38247142D01*
X204844285Y-38304285D01*
X204958571Y-38304285D01*
X205072857Y-37732857D01*
X204672857Y-38704285D02*
X205472857Y-38990000D01*
X204672857Y-39275714D02*
X205472857Y-38990000D01*
X205758571Y-38875714D01*
X205815714Y-38818571D01*
X205872857Y-38704285D01*
X204672857Y-40532857D02*
X205472857Y-40761428D01*
X204901428Y-40990000D01*
X205472857Y-41218571D01*
X204672857Y-41447142D01*
X205472857Y-41904285D02*
X204672857Y-41904285D01*
X204272857Y-41904285D02*
X204330000Y-41847142D01*
X204387142Y-41904285D01*
X204330000Y-41961428D01*
X204272857Y-41904285D01*
X204387142Y-41904285D01*
X205472857Y-42647142D02*
X205415714Y-42532857D01*
X205301428Y-42475714D01*
X204272857Y-42475714D01*
X205472857Y-43275714D02*
X205415714Y-43161428D01*
X205301428Y-43104285D01*
X204272857Y-43104285D01*
X205472857Y-44647142D02*
X204272857Y-44647142D01*
X205472857Y-45161428D02*
X204844285Y-45161428D01*
X204730000Y-45104285D01*
X204672857Y-44990000D01*
X204672857Y-44818571D01*
X204730000Y-44704285D01*
X204787142Y-44647142D01*
X205415714Y-46190000D02*
X205472857Y-46075714D01*
X205472857Y-45847142D01*
X205415714Y-45732857D01*
X205301428Y-45675714D01*
X204844285Y-45675714D01*
X204730000Y-45732857D01*
X204672857Y-45847142D01*
X204672857Y-46075714D01*
X204730000Y-46190000D01*
X204844285Y-46247142D01*
X204958571Y-46247142D01*
X205072857Y-45675714D01*
X205472857Y-46932857D02*
X205415714Y-46818571D01*
X205301428Y-46761428D01*
X204272857Y-46761428D01*
X204672857Y-47390000D02*
X205872857Y-47390000D01*
X204730000Y-47390000D02*
X204672857Y-47504285D01*
X204672857Y-47732857D01*
X204730000Y-47847142D01*
X204787142Y-47904285D01*
X204901428Y-47961428D01*
X205244285Y-47961428D01*
X205358571Y-47904285D01*
X205415714Y-47847142D01*
X205472857Y-47732857D01*
X205472857Y-47504285D01*
X205415714Y-47390000D01*
X204672857Y-49390000D02*
X205872857Y-49390000D01*
X204730000Y-49390000D02*
X204672857Y-49504285D01*
X204672857Y-49732857D01*
X204730000Y-49847142D01*
X204787142Y-49904285D01*
X204901428Y-49961428D01*
X205244285Y-49961428D01*
X205358571Y-49904285D01*
X205415714Y-49847142D01*
X205472857Y-49732857D01*
X205472857Y-49504285D01*
X205415714Y-49390000D01*
X205472857Y-50475714D02*
X204672857Y-50475714D01*
X204901428Y-50475714D02*
X204787142Y-50532857D01*
X204730000Y-50590000D01*
X204672857Y-50704285D01*
X204672857Y-50818571D01*
X205472857Y-51390000D02*
X205415714Y-51275714D01*
X205358571Y-51218571D01*
X205244285Y-51161428D01*
X204901428Y-51161428D01*
X204787142Y-51218571D01*
X204730000Y-51275714D01*
X204672857Y-51390000D01*
X204672857Y-51561428D01*
X204730000Y-51675714D01*
X204787142Y-51732857D01*
X204901428Y-51790000D01*
X205244285Y-51790000D01*
X205358571Y-51732857D01*
X205415714Y-51675714D01*
X205472857Y-51561428D01*
X205472857Y-51390000D01*
X204672857Y-52132857D02*
X204672857Y-52590000D01*
X204272857Y-52304285D02*
X205301428Y-52304285D01*
X205415714Y-52361428D01*
X205472857Y-52475714D01*
X205472857Y-52590000D01*
X205415714Y-53447142D02*
X205472857Y-53332857D01*
X205472857Y-53104285D01*
X205415714Y-52990000D01*
X205301428Y-52932857D01*
X204844285Y-52932857D01*
X204730000Y-52990000D01*
X204672857Y-53104285D01*
X204672857Y-53332857D01*
X204730000Y-53447142D01*
X204844285Y-53504285D01*
X204958571Y-53504285D01*
X205072857Y-52932857D01*
X205415714Y-54532857D02*
X205472857Y-54418571D01*
X205472857Y-54190000D01*
X205415714Y-54075714D01*
X205358571Y-54018571D01*
X205244285Y-53961428D01*
X204901428Y-53961428D01*
X204787142Y-54018571D01*
X204730000Y-54075714D01*
X204672857Y-54190000D01*
X204672857Y-54418571D01*
X204730000Y-54532857D01*
X204672857Y-54875714D02*
X204672857Y-55332857D01*
X204272857Y-55047142D02*
X205301428Y-55047142D01*
X205415714Y-55104285D01*
X205472857Y-55218571D01*
X205472857Y-55332857D01*
X204672857Y-56532857D02*
X205472857Y-56818571D01*
X204672857Y-57104285D02*
X205472857Y-56818571D01*
X205758571Y-56704285D01*
X205815714Y-56647142D01*
X205872857Y-56532857D01*
X205472857Y-57732857D02*
X205415714Y-57618571D01*
X205358571Y-57561428D01*
X205244285Y-57504285D01*
X204901428Y-57504285D01*
X204787142Y-57561428D01*
X204730000Y-57618571D01*
X204672857Y-57732857D01*
X204672857Y-57904285D01*
X204730000Y-58018571D01*
X204787142Y-58075714D01*
X204901428Y-58132857D01*
X205244285Y-58132857D01*
X205358571Y-58075714D01*
X205415714Y-58018571D01*
X205472857Y-57904285D01*
X205472857Y-57732857D01*
X204672857Y-59161428D02*
X205472857Y-59161428D01*
X204672857Y-58647142D02*
X205301428Y-58647142D01*
X205415714Y-58704285D01*
X205472857Y-58818571D01*
X205472857Y-58990000D01*
X205415714Y-59104285D01*
X205358571Y-59161428D01*
X205472857Y-59732857D02*
X204672857Y-59732857D01*
X204901428Y-59732857D02*
X204787142Y-59790000D01*
X204730000Y-59847142D01*
X204672857Y-59961428D01*
X204672857Y-60075714D01*
X205472857Y-61390000D02*
X204272857Y-61390000D01*
X205472857Y-61904285D02*
X204844285Y-61904285D01*
X204730000Y-61847142D01*
X204672857Y-61732857D01*
X204672857Y-61561428D01*
X204730000Y-61447142D01*
X204787142Y-61390000D01*
X205472857Y-62990000D02*
X204844285Y-62990000D01*
X204730000Y-62932857D01*
X204672857Y-62818571D01*
X204672857Y-62590000D01*
X204730000Y-62475714D01*
X205415714Y-62990000D02*
X205472857Y-62875714D01*
X205472857Y-62590000D01*
X205415714Y-62475714D01*
X205301428Y-62418571D01*
X205187142Y-62418571D01*
X205072857Y-62475714D01*
X205015714Y-62590000D01*
X205015714Y-62875714D01*
X204958571Y-62990000D01*
X205472857Y-63561428D02*
X204672857Y-63561428D01*
X204901428Y-63561428D02*
X204787142Y-63618571D01*
X204730000Y-63675714D01*
X204672857Y-63790000D01*
X204672857Y-63904285D01*
X205472857Y-64818571D02*
X204272857Y-64818571D01*
X205415714Y-64818571D02*
X205472857Y-64704285D01*
X205472857Y-64475714D01*
X205415714Y-64361428D01*
X205358571Y-64304285D01*
X205244285Y-64247142D01*
X204901428Y-64247142D01*
X204787142Y-64304285D01*
X204730000Y-64361428D01*
X204672857Y-64475714D01*
X204672857Y-64704285D01*
X204730000Y-64818571D01*
X206672857Y-23161428D02*
X207472857Y-23390000D01*
X206901428Y-23618571D01*
X207472857Y-23847142D01*
X206672857Y-24075714D01*
X207472857Y-24704285D02*
X207415714Y-24590000D01*
X207358571Y-24532857D01*
X207244285Y-24475714D01*
X206901428Y-24475714D01*
X206787142Y-24532857D01*
X206730000Y-24590000D01*
X206672857Y-24704285D01*
X206672857Y-24875714D01*
X206730000Y-24990000D01*
X206787142Y-25047142D01*
X206901428Y-25104285D01*
X207244285Y-25104285D01*
X207358571Y-25047142D01*
X207415714Y-24990000D01*
X207472857Y-24875714D01*
X207472857Y-24704285D01*
X207472857Y-25618571D02*
X206672857Y-25618571D01*
X206901428Y-25618571D02*
X206787142Y-25675714D01*
X206730000Y-25732857D01*
X206672857Y-25847142D01*
X206672857Y-25961428D01*
X207472857Y-26361428D02*
X206272857Y-26361428D01*
X207015714Y-26475714D02*
X207472857Y-26818571D01*
X206672857Y-26818571D02*
X207130000Y-26361428D01*
X207472857Y-28761428D02*
X206844285Y-28761428D01*
X206730000Y-28704285D01*
X206672857Y-28590000D01*
X206672857Y-28361428D01*
X206730000Y-28247142D01*
X207415714Y-28761428D02*
X207472857Y-28647142D01*
X207472857Y-28361428D01*
X207415714Y-28247142D01*
X207301428Y-28190000D01*
X207187142Y-28190000D01*
X207072857Y-28247142D01*
X207015714Y-28361428D01*
X207015714Y-28647142D01*
X206958571Y-28761428D01*
X206672857Y-29332857D02*
X207472857Y-29332857D01*
X206787142Y-29332857D02*
X206730000Y-29390000D01*
X206672857Y-29504285D01*
X206672857Y-29675714D01*
X206730000Y-29790000D01*
X206844285Y-29847142D01*
X207472857Y-29847142D01*
X207472857Y-30932857D02*
X206272857Y-30932857D01*
X207415714Y-30932857D02*
X207472857Y-30818571D01*
X207472857Y-30590000D01*
X207415714Y-30475714D01*
X207358571Y-30418571D01*
X207244285Y-30361428D01*
X206901428Y-30361428D01*
X206787142Y-30418571D01*
X206730000Y-30475714D01*
X206672857Y-30590000D01*
X206672857Y-30818571D01*
X206730000Y-30932857D01*
X206672857Y-32304285D02*
X207472857Y-32590000D01*
X206672857Y-32875714D01*
X207472857Y-33332857D02*
X206672857Y-33332857D01*
X206272857Y-33332857D02*
X206330000Y-33275714D01*
X206387142Y-33332857D01*
X206330000Y-33390000D01*
X206272857Y-33332857D01*
X206387142Y-33332857D01*
X206672857Y-33904285D02*
X207472857Y-33904285D01*
X206787142Y-33904285D02*
X206730000Y-33961428D01*
X206672857Y-34075714D01*
X206672857Y-34247142D01*
X206730000Y-34361428D01*
X206844285Y-34418571D01*
X207472857Y-34418571D01*
X207415714Y-34932857D02*
X207472857Y-35047142D01*
X207472857Y-35275714D01*
X207415714Y-35390000D01*
X207301428Y-35447142D01*
X207244285Y-35447142D01*
X207130000Y-35390000D01*
X207072857Y-35275714D01*
X207072857Y-35104285D01*
X207015714Y-34990000D01*
X206901428Y-34932857D01*
X206844285Y-34932857D01*
X206730000Y-34990000D01*
X206672857Y-35104285D01*
X206672857Y-35275714D01*
X206730000Y-35390000D01*
X206672857Y-35790000D02*
X206672857Y-36247142D01*
X206272857Y-35961428D02*
X207301428Y-35961428D01*
X207415714Y-36018571D01*
X207472857Y-36132857D01*
X207472857Y-36247142D01*
X207472857Y-37161428D02*
X206844285Y-37161428D01*
X206730000Y-37104285D01*
X206672857Y-36990000D01*
X206672857Y-36761428D01*
X206730000Y-36647142D01*
X207415714Y-37161428D02*
X207472857Y-37047142D01*
X207472857Y-36761428D01*
X207415714Y-36647142D01*
X207301428Y-36590000D01*
X207187142Y-36590000D01*
X207072857Y-36647142D01*
X207015714Y-36761428D01*
X207015714Y-37047142D01*
X206958571Y-37161428D01*
X206672857Y-38247142D02*
X207644285Y-38247142D01*
X207758571Y-38190000D01*
X207815714Y-38132857D01*
X207872857Y-38018571D01*
X207872857Y-37847142D01*
X207815714Y-37732857D01*
X207415714Y-38247142D02*
X207472857Y-38132857D01*
X207472857Y-37904285D01*
X207415714Y-37790000D01*
X207358571Y-37732857D01*
X207244285Y-37675714D01*
X206901428Y-37675714D01*
X206787142Y-37732857D01*
X206730000Y-37790000D01*
X206672857Y-37904285D01*
X206672857Y-38132857D01*
X206730000Y-38247142D01*
X207415714Y-39275714D02*
X207472857Y-39161428D01*
X207472857Y-38932857D01*
X207415714Y-38818571D01*
X207301428Y-38761428D01*
X206844285Y-38761428D01*
X206730000Y-38818571D01*
X206672857Y-38932857D01*
X206672857Y-39161428D01*
X206730000Y-39275714D01*
X206844285Y-39332857D01*
X206958571Y-39332857D01*
X207072857Y-38761428D01*
X207415714Y-41275714D02*
X207472857Y-41161428D01*
X207472857Y-40932857D01*
X207415714Y-40818571D01*
X207358571Y-40761428D01*
X207244285Y-40704285D01*
X206901428Y-40704285D01*
X206787142Y-40761428D01*
X206730000Y-40818571D01*
X206672857Y-40932857D01*
X206672857Y-41161428D01*
X206730000Y-41275714D01*
X207472857Y-41961428D02*
X207415714Y-41847142D01*
X207358571Y-41790000D01*
X207244285Y-41732857D01*
X206901428Y-41732857D01*
X206787142Y-41790000D01*
X206730000Y-41847142D01*
X206672857Y-41961428D01*
X206672857Y-42132857D01*
X206730000Y-42247142D01*
X206787142Y-42304285D01*
X206901428Y-42361428D01*
X207244285Y-42361428D01*
X207358571Y-42304285D01*
X207415714Y-42247142D01*
X207472857Y-42132857D01*
X207472857Y-41961428D01*
X207472857Y-42875714D02*
X206672857Y-42875714D01*
X206787142Y-42875714D02*
X206730000Y-42932857D01*
X206672857Y-43047142D01*
X206672857Y-43218571D01*
X206730000Y-43332857D01*
X206844285Y-43390000D01*
X207472857Y-43390000D01*
X206844285Y-43390000D02*
X206730000Y-43447142D01*
X206672857Y-43561428D01*
X206672857Y-43732857D01*
X206730000Y-43847142D01*
X206844285Y-43904285D01*
X207472857Y-43904285D01*
X206672857Y-44475714D02*
X207872857Y-44475714D01*
X206730000Y-44475714D02*
X206672857Y-44590000D01*
X206672857Y-44818571D01*
X206730000Y-44932857D01*
X206787142Y-44990000D01*
X206901428Y-45047142D01*
X207244285Y-45047142D01*
X207358571Y-44990000D01*
X207415714Y-44932857D01*
X207472857Y-44818571D01*
X207472857Y-44590000D01*
X207415714Y-44475714D01*
X207472857Y-45732857D02*
X207415714Y-45618571D01*
X207358571Y-45561428D01*
X207244285Y-45504285D01*
X206901428Y-45504285D01*
X206787142Y-45561428D01*
X206730000Y-45618571D01*
X206672857Y-45732857D01*
X206672857Y-45904285D01*
X206730000Y-46018571D01*
X206787142Y-46075714D01*
X206901428Y-46132857D01*
X207244285Y-46132857D01*
X207358571Y-46075714D01*
X207415714Y-46018571D01*
X207472857Y-45904285D01*
X207472857Y-45732857D01*
X206672857Y-46647142D02*
X207472857Y-46647142D01*
X206787142Y-46647142D02*
X206730000Y-46704285D01*
X206672857Y-46818571D01*
X206672857Y-46990000D01*
X206730000Y-47104285D01*
X206844285Y-47161428D01*
X207472857Y-47161428D01*
X207415714Y-48190000D02*
X207472857Y-48075714D01*
X207472857Y-47847142D01*
X207415714Y-47732857D01*
X207301428Y-47675714D01*
X206844285Y-47675714D01*
X206730000Y-47732857D01*
X206672857Y-47847142D01*
X206672857Y-48075714D01*
X206730000Y-48190000D01*
X206844285Y-48247142D01*
X206958571Y-48247142D01*
X207072857Y-47675714D01*
X206672857Y-48761428D02*
X207472857Y-48761428D01*
X206787142Y-48761428D02*
X206730000Y-48818571D01*
X206672857Y-48932857D01*
X206672857Y-49104285D01*
X206730000Y-49218571D01*
X206844285Y-49275714D01*
X207472857Y-49275714D01*
X206672857Y-49675714D02*
X206672857Y-50132857D01*
X206272857Y-49847142D02*
X207301428Y-49847142D01*
X207415714Y-49904285D01*
X207472857Y-50018571D01*
X207472857Y-50132857D01*
X207415714Y-50475714D02*
X207472857Y-50590000D01*
X207472857Y-50818571D01*
X207415714Y-50932857D01*
X207301428Y-50990000D01*
X207244285Y-50990000D01*
X207130000Y-50932857D01*
X207072857Y-50818571D01*
X207072857Y-50647142D01*
X207015714Y-50532857D01*
X206901428Y-50475714D01*
X206844285Y-50475714D01*
X206730000Y-50532857D01*
X206672857Y-50647142D01*
X206672857Y-50818571D01*
X206730000Y-50932857D01*
X206672857Y-52247142D02*
X206672857Y-52704285D01*
X207472857Y-52418571D02*
X206444285Y-52418571D01*
X206330000Y-52475714D01*
X206272857Y-52590000D01*
X206272857Y-52704285D01*
X207472857Y-53104285D02*
X206672857Y-53104285D01*
X206901428Y-53104285D02*
X206787142Y-53161428D01*
X206730000Y-53218571D01*
X206672857Y-53332857D01*
X206672857Y-53447142D01*
X207472857Y-54018571D02*
X207415714Y-53904285D01*
X207358571Y-53847142D01*
X207244285Y-53790000D01*
X206901428Y-53790000D01*
X206787142Y-53847142D01*
X206730000Y-53904285D01*
X206672857Y-54018571D01*
X206672857Y-54190000D01*
X206730000Y-54304285D01*
X206787142Y-54361428D01*
X206901428Y-54418571D01*
X207244285Y-54418571D01*
X207358571Y-54361428D01*
X207415714Y-54304285D01*
X207472857Y-54190000D01*
X207472857Y-54018571D01*
X207472857Y-54932857D02*
X206672857Y-54932857D01*
X206787142Y-54932857D02*
X206730000Y-54990000D01*
X206672857Y-55104285D01*
X206672857Y-55275714D01*
X206730000Y-55390000D01*
X206844285Y-55447142D01*
X207472857Y-55447142D01*
X206844285Y-55447142D02*
X206730000Y-55504285D01*
X206672857Y-55618571D01*
X206672857Y-55790000D01*
X206730000Y-55904285D01*
X206844285Y-55961428D01*
X207472857Y-55961428D01*
X207415714Y-57390000D02*
X207472857Y-57504285D01*
X207472857Y-57732857D01*
X207415714Y-57847142D01*
X207301428Y-57904285D01*
X207244285Y-57904285D01*
X207130000Y-57847142D01*
X207072857Y-57732857D01*
X207072857Y-57561428D01*
X207015714Y-57447142D01*
X206901428Y-57390000D01*
X206844285Y-57390000D01*
X206730000Y-57447142D01*
X206672857Y-57561428D01*
X206672857Y-57732857D01*
X206730000Y-57847142D01*
X206672857Y-58247142D02*
X206672857Y-58704285D01*
X206272857Y-58418571D02*
X207301428Y-58418571D01*
X207415714Y-58475714D01*
X207472857Y-58590000D01*
X207472857Y-58704285D01*
X207472857Y-59618571D02*
X206844285Y-59618571D01*
X206730000Y-59561428D01*
X206672857Y-59447142D01*
X206672857Y-59218571D01*
X206730000Y-59104285D01*
X207415714Y-59618571D02*
X207472857Y-59504285D01*
X207472857Y-59218571D01*
X207415714Y-59104285D01*
X207301428Y-59047142D01*
X207187142Y-59047142D01*
X207072857Y-59104285D01*
X207015714Y-59218571D01*
X207015714Y-59504285D01*
X206958571Y-59618571D01*
X206672857Y-60018571D02*
X206672857Y-60475714D01*
X206272857Y-60190000D02*
X207301428Y-60190000D01*
X207415714Y-60247142D01*
X207472857Y-60361428D01*
X207472857Y-60475714D01*
X207472857Y-60875714D02*
X206672857Y-60875714D01*
X206272857Y-60875714D02*
X206330000Y-60818571D01*
X206387142Y-60875714D01*
X206330000Y-60932857D01*
X206272857Y-60875714D01*
X206387142Y-60875714D01*
X207415714Y-61961428D02*
X207472857Y-61847142D01*
X207472857Y-61618571D01*
X207415714Y-61504285D01*
X207358571Y-61447142D01*
X207244285Y-61390000D01*
X206901428Y-61390000D01*
X206787142Y-61447142D01*
X206730000Y-61504285D01*
X206672857Y-61618571D01*
X206672857Y-61847142D01*
X206730000Y-61961428D01*
X209415714Y-23732857D02*
X209472857Y-23618571D01*
X209472857Y-23390000D01*
X209415714Y-23275714D01*
X209301428Y-23218571D01*
X208844285Y-23218571D01*
X208730000Y-23275714D01*
X208672857Y-23390000D01*
X208672857Y-23618571D01*
X208730000Y-23732857D01*
X208844285Y-23790000D01*
X208958571Y-23790000D01*
X209072857Y-23218571D01*
X209472857Y-24475714D02*
X209415714Y-24361428D01*
X209301428Y-24304285D01*
X208272857Y-24304285D01*
X209415714Y-25390000D02*
X209472857Y-25275714D01*
X209472857Y-25047142D01*
X209415714Y-24932857D01*
X209301428Y-24875714D01*
X208844285Y-24875714D01*
X208730000Y-24932857D01*
X208672857Y-25047142D01*
X208672857Y-25275714D01*
X208730000Y-25390000D01*
X208844285Y-25447142D01*
X208958571Y-25447142D01*
X209072857Y-24875714D01*
X209415714Y-26475714D02*
X209472857Y-26361428D01*
X209472857Y-26132857D01*
X209415714Y-26018571D01*
X209358571Y-25961428D01*
X209244285Y-25904285D01*
X208901428Y-25904285D01*
X208787142Y-25961428D01*
X208730000Y-26018571D01*
X208672857Y-26132857D01*
X208672857Y-26361428D01*
X208730000Y-26475714D01*
X208672857Y-26818571D02*
X208672857Y-27275714D01*
X208272857Y-26990000D02*
X209301428Y-26990000D01*
X209415714Y-27047142D01*
X209472857Y-27161428D01*
X209472857Y-27275714D01*
X209472857Y-27675714D02*
X208672857Y-27675714D01*
X208901428Y-27675714D02*
X208787142Y-27732857D01*
X208730000Y-27790000D01*
X208672857Y-27904285D01*
X208672857Y-28018571D01*
X209472857Y-28418571D02*
X208672857Y-28418571D01*
X208272857Y-28418571D02*
X208330000Y-28361428D01*
X208387142Y-28418571D01*
X208330000Y-28475714D01*
X208272857Y-28418571D01*
X208387142Y-28418571D01*
X209415714Y-29504285D02*
X209472857Y-29390000D01*
X209472857Y-29161428D01*
X209415714Y-29047142D01*
X209358571Y-28990000D01*
X209244285Y-28932857D01*
X208901428Y-28932857D01*
X208787142Y-28990000D01*
X208730000Y-29047142D01*
X208672857Y-29161428D01*
X208672857Y-29390000D01*
X208730000Y-29504285D01*
X209472857Y-30018571D02*
X208672857Y-30018571D01*
X208272857Y-30018571D02*
X208330000Y-29961428D01*
X208387142Y-30018571D01*
X208330000Y-30075714D01*
X208272857Y-30018571D01*
X208387142Y-30018571D01*
X208672857Y-30418571D02*
X208672857Y-30875714D01*
X208272857Y-30590000D02*
X209301428Y-30590000D01*
X209415714Y-30647142D01*
X209472857Y-30761428D01*
X209472857Y-30875714D01*
X208672857Y-31161428D02*
X209472857Y-31447142D01*
X208672857Y-31732857D02*
X209472857Y-31447142D01*
X209758571Y-31332857D01*
X209815714Y-31275714D01*
X209872857Y-31161428D01*
X209472857Y-33618571D02*
X208844285Y-33618571D01*
X208730000Y-33561428D01*
X208672857Y-33447142D01*
X208672857Y-33218571D01*
X208730000Y-33104285D01*
X209415714Y-33618571D02*
X209472857Y-33504285D01*
X209472857Y-33218571D01*
X209415714Y-33104285D01*
X209301428Y-33047142D01*
X209187142Y-33047142D01*
X209072857Y-33104285D01*
X209015714Y-33218571D01*
X209015714Y-33504285D01*
X208958571Y-33618571D01*
X208672857Y-34190000D02*
X209472857Y-34190000D01*
X208787142Y-34190000D02*
X208730000Y-34247142D01*
X208672857Y-34361428D01*
X208672857Y-34532857D01*
X208730000Y-34647142D01*
X208844285Y-34704285D01*
X209472857Y-34704285D01*
X209472857Y-35790000D02*
X208272857Y-35790000D01*
X209415714Y-35790000D02*
X209472857Y-35675714D01*
X209472857Y-35447142D01*
X209415714Y-35332857D01*
X209358571Y-35275714D01*
X209244285Y-35218571D01*
X208901428Y-35218571D01*
X208787142Y-35275714D01*
X208730000Y-35332857D01*
X208672857Y-35447142D01*
X208672857Y-35675714D01*
X208730000Y-35790000D01*
X208672857Y-37104285D02*
X208672857Y-37561428D01*
X209472857Y-37275714D02*
X208444285Y-37275714D01*
X208330000Y-37332857D01*
X208272857Y-37447142D01*
X208272857Y-37561428D01*
X209472857Y-38475714D02*
X208844285Y-38475714D01*
X208730000Y-38418571D01*
X208672857Y-38304285D01*
X208672857Y-38075714D01*
X208730000Y-37961428D01*
X209415714Y-38475714D02*
X209472857Y-38361428D01*
X209472857Y-38075714D01*
X209415714Y-37961428D01*
X209301428Y-37904285D01*
X209187142Y-37904285D01*
X209072857Y-37961428D01*
X209015714Y-38075714D01*
X209015714Y-38361428D01*
X208958571Y-38475714D01*
X208672857Y-39561428D02*
X209472857Y-39561428D01*
X208672857Y-39047142D02*
X209301428Y-39047142D01*
X209415714Y-39104285D01*
X209472857Y-39218571D01*
X209472857Y-39390000D01*
X209415714Y-39504285D01*
X209358571Y-39561428D01*
X209472857Y-40304285D02*
X209415714Y-40190000D01*
X209301428Y-40132857D01*
X208272857Y-40132857D01*
X208672857Y-40590000D02*
X208672857Y-41047142D01*
X208272857Y-40761428D02*
X209301428Y-40761428D01*
X209415714Y-40818571D01*
X209472857Y-40932857D01*
X209472857Y-41047142D01*
X208672857Y-41332857D02*
X209472857Y-41618571D01*
X208672857Y-41904285D02*
X209472857Y-41618571D01*
X209758571Y-41504285D01*
X209815714Y-41447142D01*
X209872857Y-41332857D01*
X208672857Y-43275714D02*
X209872857Y-43275714D01*
X208730000Y-43275714D02*
X208672857Y-43390000D01*
X208672857Y-43618571D01*
X208730000Y-43732857D01*
X208787142Y-43790000D01*
X208901428Y-43847142D01*
X209244285Y-43847142D01*
X209358571Y-43790000D01*
X209415714Y-43732857D01*
X209472857Y-43618571D01*
X209472857Y-43390000D01*
X209415714Y-43275714D01*
X209472857Y-44532857D02*
X209415714Y-44418571D01*
X209301428Y-44361428D01*
X208272857Y-44361428D01*
X208672857Y-45504285D02*
X209472857Y-45504285D01*
X208672857Y-44990000D02*
X209301428Y-44990000D01*
X209415714Y-45047142D01*
X209472857Y-45161428D01*
X209472857Y-45332857D01*
X209415714Y-45447142D01*
X209358571Y-45504285D01*
X208672857Y-46590000D02*
X209644285Y-46590000D01*
X209758571Y-46532857D01*
X209815714Y-46475714D01*
X209872857Y-46361428D01*
X209872857Y-46190000D01*
X209815714Y-46075714D01*
X209415714Y-46590000D02*
X209472857Y-46475714D01*
X209472857Y-46247142D01*
X209415714Y-46132857D01*
X209358571Y-46075714D01*
X209244285Y-46018571D01*
X208901428Y-46018571D01*
X208787142Y-46075714D01*
X208730000Y-46132857D01*
X208672857Y-46247142D01*
X208672857Y-46475714D01*
X208730000Y-46590000D01*
X209015714Y-47161428D02*
X209015714Y-48075714D01*
X209472857Y-48647142D02*
X208672857Y-48647142D01*
X208272857Y-48647142D02*
X208330000Y-48590000D01*
X208387142Y-48647142D01*
X208330000Y-48704285D01*
X208272857Y-48647142D01*
X208387142Y-48647142D01*
X208672857Y-49218571D02*
X209472857Y-49218571D01*
X208787142Y-49218571D02*
X208730000Y-49275714D01*
X208672857Y-49390000D01*
X208672857Y-49561428D01*
X208730000Y-49675714D01*
X208844285Y-49732857D01*
X209472857Y-49732857D01*
X209415714Y-50247142D02*
X209472857Y-50361428D01*
X209472857Y-50590000D01*
X209415714Y-50704285D01*
X209301428Y-50761428D01*
X209244285Y-50761428D01*
X209130000Y-50704285D01*
X209072857Y-50590000D01*
X209072857Y-50418571D01*
X209015714Y-50304285D01*
X208901428Y-50247142D01*
X208844285Y-50247142D01*
X208730000Y-50304285D01*
X208672857Y-50418571D01*
X208672857Y-50590000D01*
X208730000Y-50704285D01*
X209358571Y-51275714D02*
X209415714Y-51332857D01*
X209472857Y-51275714D01*
X209415714Y-51218571D01*
X209358571Y-51275714D01*
X209472857Y-51275714D01*
X240747857Y-25753571D02*
X239547857Y-25753571D01*
X240405000Y-26153571D01*
X239547857Y-26553571D01*
X240747857Y-26553571D01*
X240747857Y-27639285D02*
X240119285Y-27639285D01*
X240005000Y-27582142D01*
X239947857Y-27467857D01*
X239947857Y-27239285D01*
X240005000Y-27125000D01*
X240690714Y-27639285D02*
X240747857Y-27525000D01*
X240747857Y-27239285D01*
X240690714Y-27125000D01*
X240576428Y-27067857D01*
X240462142Y-27067857D01*
X240347857Y-27125000D01*
X240290714Y-27239285D01*
X240290714Y-27525000D01*
X240233571Y-27639285D01*
X240747857Y-28096428D02*
X239947857Y-28725000D01*
X239947857Y-28096428D02*
X240747857Y-28725000D01*
X239947857Y-30096428D02*
X241147857Y-30096428D01*
X240005000Y-30096428D02*
X239947857Y-30210714D01*
X239947857Y-30439285D01*
X240005000Y-30553571D01*
X240062142Y-30610714D01*
X240176428Y-30667857D01*
X240519285Y-30667857D01*
X240633571Y-30610714D01*
X240690714Y-30553571D01*
X240747857Y-30439285D01*
X240747857Y-30210714D01*
X240690714Y-30096428D01*
X240747857Y-31353571D02*
X240690714Y-31239285D01*
X240633571Y-31182142D01*
X240519285Y-31125000D01*
X240176428Y-31125000D01*
X240062142Y-31182142D01*
X240005000Y-31239285D01*
X239947857Y-31353571D01*
X239947857Y-31525000D01*
X240005000Y-31639285D01*
X240062142Y-31696428D01*
X240176428Y-31753571D01*
X240519285Y-31753571D01*
X240633571Y-31696428D01*
X240690714Y-31639285D01*
X240747857Y-31525000D01*
X240747857Y-31353571D01*
X239947857Y-32153571D02*
X240747857Y-32382142D01*
X240176428Y-32610714D01*
X240747857Y-32839285D01*
X239947857Y-33067857D01*
X240690714Y-33982142D02*
X240747857Y-33867857D01*
X240747857Y-33639285D01*
X240690714Y-33525000D01*
X240576428Y-33467857D01*
X240119285Y-33467857D01*
X240005000Y-33525000D01*
X239947857Y-33639285D01*
X239947857Y-33867857D01*
X240005000Y-33982142D01*
X240119285Y-34039285D01*
X240233571Y-34039285D01*
X240347857Y-33467857D01*
X240747857Y-34553571D02*
X239947857Y-34553571D01*
X240176428Y-34553571D02*
X240062142Y-34610714D01*
X240005000Y-34667857D01*
X239947857Y-34782142D01*
X239947857Y-34896428D01*
X240690714Y-36725000D02*
X240747857Y-36610714D01*
X240747857Y-36382142D01*
X240690714Y-36267857D01*
X240633571Y-36210714D01*
X240519285Y-36153571D01*
X240176428Y-36153571D01*
X240062142Y-36210714D01*
X240005000Y-36267857D01*
X239947857Y-36382142D01*
X239947857Y-36610714D01*
X240005000Y-36725000D01*
X240747857Y-37410714D02*
X240690714Y-37296428D01*
X240633571Y-37239285D01*
X240519285Y-37182142D01*
X240176428Y-37182142D01*
X240062142Y-37239285D01*
X240005000Y-37296428D01*
X239947857Y-37410714D01*
X239947857Y-37582142D01*
X240005000Y-37696428D01*
X240062142Y-37753571D01*
X240176428Y-37810714D01*
X240519285Y-37810714D01*
X240633571Y-37753571D01*
X240690714Y-37696428D01*
X240747857Y-37582142D01*
X240747857Y-37410714D01*
X239947857Y-38325000D02*
X240747857Y-38325000D01*
X240062142Y-38325000D02*
X240005000Y-38382142D01*
X239947857Y-38496428D01*
X239947857Y-38667857D01*
X240005000Y-38782142D01*
X240119285Y-38839285D01*
X240747857Y-38839285D01*
X240690714Y-39353571D02*
X240747857Y-39467857D01*
X240747857Y-39696428D01*
X240690714Y-39810714D01*
X240576428Y-39867857D01*
X240519285Y-39867857D01*
X240405000Y-39810714D01*
X240347857Y-39696428D01*
X240347857Y-39525000D01*
X240290714Y-39410714D01*
X240176428Y-39353571D01*
X240119285Y-39353571D01*
X240005000Y-39410714D01*
X239947857Y-39525000D01*
X239947857Y-39696428D01*
X240005000Y-39810714D01*
X239947857Y-40896428D02*
X240747857Y-40896428D01*
X239947857Y-40382142D02*
X240576428Y-40382142D01*
X240690714Y-40439285D01*
X240747857Y-40553571D01*
X240747857Y-40725000D01*
X240690714Y-40839285D01*
X240633571Y-40896428D01*
X240747857Y-41467857D02*
X239947857Y-41467857D01*
X240062142Y-41467857D02*
X240005000Y-41525000D01*
X239947857Y-41639285D01*
X239947857Y-41810714D01*
X240005000Y-41925000D01*
X240119285Y-41982142D01*
X240747857Y-41982142D01*
X240119285Y-41982142D02*
X240005000Y-42039285D01*
X239947857Y-42153571D01*
X239947857Y-42325000D01*
X240005000Y-42439285D01*
X240119285Y-42496428D01*
X240747857Y-42496428D01*
X239947857Y-43067857D02*
X241147857Y-43067857D01*
X240005000Y-43067857D02*
X239947857Y-43182142D01*
X239947857Y-43410714D01*
X240005000Y-43525000D01*
X240062142Y-43582142D01*
X240176428Y-43639285D01*
X240519285Y-43639285D01*
X240633571Y-43582142D01*
X240690714Y-43525000D01*
X240747857Y-43410714D01*
X240747857Y-43182142D01*
X240690714Y-43067857D01*
X239947857Y-43982142D02*
X239947857Y-44439285D01*
X239547857Y-44153571D02*
X240576428Y-44153571D01*
X240690714Y-44210714D01*
X240747857Y-44325000D01*
X240747857Y-44439285D01*
X240747857Y-44839285D02*
X239947857Y-44839285D01*
X239547857Y-44839285D02*
X239605000Y-44782142D01*
X239662142Y-44839285D01*
X239605000Y-44896428D01*
X239547857Y-44839285D01*
X239662142Y-44839285D01*
X240747857Y-45582142D02*
X240690714Y-45467857D01*
X240633571Y-45410714D01*
X240519285Y-45353571D01*
X240176428Y-45353571D01*
X240062142Y-45410714D01*
X240005000Y-45467857D01*
X239947857Y-45582142D01*
X239947857Y-45753571D01*
X240005000Y-45867857D01*
X240062142Y-45925000D01*
X240176428Y-45982142D01*
X240519285Y-45982142D01*
X240633571Y-45925000D01*
X240690714Y-45867857D01*
X240747857Y-45753571D01*
X240747857Y-45582142D01*
X239947857Y-46496428D02*
X240747857Y-46496428D01*
X240062142Y-46496428D02*
X240005000Y-46553571D01*
X239947857Y-46667857D01*
X239947857Y-46839285D01*
X240005000Y-46953571D01*
X240119285Y-47010714D01*
X240747857Y-47010714D01*
X240633571Y-47582142D02*
X240690714Y-47639285D01*
X240747857Y-47582142D01*
X240690714Y-47525000D01*
X240633571Y-47582142D01*
X240747857Y-47582142D01*
X240005000Y-47582142D02*
X240062142Y-47639285D01*
X240119285Y-47582142D01*
X240062142Y-47525000D01*
X240005000Y-47582142D01*
X240119285Y-47582142D01*
X240747857Y-49696428D02*
X240747857Y-49010714D01*
X240747857Y-49353571D02*
X239547857Y-49353571D01*
X239719285Y-49239285D01*
X239833571Y-49125000D01*
X239890714Y-49010714D01*
X240633571Y-50210714D02*
X240690714Y-50267857D01*
X240747857Y-50210714D01*
X240690714Y-50153571D01*
X240633571Y-50210714D01*
X240747857Y-50210714D01*
X239662142Y-50725000D02*
X239605000Y-50782142D01*
X239547857Y-50896428D01*
X239547857Y-51182142D01*
X239605000Y-51296428D01*
X239662142Y-51353571D01*
X239776428Y-51410714D01*
X239890714Y-51410714D01*
X240062142Y-51353571D01*
X240747857Y-50667857D01*
X240747857Y-51410714D01*
X240405000Y-51867857D02*
X240405000Y-52439285D01*
X240747857Y-51753571D02*
X239547857Y-52153571D01*
X240747857Y-52553571D01*
X240633571Y-52953571D02*
X240690714Y-53010714D01*
X240747857Y-52953571D01*
X240690714Y-52896428D01*
X240633571Y-52953571D01*
X240747857Y-52953571D01*
X240405000Y-54382142D02*
X240405000Y-54953571D01*
X240747857Y-54267857D02*
X239547857Y-54667857D01*
X240747857Y-55067857D01*
X240690714Y-55982142D02*
X240747857Y-55867857D01*
X240747857Y-55639285D01*
X240690714Y-55525000D01*
X240633571Y-55467857D01*
X240519285Y-55410714D01*
X240176428Y-55410714D01*
X240062142Y-55467857D01*
X240005000Y-55525000D01*
X239947857Y-55639285D01*
X239947857Y-55867857D01*
X240005000Y-55982142D01*
X239947857Y-56325000D02*
X239947857Y-56782142D01*
X239547857Y-56496428D02*
X240576428Y-56496428D01*
X240690714Y-56553571D01*
X240747857Y-56667857D01*
X240747857Y-56782142D01*
X239947857Y-57696428D02*
X240747857Y-57696428D01*
X239947857Y-57182142D02*
X240576428Y-57182142D01*
X240690714Y-57239285D01*
X240747857Y-57353571D01*
X240747857Y-57525000D01*
X240690714Y-57639285D01*
X240633571Y-57696428D01*
X240747857Y-58782142D02*
X240119285Y-58782142D01*
X240005000Y-58725000D01*
X239947857Y-58610714D01*
X239947857Y-58382142D01*
X240005000Y-58267857D01*
X240690714Y-58782142D02*
X240747857Y-58667857D01*
X240747857Y-58382142D01*
X240690714Y-58267857D01*
X240576428Y-58210714D01*
X240462142Y-58210714D01*
X240347857Y-58267857D01*
X240290714Y-58382142D01*
X240290714Y-58667857D01*
X240233571Y-58782142D01*
X240747857Y-59525000D02*
X240690714Y-59410714D01*
X240576428Y-59353571D01*
X239547857Y-59353571D01*
X239947857Y-60896428D02*
X241147857Y-60896428D01*
X240005000Y-60896428D02*
X239947857Y-61010714D01*
X239947857Y-61239285D01*
X240005000Y-61353571D01*
X240062142Y-61410714D01*
X240176428Y-61467857D01*
X240519285Y-61467857D01*
X240633571Y-61410714D01*
X240690714Y-61353571D01*
X240747857Y-61239285D01*
X240747857Y-61010714D01*
X240690714Y-60896428D01*
X240747857Y-62153571D02*
X240690714Y-62039285D01*
X240633571Y-61982142D01*
X240519285Y-61925000D01*
X240176428Y-61925000D01*
X240062142Y-61982142D01*
X240005000Y-62039285D01*
X239947857Y-62153571D01*
X239947857Y-62325000D01*
X240005000Y-62439285D01*
X240062142Y-62496428D01*
X240176428Y-62553571D01*
X240519285Y-62553571D01*
X240633571Y-62496428D01*
X240690714Y-62439285D01*
X240747857Y-62325000D01*
X240747857Y-62153571D01*
X239947857Y-62953571D02*
X240747857Y-63182142D01*
X240176428Y-63410714D01*
X240747857Y-63639285D01*
X239947857Y-63867857D01*
X240690714Y-64782142D02*
X240747857Y-64667857D01*
X240747857Y-64439285D01*
X240690714Y-64325000D01*
X240576428Y-64267857D01*
X240119285Y-64267857D01*
X240005000Y-64325000D01*
X239947857Y-64439285D01*
X239947857Y-64667857D01*
X240005000Y-64782142D01*
X240119285Y-64839285D01*
X240233571Y-64839285D01*
X240347857Y-64267857D01*
X240747857Y-65353571D02*
X239947857Y-65353571D01*
X240176428Y-65353571D02*
X240062142Y-65410714D01*
X240005000Y-65467857D01*
X239947857Y-65582142D01*
X239947857Y-65696428D01*
X240690714Y-67525000D02*
X240747857Y-67410714D01*
X240747857Y-67182142D01*
X240690714Y-67067857D01*
X240633571Y-67010714D01*
X240519285Y-66953571D01*
X240176428Y-66953571D01*
X240062142Y-67010714D01*
X240005000Y-67067857D01*
X239947857Y-67182142D01*
X239947857Y-67410714D01*
X240005000Y-67525000D01*
X240747857Y-68210714D02*
X240690714Y-68096428D01*
X240633571Y-68039285D01*
X240519285Y-67982142D01*
X240176428Y-67982142D01*
X240062142Y-68039285D01*
X240005000Y-68096428D01*
X239947857Y-68210714D01*
X239947857Y-68382142D01*
X240005000Y-68496428D01*
X240062142Y-68553571D01*
X240176428Y-68610714D01*
X240519285Y-68610714D01*
X240633571Y-68553571D01*
X240690714Y-68496428D01*
X240747857Y-68382142D01*
X240747857Y-68210714D01*
X239947857Y-69125000D02*
X240747857Y-69125000D01*
X240062142Y-69125000D02*
X240005000Y-69182142D01*
X239947857Y-69296428D01*
X239947857Y-69467857D01*
X240005000Y-69582142D01*
X240119285Y-69639285D01*
X240747857Y-69639285D01*
X240690714Y-70153571D02*
X240747857Y-70267857D01*
X240747857Y-70496428D01*
X240690714Y-70610714D01*
X240576428Y-70667857D01*
X240519285Y-70667857D01*
X240405000Y-70610714D01*
X240347857Y-70496428D01*
X240347857Y-70325000D01*
X240290714Y-70210714D01*
X240176428Y-70153571D01*
X240119285Y-70153571D01*
X240005000Y-70210714D01*
X239947857Y-70325000D01*
X239947857Y-70496428D01*
X240005000Y-70610714D01*
X239947857Y-71696428D02*
X240747857Y-71696428D01*
X239947857Y-71182142D02*
X240576428Y-71182142D01*
X240690714Y-71239285D01*
X240747857Y-71353571D01*
X240747857Y-71525000D01*
X240690714Y-71639285D01*
X240633571Y-71696428D01*
X240747857Y-72267857D02*
X239947857Y-72267857D01*
X240062142Y-72267857D02*
X240005000Y-72325000D01*
X239947857Y-72439285D01*
X239947857Y-72610714D01*
X240005000Y-72725000D01*
X240119285Y-72782142D01*
X240747857Y-72782142D01*
X240119285Y-72782142D02*
X240005000Y-72839285D01*
X239947857Y-72953571D01*
X239947857Y-73125000D01*
X240005000Y-73239285D01*
X240119285Y-73296428D01*
X240747857Y-73296428D01*
X239947857Y-73867857D02*
X241147857Y-73867857D01*
X240005000Y-73867857D02*
X239947857Y-73982142D01*
X239947857Y-74210714D01*
X240005000Y-74325000D01*
X240062142Y-74382142D01*
X240176428Y-74439285D01*
X240519285Y-74439285D01*
X240633571Y-74382142D01*
X240690714Y-74325000D01*
X240747857Y-74210714D01*
X240747857Y-73982142D01*
X240690714Y-73867857D01*
X239947857Y-74782142D02*
X239947857Y-75239285D01*
X239547857Y-74953571D02*
X240576428Y-74953571D01*
X240690714Y-75010714D01*
X240747857Y-75125000D01*
X240747857Y-75239285D01*
X240747857Y-75639285D02*
X239947857Y-75639285D01*
X239547857Y-75639285D02*
X239605000Y-75582142D01*
X239662142Y-75639285D01*
X239605000Y-75696428D01*
X239547857Y-75639285D01*
X239662142Y-75639285D01*
X240747857Y-76382142D02*
X240690714Y-76267857D01*
X240633571Y-76210714D01*
X240519285Y-76153571D01*
X240176428Y-76153571D01*
X240062142Y-76210714D01*
X240005000Y-76267857D01*
X239947857Y-76382142D01*
X239947857Y-76553571D01*
X240005000Y-76667857D01*
X240062142Y-76725000D01*
X240176428Y-76782142D01*
X240519285Y-76782142D01*
X240633571Y-76725000D01*
X240690714Y-76667857D01*
X240747857Y-76553571D01*
X240747857Y-76382142D01*
X239947857Y-77296428D02*
X240747857Y-77296428D01*
X240062142Y-77296428D02*
X240005000Y-77353571D01*
X239947857Y-77467857D01*
X239947857Y-77639285D01*
X240005000Y-77753571D01*
X240119285Y-77810714D01*
X240747857Y-77810714D01*
X239947857Y-79182142D02*
X240747857Y-79467857D01*
X239947857Y-79753571D01*
X240747857Y-80725000D02*
X240119285Y-80725000D01*
X240005000Y-80667857D01*
X239947857Y-80553571D01*
X239947857Y-80325000D01*
X240005000Y-80210714D01*
X240690714Y-80725000D02*
X240747857Y-80610714D01*
X240747857Y-80325000D01*
X240690714Y-80210714D01*
X240576428Y-80153571D01*
X240462142Y-80153571D01*
X240347857Y-80210714D01*
X240290714Y-80325000D01*
X240290714Y-80610714D01*
X240233571Y-80725000D01*
X240747857Y-81296428D02*
X239947857Y-81296428D01*
X240176428Y-81296428D02*
X240062142Y-81353571D01*
X240005000Y-81410714D01*
X239947857Y-81525000D01*
X239947857Y-81639285D01*
X240747857Y-82039285D02*
X239947857Y-82039285D01*
X239547857Y-82039285D02*
X239605000Y-81982142D01*
X239662142Y-82039285D01*
X239605000Y-82096428D01*
X239547857Y-82039285D01*
X239662142Y-82039285D01*
X240690714Y-83067857D02*
X240747857Y-82953571D01*
X240747857Y-82725000D01*
X240690714Y-82610714D01*
X240576428Y-82553571D01*
X240119285Y-82553571D01*
X240005000Y-82610714D01*
X239947857Y-82725000D01*
X239947857Y-82953571D01*
X240005000Y-83067857D01*
X240119285Y-83125000D01*
X240233571Y-83125000D01*
X240347857Y-82553571D01*
X240690714Y-83582142D02*
X240747857Y-83696428D01*
X240747857Y-83925000D01*
X240690714Y-84039285D01*
X240576428Y-84096428D01*
X240519285Y-84096428D01*
X240405000Y-84039285D01*
X240347857Y-83925000D01*
X240347857Y-83753571D01*
X240290714Y-83639285D01*
X240176428Y-83582142D01*
X240119285Y-83582142D01*
X240005000Y-83639285D01*
X239947857Y-83753571D01*
X239947857Y-83925000D01*
X240005000Y-84039285D01*
X242747857Y-24325000D02*
X241547857Y-24325000D01*
X242690714Y-24325000D02*
X242747857Y-24210714D01*
X242747857Y-23982142D01*
X242690714Y-23867857D01*
X242633571Y-23810714D01*
X242519285Y-23753571D01*
X242176428Y-23753571D01*
X242062142Y-23810714D01*
X242005000Y-23867857D01*
X241947857Y-23982142D01*
X241947857Y-24210714D01*
X242005000Y-24325000D01*
X242690714Y-25353571D02*
X242747857Y-25239285D01*
X242747857Y-25010714D01*
X242690714Y-24896428D01*
X242576428Y-24839285D01*
X242119285Y-24839285D01*
X242005000Y-24896428D01*
X241947857Y-25010714D01*
X241947857Y-25239285D01*
X242005000Y-25353571D01*
X242119285Y-25410714D01*
X242233571Y-25410714D01*
X242347857Y-24839285D01*
X241947857Y-25925000D02*
X243147857Y-25925000D01*
X242005000Y-25925000D02*
X241947857Y-26039285D01*
X241947857Y-26267857D01*
X242005000Y-26382142D01*
X242062142Y-26439285D01*
X242176428Y-26496428D01*
X242519285Y-26496428D01*
X242633571Y-26439285D01*
X242690714Y-26382142D01*
X242747857Y-26267857D01*
X242747857Y-26039285D01*
X242690714Y-25925000D01*
X242690714Y-27467857D02*
X242747857Y-27353571D01*
X242747857Y-27125000D01*
X242690714Y-27010714D01*
X242576428Y-26953571D01*
X242119285Y-26953571D01*
X242005000Y-27010714D01*
X241947857Y-27125000D01*
X241947857Y-27353571D01*
X242005000Y-27467857D01*
X242119285Y-27525000D01*
X242233571Y-27525000D01*
X242347857Y-26953571D01*
X241947857Y-28039285D02*
X242747857Y-28039285D01*
X242062142Y-28039285D02*
X242005000Y-28096428D01*
X241947857Y-28210714D01*
X241947857Y-28382142D01*
X242005000Y-28496428D01*
X242119285Y-28553571D01*
X242747857Y-28553571D01*
X242747857Y-29639285D02*
X241547857Y-29639285D01*
X242690714Y-29639285D02*
X242747857Y-29525000D01*
X242747857Y-29296428D01*
X242690714Y-29182142D01*
X242633571Y-29125000D01*
X242519285Y-29067857D01*
X242176428Y-29067857D01*
X242062142Y-29125000D01*
X242005000Y-29182142D01*
X241947857Y-29296428D01*
X241947857Y-29525000D01*
X242005000Y-29639285D01*
X242747857Y-30210714D02*
X241947857Y-30210714D01*
X241547857Y-30210714D02*
X241605000Y-30153571D01*
X241662142Y-30210714D01*
X241605000Y-30267857D01*
X241547857Y-30210714D01*
X241662142Y-30210714D01*
X241947857Y-30782142D02*
X242747857Y-30782142D01*
X242062142Y-30782142D02*
X242005000Y-30839285D01*
X241947857Y-30953571D01*
X241947857Y-31125000D01*
X242005000Y-31239285D01*
X242119285Y-31296428D01*
X242747857Y-31296428D01*
X241947857Y-32382142D02*
X242919285Y-32382142D01*
X243033571Y-32325000D01*
X243090714Y-32267857D01*
X243147857Y-32153571D01*
X243147857Y-31982142D01*
X243090714Y-31867857D01*
X242690714Y-32382142D02*
X242747857Y-32267857D01*
X242747857Y-32039285D01*
X242690714Y-31925000D01*
X242633571Y-31867857D01*
X242519285Y-31810714D01*
X242176428Y-31810714D01*
X242062142Y-31867857D01*
X242005000Y-31925000D01*
X241947857Y-32039285D01*
X241947857Y-32267857D01*
X242005000Y-32382142D01*
X242747857Y-34039285D02*
X242690714Y-33925000D01*
X242633571Y-33867857D01*
X242519285Y-33810714D01*
X242176428Y-33810714D01*
X242062142Y-33867857D01*
X242005000Y-33925000D01*
X241947857Y-34039285D01*
X241947857Y-34210714D01*
X242005000Y-34325000D01*
X242062142Y-34382142D01*
X242176428Y-34439285D01*
X242519285Y-34439285D01*
X242633571Y-34382142D01*
X242690714Y-34325000D01*
X242747857Y-34210714D01*
X242747857Y-34039285D01*
X241947857Y-34953571D02*
X242747857Y-34953571D01*
X242062142Y-34953571D02*
X242005000Y-35010714D01*
X241947857Y-35125000D01*
X241947857Y-35296428D01*
X242005000Y-35410714D01*
X242119285Y-35467857D01*
X242747857Y-35467857D01*
X242747857Y-36953571D02*
X241947857Y-36953571D01*
X242062142Y-36953571D02*
X242005000Y-37010714D01*
X241947857Y-37125000D01*
X241947857Y-37296428D01*
X242005000Y-37410714D01*
X242119285Y-37467857D01*
X242747857Y-37467857D01*
X242119285Y-37467857D02*
X242005000Y-37525000D01*
X241947857Y-37639285D01*
X241947857Y-37810714D01*
X242005000Y-37925000D01*
X242119285Y-37982142D01*
X242747857Y-37982142D01*
X242747857Y-38725000D02*
X242690714Y-38610714D01*
X242633571Y-38553571D01*
X242519285Y-38496428D01*
X242176428Y-38496428D01*
X242062142Y-38553571D01*
X242005000Y-38610714D01*
X241947857Y-38725000D01*
X241947857Y-38896428D01*
X242005000Y-39010714D01*
X242062142Y-39067857D01*
X242176428Y-39125000D01*
X242519285Y-39125000D01*
X242633571Y-39067857D01*
X242690714Y-39010714D01*
X242747857Y-38896428D01*
X242747857Y-38725000D01*
X242747857Y-40153571D02*
X241547857Y-40153571D01*
X242690714Y-40153571D02*
X242747857Y-40039285D01*
X242747857Y-39810714D01*
X242690714Y-39696428D01*
X242633571Y-39639285D01*
X242519285Y-39582142D01*
X242176428Y-39582142D01*
X242062142Y-39639285D01*
X242005000Y-39696428D01*
X241947857Y-39810714D01*
X241947857Y-40039285D01*
X242005000Y-40153571D01*
X241947857Y-41239285D02*
X242747857Y-41239285D01*
X241947857Y-40725000D02*
X242576428Y-40725000D01*
X242690714Y-40782142D01*
X242747857Y-40896428D01*
X242747857Y-41067857D01*
X242690714Y-41182142D01*
X242633571Y-41239285D01*
X242747857Y-41982142D02*
X242690714Y-41867857D01*
X242576428Y-41810714D01*
X241547857Y-41810714D01*
X242690714Y-42896428D02*
X242747857Y-42782142D01*
X242747857Y-42553571D01*
X242690714Y-42439285D01*
X242576428Y-42382142D01*
X242119285Y-42382142D01*
X242005000Y-42439285D01*
X241947857Y-42553571D01*
X241947857Y-42782142D01*
X242005000Y-42896428D01*
X242119285Y-42953571D01*
X242233571Y-42953571D01*
X242347857Y-42382142D01*
X242690714Y-43410714D02*
X242747857Y-43525000D01*
X242747857Y-43753571D01*
X242690714Y-43867857D01*
X242576428Y-43925000D01*
X242519285Y-43925000D01*
X242405000Y-43867857D01*
X242347857Y-43753571D01*
X242347857Y-43582142D01*
X242290714Y-43467857D01*
X242176428Y-43410714D01*
X242119285Y-43410714D01*
X242005000Y-43467857D01*
X241947857Y-43582142D01*
X241947857Y-43753571D01*
X242005000Y-43867857D01*
X241947857Y-45182142D02*
X241947857Y-45639285D01*
X242747857Y-45353571D02*
X241719285Y-45353571D01*
X241605000Y-45410714D01*
X241547857Y-45525000D01*
X241547857Y-45639285D01*
X242747857Y-46039285D02*
X241947857Y-46039285D01*
X241547857Y-46039285D02*
X241605000Y-45982142D01*
X241662142Y-46039285D01*
X241605000Y-46096428D01*
X241547857Y-46039285D01*
X241662142Y-46039285D01*
X241947857Y-46439285D02*
X241947857Y-46896428D01*
X241547857Y-46610714D02*
X242576428Y-46610714D01*
X242690714Y-46667857D01*
X242747857Y-46782142D01*
X242747857Y-46896428D01*
X241947857Y-47125000D02*
X241947857Y-47582142D01*
X241547857Y-47296428D02*
X242576428Y-47296428D01*
X242690714Y-47353571D01*
X242747857Y-47467857D01*
X242747857Y-47582142D01*
X242690714Y-48439285D02*
X242747857Y-48325000D01*
X242747857Y-48096428D01*
X242690714Y-47982142D01*
X242576428Y-47925000D01*
X242119285Y-47925000D01*
X242005000Y-47982142D01*
X241947857Y-48096428D01*
X241947857Y-48325000D01*
X242005000Y-48439285D01*
X242119285Y-48496428D01*
X242233571Y-48496428D01*
X242347857Y-47925000D01*
X242747857Y-49525000D02*
X241547857Y-49525000D01*
X242690714Y-49525000D02*
X242747857Y-49410714D01*
X242747857Y-49182142D01*
X242690714Y-49067857D01*
X242633571Y-49010714D01*
X242519285Y-48953571D01*
X242176428Y-48953571D01*
X242062142Y-49010714D01*
X242005000Y-49067857D01*
X241947857Y-49182142D01*
X241947857Y-49410714D01*
X242005000Y-49525000D01*
X242633571Y-50096428D02*
X242690714Y-50153571D01*
X242747857Y-50096428D01*
X242690714Y-50039285D01*
X242633571Y-50096428D01*
X242747857Y-50096428D01*
X241547857Y-51410714D02*
X241547857Y-52096428D01*
X242747857Y-51753571D02*
X241547857Y-51753571D01*
X241947857Y-52382142D02*
X242747857Y-52667857D01*
X241947857Y-52953571D02*
X242747857Y-52667857D01*
X243033571Y-52553571D01*
X243090714Y-52496428D01*
X243147857Y-52382142D01*
X241947857Y-53410714D02*
X243147857Y-53410714D01*
X242005000Y-53410714D02*
X241947857Y-53525000D01*
X241947857Y-53753571D01*
X242005000Y-53867857D01*
X242062142Y-53925000D01*
X242176428Y-53982142D01*
X242519285Y-53982142D01*
X242633571Y-53925000D01*
X242690714Y-53867857D01*
X242747857Y-53753571D01*
X242747857Y-53525000D01*
X242690714Y-53410714D01*
X242747857Y-54496428D02*
X241947857Y-54496428D01*
X241547857Y-54496428D02*
X241605000Y-54439285D01*
X241662142Y-54496428D01*
X241605000Y-54553571D01*
X241547857Y-54496428D01*
X241662142Y-54496428D01*
X242690714Y-55582142D02*
X242747857Y-55467857D01*
X242747857Y-55239285D01*
X242690714Y-55125000D01*
X242633571Y-55067857D01*
X242519285Y-55010714D01*
X242176428Y-55010714D01*
X242062142Y-55067857D01*
X242005000Y-55125000D01*
X241947857Y-55239285D01*
X241947857Y-55467857D01*
X242005000Y-55582142D01*
X242747857Y-56610714D02*
X242119285Y-56610714D01*
X242005000Y-56553571D01*
X241947857Y-56439285D01*
X241947857Y-56210714D01*
X242005000Y-56096428D01*
X242690714Y-56610714D02*
X242747857Y-56496428D01*
X242747857Y-56210714D01*
X242690714Y-56096428D01*
X242576428Y-56039285D01*
X242462142Y-56039285D01*
X242347857Y-56096428D01*
X242290714Y-56210714D01*
X242290714Y-56496428D01*
X242233571Y-56610714D01*
X242747857Y-57353571D02*
X242690714Y-57239285D01*
X242576428Y-57182142D01*
X241547857Y-57182142D01*
X241947857Y-58725000D02*
X243147857Y-58725000D01*
X242005000Y-58725000D02*
X241947857Y-58839285D01*
X241947857Y-59067857D01*
X242005000Y-59182142D01*
X242062142Y-59239285D01*
X242176428Y-59296428D01*
X242519285Y-59296428D01*
X242633571Y-59239285D01*
X242690714Y-59182142D01*
X242747857Y-59067857D01*
X242747857Y-58839285D01*
X242690714Y-58725000D01*
X242747857Y-59982142D02*
X242690714Y-59867857D01*
X242633571Y-59810714D01*
X242519285Y-59753571D01*
X242176428Y-59753571D01*
X242062142Y-59810714D01*
X242005000Y-59867857D01*
X241947857Y-59982142D01*
X241947857Y-60153571D01*
X242005000Y-60267857D01*
X242062142Y-60325000D01*
X242176428Y-60382142D01*
X242519285Y-60382142D01*
X242633571Y-60325000D01*
X242690714Y-60267857D01*
X242747857Y-60153571D01*
X242747857Y-59982142D01*
X241947857Y-60782142D02*
X242747857Y-61010714D01*
X242176428Y-61239285D01*
X242747857Y-61467857D01*
X241947857Y-61696428D01*
X242690714Y-62610714D02*
X242747857Y-62496428D01*
X242747857Y-62267857D01*
X242690714Y-62153571D01*
X242576428Y-62096428D01*
X242119285Y-62096428D01*
X242005000Y-62153571D01*
X241947857Y-62267857D01*
X241947857Y-62496428D01*
X242005000Y-62610714D01*
X242119285Y-62667857D01*
X242233571Y-62667857D01*
X242347857Y-62096428D01*
X242747857Y-63182142D02*
X241947857Y-63182142D01*
X242176428Y-63182142D02*
X242062142Y-63239285D01*
X242005000Y-63296428D01*
X241947857Y-63410714D01*
X241947857Y-63525000D01*
X242690714Y-65353571D02*
X242747857Y-65239285D01*
X242747857Y-65010714D01*
X242690714Y-64896428D01*
X242633571Y-64839285D01*
X242519285Y-64782142D01*
X242176428Y-64782142D01*
X242062142Y-64839285D01*
X242005000Y-64896428D01*
X241947857Y-65010714D01*
X241947857Y-65239285D01*
X242005000Y-65353571D01*
X242747857Y-66039285D02*
X242690714Y-65925000D01*
X242633571Y-65867857D01*
X242519285Y-65810714D01*
X242176428Y-65810714D01*
X242062142Y-65867857D01*
X242005000Y-65925000D01*
X241947857Y-66039285D01*
X241947857Y-66210714D01*
X242005000Y-66325000D01*
X242062142Y-66382142D01*
X242176428Y-66439285D01*
X242519285Y-66439285D01*
X242633571Y-66382142D01*
X242690714Y-66325000D01*
X242747857Y-66210714D01*
X242747857Y-66039285D01*
X241947857Y-66953571D02*
X242747857Y-66953571D01*
X242062142Y-66953571D02*
X242005000Y-67010714D01*
X241947857Y-67125000D01*
X241947857Y-67296428D01*
X242005000Y-67410714D01*
X242119285Y-67467857D01*
X242747857Y-67467857D01*
X242690714Y-67982142D02*
X242747857Y-68096428D01*
X242747857Y-68325000D01*
X242690714Y-68439285D01*
X242576428Y-68496428D01*
X242519285Y-68496428D01*
X242405000Y-68439285D01*
X242347857Y-68325000D01*
X242347857Y-68153571D01*
X242290714Y-68039285D01*
X242176428Y-67982142D01*
X242119285Y-67982142D01*
X242005000Y-68039285D01*
X241947857Y-68153571D01*
X241947857Y-68325000D01*
X242005000Y-68439285D01*
X241947857Y-69525000D02*
X242747857Y-69525000D01*
X241947857Y-69010714D02*
X242576428Y-69010714D01*
X242690714Y-69067857D01*
X242747857Y-69182142D01*
X242747857Y-69353571D01*
X242690714Y-69467857D01*
X242633571Y-69525000D01*
X242747857Y-70096428D02*
X241947857Y-70096428D01*
X242062142Y-70096428D02*
X242005000Y-70153571D01*
X241947857Y-70267857D01*
X241947857Y-70439285D01*
X242005000Y-70553571D01*
X242119285Y-70610714D01*
X242747857Y-70610714D01*
X242119285Y-70610714D02*
X242005000Y-70667857D01*
X241947857Y-70782142D01*
X241947857Y-70953571D01*
X242005000Y-71067857D01*
X242119285Y-71125000D01*
X242747857Y-71125000D01*
X241947857Y-71696428D02*
X243147857Y-71696428D01*
X242005000Y-71696428D02*
X241947857Y-71810714D01*
X241947857Y-72039285D01*
X242005000Y-72153571D01*
X242062142Y-72210714D01*
X242176428Y-72267857D01*
X242519285Y-72267857D01*
X242633571Y-72210714D01*
X242690714Y-72153571D01*
X242747857Y-72039285D01*
X242747857Y-71810714D01*
X242690714Y-71696428D01*
X241947857Y-72610714D02*
X241947857Y-73067857D01*
X241547857Y-72782142D02*
X242576428Y-72782142D01*
X242690714Y-72839285D01*
X242747857Y-72953571D01*
X242747857Y-73067857D01*
X242747857Y-73467857D02*
X241947857Y-73467857D01*
X241547857Y-73467857D02*
X241605000Y-73410714D01*
X241662142Y-73467857D01*
X241605000Y-73525000D01*
X241547857Y-73467857D01*
X241662142Y-73467857D01*
X242747857Y-74210714D02*
X242690714Y-74096428D01*
X242633571Y-74039285D01*
X242519285Y-73982142D01*
X242176428Y-73982142D01*
X242062142Y-74039285D01*
X242005000Y-74096428D01*
X241947857Y-74210714D01*
X241947857Y-74382142D01*
X242005000Y-74496428D01*
X242062142Y-74553571D01*
X242176428Y-74610714D01*
X242519285Y-74610714D01*
X242633571Y-74553571D01*
X242690714Y-74496428D01*
X242747857Y-74382142D01*
X242747857Y-74210714D01*
X241947857Y-75125000D02*
X242747857Y-75125000D01*
X242062142Y-75125000D02*
X242005000Y-75182142D01*
X241947857Y-75296428D01*
X241947857Y-75467857D01*
X242005000Y-75582142D01*
X242119285Y-75639285D01*
X242747857Y-75639285D01*
X242633571Y-76210714D02*
X242690714Y-76267857D01*
X242747857Y-76210714D01*
X242690714Y-76153571D01*
X242633571Y-76210714D01*
X242747857Y-76210714D01*
X242005000Y-76210714D02*
X242062142Y-76267857D01*
X242119285Y-76210714D01*
X242062142Y-76153571D01*
X242005000Y-76210714D01*
X242119285Y-76210714D01*
X241547857Y-77525000D02*
X241547857Y-78210714D01*
X242747857Y-77867857D02*
X241547857Y-77867857D01*
X242119285Y-79010714D02*
X242176428Y-79182142D01*
X242233571Y-79239285D01*
X242347857Y-79296428D01*
X242519285Y-79296428D01*
X242633571Y-79239285D01*
X242690714Y-79182142D01*
X242747857Y-79067857D01*
X242747857Y-78610714D01*
X241547857Y-78610714D01*
X241547857Y-79010714D01*
X241605000Y-79125000D01*
X241662142Y-79182142D01*
X241776428Y-79239285D01*
X241890714Y-79239285D01*
X242005000Y-79182142D01*
X242062142Y-79125000D01*
X242119285Y-79010714D01*
X242119285Y-78610714D01*
X242405000Y-79753571D02*
X242405000Y-80325000D01*
X242747857Y-79639285D02*
X241547857Y-80039285D01*
X242747857Y-80439285D01*
X242747857Y-81753571D02*
X241547857Y-81753571D01*
X242005000Y-81753571D02*
X241947857Y-81867857D01*
X241947857Y-82096428D01*
X242005000Y-82210714D01*
X242062142Y-82267857D01*
X242176428Y-82324999D01*
X242519285Y-82324999D01*
X242633571Y-82267857D01*
X242690714Y-82210714D01*
X242747857Y-82096428D01*
X242747857Y-81867857D01*
X242690714Y-81753571D01*
X241947857Y-83353571D02*
X242747857Y-83353571D01*
X241947857Y-82839285D02*
X242576428Y-82839285D01*
X242690714Y-82896428D01*
X242747857Y-83010714D01*
X242747857Y-83182142D01*
X242690714Y-83296428D01*
X242633571Y-83353571D01*
X241947857Y-83753571D02*
X241947857Y-84210714D01*
X241547857Y-83924999D02*
X242576428Y-83924999D01*
X242690714Y-83982142D01*
X242747857Y-84096428D01*
X242747857Y-84210714D01*
X243947857Y-63410714D02*
X245147857Y-63410714D01*
X244005000Y-63410714D02*
X243947857Y-63525000D01*
X243947857Y-63753571D01*
X244005000Y-63867857D01*
X244062142Y-63925000D01*
X244176428Y-63982142D01*
X244519285Y-63982142D01*
X244633571Y-63925000D01*
X244690714Y-63867857D01*
X244747857Y-63753571D01*
X244747857Y-63525000D01*
X244690714Y-63410714D01*
X244747857Y-64496428D02*
X243947857Y-64496428D01*
X244176428Y-64496428D02*
X244062142Y-64553571D01*
X244005000Y-64610714D01*
X243947857Y-64725000D01*
X243947857Y-64839285D01*
X244747857Y-65410714D02*
X244690714Y-65296428D01*
X244633571Y-65239285D01*
X244519285Y-65182142D01*
X244176428Y-65182142D01*
X244062142Y-65239285D01*
X244005000Y-65296428D01*
X243947857Y-65410714D01*
X243947857Y-65582142D01*
X244005000Y-65696428D01*
X244062142Y-65753571D01*
X244176428Y-65810714D01*
X244519285Y-65810714D01*
X244633571Y-65753571D01*
X244690714Y-65696428D01*
X244747857Y-65582142D01*
X244747857Y-65410714D01*
X244747857Y-66325000D02*
X243547857Y-66325000D01*
X244005000Y-66325000D02*
X243947857Y-66439285D01*
X243947857Y-66667857D01*
X244005000Y-66782142D01*
X244062142Y-66839285D01*
X244176428Y-66896428D01*
X244519285Y-66896428D01*
X244633571Y-66839285D01*
X244690714Y-66782142D01*
X244747857Y-66667857D01*
X244747857Y-66439285D01*
X244690714Y-66325000D01*
X244747857Y-67925000D02*
X244119285Y-67925000D01*
X244005000Y-67867857D01*
X243947857Y-67753571D01*
X243947857Y-67525000D01*
X244005000Y-67410714D01*
X244690714Y-67925000D02*
X244747857Y-67810714D01*
X244747857Y-67525000D01*
X244690714Y-67410714D01*
X244576428Y-67353571D01*
X244462142Y-67353571D01*
X244347857Y-67410714D01*
X244290714Y-67525000D01*
X244290714Y-67810714D01*
X244233571Y-67925000D01*
X244747857Y-68496428D02*
X243547857Y-68496428D01*
X244005000Y-68496428D02*
X243947857Y-68610714D01*
X243947857Y-68839285D01*
X244005000Y-68953571D01*
X244062142Y-69010714D01*
X244176428Y-69067857D01*
X244519285Y-69067857D01*
X244633571Y-69010714D01*
X244690714Y-68953571D01*
X244747857Y-68839285D01*
X244747857Y-68610714D01*
X244690714Y-68496428D01*
X244747857Y-69753571D02*
X244690714Y-69639285D01*
X244576428Y-69582142D01*
X243547857Y-69582142D01*
X243947857Y-70096428D02*
X244747857Y-70382142D01*
X243947857Y-70667857D02*
X244747857Y-70382142D01*
X245033571Y-70267857D01*
X245090714Y-70210714D01*
X245147857Y-70096428D01*
X244747857Y-72553571D02*
X244119285Y-72553571D01*
X244005000Y-72496428D01*
X243947857Y-72382142D01*
X243947857Y-72153571D01*
X244005000Y-72039285D01*
X244690714Y-72553571D02*
X244747857Y-72439285D01*
X244747857Y-72153571D01*
X244690714Y-72039285D01*
X244576428Y-71982142D01*
X244462142Y-71982142D01*
X244347857Y-72039285D01*
X244290714Y-72153571D01*
X244290714Y-72439285D01*
X244233571Y-72553571D01*
X244747857Y-73125000D02*
X243547857Y-73125000D01*
X244005000Y-73125000D02*
X243947857Y-73239285D01*
X243947857Y-73467857D01*
X244005000Y-73582142D01*
X244062142Y-73639285D01*
X244176428Y-73696428D01*
X244519285Y-73696428D01*
X244633571Y-73639285D01*
X244690714Y-73582142D01*
X244747857Y-73467857D01*
X244747857Y-73239285D01*
X244690714Y-73125000D01*
X244747857Y-74382142D02*
X244690714Y-74267857D01*
X244633571Y-74210714D01*
X244519285Y-74153571D01*
X244176428Y-74153571D01*
X244062142Y-74210714D01*
X244005000Y-74267857D01*
X243947857Y-74382142D01*
X243947857Y-74553571D01*
X244005000Y-74667857D01*
X244062142Y-74725000D01*
X244176428Y-74782142D01*
X244519285Y-74782142D01*
X244633571Y-74725000D01*
X244690714Y-74667857D01*
X244747857Y-74553571D01*
X244747857Y-74382142D01*
X243947857Y-75810714D02*
X244747857Y-75810714D01*
X243947857Y-75296428D02*
X244576428Y-75296428D01*
X244690714Y-75353571D01*
X244747857Y-75467857D01*
X244747857Y-75639285D01*
X244690714Y-75753571D01*
X244633571Y-75810714D01*
X243947857Y-76210714D02*
X243947857Y-76667857D01*
X243547857Y-76382142D02*
X244576428Y-76382142D01*
X244690714Y-76439285D01*
X244747857Y-76553571D01*
X244747857Y-76667857D01*
X243547857Y-78496428D02*
X243547857Y-78267857D01*
X243605000Y-78153571D01*
X243662142Y-78096428D01*
X243833571Y-77982142D01*
X244062142Y-77925000D01*
X244519285Y-77925000D01*
X244633571Y-77982142D01*
X244690714Y-78039285D01*
X244747857Y-78153571D01*
X244747857Y-78382142D01*
X244690714Y-78496428D01*
X244633571Y-78553571D01*
X244519285Y-78610714D01*
X244233571Y-78610714D01*
X244119285Y-78553571D01*
X244062142Y-78496428D01*
X244005000Y-78382142D01*
X244005000Y-78153571D01*
X244062142Y-78039285D01*
X244119285Y-77982142D01*
X244233571Y-77925000D01*
X243547857Y-79353571D02*
X243547857Y-79467857D01*
X243605000Y-79582142D01*
X243662142Y-79639285D01*
X243776428Y-79696428D01*
X244005000Y-79753571D01*
X244290714Y-79753571D01*
X244519285Y-79696428D01*
X244633571Y-79639285D01*
X244690714Y-79582142D01*
X244747857Y-79467857D01*
X244747857Y-79353571D01*
X244690714Y-79239285D01*
X244633571Y-79182142D01*
X244519285Y-79125000D01*
X244290714Y-79067857D01*
X244005000Y-79067857D01*
X243776428Y-79125000D01*
X243662142Y-79182142D01*
X243605000Y-79239285D01*
X243547857Y-79353571D01*
X243547857Y-80496428D02*
X243547857Y-80610714D01*
X243605000Y-80725000D01*
X243662142Y-80782142D01*
X243776428Y-80839285D01*
X244005000Y-80896428D01*
X244290714Y-80896428D01*
X244519285Y-80839285D01*
X244633571Y-80782142D01*
X244690714Y-80725000D01*
X244747857Y-80610714D01*
X244747857Y-80496428D01*
X244690714Y-80382142D01*
X244633571Y-80325000D01*
X244519285Y-80267857D01*
X244290714Y-80210714D01*
X244005000Y-80210714D01*
X243776428Y-80267857D01*
X243662142Y-80325000D01*
X243605000Y-80382142D01*
X243547857Y-80496428D01*
X244747857Y-81410714D02*
X243947857Y-81410714D01*
X244062142Y-81410714D02*
X244005000Y-81467857D01*
X243947857Y-81582142D01*
X243947857Y-81753571D01*
X244005000Y-81867857D01*
X244119285Y-81925000D01*
X244747857Y-81925000D01*
X244119285Y-81925000D02*
X244005000Y-81982142D01*
X243947857Y-82096428D01*
X243947857Y-82267857D01*
X244005000Y-82382142D01*
X244119285Y-82439285D01*
X244747857Y-82439285D01*
X244405000Y-82953571D02*
X244405000Y-83525000D01*
X244747857Y-82839285D02*
X243547857Y-83239285D01*
X244747857Y-83639285D01*
X244633571Y-84039285D02*
X244690714Y-84096428D01*
X244747857Y-84039285D01*
X244690714Y-83982142D01*
X244633571Y-84039285D01*
X244747857Y-84039285D01*
X246747857Y-35010714D02*
X245547857Y-35010714D01*
X246405000Y-35410714D01*
X245547857Y-35810714D01*
X246747857Y-35810714D01*
X246747857Y-36896428D02*
X246119285Y-36896428D01*
X246005000Y-36839285D01*
X245947857Y-36725000D01*
X245947857Y-36496428D01*
X246005000Y-36382142D01*
X246690714Y-36896428D02*
X246747857Y-36782142D01*
X246747857Y-36496428D01*
X246690714Y-36382142D01*
X246576428Y-36325000D01*
X246462142Y-36325000D01*
X246347857Y-36382142D01*
X246290714Y-36496428D01*
X246290714Y-36782142D01*
X246233571Y-36896428D01*
X246747857Y-37353571D02*
X245947857Y-37982142D01*
X245947857Y-37353571D02*
X246747857Y-37982142D01*
X245947857Y-39353571D02*
X247147857Y-39353571D01*
X246005000Y-39353571D02*
X245947857Y-39467857D01*
X245947857Y-39696428D01*
X246005000Y-39810714D01*
X246062142Y-39867857D01*
X246176428Y-39925000D01*
X246519285Y-39925000D01*
X246633571Y-39867857D01*
X246690714Y-39810714D01*
X246747857Y-39696428D01*
X246747857Y-39467857D01*
X246690714Y-39353571D01*
X246747857Y-40610714D02*
X246690714Y-40496428D01*
X246633571Y-40439285D01*
X246519285Y-40382142D01*
X246176428Y-40382142D01*
X246062142Y-40439285D01*
X246005000Y-40496428D01*
X245947857Y-40610714D01*
X245947857Y-40782142D01*
X246005000Y-40896428D01*
X246062142Y-40953571D01*
X246176428Y-41010714D01*
X246519285Y-41010714D01*
X246633571Y-40953571D01*
X246690714Y-40896428D01*
X246747857Y-40782142D01*
X246747857Y-40610714D01*
X245947857Y-41410714D02*
X246747857Y-41639285D01*
X246176428Y-41867857D01*
X246747857Y-42096428D01*
X245947857Y-42325000D01*
X246690714Y-43239285D02*
X246747857Y-43125000D01*
X246747857Y-42896428D01*
X246690714Y-42782142D01*
X246576428Y-42725000D01*
X246119285Y-42725000D01*
X246005000Y-42782142D01*
X245947857Y-42896428D01*
X245947857Y-43125000D01*
X246005000Y-43239285D01*
X246119285Y-43296428D01*
X246233571Y-43296428D01*
X246347857Y-42725000D01*
X246747857Y-43810714D02*
X245947857Y-43810714D01*
X246176428Y-43810714D02*
X246062142Y-43867857D01*
X246005000Y-43925000D01*
X245947857Y-44039285D01*
X245947857Y-44153571D01*
X246747857Y-45982142D02*
X245547857Y-45982142D01*
X246690714Y-45982142D02*
X246747857Y-45867857D01*
X246747857Y-45639285D01*
X246690714Y-45525000D01*
X246633571Y-45467857D01*
X246519285Y-45410714D01*
X246176428Y-45410714D01*
X246062142Y-45467857D01*
X246005000Y-45525000D01*
X245947857Y-45639285D01*
X245947857Y-45867857D01*
X246005000Y-45982142D01*
X246747857Y-46553571D02*
X245947857Y-46553571D01*
X246176428Y-46553571D02*
X246062142Y-46610714D01*
X246005000Y-46667857D01*
X245947857Y-46782142D01*
X245947857Y-46896428D01*
X246747857Y-47810714D02*
X246119285Y-47810714D01*
X246005000Y-47753571D01*
X245947857Y-47639285D01*
X245947857Y-47410714D01*
X246005000Y-47296428D01*
X246690714Y-47810714D02*
X246747857Y-47696428D01*
X246747857Y-47410714D01*
X246690714Y-47296428D01*
X246576428Y-47239285D01*
X246462142Y-47239285D01*
X246347857Y-47296428D01*
X246290714Y-47410714D01*
X246290714Y-47696428D01*
X246233571Y-47810714D01*
X245947857Y-48267857D02*
X246747857Y-48496428D01*
X246176428Y-48725000D01*
X246747857Y-48953571D01*
X245947857Y-49182142D01*
X245947857Y-50382142D02*
X245947857Y-50839285D01*
X245547857Y-50553571D02*
X246576428Y-50553571D01*
X246690714Y-50610714D01*
X246747857Y-50725000D01*
X246747857Y-50839285D01*
X246747857Y-51239285D02*
X245547857Y-51239285D01*
X246747857Y-51753571D02*
X246119285Y-51753571D01*
X246005000Y-51696428D01*
X245947857Y-51582142D01*
X245947857Y-51410714D01*
X246005000Y-51296428D01*
X246062142Y-51239285D01*
X246747857Y-52325000D02*
X245947857Y-52325000D01*
X246176428Y-52325000D02*
X246062142Y-52382142D01*
X246005000Y-52439285D01*
X245947857Y-52553571D01*
X245947857Y-52667857D01*
X246747857Y-53239285D02*
X246690714Y-53125000D01*
X246633571Y-53067857D01*
X246519285Y-53010714D01*
X246176428Y-53010714D01*
X246062142Y-53067857D01*
X246005000Y-53125000D01*
X245947857Y-53239285D01*
X245947857Y-53410714D01*
X246005000Y-53525000D01*
X246062142Y-53582142D01*
X246176428Y-53639285D01*
X246519285Y-53639285D01*
X246633571Y-53582142D01*
X246690714Y-53525000D01*
X246747857Y-53410714D01*
X246747857Y-53239285D01*
X245947857Y-54667857D02*
X246747857Y-54667857D01*
X245947857Y-54153571D02*
X246576428Y-54153571D01*
X246690714Y-54210714D01*
X246747857Y-54325000D01*
X246747857Y-54496428D01*
X246690714Y-54610714D01*
X246633571Y-54667857D01*
X245947857Y-55753571D02*
X246919285Y-55753571D01*
X247033571Y-55696428D01*
X247090714Y-55639285D01*
X247147857Y-55525000D01*
X247147857Y-55353571D01*
X247090714Y-55239285D01*
X246690714Y-55753571D02*
X246747857Y-55639285D01*
X246747857Y-55410714D01*
X246690714Y-55296428D01*
X246633571Y-55239285D01*
X246519285Y-55182142D01*
X246176428Y-55182142D01*
X246062142Y-55239285D01*
X246005000Y-55296428D01*
X245947857Y-55410714D01*
X245947857Y-55639285D01*
X246005000Y-55753571D01*
X246747857Y-56325000D02*
X245547857Y-56325000D01*
X246747857Y-56839285D02*
X246119285Y-56839285D01*
X246005000Y-56782142D01*
X245947857Y-56667857D01*
X245947857Y-56496428D01*
X246005000Y-56382142D01*
X246062142Y-56325000D01*
X246690714Y-58782142D02*
X246747857Y-58667857D01*
X246747857Y-58439285D01*
X246690714Y-58325000D01*
X246576428Y-58267857D01*
X246119285Y-58267857D01*
X246005000Y-58325000D01*
X245947857Y-58439285D01*
X245947857Y-58667857D01*
X246005000Y-58782142D01*
X246119285Y-58839285D01*
X246233571Y-58839285D01*
X246347857Y-58267857D01*
X246747857Y-59239285D02*
X245947857Y-59867857D01*
X245947857Y-59239285D02*
X246747857Y-59867857D01*
X245947857Y-60325000D02*
X247147857Y-60325000D01*
X246005000Y-60325000D02*
X245947857Y-60439285D01*
X245947857Y-60667857D01*
X246005000Y-60782142D01*
X246062142Y-60839285D01*
X246176428Y-60896428D01*
X246519285Y-60896428D01*
X246633571Y-60839285D01*
X246690714Y-60782142D01*
X246747857Y-60667857D01*
X246747857Y-60439285D01*
X246690714Y-60325000D01*
X246747857Y-61925000D02*
X246119285Y-61925000D01*
X246005000Y-61867857D01*
X245947857Y-61753571D01*
X245947857Y-61525000D01*
X246005000Y-61410714D01*
X246690714Y-61925000D02*
X246747857Y-61810714D01*
X246747857Y-61525000D01*
X246690714Y-61410714D01*
X246576428Y-61353571D01*
X246462142Y-61353571D01*
X246347857Y-61410714D01*
X246290714Y-61525000D01*
X246290714Y-61810714D01*
X246233571Y-61925000D01*
X245947857Y-62496428D02*
X246747857Y-62496428D01*
X246062142Y-62496428D02*
X246005000Y-62553571D01*
X245947857Y-62667857D01*
X245947857Y-62839285D01*
X246005000Y-62953571D01*
X246119285Y-63010714D01*
X246747857Y-63010714D01*
X246690714Y-63525000D02*
X246747857Y-63639285D01*
X246747857Y-63867857D01*
X246690714Y-63982142D01*
X246576428Y-64039285D01*
X246519285Y-64039285D01*
X246405000Y-63982142D01*
X246347857Y-63867857D01*
X246347857Y-63696428D01*
X246290714Y-63582142D01*
X246176428Y-63525000D01*
X246119285Y-63525000D01*
X246005000Y-63582142D01*
X245947857Y-63696428D01*
X245947857Y-63867857D01*
X246005000Y-63982142D01*
X246747857Y-64553571D02*
X245947857Y-64553571D01*
X245547857Y-64553571D02*
X245605000Y-64496428D01*
X245662142Y-64553571D01*
X245605000Y-64610714D01*
X245547857Y-64553571D01*
X245662142Y-64553571D01*
X246747857Y-65296428D02*
X246690714Y-65182142D01*
X246633571Y-65125000D01*
X246519285Y-65067857D01*
X246176428Y-65067857D01*
X246062142Y-65125000D01*
X246005000Y-65182142D01*
X245947857Y-65296428D01*
X245947857Y-65467857D01*
X246005000Y-65582142D01*
X246062142Y-65639285D01*
X246176428Y-65696428D01*
X246519285Y-65696428D01*
X246633571Y-65639285D01*
X246690714Y-65582142D01*
X246747857Y-65467857D01*
X246747857Y-65296428D01*
X245947857Y-66210714D02*
X246747857Y-66210714D01*
X246062142Y-66210714D02*
X246005000Y-66267857D01*
X245947857Y-66382142D01*
X245947857Y-66553571D01*
X246005000Y-66667857D01*
X246119285Y-66725000D01*
X246747857Y-66725000D01*
X246690714Y-68725000D02*
X246747857Y-68610714D01*
X246747857Y-68382142D01*
X246690714Y-68267857D01*
X246633571Y-68210714D01*
X246519285Y-68153571D01*
X246176428Y-68153571D01*
X246062142Y-68210714D01*
X246005000Y-68267857D01*
X245947857Y-68382142D01*
X245947857Y-68610714D01*
X246005000Y-68725000D01*
X246747857Y-69410714D02*
X246690714Y-69296428D01*
X246633571Y-69239285D01*
X246519285Y-69182142D01*
X246176428Y-69182142D01*
X246062142Y-69239285D01*
X246005000Y-69296428D01*
X245947857Y-69410714D01*
X245947857Y-69582142D01*
X246005000Y-69696428D01*
X246062142Y-69753571D01*
X246176428Y-69810714D01*
X246519285Y-69810714D01*
X246633571Y-69753571D01*
X246690714Y-69696428D01*
X246747857Y-69582142D01*
X246747857Y-69410714D01*
X245947857Y-70325000D02*
X246747857Y-70325000D01*
X246062142Y-70325000D02*
X246005000Y-70382142D01*
X245947857Y-70496428D01*
X245947857Y-70667857D01*
X246005000Y-70782142D01*
X246119285Y-70839285D01*
X246747857Y-70839285D01*
X245947857Y-71410714D02*
X246747857Y-71410714D01*
X246062142Y-71410714D02*
X246005000Y-71467857D01*
X245947857Y-71582142D01*
X245947857Y-71753571D01*
X246005000Y-71867857D01*
X246119285Y-71925000D01*
X246747857Y-71925000D01*
X246690714Y-72953571D02*
X246747857Y-72839285D01*
X246747857Y-72610714D01*
X246690714Y-72496428D01*
X246576428Y-72439285D01*
X246119285Y-72439285D01*
X246005000Y-72496428D01*
X245947857Y-72610714D01*
X245947857Y-72839285D01*
X246005000Y-72953571D01*
X246119285Y-73010714D01*
X246233571Y-73010714D01*
X246347857Y-72439285D01*
X246690714Y-74039285D02*
X246747857Y-73925000D01*
X246747857Y-73696428D01*
X246690714Y-73582142D01*
X246633571Y-73525000D01*
X246519285Y-73467857D01*
X246176428Y-73467857D01*
X246062142Y-73525000D01*
X246005000Y-73582142D01*
X245947857Y-73696428D01*
X245947857Y-73925000D01*
X246005000Y-74039285D01*
X245947857Y-74382142D02*
X245947857Y-74839285D01*
X245547857Y-74553571D02*
X246576428Y-74553571D01*
X246690714Y-74610714D01*
X246747857Y-74725000D01*
X246747857Y-74839285D01*
X246747857Y-75410714D02*
X246690714Y-75296428D01*
X246633571Y-75239285D01*
X246519285Y-75182142D01*
X246176428Y-75182142D01*
X246062142Y-75239285D01*
X246005000Y-75296428D01*
X245947857Y-75410714D01*
X245947857Y-75582142D01*
X246005000Y-75696428D01*
X246062142Y-75753571D01*
X246176428Y-75810714D01*
X246519285Y-75810714D01*
X246633571Y-75753571D01*
X246690714Y-75696428D01*
X246747857Y-75582142D01*
X246747857Y-75410714D01*
X246747857Y-76325000D02*
X245947857Y-76325000D01*
X246176428Y-76325000D02*
X246062142Y-76382142D01*
X246005000Y-76439285D01*
X245947857Y-76553571D01*
X245947857Y-76667857D01*
X246633571Y-77067857D02*
X246690714Y-77125000D01*
X246747857Y-77067857D01*
X246690714Y-77010714D01*
X246633571Y-77067857D01*
X246747857Y-77067857D01*
X246005000Y-77067857D02*
X246062142Y-77125000D01*
X246119285Y-77067857D01*
X246062142Y-77010714D01*
X246005000Y-77067857D01*
X246119285Y-77067857D01*
X245547857Y-79125000D02*
X245547857Y-78553571D01*
X246119285Y-78496428D01*
X246062142Y-78553571D01*
X246005000Y-78667857D01*
X246005000Y-78953571D01*
X246062142Y-79067857D01*
X246119285Y-79125000D01*
X246233571Y-79182142D01*
X246519285Y-79182142D01*
X246633571Y-79125000D01*
X246690714Y-79067857D01*
X246747857Y-78953571D01*
X246747857Y-78667857D01*
X246690714Y-78553571D01*
X246633571Y-78496428D01*
X245547857Y-79925000D02*
X245547857Y-80039285D01*
X245605000Y-80153571D01*
X245662142Y-80210714D01*
X245776428Y-80267857D01*
X246005000Y-80325000D01*
X246290714Y-80325000D01*
X246519285Y-80267857D01*
X246633571Y-80210714D01*
X246690714Y-80153571D01*
X246747857Y-80039285D01*
X246747857Y-79925000D01*
X246690714Y-79810714D01*
X246633571Y-79753571D01*
X246519285Y-79696428D01*
X246290714Y-79639285D01*
X246005000Y-79639285D01*
X245776428Y-79696428D01*
X245662142Y-79753571D01*
X245605000Y-79810714D01*
X245547857Y-79925000D01*
X245547857Y-81067857D02*
X245547857Y-81182142D01*
X245605000Y-81296428D01*
X245662142Y-81353571D01*
X245776428Y-81410714D01*
X246005000Y-81467857D01*
X246290714Y-81467857D01*
X246519285Y-81410714D01*
X246633571Y-81353571D01*
X246690714Y-81296428D01*
X246747857Y-81182142D01*
X246747857Y-81067857D01*
X246690714Y-80953571D01*
X246633571Y-80896428D01*
X246519285Y-80839285D01*
X246290714Y-80782142D01*
X246005000Y-80782142D01*
X245776428Y-80839285D01*
X245662142Y-80896428D01*
X245605000Y-80953571D01*
X245547857Y-81067857D01*
X246747857Y-81982142D02*
X245947857Y-81982142D01*
X246062142Y-81982142D02*
X246005000Y-82039285D01*
X245947857Y-82153571D01*
X245947857Y-82325000D01*
X246005000Y-82439285D01*
X246119285Y-82496428D01*
X246747857Y-82496428D01*
X246119285Y-82496428D02*
X246005000Y-82553571D01*
X245947857Y-82667857D01*
X245947857Y-82839285D01*
X246005000Y-82953571D01*
X246119285Y-83010714D01*
X246747857Y-83010714D01*
X246405000Y-83525000D02*
X246405000Y-84096428D01*
X246747857Y-83410714D02*
X245547857Y-83810714D01*
X246747857Y-84210714D01*
G04 #@! TO.C,J13*
D11*
X285837380Y-21415476D02*
X286551666Y-21415476D01*
X286694523Y-21367857D01*
X286789761Y-21272619D01*
X286837380Y-21129761D01*
X286837380Y-21034523D01*
X286837380Y-22415476D02*
X286837380Y-21844047D01*
X286837380Y-22129761D02*
X285837380Y-22129761D01*
X285980238Y-22034523D01*
X286075476Y-21939285D01*
X286123095Y-21844047D01*
X285837380Y-22748809D02*
X285837380Y-23367857D01*
X286218333Y-23034523D01*
X286218333Y-23177380D01*
X286265952Y-23272619D01*
X286313571Y-23320238D01*
X286408809Y-23367857D01*
X286646904Y-23367857D01*
X286742142Y-23320238D01*
X286789761Y-23272619D01*
X286837380Y-23177380D01*
X286837380Y-22891666D01*
X286789761Y-22796428D01*
X286742142Y-22748809D01*
G04 #@! TD*
M02*
