G04 #@! TF.GenerationSoftware,KiCad,Pcbnew,(5.1.12)-1*
G04 #@! TF.CreationDate,2024-01-30T17:36:33+00:00*
G04 #@! TF.ProjectId,CPU,4350552e-6b69-4636-9164-5f7063625858,rev?*
G04 #@! TF.SameCoordinates,Original*
G04 #@! TF.FileFunction,Soldermask,Top*
G04 #@! TF.FilePolarity,Negative*
%FSLAX46Y46*%
G04 Gerber Fmt 4.6, Leading zero omitted, Abs format (unit mm)*
G04 Created by KiCad (PCBNEW (5.1.12)-1) date 2024-01-30 17:36:33*
%MOMM*%
%LPD*%
G01*
G04 APERTURE LIST*
%ADD10O,1.600000X1.600000*%
%ADD11R,1.600000X1.600000*%
%ADD12C,1.600000*%
%ADD13C,1.700000*%
%ADD14C,1.800000*%
%ADD15R,1.800000X1.800000*%
%ADD16C,1.400000*%
G04 APERTURE END LIST*
D10*
X180340000Y-116205000D03*
X177800000Y-116205000D03*
X175260000Y-116205000D03*
X172720000Y-116205000D03*
X170180000Y-116205000D03*
X167640000Y-116205000D03*
X165100000Y-116205000D03*
X162560000Y-116205000D03*
D11*
X160020000Y-116205000D03*
D10*
X210820000Y-116205000D03*
X208280000Y-116205000D03*
X205740000Y-116205000D03*
X203200000Y-116205000D03*
X200660000Y-116205000D03*
X198120000Y-116205000D03*
X195580000Y-116205000D03*
X193040000Y-116205000D03*
D11*
X190500000Y-116205000D03*
D10*
X165100000Y-135255000D03*
X213360000Y-150495000D03*
X167640000Y-135255000D03*
X210820000Y-150495000D03*
X170180000Y-135255000D03*
X208280000Y-150495000D03*
X172720000Y-135255000D03*
X205740000Y-150495000D03*
X175260000Y-135255000D03*
X203200000Y-150495000D03*
X177800000Y-135255000D03*
X200660000Y-150495000D03*
X180340000Y-135255000D03*
X198120000Y-150495000D03*
X182880000Y-135255000D03*
X195580000Y-150495000D03*
X185420000Y-135255000D03*
X193040000Y-150495000D03*
X187960000Y-135255000D03*
X190500000Y-150495000D03*
X190500000Y-135255000D03*
X187960000Y-150495000D03*
X193040000Y-135255000D03*
X185420000Y-150495000D03*
X195580000Y-135255000D03*
X182880000Y-150495000D03*
X198120000Y-135255000D03*
X180340000Y-150495000D03*
X200660000Y-135255000D03*
X177800000Y-150495000D03*
X203200000Y-135255000D03*
X175260000Y-150495000D03*
X205740000Y-135255000D03*
X172720000Y-150495000D03*
X208280000Y-135255000D03*
X170180000Y-150495000D03*
X210820000Y-135255000D03*
X167640000Y-150495000D03*
X213360000Y-135255000D03*
D11*
X165100000Y-150495000D03*
D10*
X219075000Y-141605000D03*
D12*
X219075000Y-133985000D03*
D10*
X219075000Y-144145000D03*
D12*
X219075000Y-151765000D03*
D13*
X158750000Y-164465000D03*
X161290000Y-164465000D03*
X163830000Y-164465000D03*
X166370000Y-164465000D03*
X168910000Y-164465000D03*
X171450000Y-164465000D03*
X173990000Y-164465000D03*
X176530000Y-164465000D03*
X179070000Y-164465000D03*
X181610000Y-164465000D03*
X184150000Y-164465000D03*
X186690000Y-164465000D03*
X189230000Y-164465000D03*
X191770000Y-164465000D03*
X194310000Y-164465000D03*
X196850000Y-164465000D03*
X199390000Y-164465000D03*
X201930000Y-164465000D03*
X204470000Y-164465000D03*
X207010000Y-164465000D03*
X209550000Y-164465000D03*
X212090000Y-164465000D03*
X214630000Y-164465000D03*
X217170000Y-164465000D03*
X219710000Y-164465000D03*
X158750000Y-161925000D03*
X161290000Y-161925000D03*
X163830000Y-161925000D03*
X166370000Y-161925000D03*
X168910000Y-161925000D03*
X171450000Y-161925000D03*
X173990000Y-161925000D03*
X176530000Y-161925000D03*
X179070000Y-161925000D03*
X181610000Y-161925000D03*
X184150000Y-161925000D03*
X186690000Y-161925000D03*
X189230000Y-161925000D03*
X191770000Y-161925000D03*
X194310000Y-161925000D03*
X196850000Y-161925000D03*
X199390000Y-161925000D03*
X201930000Y-161925000D03*
X204470000Y-161925000D03*
X207010000Y-161925000D03*
X209550000Y-161925000D03*
X212090000Y-161925000D03*
X214630000Y-161925000D03*
X217170000Y-161925000D03*
G36*
G01*
X219110000Y-161075000D02*
X220310000Y-161075000D01*
G75*
G02*
X220560000Y-161325000I0J-250000D01*
G01*
X220560000Y-162525000D01*
G75*
G02*
X220310000Y-162775000I-250000J0D01*
G01*
X219110000Y-162775000D01*
G75*
G02*
X218860000Y-162525000I0J250000D01*
G01*
X218860000Y-161325000D01*
G75*
G02*
X219110000Y-161075000I250000J0D01*
G01*
G37*
D10*
X189230000Y-120650000D03*
X212090000Y-128270000D03*
X191770000Y-120650000D03*
X209550000Y-128270000D03*
X194310000Y-120650000D03*
X207010000Y-128270000D03*
X196850000Y-120650000D03*
X204470000Y-128270000D03*
X199390000Y-120650000D03*
X201930000Y-128270000D03*
X201930000Y-120650000D03*
X199390000Y-128270000D03*
X204470000Y-120650000D03*
X196850000Y-128270000D03*
X207010000Y-120650000D03*
X194310000Y-128270000D03*
X209550000Y-120650000D03*
X191770000Y-128270000D03*
X212090000Y-120650000D03*
D11*
X189230000Y-128270000D03*
D10*
X158750000Y-120650000D03*
X181610000Y-128270000D03*
X161290000Y-120650000D03*
X179070000Y-128270000D03*
X163830000Y-120650000D03*
X176530000Y-128270000D03*
X166370000Y-120650000D03*
X173990000Y-128270000D03*
X168910000Y-120650000D03*
X171450000Y-128270000D03*
X171450000Y-120650000D03*
X168910000Y-128270000D03*
X173990000Y-120650000D03*
X166370000Y-128270000D03*
X176530000Y-120650000D03*
X163830000Y-128270000D03*
X179070000Y-120650000D03*
X161290000Y-128270000D03*
X181610000Y-120650000D03*
D11*
X158750000Y-128270000D03*
D14*
X248200000Y-108485000D03*
D15*
X248200000Y-111025000D03*
D14*
X242200000Y-108485000D03*
D15*
X242200000Y-111025000D03*
D14*
X236200000Y-108485000D03*
D15*
X236200000Y-111025000D03*
D14*
X230200000Y-108485000D03*
D15*
X230200000Y-111025000D03*
D14*
X224200000Y-108485000D03*
D15*
X224200000Y-111025000D03*
D14*
X218200000Y-108485000D03*
D15*
X218200000Y-111025000D03*
D14*
X212200000Y-108485000D03*
D15*
X212200000Y-111025000D03*
D14*
X206200000Y-108485000D03*
D15*
X206200000Y-111025000D03*
D14*
X200200000Y-108485000D03*
D15*
X200200000Y-111025000D03*
D14*
X194200000Y-108485000D03*
D15*
X194200000Y-111025000D03*
D14*
X188200000Y-108485000D03*
D15*
X188200000Y-111025000D03*
D14*
X182200000Y-108485000D03*
D15*
X182200000Y-111025000D03*
D14*
X176200000Y-108485000D03*
D15*
X176200000Y-111025000D03*
D14*
X170200000Y-108485000D03*
D15*
X170200000Y-111025000D03*
D14*
X164200000Y-108485000D03*
D15*
X164200000Y-111025000D03*
D14*
X158200000Y-108575000D03*
D15*
X158200000Y-111115000D03*
D12*
X187865000Y-154940000D03*
D11*
X189865000Y-154940000D03*
D16*
X186055000Y-123150000D03*
X186055000Y-120650000D03*
X155575000Y-123150000D03*
X155575000Y-120650000D03*
X196175000Y-154940000D03*
X193675000Y-154940000D03*
M02*
