G04 #@! TF.GenerationSoftware,KiCad,Pcbnew,(5.1.12)-1*
G04 #@! TF.CreationDate,2024-01-30T17:36:33+00:00*
G04 #@! TF.ProjectId,CPU,4350552e-6b69-4636-9164-5f7063625858,rev?*
G04 #@! TF.SameCoordinates,Original*
G04 #@! TF.FileFunction,Legend,Top*
G04 #@! TF.FilePolarity,Positive*
%FSLAX46Y46*%
G04 Gerber Fmt 4.6, Leading zero omitted, Abs format (unit mm)*
G04 Created by KiCad (PCBNEW (5.1.12)-1) date 2024-01-30 17:36:33*
%MOMM*%
%LPD*%
G01*
G04 APERTURE LIST*
%ADD10C,0.250000*%
%ADD11C,0.150000*%
%ADD12C,0.200000*%
%ADD13C,0.120000*%
G04 APERTURE END LIST*
D10*
X247128571Y-105650000D02*
X247842857Y-105650000D01*
X246985714Y-106078571D02*
X247485714Y-104578571D01*
X247985714Y-106078571D01*
X248771428Y-104578571D02*
X248914285Y-104578571D01*
X249057142Y-104650000D01*
X249128571Y-104721428D01*
X249200000Y-104864285D01*
X249271428Y-105150000D01*
X249271428Y-105507142D01*
X249200000Y-105792857D01*
X249128571Y-105935714D01*
X249057142Y-106007142D01*
X248914285Y-106078571D01*
X248771428Y-106078571D01*
X248628571Y-106007142D01*
X248557142Y-105935714D01*
X248485714Y-105792857D01*
X248414285Y-105507142D01*
X248414285Y-105150000D01*
X248485714Y-104864285D01*
X248557142Y-104721428D01*
X248628571Y-104650000D01*
X248771428Y-104578571D01*
X241128571Y-105650000D02*
X241842857Y-105650000D01*
X240985714Y-106078571D02*
X241485714Y-104578571D01*
X241985714Y-106078571D01*
X243271428Y-106078571D02*
X242414285Y-106078571D01*
X242842857Y-106078571D02*
X242842857Y-104578571D01*
X242700000Y-104792857D01*
X242557142Y-104935714D01*
X242414285Y-105007142D01*
X235128571Y-105650000D02*
X235842857Y-105650000D01*
X234985714Y-106078571D02*
X235485714Y-104578571D01*
X235985714Y-106078571D01*
X236414285Y-104721428D02*
X236485714Y-104650000D01*
X236628571Y-104578571D01*
X236985714Y-104578571D01*
X237128571Y-104650000D01*
X237200000Y-104721428D01*
X237271428Y-104864285D01*
X237271428Y-105007142D01*
X237200000Y-105221428D01*
X236342857Y-106078571D01*
X237271428Y-106078571D01*
X229128571Y-105660000D02*
X229842857Y-105660000D01*
X228985714Y-106088571D02*
X229485714Y-104588571D01*
X229985714Y-106088571D01*
X230342857Y-104588571D02*
X231271428Y-104588571D01*
X230771428Y-105160000D01*
X230985714Y-105160000D01*
X231128571Y-105231428D01*
X231200000Y-105302857D01*
X231271428Y-105445714D01*
X231271428Y-105802857D01*
X231200000Y-105945714D01*
X231128571Y-106017142D01*
X230985714Y-106088571D01*
X230557142Y-106088571D01*
X230414285Y-106017142D01*
X230342857Y-105945714D01*
X223128571Y-105650000D02*
X223842857Y-105650000D01*
X222985714Y-106078571D02*
X223485714Y-104578571D01*
X223985714Y-106078571D01*
X225128571Y-105078571D02*
X225128571Y-106078571D01*
X224771428Y-104507142D02*
X224414285Y-105578571D01*
X225342857Y-105578571D01*
X217128571Y-105650000D02*
X217842857Y-105650000D01*
X216985714Y-106078571D02*
X217485714Y-104578571D01*
X217985714Y-106078571D01*
X219200000Y-104578571D02*
X218485714Y-104578571D01*
X218414285Y-105292857D01*
X218485714Y-105221428D01*
X218628571Y-105150000D01*
X218985714Y-105150000D01*
X219128571Y-105221428D01*
X219200000Y-105292857D01*
X219271428Y-105435714D01*
X219271428Y-105792857D01*
X219200000Y-105935714D01*
X219128571Y-106007142D01*
X218985714Y-106078571D01*
X218628571Y-106078571D01*
X218485714Y-106007142D01*
X218414285Y-105935714D01*
X211128571Y-105660000D02*
X211842857Y-105660000D01*
X210985714Y-106088571D02*
X211485714Y-104588571D01*
X211985714Y-106088571D01*
X213128571Y-104588571D02*
X212842857Y-104588571D01*
X212700000Y-104660000D01*
X212628571Y-104731428D01*
X212485714Y-104945714D01*
X212414285Y-105231428D01*
X212414285Y-105802857D01*
X212485714Y-105945714D01*
X212557142Y-106017142D01*
X212700000Y-106088571D01*
X212985714Y-106088571D01*
X213128571Y-106017142D01*
X213200000Y-105945714D01*
X213271428Y-105802857D01*
X213271428Y-105445714D01*
X213200000Y-105302857D01*
X213128571Y-105231428D01*
X212985714Y-105160000D01*
X212700000Y-105160000D01*
X212557142Y-105231428D01*
X212485714Y-105302857D01*
X212414285Y-105445714D01*
X205128571Y-105660000D02*
X205842857Y-105660000D01*
X204985714Y-106088571D02*
X205485714Y-104588571D01*
X205985714Y-106088571D01*
X206342857Y-104588571D02*
X207342857Y-104588571D01*
X206700000Y-106088571D01*
X199128571Y-105650000D02*
X199842857Y-105650000D01*
X198985714Y-106078571D02*
X199485714Y-104578571D01*
X199985714Y-106078571D01*
X200700000Y-105221428D02*
X200557142Y-105150000D01*
X200485714Y-105078571D01*
X200414285Y-104935714D01*
X200414285Y-104864285D01*
X200485714Y-104721428D01*
X200557142Y-104650000D01*
X200700000Y-104578571D01*
X200985714Y-104578571D01*
X201128571Y-104650000D01*
X201200000Y-104721428D01*
X201271428Y-104864285D01*
X201271428Y-104935714D01*
X201200000Y-105078571D01*
X201128571Y-105150000D01*
X200985714Y-105221428D01*
X200700000Y-105221428D01*
X200557142Y-105292857D01*
X200485714Y-105364285D01*
X200414285Y-105507142D01*
X200414285Y-105792857D01*
X200485714Y-105935714D01*
X200557142Y-106007142D01*
X200700000Y-106078571D01*
X200985714Y-106078571D01*
X201128571Y-106007142D01*
X201200000Y-105935714D01*
X201271428Y-105792857D01*
X201271428Y-105507142D01*
X201200000Y-105364285D01*
X201128571Y-105292857D01*
X200985714Y-105221428D01*
X193128571Y-105650000D02*
X193842857Y-105650000D01*
X192985714Y-106078571D02*
X193485714Y-104578571D01*
X193985714Y-106078571D01*
X194557142Y-106078571D02*
X194842857Y-106078571D01*
X194985714Y-106007142D01*
X195057142Y-105935714D01*
X195200000Y-105721428D01*
X195271428Y-105435714D01*
X195271428Y-104864285D01*
X195200000Y-104721428D01*
X195128571Y-104650000D01*
X194985714Y-104578571D01*
X194700000Y-104578571D01*
X194557142Y-104650000D01*
X194485714Y-104721428D01*
X194414285Y-104864285D01*
X194414285Y-105221428D01*
X194485714Y-105364285D01*
X194557142Y-105435714D01*
X194700000Y-105507142D01*
X194985714Y-105507142D01*
X195128571Y-105435714D01*
X195200000Y-105364285D01*
X195271428Y-105221428D01*
X186414285Y-105302857D02*
X186914285Y-105302857D01*
X187128571Y-106088571D02*
X186414285Y-106088571D01*
X186414285Y-104588571D01*
X187128571Y-104588571D01*
X187628571Y-104588571D02*
X188628571Y-106088571D01*
X188628571Y-104588571D02*
X187628571Y-106088571D01*
X189200000Y-106088571D02*
X189200000Y-104588571D01*
X189771428Y-104588571D01*
X189914285Y-104660000D01*
X189985714Y-104731428D01*
X190057142Y-104874285D01*
X190057142Y-105088571D01*
X189985714Y-105231428D01*
X189914285Y-105302857D01*
X189771428Y-105374285D01*
X189200000Y-105374285D01*
X169001428Y-106078571D02*
X168501428Y-105364285D01*
X168144285Y-106078571D02*
X168144285Y-104578571D01*
X168715714Y-104578571D01*
X168858571Y-104650000D01*
X168930000Y-104721428D01*
X169001428Y-104864285D01*
X169001428Y-105078571D01*
X168930000Y-105221428D01*
X168858571Y-105292857D01*
X168715714Y-105364285D01*
X168144285Y-105364285D01*
X169930000Y-104578571D02*
X170215714Y-104578571D01*
X170358571Y-104650000D01*
X170501428Y-104792857D01*
X170572857Y-105078571D01*
X170572857Y-105578571D01*
X170501428Y-105864285D01*
X170358571Y-106007142D01*
X170215714Y-106078571D01*
X169930000Y-106078571D01*
X169787142Y-106007142D01*
X169644285Y-105864285D01*
X169572857Y-105578571D01*
X169572857Y-105078571D01*
X169644285Y-104792857D01*
X169787142Y-104650000D01*
X169930000Y-104578571D01*
X171215714Y-106078571D02*
X171215714Y-104578571D01*
X171715714Y-105650000D01*
X172215714Y-104578571D01*
X172215714Y-106078571D01*
X180664285Y-106078571D02*
X180664285Y-104578571D01*
X181235714Y-104578571D01*
X181378571Y-104650000D01*
X181450000Y-104721428D01*
X181521428Y-104864285D01*
X181521428Y-105078571D01*
X181450000Y-105221428D01*
X181378571Y-105292857D01*
X181235714Y-105364285D01*
X180664285Y-105364285D01*
X182164285Y-106078571D02*
X182164285Y-104578571D01*
X183164285Y-104578571D02*
X183450000Y-104578571D01*
X183592857Y-104650000D01*
X183735714Y-104792857D01*
X183807142Y-105078571D01*
X183807142Y-105578571D01*
X183735714Y-105864285D01*
X183592857Y-106007142D01*
X183450000Y-106078571D01*
X183164285Y-106078571D01*
X183021428Y-106007142D01*
X182878571Y-105864285D01*
X182807142Y-105578571D01*
X182807142Y-105078571D01*
X182878571Y-104792857D01*
X183021428Y-104650000D01*
X183164285Y-104578571D01*
X174271428Y-106078571D02*
X174271428Y-104578571D01*
X174842857Y-104578571D01*
X174985714Y-104650000D01*
X175057142Y-104721428D01*
X175128571Y-104864285D01*
X175128571Y-105078571D01*
X175057142Y-105221428D01*
X174985714Y-105292857D01*
X174842857Y-105364285D01*
X174271428Y-105364285D01*
X176628571Y-106078571D02*
X176128571Y-105364285D01*
X175771428Y-106078571D02*
X175771428Y-104578571D01*
X176342857Y-104578571D01*
X176485714Y-104650000D01*
X176557142Y-104721428D01*
X176628571Y-104864285D01*
X176628571Y-105078571D01*
X176557142Y-105221428D01*
X176485714Y-105292857D01*
X176342857Y-105364285D01*
X175771428Y-105364285D01*
X177271428Y-106078571D02*
X177271428Y-104578571D01*
X178128571Y-106078571D01*
X178128571Y-104578571D01*
X163342857Y-105935714D02*
X163271428Y-106007142D01*
X163057142Y-106078571D01*
X162914285Y-106078571D01*
X162700000Y-106007142D01*
X162557142Y-105864285D01*
X162485714Y-105721428D01*
X162414285Y-105435714D01*
X162414285Y-105221428D01*
X162485714Y-104935714D01*
X162557142Y-104792857D01*
X162700000Y-104650000D01*
X162914285Y-104578571D01*
X163057142Y-104578571D01*
X163271428Y-104650000D01*
X163342857Y-104721428D01*
X164842857Y-106078571D02*
X164342857Y-105364285D01*
X163985714Y-106078571D02*
X163985714Y-104578571D01*
X164557142Y-104578571D01*
X164700000Y-104650000D01*
X164771428Y-104721428D01*
X164842857Y-104864285D01*
X164842857Y-105078571D01*
X164771428Y-105221428D01*
X164700000Y-105292857D01*
X164557142Y-105364285D01*
X163985714Y-105364285D01*
X165271428Y-104578571D02*
X166128571Y-104578571D01*
X165700000Y-106078571D02*
X165700000Y-104578571D01*
X157950000Y-104650000D02*
X157807142Y-104578571D01*
X157592857Y-104578571D01*
X157378571Y-104650000D01*
X157235714Y-104792857D01*
X157164285Y-104935714D01*
X157092857Y-105221428D01*
X157092857Y-105435714D01*
X157164285Y-105721428D01*
X157235714Y-105864285D01*
X157378571Y-106007142D01*
X157592857Y-106078571D01*
X157735714Y-106078571D01*
X157950000Y-106007142D01*
X158021428Y-105935714D01*
X158021428Y-105435714D01*
X157735714Y-105435714D01*
X158592857Y-105650000D02*
X159307142Y-105650000D01*
X158450000Y-106078571D02*
X158950000Y-104578571D01*
X159450000Y-106078571D01*
D11*
X251912380Y-132238571D02*
X251436190Y-132571904D01*
X251912380Y-132810000D02*
X250912380Y-132810000D01*
X250912380Y-132429047D01*
X250960000Y-132333809D01*
X251007619Y-132286190D01*
X251102857Y-132238571D01*
X251245714Y-132238571D01*
X251340952Y-132286190D01*
X251388571Y-132333809D01*
X251436190Y-132429047D01*
X251436190Y-132810000D01*
X251388571Y-131810000D02*
X251388571Y-131476666D01*
X251912380Y-131333809D02*
X251912380Y-131810000D01*
X250912380Y-131810000D01*
X250912380Y-131333809D01*
X250912380Y-131048095D02*
X251912380Y-130714761D01*
X250912380Y-130381428D01*
X251912380Y-128762380D02*
X251912380Y-129333809D01*
X251912380Y-129048095D02*
X250912380Y-129048095D01*
X251055238Y-129143333D01*
X251150476Y-129238571D01*
X251198095Y-129333809D01*
D12*
X230819285Y-140370714D02*
X230747857Y-140442142D01*
X230533571Y-140513571D01*
X230390714Y-140513571D01*
X230176428Y-140442142D01*
X230033571Y-140299285D01*
X229962142Y-140156428D01*
X229890714Y-139870714D01*
X229890714Y-139656428D01*
X229962142Y-139370714D01*
X230033571Y-139227857D01*
X230176428Y-139085000D01*
X230390714Y-139013571D01*
X230533571Y-139013571D01*
X230747857Y-139085000D01*
X230819285Y-139156428D01*
X231462142Y-140513571D02*
X231462142Y-139013571D01*
X232033571Y-139013571D01*
X232176428Y-139085000D01*
X232247857Y-139156428D01*
X232319285Y-139299285D01*
X232319285Y-139513571D01*
X232247857Y-139656428D01*
X232176428Y-139727857D01*
X232033571Y-139799285D01*
X231462142Y-139799285D01*
X233819285Y-140370714D02*
X233747857Y-140442142D01*
X233533571Y-140513571D01*
X233390714Y-140513571D01*
X233176428Y-140442142D01*
X233033571Y-140299285D01*
X232962142Y-140156428D01*
X232890714Y-139870714D01*
X232890714Y-139656428D01*
X232962142Y-139370714D01*
X233033571Y-139227857D01*
X233176428Y-139085000D01*
X233390714Y-139013571D01*
X233533571Y-139013571D01*
X233747857Y-139085000D01*
X233819285Y-139156428D01*
X235605000Y-140513571D02*
X235605000Y-139013571D01*
X236105000Y-140085000D01*
X236605000Y-139013571D01*
X236605000Y-140513571D01*
X237533571Y-140513571D02*
X237390714Y-140442142D01*
X237319285Y-140370714D01*
X237247857Y-140227857D01*
X237247857Y-139799285D01*
X237319285Y-139656428D01*
X237390714Y-139585000D01*
X237533571Y-139513571D01*
X237747857Y-139513571D01*
X237890714Y-139585000D01*
X237962142Y-139656428D01*
X238033571Y-139799285D01*
X238033571Y-140227857D01*
X237962142Y-140370714D01*
X237890714Y-140442142D01*
X237747857Y-140513571D01*
X237533571Y-140513571D01*
X239319285Y-140513571D02*
X239319285Y-139013571D01*
X239319285Y-140442142D02*
X239176428Y-140513571D01*
X238890714Y-140513571D01*
X238747857Y-140442142D01*
X238676428Y-140370714D01*
X238605000Y-140227857D01*
X238605000Y-139799285D01*
X238676428Y-139656428D01*
X238747857Y-139585000D01*
X238890714Y-139513571D01*
X239176428Y-139513571D01*
X239319285Y-139585000D01*
X240676428Y-139513571D02*
X240676428Y-140513571D01*
X240033571Y-139513571D02*
X240033571Y-140299285D01*
X240105000Y-140442142D01*
X240247857Y-140513571D01*
X240462142Y-140513571D01*
X240605000Y-140442142D01*
X240676428Y-140370714D01*
X241605000Y-140513571D02*
X241462142Y-140442142D01*
X241390714Y-140299285D01*
X241390714Y-139013571D01*
X242819285Y-140513571D02*
X242819285Y-139727857D01*
X242747857Y-139585000D01*
X242605000Y-139513571D01*
X242319285Y-139513571D01*
X242176428Y-139585000D01*
X242819285Y-140442142D02*
X242676428Y-140513571D01*
X242319285Y-140513571D01*
X242176428Y-140442142D01*
X242105000Y-140299285D01*
X242105000Y-140156428D01*
X242176428Y-140013571D01*
X242319285Y-139942142D01*
X242676428Y-139942142D01*
X242819285Y-139870714D01*
X243533571Y-140513571D02*
X243533571Y-139513571D01*
X243533571Y-139799285D02*
X243605000Y-139656428D01*
X243676428Y-139585000D01*
X243819285Y-139513571D01*
X243962142Y-139513571D01*
X231962142Y-142820714D02*
X231890714Y-142892142D01*
X231676428Y-142963571D01*
X231533571Y-142963571D01*
X231319285Y-142892142D01*
X231176428Y-142749285D01*
X231105000Y-142606428D01*
X231033571Y-142320714D01*
X231033571Y-142106428D01*
X231105000Y-141820714D01*
X231176428Y-141677857D01*
X231319285Y-141535000D01*
X231533571Y-141463571D01*
X231676428Y-141463571D01*
X231890714Y-141535000D01*
X231962142Y-141606428D01*
X232605000Y-142963571D02*
X232605000Y-141463571D01*
X233176428Y-141463571D01*
X233319285Y-141535000D01*
X233390714Y-141606428D01*
X233462142Y-141749285D01*
X233462142Y-141963571D01*
X233390714Y-142106428D01*
X233319285Y-142177857D01*
X233176428Y-142249285D01*
X232605000Y-142249285D01*
X234105000Y-141463571D02*
X234105000Y-142677857D01*
X234176428Y-142820714D01*
X234247857Y-142892142D01*
X234390714Y-142963571D01*
X234676428Y-142963571D01*
X234819285Y-142892142D01*
X234890714Y-142820714D01*
X234962142Y-142677857D01*
X234962142Y-141463571D01*
X237319285Y-142177857D02*
X237533571Y-142249285D01*
X237605000Y-142320714D01*
X237676428Y-142463571D01*
X237676428Y-142677857D01*
X237605000Y-142820714D01*
X237533571Y-142892142D01*
X237390714Y-142963571D01*
X236819285Y-142963571D01*
X236819285Y-141463571D01*
X237319285Y-141463571D01*
X237462142Y-141535000D01*
X237533571Y-141606428D01*
X237605000Y-141749285D01*
X237605000Y-141892142D01*
X237533571Y-142035000D01*
X237462142Y-142106428D01*
X237319285Y-142177857D01*
X236819285Y-142177857D01*
X238533571Y-142963571D02*
X238390714Y-142892142D01*
X238319285Y-142820714D01*
X238247857Y-142677857D01*
X238247857Y-142249285D01*
X238319285Y-142106428D01*
X238390714Y-142035000D01*
X238533571Y-141963571D01*
X238747857Y-141963571D01*
X238890714Y-142035000D01*
X238962142Y-142106428D01*
X239033571Y-142249285D01*
X239033571Y-142677857D01*
X238962142Y-142820714D01*
X238890714Y-142892142D01*
X238747857Y-142963571D01*
X238533571Y-142963571D01*
X240319285Y-142963571D02*
X240319285Y-142177857D01*
X240247857Y-142035000D01*
X240105000Y-141963571D01*
X239819285Y-141963571D01*
X239676428Y-142035000D01*
X240319285Y-142892142D02*
X240176428Y-142963571D01*
X239819285Y-142963571D01*
X239676428Y-142892142D01*
X239605000Y-142749285D01*
X239605000Y-142606428D01*
X239676428Y-142463571D01*
X239819285Y-142392142D01*
X240176428Y-142392142D01*
X240319285Y-142320714D01*
X241033571Y-142963571D02*
X241033571Y-141963571D01*
X241033571Y-142249285D02*
X241105000Y-142106428D01*
X241176428Y-142035000D01*
X241319285Y-141963571D01*
X241462142Y-141963571D01*
X242605000Y-142963571D02*
X242605000Y-141463571D01*
X242605000Y-142892142D02*
X242462142Y-142963571D01*
X242176428Y-142963571D01*
X242033571Y-142892142D01*
X241962142Y-142820714D01*
X241890714Y-142677857D01*
X241890714Y-142249285D01*
X241962142Y-142106428D01*
X242033571Y-142035000D01*
X242176428Y-141963571D01*
X242462142Y-141963571D01*
X242605000Y-142035000D01*
X226497857Y-144270714D02*
X226355000Y-144199285D01*
X226069285Y-144199285D01*
X225926428Y-144270714D01*
X225783571Y-144413571D01*
X225712142Y-144556428D01*
X225712142Y-144842142D01*
X225783571Y-144985000D01*
X225926428Y-145127857D01*
X226069285Y-145199285D01*
X226355000Y-145199285D01*
X226497857Y-145127857D01*
X226212142Y-143699285D02*
X225855000Y-143770714D01*
X225497857Y-143985000D01*
X225283571Y-144342142D01*
X225212142Y-144699285D01*
X225283571Y-145056428D01*
X225497857Y-145413571D01*
X225855000Y-145627857D01*
X226212142Y-145699285D01*
X226569285Y-145627857D01*
X226926428Y-145413571D01*
X227140714Y-145056428D01*
X227212142Y-144699285D01*
X227140714Y-144342142D01*
X226926428Y-143985000D01*
X226569285Y-143770714D01*
X226212142Y-143699285D01*
X228997857Y-145413571D02*
X228997857Y-143913571D01*
X229497857Y-144985000D01*
X229997857Y-143913571D01*
X229997857Y-145413571D01*
X230712142Y-145413571D02*
X230712142Y-144413571D01*
X230712142Y-143913571D02*
X230640714Y-143985000D01*
X230712142Y-144056428D01*
X230783571Y-143985000D01*
X230712142Y-143913571D01*
X230712142Y-144056428D01*
X231426428Y-145413571D02*
X231426428Y-143913571D01*
X231569285Y-144842142D02*
X231997857Y-145413571D01*
X231997857Y-144413571D02*
X231426428Y-144985000D01*
X233212142Y-145342142D02*
X233069285Y-145413571D01*
X232783571Y-145413571D01*
X232640714Y-145342142D01*
X232569285Y-145199285D01*
X232569285Y-144627857D01*
X232640714Y-144485000D01*
X232783571Y-144413571D01*
X233069285Y-144413571D01*
X233212142Y-144485000D01*
X233283571Y-144627857D01*
X233283571Y-144770714D01*
X232569285Y-144913571D01*
X234997857Y-145342142D02*
X235212142Y-145413571D01*
X235569285Y-145413571D01*
X235712142Y-145342142D01*
X235783571Y-145270714D01*
X235855000Y-145127857D01*
X235855000Y-144985000D01*
X235783571Y-144842142D01*
X235712142Y-144770714D01*
X235569285Y-144699285D01*
X235283571Y-144627857D01*
X235140714Y-144556428D01*
X235069285Y-144485000D01*
X234997857Y-144342142D01*
X234997857Y-144199285D01*
X235069285Y-144056428D01*
X235140714Y-143985000D01*
X235283571Y-143913571D01*
X235640714Y-143913571D01*
X235855000Y-143985000D01*
X237140714Y-144413571D02*
X237140714Y-145413571D01*
X236497857Y-144413571D02*
X236497857Y-145199285D01*
X236569285Y-145342142D01*
X236712142Y-145413571D01*
X236926428Y-145413571D01*
X237069285Y-145342142D01*
X237140714Y-145270714D01*
X237640714Y-144413571D02*
X238212142Y-144413571D01*
X237855000Y-143913571D02*
X237855000Y-145199285D01*
X237926428Y-145342142D01*
X238069285Y-145413571D01*
X238212142Y-145413571D01*
X238497857Y-144413571D02*
X239069285Y-144413571D01*
X238712142Y-143913571D02*
X238712142Y-145199285D01*
X238783571Y-145342142D01*
X238926428Y-145413571D01*
X239069285Y-145413571D01*
X239783571Y-145413571D02*
X239640714Y-145342142D01*
X239569285Y-145270714D01*
X239497857Y-145127857D01*
X239497857Y-144699285D01*
X239569285Y-144556428D01*
X239640714Y-144485000D01*
X239783571Y-144413571D01*
X239997857Y-144413571D01*
X240140714Y-144485000D01*
X240212142Y-144556428D01*
X240283571Y-144699285D01*
X240283571Y-145127857D01*
X240212142Y-145270714D01*
X240140714Y-145342142D01*
X239997857Y-145413571D01*
X239783571Y-145413571D01*
X240926428Y-144413571D02*
X240926428Y-145413571D01*
X240926428Y-144556428D02*
X240997857Y-144485000D01*
X241140714Y-144413571D01*
X241355000Y-144413571D01*
X241497857Y-144485000D01*
X241569285Y-144627857D01*
X241569285Y-145413571D01*
X243355000Y-144056428D02*
X243426428Y-143985000D01*
X243569285Y-143913571D01*
X243926428Y-143913571D01*
X244069285Y-143985000D01*
X244140714Y-144056428D01*
X244212142Y-144199285D01*
X244212142Y-144342142D01*
X244140714Y-144556428D01*
X243283571Y-145413571D01*
X244212142Y-145413571D01*
X245140714Y-143913571D02*
X245283571Y-143913571D01*
X245426428Y-143985000D01*
X245497857Y-144056428D01*
X245569285Y-144199285D01*
X245640714Y-144485000D01*
X245640714Y-144842142D01*
X245569285Y-145127857D01*
X245497857Y-145270714D01*
X245426428Y-145342142D01*
X245283571Y-145413571D01*
X245140714Y-145413571D01*
X244997857Y-145342142D01*
X244926428Y-145270714D01*
X244855000Y-145127857D01*
X244783571Y-144842142D01*
X244783571Y-144485000D01*
X244855000Y-144199285D01*
X244926428Y-144056428D01*
X244997857Y-143985000D01*
X245140714Y-143913571D01*
X246212142Y-144056428D02*
X246283571Y-143985000D01*
X246426428Y-143913571D01*
X246783571Y-143913571D01*
X246926428Y-143985000D01*
X246997857Y-144056428D01*
X247069285Y-144199285D01*
X247069285Y-144342142D01*
X246997857Y-144556428D01*
X246140714Y-145413571D01*
X247069285Y-145413571D01*
X248355000Y-144413571D02*
X248355000Y-145413571D01*
X247997857Y-143842142D02*
X247640714Y-144913571D01*
X248569285Y-144913571D01*
X230390714Y-147077857D02*
X230605000Y-147149285D01*
X230676428Y-147220714D01*
X230747857Y-147363571D01*
X230747857Y-147577857D01*
X230676428Y-147720714D01*
X230605000Y-147792142D01*
X230462142Y-147863571D01*
X229890714Y-147863571D01*
X229890714Y-146363571D01*
X230390714Y-146363571D01*
X230533571Y-146435000D01*
X230605000Y-146506428D01*
X230676428Y-146649285D01*
X230676428Y-146792142D01*
X230605000Y-146935000D01*
X230533571Y-147006428D01*
X230390714Y-147077857D01*
X229890714Y-147077857D01*
X231390714Y-147863571D02*
X231390714Y-146863571D01*
X231390714Y-147149285D02*
X231462142Y-147006428D01*
X231533571Y-146935000D01*
X231676428Y-146863571D01*
X231819285Y-146863571D01*
X232890714Y-147792142D02*
X232747857Y-147863571D01*
X232462142Y-147863571D01*
X232319285Y-147792142D01*
X232247857Y-147649285D01*
X232247857Y-147077857D01*
X232319285Y-146935000D01*
X232462142Y-146863571D01*
X232747857Y-146863571D01*
X232890714Y-146935000D01*
X232962142Y-147077857D01*
X232962142Y-147220714D01*
X232247857Y-147363571D01*
X234247857Y-147863571D02*
X234247857Y-147077857D01*
X234176428Y-146935000D01*
X234033571Y-146863571D01*
X233747857Y-146863571D01*
X233605000Y-146935000D01*
X234247857Y-147792142D02*
X234105000Y-147863571D01*
X233747857Y-147863571D01*
X233605000Y-147792142D01*
X233533571Y-147649285D01*
X233533571Y-147506428D01*
X233605000Y-147363571D01*
X233747857Y-147292142D01*
X234105000Y-147292142D01*
X234247857Y-147220714D01*
X235605000Y-147863571D02*
X235605000Y-146363571D01*
X235605000Y-147792142D02*
X235462142Y-147863571D01*
X235176428Y-147863571D01*
X235033571Y-147792142D01*
X234962142Y-147720714D01*
X234890714Y-147577857D01*
X234890714Y-147149285D01*
X234962142Y-147006428D01*
X235033571Y-146935000D01*
X235176428Y-146863571D01*
X235462142Y-146863571D01*
X235605000Y-146935000D01*
X236533571Y-147006428D02*
X236390714Y-146935000D01*
X236319285Y-146863571D01*
X236247857Y-146720714D01*
X236247857Y-146649285D01*
X236319285Y-146506428D01*
X236390714Y-146435000D01*
X236533571Y-146363571D01*
X236819285Y-146363571D01*
X236962142Y-146435000D01*
X237033571Y-146506428D01*
X237105000Y-146649285D01*
X237105000Y-146720714D01*
X237033571Y-146863571D01*
X236962142Y-146935000D01*
X236819285Y-147006428D01*
X236533571Y-147006428D01*
X236390714Y-147077857D01*
X236319285Y-147149285D01*
X236247857Y-147292142D01*
X236247857Y-147577857D01*
X236319285Y-147720714D01*
X236390714Y-147792142D01*
X236533571Y-147863571D01*
X236819285Y-147863571D01*
X236962142Y-147792142D01*
X237033571Y-147720714D01*
X237105000Y-147577857D01*
X237105000Y-147292142D01*
X237033571Y-147149285D01*
X236962142Y-147077857D01*
X236819285Y-147006428D01*
X238033571Y-146363571D02*
X238176428Y-146363571D01*
X238319285Y-146435000D01*
X238390714Y-146506428D01*
X238462142Y-146649285D01*
X238533571Y-146935000D01*
X238533571Y-147292142D01*
X238462142Y-147577857D01*
X238390714Y-147720714D01*
X238319285Y-147792142D01*
X238176428Y-147863571D01*
X238033571Y-147863571D01*
X237890714Y-147792142D01*
X237819285Y-147720714D01*
X237747857Y-147577857D01*
X237676428Y-147292142D01*
X237676428Y-146935000D01*
X237747857Y-146649285D01*
X237819285Y-146506428D01*
X237890714Y-146435000D01*
X238033571Y-146363571D01*
X239176428Y-147720714D02*
X239247857Y-147792142D01*
X239176428Y-147863571D01*
X239105000Y-147792142D01*
X239176428Y-147720714D01*
X239176428Y-147863571D01*
X240533571Y-147792142D02*
X240390714Y-147863571D01*
X240105000Y-147863571D01*
X239962142Y-147792142D01*
X239890714Y-147720714D01*
X239819285Y-147577857D01*
X239819285Y-147149285D01*
X239890714Y-147006428D01*
X239962142Y-146935000D01*
X240105000Y-146863571D01*
X240390714Y-146863571D01*
X240533571Y-146935000D01*
X241390714Y-147863571D02*
X241247857Y-147792142D01*
X241176428Y-147720714D01*
X241105000Y-147577857D01*
X241105000Y-147149285D01*
X241176428Y-147006428D01*
X241247857Y-146935000D01*
X241390714Y-146863571D01*
X241605000Y-146863571D01*
X241747857Y-146935000D01*
X241819285Y-147006428D01*
X241890714Y-147149285D01*
X241890714Y-147577857D01*
X241819285Y-147720714D01*
X241747857Y-147792142D01*
X241605000Y-147863571D01*
X241390714Y-147863571D01*
X242533571Y-147863571D02*
X242533571Y-146863571D01*
X242533571Y-147006428D02*
X242605000Y-146935000D01*
X242747857Y-146863571D01*
X242962142Y-146863571D01*
X243105000Y-146935000D01*
X243176428Y-147077857D01*
X243176428Y-147863571D01*
X243176428Y-147077857D02*
X243247857Y-146935000D01*
X243390714Y-146863571D01*
X243605000Y-146863571D01*
X243747857Y-146935000D01*
X243819285Y-147077857D01*
X243819285Y-147863571D01*
D13*
X161290000Y-114805000D02*
X161290000Y-117605000D01*
X181780000Y-114805000D02*
X158580000Y-114805000D01*
X181780000Y-117605000D02*
X181780000Y-114805000D01*
X158580000Y-117605000D02*
X181780000Y-117605000D01*
X158580000Y-114805000D02*
X158580000Y-117605000D01*
X191770000Y-114805000D02*
X191770000Y-117605000D01*
X212260000Y-114805000D02*
X189060000Y-114805000D01*
X212260000Y-117605000D02*
X212260000Y-114805000D01*
X189060000Y-117605000D02*
X212260000Y-117605000D01*
X189060000Y-114805000D02*
X189060000Y-117605000D01*
X163710000Y-133925000D02*
X163710000Y-151825000D01*
X214750000Y-133925000D02*
X163710000Y-133925000D01*
X214750000Y-151825000D02*
X214750000Y-133925000D01*
X163710000Y-151825000D02*
X214750000Y-151825000D01*
X163770000Y-136415000D02*
X163770000Y-141875000D01*
X214690000Y-136415000D02*
X163770000Y-136415000D01*
X214690000Y-149335000D02*
X214690000Y-136415000D01*
X163770000Y-149335000D02*
X214690000Y-149335000D01*
X163770000Y-143875000D02*
X163770000Y-149335000D01*
X163770000Y-141875000D02*
G75*
G02*
X163770000Y-143875000I0J-1000000D01*
G01*
X217705000Y-141065000D02*
X218035000Y-141065000D01*
X217705000Y-134525000D02*
X217705000Y-141065000D01*
X218035000Y-134525000D02*
X217705000Y-134525000D01*
X220445000Y-141065000D02*
X220115000Y-141065000D01*
X220445000Y-134525000D02*
X220445000Y-141065000D01*
X220115000Y-134525000D02*
X220445000Y-134525000D01*
X220445000Y-144685000D02*
X220115000Y-144685000D01*
X220445000Y-151225000D02*
X220445000Y-144685000D01*
X220115000Y-151225000D02*
X220445000Y-151225000D01*
X217705000Y-144685000D02*
X218035000Y-144685000D01*
X217705000Y-151225000D02*
X217705000Y-144685000D01*
X218035000Y-151225000D02*
X217705000Y-151225000D01*
X219210000Y-159575000D02*
X219710000Y-160575000D01*
X220210000Y-159575000D02*
X219210000Y-159575000D01*
X219710000Y-160575000D02*
X220210000Y-159575000D01*
X153540000Y-166195000D02*
X224920000Y-166195000D01*
X153540000Y-175315000D02*
X153540000Y-166195000D01*
X224920000Y-175315000D02*
X153540000Y-175315000D01*
X224920000Y-166195000D02*
X224920000Y-175315000D01*
X187180000Y-166195000D02*
X187180000Y-175315000D01*
X191280000Y-166195000D02*
X191280000Y-175315000D01*
X187840000Y-119320000D02*
X187840000Y-129600000D01*
X213480000Y-119320000D02*
X187840000Y-119320000D01*
X213480000Y-129600000D02*
X213480000Y-119320000D01*
X187840000Y-129600000D02*
X213480000Y-129600000D01*
X187900000Y-121810000D02*
X187900000Y-123460000D01*
X213420000Y-121810000D02*
X187900000Y-121810000D01*
X213420000Y-127110000D02*
X213420000Y-121810000D01*
X187900000Y-127110000D02*
X213420000Y-127110000D01*
X187900000Y-125460000D02*
X187900000Y-127110000D01*
X187900000Y-123460000D02*
G75*
G02*
X187900000Y-125460000I0J-1000000D01*
G01*
X157360000Y-119320000D02*
X157360000Y-129600000D01*
X183000000Y-119320000D02*
X157360000Y-119320000D01*
X183000000Y-129600000D02*
X183000000Y-119320000D01*
X157360000Y-129600000D02*
X183000000Y-129600000D01*
X157420000Y-121810000D02*
X157420000Y-123460000D01*
X182940000Y-121810000D02*
X157420000Y-121810000D01*
X182940000Y-127110000D02*
X182940000Y-121810000D01*
X157420000Y-127110000D02*
X182940000Y-127110000D01*
X157420000Y-125460000D02*
X157420000Y-127110000D01*
X157420000Y-123460000D02*
G75*
G02*
X157420000Y-125460000I0J-1000000D01*
G01*
X249280000Y-111315000D02*
X249436000Y-111315000D01*
X246964000Y-111315000D02*
X247120000Y-111315000D01*
X249279837Y-108713870D02*
G75*
G02*
X249280000Y-110795961I-1079837J-1041130D01*
G01*
X247120163Y-108713870D02*
G75*
G03*
X247120000Y-110795961I1079837J-1041130D01*
G01*
X249278608Y-108082665D02*
G75*
G02*
X249435516Y-111315000I-1078608J-1672335D01*
G01*
X247121392Y-108082665D02*
G75*
G03*
X246964484Y-111315000I1078608J-1672335D01*
G01*
X243280000Y-111315000D02*
X243436000Y-111315000D01*
X240964000Y-111315000D02*
X241120000Y-111315000D01*
X243279837Y-108713870D02*
G75*
G02*
X243280000Y-110795961I-1079837J-1041130D01*
G01*
X241120163Y-108713870D02*
G75*
G03*
X241120000Y-110795961I1079837J-1041130D01*
G01*
X243278608Y-108082665D02*
G75*
G02*
X243435516Y-111315000I-1078608J-1672335D01*
G01*
X241121392Y-108082665D02*
G75*
G03*
X240964484Y-111315000I1078608J-1672335D01*
G01*
X237280000Y-111315000D02*
X237436000Y-111315000D01*
X234964000Y-111315000D02*
X235120000Y-111315000D01*
X237279837Y-108713870D02*
G75*
G02*
X237280000Y-110795961I-1079837J-1041130D01*
G01*
X235120163Y-108713870D02*
G75*
G03*
X235120000Y-110795961I1079837J-1041130D01*
G01*
X237278608Y-108082665D02*
G75*
G02*
X237435516Y-111315000I-1078608J-1672335D01*
G01*
X235121392Y-108082665D02*
G75*
G03*
X234964484Y-111315000I1078608J-1672335D01*
G01*
X231280000Y-111315000D02*
X231436000Y-111315000D01*
X228964000Y-111315000D02*
X229120000Y-111315000D01*
X231279837Y-108713870D02*
G75*
G02*
X231280000Y-110795961I-1079837J-1041130D01*
G01*
X229120163Y-108713870D02*
G75*
G03*
X229120000Y-110795961I1079837J-1041130D01*
G01*
X231278608Y-108082665D02*
G75*
G02*
X231435516Y-111315000I-1078608J-1672335D01*
G01*
X229121392Y-108082665D02*
G75*
G03*
X228964484Y-111315000I1078608J-1672335D01*
G01*
X225280000Y-111315000D02*
X225436000Y-111315000D01*
X222964000Y-111315000D02*
X223120000Y-111315000D01*
X225279837Y-108713870D02*
G75*
G02*
X225280000Y-110795961I-1079837J-1041130D01*
G01*
X223120163Y-108713870D02*
G75*
G03*
X223120000Y-110795961I1079837J-1041130D01*
G01*
X225278608Y-108082665D02*
G75*
G02*
X225435516Y-111315000I-1078608J-1672335D01*
G01*
X223121392Y-108082665D02*
G75*
G03*
X222964484Y-111315000I1078608J-1672335D01*
G01*
X219280000Y-111315000D02*
X219436000Y-111315000D01*
X216964000Y-111315000D02*
X217120000Y-111315000D01*
X219279837Y-108713870D02*
G75*
G02*
X219280000Y-110795961I-1079837J-1041130D01*
G01*
X217120163Y-108713870D02*
G75*
G03*
X217120000Y-110795961I1079837J-1041130D01*
G01*
X219278608Y-108082665D02*
G75*
G02*
X219435516Y-111315000I-1078608J-1672335D01*
G01*
X217121392Y-108082665D02*
G75*
G03*
X216964484Y-111315000I1078608J-1672335D01*
G01*
X213280000Y-111315000D02*
X213436000Y-111315000D01*
X210964000Y-111315000D02*
X211120000Y-111315000D01*
X213279837Y-108713870D02*
G75*
G02*
X213280000Y-110795961I-1079837J-1041130D01*
G01*
X211120163Y-108713870D02*
G75*
G03*
X211120000Y-110795961I1079837J-1041130D01*
G01*
X213278608Y-108082665D02*
G75*
G02*
X213435516Y-111315000I-1078608J-1672335D01*
G01*
X211121392Y-108082665D02*
G75*
G03*
X210964484Y-111315000I1078608J-1672335D01*
G01*
X207280000Y-111315000D02*
X207436000Y-111315000D01*
X204964000Y-111315000D02*
X205120000Y-111315000D01*
X207279837Y-108713870D02*
G75*
G02*
X207280000Y-110795961I-1079837J-1041130D01*
G01*
X205120163Y-108713870D02*
G75*
G03*
X205120000Y-110795961I1079837J-1041130D01*
G01*
X207278608Y-108082665D02*
G75*
G02*
X207435516Y-111315000I-1078608J-1672335D01*
G01*
X205121392Y-108082665D02*
G75*
G03*
X204964484Y-111315000I1078608J-1672335D01*
G01*
X201280000Y-111315000D02*
X201436000Y-111315000D01*
X198964000Y-111315000D02*
X199120000Y-111315000D01*
X201279837Y-108713870D02*
G75*
G02*
X201280000Y-110795961I-1079837J-1041130D01*
G01*
X199120163Y-108713870D02*
G75*
G03*
X199120000Y-110795961I1079837J-1041130D01*
G01*
X201278608Y-108082665D02*
G75*
G02*
X201435516Y-111315000I-1078608J-1672335D01*
G01*
X199121392Y-108082665D02*
G75*
G03*
X198964484Y-111315000I1078608J-1672335D01*
G01*
X195280000Y-111315000D02*
X195436000Y-111315000D01*
X192964000Y-111315000D02*
X193120000Y-111315000D01*
X195279837Y-108713870D02*
G75*
G02*
X195280000Y-110795961I-1079837J-1041130D01*
G01*
X193120163Y-108713870D02*
G75*
G03*
X193120000Y-110795961I1079837J-1041130D01*
G01*
X195278608Y-108082665D02*
G75*
G02*
X195435516Y-111315000I-1078608J-1672335D01*
G01*
X193121392Y-108082665D02*
G75*
G03*
X192964484Y-111315000I1078608J-1672335D01*
G01*
X189280000Y-111315000D02*
X189436000Y-111315000D01*
X186964000Y-111315000D02*
X187120000Y-111315000D01*
X189279837Y-108713870D02*
G75*
G02*
X189280000Y-110795961I-1079837J-1041130D01*
G01*
X187120163Y-108713870D02*
G75*
G03*
X187120000Y-110795961I1079837J-1041130D01*
G01*
X189278608Y-108082665D02*
G75*
G02*
X189435516Y-111315000I-1078608J-1672335D01*
G01*
X187121392Y-108082665D02*
G75*
G03*
X186964484Y-111315000I1078608J-1672335D01*
G01*
X183280000Y-111315000D02*
X183436000Y-111315000D01*
X180964000Y-111315000D02*
X181120000Y-111315000D01*
X183279837Y-108713870D02*
G75*
G02*
X183280000Y-110795961I-1079837J-1041130D01*
G01*
X181120163Y-108713870D02*
G75*
G03*
X181120000Y-110795961I1079837J-1041130D01*
G01*
X183278608Y-108082665D02*
G75*
G02*
X183435516Y-111315000I-1078608J-1672335D01*
G01*
X181121392Y-108082665D02*
G75*
G03*
X180964484Y-111315000I1078608J-1672335D01*
G01*
X177280000Y-111315000D02*
X177436000Y-111315000D01*
X174964000Y-111315000D02*
X175120000Y-111315000D01*
X177279837Y-108713870D02*
G75*
G02*
X177280000Y-110795961I-1079837J-1041130D01*
G01*
X175120163Y-108713870D02*
G75*
G03*
X175120000Y-110795961I1079837J-1041130D01*
G01*
X177278608Y-108082665D02*
G75*
G02*
X177435516Y-111315000I-1078608J-1672335D01*
G01*
X175121392Y-108082665D02*
G75*
G03*
X174964484Y-111315000I1078608J-1672335D01*
G01*
X171280000Y-111315000D02*
X171436000Y-111315000D01*
X168964000Y-111315000D02*
X169120000Y-111315000D01*
X171279837Y-108713870D02*
G75*
G02*
X171280000Y-110795961I-1079837J-1041130D01*
G01*
X169120163Y-108713870D02*
G75*
G03*
X169120000Y-110795961I1079837J-1041130D01*
G01*
X171278608Y-108082665D02*
G75*
G02*
X171435516Y-111315000I-1078608J-1672335D01*
G01*
X169121392Y-108082665D02*
G75*
G03*
X168964484Y-111315000I1078608J-1672335D01*
G01*
X165280000Y-111315000D02*
X165436000Y-111315000D01*
X162964000Y-111315000D02*
X163120000Y-111315000D01*
X165279837Y-108713870D02*
G75*
G02*
X165280000Y-110795961I-1079837J-1041130D01*
G01*
X163120163Y-108713870D02*
G75*
G03*
X163120000Y-110795961I1079837J-1041130D01*
G01*
X165278608Y-108082665D02*
G75*
G02*
X165435516Y-111315000I-1078608J-1672335D01*
G01*
X163121392Y-108082665D02*
G75*
G03*
X162964484Y-111315000I1078608J-1672335D01*
G01*
X159280000Y-111405000D02*
X159436000Y-111405000D01*
X156964000Y-111405000D02*
X157120000Y-111405000D01*
X159279837Y-108803870D02*
G75*
G02*
X159280000Y-110885961I-1079837J-1041130D01*
G01*
X157120163Y-108803870D02*
G75*
G03*
X157120000Y-110885961I1079837J-1041130D01*
G01*
X159278608Y-108172665D02*
G75*
G02*
X159435516Y-111405000I-1078608J-1672335D01*
G01*
X157121392Y-108172665D02*
G75*
G03*
X156964484Y-111405000I1078608J-1672335D01*
G01*
X191419775Y-156665000D02*
X191419775Y-156165000D01*
X191669775Y-156415000D02*
X191169775Y-156415000D01*
X186264000Y-155224000D02*
X186264000Y-154656000D01*
X186304000Y-155458000D02*
X186304000Y-154422000D01*
X186344000Y-155617000D02*
X186344000Y-154263000D01*
X186384000Y-155745000D02*
X186384000Y-154135000D01*
X186424000Y-155855000D02*
X186424000Y-154025000D01*
X186464000Y-155951000D02*
X186464000Y-153929000D01*
X186504000Y-156038000D02*
X186504000Y-153842000D01*
X186544000Y-156118000D02*
X186544000Y-153762000D01*
X186584000Y-156191000D02*
X186584000Y-153689000D01*
X186624000Y-156259000D02*
X186624000Y-153621000D01*
X186664000Y-156323000D02*
X186664000Y-153557000D01*
X186704000Y-156383000D02*
X186704000Y-153497000D01*
X186744000Y-156440000D02*
X186744000Y-153440000D01*
X186784000Y-156494000D02*
X186784000Y-153386000D01*
X186824000Y-156545000D02*
X186824000Y-153335000D01*
X186864000Y-153900000D02*
X186864000Y-153287000D01*
X186864000Y-156593000D02*
X186864000Y-155980000D01*
X186904000Y-153900000D02*
X186904000Y-153241000D01*
X186904000Y-156639000D02*
X186904000Y-155980000D01*
X186944000Y-153900000D02*
X186944000Y-153197000D01*
X186944000Y-156683000D02*
X186944000Y-155980000D01*
X186984000Y-153900000D02*
X186984000Y-153155000D01*
X186984000Y-156725000D02*
X186984000Y-155980000D01*
X187024000Y-153900000D02*
X187024000Y-153114000D01*
X187024000Y-156766000D02*
X187024000Y-155980000D01*
X187064000Y-153900000D02*
X187064000Y-153076000D01*
X187064000Y-156804000D02*
X187064000Y-155980000D01*
X187104000Y-153900000D02*
X187104000Y-153039000D01*
X187104000Y-156841000D02*
X187104000Y-155980000D01*
X187144000Y-153900000D02*
X187144000Y-153003000D01*
X187144000Y-156877000D02*
X187144000Y-155980000D01*
X187184000Y-153900000D02*
X187184000Y-152969000D01*
X187184000Y-156911000D02*
X187184000Y-155980000D01*
X187224000Y-153900000D02*
X187224000Y-152936000D01*
X187224000Y-156944000D02*
X187224000Y-155980000D01*
X187264000Y-153900000D02*
X187264000Y-152905000D01*
X187264000Y-156975000D02*
X187264000Y-155980000D01*
X187304000Y-153900000D02*
X187304000Y-152875000D01*
X187304000Y-157005000D02*
X187304000Y-155980000D01*
X187344000Y-153900000D02*
X187344000Y-152845000D01*
X187344000Y-157035000D02*
X187344000Y-155980000D01*
X187384000Y-153900000D02*
X187384000Y-152818000D01*
X187384000Y-157062000D02*
X187384000Y-155980000D01*
X187424000Y-153900000D02*
X187424000Y-152791000D01*
X187424000Y-157089000D02*
X187424000Y-155980000D01*
X187464000Y-153900000D02*
X187464000Y-152765000D01*
X187464000Y-157115000D02*
X187464000Y-155980000D01*
X187504000Y-153900000D02*
X187504000Y-152740000D01*
X187504000Y-157140000D02*
X187504000Y-155980000D01*
X187544000Y-153900000D02*
X187544000Y-152716000D01*
X187544000Y-157164000D02*
X187544000Y-155980000D01*
X187584000Y-153900000D02*
X187584000Y-152693000D01*
X187584000Y-157187000D02*
X187584000Y-155980000D01*
X187624000Y-153900000D02*
X187624000Y-152672000D01*
X187624000Y-157208000D02*
X187624000Y-155980000D01*
X187664000Y-153900000D02*
X187664000Y-152650000D01*
X187664000Y-157230000D02*
X187664000Y-155980000D01*
X187704000Y-153900000D02*
X187704000Y-152630000D01*
X187704000Y-157250000D02*
X187704000Y-155980000D01*
X187744000Y-153900000D02*
X187744000Y-152611000D01*
X187744000Y-157269000D02*
X187744000Y-155980000D01*
X187784000Y-153900000D02*
X187784000Y-152592000D01*
X187784000Y-157288000D02*
X187784000Y-155980000D01*
X187824000Y-153900000D02*
X187824000Y-152575000D01*
X187824000Y-157305000D02*
X187824000Y-155980000D01*
X187864000Y-153900000D02*
X187864000Y-152558000D01*
X187864000Y-157322000D02*
X187864000Y-155980000D01*
X187904000Y-153900000D02*
X187904000Y-152542000D01*
X187904000Y-157338000D02*
X187904000Y-155980000D01*
X187944000Y-153900000D02*
X187944000Y-152526000D01*
X187944000Y-157354000D02*
X187944000Y-155980000D01*
X187984000Y-153900000D02*
X187984000Y-152512000D01*
X187984000Y-157368000D02*
X187984000Y-155980000D01*
X188024000Y-153900000D02*
X188024000Y-152498000D01*
X188024000Y-157382000D02*
X188024000Y-155980000D01*
X188064000Y-153900000D02*
X188064000Y-152485000D01*
X188064000Y-157395000D02*
X188064000Y-155980000D01*
X188104000Y-153900000D02*
X188104000Y-152472000D01*
X188104000Y-157408000D02*
X188104000Y-155980000D01*
X188144000Y-153900000D02*
X188144000Y-152460000D01*
X188144000Y-157420000D02*
X188144000Y-155980000D01*
X188185000Y-153900000D02*
X188185000Y-152449000D01*
X188185000Y-157431000D02*
X188185000Y-155980000D01*
X188225000Y-153900000D02*
X188225000Y-152439000D01*
X188225000Y-157441000D02*
X188225000Y-155980000D01*
X188265000Y-153900000D02*
X188265000Y-152429000D01*
X188265000Y-157451000D02*
X188265000Y-155980000D01*
X188305000Y-153900000D02*
X188305000Y-152420000D01*
X188305000Y-157460000D02*
X188305000Y-155980000D01*
X188345000Y-153900000D02*
X188345000Y-152412000D01*
X188345000Y-157468000D02*
X188345000Y-155980000D01*
X188385000Y-153900000D02*
X188385000Y-152404000D01*
X188385000Y-157476000D02*
X188385000Y-155980000D01*
X188425000Y-153900000D02*
X188425000Y-152397000D01*
X188425000Y-157483000D02*
X188425000Y-155980000D01*
X188465000Y-153900000D02*
X188465000Y-152390000D01*
X188465000Y-157490000D02*
X188465000Y-155980000D01*
X188505000Y-153900000D02*
X188505000Y-152384000D01*
X188505000Y-157496000D02*
X188505000Y-155980000D01*
X188545000Y-153900000D02*
X188545000Y-152379000D01*
X188545000Y-157501000D02*
X188545000Y-155980000D01*
X188585000Y-153900000D02*
X188585000Y-152375000D01*
X188585000Y-157505000D02*
X188585000Y-155980000D01*
X188625000Y-153900000D02*
X188625000Y-152371000D01*
X188625000Y-157509000D02*
X188625000Y-155980000D01*
X188665000Y-153900000D02*
X188665000Y-152367000D01*
X188665000Y-157513000D02*
X188665000Y-155980000D01*
X188705000Y-153900000D02*
X188705000Y-152364000D01*
X188705000Y-157516000D02*
X188705000Y-155980000D01*
X188745000Y-153900000D02*
X188745000Y-152362000D01*
X188745000Y-157518000D02*
X188745000Y-155980000D01*
X188785000Y-153900000D02*
X188785000Y-152361000D01*
X188785000Y-157519000D02*
X188785000Y-155980000D01*
X188825000Y-157520000D02*
X188825000Y-155980000D01*
X188825000Y-153900000D02*
X188825000Y-152360000D01*
X188865000Y-157520000D02*
X188865000Y-155980000D01*
X188865000Y-153900000D02*
X188865000Y-152360000D01*
X191485000Y-154940000D02*
G75*
G03*
X191485000Y-154940000I-2620000J0D01*
G01*
X187175000Y-124320000D02*
X184935000Y-124320000D01*
X187175000Y-119480000D02*
X184935000Y-119480000D01*
X184935000Y-119480000D02*
X184935000Y-124320000D01*
X187175000Y-119480000D02*
X187175000Y-124320000D01*
X156695000Y-124320000D02*
X154455000Y-124320000D01*
X156695000Y-119480000D02*
X154455000Y-119480000D01*
X154455000Y-119480000D02*
X154455000Y-124320000D01*
X156695000Y-119480000D02*
X156695000Y-124320000D01*
X197345000Y-153820000D02*
X197345000Y-156060000D01*
X192505000Y-153820000D02*
X192505000Y-156060000D01*
X192505000Y-156060000D02*
X197345000Y-156060000D01*
X192505000Y-153820000D02*
X197345000Y-153820000D01*
D11*
X160282142Y-114117380D02*
X159948809Y-113641190D01*
X159710714Y-114117380D02*
X159710714Y-113117380D01*
X160091666Y-113117380D01*
X160186904Y-113165000D01*
X160234523Y-113212619D01*
X160282142Y-113307857D01*
X160282142Y-113450714D01*
X160234523Y-113545952D01*
X160186904Y-113593571D01*
X160091666Y-113641190D01*
X159710714Y-113641190D01*
X160710714Y-114117380D02*
X160710714Y-113117380D01*
X161282142Y-114117380D01*
X161282142Y-113117380D01*
X161805952Y-114117380D02*
X161996428Y-114117380D01*
X162091666Y-114069761D01*
X162139285Y-114022142D01*
X162234523Y-113879285D01*
X162282142Y-113688809D01*
X162282142Y-113307857D01*
X162234523Y-113212619D01*
X162186904Y-113165000D01*
X162091666Y-113117380D01*
X161901190Y-113117380D01*
X161805952Y-113165000D01*
X161758333Y-113212619D01*
X161710714Y-113307857D01*
X161710714Y-113545952D01*
X161758333Y-113641190D01*
X161805952Y-113688809D01*
X161901190Y-113736428D01*
X162091666Y-113736428D01*
X162186904Y-113688809D01*
X162234523Y-113641190D01*
X162282142Y-113545952D01*
X162901190Y-113117380D02*
X162996428Y-113117380D01*
X163091666Y-113165000D01*
X163139285Y-113212619D01*
X163186904Y-113307857D01*
X163234523Y-113498333D01*
X163234523Y-113736428D01*
X163186904Y-113926904D01*
X163139285Y-114022142D01*
X163091666Y-114069761D01*
X162996428Y-114117380D01*
X162901190Y-114117380D01*
X162805952Y-114069761D01*
X162758333Y-114022142D01*
X162710714Y-113926904D01*
X162663095Y-113736428D01*
X162663095Y-113498333D01*
X162710714Y-113307857D01*
X162758333Y-113212619D01*
X162805952Y-113165000D01*
X162901190Y-113117380D01*
X164186904Y-114117380D02*
X163615476Y-114117380D01*
X163901190Y-114117380D02*
X163901190Y-113117380D01*
X163805952Y-113260238D01*
X163710714Y-113355476D01*
X163615476Y-113403095D01*
X166243095Y-113450714D02*
X166243095Y-114117380D01*
X166005000Y-113069761D02*
X165766904Y-113784047D01*
X166385952Y-113784047D01*
X166671666Y-113117380D02*
X167338333Y-113117380D01*
X166909761Y-114117380D01*
X167909761Y-113117380D02*
X168005000Y-113117380D01*
X168100238Y-113165000D01*
X168147857Y-113212619D01*
X168195476Y-113307857D01*
X168243095Y-113498333D01*
X168243095Y-113736428D01*
X168195476Y-113926904D01*
X168147857Y-114022142D01*
X168100238Y-114069761D01*
X168005000Y-114117380D01*
X167909761Y-114117380D01*
X167814523Y-114069761D01*
X167766904Y-114022142D01*
X167719285Y-113926904D01*
X167671666Y-113736428D01*
X167671666Y-113498333D01*
X167719285Y-113307857D01*
X167766904Y-113212619D01*
X167814523Y-113165000D01*
X167909761Y-113117380D01*
X190762142Y-114257380D02*
X190428809Y-113781190D01*
X190190714Y-114257380D02*
X190190714Y-113257380D01*
X190571666Y-113257380D01*
X190666904Y-113305000D01*
X190714523Y-113352619D01*
X190762142Y-113447857D01*
X190762142Y-113590714D01*
X190714523Y-113685952D01*
X190666904Y-113733571D01*
X190571666Y-113781190D01*
X190190714Y-113781190D01*
X191190714Y-114257380D02*
X191190714Y-113257380D01*
X191762142Y-114257380D01*
X191762142Y-113257380D01*
X192285952Y-114257380D02*
X192476428Y-114257380D01*
X192571666Y-114209761D01*
X192619285Y-114162142D01*
X192714523Y-114019285D01*
X192762142Y-113828809D01*
X192762142Y-113447857D01*
X192714523Y-113352619D01*
X192666904Y-113305000D01*
X192571666Y-113257380D01*
X192381190Y-113257380D01*
X192285952Y-113305000D01*
X192238333Y-113352619D01*
X192190714Y-113447857D01*
X192190714Y-113685952D01*
X192238333Y-113781190D01*
X192285952Y-113828809D01*
X192381190Y-113876428D01*
X192571666Y-113876428D01*
X192666904Y-113828809D01*
X192714523Y-113781190D01*
X192762142Y-113685952D01*
X193381190Y-113257380D02*
X193476428Y-113257380D01*
X193571666Y-113305000D01*
X193619285Y-113352619D01*
X193666904Y-113447857D01*
X193714523Y-113638333D01*
X193714523Y-113876428D01*
X193666904Y-114066904D01*
X193619285Y-114162142D01*
X193571666Y-114209761D01*
X193476428Y-114257380D01*
X193381190Y-114257380D01*
X193285952Y-114209761D01*
X193238333Y-114162142D01*
X193190714Y-114066904D01*
X193143095Y-113876428D01*
X193143095Y-113638333D01*
X193190714Y-113447857D01*
X193238333Y-113352619D01*
X193285952Y-113305000D01*
X193381190Y-113257380D01*
X194095476Y-113352619D02*
X194143095Y-113305000D01*
X194238333Y-113257380D01*
X194476428Y-113257380D01*
X194571666Y-113305000D01*
X194619285Y-113352619D01*
X194666904Y-113447857D01*
X194666904Y-113543095D01*
X194619285Y-113685952D01*
X194047857Y-114257380D01*
X194666904Y-114257380D01*
X196723095Y-113450714D02*
X196723095Y-114117380D01*
X196485000Y-113069761D02*
X196246904Y-113784047D01*
X196865952Y-113784047D01*
X197151666Y-113117380D02*
X197818333Y-113117380D01*
X197389761Y-114117380D01*
X198389761Y-113117380D02*
X198485000Y-113117380D01*
X198580238Y-113165000D01*
X198627857Y-113212619D01*
X198675476Y-113307857D01*
X198723095Y-113498333D01*
X198723095Y-113736428D01*
X198675476Y-113926904D01*
X198627857Y-114022142D01*
X198580238Y-114069761D01*
X198485000Y-114117380D01*
X198389761Y-114117380D01*
X198294523Y-114069761D01*
X198246904Y-114022142D01*
X198199285Y-113926904D01*
X198151666Y-113736428D01*
X198151666Y-113498333D01*
X198199285Y-113307857D01*
X198246904Y-113212619D01*
X198294523Y-113165000D01*
X198389761Y-113117380D01*
X163222380Y-144803571D02*
X162222380Y-144803571D01*
X163127142Y-143755952D02*
X163174761Y-143803571D01*
X163222380Y-143946428D01*
X163222380Y-144041666D01*
X163174761Y-144184523D01*
X163079523Y-144279761D01*
X162984285Y-144327380D01*
X162793809Y-144375000D01*
X162650952Y-144375000D01*
X162460476Y-144327380D01*
X162365238Y-144279761D01*
X162270000Y-144184523D01*
X162222380Y-144041666D01*
X162222380Y-143946428D01*
X162270000Y-143803571D01*
X162317619Y-143755952D01*
X163222380Y-142803571D02*
X163222380Y-143375000D01*
X163222380Y-143089285D02*
X162222380Y-143089285D01*
X162365238Y-143184523D01*
X162460476Y-143279761D01*
X162508095Y-143375000D01*
X163222380Y-141851190D02*
X163222380Y-142422619D01*
X163222380Y-142136904D02*
X162222380Y-142136904D01*
X162365238Y-142232142D01*
X162460476Y-142327380D01*
X162508095Y-142422619D01*
X163222380Y-140898809D02*
X163222380Y-141470238D01*
X163222380Y-141184523D02*
X162222380Y-141184523D01*
X162365238Y-141279761D01*
X162460476Y-141375000D01*
X162508095Y-141470238D01*
X186420476Y-142327380D02*
X187087142Y-142327380D01*
X186420476Y-143327380D01*
X187087142Y-143327380D01*
X187610952Y-142755952D02*
X187515714Y-142708333D01*
X187468095Y-142660714D01*
X187420476Y-142565476D01*
X187420476Y-142517857D01*
X187468095Y-142422619D01*
X187515714Y-142375000D01*
X187610952Y-142327380D01*
X187801428Y-142327380D01*
X187896666Y-142375000D01*
X187944285Y-142422619D01*
X187991904Y-142517857D01*
X187991904Y-142565476D01*
X187944285Y-142660714D01*
X187896666Y-142708333D01*
X187801428Y-142755952D01*
X187610952Y-142755952D01*
X187515714Y-142803571D01*
X187468095Y-142851190D01*
X187420476Y-142946428D01*
X187420476Y-143136904D01*
X187468095Y-143232142D01*
X187515714Y-143279761D01*
X187610952Y-143327380D01*
X187801428Y-143327380D01*
X187896666Y-143279761D01*
X187944285Y-143232142D01*
X187991904Y-143136904D01*
X187991904Y-142946428D01*
X187944285Y-142851190D01*
X187896666Y-142803571D01*
X187801428Y-142755952D01*
X188610952Y-142327380D02*
X188706190Y-142327380D01*
X188801428Y-142375000D01*
X188849047Y-142422619D01*
X188896666Y-142517857D01*
X188944285Y-142708333D01*
X188944285Y-142946428D01*
X188896666Y-143136904D01*
X188849047Y-143232142D01*
X188801428Y-143279761D01*
X188706190Y-143327380D01*
X188610952Y-143327380D01*
X188515714Y-143279761D01*
X188468095Y-143232142D01*
X188420476Y-143136904D01*
X188372857Y-142946428D01*
X188372857Y-142708333D01*
X188420476Y-142517857D01*
X188468095Y-142422619D01*
X188515714Y-142375000D01*
X188610952Y-142327380D01*
X189944285Y-143232142D02*
X189896666Y-143279761D01*
X189753809Y-143327380D01*
X189658571Y-143327380D01*
X189515714Y-143279761D01*
X189420476Y-143184523D01*
X189372857Y-143089285D01*
X189325238Y-142898809D01*
X189325238Y-142755952D01*
X189372857Y-142565476D01*
X189420476Y-142470238D01*
X189515714Y-142375000D01*
X189658571Y-142327380D01*
X189753809Y-142327380D01*
X189896666Y-142375000D01*
X189944285Y-142422619D01*
X190372857Y-143327380D02*
X190372857Y-142327380D01*
X190753809Y-142327380D01*
X190849047Y-142375000D01*
X190896666Y-142422619D01*
X190944285Y-142517857D01*
X190944285Y-142660714D01*
X190896666Y-142755952D01*
X190849047Y-142803571D01*
X190753809Y-142851190D01*
X190372857Y-142851190D01*
X191372857Y-142327380D02*
X191372857Y-143136904D01*
X191420476Y-143232142D01*
X191468095Y-143279761D01*
X191563333Y-143327380D01*
X191753809Y-143327380D01*
X191849047Y-143279761D01*
X191896666Y-143232142D01*
X191944285Y-143136904D01*
X191944285Y-142327380D01*
X221897380Y-138914047D02*
X221421190Y-139247380D01*
X221897380Y-139485476D02*
X220897380Y-139485476D01*
X220897380Y-139104523D01*
X220945000Y-139009285D01*
X220992619Y-138961666D01*
X221087857Y-138914047D01*
X221230714Y-138914047D01*
X221325952Y-138961666D01*
X221373571Y-139009285D01*
X221421190Y-139104523D01*
X221421190Y-139485476D01*
X221897380Y-137961666D02*
X221897380Y-138533095D01*
X221897380Y-138247380D02*
X220897380Y-138247380D01*
X221040238Y-138342619D01*
X221135476Y-138437857D01*
X221183095Y-138533095D01*
X221897380Y-137009285D02*
X221897380Y-137580714D01*
X221897380Y-137295000D02*
X220897380Y-137295000D01*
X221040238Y-137390238D01*
X221135476Y-137485476D01*
X221183095Y-137580714D01*
X220897380Y-136390238D02*
X220897380Y-136295000D01*
X220945000Y-136199761D01*
X220992619Y-136152142D01*
X221087857Y-136104523D01*
X221278333Y-136056904D01*
X221516428Y-136056904D01*
X221706904Y-136104523D01*
X221802142Y-136152142D01*
X221849761Y-136199761D01*
X221897380Y-136295000D01*
X221897380Y-136390238D01*
X221849761Y-136485476D01*
X221802142Y-136533095D01*
X221706904Y-136580714D01*
X221516428Y-136628333D01*
X221278333Y-136628333D01*
X221087857Y-136580714D01*
X220992619Y-136533095D01*
X220945000Y-136485476D01*
X220897380Y-136390238D01*
X218622619Y-138961666D02*
X218575000Y-138914047D01*
X218527380Y-138818809D01*
X218527380Y-138580714D01*
X218575000Y-138485476D01*
X218622619Y-138437857D01*
X218717857Y-138390238D01*
X218813095Y-138390238D01*
X218955952Y-138437857D01*
X219527380Y-139009285D01*
X219527380Y-138390238D01*
X219527380Y-137961666D02*
X218527380Y-137961666D01*
X219146428Y-137866428D02*
X219527380Y-137580714D01*
X218860714Y-137580714D02*
X219241666Y-137961666D01*
X218622619Y-137199761D02*
X218575000Y-137152142D01*
X218527380Y-137056904D01*
X218527380Y-136818809D01*
X218575000Y-136723571D01*
X218622619Y-136675952D01*
X218717857Y-136628333D01*
X218813095Y-136628333D01*
X218955952Y-136675952D01*
X219527380Y-137247380D01*
X219527380Y-136628333D01*
X222067380Y-149074047D02*
X221591190Y-149407380D01*
X222067380Y-149645476D02*
X221067380Y-149645476D01*
X221067380Y-149264523D01*
X221115000Y-149169285D01*
X221162619Y-149121666D01*
X221257857Y-149074047D01*
X221400714Y-149074047D01*
X221495952Y-149121666D01*
X221543571Y-149169285D01*
X221591190Y-149264523D01*
X221591190Y-149645476D01*
X222067380Y-148121666D02*
X222067380Y-148693095D01*
X222067380Y-148407380D02*
X221067380Y-148407380D01*
X221210238Y-148502619D01*
X221305476Y-148597857D01*
X221353095Y-148693095D01*
X221067380Y-147502619D02*
X221067380Y-147407380D01*
X221115000Y-147312142D01*
X221162619Y-147264523D01*
X221257857Y-147216904D01*
X221448333Y-147169285D01*
X221686428Y-147169285D01*
X221876904Y-147216904D01*
X221972142Y-147264523D01*
X222019761Y-147312142D01*
X222067380Y-147407380D01*
X222067380Y-147502619D01*
X222019761Y-147597857D01*
X221972142Y-147645476D01*
X221876904Y-147693095D01*
X221686428Y-147740714D01*
X221448333Y-147740714D01*
X221257857Y-147693095D01*
X221162619Y-147645476D01*
X221115000Y-147597857D01*
X221067380Y-147502619D01*
X222067380Y-146693095D02*
X222067380Y-146502619D01*
X222019761Y-146407380D01*
X221972142Y-146359761D01*
X221829285Y-146264523D01*
X221638809Y-146216904D01*
X221257857Y-146216904D01*
X221162619Y-146264523D01*
X221115000Y-146312142D01*
X221067380Y-146407380D01*
X221067380Y-146597857D01*
X221115000Y-146693095D01*
X221162619Y-146740714D01*
X221257857Y-146788333D01*
X221495952Y-146788333D01*
X221591190Y-146740714D01*
X221638809Y-146693095D01*
X221686428Y-146597857D01*
X221686428Y-146407380D01*
X221638809Y-146312142D01*
X221591190Y-146264523D01*
X221495952Y-146216904D01*
X218622619Y-149121666D02*
X218575000Y-149074047D01*
X218527380Y-148978809D01*
X218527380Y-148740714D01*
X218575000Y-148645476D01*
X218622619Y-148597857D01*
X218717857Y-148550238D01*
X218813095Y-148550238D01*
X218955952Y-148597857D01*
X219527380Y-149169285D01*
X219527380Y-148550238D01*
X219527380Y-148121666D02*
X218527380Y-148121666D01*
X219146428Y-148026428D02*
X219527380Y-147740714D01*
X218860714Y-147740714D02*
X219241666Y-148121666D01*
X218622619Y-147359761D02*
X218575000Y-147312142D01*
X218527380Y-147216904D01*
X218527380Y-146978809D01*
X218575000Y-146883571D01*
X218622619Y-146835952D01*
X218717857Y-146788333D01*
X218813095Y-146788333D01*
X218955952Y-146835952D01*
X219527380Y-147407380D01*
X219527380Y-146788333D01*
X158416666Y-158837380D02*
X158416666Y-159551666D01*
X158369047Y-159694523D01*
X158273809Y-159789761D01*
X158130952Y-159837380D01*
X158035714Y-159837380D01*
X159416666Y-159837380D02*
X158845238Y-159837380D01*
X159130952Y-159837380D02*
X159130952Y-158837380D01*
X159035714Y-158980238D01*
X158940476Y-159075476D01*
X158845238Y-159123095D01*
X162211428Y-159837380D02*
X162211428Y-158837380D01*
X162544761Y-159551666D01*
X162878095Y-158837380D01*
X162878095Y-159837380D01*
X163259047Y-158837380D02*
X163925714Y-159837380D01*
X163925714Y-158837380D02*
X163259047Y-159837380D01*
X164735238Y-159170714D02*
X164735238Y-159837380D01*
X164497142Y-158789761D02*
X164259047Y-159504047D01*
X164878095Y-159504047D01*
X166592380Y-159742142D02*
X166544761Y-159789761D01*
X166401904Y-159837380D01*
X166306666Y-159837380D01*
X166163809Y-159789761D01*
X166068571Y-159694523D01*
X166020952Y-159599285D01*
X165973333Y-159408809D01*
X165973333Y-159265952D01*
X166020952Y-159075476D01*
X166068571Y-158980238D01*
X166163809Y-158885000D01*
X166306666Y-158837380D01*
X166401904Y-158837380D01*
X166544761Y-158885000D01*
X166592380Y-158932619D01*
X167163809Y-159837380D02*
X167068571Y-159789761D01*
X167020952Y-159742142D01*
X166973333Y-159646904D01*
X166973333Y-159361190D01*
X167020952Y-159265952D01*
X167068571Y-159218333D01*
X167163809Y-159170714D01*
X167306666Y-159170714D01*
X167401904Y-159218333D01*
X167449523Y-159265952D01*
X167497142Y-159361190D01*
X167497142Y-159646904D01*
X167449523Y-159742142D01*
X167401904Y-159789761D01*
X167306666Y-159837380D01*
X167163809Y-159837380D01*
X167925714Y-159170714D02*
X167925714Y-159837380D01*
X167925714Y-159265952D02*
X167973333Y-159218333D01*
X168068571Y-159170714D01*
X168211428Y-159170714D01*
X168306666Y-159218333D01*
X168354285Y-159313571D01*
X168354285Y-159837380D01*
X168830476Y-159170714D02*
X168830476Y-159837380D01*
X168830476Y-159265952D02*
X168878095Y-159218333D01*
X168973333Y-159170714D01*
X169116190Y-159170714D01*
X169211428Y-159218333D01*
X169259047Y-159313571D01*
X169259047Y-159837380D01*
X170116190Y-159789761D02*
X170020952Y-159837380D01*
X169830476Y-159837380D01*
X169735238Y-159789761D01*
X169687619Y-159694523D01*
X169687619Y-159313571D01*
X169735238Y-159218333D01*
X169830476Y-159170714D01*
X170020952Y-159170714D01*
X170116190Y-159218333D01*
X170163809Y-159313571D01*
X170163809Y-159408809D01*
X169687619Y-159504047D01*
X171020952Y-159789761D02*
X170925714Y-159837380D01*
X170735238Y-159837380D01*
X170640000Y-159789761D01*
X170592380Y-159742142D01*
X170544761Y-159646904D01*
X170544761Y-159361190D01*
X170592380Y-159265952D01*
X170640000Y-159218333D01*
X170735238Y-159170714D01*
X170925714Y-159170714D01*
X171020952Y-159218333D01*
X171306666Y-159170714D02*
X171687619Y-159170714D01*
X171449523Y-158837380D02*
X171449523Y-159694523D01*
X171497142Y-159789761D01*
X171592380Y-159837380D01*
X171687619Y-159837380D01*
X172163809Y-159837380D02*
X172068571Y-159789761D01*
X172020952Y-159742142D01*
X171973333Y-159646904D01*
X171973333Y-159361190D01*
X172020952Y-159265952D01*
X172068571Y-159218333D01*
X172163809Y-159170714D01*
X172306666Y-159170714D01*
X172401904Y-159218333D01*
X172449523Y-159265952D01*
X172497142Y-159361190D01*
X172497142Y-159646904D01*
X172449523Y-159742142D01*
X172401904Y-159789761D01*
X172306666Y-159837380D01*
X172163809Y-159837380D01*
X172925714Y-159837380D02*
X172925714Y-159170714D01*
X172925714Y-159361190D02*
X172973333Y-159265952D01*
X173020952Y-159218333D01*
X173116190Y-159170714D01*
X173211428Y-159170714D01*
X187352380Y-128928571D02*
X186352380Y-128928571D01*
X187257142Y-127880952D02*
X187304761Y-127928571D01*
X187352380Y-128071428D01*
X187352380Y-128166666D01*
X187304761Y-128309523D01*
X187209523Y-128404761D01*
X187114285Y-128452380D01*
X186923809Y-128500000D01*
X186780952Y-128500000D01*
X186590476Y-128452380D01*
X186495238Y-128404761D01*
X186400000Y-128309523D01*
X186352380Y-128166666D01*
X186352380Y-128071428D01*
X186400000Y-127928571D01*
X186447619Y-127880952D01*
X187352380Y-127404761D02*
X187352380Y-127214285D01*
X187304761Y-127119047D01*
X187257142Y-127071428D01*
X187114285Y-126976190D01*
X186923809Y-126928571D01*
X186542857Y-126928571D01*
X186447619Y-126976190D01*
X186400000Y-127023809D01*
X186352380Y-127119047D01*
X186352380Y-127309523D01*
X186400000Y-127404761D01*
X186447619Y-127452380D01*
X186542857Y-127500000D01*
X186780952Y-127500000D01*
X186876190Y-127452380D01*
X186923809Y-127404761D01*
X186971428Y-127309523D01*
X186971428Y-127119047D01*
X186923809Y-127023809D01*
X186876190Y-126976190D01*
X186780952Y-126928571D01*
X186352380Y-126309523D02*
X186352380Y-126214285D01*
X186400000Y-126119047D01*
X186447619Y-126071428D01*
X186542857Y-126023809D01*
X186733333Y-125976190D01*
X186971428Y-125976190D01*
X187161904Y-126023809D01*
X187257142Y-126071428D01*
X187304761Y-126119047D01*
X187352380Y-126214285D01*
X187352380Y-126309523D01*
X187304761Y-126404761D01*
X187257142Y-126452380D01*
X187161904Y-126500000D01*
X186971428Y-126547619D01*
X186733333Y-126547619D01*
X186542857Y-126500000D01*
X186447619Y-126452380D01*
X186400000Y-126404761D01*
X186352380Y-126309523D01*
X186447619Y-125595238D02*
X186400000Y-125547619D01*
X186352380Y-125452380D01*
X186352380Y-125214285D01*
X186400000Y-125119047D01*
X186447619Y-125071428D01*
X186542857Y-125023809D01*
X186638095Y-125023809D01*
X186780952Y-125071428D01*
X187352380Y-125642857D01*
X187352380Y-125023809D01*
X197540952Y-123912380D02*
X198207619Y-123912380D01*
X197779047Y-124912380D01*
X199017142Y-124245714D02*
X199017142Y-124912380D01*
X198779047Y-123864761D02*
X198540952Y-124579047D01*
X199160000Y-124579047D01*
X200017142Y-124912380D02*
X199540952Y-124912380D01*
X199540952Y-123912380D01*
X200302857Y-124864761D02*
X200445714Y-124912380D01*
X200683809Y-124912380D01*
X200779047Y-124864761D01*
X200826666Y-124817142D01*
X200874285Y-124721904D01*
X200874285Y-124626666D01*
X200826666Y-124531428D01*
X200779047Y-124483809D01*
X200683809Y-124436190D01*
X200493333Y-124388571D01*
X200398095Y-124340952D01*
X200350476Y-124293333D01*
X200302857Y-124198095D01*
X200302857Y-124102857D01*
X200350476Y-124007619D01*
X200398095Y-123960000D01*
X200493333Y-123912380D01*
X200731428Y-123912380D01*
X200874285Y-123960000D01*
X201255238Y-124007619D02*
X201302857Y-123960000D01*
X201398095Y-123912380D01*
X201636190Y-123912380D01*
X201731428Y-123960000D01*
X201779047Y-124007619D01*
X201826666Y-124102857D01*
X201826666Y-124198095D01*
X201779047Y-124340952D01*
X201207619Y-124912380D01*
X201826666Y-124912380D01*
X202683809Y-124245714D02*
X202683809Y-124912380D01*
X202445714Y-123864761D02*
X202207619Y-124579047D01*
X202826666Y-124579047D01*
X203683809Y-123912380D02*
X203207619Y-123912380D01*
X203160000Y-124388571D01*
X203207619Y-124340952D01*
X203302857Y-124293333D01*
X203540952Y-124293333D01*
X203636190Y-124340952D01*
X203683809Y-124388571D01*
X203731428Y-124483809D01*
X203731428Y-124721904D01*
X203683809Y-124817142D01*
X203636190Y-124864761D01*
X203540952Y-124912380D01*
X203302857Y-124912380D01*
X203207619Y-124864761D01*
X203160000Y-124817142D01*
X156872380Y-128928571D02*
X155872380Y-128928571D01*
X156777142Y-127880952D02*
X156824761Y-127928571D01*
X156872380Y-128071428D01*
X156872380Y-128166666D01*
X156824761Y-128309523D01*
X156729523Y-128404761D01*
X156634285Y-128452380D01*
X156443809Y-128500000D01*
X156300952Y-128500000D01*
X156110476Y-128452380D01*
X156015238Y-128404761D01*
X155920000Y-128309523D01*
X155872380Y-128166666D01*
X155872380Y-128071428D01*
X155920000Y-127928571D01*
X155967619Y-127880952D01*
X156872380Y-127404761D02*
X156872380Y-127214285D01*
X156824761Y-127119047D01*
X156777142Y-127071428D01*
X156634285Y-126976190D01*
X156443809Y-126928571D01*
X156062857Y-126928571D01*
X155967619Y-126976190D01*
X155920000Y-127023809D01*
X155872380Y-127119047D01*
X155872380Y-127309523D01*
X155920000Y-127404761D01*
X155967619Y-127452380D01*
X156062857Y-127500000D01*
X156300952Y-127500000D01*
X156396190Y-127452380D01*
X156443809Y-127404761D01*
X156491428Y-127309523D01*
X156491428Y-127119047D01*
X156443809Y-127023809D01*
X156396190Y-126976190D01*
X156300952Y-126928571D01*
X155872380Y-126309523D02*
X155872380Y-126214285D01*
X155920000Y-126119047D01*
X155967619Y-126071428D01*
X156062857Y-126023809D01*
X156253333Y-125976190D01*
X156491428Y-125976190D01*
X156681904Y-126023809D01*
X156777142Y-126071428D01*
X156824761Y-126119047D01*
X156872380Y-126214285D01*
X156872380Y-126309523D01*
X156824761Y-126404761D01*
X156777142Y-126452380D01*
X156681904Y-126500000D01*
X156491428Y-126547619D01*
X156253333Y-126547619D01*
X156062857Y-126500000D01*
X155967619Y-126452380D01*
X155920000Y-126404761D01*
X155872380Y-126309523D01*
X156872380Y-125023809D02*
X156872380Y-125595238D01*
X156872380Y-125309523D02*
X155872380Y-125309523D01*
X156015238Y-125404761D01*
X156110476Y-125500000D01*
X156158095Y-125595238D01*
X167060952Y-123912380D02*
X167727619Y-123912380D01*
X167299047Y-124912380D01*
X168537142Y-124245714D02*
X168537142Y-124912380D01*
X168299047Y-123864761D02*
X168060952Y-124579047D01*
X168680000Y-124579047D01*
X169537142Y-124912380D02*
X169060952Y-124912380D01*
X169060952Y-123912380D01*
X169822857Y-124864761D02*
X169965714Y-124912380D01*
X170203809Y-124912380D01*
X170299047Y-124864761D01*
X170346666Y-124817142D01*
X170394285Y-124721904D01*
X170394285Y-124626666D01*
X170346666Y-124531428D01*
X170299047Y-124483809D01*
X170203809Y-124436190D01*
X170013333Y-124388571D01*
X169918095Y-124340952D01*
X169870476Y-124293333D01*
X169822857Y-124198095D01*
X169822857Y-124102857D01*
X169870476Y-124007619D01*
X169918095Y-123960000D01*
X170013333Y-123912380D01*
X170251428Y-123912380D01*
X170394285Y-123960000D01*
X170775238Y-124007619D02*
X170822857Y-123960000D01*
X170918095Y-123912380D01*
X171156190Y-123912380D01*
X171251428Y-123960000D01*
X171299047Y-124007619D01*
X171346666Y-124102857D01*
X171346666Y-124198095D01*
X171299047Y-124340952D01*
X170727619Y-124912380D01*
X171346666Y-124912380D01*
X172203809Y-124245714D02*
X172203809Y-124912380D01*
X171965714Y-123864761D02*
X171727619Y-124579047D01*
X172346666Y-124579047D01*
X173203809Y-123912380D02*
X172727619Y-123912380D01*
X172680000Y-124388571D01*
X172727619Y-124340952D01*
X172822857Y-124293333D01*
X173060952Y-124293333D01*
X173156190Y-124340952D01*
X173203809Y-124388571D01*
X173251428Y-124483809D01*
X173251428Y-124721904D01*
X173203809Y-124817142D01*
X173156190Y-124864761D01*
X173060952Y-124912380D01*
X172822857Y-124912380D01*
X172727619Y-124864761D01*
X172680000Y-124817142D01*
X245692380Y-111445476D02*
X244692380Y-111445476D01*
X244692380Y-111207380D01*
X244740000Y-111064523D01*
X244835238Y-110969285D01*
X244930476Y-110921666D01*
X245120952Y-110874047D01*
X245263809Y-110874047D01*
X245454285Y-110921666D01*
X245549523Y-110969285D01*
X245644761Y-111064523D01*
X245692380Y-111207380D01*
X245692380Y-111445476D01*
X245692380Y-110397857D02*
X245692380Y-110207380D01*
X245644761Y-110112142D01*
X245597142Y-110064523D01*
X245454285Y-109969285D01*
X245263809Y-109921666D01*
X244882857Y-109921666D01*
X244787619Y-109969285D01*
X244740000Y-110016904D01*
X244692380Y-110112142D01*
X244692380Y-110302619D01*
X244740000Y-110397857D01*
X244787619Y-110445476D01*
X244882857Y-110493095D01*
X245120952Y-110493095D01*
X245216190Y-110445476D01*
X245263809Y-110397857D01*
X245311428Y-110302619D01*
X245311428Y-110112142D01*
X245263809Y-110016904D01*
X245216190Y-109969285D01*
X245120952Y-109921666D01*
X245692380Y-108969285D02*
X245692380Y-109540714D01*
X245692380Y-109255000D02*
X244692380Y-109255000D01*
X244835238Y-109350238D01*
X244930476Y-109445476D01*
X244978095Y-109540714D01*
X244692380Y-108112142D02*
X244692380Y-108302619D01*
X244740000Y-108397857D01*
X244787619Y-108445476D01*
X244930476Y-108540714D01*
X245120952Y-108588333D01*
X245501904Y-108588333D01*
X245597142Y-108540714D01*
X245644761Y-108493095D01*
X245692380Y-108397857D01*
X245692380Y-108207380D01*
X245644761Y-108112142D01*
X245597142Y-108064523D01*
X245501904Y-108016904D01*
X245263809Y-108016904D01*
X245168571Y-108064523D01*
X245120952Y-108112142D01*
X245073333Y-108207380D01*
X245073333Y-108397857D01*
X245120952Y-108493095D01*
X245168571Y-108540714D01*
X245263809Y-108588333D01*
X239692380Y-111445476D02*
X238692380Y-111445476D01*
X238692380Y-111207380D01*
X238740000Y-111064523D01*
X238835238Y-110969285D01*
X238930476Y-110921666D01*
X239120952Y-110874047D01*
X239263809Y-110874047D01*
X239454285Y-110921666D01*
X239549523Y-110969285D01*
X239644761Y-111064523D01*
X239692380Y-111207380D01*
X239692380Y-111445476D01*
X239692380Y-110397857D02*
X239692380Y-110207380D01*
X239644761Y-110112142D01*
X239597142Y-110064523D01*
X239454285Y-109969285D01*
X239263809Y-109921666D01*
X238882857Y-109921666D01*
X238787619Y-109969285D01*
X238740000Y-110016904D01*
X238692380Y-110112142D01*
X238692380Y-110302619D01*
X238740000Y-110397857D01*
X238787619Y-110445476D01*
X238882857Y-110493095D01*
X239120952Y-110493095D01*
X239216190Y-110445476D01*
X239263809Y-110397857D01*
X239311428Y-110302619D01*
X239311428Y-110112142D01*
X239263809Y-110016904D01*
X239216190Y-109969285D01*
X239120952Y-109921666D01*
X239692380Y-108969285D02*
X239692380Y-109540714D01*
X239692380Y-109255000D02*
X238692380Y-109255000D01*
X238835238Y-109350238D01*
X238930476Y-109445476D01*
X238978095Y-109540714D01*
X238692380Y-108064523D02*
X238692380Y-108540714D01*
X239168571Y-108588333D01*
X239120952Y-108540714D01*
X239073333Y-108445476D01*
X239073333Y-108207380D01*
X239120952Y-108112142D01*
X239168571Y-108064523D01*
X239263809Y-108016904D01*
X239501904Y-108016904D01*
X239597142Y-108064523D01*
X239644761Y-108112142D01*
X239692380Y-108207380D01*
X239692380Y-108445476D01*
X239644761Y-108540714D01*
X239597142Y-108588333D01*
X233692380Y-111445476D02*
X232692380Y-111445476D01*
X232692380Y-111207380D01*
X232740000Y-111064523D01*
X232835238Y-110969285D01*
X232930476Y-110921666D01*
X233120952Y-110874047D01*
X233263809Y-110874047D01*
X233454285Y-110921666D01*
X233549523Y-110969285D01*
X233644761Y-111064523D01*
X233692380Y-111207380D01*
X233692380Y-111445476D01*
X233692380Y-110397857D02*
X233692380Y-110207380D01*
X233644761Y-110112142D01*
X233597142Y-110064523D01*
X233454285Y-109969285D01*
X233263809Y-109921666D01*
X232882857Y-109921666D01*
X232787619Y-109969285D01*
X232740000Y-110016904D01*
X232692380Y-110112142D01*
X232692380Y-110302619D01*
X232740000Y-110397857D01*
X232787619Y-110445476D01*
X232882857Y-110493095D01*
X233120952Y-110493095D01*
X233216190Y-110445476D01*
X233263809Y-110397857D01*
X233311428Y-110302619D01*
X233311428Y-110112142D01*
X233263809Y-110016904D01*
X233216190Y-109969285D01*
X233120952Y-109921666D01*
X233692380Y-108969285D02*
X233692380Y-109540714D01*
X233692380Y-109255000D02*
X232692380Y-109255000D01*
X232835238Y-109350238D01*
X232930476Y-109445476D01*
X232978095Y-109540714D01*
X233025714Y-108112142D02*
X233692380Y-108112142D01*
X232644761Y-108350238D02*
X233359047Y-108588333D01*
X233359047Y-107969285D01*
X227692380Y-111445476D02*
X226692380Y-111445476D01*
X226692380Y-111207380D01*
X226740000Y-111064523D01*
X226835238Y-110969285D01*
X226930476Y-110921666D01*
X227120952Y-110874047D01*
X227263809Y-110874047D01*
X227454285Y-110921666D01*
X227549523Y-110969285D01*
X227644761Y-111064523D01*
X227692380Y-111207380D01*
X227692380Y-111445476D01*
X227692380Y-110397857D02*
X227692380Y-110207380D01*
X227644761Y-110112142D01*
X227597142Y-110064523D01*
X227454285Y-109969285D01*
X227263809Y-109921666D01*
X226882857Y-109921666D01*
X226787619Y-109969285D01*
X226740000Y-110016904D01*
X226692380Y-110112142D01*
X226692380Y-110302619D01*
X226740000Y-110397857D01*
X226787619Y-110445476D01*
X226882857Y-110493095D01*
X227120952Y-110493095D01*
X227216190Y-110445476D01*
X227263809Y-110397857D01*
X227311428Y-110302619D01*
X227311428Y-110112142D01*
X227263809Y-110016904D01*
X227216190Y-109969285D01*
X227120952Y-109921666D01*
X227692380Y-108969285D02*
X227692380Y-109540714D01*
X227692380Y-109255000D02*
X226692380Y-109255000D01*
X226835238Y-109350238D01*
X226930476Y-109445476D01*
X226978095Y-109540714D01*
X226692380Y-108635952D02*
X226692380Y-108016904D01*
X227073333Y-108350238D01*
X227073333Y-108207380D01*
X227120952Y-108112142D01*
X227168571Y-108064523D01*
X227263809Y-108016904D01*
X227501904Y-108016904D01*
X227597142Y-108064523D01*
X227644761Y-108112142D01*
X227692380Y-108207380D01*
X227692380Y-108493095D01*
X227644761Y-108588333D01*
X227597142Y-108635952D01*
X221692380Y-111445476D02*
X220692380Y-111445476D01*
X220692380Y-111207380D01*
X220740000Y-111064523D01*
X220835238Y-110969285D01*
X220930476Y-110921666D01*
X221120952Y-110874047D01*
X221263809Y-110874047D01*
X221454285Y-110921666D01*
X221549523Y-110969285D01*
X221644761Y-111064523D01*
X221692380Y-111207380D01*
X221692380Y-111445476D01*
X221692380Y-110397857D02*
X221692380Y-110207380D01*
X221644761Y-110112142D01*
X221597142Y-110064523D01*
X221454285Y-109969285D01*
X221263809Y-109921666D01*
X220882857Y-109921666D01*
X220787619Y-109969285D01*
X220740000Y-110016904D01*
X220692380Y-110112142D01*
X220692380Y-110302619D01*
X220740000Y-110397857D01*
X220787619Y-110445476D01*
X220882857Y-110493095D01*
X221120952Y-110493095D01*
X221216190Y-110445476D01*
X221263809Y-110397857D01*
X221311428Y-110302619D01*
X221311428Y-110112142D01*
X221263809Y-110016904D01*
X221216190Y-109969285D01*
X221120952Y-109921666D01*
X221692380Y-108969285D02*
X221692380Y-109540714D01*
X221692380Y-109255000D02*
X220692380Y-109255000D01*
X220835238Y-109350238D01*
X220930476Y-109445476D01*
X220978095Y-109540714D01*
X220787619Y-108588333D02*
X220740000Y-108540714D01*
X220692380Y-108445476D01*
X220692380Y-108207380D01*
X220740000Y-108112142D01*
X220787619Y-108064523D01*
X220882857Y-108016904D01*
X220978095Y-108016904D01*
X221120952Y-108064523D01*
X221692380Y-108635952D01*
X221692380Y-108016904D01*
X215692380Y-111445476D02*
X214692380Y-111445476D01*
X214692380Y-111207380D01*
X214740000Y-111064523D01*
X214835238Y-110969285D01*
X214930476Y-110921666D01*
X215120952Y-110874047D01*
X215263809Y-110874047D01*
X215454285Y-110921666D01*
X215549523Y-110969285D01*
X215644761Y-111064523D01*
X215692380Y-111207380D01*
X215692380Y-111445476D01*
X215692380Y-110397857D02*
X215692380Y-110207380D01*
X215644761Y-110112142D01*
X215597142Y-110064523D01*
X215454285Y-109969285D01*
X215263809Y-109921666D01*
X214882857Y-109921666D01*
X214787619Y-109969285D01*
X214740000Y-110016904D01*
X214692380Y-110112142D01*
X214692380Y-110302619D01*
X214740000Y-110397857D01*
X214787619Y-110445476D01*
X214882857Y-110493095D01*
X215120952Y-110493095D01*
X215216190Y-110445476D01*
X215263809Y-110397857D01*
X215311428Y-110302619D01*
X215311428Y-110112142D01*
X215263809Y-110016904D01*
X215216190Y-109969285D01*
X215120952Y-109921666D01*
X215692380Y-108969285D02*
X215692380Y-109540714D01*
X215692380Y-109255000D02*
X214692380Y-109255000D01*
X214835238Y-109350238D01*
X214930476Y-109445476D01*
X214978095Y-109540714D01*
X215692380Y-108016904D02*
X215692380Y-108588333D01*
X215692380Y-108302619D02*
X214692380Y-108302619D01*
X214835238Y-108397857D01*
X214930476Y-108493095D01*
X214978095Y-108588333D01*
X209692380Y-111445476D02*
X208692380Y-111445476D01*
X208692380Y-111207380D01*
X208740000Y-111064523D01*
X208835238Y-110969285D01*
X208930476Y-110921666D01*
X209120952Y-110874047D01*
X209263809Y-110874047D01*
X209454285Y-110921666D01*
X209549523Y-110969285D01*
X209644761Y-111064523D01*
X209692380Y-111207380D01*
X209692380Y-111445476D01*
X209692380Y-110397857D02*
X209692380Y-110207380D01*
X209644761Y-110112142D01*
X209597142Y-110064523D01*
X209454285Y-109969285D01*
X209263809Y-109921666D01*
X208882857Y-109921666D01*
X208787619Y-109969285D01*
X208740000Y-110016904D01*
X208692380Y-110112142D01*
X208692380Y-110302619D01*
X208740000Y-110397857D01*
X208787619Y-110445476D01*
X208882857Y-110493095D01*
X209120952Y-110493095D01*
X209216190Y-110445476D01*
X209263809Y-110397857D01*
X209311428Y-110302619D01*
X209311428Y-110112142D01*
X209263809Y-110016904D01*
X209216190Y-109969285D01*
X209120952Y-109921666D01*
X209692380Y-108969285D02*
X209692380Y-109540714D01*
X209692380Y-109255000D02*
X208692380Y-109255000D01*
X208835238Y-109350238D01*
X208930476Y-109445476D01*
X208978095Y-109540714D01*
X208692380Y-108350238D02*
X208692380Y-108255000D01*
X208740000Y-108159761D01*
X208787619Y-108112142D01*
X208882857Y-108064523D01*
X209073333Y-108016904D01*
X209311428Y-108016904D01*
X209501904Y-108064523D01*
X209597142Y-108112142D01*
X209644761Y-108159761D01*
X209692380Y-108255000D01*
X209692380Y-108350238D01*
X209644761Y-108445476D01*
X209597142Y-108493095D01*
X209501904Y-108540714D01*
X209311428Y-108588333D01*
X209073333Y-108588333D01*
X208882857Y-108540714D01*
X208787619Y-108493095D01*
X208740000Y-108445476D01*
X208692380Y-108350238D01*
X203752380Y-111490476D02*
X202752380Y-111490476D01*
X202752380Y-111252380D01*
X202800000Y-111109523D01*
X202895238Y-111014285D01*
X202990476Y-110966666D01*
X203180952Y-110919047D01*
X203323809Y-110919047D01*
X203514285Y-110966666D01*
X203609523Y-111014285D01*
X203704761Y-111109523D01*
X203752380Y-111252380D01*
X203752380Y-111490476D01*
X203752380Y-110442857D02*
X203752380Y-110252380D01*
X203704761Y-110157142D01*
X203657142Y-110109523D01*
X203514285Y-110014285D01*
X203323809Y-109966666D01*
X202942857Y-109966666D01*
X202847619Y-110014285D01*
X202800000Y-110061904D01*
X202752380Y-110157142D01*
X202752380Y-110347619D01*
X202800000Y-110442857D01*
X202847619Y-110490476D01*
X202942857Y-110538095D01*
X203180952Y-110538095D01*
X203276190Y-110490476D01*
X203323809Y-110442857D01*
X203371428Y-110347619D01*
X203371428Y-110157142D01*
X203323809Y-110061904D01*
X203276190Y-110014285D01*
X203180952Y-109966666D01*
X202752380Y-109347619D02*
X202752380Y-109252380D01*
X202800000Y-109157142D01*
X202847619Y-109109523D01*
X202942857Y-109061904D01*
X203133333Y-109014285D01*
X203371428Y-109014285D01*
X203561904Y-109061904D01*
X203657142Y-109109523D01*
X203704761Y-109157142D01*
X203752380Y-109252380D01*
X203752380Y-109347619D01*
X203704761Y-109442857D01*
X203657142Y-109490476D01*
X203561904Y-109538095D01*
X203371428Y-109585714D01*
X203133333Y-109585714D01*
X202942857Y-109538095D01*
X202847619Y-109490476D01*
X202800000Y-109442857D01*
X202752380Y-109347619D01*
X203752380Y-108538095D02*
X203752380Y-108347619D01*
X203704761Y-108252380D01*
X203657142Y-108204761D01*
X203514285Y-108109523D01*
X203323809Y-108061904D01*
X202942857Y-108061904D01*
X202847619Y-108109523D01*
X202800000Y-108157142D01*
X202752380Y-108252380D01*
X202752380Y-108442857D01*
X202800000Y-108538095D01*
X202847619Y-108585714D01*
X202942857Y-108633333D01*
X203180952Y-108633333D01*
X203276190Y-108585714D01*
X203323809Y-108538095D01*
X203371428Y-108442857D01*
X203371428Y-108252380D01*
X203323809Y-108157142D01*
X203276190Y-108109523D01*
X203180952Y-108061904D01*
X197692380Y-111445476D02*
X196692380Y-111445476D01*
X196692380Y-111207380D01*
X196740000Y-111064523D01*
X196835238Y-110969285D01*
X196930476Y-110921666D01*
X197120952Y-110874047D01*
X197263809Y-110874047D01*
X197454285Y-110921666D01*
X197549523Y-110969285D01*
X197644761Y-111064523D01*
X197692380Y-111207380D01*
X197692380Y-111445476D01*
X197692380Y-110397857D02*
X197692380Y-110207380D01*
X197644761Y-110112142D01*
X197597142Y-110064523D01*
X197454285Y-109969285D01*
X197263809Y-109921666D01*
X196882857Y-109921666D01*
X196787619Y-109969285D01*
X196740000Y-110016904D01*
X196692380Y-110112142D01*
X196692380Y-110302619D01*
X196740000Y-110397857D01*
X196787619Y-110445476D01*
X196882857Y-110493095D01*
X197120952Y-110493095D01*
X197216190Y-110445476D01*
X197263809Y-110397857D01*
X197311428Y-110302619D01*
X197311428Y-110112142D01*
X197263809Y-110016904D01*
X197216190Y-109969285D01*
X197120952Y-109921666D01*
X196692380Y-109302619D02*
X196692380Y-109207380D01*
X196740000Y-109112142D01*
X196787619Y-109064523D01*
X196882857Y-109016904D01*
X197073333Y-108969285D01*
X197311428Y-108969285D01*
X197501904Y-109016904D01*
X197597142Y-109064523D01*
X197644761Y-109112142D01*
X197692380Y-109207380D01*
X197692380Y-109302619D01*
X197644761Y-109397857D01*
X197597142Y-109445476D01*
X197501904Y-109493095D01*
X197311428Y-109540714D01*
X197073333Y-109540714D01*
X196882857Y-109493095D01*
X196787619Y-109445476D01*
X196740000Y-109397857D01*
X196692380Y-109302619D01*
X197120952Y-108397857D02*
X197073333Y-108493095D01*
X197025714Y-108540714D01*
X196930476Y-108588333D01*
X196882857Y-108588333D01*
X196787619Y-108540714D01*
X196740000Y-108493095D01*
X196692380Y-108397857D01*
X196692380Y-108207380D01*
X196740000Y-108112142D01*
X196787619Y-108064523D01*
X196882857Y-108016904D01*
X196930476Y-108016904D01*
X197025714Y-108064523D01*
X197073333Y-108112142D01*
X197120952Y-108207380D01*
X197120952Y-108397857D01*
X197168571Y-108493095D01*
X197216190Y-108540714D01*
X197311428Y-108588333D01*
X197501904Y-108588333D01*
X197597142Y-108540714D01*
X197644761Y-108493095D01*
X197692380Y-108397857D01*
X197692380Y-108207380D01*
X197644761Y-108112142D01*
X197597142Y-108064523D01*
X197501904Y-108016904D01*
X197311428Y-108016904D01*
X197216190Y-108064523D01*
X197168571Y-108112142D01*
X197120952Y-108207380D01*
X191692380Y-111445476D02*
X190692380Y-111445476D01*
X190692380Y-111207380D01*
X190740000Y-111064523D01*
X190835238Y-110969285D01*
X190930476Y-110921666D01*
X191120952Y-110874047D01*
X191263809Y-110874047D01*
X191454285Y-110921666D01*
X191549523Y-110969285D01*
X191644761Y-111064523D01*
X191692380Y-111207380D01*
X191692380Y-111445476D01*
X191692380Y-110397857D02*
X191692380Y-110207380D01*
X191644761Y-110112142D01*
X191597142Y-110064523D01*
X191454285Y-109969285D01*
X191263809Y-109921666D01*
X190882857Y-109921666D01*
X190787619Y-109969285D01*
X190740000Y-110016904D01*
X190692380Y-110112142D01*
X190692380Y-110302619D01*
X190740000Y-110397857D01*
X190787619Y-110445476D01*
X190882857Y-110493095D01*
X191120952Y-110493095D01*
X191216190Y-110445476D01*
X191263809Y-110397857D01*
X191311428Y-110302619D01*
X191311428Y-110112142D01*
X191263809Y-110016904D01*
X191216190Y-109969285D01*
X191120952Y-109921666D01*
X190692380Y-109302619D02*
X190692380Y-109207380D01*
X190740000Y-109112142D01*
X190787619Y-109064523D01*
X190882857Y-109016904D01*
X191073333Y-108969285D01*
X191311428Y-108969285D01*
X191501904Y-109016904D01*
X191597142Y-109064523D01*
X191644761Y-109112142D01*
X191692380Y-109207380D01*
X191692380Y-109302619D01*
X191644761Y-109397857D01*
X191597142Y-109445476D01*
X191501904Y-109493095D01*
X191311428Y-109540714D01*
X191073333Y-109540714D01*
X190882857Y-109493095D01*
X190787619Y-109445476D01*
X190740000Y-109397857D01*
X190692380Y-109302619D01*
X190692380Y-108635952D02*
X190692380Y-107969285D01*
X191692380Y-108397857D01*
X185692380Y-111445476D02*
X184692380Y-111445476D01*
X184692380Y-111207380D01*
X184740000Y-111064523D01*
X184835238Y-110969285D01*
X184930476Y-110921666D01*
X185120952Y-110874047D01*
X185263809Y-110874047D01*
X185454285Y-110921666D01*
X185549523Y-110969285D01*
X185644761Y-111064523D01*
X185692380Y-111207380D01*
X185692380Y-111445476D01*
X185692380Y-110397857D02*
X185692380Y-110207380D01*
X185644761Y-110112142D01*
X185597142Y-110064523D01*
X185454285Y-109969285D01*
X185263809Y-109921666D01*
X184882857Y-109921666D01*
X184787619Y-109969285D01*
X184740000Y-110016904D01*
X184692380Y-110112142D01*
X184692380Y-110302619D01*
X184740000Y-110397857D01*
X184787619Y-110445476D01*
X184882857Y-110493095D01*
X185120952Y-110493095D01*
X185216190Y-110445476D01*
X185263809Y-110397857D01*
X185311428Y-110302619D01*
X185311428Y-110112142D01*
X185263809Y-110016904D01*
X185216190Y-109969285D01*
X185120952Y-109921666D01*
X184692380Y-109302619D02*
X184692380Y-109207380D01*
X184740000Y-109112142D01*
X184787619Y-109064523D01*
X184882857Y-109016904D01*
X185073333Y-108969285D01*
X185311428Y-108969285D01*
X185501904Y-109016904D01*
X185597142Y-109064523D01*
X185644761Y-109112142D01*
X185692380Y-109207380D01*
X185692380Y-109302619D01*
X185644761Y-109397857D01*
X185597142Y-109445476D01*
X185501904Y-109493095D01*
X185311428Y-109540714D01*
X185073333Y-109540714D01*
X184882857Y-109493095D01*
X184787619Y-109445476D01*
X184740000Y-109397857D01*
X184692380Y-109302619D01*
X184692380Y-108112142D02*
X184692380Y-108302619D01*
X184740000Y-108397857D01*
X184787619Y-108445476D01*
X184930476Y-108540714D01*
X185120952Y-108588333D01*
X185501904Y-108588333D01*
X185597142Y-108540714D01*
X185644761Y-108493095D01*
X185692380Y-108397857D01*
X185692380Y-108207380D01*
X185644761Y-108112142D01*
X185597142Y-108064523D01*
X185501904Y-108016904D01*
X185263809Y-108016904D01*
X185168571Y-108064523D01*
X185120952Y-108112142D01*
X185073333Y-108207380D01*
X185073333Y-108397857D01*
X185120952Y-108493095D01*
X185168571Y-108540714D01*
X185263809Y-108588333D01*
X179692380Y-111445476D02*
X178692380Y-111445476D01*
X178692380Y-111207380D01*
X178740000Y-111064523D01*
X178835238Y-110969285D01*
X178930476Y-110921666D01*
X179120952Y-110874047D01*
X179263809Y-110874047D01*
X179454285Y-110921666D01*
X179549523Y-110969285D01*
X179644761Y-111064523D01*
X179692380Y-111207380D01*
X179692380Y-111445476D01*
X179692380Y-110397857D02*
X179692380Y-110207380D01*
X179644761Y-110112142D01*
X179597142Y-110064523D01*
X179454285Y-109969285D01*
X179263809Y-109921666D01*
X178882857Y-109921666D01*
X178787619Y-109969285D01*
X178740000Y-110016904D01*
X178692380Y-110112142D01*
X178692380Y-110302619D01*
X178740000Y-110397857D01*
X178787619Y-110445476D01*
X178882857Y-110493095D01*
X179120952Y-110493095D01*
X179216190Y-110445476D01*
X179263809Y-110397857D01*
X179311428Y-110302619D01*
X179311428Y-110112142D01*
X179263809Y-110016904D01*
X179216190Y-109969285D01*
X179120952Y-109921666D01*
X178692380Y-109302619D02*
X178692380Y-109207380D01*
X178740000Y-109112142D01*
X178787619Y-109064523D01*
X178882857Y-109016904D01*
X179073333Y-108969285D01*
X179311428Y-108969285D01*
X179501904Y-109016904D01*
X179597142Y-109064523D01*
X179644761Y-109112142D01*
X179692380Y-109207380D01*
X179692380Y-109302619D01*
X179644761Y-109397857D01*
X179597142Y-109445476D01*
X179501904Y-109493095D01*
X179311428Y-109540714D01*
X179073333Y-109540714D01*
X178882857Y-109493095D01*
X178787619Y-109445476D01*
X178740000Y-109397857D01*
X178692380Y-109302619D01*
X178692380Y-108064523D02*
X178692380Y-108540714D01*
X179168571Y-108588333D01*
X179120952Y-108540714D01*
X179073333Y-108445476D01*
X179073333Y-108207380D01*
X179120952Y-108112142D01*
X179168571Y-108064523D01*
X179263809Y-108016904D01*
X179501904Y-108016904D01*
X179597142Y-108064523D01*
X179644761Y-108112142D01*
X179692380Y-108207380D01*
X179692380Y-108445476D01*
X179644761Y-108540714D01*
X179597142Y-108588333D01*
X173692380Y-111445476D02*
X172692380Y-111445476D01*
X172692380Y-111207380D01*
X172740000Y-111064523D01*
X172835238Y-110969285D01*
X172930476Y-110921666D01*
X173120952Y-110874047D01*
X173263809Y-110874047D01*
X173454285Y-110921666D01*
X173549523Y-110969285D01*
X173644761Y-111064523D01*
X173692380Y-111207380D01*
X173692380Y-111445476D01*
X173692380Y-110397857D02*
X173692380Y-110207380D01*
X173644761Y-110112142D01*
X173597142Y-110064523D01*
X173454285Y-109969285D01*
X173263809Y-109921666D01*
X172882857Y-109921666D01*
X172787619Y-109969285D01*
X172740000Y-110016904D01*
X172692380Y-110112142D01*
X172692380Y-110302619D01*
X172740000Y-110397857D01*
X172787619Y-110445476D01*
X172882857Y-110493095D01*
X173120952Y-110493095D01*
X173216190Y-110445476D01*
X173263809Y-110397857D01*
X173311428Y-110302619D01*
X173311428Y-110112142D01*
X173263809Y-110016904D01*
X173216190Y-109969285D01*
X173120952Y-109921666D01*
X172692380Y-109302619D02*
X172692380Y-109207380D01*
X172740000Y-109112142D01*
X172787619Y-109064523D01*
X172882857Y-109016904D01*
X173073333Y-108969285D01*
X173311428Y-108969285D01*
X173501904Y-109016904D01*
X173597142Y-109064523D01*
X173644761Y-109112142D01*
X173692380Y-109207380D01*
X173692380Y-109302619D01*
X173644761Y-109397857D01*
X173597142Y-109445476D01*
X173501904Y-109493095D01*
X173311428Y-109540714D01*
X173073333Y-109540714D01*
X172882857Y-109493095D01*
X172787619Y-109445476D01*
X172740000Y-109397857D01*
X172692380Y-109302619D01*
X173025714Y-108112142D02*
X173692380Y-108112142D01*
X172644761Y-108350238D02*
X173359047Y-108588333D01*
X173359047Y-107969285D01*
X167692380Y-111445476D02*
X166692380Y-111445476D01*
X166692380Y-111207380D01*
X166740000Y-111064523D01*
X166835238Y-110969285D01*
X166930476Y-110921666D01*
X167120952Y-110874047D01*
X167263809Y-110874047D01*
X167454285Y-110921666D01*
X167549523Y-110969285D01*
X167644761Y-111064523D01*
X167692380Y-111207380D01*
X167692380Y-111445476D01*
X167692380Y-110397857D02*
X167692380Y-110207380D01*
X167644761Y-110112142D01*
X167597142Y-110064523D01*
X167454285Y-109969285D01*
X167263809Y-109921666D01*
X166882857Y-109921666D01*
X166787619Y-109969285D01*
X166740000Y-110016904D01*
X166692380Y-110112142D01*
X166692380Y-110302619D01*
X166740000Y-110397857D01*
X166787619Y-110445476D01*
X166882857Y-110493095D01*
X167120952Y-110493095D01*
X167216190Y-110445476D01*
X167263809Y-110397857D01*
X167311428Y-110302619D01*
X167311428Y-110112142D01*
X167263809Y-110016904D01*
X167216190Y-109969285D01*
X167120952Y-109921666D01*
X166692380Y-109302619D02*
X166692380Y-109207380D01*
X166740000Y-109112142D01*
X166787619Y-109064523D01*
X166882857Y-109016904D01*
X167073333Y-108969285D01*
X167311428Y-108969285D01*
X167501904Y-109016904D01*
X167597142Y-109064523D01*
X167644761Y-109112142D01*
X167692380Y-109207380D01*
X167692380Y-109302619D01*
X167644761Y-109397857D01*
X167597142Y-109445476D01*
X167501904Y-109493095D01*
X167311428Y-109540714D01*
X167073333Y-109540714D01*
X166882857Y-109493095D01*
X166787619Y-109445476D01*
X166740000Y-109397857D01*
X166692380Y-109302619D01*
X166692380Y-108635952D02*
X166692380Y-108016904D01*
X167073333Y-108350238D01*
X167073333Y-108207380D01*
X167120952Y-108112142D01*
X167168571Y-108064523D01*
X167263809Y-108016904D01*
X167501904Y-108016904D01*
X167597142Y-108064523D01*
X167644761Y-108112142D01*
X167692380Y-108207380D01*
X167692380Y-108493095D01*
X167644761Y-108588333D01*
X167597142Y-108635952D01*
X161692380Y-111445476D02*
X160692380Y-111445476D01*
X160692380Y-111207380D01*
X160740000Y-111064523D01*
X160835238Y-110969285D01*
X160930476Y-110921666D01*
X161120952Y-110874047D01*
X161263809Y-110874047D01*
X161454285Y-110921666D01*
X161549523Y-110969285D01*
X161644761Y-111064523D01*
X161692380Y-111207380D01*
X161692380Y-111445476D01*
X161692380Y-110397857D02*
X161692380Y-110207380D01*
X161644761Y-110112142D01*
X161597142Y-110064523D01*
X161454285Y-109969285D01*
X161263809Y-109921666D01*
X160882857Y-109921666D01*
X160787619Y-109969285D01*
X160740000Y-110016904D01*
X160692380Y-110112142D01*
X160692380Y-110302619D01*
X160740000Y-110397857D01*
X160787619Y-110445476D01*
X160882857Y-110493095D01*
X161120952Y-110493095D01*
X161216190Y-110445476D01*
X161263809Y-110397857D01*
X161311428Y-110302619D01*
X161311428Y-110112142D01*
X161263809Y-110016904D01*
X161216190Y-109969285D01*
X161120952Y-109921666D01*
X160692380Y-109302619D02*
X160692380Y-109207380D01*
X160740000Y-109112142D01*
X160787619Y-109064523D01*
X160882857Y-109016904D01*
X161073333Y-108969285D01*
X161311428Y-108969285D01*
X161501904Y-109016904D01*
X161597142Y-109064523D01*
X161644761Y-109112142D01*
X161692380Y-109207380D01*
X161692380Y-109302619D01*
X161644761Y-109397857D01*
X161597142Y-109445476D01*
X161501904Y-109493095D01*
X161311428Y-109540714D01*
X161073333Y-109540714D01*
X160882857Y-109493095D01*
X160787619Y-109445476D01*
X160740000Y-109397857D01*
X160692380Y-109302619D01*
X160787619Y-108588333D02*
X160740000Y-108540714D01*
X160692380Y-108445476D01*
X160692380Y-108207380D01*
X160740000Y-108112142D01*
X160787619Y-108064523D01*
X160882857Y-108016904D01*
X160978095Y-108016904D01*
X161120952Y-108064523D01*
X161692380Y-108635952D01*
X161692380Y-108016904D01*
X155692380Y-111535476D02*
X154692380Y-111535476D01*
X154692380Y-111297380D01*
X154740000Y-111154523D01*
X154835238Y-111059285D01*
X154930476Y-111011666D01*
X155120952Y-110964047D01*
X155263809Y-110964047D01*
X155454285Y-111011666D01*
X155549523Y-111059285D01*
X155644761Y-111154523D01*
X155692380Y-111297380D01*
X155692380Y-111535476D01*
X155692380Y-110487857D02*
X155692380Y-110297380D01*
X155644761Y-110202142D01*
X155597142Y-110154523D01*
X155454285Y-110059285D01*
X155263809Y-110011666D01*
X154882857Y-110011666D01*
X154787619Y-110059285D01*
X154740000Y-110106904D01*
X154692380Y-110202142D01*
X154692380Y-110392619D01*
X154740000Y-110487857D01*
X154787619Y-110535476D01*
X154882857Y-110583095D01*
X155120952Y-110583095D01*
X155216190Y-110535476D01*
X155263809Y-110487857D01*
X155311428Y-110392619D01*
X155311428Y-110202142D01*
X155263809Y-110106904D01*
X155216190Y-110059285D01*
X155120952Y-110011666D01*
X154692380Y-109392619D02*
X154692380Y-109297380D01*
X154740000Y-109202142D01*
X154787619Y-109154523D01*
X154882857Y-109106904D01*
X155073333Y-109059285D01*
X155311428Y-109059285D01*
X155501904Y-109106904D01*
X155597142Y-109154523D01*
X155644761Y-109202142D01*
X155692380Y-109297380D01*
X155692380Y-109392619D01*
X155644761Y-109487857D01*
X155597142Y-109535476D01*
X155501904Y-109583095D01*
X155311428Y-109630714D01*
X155073333Y-109630714D01*
X154882857Y-109583095D01*
X154787619Y-109535476D01*
X154740000Y-109487857D01*
X154692380Y-109392619D01*
X155692380Y-108106904D02*
X155692380Y-108678333D01*
X155692380Y-108392619D02*
X154692380Y-108392619D01*
X154835238Y-108487857D01*
X154930476Y-108583095D01*
X154978095Y-108678333D01*
X182395952Y-154662142D02*
X182348333Y-154709761D01*
X182205476Y-154757380D01*
X182110238Y-154757380D01*
X181967380Y-154709761D01*
X181872142Y-154614523D01*
X181824523Y-154519285D01*
X181776904Y-154328809D01*
X181776904Y-154185952D01*
X181824523Y-153995476D01*
X181872142Y-153900238D01*
X181967380Y-153805000D01*
X182110238Y-153757380D01*
X182205476Y-153757380D01*
X182348333Y-153805000D01*
X182395952Y-153852619D01*
X182872142Y-154757380D02*
X183062619Y-154757380D01*
X183157857Y-154709761D01*
X183205476Y-154662142D01*
X183300714Y-154519285D01*
X183348333Y-154328809D01*
X183348333Y-153947857D01*
X183300714Y-153852619D01*
X183253095Y-153805000D01*
X183157857Y-153757380D01*
X182967380Y-153757380D01*
X182872142Y-153805000D01*
X182824523Y-153852619D01*
X182776904Y-153947857D01*
X182776904Y-154185952D01*
X182824523Y-154281190D01*
X182872142Y-154328809D01*
X182967380Y-154376428D01*
X183157857Y-154376428D01*
X183253095Y-154328809D01*
X183300714Y-154281190D01*
X183348333Y-154185952D01*
X183967380Y-153757380D02*
X184062619Y-153757380D01*
X184157857Y-153805000D01*
X184205476Y-153852619D01*
X184253095Y-153947857D01*
X184300714Y-154138333D01*
X184300714Y-154376428D01*
X184253095Y-154566904D01*
X184205476Y-154662142D01*
X184157857Y-154709761D01*
X184062619Y-154757380D01*
X183967380Y-154757380D01*
X183872142Y-154709761D01*
X183824523Y-154662142D01*
X183776904Y-154566904D01*
X183729285Y-154376428D01*
X183729285Y-154138333D01*
X183776904Y-153947857D01*
X183824523Y-153852619D01*
X183872142Y-153805000D01*
X183967380Y-153757380D01*
X185157857Y-154090714D02*
X185157857Y-154757380D01*
X184919761Y-153709761D02*
X184681666Y-154424047D01*
X185300714Y-154424047D01*
X182443571Y-156662380D02*
X181872142Y-156662380D01*
X182157857Y-156662380D02*
X182157857Y-155662380D01*
X182062619Y-155805238D01*
X181967380Y-155900476D01*
X181872142Y-155948095D01*
X183062619Y-155662380D02*
X183157857Y-155662380D01*
X183253095Y-155710000D01*
X183300714Y-155757619D01*
X183348333Y-155852857D01*
X183395952Y-156043333D01*
X183395952Y-156281428D01*
X183348333Y-156471904D01*
X183300714Y-156567142D01*
X183253095Y-156614761D01*
X183157857Y-156662380D01*
X183062619Y-156662380D01*
X182967380Y-156614761D01*
X182919761Y-156567142D01*
X182872142Y-156471904D01*
X182824523Y-156281428D01*
X182824523Y-156043333D01*
X182872142Y-155852857D01*
X182919761Y-155757619D01*
X182967380Y-155710000D01*
X183062619Y-155662380D01*
X184253095Y-155995714D02*
X184253095Y-156662380D01*
X183824523Y-155995714D02*
X183824523Y-156519523D01*
X183872142Y-156614761D01*
X183967380Y-156662380D01*
X184110238Y-156662380D01*
X184205476Y-156614761D01*
X184253095Y-156567142D01*
X185062619Y-156138571D02*
X184729285Y-156138571D01*
X184729285Y-156662380D02*
X184729285Y-155662380D01*
X185205476Y-155662380D01*
X184300952Y-119102142D02*
X184253333Y-119149761D01*
X184110476Y-119197380D01*
X184015238Y-119197380D01*
X183872380Y-119149761D01*
X183777142Y-119054523D01*
X183729523Y-118959285D01*
X183681904Y-118768809D01*
X183681904Y-118625952D01*
X183729523Y-118435476D01*
X183777142Y-118340238D01*
X183872380Y-118245000D01*
X184015238Y-118197380D01*
X184110476Y-118197380D01*
X184253333Y-118245000D01*
X184300952Y-118292619D01*
X184777142Y-119197380D02*
X184967619Y-119197380D01*
X185062857Y-119149761D01*
X185110476Y-119102142D01*
X185205714Y-118959285D01*
X185253333Y-118768809D01*
X185253333Y-118387857D01*
X185205714Y-118292619D01*
X185158095Y-118245000D01*
X185062857Y-118197380D01*
X184872380Y-118197380D01*
X184777142Y-118245000D01*
X184729523Y-118292619D01*
X184681904Y-118387857D01*
X184681904Y-118625952D01*
X184729523Y-118721190D01*
X184777142Y-118768809D01*
X184872380Y-118816428D01*
X185062857Y-118816428D01*
X185158095Y-118768809D01*
X185205714Y-118721190D01*
X185253333Y-118625952D01*
X185872380Y-118197380D02*
X185967619Y-118197380D01*
X186062857Y-118245000D01*
X186110476Y-118292619D01*
X186158095Y-118387857D01*
X186205714Y-118578333D01*
X186205714Y-118816428D01*
X186158095Y-119006904D01*
X186110476Y-119102142D01*
X186062857Y-119149761D01*
X185967619Y-119197380D01*
X185872380Y-119197380D01*
X185777142Y-119149761D01*
X185729523Y-119102142D01*
X185681904Y-119006904D01*
X185634285Y-118816428D01*
X185634285Y-118578333D01*
X185681904Y-118387857D01*
X185729523Y-118292619D01*
X185777142Y-118245000D01*
X185872380Y-118197380D01*
X186539047Y-118197380D02*
X187158095Y-118197380D01*
X186824761Y-118578333D01*
X186967619Y-118578333D01*
X187062857Y-118625952D01*
X187110476Y-118673571D01*
X187158095Y-118768809D01*
X187158095Y-119006904D01*
X187110476Y-119102142D01*
X187062857Y-119149761D01*
X186967619Y-119197380D01*
X186681904Y-119197380D01*
X186586666Y-119149761D01*
X186539047Y-119102142D01*
X155090952Y-119102142D02*
X155043333Y-119149761D01*
X154900476Y-119197380D01*
X154805238Y-119197380D01*
X154662380Y-119149761D01*
X154567142Y-119054523D01*
X154519523Y-118959285D01*
X154471904Y-118768809D01*
X154471904Y-118625952D01*
X154519523Y-118435476D01*
X154567142Y-118340238D01*
X154662380Y-118245000D01*
X154805238Y-118197380D01*
X154900476Y-118197380D01*
X155043333Y-118245000D01*
X155090952Y-118292619D01*
X155567142Y-119197380D02*
X155757619Y-119197380D01*
X155852857Y-119149761D01*
X155900476Y-119102142D01*
X155995714Y-118959285D01*
X156043333Y-118768809D01*
X156043333Y-118387857D01*
X155995714Y-118292619D01*
X155948095Y-118245000D01*
X155852857Y-118197380D01*
X155662380Y-118197380D01*
X155567142Y-118245000D01*
X155519523Y-118292619D01*
X155471904Y-118387857D01*
X155471904Y-118625952D01*
X155519523Y-118721190D01*
X155567142Y-118768809D01*
X155662380Y-118816428D01*
X155852857Y-118816428D01*
X155948095Y-118768809D01*
X155995714Y-118721190D01*
X156043333Y-118625952D01*
X156662380Y-118197380D02*
X156757619Y-118197380D01*
X156852857Y-118245000D01*
X156900476Y-118292619D01*
X156948095Y-118387857D01*
X156995714Y-118578333D01*
X156995714Y-118816428D01*
X156948095Y-119006904D01*
X156900476Y-119102142D01*
X156852857Y-119149761D01*
X156757619Y-119197380D01*
X156662380Y-119197380D01*
X156567142Y-119149761D01*
X156519523Y-119102142D01*
X156471904Y-119006904D01*
X156424285Y-118816428D01*
X156424285Y-118578333D01*
X156471904Y-118387857D01*
X156519523Y-118292619D01*
X156567142Y-118245000D01*
X156662380Y-118197380D01*
X157376666Y-118292619D02*
X157424285Y-118245000D01*
X157519523Y-118197380D01*
X157757619Y-118197380D01*
X157852857Y-118245000D01*
X157900476Y-118292619D01*
X157948095Y-118387857D01*
X157948095Y-118483095D01*
X157900476Y-118625952D01*
X157329047Y-119197380D01*
X157948095Y-119197380D01*
X198905952Y-154662142D02*
X198858333Y-154709761D01*
X198715476Y-154757380D01*
X198620238Y-154757380D01*
X198477380Y-154709761D01*
X198382142Y-154614523D01*
X198334523Y-154519285D01*
X198286904Y-154328809D01*
X198286904Y-154185952D01*
X198334523Y-153995476D01*
X198382142Y-153900238D01*
X198477380Y-153805000D01*
X198620238Y-153757380D01*
X198715476Y-153757380D01*
X198858333Y-153805000D01*
X198905952Y-153852619D01*
X199382142Y-154757380D02*
X199572619Y-154757380D01*
X199667857Y-154709761D01*
X199715476Y-154662142D01*
X199810714Y-154519285D01*
X199858333Y-154328809D01*
X199858333Y-153947857D01*
X199810714Y-153852619D01*
X199763095Y-153805000D01*
X199667857Y-153757380D01*
X199477380Y-153757380D01*
X199382142Y-153805000D01*
X199334523Y-153852619D01*
X199286904Y-153947857D01*
X199286904Y-154185952D01*
X199334523Y-154281190D01*
X199382142Y-154328809D01*
X199477380Y-154376428D01*
X199667857Y-154376428D01*
X199763095Y-154328809D01*
X199810714Y-154281190D01*
X199858333Y-154185952D01*
X200477380Y-153757380D02*
X200572619Y-153757380D01*
X200667857Y-153805000D01*
X200715476Y-153852619D01*
X200763095Y-153947857D01*
X200810714Y-154138333D01*
X200810714Y-154376428D01*
X200763095Y-154566904D01*
X200715476Y-154662142D01*
X200667857Y-154709761D01*
X200572619Y-154757380D01*
X200477380Y-154757380D01*
X200382142Y-154709761D01*
X200334523Y-154662142D01*
X200286904Y-154566904D01*
X200239285Y-154376428D01*
X200239285Y-154138333D01*
X200286904Y-153947857D01*
X200334523Y-153852619D01*
X200382142Y-153805000D01*
X200477380Y-153757380D01*
X201763095Y-154757380D02*
X201191666Y-154757380D01*
X201477380Y-154757380D02*
X201477380Y-153757380D01*
X201382142Y-153900238D01*
X201286904Y-153995476D01*
X201191666Y-154043095D01*
X198905952Y-156662380D02*
X198334523Y-156662380D01*
X198620238Y-156662380D02*
X198620238Y-155662380D01*
X198525000Y-155805238D01*
X198429761Y-155900476D01*
X198334523Y-155948095D01*
X199525000Y-155662380D02*
X199620238Y-155662380D01*
X199715476Y-155710000D01*
X199763095Y-155757619D01*
X199810714Y-155852857D01*
X199858333Y-156043333D01*
X199858333Y-156281428D01*
X199810714Y-156471904D01*
X199763095Y-156567142D01*
X199715476Y-156614761D01*
X199620238Y-156662380D01*
X199525000Y-156662380D01*
X199429761Y-156614761D01*
X199382142Y-156567142D01*
X199334523Y-156471904D01*
X199286904Y-156281428D01*
X199286904Y-156043333D01*
X199334523Y-155852857D01*
X199382142Y-155757619D01*
X199429761Y-155710000D01*
X199525000Y-155662380D01*
X200477380Y-155662380D02*
X200572619Y-155662380D01*
X200667857Y-155710000D01*
X200715476Y-155757619D01*
X200763095Y-155852857D01*
X200810714Y-156043333D01*
X200810714Y-156281428D01*
X200763095Y-156471904D01*
X200715476Y-156567142D01*
X200667857Y-156614761D01*
X200572619Y-156662380D01*
X200477380Y-156662380D01*
X200382142Y-156614761D01*
X200334523Y-156567142D01*
X200286904Y-156471904D01*
X200239285Y-156281428D01*
X200239285Y-156043333D01*
X200286904Y-155852857D01*
X200334523Y-155757619D01*
X200382142Y-155710000D01*
X200477380Y-155662380D01*
X201239285Y-155995714D02*
X201239285Y-156662380D01*
X201239285Y-156090952D02*
X201286904Y-156043333D01*
X201382142Y-155995714D01*
X201525000Y-155995714D01*
X201620238Y-156043333D01*
X201667857Y-156138571D01*
X201667857Y-156662380D01*
M02*
