M48
INCH,TZ
T1C0.0157
T2C0.0276
T3C0.0315
T4C0.0354
T5C0.0394
%
G90
G05
T1
X61450Y-61250
X61800Y-60800
X62150Y-60400
X62500Y-59950
X62850Y-59250
X71000Y-61450
X72000Y-59850
X72500Y-60800
X73500Y-60050
X74500Y-61750
X74975Y-62175
X75500Y-62550
X78000Y-62900
X78500Y-61950
X78500Y-56150
X79500Y-55450
X79500Y-60700
X80500Y-54750
X84900Y-48200
X87450Y-57950
T2
X61250Y-47500
X61250Y-48484
X73250Y-47500
X73250Y-48484
X76250Y-61000
X77234Y-61000
T3
X62500Y-47500
X62500Y-50500
X63000Y-45750
X63500Y-47500
X63500Y-50500
X64000Y-45750
X64500Y-47500
X64500Y-50500
X65000Y-45750
X65000Y-53250
X65000Y-59250
X65500Y-47500
X65500Y-50500
X66000Y-45750
X66000Y-53250
X66000Y-59250
X66500Y-47500
X66500Y-50500
X67000Y-45750
X67000Y-53250
X67000Y-59250
X67500Y-47500
X67500Y-50500
X68000Y-45750
X68000Y-53250
X68000Y-59250
X68500Y-47500
X68500Y-50500
X69000Y-45750
X69000Y-53250
X69000Y-59250
X69500Y-47500
X69500Y-50500
X70000Y-45750
X70000Y-53250
X70000Y-59250
X70500Y-47500
X70500Y-50500
X71000Y-45750
X71000Y-53250
X71000Y-59250
X71500Y-47500
X71500Y-50500
X72000Y-53250
X72000Y-59250
X73000Y-53250
X73000Y-59250
X73963Y-61000
X74000Y-53250
X74000Y-59250
X74500Y-47500
X74500Y-50500
X74750Y-61000
X75000Y-45750
X75000Y-53250
X75000Y-59250
X75500Y-47500
X75500Y-50500
X76000Y-45750
X76000Y-53250
X76000Y-59250
X76500Y-47500
X76500Y-50500
X77000Y-45750
X77000Y-53250
X77000Y-59250
X77500Y-47500
X77500Y-50500
X78000Y-45750
X78000Y-53250
X78000Y-59250
X78500Y-47500
X78500Y-50500
X79000Y-45750
X79000Y-53250
X79000Y-59250
X79500Y-47500
X79500Y-50500
X80000Y-45750
X80000Y-53250
X80000Y-59250
X80500Y-47500
X80500Y-50500
X81000Y-45750
X81000Y-53250
X81000Y-59250
X81500Y-47500
X81500Y-50500
X82000Y-45750
X82000Y-53250
X82000Y-59250
X82500Y-47500
X82500Y-50500
X83000Y-45750
X83000Y-53250
X83000Y-59250
X83500Y-47500
X83500Y-50500
X84000Y-53250
X84000Y-59250
X86250Y-52750
X86250Y-55750
X86250Y-56750
X86250Y-59750
T4
X62283Y-42746
X62283Y-43746
X64646Y-42711
X64646Y-43711
X67008Y-42711
X67008Y-43711
X69370Y-42711
X69370Y-43711
X71732Y-42711
X71732Y-43711
X74094Y-42711
X74094Y-43711
X76457Y-42711
X76457Y-43711
X78819Y-42711
X78819Y-43711
X81181Y-42711
X81181Y-43711
X83543Y-42711
X83543Y-43711
X85906Y-42711
X85906Y-43711
X88268Y-42711
X88268Y-43711
X90630Y-42711
X90630Y-43711
X92992Y-42711
X92992Y-43711
X95354Y-42711
X95354Y-43711
X97717Y-42711
X97717Y-43711
T5
X62500Y-63750
X62500Y-64750
X63500Y-63750
X63500Y-64750
X64500Y-63750
X64500Y-64750
X65500Y-63750
X65500Y-64750
X66500Y-63750
X66500Y-64750
X67500Y-63750
X67500Y-64750
X68500Y-63750
X68500Y-64750
X69500Y-63750
X69500Y-64750
X70500Y-63750
X70500Y-64750
X71500Y-63750
X71500Y-64750
X72500Y-63750
X72500Y-64750
X73500Y-63750
X73500Y-64750
X74500Y-63750
X74500Y-64750
X75500Y-63750
X75500Y-64750
X76500Y-63750
X76500Y-64750
X77500Y-63750
X77500Y-64750
X78500Y-63750
X78500Y-64750
X79500Y-63750
X79500Y-64750
X80500Y-63750
X80500Y-64750
X81500Y-63750
X81500Y-64750
X82500Y-63750
X82500Y-64750
X83500Y-63750
X83500Y-64750
X84500Y-63750
X84500Y-64750
X85500Y-63750
X85500Y-64750
X86500Y-63750
X86500Y-64750
T0
M30
