M48
INCH,TZ
T1C0.0157
T2C0.0315
T3C0.0394
T4C0.1260
%
G90
G05
T1
X61050Y-50950
X64050Y-52150
X65350Y-57250
X65800Y-58292
X68000Y-50000
X68000Y-50750
X68000Y-55750
X68000Y-60550
X69050Y-62750
X69800Y-55100
X70050Y-53300
X71850Y-54100
X71850Y-56150
X71900Y-58150
X72000Y-59100
X76000Y-62650
X77000Y-62650
X78000Y-62650
X79000Y-62650
X81900Y-44200
X82350Y-50150
X83250Y-50150
X83750Y-48000
X84000Y-58700
X84250Y-48392
X84250Y-50150
X84750Y-47650
X85000Y-61700
X85250Y-48350
X85250Y-50150
X85750Y-47650
X86000Y-61700
X86252Y-48348
X86400Y-50150
X86750Y-47650
X87250Y-48384
X87400Y-50150
X87750Y-47650
X88000Y-62900
X88250Y-48350
X88450Y-50150
X89000Y-62900
X89250Y-47650
X89250Y-48300
X89400Y-50150
X90150Y-48400
X90450Y-50150
X90600Y-47650
X91200Y-48250
X91450Y-50150
X91600Y-47650
X91800Y-53750
X92100Y-52850
X93550Y-45050
X93550Y-49050
X93600Y-46100
X93600Y-47100
X93600Y-48100
X94350Y-52650
X95100Y-55000
X96000Y-47500
X96050Y-45500
X96050Y-46500
T2
X67250Y-42250
X67250Y-45250
X67250Y-46250
X67250Y-49250
X68500Y-42250
X68500Y-45250
X68500Y-46250
X68500Y-49250
X69750Y-42250
X69750Y-45250
X69750Y-46250
X69750Y-49250
X71000Y-42250
X71000Y-45250
X71000Y-46250
X71000Y-49250
X72250Y-42250
X72250Y-45250
X72250Y-46250
X72250Y-49250
X74750Y-42000
X74750Y-43000
X74750Y-44000
X74750Y-45000
X74750Y-46000
X74750Y-47000
X74750Y-48000
X74750Y-49000
X74750Y-50000
X74750Y-51000
X74750Y-52000
X74750Y-53000
X74750Y-54000
X74750Y-55000
X74750Y-56000
X74750Y-57000
X74750Y-58000
X74750Y-59000
X74750Y-60000
X74750Y-61000
X80750Y-42000
X80750Y-43000
X80750Y-44000
X80750Y-45000
X80750Y-46000
X80750Y-47000
X80750Y-48000
X80750Y-49000
X80750Y-50000
X80750Y-51000
X80750Y-52000
X80750Y-53000
X80750Y-54000
X80750Y-55000
X80750Y-56000
X80750Y-57000
X80750Y-58000
X80750Y-59000
X80750Y-60000
X80750Y-61000
X82000Y-57000
X82000Y-57984
X83250Y-52000
X84000Y-54750
X84000Y-55734
X84250Y-52000
X85250Y-52000
X85250Y-54750
X85250Y-57750
X86250Y-52000
X86250Y-54750
X86250Y-57750
X87250Y-52000
X87250Y-54750
X87250Y-57750
X88250Y-52000
X88250Y-54750
X88250Y-57750
X89250Y-52000
X89250Y-54750
X89250Y-57750
X90250Y-52000
X90250Y-54750
X90250Y-57750
X91250Y-52000
X91250Y-54750
X91250Y-57750
X92250Y-54750
X92250Y-57750
T3
X62882Y-53295
X62882Y-54386
X62882Y-55476
X62882Y-56567
X64000Y-52750
X64000Y-53841
X64000Y-54931
X64000Y-56022
X64000Y-57112
X84500Y-42250
X84500Y-43250
X85500Y-42250
X85500Y-43250
X86500Y-42250
X86500Y-43250
X87500Y-42250
X87500Y-43250
X88500Y-42250
X88500Y-43250
X89500Y-42250
X89500Y-43250
X90500Y-42250
X90500Y-43250
X91500Y-42250
X91500Y-43250
X92500Y-42250
X92500Y-43250
X93500Y-42250
X93500Y-43250
X96000Y-52638
X96000Y-53728
X96000Y-54819
X96000Y-55909
X96000Y-57000
X97118Y-53183
X97118Y-54274
X97118Y-55364
X97118Y-56455
X97750Y-43250
X97750Y-44250
X97750Y-45250
X97750Y-46250
X97750Y-47250
X98750Y-43250
X98750Y-44250
X98750Y-45250
X98750Y-46250
X98750Y-47250
T4
X63441Y-50010
X63441Y-59852
X96559Y-49898
X96559Y-59740
T3
G00X61000Y-45447
M15
G01X61000Y-45053
M16
G05
G00X61945Y-44659
M15
G01X61945Y-44266
M16
G05
G00X63402Y-45447
M15
G01X63402Y-45053
M16
G05
G00X64110Y-44659
M15
G01X64110Y-44266
M16
G05
G00X65567Y-45447
M15
G01X65567Y-45053
M16
G05
T0
M30
