G04 #@! TF.GenerationSoftware,KiCad,Pcbnew,(5.1.12)-1*
G04 #@! TF.CreationDate,2022-12-10T16:47:45+00:00*
G04 #@! TF.ProjectId,CPCSound,43504353-6f75-46e6-942e-6b696361645f,rev?*
G04 #@! TF.SameCoordinates,Original*
G04 #@! TF.FileFunction,Profile,NP*
%FSLAX46Y46*%
G04 Gerber Fmt 4.6, Leading zero omitted, Abs format (unit mm)*
G04 Created by KiCad (PCBNEW (5.1.12)-1) date 2022-12-10 16:47:45*
%MOMM*%
%LPD*%
G01*
G04 APERTURE LIST*
G04 #@! TA.AperFunction,Profile*
%ADD10C,0.150000*%
G04 #@! TD*
G04 APERTURE END LIST*
D10*
X247818400Y-103505000D02*
X247400000Y-103500000D01*
X247400000Y-103500000D02*
G75*
G02*
X246400000Y-102500000I0J1000000D01*
G01*
X241400000Y-103500000D02*
G75*
G02*
X240400000Y-102500000I0J1000000D01*
G01*
X235400000Y-103500000D02*
G75*
G02*
X234400000Y-102500000I0J1000000D01*
G01*
X229400000Y-103500000D02*
G75*
G02*
X228400000Y-102500000I0J1000000D01*
G01*
X223400000Y-103500000D02*
G75*
G02*
X222400000Y-102500000I0J1000000D01*
G01*
X217400000Y-103500000D02*
G75*
G02*
X216400000Y-102500000I0J1000000D01*
G01*
X211400000Y-103500000D02*
G75*
G02*
X210400000Y-102500000I0J1000000D01*
G01*
X205400000Y-103500000D02*
G75*
G02*
X204400000Y-102500000I0J1000000D01*
G01*
X199400000Y-103500000D02*
G75*
G02*
X198400000Y-102500000I0J1000000D01*
G01*
X193400000Y-103500000D02*
G75*
G02*
X192400000Y-102500000I0J1000000D01*
G01*
X187400000Y-103500000D02*
G75*
G02*
X186400000Y-102500000I0J1000000D01*
G01*
X181400000Y-103500000D02*
G75*
G02*
X180400000Y-102500000I0J1000000D01*
G01*
X175400000Y-103500000D02*
G75*
G02*
X174400000Y-102500000I0J1000000D01*
G01*
X171400000Y-102500000D02*
G75*
G02*
X170400000Y-103500000I-1000000J0D01*
G01*
X177400000Y-102500000D02*
G75*
G02*
X176400000Y-103500000I-1000000J0D01*
G01*
X183400000Y-102500000D02*
G75*
G02*
X182400000Y-103500000I-1000000J0D01*
G01*
X189400000Y-102500000D02*
G75*
G02*
X188400000Y-103500000I-1000000J0D01*
G01*
X195400000Y-102500000D02*
G75*
G02*
X194400000Y-103500000I-1000000J0D01*
G01*
X201400000Y-102500000D02*
G75*
G02*
X200400000Y-103500000I-1000000J0D01*
G01*
X207400000Y-102500000D02*
G75*
G02*
X206400000Y-103500000I-1000000J0D01*
G01*
X213400000Y-102500000D02*
G75*
G02*
X212400000Y-103500000I-1000000J0D01*
G01*
X219400000Y-102500000D02*
G75*
G02*
X218400000Y-103500000I-1000000J0D01*
G01*
X225400000Y-102500000D02*
G75*
G02*
X224400000Y-103500000I-1000000J0D01*
G01*
X231400000Y-102500000D02*
G75*
G02*
X230400000Y-103500000I-1000000J0D01*
G01*
X237400000Y-102500000D02*
G75*
G02*
X236400000Y-103500000I-1000000J0D01*
G01*
X243400000Y-102500000D02*
G75*
G02*
X242400000Y-103500000I-1000000J0D01*
G01*
X252998400Y-108685000D02*
G75*
G03*
X247818400Y-103505000I-5180000J0D01*
G01*
X171400000Y-100500000D02*
X171400000Y-102500000D01*
X174400000Y-100500000D02*
X171400000Y-100500000D01*
X174400000Y-102500000D02*
X174400000Y-100500000D01*
X176400000Y-103500000D02*
X175400000Y-103500000D01*
X177400000Y-100500000D02*
X177400000Y-102500000D01*
X180400000Y-100500000D02*
X177400000Y-100500000D01*
X180400000Y-102500000D02*
X180400000Y-100500000D01*
X182400000Y-103500000D02*
X181400000Y-103500000D01*
X183400000Y-100500000D02*
X183400000Y-102500000D01*
X186400000Y-100500000D02*
X183400000Y-100500000D01*
X186400000Y-102500000D02*
X186400000Y-100500000D01*
X188400000Y-103500000D02*
X187400000Y-103500000D01*
X189400000Y-100500000D02*
X189400000Y-102500000D01*
X192400000Y-100500000D02*
X189400000Y-100500000D01*
X192400000Y-102500000D02*
X192400000Y-100500000D01*
X194400000Y-103500000D02*
X193400000Y-103500000D01*
X195400000Y-100500000D02*
X195400000Y-102500000D01*
X198400000Y-100500000D02*
X195400000Y-100500000D01*
X198400000Y-102500000D02*
X198400000Y-100500000D01*
X200400000Y-103500000D02*
X199400000Y-103500000D01*
X201400000Y-100500000D02*
X201400000Y-102500000D01*
X204400000Y-100500000D02*
X201400000Y-100500000D01*
X204400000Y-102500000D02*
X204400000Y-100500000D01*
X206400000Y-103500000D02*
X205400000Y-103500000D01*
X207400000Y-100500000D02*
X207400000Y-102500000D01*
X210400000Y-100500000D02*
X207400000Y-100500000D01*
X210400000Y-102500000D02*
X210400000Y-100500000D01*
X212400000Y-103500000D02*
X211400000Y-103500000D01*
X213400000Y-100500000D02*
X213400000Y-102500000D01*
X216400000Y-100500000D02*
X213400000Y-100500000D01*
X216400000Y-102500000D02*
X216400000Y-100500000D01*
X218400000Y-103500000D02*
X217400000Y-103500000D01*
X219400000Y-100500000D02*
X219400000Y-102500000D01*
X222400000Y-100500000D02*
X219400000Y-100500000D01*
X222400000Y-102500000D02*
X222400000Y-100500000D01*
X224400000Y-103500000D02*
X223400000Y-103500000D01*
X225400000Y-100500000D02*
X225400000Y-102500000D01*
X228400000Y-100500000D02*
X225400000Y-100500000D01*
X228400000Y-102500000D02*
X228400000Y-100500000D01*
X230400000Y-103500000D02*
X229400000Y-103500000D01*
X231400000Y-100500000D02*
X231400000Y-102500000D01*
X234400000Y-100500000D02*
X231400000Y-100500000D01*
X234400000Y-102500000D02*
X234400000Y-100500000D01*
X236400000Y-103500000D02*
X235400000Y-103500000D01*
X237400000Y-100500000D02*
X237400000Y-102500000D01*
X240400000Y-100500000D02*
X237400000Y-100500000D01*
X240400000Y-102500000D02*
X240400000Y-100500000D01*
X242400000Y-103500000D02*
X241400000Y-103500000D01*
X243400000Y-100500000D02*
X243400000Y-102500000D01*
X246400000Y-100500000D02*
X243400000Y-100500000D01*
X246400000Y-102500000D02*
X246400000Y-100500000D01*
X155565266Y-153365200D02*
G75*
G03*
X155565266Y-153365200I-1666666J0D01*
G01*
X151398600Y-153365200D02*
X156398600Y-153365200D01*
X153898600Y-150865200D02*
X153898600Y-155865200D01*
X253000000Y-108685000D02*
X253000000Y-153365200D01*
X170400000Y-103500000D02*
X168910000Y-103505000D01*
X153898600Y-118516400D02*
X153898600Y-153365200D01*
X168910000Y-103505000D02*
X153898600Y-118516400D01*
X153898600Y-153365200D02*
X253000000Y-153365200D01*
M02*
