G04 #@! TF.GenerationSoftware,KiCad,Pcbnew,(5.1.12)-1*
G04 #@! TF.CreationDate,2024-12-06T21:58:48+00:00*
G04 #@! TF.ProjectId,CPCSound,43504353-6f75-46e6-942e-6b696361645f,rev?*
G04 #@! TF.SameCoordinates,Original*
G04 #@! TF.FileFunction,Soldermask,Top*
G04 #@! TF.FilePolarity,Negative*
%FSLAX46Y46*%
G04 Gerber Fmt 4.6, Leading zero omitted, Abs format (unit mm)*
G04 Created by KiCad (PCBNEW (5.1.12)-1) date 2024-12-06 21:58:48*
%MOMM*%
%LPD*%
G01*
G04 APERTURE LIST*
%ADD10C,0.100000*%
%ADD11R,1.000000X1.000000*%
%ADD12O,1.800000X2.800000*%
%ADD13O,1.700000X1.700000*%
%ADD14R,1.700000X1.700000*%
%ADD15C,4.000000*%
%ADD16C,1.600000*%
%ADD17R,1.600000X1.600000*%
%ADD18O,1.600000X1.600000*%
%ADD19R,1.600000X10.000000*%
%ADD20C,1.700000*%
G04 APERTURE END LIST*
D10*
G36*
X236220000Y-161185000D02*
G01*
X236220000Y-171980000D01*
X170180000Y-171980000D01*
X170180000Y-161185000D01*
X236220000Y-161185000D01*
G37*
X236220000Y-161185000D02*
X236220000Y-171980000D01*
X170180000Y-171980000D01*
X170180000Y-161185000D01*
X236220000Y-161185000D01*
D11*
X236220000Y-115570000D03*
X238720000Y-115570000D03*
X242590000Y-115570000D03*
X245090000Y-115570000D03*
X236240000Y-118110000D03*
X238740000Y-118110000D03*
X242590000Y-118110000D03*
X245090000Y-118110000D03*
X236240000Y-120650000D03*
X238740000Y-120650000D03*
X242570000Y-120650000D03*
X245070000Y-120650000D03*
X236240000Y-123190000D03*
X238740000Y-123190000D03*
X236240000Y-125730000D03*
X238740000Y-125730000D03*
D12*
X161040000Y-114935000D03*
X166540000Y-114935000D03*
X162840000Y-112935000D03*
X157340000Y-112935000D03*
X154940000Y-114935000D03*
D13*
X250825000Y-120015000D03*
X248285000Y-120015000D03*
X250825000Y-117475000D03*
X248285000Y-117475000D03*
X250825000Y-114935000D03*
X248285000Y-114935000D03*
X250825000Y-112395000D03*
X248285000Y-112395000D03*
X250825000Y-109855000D03*
D14*
X248285000Y-109855000D03*
D15*
X245260000Y-126740000D03*
X245260000Y-151740000D03*
D16*
X246680000Y-135085000D03*
X246680000Y-137855000D03*
X246680000Y-140625000D03*
X246680000Y-143395000D03*
X243840000Y-133700000D03*
X243840000Y-136470000D03*
X243840000Y-139240000D03*
X243840000Y-142010000D03*
D17*
X243840000Y-144780000D03*
D11*
X166370000Y-105450000D03*
X166370000Y-107950000D03*
X163830000Y-105450000D03*
X163830000Y-107950000D03*
X170775000Y-128905000D03*
X168275000Y-128905000D03*
X170775000Y-131445000D03*
X168275000Y-131445000D03*
X170775000Y-133985000D03*
X168275000Y-133985000D03*
X170775000Y-136525000D03*
X168275000Y-136525000D03*
X170815000Y-139065000D03*
X168315000Y-139065000D03*
X170815000Y-141605000D03*
X168315000Y-141605000D03*
X170775000Y-144145000D03*
X168275000Y-144145000D03*
X170815000Y-146685000D03*
X168315000Y-146685000D03*
X170795000Y-149225000D03*
X168295000Y-149225000D03*
X211455000Y-126365000D03*
X211455000Y-123865000D03*
X213995000Y-126345000D03*
X213995000Y-123845000D03*
X216535000Y-126365000D03*
X216535000Y-123865000D03*
X219075000Y-126365000D03*
X219075000Y-123865000D03*
X221615000Y-126365000D03*
X221615000Y-123865000D03*
X224155000Y-126365000D03*
X224155000Y-123865000D03*
X229235000Y-126365000D03*
X229235000Y-123865000D03*
X231775000Y-126325000D03*
X231775000Y-123825000D03*
X231775000Y-119995000D03*
X231775000Y-117495000D03*
X229235000Y-119975000D03*
X229235000Y-117475000D03*
X226695000Y-119975000D03*
X226695000Y-117475000D03*
X226695000Y-126325000D03*
X226695000Y-123825000D03*
X222885000Y-120015000D03*
X222885000Y-117515000D03*
X220345000Y-120015000D03*
X220345000Y-117515000D03*
X217805000Y-120015000D03*
X217805000Y-117515000D03*
X215265000Y-120015000D03*
X215265000Y-117515000D03*
X212725000Y-120015000D03*
X212725000Y-117515000D03*
X210185000Y-120015000D03*
X210185000Y-117515000D03*
D16*
X208280000Y-147280000D03*
X208280000Y-144780000D03*
D18*
X205105000Y-106680000D03*
X189865000Y-154940000D03*
X205105000Y-109220000D03*
X189865000Y-152400000D03*
X205105000Y-111760000D03*
X189865000Y-149860000D03*
X205105000Y-114300000D03*
X189865000Y-147320000D03*
X205105000Y-116840000D03*
X189865000Y-144780000D03*
X205105000Y-119380000D03*
X189865000Y-142240000D03*
X205105000Y-121920000D03*
X189865000Y-139700000D03*
X205105000Y-124460000D03*
X189865000Y-137160000D03*
X205105000Y-127000000D03*
X189865000Y-134620000D03*
X205105000Y-129540000D03*
X189865000Y-132080000D03*
X205105000Y-132080000D03*
X189865000Y-129540000D03*
X205105000Y-134620000D03*
X189865000Y-127000000D03*
X205105000Y-137160000D03*
X189865000Y-124460000D03*
X205105000Y-139700000D03*
X189865000Y-121920000D03*
X205105000Y-142240000D03*
X189865000Y-119380000D03*
X205105000Y-144780000D03*
X189865000Y-116840000D03*
X205105000Y-147320000D03*
X189865000Y-114300000D03*
X205105000Y-149860000D03*
X189865000Y-111760000D03*
X205105000Y-152400000D03*
X189865000Y-109220000D03*
X205105000Y-154940000D03*
D17*
X189865000Y-106680000D03*
D19*
X233680000Y-166370000D03*
X231140000Y-166370000D03*
X228600000Y-166370000D03*
X226060000Y-166370000D03*
X223520000Y-166370000D03*
X220980000Y-166370000D03*
X218440000Y-166370000D03*
X215900000Y-166370000D03*
X213360000Y-166370000D03*
X210820000Y-166370000D03*
X208280000Y-166370000D03*
X205740000Y-166370000D03*
X203200000Y-166370000D03*
X200660000Y-166370000D03*
X198120000Y-166370000D03*
X195580000Y-166370000D03*
X193040000Y-166370000D03*
X190500000Y-166370000D03*
X187960000Y-166370000D03*
X185420000Y-166370000D03*
X182880000Y-166370000D03*
X180340000Y-166370000D03*
X177800000Y-166370000D03*
X175260000Y-166370000D03*
X172720000Y-166370000D03*
D18*
X211455000Y-132080000D03*
X213995000Y-132080000D03*
X216535000Y-132080000D03*
X219075000Y-132080000D03*
X221615000Y-132080000D03*
X224155000Y-132080000D03*
X226695000Y-132080000D03*
X229235000Y-132080000D03*
D17*
X231775000Y-132080000D03*
D20*
X214630000Y-109855000D03*
X217170000Y-109855000D03*
X219710000Y-109855000D03*
X222250000Y-109855000D03*
X224790000Y-109855000D03*
X227330000Y-109855000D03*
X229870000Y-109855000D03*
X232410000Y-109855000D03*
X234950000Y-109855000D03*
X237490000Y-109855000D03*
X214630000Y-107315000D03*
X217170000Y-107315000D03*
X219710000Y-107315000D03*
X222250000Y-107315000D03*
X224790000Y-107315000D03*
X227330000Y-107315000D03*
X229870000Y-107315000D03*
X232410000Y-107315000D03*
X234950000Y-107315000D03*
G36*
G01*
X236890000Y-106465000D02*
X238090000Y-106465000D01*
G75*
G02*
X238340000Y-106715000I0J-250000D01*
G01*
X238340000Y-107915000D01*
G75*
G02*
X238090000Y-108165000I-250000J0D01*
G01*
X236890000Y-108165000D01*
G75*
G02*
X236640000Y-107915000I0J250000D01*
G01*
X236640000Y-106715000D01*
G75*
G02*
X236890000Y-106465000I250000J0D01*
G01*
G37*
D18*
X216535000Y-139065000D03*
X234315000Y-146685000D03*
X219075000Y-139065000D03*
X231775000Y-146685000D03*
X221615000Y-139065000D03*
X229235000Y-146685000D03*
X224155000Y-139065000D03*
X226695000Y-146685000D03*
X226695000Y-139065000D03*
X224155000Y-146685000D03*
X229235000Y-139065000D03*
X221615000Y-146685000D03*
X231775000Y-139065000D03*
X219075000Y-146685000D03*
X234315000Y-139065000D03*
D17*
X216535000Y-146685000D03*
D15*
X161140000Y-152025000D03*
X161140000Y-127025000D03*
D16*
X159720000Y-143680000D03*
X159720000Y-140910000D03*
X159720000Y-138140000D03*
X159720000Y-135370000D03*
X162560000Y-145065000D03*
X162560000Y-142295000D03*
X162560000Y-139525000D03*
X162560000Y-136755000D03*
D17*
X162560000Y-133985000D03*
D18*
X183515000Y-114935000D03*
D16*
X183515000Y-107315000D03*
D18*
X180340000Y-114935000D03*
D16*
X180340000Y-107315000D03*
D18*
X177165000Y-114935000D03*
D16*
X177165000Y-107315000D03*
D18*
X173990000Y-107315000D03*
D16*
X173990000Y-114935000D03*
D18*
X173990000Y-125095000D03*
D16*
X173990000Y-117475000D03*
D18*
X170815000Y-125095000D03*
D16*
X170815000Y-117475000D03*
D18*
X170815000Y-107315000D03*
D16*
X170815000Y-114935000D03*
D18*
X183515000Y-125095000D03*
D16*
X183515000Y-117475000D03*
D18*
X180340000Y-125095000D03*
D16*
X180340000Y-117475000D03*
D18*
X177165000Y-125095000D03*
D16*
X177165000Y-117475000D03*
X213360000Y-141565000D03*
X213360000Y-139065000D03*
M02*
