G04 #@! TF.GenerationSoftware,KiCad,Pcbnew,(5.1.12)-1*
G04 #@! TF.CreationDate,2022-12-10T16:47:45+00:00*
G04 #@! TF.ProjectId,CPCSound,43504353-6f75-46e6-942e-6b696361645f,rev?*
G04 #@! TF.SameCoordinates,Original*
G04 #@! TF.FileFunction,Legend,Bot*
G04 #@! TF.FilePolarity,Positive*
%FSLAX46Y46*%
G04 Gerber Fmt 4.6, Leading zero omitted, Abs format (unit mm)*
G04 Created by KiCad (PCBNEW (5.1.12)-1) date 2022-12-10 16:47:45*
%MOMM*%
%LPD*%
G01*
G04 APERTURE LIST*
%ADD10C,0.150000*%
%ADD11C,0.200000*%
%ADD12C,0.120000*%
G04 APERTURE END LIST*
D10*
X244927380Y-143047976D02*
X244451190Y-142714642D01*
X244927380Y-142476547D02*
X243927380Y-142476547D01*
X243927380Y-142857500D01*
X243975000Y-142952738D01*
X244022619Y-143000357D01*
X244117857Y-143047976D01*
X244260714Y-143047976D01*
X244355952Y-143000357D01*
X244403571Y-142952738D01*
X244451190Y-142857500D01*
X244451190Y-142476547D01*
X244927380Y-143381309D02*
X244260714Y-143905119D01*
X244260714Y-143381309D02*
X244927380Y-143905119D01*
X244022619Y-144238452D02*
X243975000Y-144286071D01*
X243927380Y-144381309D01*
X243927380Y-144619404D01*
X243975000Y-144714642D01*
X244022619Y-144762261D01*
X244117857Y-144809880D01*
X244213095Y-144809880D01*
X244355952Y-144762261D01*
X244927380Y-144190833D01*
X244927380Y-144809880D01*
X243879761Y-145952738D02*
X245165476Y-145095595D01*
X244927380Y-146857500D02*
X244451190Y-146524166D01*
X244927380Y-146286071D02*
X243927380Y-146286071D01*
X243927380Y-146667023D01*
X243975000Y-146762261D01*
X244022619Y-146809880D01*
X244117857Y-146857500D01*
X244260714Y-146857500D01*
X244355952Y-146809880D01*
X244403571Y-146762261D01*
X244451190Y-146667023D01*
X244451190Y-146286071D01*
X244927380Y-147190833D02*
X244260714Y-147714642D01*
X244260714Y-147190833D02*
X244927380Y-147714642D01*
X241387380Y-142809880D02*
X241387380Y-143381309D01*
X242387380Y-143095595D02*
X241387380Y-143095595D01*
X242387380Y-143619404D02*
X241720714Y-144143214D01*
X241720714Y-143619404D02*
X242387380Y-144143214D01*
X241482619Y-144476547D02*
X241435000Y-144524166D01*
X241387380Y-144619404D01*
X241387380Y-144857500D01*
X241435000Y-144952738D01*
X241482619Y-145000357D01*
X241577857Y-145047976D01*
X241673095Y-145047976D01*
X241815952Y-145000357D01*
X242387380Y-144428928D01*
X242387380Y-145047976D01*
X241339761Y-146190833D02*
X242625476Y-145333690D01*
X241387380Y-146381309D02*
X241387380Y-146952738D01*
X242387380Y-146667023D02*
X241387380Y-146667023D01*
X242387380Y-147190833D02*
X241720714Y-147714642D01*
X241720714Y-147190833D02*
X242387380Y-147714642D01*
X220345000Y-147955000D02*
X240665000Y-147955000D01*
X220345000Y-150495000D02*
X220345000Y-147955000D01*
X240665000Y-150495000D02*
X220345000Y-150495000D01*
X240665000Y-147955000D02*
X240665000Y-150495000D01*
X240052619Y-147391428D02*
X239290714Y-147391428D01*
X238814523Y-147391428D02*
X238052619Y-147391428D01*
X237576428Y-147391428D02*
X236814523Y-147391428D01*
X234862142Y-147486666D02*
X234385952Y-147486666D01*
X234957380Y-147772380D02*
X234624047Y-146772380D01*
X234290714Y-147772380D01*
X233766904Y-147296190D02*
X233766904Y-147772380D01*
X234100238Y-146772380D02*
X233766904Y-147296190D01*
X233433571Y-146772380D01*
X232005000Y-147248571D02*
X231862142Y-147296190D01*
X231814523Y-147343809D01*
X231766904Y-147439047D01*
X231766904Y-147581904D01*
X231814523Y-147677142D01*
X231862142Y-147724761D01*
X231957380Y-147772380D01*
X232338333Y-147772380D01*
X232338333Y-146772380D01*
X232005000Y-146772380D01*
X231909761Y-146820000D01*
X231862142Y-146867619D01*
X231814523Y-146962857D01*
X231814523Y-147058095D01*
X231862142Y-147153333D01*
X231909761Y-147200952D01*
X232005000Y-147248571D01*
X232338333Y-147248571D01*
X231338333Y-146772380D02*
X231338333Y-147581904D01*
X231290714Y-147677142D01*
X231243095Y-147724761D01*
X231147857Y-147772380D01*
X230957380Y-147772380D01*
X230862142Y-147724761D01*
X230814523Y-147677142D01*
X230766904Y-147581904D01*
X230766904Y-146772380D01*
X230338333Y-147724761D02*
X230195476Y-147772380D01*
X229957380Y-147772380D01*
X229862142Y-147724761D01*
X229814523Y-147677142D01*
X229766904Y-147581904D01*
X229766904Y-147486666D01*
X229814523Y-147391428D01*
X229862142Y-147343809D01*
X229957380Y-147296190D01*
X230147857Y-147248571D01*
X230243095Y-147200952D01*
X230290714Y-147153333D01*
X230338333Y-147058095D01*
X230338333Y-146962857D01*
X230290714Y-146867619D01*
X230243095Y-146820000D01*
X230147857Y-146772380D01*
X229909761Y-146772380D01*
X229766904Y-146820000D01*
X228385952Y-146772380D02*
X228290714Y-146772380D01*
X228195476Y-146820000D01*
X228147857Y-146867619D01*
X228100238Y-146962857D01*
X228052619Y-147153333D01*
X228052619Y-147391428D01*
X228100238Y-147581904D01*
X228147857Y-147677142D01*
X228195476Y-147724761D01*
X228290714Y-147772380D01*
X228385952Y-147772380D01*
X228481190Y-147724761D01*
X228528809Y-147677142D01*
X228576428Y-147581904D01*
X228624047Y-147391428D01*
X228624047Y-147153333D01*
X228576428Y-146962857D01*
X228528809Y-146867619D01*
X228481190Y-146820000D01*
X228385952Y-146772380D01*
X227624047Y-147677142D02*
X227576428Y-147724761D01*
X227624047Y-147772380D01*
X227671666Y-147724761D01*
X227624047Y-147677142D01*
X227624047Y-147772380D01*
X227147857Y-147677142D02*
X227100238Y-147724761D01*
X227147857Y-147772380D01*
X227195476Y-147724761D01*
X227147857Y-147677142D01*
X227147857Y-147772380D01*
X226766904Y-146772380D02*
X226100238Y-146772380D01*
X226528809Y-147772380D01*
X224195476Y-147391428D02*
X223433571Y-147391428D01*
X222957380Y-147391428D02*
X222195476Y-147391428D01*
X221719285Y-147391428D02*
X220957380Y-147391428D01*
D11*
X228907142Y-132795714D02*
X228978571Y-132867142D01*
X229192857Y-132938571D01*
X229335714Y-132938571D01*
X229550000Y-132867142D01*
X229692857Y-132724285D01*
X229764285Y-132581428D01*
X229835714Y-132295714D01*
X229835714Y-132081428D01*
X229764285Y-131795714D01*
X229692857Y-131652857D01*
X229550000Y-131510000D01*
X229335714Y-131438571D01*
X229192857Y-131438571D01*
X228978571Y-131510000D01*
X228907142Y-131581428D01*
X228264285Y-132938571D02*
X228264285Y-131438571D01*
X227692857Y-131438571D01*
X227550000Y-131510000D01*
X227478571Y-131581428D01*
X227407142Y-131724285D01*
X227407142Y-131938571D01*
X227478571Y-132081428D01*
X227550000Y-132152857D01*
X227692857Y-132224285D01*
X228264285Y-132224285D01*
X225907142Y-132795714D02*
X225978571Y-132867142D01*
X226192857Y-132938571D01*
X226335714Y-132938571D01*
X226550000Y-132867142D01*
X226692857Y-132724285D01*
X226764285Y-132581428D01*
X226835714Y-132295714D01*
X226835714Y-132081428D01*
X226764285Y-131795714D01*
X226692857Y-131652857D01*
X226550000Y-131510000D01*
X226335714Y-131438571D01*
X226192857Y-131438571D01*
X225978571Y-131510000D01*
X225907142Y-131581428D01*
X224121428Y-132938571D02*
X224121428Y-131438571D01*
X223621428Y-132510000D01*
X223121428Y-131438571D01*
X223121428Y-132938571D01*
X222192857Y-132938571D02*
X222335714Y-132867142D01*
X222407142Y-132795714D01*
X222478571Y-132652857D01*
X222478571Y-132224285D01*
X222407142Y-132081428D01*
X222335714Y-132010000D01*
X222192857Y-131938571D01*
X221978571Y-131938571D01*
X221835714Y-132010000D01*
X221764285Y-132081428D01*
X221692857Y-132224285D01*
X221692857Y-132652857D01*
X221764285Y-132795714D01*
X221835714Y-132867142D01*
X221978571Y-132938571D01*
X222192857Y-132938571D01*
X220407142Y-132938571D02*
X220407142Y-131438571D01*
X220407142Y-132867142D02*
X220550000Y-132938571D01*
X220835714Y-132938571D01*
X220978571Y-132867142D01*
X221050000Y-132795714D01*
X221121428Y-132652857D01*
X221121428Y-132224285D01*
X221050000Y-132081428D01*
X220978571Y-132010000D01*
X220835714Y-131938571D01*
X220550000Y-131938571D01*
X220407142Y-132010000D01*
X219050000Y-131938571D02*
X219050000Y-132938571D01*
X219692857Y-131938571D02*
X219692857Y-132724285D01*
X219621428Y-132867142D01*
X219478571Y-132938571D01*
X219264285Y-132938571D01*
X219121428Y-132867142D01*
X219050000Y-132795714D01*
X218121428Y-132938571D02*
X218264285Y-132867142D01*
X218335714Y-132724285D01*
X218335714Y-131438571D01*
X216907142Y-132938571D02*
X216907142Y-132152857D01*
X216978571Y-132010000D01*
X217121428Y-131938571D01*
X217407142Y-131938571D01*
X217550000Y-132010000D01*
X216907142Y-132867142D02*
X217050000Y-132938571D01*
X217407142Y-132938571D01*
X217550000Y-132867142D01*
X217621428Y-132724285D01*
X217621428Y-132581428D01*
X217550000Y-132438571D01*
X217407142Y-132367142D01*
X217050000Y-132367142D01*
X216907142Y-132295714D01*
X216192857Y-132938571D02*
X216192857Y-131938571D01*
X216192857Y-132224285D02*
X216121428Y-132081428D01*
X216050000Y-132010000D01*
X215907142Y-131938571D01*
X215764285Y-131938571D01*
X214335714Y-131938571D02*
X213764285Y-131938571D01*
X214121428Y-132938571D02*
X214121428Y-131652857D01*
X214050000Y-131510000D01*
X213907142Y-131438571D01*
X213764285Y-131438571D01*
X213050000Y-132938571D02*
X213192857Y-132867142D01*
X213264285Y-132795714D01*
X213335714Y-132652857D01*
X213335714Y-132224285D01*
X213264285Y-132081428D01*
X213192857Y-132010000D01*
X213050000Y-131938571D01*
X212835714Y-131938571D01*
X212692857Y-132010000D01*
X212621428Y-132081428D01*
X212550000Y-132224285D01*
X212550000Y-132652857D01*
X212621428Y-132795714D01*
X212692857Y-132867142D01*
X212835714Y-132938571D01*
X213050000Y-132938571D01*
X211907142Y-132938571D02*
X211907142Y-131938571D01*
X211907142Y-132224285D02*
X211835714Y-132081428D01*
X211764285Y-132010000D01*
X211621428Y-131938571D01*
X211478571Y-131938571D01*
X208978571Y-132938571D02*
X209478571Y-132224285D01*
X209835714Y-132938571D02*
X209835714Y-131438571D01*
X209264285Y-131438571D01*
X209121428Y-131510000D01*
X209050000Y-131581428D01*
X208978571Y-131724285D01*
X208978571Y-131938571D01*
X209050000Y-132081428D01*
X209121428Y-132152857D01*
X209264285Y-132224285D01*
X209835714Y-132224285D01*
X207478571Y-132795714D02*
X207550000Y-132867142D01*
X207764285Y-132938571D01*
X207907142Y-132938571D01*
X208121428Y-132867142D01*
X208264285Y-132724285D01*
X208335714Y-132581428D01*
X208407142Y-132295714D01*
X208407142Y-132081428D01*
X208335714Y-131795714D01*
X208264285Y-131652857D01*
X208121428Y-131510000D01*
X207907142Y-131438571D01*
X207764285Y-131438571D01*
X207550000Y-131510000D01*
X207478571Y-131581428D01*
X206907142Y-131581428D02*
X206835714Y-131510000D01*
X206692857Y-131438571D01*
X206335714Y-131438571D01*
X206192857Y-131510000D01*
X206121428Y-131581428D01*
X206050000Y-131724285D01*
X206050000Y-131867142D01*
X206121428Y-132081428D01*
X206978571Y-132938571D01*
X206050000Y-132938571D01*
X205121428Y-131438571D02*
X204978571Y-131438571D01*
X204835714Y-131510000D01*
X204764285Y-131581428D01*
X204692857Y-131724285D01*
X204621428Y-132010000D01*
X204621428Y-132367142D01*
X204692857Y-132652857D01*
X204764285Y-132795714D01*
X204835714Y-132867142D01*
X204978571Y-132938571D01*
X205121428Y-132938571D01*
X205264285Y-132867142D01*
X205335714Y-132795714D01*
X205407142Y-132652857D01*
X205478571Y-132367142D01*
X205478571Y-132010000D01*
X205407142Y-131724285D01*
X205335714Y-131581428D01*
X205264285Y-131510000D01*
X205121428Y-131438571D01*
X203192857Y-132938571D02*
X204050000Y-132938571D01*
X203621428Y-132938571D02*
X203621428Y-131438571D01*
X203764285Y-131652857D01*
X203907142Y-131795714D01*
X204050000Y-131867142D01*
X201907142Y-131938571D02*
X201907142Y-132938571D01*
X202264285Y-131367142D02*
X202621428Y-132438571D01*
X201692857Y-132438571D01*
X199978571Y-132938571D02*
X199978571Y-131438571D01*
X199978571Y-132010000D02*
X199835714Y-131938571D01*
X199550000Y-131938571D01*
X199407142Y-132010000D01*
X199335714Y-132081428D01*
X199264285Y-132224285D01*
X199264285Y-132652857D01*
X199335714Y-132795714D01*
X199407142Y-132867142D01*
X199550000Y-132938571D01*
X199835714Y-132938571D01*
X199978571Y-132867142D01*
X197978571Y-132938571D02*
X197978571Y-132152857D01*
X198050000Y-132010000D01*
X198192857Y-131938571D01*
X198478571Y-131938571D01*
X198621428Y-132010000D01*
X197978571Y-132867142D02*
X198121428Y-132938571D01*
X198478571Y-132938571D01*
X198621428Y-132867142D01*
X198692857Y-132724285D01*
X198692857Y-132581428D01*
X198621428Y-132438571D01*
X198478571Y-132367142D01*
X198121428Y-132367142D01*
X197978571Y-132295714D01*
X196621428Y-132867142D02*
X196764285Y-132938571D01*
X197050000Y-132938571D01*
X197192857Y-132867142D01*
X197264285Y-132795714D01*
X197335714Y-132652857D01*
X197335714Y-132224285D01*
X197264285Y-132081428D01*
X197192857Y-132010000D01*
X197050000Y-131938571D01*
X196764285Y-131938571D01*
X196621428Y-132010000D01*
X195978571Y-132938571D02*
X195978571Y-131438571D01*
X195835714Y-132367142D02*
X195407142Y-132938571D01*
X195407142Y-131938571D02*
X195978571Y-132510000D01*
X194764285Y-131938571D02*
X194764285Y-133438571D01*
X194764285Y-132010000D02*
X194621428Y-131938571D01*
X194335714Y-131938571D01*
X194192857Y-132010000D01*
X194121428Y-132081428D01*
X194050000Y-132224285D01*
X194050000Y-132652857D01*
X194121428Y-132795714D01*
X194192857Y-132867142D01*
X194335714Y-132938571D01*
X194621428Y-132938571D01*
X194764285Y-132867142D01*
X193192857Y-132938571D02*
X193335714Y-132867142D01*
X193407142Y-132724285D01*
X193407142Y-131438571D01*
X191978571Y-132938571D02*
X191978571Y-132152857D01*
X192050000Y-132010000D01*
X192192857Y-131938571D01*
X192478571Y-131938571D01*
X192621428Y-132010000D01*
X191978571Y-132867142D02*
X192121428Y-132938571D01*
X192478571Y-132938571D01*
X192621428Y-132867142D01*
X192692857Y-132724285D01*
X192692857Y-132581428D01*
X192621428Y-132438571D01*
X192478571Y-132367142D01*
X192121428Y-132367142D01*
X191978571Y-132295714D01*
X191264285Y-131938571D02*
X191264285Y-132938571D01*
X191264285Y-132081428D02*
X191192857Y-132010000D01*
X191050000Y-131938571D01*
X190835714Y-131938571D01*
X190692857Y-132010000D01*
X190621428Y-132152857D01*
X190621428Y-132938571D01*
X189335714Y-132867142D02*
X189478571Y-132938571D01*
X189764285Y-132938571D01*
X189907142Y-132867142D01*
X189978571Y-132724285D01*
X189978571Y-132152857D01*
X189907142Y-132010000D01*
X189764285Y-131938571D01*
X189478571Y-131938571D01*
X189335714Y-132010000D01*
X189264285Y-132152857D01*
X189264285Y-132295714D01*
X189978571Y-132438571D01*
X217335714Y-135317142D02*
X217121428Y-135388571D01*
X216764285Y-135388571D01*
X216621428Y-135317142D01*
X216550000Y-135245714D01*
X216478571Y-135102857D01*
X216478571Y-134960000D01*
X216550000Y-134817142D01*
X216621428Y-134745714D01*
X216764285Y-134674285D01*
X217050000Y-134602857D01*
X217192857Y-134531428D01*
X217264285Y-134460000D01*
X217335714Y-134317142D01*
X217335714Y-134174285D01*
X217264285Y-134031428D01*
X217192857Y-133960000D01*
X217050000Y-133888571D01*
X216692857Y-133888571D01*
X216478571Y-133960000D01*
X215621428Y-135388571D02*
X215764285Y-135317142D01*
X215835714Y-135245714D01*
X215907142Y-135102857D01*
X215907142Y-134674285D01*
X215835714Y-134531428D01*
X215764285Y-134460000D01*
X215621428Y-134388571D01*
X215407142Y-134388571D01*
X215264285Y-134460000D01*
X215192857Y-134531428D01*
X215121428Y-134674285D01*
X215121428Y-135102857D01*
X215192857Y-135245714D01*
X215264285Y-135317142D01*
X215407142Y-135388571D01*
X215621428Y-135388571D01*
X213835714Y-134388571D02*
X213835714Y-135388571D01*
X214478571Y-134388571D02*
X214478571Y-135174285D01*
X214407142Y-135317142D01*
X214264285Y-135388571D01*
X214050000Y-135388571D01*
X213907142Y-135317142D01*
X213835714Y-135245714D01*
X213121428Y-134388571D02*
X213121428Y-135388571D01*
X213121428Y-134531428D02*
X213050000Y-134460000D01*
X212907142Y-134388571D01*
X212692857Y-134388571D01*
X212550000Y-134460000D01*
X212478571Y-134602857D01*
X212478571Y-135388571D01*
X211121428Y-135388571D02*
X211121428Y-133888571D01*
X211121428Y-135317142D02*
X211264285Y-135388571D01*
X211550000Y-135388571D01*
X211692857Y-135317142D01*
X211764285Y-135245714D01*
X211835714Y-135102857D01*
X211835714Y-134674285D01*
X211764285Y-134531428D01*
X211692857Y-134460000D01*
X211550000Y-134388571D01*
X211264285Y-134388571D01*
X211121428Y-134460000D01*
X209264285Y-135388571D02*
X209264285Y-134388571D01*
X209264285Y-134531428D02*
X209192857Y-134460000D01*
X209050000Y-134388571D01*
X208835714Y-134388571D01*
X208692857Y-134460000D01*
X208621428Y-134602857D01*
X208621428Y-135388571D01*
X208621428Y-134602857D02*
X208550000Y-134460000D01*
X208407142Y-134388571D01*
X208192857Y-134388571D01*
X208050000Y-134460000D01*
X207978571Y-134602857D01*
X207978571Y-135388571D01*
X207050000Y-135388571D02*
X207192857Y-135317142D01*
X207264285Y-135245714D01*
X207335714Y-135102857D01*
X207335714Y-134674285D01*
X207264285Y-134531428D01*
X207192857Y-134460000D01*
X207050000Y-134388571D01*
X206835714Y-134388571D01*
X206692857Y-134460000D01*
X206621428Y-134531428D01*
X206550000Y-134674285D01*
X206550000Y-135102857D01*
X206621428Y-135245714D01*
X206692857Y-135317142D01*
X206835714Y-135388571D01*
X207050000Y-135388571D01*
X205264285Y-135388571D02*
X205264285Y-133888571D01*
X205264285Y-135317142D02*
X205407142Y-135388571D01*
X205692857Y-135388571D01*
X205835714Y-135317142D01*
X205907142Y-135245714D01*
X205978571Y-135102857D01*
X205978571Y-134674285D01*
X205907142Y-134531428D01*
X205835714Y-134460000D01*
X205692857Y-134388571D01*
X205407142Y-134388571D01*
X205264285Y-134460000D01*
X203907142Y-134388571D02*
X203907142Y-135388571D01*
X204550000Y-134388571D02*
X204550000Y-135174285D01*
X204478571Y-135317142D01*
X204335714Y-135388571D01*
X204121428Y-135388571D01*
X203978571Y-135317142D01*
X203907142Y-135245714D01*
X202978571Y-135388571D02*
X203121428Y-135317142D01*
X203192857Y-135174285D01*
X203192857Y-133888571D01*
X201835714Y-135317142D02*
X201978571Y-135388571D01*
X202264285Y-135388571D01*
X202407142Y-135317142D01*
X202478571Y-135174285D01*
X202478571Y-134602857D01*
X202407142Y-134460000D01*
X202264285Y-134388571D01*
X201978571Y-134388571D01*
X201835714Y-134460000D01*
X201764285Y-134602857D01*
X201764285Y-134745714D01*
X202478571Y-134888571D01*
X219907142Y-136695714D02*
X220050000Y-136624285D01*
X220335714Y-136624285D01*
X220478571Y-136695714D01*
X220621428Y-136838571D01*
X220692857Y-136981428D01*
X220692857Y-137267142D01*
X220621428Y-137410000D01*
X220478571Y-137552857D01*
X220335714Y-137624285D01*
X220050000Y-137624285D01*
X219907142Y-137552857D01*
X220192857Y-136124285D02*
X220550000Y-136195714D01*
X220907142Y-136410000D01*
X221121428Y-136767142D01*
X221192857Y-137124285D01*
X221121428Y-137481428D01*
X220907142Y-137838571D01*
X220550000Y-138052857D01*
X220192857Y-138124285D01*
X219835714Y-138052857D01*
X219478571Y-137838571D01*
X219264285Y-137481428D01*
X219192857Y-137124285D01*
X219264285Y-136767142D01*
X219478571Y-136410000D01*
X219835714Y-136195714D01*
X220192857Y-136124285D01*
X217407142Y-137838571D02*
X217407142Y-136338571D01*
X216907142Y-137410000D01*
X216407142Y-136338571D01*
X216407142Y-137838571D01*
X215692857Y-137838571D02*
X215692857Y-136838571D01*
X215692857Y-136338571D02*
X215764285Y-136410000D01*
X215692857Y-136481428D01*
X215621428Y-136410000D01*
X215692857Y-136338571D01*
X215692857Y-136481428D01*
X214978571Y-137838571D02*
X214978571Y-136338571D01*
X214835714Y-137267142D02*
X214407142Y-137838571D01*
X214407142Y-136838571D02*
X214978571Y-137410000D01*
X213192857Y-137767142D02*
X213335714Y-137838571D01*
X213621428Y-137838571D01*
X213764285Y-137767142D01*
X213835714Y-137624285D01*
X213835714Y-137052857D01*
X213764285Y-136910000D01*
X213621428Y-136838571D01*
X213335714Y-136838571D01*
X213192857Y-136910000D01*
X213121428Y-137052857D01*
X213121428Y-137195714D01*
X213835714Y-137338571D01*
X211407142Y-137767142D02*
X211192857Y-137838571D01*
X210835714Y-137838571D01*
X210692857Y-137767142D01*
X210621428Y-137695714D01*
X210550000Y-137552857D01*
X210550000Y-137410000D01*
X210621428Y-137267142D01*
X210692857Y-137195714D01*
X210835714Y-137124285D01*
X211121428Y-137052857D01*
X211264285Y-136981428D01*
X211335714Y-136910000D01*
X211407142Y-136767142D01*
X211407142Y-136624285D01*
X211335714Y-136481428D01*
X211264285Y-136410000D01*
X211121428Y-136338571D01*
X210764285Y-136338571D01*
X210550000Y-136410000D01*
X209264285Y-136838571D02*
X209264285Y-137838571D01*
X209907142Y-136838571D02*
X209907142Y-137624285D01*
X209835714Y-137767142D01*
X209692857Y-137838571D01*
X209478571Y-137838571D01*
X209335714Y-137767142D01*
X209264285Y-137695714D01*
X208764285Y-136838571D02*
X208192857Y-136838571D01*
X208550000Y-136338571D02*
X208550000Y-137624285D01*
X208478571Y-137767142D01*
X208335714Y-137838571D01*
X208192857Y-137838571D01*
X207907142Y-136838571D02*
X207335714Y-136838571D01*
X207692857Y-136338571D02*
X207692857Y-137624285D01*
X207621428Y-137767142D01*
X207478571Y-137838571D01*
X207335714Y-137838571D01*
X206621428Y-137838571D02*
X206764285Y-137767142D01*
X206835714Y-137695714D01*
X206907142Y-137552857D01*
X206907142Y-137124285D01*
X206835714Y-136981428D01*
X206764285Y-136910000D01*
X206621428Y-136838571D01*
X206407142Y-136838571D01*
X206264285Y-136910000D01*
X206192857Y-136981428D01*
X206121428Y-137124285D01*
X206121428Y-137552857D01*
X206192857Y-137695714D01*
X206264285Y-137767142D01*
X206407142Y-137838571D01*
X206621428Y-137838571D01*
X205478571Y-136838571D02*
X205478571Y-137838571D01*
X205478571Y-136981428D02*
X205407142Y-136910000D01*
X205264285Y-136838571D01*
X205050000Y-136838571D01*
X204907142Y-136910000D01*
X204835714Y-137052857D01*
X204835714Y-137838571D01*
X203050000Y-136481428D02*
X202978571Y-136410000D01*
X202835714Y-136338571D01*
X202478571Y-136338571D01*
X202335714Y-136410000D01*
X202264285Y-136481428D01*
X202192857Y-136624285D01*
X202192857Y-136767142D01*
X202264285Y-136981428D01*
X203121428Y-137838571D01*
X202192857Y-137838571D01*
X201264285Y-136338571D02*
X201121428Y-136338571D01*
X200978571Y-136410000D01*
X200907142Y-136481428D01*
X200835714Y-136624285D01*
X200764285Y-136910000D01*
X200764285Y-137267142D01*
X200835714Y-137552857D01*
X200907142Y-137695714D01*
X200978571Y-137767142D01*
X201121428Y-137838571D01*
X201264285Y-137838571D01*
X201407142Y-137767142D01*
X201478571Y-137695714D01*
X201550000Y-137552857D01*
X201621428Y-137267142D01*
X201621428Y-136910000D01*
X201550000Y-136624285D01*
X201478571Y-136481428D01*
X201407142Y-136410000D01*
X201264285Y-136338571D01*
X200192857Y-136481428D02*
X200121428Y-136410000D01*
X199978571Y-136338571D01*
X199621428Y-136338571D01*
X199478571Y-136410000D01*
X199407142Y-136481428D01*
X199335714Y-136624285D01*
X199335714Y-136767142D01*
X199407142Y-136981428D01*
X200264285Y-137838571D01*
X199335714Y-137838571D01*
X198764285Y-136481428D02*
X198692857Y-136410000D01*
X198550000Y-136338571D01*
X198192857Y-136338571D01*
X198050000Y-136410000D01*
X197978571Y-136481428D01*
X197907142Y-136624285D01*
X197907142Y-136767142D01*
X197978571Y-136981428D01*
X198835714Y-137838571D01*
X197907142Y-137838571D01*
X216014285Y-139502857D02*
X215800000Y-139574285D01*
X215728571Y-139645714D01*
X215657142Y-139788571D01*
X215657142Y-140002857D01*
X215728571Y-140145714D01*
X215800000Y-140217142D01*
X215942857Y-140288571D01*
X216514285Y-140288571D01*
X216514285Y-138788571D01*
X216014285Y-138788571D01*
X215871428Y-138860000D01*
X215800000Y-138931428D01*
X215728571Y-139074285D01*
X215728571Y-139217142D01*
X215800000Y-139360000D01*
X215871428Y-139431428D01*
X216014285Y-139502857D01*
X216514285Y-139502857D01*
X215014285Y-140288571D02*
X215014285Y-139288571D01*
X215014285Y-139574285D02*
X214942857Y-139431428D01*
X214871428Y-139360000D01*
X214728571Y-139288571D01*
X214585714Y-139288571D01*
X213514285Y-140217142D02*
X213657142Y-140288571D01*
X213942857Y-140288571D01*
X214085714Y-140217142D01*
X214157142Y-140074285D01*
X214157142Y-139502857D01*
X214085714Y-139360000D01*
X213942857Y-139288571D01*
X213657142Y-139288571D01*
X213514285Y-139360000D01*
X213442857Y-139502857D01*
X213442857Y-139645714D01*
X214157142Y-139788571D01*
X212157142Y-140288571D02*
X212157142Y-139502857D01*
X212228571Y-139360000D01*
X212371428Y-139288571D01*
X212657142Y-139288571D01*
X212800000Y-139360000D01*
X212157142Y-140217142D02*
X212300000Y-140288571D01*
X212657142Y-140288571D01*
X212800000Y-140217142D01*
X212871428Y-140074285D01*
X212871428Y-139931428D01*
X212800000Y-139788571D01*
X212657142Y-139717142D01*
X212300000Y-139717142D01*
X212157142Y-139645714D01*
X210800000Y-140288571D02*
X210800000Y-138788571D01*
X210800000Y-140217142D02*
X210942857Y-140288571D01*
X211228571Y-140288571D01*
X211371428Y-140217142D01*
X211442857Y-140145714D01*
X211514285Y-140002857D01*
X211514285Y-139574285D01*
X211442857Y-139431428D01*
X211371428Y-139360000D01*
X211228571Y-139288571D01*
X210942857Y-139288571D01*
X210800000Y-139360000D01*
X209871428Y-139431428D02*
X210014285Y-139360000D01*
X210085714Y-139288571D01*
X210157142Y-139145714D01*
X210157142Y-139074285D01*
X210085714Y-138931428D01*
X210014285Y-138860000D01*
X209871428Y-138788571D01*
X209585714Y-138788571D01*
X209442857Y-138860000D01*
X209371428Y-138931428D01*
X209300000Y-139074285D01*
X209300000Y-139145714D01*
X209371428Y-139288571D01*
X209442857Y-139360000D01*
X209585714Y-139431428D01*
X209871428Y-139431428D01*
X210014285Y-139502857D01*
X210085714Y-139574285D01*
X210157142Y-139717142D01*
X210157142Y-140002857D01*
X210085714Y-140145714D01*
X210014285Y-140217142D01*
X209871428Y-140288571D01*
X209585714Y-140288571D01*
X209442857Y-140217142D01*
X209371428Y-140145714D01*
X209300000Y-140002857D01*
X209300000Y-139717142D01*
X209371428Y-139574285D01*
X209442857Y-139502857D01*
X209585714Y-139431428D01*
X208371428Y-138788571D02*
X208228571Y-138788571D01*
X208085714Y-138860000D01*
X208014285Y-138931428D01*
X207942857Y-139074285D01*
X207871428Y-139360000D01*
X207871428Y-139717142D01*
X207942857Y-140002857D01*
X208014285Y-140145714D01*
X208085714Y-140217142D01*
X208228571Y-140288571D01*
X208371428Y-140288571D01*
X208514285Y-140217142D01*
X208585714Y-140145714D01*
X208657142Y-140002857D01*
X208728571Y-139717142D01*
X208728571Y-139360000D01*
X208657142Y-139074285D01*
X208585714Y-138931428D01*
X208514285Y-138860000D01*
X208371428Y-138788571D01*
X207228571Y-140145714D02*
X207157142Y-140217142D01*
X207228571Y-140288571D01*
X207300000Y-140217142D01*
X207228571Y-140145714D01*
X207228571Y-140288571D01*
X205871428Y-140217142D02*
X206014285Y-140288571D01*
X206300000Y-140288571D01*
X206442857Y-140217142D01*
X206514285Y-140145714D01*
X206585714Y-140002857D01*
X206585714Y-139574285D01*
X206514285Y-139431428D01*
X206442857Y-139360000D01*
X206300000Y-139288571D01*
X206014285Y-139288571D01*
X205871428Y-139360000D01*
X205014285Y-140288571D02*
X205157142Y-140217142D01*
X205228571Y-140145714D01*
X205300000Y-140002857D01*
X205300000Y-139574285D01*
X205228571Y-139431428D01*
X205157142Y-139360000D01*
X205014285Y-139288571D01*
X204800000Y-139288571D01*
X204657142Y-139360000D01*
X204585714Y-139431428D01*
X204514285Y-139574285D01*
X204514285Y-140002857D01*
X204585714Y-140145714D01*
X204657142Y-140217142D01*
X204800000Y-140288571D01*
X205014285Y-140288571D01*
X203871428Y-140288571D02*
X203871428Y-139288571D01*
X203871428Y-139431428D02*
X203800000Y-139360000D01*
X203657142Y-139288571D01*
X203442857Y-139288571D01*
X203300000Y-139360000D01*
X203228571Y-139502857D01*
X203228571Y-140288571D01*
X203228571Y-139502857D02*
X203157142Y-139360000D01*
X203014285Y-139288571D01*
X202800000Y-139288571D01*
X202657142Y-139360000D01*
X202585714Y-139502857D01*
X202585714Y-140288571D01*
X221871428Y-142024285D02*
X221942857Y-141952857D01*
X222085714Y-141881428D01*
X222228571Y-141881428D01*
X222371428Y-141952857D01*
X222442857Y-142024285D01*
X222514285Y-142167142D01*
X222514285Y-142310000D01*
X222442857Y-142452857D01*
X222371428Y-142524285D01*
X222228571Y-142595714D01*
X222085714Y-142595714D01*
X221942857Y-142524285D01*
X221871428Y-142452857D01*
X221871428Y-141881428D02*
X221871428Y-142452857D01*
X221800000Y-142524285D01*
X221728571Y-142524285D01*
X221585714Y-142452857D01*
X221514285Y-142310000D01*
X221514285Y-141952857D01*
X221657142Y-141738571D01*
X221871428Y-141595714D01*
X222157142Y-141524285D01*
X222442857Y-141595714D01*
X222657142Y-141738571D01*
X222800000Y-141952857D01*
X222871428Y-142238571D01*
X222800000Y-142524285D01*
X222657142Y-142738571D01*
X222442857Y-142881428D01*
X222157142Y-142952857D01*
X221871428Y-142881428D01*
X221657142Y-142738571D01*
X220871428Y-142738571D02*
X220871428Y-141238571D01*
X220871428Y-141810000D02*
X220728571Y-141738571D01*
X220442857Y-141738571D01*
X220300000Y-141810000D01*
X220228571Y-141881428D01*
X220157142Y-142024285D01*
X220157142Y-142452857D01*
X220228571Y-142595714D01*
X220300000Y-142667142D01*
X220442857Y-142738571D01*
X220728571Y-142738571D01*
X220871428Y-142667142D01*
X219514285Y-142738571D02*
X219514285Y-141738571D01*
X219514285Y-142024285D02*
X219442857Y-141881428D01*
X219371428Y-141810000D01*
X219228571Y-141738571D01*
X219085714Y-141738571D01*
X218014285Y-142667142D02*
X218157142Y-142738571D01*
X218442857Y-142738571D01*
X218585714Y-142667142D01*
X218657142Y-142524285D01*
X218657142Y-141952857D01*
X218585714Y-141810000D01*
X218442857Y-141738571D01*
X218157142Y-141738571D01*
X218014285Y-141810000D01*
X217942857Y-141952857D01*
X217942857Y-142095714D01*
X218657142Y-142238571D01*
X216657142Y-142738571D02*
X216657142Y-141952857D01*
X216728571Y-141810000D01*
X216871428Y-141738571D01*
X217157142Y-141738571D01*
X217300000Y-141810000D01*
X216657142Y-142667142D02*
X216800000Y-142738571D01*
X217157142Y-142738571D01*
X217300000Y-142667142D01*
X217371428Y-142524285D01*
X217371428Y-142381428D01*
X217300000Y-142238571D01*
X217157142Y-142167142D01*
X216800000Y-142167142D01*
X216657142Y-142095714D01*
X215300000Y-142738571D02*
X215300000Y-141238571D01*
X215300000Y-142667142D02*
X215442857Y-142738571D01*
X215728571Y-142738571D01*
X215871428Y-142667142D01*
X215942857Y-142595714D01*
X216014285Y-142452857D01*
X216014285Y-142024285D01*
X215942857Y-141881428D01*
X215871428Y-141810000D01*
X215728571Y-141738571D01*
X215442857Y-141738571D01*
X215300000Y-141810000D01*
X214371428Y-141881428D02*
X214514285Y-141810000D01*
X214585714Y-141738571D01*
X214657142Y-141595714D01*
X214657142Y-141524285D01*
X214585714Y-141381428D01*
X214514285Y-141310000D01*
X214371428Y-141238571D01*
X214085714Y-141238571D01*
X213942857Y-141310000D01*
X213871428Y-141381428D01*
X213800000Y-141524285D01*
X213800000Y-141595714D01*
X213871428Y-141738571D01*
X213942857Y-141810000D01*
X214085714Y-141881428D01*
X214371428Y-141881428D01*
X214514285Y-141952857D01*
X214585714Y-142024285D01*
X214657142Y-142167142D01*
X214657142Y-142452857D01*
X214585714Y-142595714D01*
X214514285Y-142667142D01*
X214371428Y-142738571D01*
X214085714Y-142738571D01*
X213942857Y-142667142D01*
X213871428Y-142595714D01*
X213800000Y-142452857D01*
X213800000Y-142167142D01*
X213871428Y-142024285D01*
X213942857Y-141952857D01*
X214085714Y-141881428D01*
X212871428Y-141238571D02*
X212728571Y-141238571D01*
X212585714Y-141310000D01*
X212514285Y-141381428D01*
X212442857Y-141524285D01*
X212371428Y-141810000D01*
X212371428Y-142167142D01*
X212442857Y-142452857D01*
X212514285Y-142595714D01*
X212585714Y-142667142D01*
X212728571Y-142738571D01*
X212871428Y-142738571D01*
X213014285Y-142667142D01*
X213085714Y-142595714D01*
X213157142Y-142452857D01*
X213228571Y-142167142D01*
X213228571Y-141810000D01*
X213157142Y-141524285D01*
X213085714Y-141381428D01*
X213014285Y-141310000D01*
X212871428Y-141238571D01*
X210800000Y-142024285D02*
X210871428Y-141952857D01*
X211014285Y-141881428D01*
X211157142Y-141881428D01*
X211300000Y-141952857D01*
X211371428Y-142024285D01*
X211442857Y-142167142D01*
X211442857Y-142310000D01*
X211371428Y-142452857D01*
X211300000Y-142524285D01*
X211157142Y-142595714D01*
X211014285Y-142595714D01*
X210871428Y-142524285D01*
X210800000Y-142452857D01*
X210800000Y-141881428D02*
X210800000Y-142452857D01*
X210728571Y-142524285D01*
X210657142Y-142524285D01*
X210514285Y-142452857D01*
X210442857Y-142310000D01*
X210442857Y-141952857D01*
X210585714Y-141738571D01*
X210800000Y-141595714D01*
X211085714Y-141524285D01*
X211371428Y-141595714D01*
X211585714Y-141738571D01*
X211728571Y-141952857D01*
X211800000Y-142238571D01*
X211728571Y-142524285D01*
X211585714Y-142738571D01*
X211371428Y-142881428D01*
X211085714Y-142952857D01*
X210800000Y-142881428D01*
X210585714Y-142738571D01*
X209800000Y-142738571D02*
X209800000Y-141738571D01*
X209800000Y-141881428D02*
X209728571Y-141810000D01*
X209585714Y-141738571D01*
X209371428Y-141738571D01*
X209228571Y-141810000D01*
X209157142Y-141952857D01*
X209157142Y-142738571D01*
X209157142Y-141952857D02*
X209085714Y-141810000D01*
X208942857Y-141738571D01*
X208728571Y-141738571D01*
X208585714Y-141810000D01*
X208514285Y-141952857D01*
X208514285Y-142738571D01*
X207871428Y-142667142D02*
X207728571Y-142738571D01*
X207442857Y-142738571D01*
X207300000Y-142667142D01*
X207228571Y-142524285D01*
X207228571Y-142452857D01*
X207300000Y-142310000D01*
X207442857Y-142238571D01*
X207657142Y-142238571D01*
X207800000Y-142167142D01*
X207871428Y-142024285D01*
X207871428Y-141952857D01*
X207800000Y-141810000D01*
X207657142Y-141738571D01*
X207442857Y-141738571D01*
X207300000Y-141810000D01*
X206800000Y-141738571D02*
X206228571Y-141738571D01*
X206585714Y-141238571D02*
X206585714Y-142524285D01*
X206514285Y-142667142D01*
X206371428Y-142738571D01*
X206228571Y-142738571D01*
X205085714Y-142738571D02*
X205085714Y-141238571D01*
X205085714Y-142667142D02*
X205228571Y-142738571D01*
X205514285Y-142738571D01*
X205657142Y-142667142D01*
X205728571Y-142595714D01*
X205800000Y-142452857D01*
X205800000Y-142024285D01*
X205728571Y-141881428D01*
X205657142Y-141810000D01*
X205514285Y-141738571D01*
X205228571Y-141738571D01*
X205085714Y-141810000D01*
X204371428Y-141738571D02*
X204371428Y-142738571D01*
X204371428Y-141881428D02*
X204300000Y-141810000D01*
X204157142Y-141738571D01*
X203942857Y-141738571D01*
X203800000Y-141810000D01*
X203728571Y-141952857D01*
X203728571Y-142738571D01*
X203014285Y-142595714D02*
X202942857Y-142667142D01*
X203014285Y-142738571D01*
X203085714Y-142667142D01*
X203014285Y-142595714D01*
X203014285Y-142738571D01*
X202371428Y-142667142D02*
X202228571Y-142738571D01*
X201942857Y-142738571D01*
X201800000Y-142667142D01*
X201728571Y-142524285D01*
X201728571Y-142452857D01*
X201800000Y-142310000D01*
X201942857Y-142238571D01*
X202157142Y-142238571D01*
X202300000Y-142167142D01*
X202371428Y-142024285D01*
X202371428Y-141952857D01*
X202300000Y-141810000D01*
X202157142Y-141738571D01*
X201942857Y-141738571D01*
X201800000Y-141810000D01*
X200871428Y-142738571D02*
X201014285Y-142667142D01*
X201085714Y-142595714D01*
X201157142Y-142452857D01*
X201157142Y-142024285D01*
X201085714Y-141881428D01*
X201014285Y-141810000D01*
X200871428Y-141738571D01*
X200657142Y-141738571D01*
X200514285Y-141810000D01*
X200442857Y-141881428D01*
X200371428Y-142024285D01*
X200371428Y-142452857D01*
X200442857Y-142595714D01*
X200514285Y-142667142D01*
X200657142Y-142738571D01*
X200871428Y-142738571D01*
X199085714Y-142667142D02*
X199228571Y-142738571D01*
X199514285Y-142738571D01*
X199657142Y-142667142D01*
X199728571Y-142595714D01*
X199800000Y-142452857D01*
X199800000Y-142024285D01*
X199728571Y-141881428D01*
X199657142Y-141810000D01*
X199514285Y-141738571D01*
X199228571Y-141738571D01*
X199085714Y-141810000D01*
X198442857Y-142738571D02*
X198442857Y-141738571D01*
X198442857Y-141238571D02*
X198514285Y-141310000D01*
X198442857Y-141381428D01*
X198371428Y-141310000D01*
X198442857Y-141238571D01*
X198442857Y-141381428D01*
X197085714Y-142738571D02*
X197085714Y-141952857D01*
X197157142Y-141810000D01*
X197300000Y-141738571D01*
X197585714Y-141738571D01*
X197728571Y-141810000D01*
X197085714Y-142667142D02*
X197228571Y-142738571D01*
X197585714Y-142738571D01*
X197728571Y-142667142D01*
X197800000Y-142524285D01*
X197800000Y-142381428D01*
X197728571Y-142238571D01*
X197585714Y-142167142D01*
X197228571Y-142167142D01*
X197085714Y-142095714D01*
X196157142Y-142738571D02*
X196300000Y-142667142D01*
X196371428Y-142524285D01*
X196371428Y-141238571D01*
D12*
X215205000Y-125095000D02*
X215205000Y-126425000D01*
X215205000Y-126425000D02*
X216535000Y-126425000D01*
X217805000Y-126425000D02*
X235645000Y-126425000D01*
X235645000Y-123765000D02*
X235645000Y-126425000D01*
X217805000Y-123765000D02*
X235645000Y-123765000D01*
X217805000Y-123765000D02*
X217805000Y-126425000D01*
D10*
X213217380Y-123809285D02*
X213931666Y-123809285D01*
X214074523Y-123761666D01*
X214169761Y-123666428D01*
X214217380Y-123523571D01*
X214217380Y-123428333D01*
X214217380Y-124333095D02*
X214217380Y-124523571D01*
X214169761Y-124618809D01*
X214122142Y-124666428D01*
X213979285Y-124761666D01*
X213788809Y-124809285D01*
X213407857Y-124809285D01*
X213312619Y-124761666D01*
X213265000Y-124714047D01*
X213217380Y-124618809D01*
X213217380Y-124428333D01*
X213265000Y-124333095D01*
X213312619Y-124285476D01*
X213407857Y-124237857D01*
X213645952Y-124237857D01*
X213741190Y-124285476D01*
X213788809Y-124333095D01*
X213836428Y-124428333D01*
X213836428Y-124618809D01*
X213788809Y-124714047D01*
X213741190Y-124761666D01*
X213645952Y-124809285D01*
X213217380Y-125428333D02*
X213217380Y-125523571D01*
X213265000Y-125618809D01*
X213312619Y-125666428D01*
X213407857Y-125714047D01*
X213598333Y-125761666D01*
X213836428Y-125761666D01*
X214026904Y-125714047D01*
X214122142Y-125666428D01*
X214169761Y-125618809D01*
X214217380Y-125523571D01*
X214217380Y-125428333D01*
X214169761Y-125333095D01*
X214122142Y-125285476D01*
X214026904Y-125237857D01*
X213836428Y-125190238D01*
X213598333Y-125190238D01*
X213407857Y-125237857D01*
X213312619Y-125285476D01*
X213265000Y-125333095D01*
X213217380Y-125428333D01*
X213217380Y-126095000D02*
X213217380Y-126714047D01*
X213598333Y-126380714D01*
X213598333Y-126523571D01*
X213645952Y-126618809D01*
X213693571Y-126666428D01*
X213788809Y-126714047D01*
X214026904Y-126714047D01*
X214122142Y-126666428D01*
X214169761Y-126618809D01*
X214217380Y-126523571D01*
X214217380Y-126237857D01*
X214169761Y-126142619D01*
X214122142Y-126095000D01*
M02*
