M48
INCH,TZ
T1C0.0157
T2C0.0315
T3C0.0394
T4C0.1260
%
G90
G05
T1
X67800Y-48950
X72250Y-50500
X78150Y-56400
X78850Y-56100
X79550Y-55800
X80150Y-55500
X80700Y-55200
X81350Y-54900
X82241Y-54596
X83250Y-54300
X89050Y-43750
X92713Y-45787
X93700Y-44950
X97500Y-49250
X97800Y-50250
X98000Y-51300
X98550Y-52500
T2
X62500Y-54500
X62500Y-57500
X63750Y-54500
X63750Y-57500
X65000Y-54500
X65000Y-57500
X66250Y-54500
X66250Y-57500
X68000Y-50500
X68000Y-53500
X68000Y-54500
X68000Y-57500
X69250Y-50500
X69250Y-53500
X69250Y-54500
X69250Y-57500
X70000Y-42250
X70000Y-45250
X70500Y-50500
X70500Y-53500
X70500Y-54500
X70500Y-57500
X73250Y-48516
X73250Y-49500
X73250Y-51000
X73250Y-57000
X74250Y-51000
X74250Y-57000
X75250Y-51000
X75250Y-57000
X76000Y-42250
X76000Y-45250
X76250Y-51000
X76250Y-57000
X77250Y-51000
X77250Y-57000
X78250Y-51000
X78250Y-57000
X79250Y-51000
X79250Y-57000
X80250Y-51000
X80250Y-57000
X81250Y-51000
X81250Y-57000
X82250Y-51000
X82250Y-57000
X83250Y-51000
X83250Y-57000
X84000Y-44500
X84000Y-45484
X84250Y-51000
X84250Y-57000
X85250Y-44500
X85250Y-47500
X85250Y-51000
X85250Y-57000
X86250Y-44500
X86250Y-47500
X86250Y-51000
X86250Y-57000
X87250Y-44500
X87250Y-47500
X87250Y-51000
X87250Y-57000
X88250Y-44500
X88250Y-47500
X88250Y-51000
X88250Y-57000
X89250Y-44500
X89250Y-47500
X89250Y-51000
X89250Y-57000
X90250Y-44500
X90250Y-47500
X90250Y-51000
X90250Y-57000
X91250Y-44500
X91250Y-47500
X91250Y-51000
X91250Y-57000
X92250Y-44500
X92250Y-47500
X92250Y-51000
X92250Y-57000
T3
X61250Y-59750
X62250Y-59750
X63250Y-59750
X64250Y-59750
X65000Y-45250
X65000Y-46250
X65000Y-47250
X65250Y-59750
X66000Y-45250
X66000Y-46250
X66000Y-47250
X66250Y-59750
X67000Y-45250
X67000Y-46250
X67000Y-47250
X67250Y-59750
X68250Y-59750
X69250Y-59750
X70250Y-59750
X71250Y-59750
X72250Y-59750
X73250Y-59750
X74250Y-59750
X75250Y-49250
X75250Y-59750
X76250Y-49250
X76250Y-59750
X77250Y-49250
X77250Y-58750
X77250Y-59750
X78250Y-49250
X78250Y-58750
X78250Y-59750
X78750Y-42000
X79250Y-49250
X79250Y-58750
X79250Y-59750
X79750Y-42000
X79750Y-44250
X79750Y-45250
X79750Y-46250
X80250Y-49250
X80250Y-58750
X80250Y-59750
X80750Y-42000
X81250Y-49250
X81250Y-58750
X81250Y-59750
X81750Y-42000
X82250Y-49250
X82250Y-58750
X82250Y-59750
X82750Y-42000
X83250Y-49250
X83250Y-58750
X83250Y-59750
X83750Y-42000
X84250Y-58750
X84250Y-59750
X84750Y-42000
X85250Y-49250
X85250Y-58750
X85250Y-59750
X85750Y-42000
X86250Y-49250
X86250Y-58750
X86250Y-59750
X86750Y-42000
X87250Y-49250
X87250Y-58750
X87250Y-59750
X87750Y-42000
X88250Y-49250
X88250Y-58750
X88250Y-59750
X88750Y-42000
X89250Y-49250
X89250Y-58750
X89250Y-59750
X89750Y-42000
X90250Y-49250
X90250Y-58750
X90250Y-59750
X90750Y-42000
X91250Y-49250
X91250Y-58750
X91250Y-59750
X91750Y-42000
X92250Y-49250
X92250Y-58750
X92250Y-59750
X92750Y-42000
X93250Y-58750
X93250Y-59750
X93750Y-42000
X94250Y-58750
X94250Y-59750
X94500Y-48138
X94500Y-49228
X94500Y-50319
X94500Y-51409
X94500Y-52500
X94750Y-42000
X95250Y-58750
X95250Y-59750
X95618Y-48683
X95618Y-49774
X95618Y-50864
X95618Y-51955
X95750Y-42000
X96250Y-58750
X96250Y-59750
X96750Y-42000
X97250Y-58750
X97250Y-59750
X97750Y-42000
X98250Y-58750
X98250Y-59750
X99250Y-58750
X99250Y-59750
X100250Y-58750
X100250Y-59750
X101250Y-58750
X114138Y-46250
X114683Y-45132
X115228Y-46250
X115774Y-45132
X116319Y-46250
X116864Y-45132
X117409Y-46250
X117955Y-45132
X118500Y-46250
T4
X95059Y-45398
X95059Y-55240
T3
G00X61250Y-51697
M15
G01X61250Y-51303
M16
G05
G00X62195Y-50909
M15
G01X62195Y-50516
M16
G05
G00X63652Y-51697
M15
G01X63652Y-51303
M16
G05
G00X64360Y-50909
M15
G01X64360Y-50516
M16
G05
G00X65817Y-51697
M15
G01X65817Y-51303
M16
G05
T0
M30
