G04 #@! TF.GenerationSoftware,KiCad,Pcbnew,(5.1.12)-1*
G04 #@! TF.CreationDate,2024-12-06T21:58:48+00:00*
G04 #@! TF.ProjectId,CPCSound,43504353-6f75-46e6-942e-6b696361645f,rev?*
G04 #@! TF.SameCoordinates,Original*
G04 #@! TF.FileFunction,Legend,Top*
G04 #@! TF.FilePolarity,Positive*
%FSLAX46Y46*%
G04 Gerber Fmt 4.6, Leading zero omitted, Abs format (unit mm)*
G04 Created by KiCad (PCBNEW (5.1.12)-1) date 2024-12-06 21:58:48*
%MOMM*%
%LPD*%
G01*
G04 APERTURE LIST*
%ADD10C,0.150000*%
%ADD11C,0.200000*%
%ADD12C,0.400000*%
%ADD13C,0.120000*%
G04 APERTURE END LIST*
D10*
X239667023Y-110307380D02*
X239333690Y-109831190D01*
X239095595Y-110307380D02*
X239095595Y-109307380D01*
X239476547Y-109307380D01*
X239571785Y-109355000D01*
X239619404Y-109402619D01*
X239667023Y-109497857D01*
X239667023Y-109640714D01*
X239619404Y-109735952D01*
X239571785Y-109783571D01*
X239476547Y-109831190D01*
X239095595Y-109831190D01*
X240095595Y-110307380D02*
X240095595Y-109307380D01*
X241095595Y-109355000D02*
X241000357Y-109307380D01*
X240857500Y-109307380D01*
X240714642Y-109355000D01*
X240619404Y-109450238D01*
X240571785Y-109545476D01*
X240524166Y-109735952D01*
X240524166Y-109878809D01*
X240571785Y-110069285D01*
X240619404Y-110164523D01*
X240714642Y-110259761D01*
X240857500Y-110307380D01*
X240952738Y-110307380D01*
X241095595Y-110259761D01*
X241143214Y-110212142D01*
X241143214Y-109878809D01*
X240952738Y-109878809D01*
X241571785Y-110307380D02*
X241571785Y-109307380D01*
X241571785Y-109783571D02*
X242143214Y-109783571D01*
X242143214Y-110307380D02*
X242143214Y-109307380D01*
X242476547Y-109307380D02*
X243047976Y-109307380D01*
X242762261Y-110307380D02*
X242762261Y-109307380D01*
X239571785Y-107767380D02*
X239095595Y-107767380D01*
X239095595Y-106767380D01*
X239905119Y-107243571D02*
X240238452Y-107243571D01*
X240381309Y-107767380D02*
X239905119Y-107767380D01*
X239905119Y-106767380D01*
X240381309Y-106767380D01*
X241143214Y-107243571D02*
X240809880Y-107243571D01*
X240809880Y-107767380D02*
X240809880Y-106767380D01*
X241286071Y-106767380D01*
X241524166Y-106767380D02*
X242095595Y-106767380D01*
X241809880Y-107767380D02*
X241809880Y-106767380D01*
X210352380Y-134072380D02*
X210542857Y-134072380D01*
X210638095Y-134120000D01*
X210733333Y-134215238D01*
X210780952Y-134405714D01*
X210780952Y-134739047D01*
X210733333Y-134929523D01*
X210638095Y-135024761D01*
X210542857Y-135072380D01*
X210352380Y-135072380D01*
X210257142Y-135024761D01*
X210161904Y-134929523D01*
X210114285Y-134739047D01*
X210114285Y-134405714D01*
X210161904Y-134215238D01*
X210257142Y-134120000D01*
X210352380Y-134072380D01*
X211209523Y-134405714D02*
X211209523Y-135072380D01*
X211209523Y-134500952D02*
X211257142Y-134453333D01*
X211352380Y-134405714D01*
X211495238Y-134405714D01*
X211590476Y-134453333D01*
X211638095Y-134548571D01*
X211638095Y-135072380D01*
X212257142Y-135072380D02*
X212161904Y-135024761D01*
X212114285Y-134929523D01*
X212114285Y-134072380D01*
X212542857Y-134405714D02*
X212780952Y-135072380D01*
X213019047Y-134405714D02*
X212780952Y-135072380D01*
X212685714Y-135310476D01*
X212638095Y-135358095D01*
X212542857Y-135405714D01*
X214161904Y-135072380D02*
X214161904Y-134405714D01*
X214161904Y-134072380D02*
X214114285Y-134120000D01*
X214161904Y-134167619D01*
X214209523Y-134120000D01*
X214161904Y-134072380D01*
X214161904Y-134167619D01*
X214495238Y-134405714D02*
X214876190Y-134405714D01*
X214638095Y-135072380D02*
X214638095Y-134215238D01*
X214685714Y-134120000D01*
X214780952Y-134072380D01*
X214876190Y-134072380D01*
X215971428Y-135072380D02*
X215971428Y-134405714D01*
X215971428Y-134596190D02*
X216019047Y-134500952D01*
X216066666Y-134453333D01*
X216161904Y-134405714D01*
X216257142Y-134405714D01*
X216971428Y-135024761D02*
X216876190Y-135072380D01*
X216685714Y-135072380D01*
X216590476Y-135024761D01*
X216542857Y-134929523D01*
X216542857Y-134548571D01*
X216590476Y-134453333D01*
X216685714Y-134405714D01*
X216876190Y-134405714D01*
X216971428Y-134453333D01*
X217019047Y-134548571D01*
X217019047Y-134643809D01*
X216542857Y-134739047D01*
X217876190Y-134405714D02*
X217876190Y-135405714D01*
X217876190Y-135024761D02*
X217780952Y-135072380D01*
X217590476Y-135072380D01*
X217495238Y-135024761D01*
X217447619Y-134977142D01*
X217400000Y-134881904D01*
X217400000Y-134596190D01*
X217447619Y-134500952D01*
X217495238Y-134453333D01*
X217590476Y-134405714D01*
X217780952Y-134405714D01*
X217876190Y-134453333D01*
X218780952Y-134405714D02*
X218780952Y-135072380D01*
X218352380Y-134405714D02*
X218352380Y-134929523D01*
X218400000Y-135024761D01*
X218495238Y-135072380D01*
X218638095Y-135072380D01*
X218733333Y-135024761D01*
X218780952Y-134977142D01*
X219257142Y-135072380D02*
X219257142Y-134405714D01*
X219257142Y-134072380D02*
X219209523Y-134120000D01*
X219257142Y-134167619D01*
X219304761Y-134120000D01*
X219257142Y-134072380D01*
X219257142Y-134167619D01*
X219733333Y-135072380D02*
X219733333Y-134405714D01*
X219733333Y-134596190D02*
X219780952Y-134500952D01*
X219828571Y-134453333D01*
X219923809Y-134405714D01*
X220019047Y-134405714D01*
X220733333Y-135024761D02*
X220638095Y-135072380D01*
X220447619Y-135072380D01*
X220352380Y-135024761D01*
X220304761Y-134929523D01*
X220304761Y-134548571D01*
X220352380Y-134453333D01*
X220447619Y-134405714D01*
X220638095Y-134405714D01*
X220733333Y-134453333D01*
X220780952Y-134548571D01*
X220780952Y-134643809D01*
X220304761Y-134739047D01*
X221638095Y-135072380D02*
X221638095Y-134072380D01*
X221638095Y-135024761D02*
X221542857Y-135072380D01*
X221352380Y-135072380D01*
X221257142Y-135024761D01*
X221209523Y-134977142D01*
X221161904Y-134881904D01*
X221161904Y-134596190D01*
X221209523Y-134500952D01*
X221257142Y-134453333D01*
X221352380Y-134405714D01*
X221542857Y-134405714D01*
X221638095Y-134453333D01*
D11*
X186098571Y-157872142D02*
X184598571Y-157872142D01*
X185170000Y-157872142D02*
X185098571Y-157729285D01*
X185098571Y-157443571D01*
X185170000Y-157300714D01*
X185241428Y-157229285D01*
X185384285Y-157157857D01*
X185812857Y-157157857D01*
X185955714Y-157229285D01*
X186027142Y-157300714D01*
X186098571Y-157443571D01*
X186098571Y-157729285D01*
X186027142Y-157872142D01*
X185098571Y-156657857D02*
X186098571Y-156300714D01*
X185098571Y-155943571D02*
X186098571Y-156300714D01*
X186455714Y-156443571D01*
X186527142Y-156515000D01*
X186598571Y-156657857D01*
X185312857Y-153729285D02*
X185384285Y-153515000D01*
X185455714Y-153443571D01*
X185598571Y-153372142D01*
X185812857Y-153372142D01*
X185955714Y-153443571D01*
X186027142Y-153515000D01*
X186098571Y-153657857D01*
X186098571Y-154229285D01*
X184598571Y-154229285D01*
X184598571Y-153729285D01*
X184670000Y-153586428D01*
X184741428Y-153515000D01*
X184884285Y-153443571D01*
X185027142Y-153443571D01*
X185170000Y-153515000D01*
X185241428Y-153586428D01*
X185312857Y-153729285D01*
X185312857Y-154229285D01*
X186098571Y-152729285D02*
X185098571Y-152729285D01*
X185384285Y-152729285D02*
X185241428Y-152657857D01*
X185170000Y-152586428D01*
X185098571Y-152443571D01*
X185098571Y-152300714D01*
X186027142Y-151229285D02*
X186098571Y-151372142D01*
X186098571Y-151657857D01*
X186027142Y-151800714D01*
X185884285Y-151872142D01*
X185312857Y-151872142D01*
X185170000Y-151800714D01*
X185098571Y-151657857D01*
X185098571Y-151372142D01*
X185170000Y-151229285D01*
X185312857Y-151157857D01*
X185455714Y-151157857D01*
X185598571Y-151872142D01*
X186098571Y-149872142D02*
X185312857Y-149872142D01*
X185170000Y-149943571D01*
X185098571Y-150086428D01*
X185098571Y-150372142D01*
X185170000Y-150515000D01*
X186027142Y-149872142D02*
X186098571Y-150015000D01*
X186098571Y-150372142D01*
X186027142Y-150515000D01*
X185884285Y-150586428D01*
X185741428Y-150586428D01*
X185598571Y-150515000D01*
X185527142Y-150372142D01*
X185527142Y-150015000D01*
X185455714Y-149872142D01*
X186098571Y-148515000D02*
X184598571Y-148515000D01*
X186027142Y-148515000D02*
X186098571Y-148657857D01*
X186098571Y-148943571D01*
X186027142Y-149086428D01*
X185955714Y-149157857D01*
X185812857Y-149229285D01*
X185384285Y-149229285D01*
X185241428Y-149157857D01*
X185170000Y-149086428D01*
X185098571Y-148943571D01*
X185098571Y-148657857D01*
X185170000Y-148515000D01*
X185241428Y-147586428D02*
X185170000Y-147729285D01*
X185098571Y-147800714D01*
X184955714Y-147872142D01*
X184884285Y-147872142D01*
X184741428Y-147800714D01*
X184670000Y-147729285D01*
X184598571Y-147586428D01*
X184598571Y-147300714D01*
X184670000Y-147157857D01*
X184741428Y-147086428D01*
X184884285Y-147015000D01*
X184955714Y-147015000D01*
X185098571Y-147086428D01*
X185170000Y-147157857D01*
X185241428Y-147300714D01*
X185241428Y-147586428D01*
X185312857Y-147729285D01*
X185384285Y-147800714D01*
X185527142Y-147872142D01*
X185812857Y-147872142D01*
X185955714Y-147800714D01*
X186027142Y-147729285D01*
X186098571Y-147586428D01*
X186098571Y-147300714D01*
X186027142Y-147157857D01*
X185955714Y-147086428D01*
X185812857Y-147015000D01*
X185527142Y-147015000D01*
X185384285Y-147086428D01*
X185312857Y-147157857D01*
X185241428Y-147300714D01*
X184598571Y-146086428D02*
X184598571Y-145943571D01*
X184670000Y-145800714D01*
X184741428Y-145729285D01*
X184884285Y-145657857D01*
X185170000Y-145586428D01*
X185527142Y-145586428D01*
X185812857Y-145657857D01*
X185955714Y-145729285D01*
X186027142Y-145800714D01*
X186098571Y-145943571D01*
X186098571Y-146086428D01*
X186027142Y-146229285D01*
X185955714Y-146300714D01*
X185812857Y-146372142D01*
X185527142Y-146443571D01*
X185170000Y-146443571D01*
X184884285Y-146372142D01*
X184741428Y-146300714D01*
X184670000Y-146229285D01*
X184598571Y-146086428D01*
D10*
X241117380Y-126650238D02*
X240117380Y-126650238D01*
X240117380Y-126412142D01*
X240165000Y-126269285D01*
X240260238Y-126174047D01*
X240355476Y-126126428D01*
X240545952Y-126078809D01*
X240688809Y-126078809D01*
X240879285Y-126126428D01*
X240974523Y-126174047D01*
X241069761Y-126269285D01*
X241117380Y-126412142D01*
X241117380Y-126650238D01*
X240212619Y-125697857D02*
X240165000Y-125650238D01*
X240117380Y-125555000D01*
X240117380Y-125316904D01*
X240165000Y-125221666D01*
X240212619Y-125174047D01*
X240307857Y-125126428D01*
X240403095Y-125126428D01*
X240545952Y-125174047D01*
X241117380Y-125745476D01*
X241117380Y-125126428D01*
X240212619Y-124745476D02*
X240165000Y-124697857D01*
X240117380Y-124602619D01*
X240117380Y-124364523D01*
X240165000Y-124269285D01*
X240212619Y-124221666D01*
X240307857Y-124174047D01*
X240403095Y-124174047D01*
X240545952Y-124221666D01*
X241117380Y-124793095D01*
X241117380Y-124174047D01*
X240117380Y-123555000D02*
X240117380Y-123459761D01*
X240165000Y-123364523D01*
X240212619Y-123316904D01*
X240307857Y-123269285D01*
X240498333Y-123221666D01*
X240736428Y-123221666D01*
X240926904Y-123269285D01*
X241022142Y-123316904D01*
X241069761Y-123364523D01*
X241117380Y-123459761D01*
X241117380Y-123555000D01*
X241069761Y-123650238D01*
X241022142Y-123697857D01*
X240926904Y-123745476D01*
X240736428Y-123793095D01*
X240498333Y-123793095D01*
X240307857Y-123745476D01*
X240212619Y-123697857D01*
X240165000Y-123650238D01*
X240117380Y-123555000D01*
X241022142Y-122793095D02*
X241069761Y-122745476D01*
X241117380Y-122793095D01*
X241069761Y-122840714D01*
X241022142Y-122793095D01*
X241117380Y-122793095D01*
X241022142Y-122316904D02*
X241069761Y-122269285D01*
X241117380Y-122316904D01*
X241069761Y-122364523D01*
X241022142Y-122316904D01*
X241117380Y-122316904D01*
X241117380Y-121840714D02*
X240117380Y-121840714D01*
X240117380Y-121602619D01*
X240165000Y-121459761D01*
X240260238Y-121364523D01*
X240355476Y-121316904D01*
X240545952Y-121269285D01*
X240688809Y-121269285D01*
X240879285Y-121316904D01*
X240974523Y-121364523D01*
X241069761Y-121459761D01*
X241117380Y-121602619D01*
X241117380Y-121840714D01*
X240212619Y-120888333D02*
X240165000Y-120840714D01*
X240117380Y-120745476D01*
X240117380Y-120507380D01*
X240165000Y-120412142D01*
X240212619Y-120364523D01*
X240307857Y-120316904D01*
X240403095Y-120316904D01*
X240545952Y-120364523D01*
X241117380Y-120935952D01*
X241117380Y-120316904D01*
X240212619Y-119935952D02*
X240165000Y-119888333D01*
X240117380Y-119793095D01*
X240117380Y-119555000D01*
X240165000Y-119459761D01*
X240212619Y-119412142D01*
X240307857Y-119364523D01*
X240403095Y-119364523D01*
X240545952Y-119412142D01*
X241117380Y-119983571D01*
X241117380Y-119364523D01*
X240117380Y-119031190D02*
X240117380Y-118364523D01*
X241117380Y-118793095D01*
X209264761Y-116022380D02*
X209264761Y-115022380D01*
X209502857Y-115022380D01*
X209645714Y-115070000D01*
X209740952Y-115165238D01*
X209788571Y-115260476D01*
X209836190Y-115450952D01*
X209836190Y-115593809D01*
X209788571Y-115784285D01*
X209740952Y-115879523D01*
X209645714Y-115974761D01*
X209502857Y-116022380D01*
X209264761Y-116022380D01*
X210788571Y-116022380D02*
X210217142Y-116022380D01*
X210502857Y-116022380D02*
X210502857Y-115022380D01*
X210407619Y-115165238D01*
X210312380Y-115260476D01*
X210217142Y-115308095D01*
X211264761Y-116022380D02*
X211455238Y-116022380D01*
X211550476Y-115974761D01*
X211598095Y-115927142D01*
X211693333Y-115784285D01*
X211740952Y-115593809D01*
X211740952Y-115212857D01*
X211693333Y-115117619D01*
X211645714Y-115070000D01*
X211550476Y-115022380D01*
X211360000Y-115022380D01*
X211264761Y-115070000D01*
X211217142Y-115117619D01*
X211169523Y-115212857D01*
X211169523Y-115450952D01*
X211217142Y-115546190D01*
X211264761Y-115593809D01*
X211360000Y-115641428D01*
X211550476Y-115641428D01*
X211645714Y-115593809D01*
X211693333Y-115546190D01*
X211740952Y-115450952D01*
X212693333Y-116022380D02*
X212121904Y-116022380D01*
X212407619Y-116022380D02*
X212407619Y-115022380D01*
X212312380Y-115165238D01*
X212217142Y-115260476D01*
X212121904Y-115308095D01*
X213121904Y-115927142D02*
X213169523Y-115974761D01*
X213121904Y-116022380D01*
X213074285Y-115974761D01*
X213121904Y-115927142D01*
X213121904Y-116022380D01*
X213598095Y-115927142D02*
X213645714Y-115974761D01*
X213598095Y-116022380D01*
X213550476Y-115974761D01*
X213598095Y-115927142D01*
X213598095Y-116022380D01*
X214074285Y-116022380D02*
X214074285Y-115022380D01*
X214312380Y-115022380D01*
X214455238Y-115070000D01*
X214550476Y-115165238D01*
X214598095Y-115260476D01*
X214645714Y-115450952D01*
X214645714Y-115593809D01*
X214598095Y-115784285D01*
X214550476Y-115879523D01*
X214455238Y-115974761D01*
X214312380Y-116022380D01*
X214074285Y-116022380D01*
X215026666Y-115117619D02*
X215074285Y-115070000D01*
X215169523Y-115022380D01*
X215407619Y-115022380D01*
X215502857Y-115070000D01*
X215550476Y-115117619D01*
X215598095Y-115212857D01*
X215598095Y-115308095D01*
X215550476Y-115450952D01*
X214979047Y-116022380D01*
X215598095Y-116022380D01*
X216217142Y-115022380D02*
X216312380Y-115022380D01*
X216407619Y-115070000D01*
X216455238Y-115117619D01*
X216502857Y-115212857D01*
X216550476Y-115403333D01*
X216550476Y-115641428D01*
X216502857Y-115831904D01*
X216455238Y-115927142D01*
X216407619Y-115974761D01*
X216312380Y-116022380D01*
X216217142Y-116022380D01*
X216121904Y-115974761D01*
X216074285Y-115927142D01*
X216026666Y-115831904D01*
X215979047Y-115641428D01*
X215979047Y-115403333D01*
X216026666Y-115212857D01*
X216074285Y-115117619D01*
X216121904Y-115070000D01*
X216217142Y-115022380D01*
X217121904Y-115450952D02*
X217026666Y-115403333D01*
X216979047Y-115355714D01*
X216931428Y-115260476D01*
X216931428Y-115212857D01*
X216979047Y-115117619D01*
X217026666Y-115070000D01*
X217121904Y-115022380D01*
X217312380Y-115022380D01*
X217407619Y-115070000D01*
X217455238Y-115117619D01*
X217502857Y-115212857D01*
X217502857Y-115260476D01*
X217455238Y-115355714D01*
X217407619Y-115403333D01*
X217312380Y-115450952D01*
X217121904Y-115450952D01*
X217026666Y-115498571D01*
X216979047Y-115546190D01*
X216931428Y-115641428D01*
X216931428Y-115831904D01*
X216979047Y-115927142D01*
X217026666Y-115974761D01*
X217121904Y-116022380D01*
X217312380Y-116022380D01*
X217407619Y-115974761D01*
X217455238Y-115927142D01*
X217502857Y-115831904D01*
X217502857Y-115641428D01*
X217455238Y-115546190D01*
X217407619Y-115498571D01*
X217312380Y-115450952D01*
X173172380Y-150145238D02*
X172172380Y-150145238D01*
X172172380Y-149907142D01*
X172220000Y-149764285D01*
X172315238Y-149669047D01*
X172410476Y-149621428D01*
X172600952Y-149573809D01*
X172743809Y-149573809D01*
X172934285Y-149621428D01*
X173029523Y-149669047D01*
X173124761Y-149764285D01*
X173172380Y-149907142D01*
X173172380Y-150145238D01*
X172267619Y-149192857D02*
X172220000Y-149145238D01*
X172172380Y-149050000D01*
X172172380Y-148811904D01*
X172220000Y-148716666D01*
X172267619Y-148669047D01*
X172362857Y-148621428D01*
X172458095Y-148621428D01*
X172600952Y-148669047D01*
X173172380Y-149240476D01*
X173172380Y-148621428D01*
X172172380Y-148002380D02*
X172172380Y-147907142D01*
X172220000Y-147811904D01*
X172267619Y-147764285D01*
X172362857Y-147716666D01*
X172553333Y-147669047D01*
X172791428Y-147669047D01*
X172981904Y-147716666D01*
X173077142Y-147764285D01*
X173124761Y-147811904D01*
X173172380Y-147907142D01*
X173172380Y-148002380D01*
X173124761Y-148097619D01*
X173077142Y-148145238D01*
X172981904Y-148192857D01*
X172791428Y-148240476D01*
X172553333Y-148240476D01*
X172362857Y-148192857D01*
X172267619Y-148145238D01*
X172220000Y-148097619D01*
X172172380Y-148002380D01*
X173172380Y-147192857D02*
X173172380Y-147002380D01*
X173124761Y-146907142D01*
X173077142Y-146859523D01*
X172934285Y-146764285D01*
X172743809Y-146716666D01*
X172362857Y-146716666D01*
X172267619Y-146764285D01*
X172220000Y-146811904D01*
X172172380Y-146907142D01*
X172172380Y-147097619D01*
X172220000Y-147192857D01*
X172267619Y-147240476D01*
X172362857Y-147288095D01*
X172600952Y-147288095D01*
X172696190Y-147240476D01*
X172743809Y-147192857D01*
X172791428Y-147097619D01*
X172791428Y-146907142D01*
X172743809Y-146811904D01*
X172696190Y-146764285D01*
X172600952Y-146716666D01*
X173077142Y-146288095D02*
X173124761Y-146240476D01*
X173172380Y-146288095D01*
X173124761Y-146335714D01*
X173077142Y-146288095D01*
X173172380Y-146288095D01*
X173077142Y-145811904D02*
X173124761Y-145764285D01*
X173172380Y-145811904D01*
X173124761Y-145859523D01*
X173077142Y-145811904D01*
X173172380Y-145811904D01*
X173172380Y-145335714D02*
X172172380Y-145335714D01*
X172172380Y-145097619D01*
X172220000Y-144954761D01*
X172315238Y-144859523D01*
X172410476Y-144811904D01*
X172600952Y-144764285D01*
X172743809Y-144764285D01*
X172934285Y-144811904D01*
X173029523Y-144859523D01*
X173124761Y-144954761D01*
X173172380Y-145097619D01*
X173172380Y-145335714D01*
X172267619Y-144383333D02*
X172220000Y-144335714D01*
X172172380Y-144240476D01*
X172172380Y-144002380D01*
X172220000Y-143907142D01*
X172267619Y-143859523D01*
X172362857Y-143811904D01*
X172458095Y-143811904D01*
X172600952Y-143859523D01*
X173172380Y-144430952D01*
X173172380Y-143811904D01*
X173172380Y-142859523D02*
X173172380Y-143430952D01*
X173172380Y-143145238D02*
X172172380Y-143145238D01*
X172315238Y-143240476D01*
X172410476Y-143335714D01*
X172458095Y-143430952D01*
X172172380Y-142526190D02*
X172172380Y-141859523D01*
X173172380Y-142288095D01*
D12*
X177691428Y-156216428D02*
X177834285Y-156359285D01*
X177977142Y-156787857D01*
X177977142Y-157073571D01*
X177834285Y-157502142D01*
X177548571Y-157787857D01*
X177262857Y-157930714D01*
X176691428Y-158073571D01*
X176262857Y-158073571D01*
X175691428Y-157930714D01*
X175405714Y-157787857D01*
X175120000Y-157502142D01*
X174977142Y-157073571D01*
X174977142Y-156787857D01*
X175120000Y-156359285D01*
X175262857Y-156216428D01*
X177977142Y-154930714D02*
X174977142Y-154930714D01*
X174977142Y-153787857D01*
X175120000Y-153502142D01*
X175262857Y-153359285D01*
X175548571Y-153216428D01*
X175977142Y-153216428D01*
X176262857Y-153359285D01*
X176405714Y-153502142D01*
X176548571Y-153787857D01*
X176548571Y-154930714D01*
X177691428Y-150216428D02*
X177834285Y-150359285D01*
X177977142Y-150787857D01*
X177977142Y-151073571D01*
X177834285Y-151502142D01*
X177548571Y-151787857D01*
X177262857Y-151930714D01*
X176691428Y-152073571D01*
X176262857Y-152073571D01*
X175691428Y-151930714D01*
X175405714Y-151787857D01*
X175120000Y-151502142D01*
X174977142Y-151073571D01*
X174977142Y-150787857D01*
X175120000Y-150359285D01*
X175262857Y-150216428D01*
X177977142Y-146645000D02*
X174977142Y-146645000D01*
X177120000Y-145645000D01*
X174977142Y-144645000D01*
X177977142Y-144645000D01*
X177977142Y-142787857D02*
X177834285Y-143073571D01*
X177691428Y-143216428D01*
X177405714Y-143359285D01*
X176548571Y-143359285D01*
X176262857Y-143216428D01*
X176120000Y-143073571D01*
X175977142Y-142787857D01*
X175977142Y-142359285D01*
X176120000Y-142073571D01*
X176262857Y-141930714D01*
X176548571Y-141787857D01*
X177405714Y-141787857D01*
X177691428Y-141930714D01*
X177834285Y-142073571D01*
X177977142Y-142359285D01*
X177977142Y-142787857D01*
X177977142Y-139216428D02*
X174977142Y-139216428D01*
X177834285Y-139216428D02*
X177977142Y-139502142D01*
X177977142Y-140073571D01*
X177834285Y-140359285D01*
X177691428Y-140502142D01*
X177405714Y-140645000D01*
X176548571Y-140645000D01*
X176262857Y-140502142D01*
X176120000Y-140359285D01*
X175977142Y-140073571D01*
X175977142Y-139502142D01*
X176120000Y-139216428D01*
X175977142Y-136502142D02*
X177977142Y-136502142D01*
X175977142Y-137787857D02*
X177548571Y-137787857D01*
X177834285Y-137645000D01*
X177977142Y-137359285D01*
X177977142Y-136930714D01*
X177834285Y-136645000D01*
X177691428Y-136502142D01*
X177977142Y-134645000D02*
X177834285Y-134930714D01*
X177548571Y-135073571D01*
X174977142Y-135073571D01*
X177977142Y-132216428D02*
X176405714Y-132216428D01*
X176120000Y-132359285D01*
X175977142Y-132645000D01*
X175977142Y-133216428D01*
X176120000Y-133502142D01*
X177834285Y-132216428D02*
X177977142Y-132502142D01*
X177977142Y-133216428D01*
X177834285Y-133502142D01*
X177548571Y-133645000D01*
X177262857Y-133645000D01*
X176977142Y-133502142D01*
X176834285Y-133216428D01*
X176834285Y-132502142D01*
X176691428Y-132216428D01*
X177977142Y-130787857D02*
X175977142Y-130787857D01*
X176548571Y-130787857D02*
X176262857Y-130645000D01*
X176120000Y-130502142D01*
X175977142Y-130216428D01*
X175977142Y-129930714D01*
X182734285Y-158073571D02*
X182877142Y-157645000D01*
X182877142Y-156930714D01*
X182734285Y-156645000D01*
X182591428Y-156502142D01*
X182305714Y-156359285D01*
X182020000Y-156359285D01*
X181734285Y-156502142D01*
X181591428Y-156645000D01*
X181448571Y-156930714D01*
X181305714Y-157502142D01*
X181162857Y-157787857D01*
X181020000Y-157930714D01*
X180734285Y-158073571D01*
X180448571Y-158073571D01*
X180162857Y-157930714D01*
X180020000Y-157787857D01*
X179877142Y-157502142D01*
X179877142Y-156787857D01*
X180020000Y-156359285D01*
X182877142Y-154645000D02*
X182734285Y-154930714D01*
X182591428Y-155073571D01*
X182305714Y-155216428D01*
X181448571Y-155216428D01*
X181162857Y-155073571D01*
X181020000Y-154930714D01*
X180877142Y-154645000D01*
X180877142Y-154216428D01*
X181020000Y-153930714D01*
X181162857Y-153787857D01*
X181448571Y-153645000D01*
X182305714Y-153645000D01*
X182591428Y-153787857D01*
X182734285Y-153930714D01*
X182877142Y-154216428D01*
X182877142Y-154645000D01*
X180877142Y-151073571D02*
X182877142Y-151073571D01*
X180877142Y-152359285D02*
X182448571Y-152359285D01*
X182734285Y-152216428D01*
X182877142Y-151930714D01*
X182877142Y-151502142D01*
X182734285Y-151216428D01*
X182591428Y-151073571D01*
X180877142Y-149645000D02*
X182877142Y-149645000D01*
X181162857Y-149645000D02*
X181020000Y-149502142D01*
X180877142Y-149216428D01*
X180877142Y-148787857D01*
X181020000Y-148502142D01*
X181305714Y-148359285D01*
X182877142Y-148359285D01*
X182877142Y-145645000D02*
X179877142Y-145645000D01*
X182734285Y-145645000D02*
X182877142Y-145930714D01*
X182877142Y-146502142D01*
X182734285Y-146787857D01*
X182591428Y-146930714D01*
X182305714Y-147073571D01*
X181448571Y-147073571D01*
X181162857Y-146930714D01*
X181020000Y-146787857D01*
X180877142Y-146502142D01*
X180877142Y-145930714D01*
X181020000Y-145645000D01*
X181305714Y-140930714D02*
X181448571Y-140502142D01*
X181591428Y-140359285D01*
X181877142Y-140216428D01*
X182305714Y-140216428D01*
X182591428Y-140359285D01*
X182734285Y-140502142D01*
X182877142Y-140787857D01*
X182877142Y-141930714D01*
X179877142Y-141930714D01*
X179877142Y-140930714D01*
X180020000Y-140645000D01*
X180162857Y-140502142D01*
X180448571Y-140359285D01*
X180734285Y-140359285D01*
X181020000Y-140502142D01*
X181162857Y-140645000D01*
X181305714Y-140930714D01*
X181305714Y-141930714D01*
X182877142Y-138502142D02*
X182734285Y-138787857D01*
X182591428Y-138930714D01*
X182305714Y-139073571D01*
X181448571Y-139073571D01*
X181162857Y-138930714D01*
X181020000Y-138787857D01*
X180877142Y-138502142D01*
X180877142Y-138073571D01*
X181020000Y-137787857D01*
X181162857Y-137645000D01*
X181448571Y-137502142D01*
X182305714Y-137502142D01*
X182591428Y-137645000D01*
X182734285Y-137787857D01*
X182877142Y-138073571D01*
X182877142Y-138502142D01*
X182877142Y-134930714D02*
X181305714Y-134930714D01*
X181020000Y-135073571D01*
X180877142Y-135359285D01*
X180877142Y-135930714D01*
X181020000Y-136216428D01*
X182734285Y-134930714D02*
X182877142Y-135216428D01*
X182877142Y-135930714D01*
X182734285Y-136216428D01*
X182448571Y-136359285D01*
X182162857Y-136359285D01*
X181877142Y-136216428D01*
X181734285Y-135930714D01*
X181734285Y-135216428D01*
X181591428Y-134930714D01*
X182877142Y-133502142D02*
X180877142Y-133502142D01*
X181448571Y-133502142D02*
X181162857Y-133359285D01*
X181020000Y-133216428D01*
X180877142Y-132930714D01*
X180877142Y-132645000D01*
X182877142Y-130359285D02*
X179877142Y-130359285D01*
X182734285Y-130359285D02*
X182877142Y-130645000D01*
X182877142Y-131216428D01*
X182734285Y-131502142D01*
X182591428Y-131645000D01*
X182305714Y-131787857D01*
X181448571Y-131787857D01*
X181162857Y-131645000D01*
X181020000Y-131502142D01*
X180877142Y-131216428D01*
X180877142Y-130645000D01*
X181020000Y-130359285D01*
D10*
X159861428Y-158567380D02*
X159528095Y-158091190D01*
X159290000Y-158567380D02*
X159290000Y-157567380D01*
X159670952Y-157567380D01*
X159766190Y-157615000D01*
X159813809Y-157662619D01*
X159861428Y-157757857D01*
X159861428Y-157900714D01*
X159813809Y-157995952D01*
X159766190Y-158043571D01*
X159670952Y-158091190D01*
X159290000Y-158091190D01*
X160290000Y-158043571D02*
X160623333Y-158043571D01*
X160766190Y-158567380D02*
X160290000Y-158567380D01*
X160290000Y-157567380D01*
X160766190Y-157567380D01*
X161051904Y-157567380D02*
X161385238Y-158567380D01*
X161718571Y-157567380D01*
X162766190Y-157662619D02*
X162813809Y-157615000D01*
X162909047Y-157567380D01*
X163147142Y-157567380D01*
X163242380Y-157615000D01*
X163290000Y-157662619D01*
X163337619Y-157757857D01*
X163337619Y-157853095D01*
X163290000Y-157995952D01*
X162718571Y-158567380D01*
X163337619Y-158567380D01*
D13*
X239370000Y-116420000D02*
X236220000Y-116420000D01*
X239370000Y-114720000D02*
X236220000Y-114720000D01*
X239370000Y-116420000D02*
X239370000Y-114720000D01*
X245740000Y-116420000D02*
X242590000Y-116420000D01*
X245740000Y-114720000D02*
X242590000Y-114720000D01*
X245740000Y-116420000D02*
X245740000Y-114720000D01*
X239390000Y-118960000D02*
X236240000Y-118960000D01*
X239390000Y-117260000D02*
X236240000Y-117260000D01*
X239390000Y-118960000D02*
X239390000Y-117260000D01*
X245740000Y-118960000D02*
X242590000Y-118960000D01*
X245740000Y-117260000D02*
X242590000Y-117260000D01*
X245740000Y-118960000D02*
X245740000Y-117260000D01*
X239390000Y-121500000D02*
X236240000Y-121500000D01*
X239390000Y-119800000D02*
X236240000Y-119800000D01*
X239390000Y-121500000D02*
X239390000Y-119800000D01*
X245720000Y-121500000D02*
X242570000Y-121500000D01*
X245720000Y-119800000D02*
X242570000Y-119800000D01*
X245720000Y-121500000D02*
X245720000Y-119800000D01*
X239390000Y-124040000D02*
X236240000Y-124040000D01*
X239390000Y-122340000D02*
X236240000Y-122340000D01*
X239390000Y-124040000D02*
X239390000Y-122340000D01*
X239390000Y-126580000D02*
X236240000Y-126580000D01*
X239390000Y-124880000D02*
X236240000Y-124880000D01*
X239390000Y-126580000D02*
X239390000Y-124880000D01*
X149620000Y-117155000D02*
X149620000Y-110915000D01*
X149620000Y-110915000D02*
X153620000Y-110915000D01*
X153620000Y-110915000D02*
X153620000Y-110615000D01*
X153620000Y-110615000D02*
X167860000Y-110615000D01*
X167860000Y-110615000D02*
X167860000Y-119055000D01*
X167860000Y-119055000D02*
X153620000Y-119055000D01*
X153620000Y-119055000D02*
X153620000Y-117155000D01*
X153620000Y-117155000D02*
X149620000Y-117155000D01*
X246955000Y-121345000D02*
X252155000Y-121345000D01*
X246955000Y-111125000D02*
X246955000Y-121345000D01*
X252155000Y-108525000D02*
X252155000Y-121345000D01*
X246955000Y-111125000D02*
X249555000Y-111125000D01*
X249555000Y-111125000D02*
X249555000Y-108525000D01*
X249555000Y-108525000D02*
X252155000Y-108525000D01*
X246955000Y-109855000D02*
X246955000Y-108525000D01*
X246955000Y-108525000D02*
X248285000Y-108525000D01*
X256520000Y-154725000D02*
X241980000Y-154725000D01*
X241980000Y-154725000D02*
X241980000Y-123755000D01*
X241980000Y-123755000D02*
X256520000Y-123755000D01*
X241085662Y-145030000D02*
X241085662Y-144530000D01*
X241085662Y-144530000D02*
X241518675Y-144780000D01*
X241518675Y-144780000D02*
X241085662Y-145030000D01*
X165520000Y-108600000D02*
X167220000Y-108600000D01*
X167220000Y-108600000D02*
X167220000Y-105450000D01*
X165520000Y-108600000D02*
X165520000Y-105450000D01*
X162980000Y-108600000D02*
X164680000Y-108600000D01*
X164680000Y-108600000D02*
X164680000Y-105450000D01*
X162980000Y-108600000D02*
X162980000Y-105450000D01*
X167625000Y-128055000D02*
X167625000Y-129755000D01*
X167625000Y-129755000D02*
X170775000Y-129755000D01*
X167625000Y-128055000D02*
X170775000Y-128055000D01*
X167625000Y-130595000D02*
X167625000Y-132295000D01*
X167625000Y-132295000D02*
X170775000Y-132295000D01*
X167625000Y-130595000D02*
X170775000Y-130595000D01*
X167625000Y-133135000D02*
X167625000Y-134835000D01*
X167625000Y-134835000D02*
X170775000Y-134835000D01*
X167625000Y-133135000D02*
X170775000Y-133135000D01*
X167625000Y-135675000D02*
X167625000Y-137375000D01*
X167625000Y-137375000D02*
X170775000Y-137375000D01*
X167625000Y-135675000D02*
X170775000Y-135675000D01*
X167665000Y-138215000D02*
X167665000Y-139915000D01*
X167665000Y-139915000D02*
X170815000Y-139915000D01*
X167665000Y-138215000D02*
X170815000Y-138215000D01*
X167665000Y-140755000D02*
X167665000Y-142455000D01*
X167665000Y-142455000D02*
X170815000Y-142455000D01*
X167665000Y-140755000D02*
X170815000Y-140755000D01*
X167625000Y-143295000D02*
X167625000Y-144995000D01*
X167625000Y-144995000D02*
X170775000Y-144995000D01*
X167625000Y-143295000D02*
X170775000Y-143295000D01*
X167665000Y-145835000D02*
X167665000Y-147535000D01*
X167665000Y-147535000D02*
X170815000Y-147535000D01*
X167665000Y-145835000D02*
X170815000Y-145835000D01*
X167645000Y-148375000D02*
X167645000Y-150075000D01*
X167645000Y-150075000D02*
X170795000Y-150075000D01*
X167645000Y-148375000D02*
X170795000Y-148375000D01*
X212305000Y-123215000D02*
X210605000Y-123215000D01*
X210605000Y-123215000D02*
X210605000Y-126365000D01*
X212305000Y-123215000D02*
X212305000Y-126365000D01*
X214845000Y-123195000D02*
X213145000Y-123195000D01*
X213145000Y-123195000D02*
X213145000Y-126345000D01*
X214845000Y-123195000D02*
X214845000Y-126345000D01*
X217385000Y-123215000D02*
X215685000Y-123215000D01*
X215685000Y-123215000D02*
X215685000Y-126365000D01*
X217385000Y-123215000D02*
X217385000Y-126365000D01*
X219925000Y-123215000D02*
X218225000Y-123215000D01*
X218225000Y-123215000D02*
X218225000Y-126365000D01*
X219925000Y-123215000D02*
X219925000Y-126365000D01*
X222465000Y-123215000D02*
X220765000Y-123215000D01*
X220765000Y-123215000D02*
X220765000Y-126365000D01*
X222465000Y-123215000D02*
X222465000Y-126365000D01*
X225005000Y-123215000D02*
X223305000Y-123215000D01*
X223305000Y-123215000D02*
X223305000Y-126365000D01*
X225005000Y-123215000D02*
X225005000Y-126365000D01*
X230085000Y-123215000D02*
X228385000Y-123215000D01*
X228385000Y-123215000D02*
X228385000Y-126365000D01*
X230085000Y-123215000D02*
X230085000Y-126365000D01*
X232625000Y-123175000D02*
X230925000Y-123175000D01*
X230925000Y-123175000D02*
X230925000Y-126325000D01*
X232625000Y-123175000D02*
X232625000Y-126325000D01*
X232625000Y-116845000D02*
X230925000Y-116845000D01*
X230925000Y-116845000D02*
X230925000Y-119995000D01*
X232625000Y-116845000D02*
X232625000Y-119995000D01*
X230085000Y-116825000D02*
X228385000Y-116825000D01*
X228385000Y-116825000D02*
X228385000Y-119975000D01*
X230085000Y-116825000D02*
X230085000Y-119975000D01*
X227545000Y-116825000D02*
X225845000Y-116825000D01*
X225845000Y-116825000D02*
X225845000Y-119975000D01*
X227545000Y-116825000D02*
X227545000Y-119975000D01*
X227545000Y-123175000D02*
X225845000Y-123175000D01*
X225845000Y-123175000D02*
X225845000Y-126325000D01*
X227545000Y-123175000D02*
X227545000Y-126325000D01*
X223735000Y-116865000D02*
X222035000Y-116865000D01*
X222035000Y-116865000D02*
X222035000Y-120015000D01*
X223735000Y-116865000D02*
X223735000Y-120015000D01*
X221195000Y-116865000D02*
X219495000Y-116865000D01*
X219495000Y-116865000D02*
X219495000Y-120015000D01*
X221195000Y-116865000D02*
X221195000Y-120015000D01*
X218655000Y-116865000D02*
X216955000Y-116865000D01*
X216955000Y-116865000D02*
X216955000Y-120015000D01*
X218655000Y-116865000D02*
X218655000Y-120015000D01*
X216115000Y-116865000D02*
X214415000Y-116865000D01*
X214415000Y-116865000D02*
X214415000Y-120015000D01*
X216115000Y-116865000D02*
X216115000Y-120015000D01*
X213575000Y-116865000D02*
X211875000Y-116865000D01*
X211875000Y-116865000D02*
X211875000Y-120015000D01*
X213575000Y-116865000D02*
X213575000Y-120015000D01*
X211035000Y-116865000D02*
X209335000Y-116865000D01*
X209335000Y-116865000D02*
X209335000Y-120015000D01*
X211035000Y-116865000D02*
X211035000Y-120015000D01*
X207225000Y-147650000D02*
X207160000Y-147650000D01*
X209400000Y-147650000D02*
X209335000Y-147650000D01*
X207225000Y-144410000D02*
X207160000Y-144410000D01*
X209400000Y-144410000D02*
X209335000Y-144410000D01*
X207160000Y-144410000D02*
X207160000Y-147650000D01*
X209400000Y-144410000D02*
X209400000Y-147650000D01*
X206435000Y-105290000D02*
X188535000Y-105290000D01*
X206435000Y-156330000D02*
X206435000Y-105290000D01*
X188535000Y-156330000D02*
X206435000Y-156330000D01*
X188535000Y-105290000D02*
X188535000Y-156330000D01*
X203945000Y-105350000D02*
X198485000Y-105350000D01*
X203945000Y-156270000D02*
X203945000Y-105350000D01*
X191025000Y-156270000D02*
X203945000Y-156270000D01*
X191025000Y-105350000D02*
X191025000Y-156270000D01*
X196485000Y-105350000D02*
X191025000Y-105350000D01*
X198485000Y-105350000D02*
G75*
G02*
X196485000Y-105350000I-1000000J0D01*
G01*
X230505000Y-133480000D02*
X230505000Y-130680000D01*
X210015000Y-133480000D02*
X233215000Y-133480000D01*
X210015000Y-130680000D02*
X210015000Y-133480000D01*
X233215000Y-130680000D02*
X210015000Y-130680000D01*
X233215000Y-133480000D02*
X233215000Y-130680000D01*
X236990000Y-102635000D02*
X237490000Y-103635000D01*
X237990000Y-102635000D02*
X236990000Y-102635000D01*
X237490000Y-103635000D02*
X237990000Y-102635000D01*
X224010000Y-105335000D02*
X224010000Y-104025000D01*
X224010000Y-105335000D02*
X224010000Y-105335000D01*
X210720000Y-105335000D02*
X224010000Y-105335000D01*
X210720000Y-111835000D02*
X210720000Y-105335000D01*
X241400000Y-111835000D02*
X210720000Y-111835000D01*
X241400000Y-105335000D02*
X241400000Y-111835000D01*
X228110000Y-105335000D02*
X241400000Y-105335000D01*
X228110000Y-104025000D02*
X228110000Y-105335000D01*
X209420000Y-104025000D02*
X242700000Y-104025000D01*
X209420000Y-113145000D02*
X209420000Y-104025000D01*
X242700000Y-113145000D02*
X209420000Y-113145000D01*
X242700000Y-104025000D02*
X242700000Y-113145000D01*
X215145000Y-137735000D02*
X215145000Y-148015000D01*
X235705000Y-137735000D02*
X215145000Y-137735000D01*
X235705000Y-148015000D02*
X235705000Y-137735000D01*
X215145000Y-148015000D02*
X235705000Y-148015000D01*
X215205000Y-140225000D02*
X215205000Y-141875000D01*
X235645000Y-140225000D02*
X215205000Y-140225000D01*
X235645000Y-145525000D02*
X235645000Y-140225000D01*
X215205000Y-145525000D02*
X235645000Y-145525000D01*
X215205000Y-143875000D02*
X215205000Y-145525000D01*
X215205000Y-141875000D02*
G75*
G02*
X215205000Y-143875000I0J-1000000D01*
G01*
X164881325Y-133985000D02*
X165314338Y-133735000D01*
X165314338Y-134235000D02*
X164881325Y-133985000D01*
X165314338Y-133735000D02*
X165314338Y-134235000D01*
X164420000Y-155010000D02*
X149880000Y-155010000D01*
X164420000Y-124040000D02*
X164420000Y-155010000D01*
X149880000Y-124040000D02*
X164420000Y-124040000D01*
X182145000Y-114395000D02*
X182475000Y-114395000D01*
X182145000Y-107855000D02*
X182145000Y-114395000D01*
X182475000Y-107855000D02*
X182145000Y-107855000D01*
X184885000Y-114395000D02*
X184555000Y-114395000D01*
X184885000Y-107855000D02*
X184885000Y-114395000D01*
X184555000Y-107855000D02*
X184885000Y-107855000D01*
X178970000Y-114395000D02*
X179300000Y-114395000D01*
X178970000Y-107855000D02*
X178970000Y-114395000D01*
X179300000Y-107855000D02*
X178970000Y-107855000D01*
X181710000Y-114395000D02*
X181380000Y-114395000D01*
X181710000Y-107855000D02*
X181710000Y-114395000D01*
X181380000Y-107855000D02*
X181710000Y-107855000D01*
X175795000Y-114395000D02*
X176125000Y-114395000D01*
X175795000Y-107855000D02*
X175795000Y-114395000D01*
X176125000Y-107855000D02*
X175795000Y-107855000D01*
X178535000Y-114395000D02*
X178205000Y-114395000D01*
X178535000Y-107855000D02*
X178535000Y-114395000D01*
X178205000Y-107855000D02*
X178535000Y-107855000D01*
X175360000Y-107855000D02*
X175030000Y-107855000D01*
X175360000Y-114395000D02*
X175360000Y-107855000D01*
X175030000Y-114395000D02*
X175360000Y-114395000D01*
X172620000Y-107855000D02*
X172950000Y-107855000D01*
X172620000Y-114395000D02*
X172620000Y-107855000D01*
X172950000Y-114395000D02*
X172620000Y-114395000D01*
X172620000Y-124555000D02*
X172950000Y-124555000D01*
X172620000Y-118015000D02*
X172620000Y-124555000D01*
X172950000Y-118015000D02*
X172620000Y-118015000D01*
X175360000Y-124555000D02*
X175030000Y-124555000D01*
X175360000Y-118015000D02*
X175360000Y-124555000D01*
X175030000Y-118015000D02*
X175360000Y-118015000D01*
X169445000Y-124555000D02*
X169775000Y-124555000D01*
X169445000Y-118015000D02*
X169445000Y-124555000D01*
X169775000Y-118015000D02*
X169445000Y-118015000D01*
X172185000Y-124555000D02*
X171855000Y-124555000D01*
X172185000Y-118015000D02*
X172185000Y-124555000D01*
X171855000Y-118015000D02*
X172185000Y-118015000D01*
X172185000Y-107855000D02*
X171855000Y-107855000D01*
X172185000Y-114395000D02*
X172185000Y-107855000D01*
X171855000Y-114395000D02*
X172185000Y-114395000D01*
X169445000Y-107855000D02*
X169775000Y-107855000D01*
X169445000Y-114395000D02*
X169445000Y-107855000D01*
X169775000Y-114395000D02*
X169445000Y-114395000D01*
X182145000Y-124555000D02*
X182475000Y-124555000D01*
X182145000Y-118015000D02*
X182145000Y-124555000D01*
X182475000Y-118015000D02*
X182145000Y-118015000D01*
X184885000Y-124555000D02*
X184555000Y-124555000D01*
X184885000Y-118015000D02*
X184885000Y-124555000D01*
X184555000Y-118015000D02*
X184885000Y-118015000D01*
X178970000Y-124555000D02*
X179300000Y-124555000D01*
X178970000Y-118015000D02*
X178970000Y-124555000D01*
X179300000Y-118015000D02*
X178970000Y-118015000D01*
X181710000Y-124555000D02*
X181380000Y-124555000D01*
X181710000Y-118015000D02*
X181710000Y-124555000D01*
X181380000Y-118015000D02*
X181710000Y-118015000D01*
X175795000Y-124555000D02*
X176125000Y-124555000D01*
X175795000Y-118015000D02*
X175795000Y-124555000D01*
X176125000Y-118015000D02*
X175795000Y-118015000D01*
X178535000Y-124555000D02*
X178205000Y-124555000D01*
X178535000Y-118015000D02*
X178535000Y-124555000D01*
X178205000Y-118015000D02*
X178535000Y-118015000D01*
X212305000Y-141935000D02*
X212240000Y-141935000D01*
X214480000Y-141935000D02*
X214415000Y-141935000D01*
X212305000Y-138695000D02*
X212240000Y-138695000D01*
X214480000Y-138695000D02*
X214415000Y-138695000D01*
X212240000Y-138695000D02*
X212240000Y-141935000D01*
X214480000Y-138695000D02*
X214480000Y-141935000D01*
D10*
X165084285Y-120102380D02*
X165084285Y-120816666D01*
X165036666Y-120959523D01*
X164941428Y-121054761D01*
X164798571Y-121102380D01*
X164703333Y-121102380D01*
X166084285Y-121102380D02*
X165512857Y-121102380D01*
X165798571Y-121102380D02*
X165798571Y-120102380D01*
X165703333Y-120245238D01*
X165608095Y-120340476D01*
X165512857Y-120388095D01*
X166703333Y-120102380D02*
X166798571Y-120102380D01*
X166893809Y-120150000D01*
X166941428Y-120197619D01*
X166989047Y-120292857D01*
X167036666Y-120483333D01*
X167036666Y-120721428D01*
X166989047Y-120911904D01*
X166941428Y-121007142D01*
X166893809Y-121054761D01*
X166798571Y-121102380D01*
X166703333Y-121102380D01*
X166608095Y-121054761D01*
X166560476Y-121007142D01*
X166512857Y-120911904D01*
X166465238Y-120721428D01*
X166465238Y-120483333D01*
X166512857Y-120292857D01*
X166560476Y-120197619D01*
X166608095Y-120150000D01*
X166703333Y-120102380D01*
X167370000Y-120102380D02*
X167989047Y-120102380D01*
X167655714Y-120483333D01*
X167798571Y-120483333D01*
X167893809Y-120530952D01*
X167941428Y-120578571D01*
X167989047Y-120673809D01*
X167989047Y-120911904D01*
X167941428Y-121007142D01*
X167893809Y-121054761D01*
X167798571Y-121102380D01*
X167512857Y-121102380D01*
X167417619Y-121054761D01*
X167370000Y-121007142D01*
X248269285Y-106767380D02*
X248269285Y-107481666D01*
X248221666Y-107624523D01*
X248126428Y-107719761D01*
X247983571Y-107767380D01*
X247888333Y-107767380D01*
X249269285Y-107767380D02*
X248697857Y-107767380D01*
X248983571Y-107767380D02*
X248983571Y-106767380D01*
X248888333Y-106910238D01*
X248793095Y-107005476D01*
X248697857Y-107053095D01*
X249745476Y-107767380D02*
X249935952Y-107767380D01*
X250031190Y-107719761D01*
X250078809Y-107672142D01*
X250174047Y-107529285D01*
X250221666Y-107338809D01*
X250221666Y-106957857D01*
X250174047Y-106862619D01*
X250126428Y-106815000D01*
X250031190Y-106767380D01*
X249840714Y-106767380D01*
X249745476Y-106815000D01*
X249697857Y-106862619D01*
X249650238Y-106957857D01*
X249650238Y-107195952D01*
X249697857Y-107291190D01*
X249745476Y-107338809D01*
X249840714Y-107386428D01*
X250031190Y-107386428D01*
X250126428Y-107338809D01*
X250174047Y-107291190D01*
X250221666Y-107195952D01*
X250555000Y-106767380D02*
X251174047Y-106767380D01*
X250840714Y-107148333D01*
X250983571Y-107148333D01*
X251078809Y-107195952D01*
X251126428Y-107243571D01*
X251174047Y-107338809D01*
X251174047Y-107576904D01*
X251126428Y-107672142D01*
X251078809Y-107719761D01*
X250983571Y-107767380D01*
X250697857Y-107767380D01*
X250602619Y-107719761D01*
X250555000Y-107672142D01*
X240117380Y-140525714D02*
X240831666Y-140525714D01*
X240974523Y-140573333D01*
X241069761Y-140668571D01*
X241117380Y-140811428D01*
X241117380Y-140906666D01*
X241117380Y-139525714D02*
X241117380Y-140097142D01*
X241117380Y-139811428D02*
X240117380Y-139811428D01*
X240260238Y-139906666D01*
X240355476Y-140001904D01*
X240403095Y-140097142D01*
X241117380Y-139049523D02*
X241117380Y-138859047D01*
X241069761Y-138763809D01*
X241022142Y-138716190D01*
X240879285Y-138620952D01*
X240688809Y-138573333D01*
X240307857Y-138573333D01*
X240212619Y-138620952D01*
X240165000Y-138668571D01*
X240117380Y-138763809D01*
X240117380Y-138954285D01*
X240165000Y-139049523D01*
X240212619Y-139097142D01*
X240307857Y-139144761D01*
X240545952Y-139144761D01*
X240641190Y-139097142D01*
X240688809Y-139049523D01*
X240736428Y-138954285D01*
X240736428Y-138763809D01*
X240688809Y-138668571D01*
X240641190Y-138620952D01*
X240545952Y-138573333D01*
X240212619Y-138192380D02*
X240165000Y-138144761D01*
X240117380Y-138049523D01*
X240117380Y-137811428D01*
X240165000Y-137716190D01*
X240212619Y-137668571D01*
X240307857Y-137620952D01*
X240403095Y-137620952D01*
X240545952Y-137668571D01*
X241117380Y-138240000D01*
X241117380Y-137620952D01*
X168727380Y-108370476D02*
X167727380Y-108370476D01*
X167727380Y-108132380D01*
X167775000Y-107989523D01*
X167870238Y-107894285D01*
X167965476Y-107846666D01*
X168155952Y-107799047D01*
X168298809Y-107799047D01*
X168489285Y-107846666D01*
X168584523Y-107894285D01*
X168679761Y-107989523D01*
X168727380Y-108132380D01*
X168727380Y-108370476D01*
X167822619Y-107418095D02*
X167775000Y-107370476D01*
X167727380Y-107275238D01*
X167727380Y-107037142D01*
X167775000Y-106941904D01*
X167822619Y-106894285D01*
X167917857Y-106846666D01*
X168013095Y-106846666D01*
X168155952Y-106894285D01*
X168727380Y-107465714D01*
X168727380Y-106846666D01*
X168727380Y-105894285D02*
X168727380Y-106465714D01*
X168727380Y-106180000D02*
X167727380Y-106180000D01*
X167870238Y-106275238D01*
X167965476Y-106370476D01*
X168013095Y-106465714D01*
X168727380Y-105418095D02*
X168727380Y-105227619D01*
X168679761Y-105132380D01*
X168632142Y-105084761D01*
X168489285Y-104989523D01*
X168298809Y-104941904D01*
X167917857Y-104941904D01*
X167822619Y-104989523D01*
X167775000Y-105037142D01*
X167727380Y-105132380D01*
X167727380Y-105322857D01*
X167775000Y-105418095D01*
X167822619Y-105465714D01*
X167917857Y-105513333D01*
X168155952Y-105513333D01*
X168251190Y-105465714D01*
X168298809Y-105418095D01*
X168346428Y-105322857D01*
X168346428Y-105132380D01*
X168298809Y-105037142D01*
X168251190Y-104989523D01*
X168155952Y-104941904D01*
X162432380Y-108390476D02*
X161432380Y-108390476D01*
X161432380Y-108152380D01*
X161480000Y-108009523D01*
X161575238Y-107914285D01*
X161670476Y-107866666D01*
X161860952Y-107819047D01*
X162003809Y-107819047D01*
X162194285Y-107866666D01*
X162289523Y-107914285D01*
X162384761Y-108009523D01*
X162432380Y-108152380D01*
X162432380Y-108390476D01*
X161527619Y-107438095D02*
X161480000Y-107390476D01*
X161432380Y-107295238D01*
X161432380Y-107057142D01*
X161480000Y-106961904D01*
X161527619Y-106914285D01*
X161622857Y-106866666D01*
X161718095Y-106866666D01*
X161860952Y-106914285D01*
X162432380Y-107485714D01*
X162432380Y-106866666D01*
X162432380Y-105914285D02*
X162432380Y-106485714D01*
X162432380Y-106200000D02*
X161432380Y-106200000D01*
X161575238Y-106295238D01*
X161670476Y-106390476D01*
X161718095Y-106485714D01*
X161860952Y-105342857D02*
X161813333Y-105438095D01*
X161765714Y-105485714D01*
X161670476Y-105533333D01*
X161622857Y-105533333D01*
X161527619Y-105485714D01*
X161480000Y-105438095D01*
X161432380Y-105342857D01*
X161432380Y-105152380D01*
X161480000Y-105057142D01*
X161527619Y-105009523D01*
X161622857Y-104961904D01*
X161670476Y-104961904D01*
X161765714Y-105009523D01*
X161813333Y-105057142D01*
X161860952Y-105152380D01*
X161860952Y-105342857D01*
X161908571Y-105438095D01*
X161956190Y-105485714D01*
X162051428Y-105533333D01*
X162241904Y-105533333D01*
X162337142Y-105485714D01*
X162384761Y-105438095D01*
X162432380Y-105342857D01*
X162432380Y-105152380D01*
X162384761Y-105057142D01*
X162337142Y-105009523D01*
X162241904Y-104961904D01*
X162051428Y-104961904D01*
X161956190Y-105009523D01*
X161908571Y-105057142D01*
X161860952Y-105152380D01*
X210887142Y-146196666D02*
X210934761Y-146244285D01*
X210982380Y-146387142D01*
X210982380Y-146482380D01*
X210934761Y-146625238D01*
X210839523Y-146720476D01*
X210744285Y-146768095D01*
X210553809Y-146815714D01*
X210410952Y-146815714D01*
X210220476Y-146768095D01*
X210125238Y-146720476D01*
X210030000Y-146625238D01*
X209982380Y-146482380D01*
X209982380Y-146387142D01*
X210030000Y-146244285D01*
X210077619Y-146196666D01*
X210982380Y-145244285D02*
X210982380Y-145815714D01*
X210982380Y-145530000D02*
X209982380Y-145530000D01*
X210125238Y-145625238D01*
X210220476Y-145720476D01*
X210268095Y-145815714D01*
X195556428Y-104802380D02*
X195556428Y-103802380D01*
X196604047Y-104707142D02*
X196556428Y-104754761D01*
X196413571Y-104802380D01*
X196318333Y-104802380D01*
X196175476Y-104754761D01*
X196080238Y-104659523D01*
X196032619Y-104564285D01*
X195985000Y-104373809D01*
X195985000Y-104230952D01*
X196032619Y-104040476D01*
X196080238Y-103945238D01*
X196175476Y-103850000D01*
X196318333Y-103802380D01*
X196413571Y-103802380D01*
X196556428Y-103850000D01*
X196604047Y-103897619D01*
X197556428Y-104802380D02*
X196985000Y-104802380D01*
X197270714Y-104802380D02*
X197270714Y-103802380D01*
X197175476Y-103945238D01*
X197080238Y-104040476D01*
X196985000Y-104088095D01*
X198175476Y-103802380D02*
X198270714Y-103802380D01*
X198365952Y-103850000D01*
X198413571Y-103897619D01*
X198461190Y-103992857D01*
X198508809Y-104183333D01*
X198508809Y-104421428D01*
X198461190Y-104611904D01*
X198413571Y-104707142D01*
X198365952Y-104754761D01*
X198270714Y-104802380D01*
X198175476Y-104802380D01*
X198080238Y-104754761D01*
X198032619Y-104707142D01*
X197985000Y-104611904D01*
X197937380Y-104421428D01*
X197937380Y-104183333D01*
X197985000Y-103992857D01*
X198032619Y-103897619D01*
X198080238Y-103850000D01*
X198175476Y-103802380D01*
X198889761Y-103897619D02*
X198937380Y-103850000D01*
X199032619Y-103802380D01*
X199270714Y-103802380D01*
X199365952Y-103850000D01*
X199413571Y-103897619D01*
X199461190Y-103992857D01*
X199461190Y-104088095D01*
X199413571Y-104230952D01*
X198842142Y-104802380D01*
X199461190Y-104802380D01*
X197651666Y-135095714D02*
X197651666Y-134619523D01*
X197937380Y-135190952D02*
X196937380Y-134857619D01*
X197937380Y-134524285D01*
X197461190Y-134000476D02*
X197937380Y-134000476D01*
X196937380Y-134333809D02*
X197461190Y-134000476D01*
X196937380Y-133667142D01*
X197556428Y-133333809D02*
X197556428Y-132571904D01*
X196937380Y-132190952D02*
X196937380Y-131571904D01*
X197318333Y-131905238D01*
X197318333Y-131762380D01*
X197365952Y-131667142D01*
X197413571Y-131619523D01*
X197508809Y-131571904D01*
X197746904Y-131571904D01*
X197842142Y-131619523D01*
X197889761Y-131667142D01*
X197937380Y-131762380D01*
X197937380Y-132048095D01*
X197889761Y-132143333D01*
X197842142Y-132190952D01*
X197556428Y-131143333D02*
X197556428Y-130381428D01*
X197365952Y-129762380D02*
X197318333Y-129857619D01*
X197270714Y-129905238D01*
X197175476Y-129952857D01*
X197127857Y-129952857D01*
X197032619Y-129905238D01*
X196985000Y-129857619D01*
X196937380Y-129762380D01*
X196937380Y-129571904D01*
X196985000Y-129476666D01*
X197032619Y-129429047D01*
X197127857Y-129381428D01*
X197175476Y-129381428D01*
X197270714Y-129429047D01*
X197318333Y-129476666D01*
X197365952Y-129571904D01*
X197365952Y-129762380D01*
X197413571Y-129857619D01*
X197461190Y-129905238D01*
X197556428Y-129952857D01*
X197746904Y-129952857D01*
X197842142Y-129905238D01*
X197889761Y-129857619D01*
X197937380Y-129762380D01*
X197937380Y-129571904D01*
X197889761Y-129476666D01*
X197842142Y-129429047D01*
X197746904Y-129381428D01*
X197556428Y-129381428D01*
X197461190Y-129429047D01*
X197413571Y-129476666D01*
X197365952Y-129571904D01*
X197937380Y-128905238D02*
X197937380Y-128714761D01*
X197889761Y-128619523D01*
X197842142Y-128571904D01*
X197699285Y-128476666D01*
X197508809Y-128429047D01*
X197127857Y-128429047D01*
X197032619Y-128476666D01*
X196985000Y-128524285D01*
X196937380Y-128619523D01*
X196937380Y-128810000D01*
X196985000Y-128905238D01*
X197032619Y-128952857D01*
X197127857Y-129000476D01*
X197365952Y-129000476D01*
X197461190Y-128952857D01*
X197508809Y-128905238D01*
X197556428Y-128810000D01*
X197556428Y-128619523D01*
X197508809Y-128524285D01*
X197461190Y-128476666D01*
X197365952Y-128429047D01*
X197937380Y-127476666D02*
X197937380Y-128048095D01*
X197937380Y-127762380D02*
X196937380Y-127762380D01*
X197080238Y-127857619D01*
X197175476Y-127952857D01*
X197223095Y-128048095D01*
X196937380Y-126857619D02*
X196937380Y-126762380D01*
X196985000Y-126667142D01*
X197032619Y-126619523D01*
X197127857Y-126571904D01*
X197318333Y-126524285D01*
X197556428Y-126524285D01*
X197746904Y-126571904D01*
X197842142Y-126619523D01*
X197889761Y-126667142D01*
X197937380Y-126762380D01*
X197937380Y-126857619D01*
X197889761Y-126952857D01*
X197842142Y-127000476D01*
X197746904Y-127048095D01*
X197556428Y-127095714D01*
X197318333Y-127095714D01*
X197127857Y-127048095D01*
X197032619Y-127000476D01*
X196985000Y-126952857D01*
X196937380Y-126857619D01*
X171251666Y-156827380D02*
X171251666Y-157541666D01*
X171204047Y-157684523D01*
X171108809Y-157779761D01*
X170965952Y-157827380D01*
X170870714Y-157827380D01*
X171727857Y-157827380D02*
X171727857Y-156827380D01*
X172108809Y-156827380D01*
X172204047Y-156875000D01*
X172251666Y-156922619D01*
X172299285Y-157017857D01*
X172299285Y-157160714D01*
X172251666Y-157255952D01*
X172204047Y-157303571D01*
X172108809Y-157351190D01*
X171727857Y-157351190D01*
X172680238Y-156922619D02*
X172727857Y-156875000D01*
X172823095Y-156827380D01*
X173061190Y-156827380D01*
X173156428Y-156875000D01*
X173204047Y-156922619D01*
X173251666Y-157017857D01*
X173251666Y-157113095D01*
X173204047Y-157255952D01*
X172632619Y-157827380D01*
X173251666Y-157827380D01*
X228862142Y-135072380D02*
X228528809Y-134596190D01*
X228290714Y-135072380D02*
X228290714Y-134072380D01*
X228671666Y-134072380D01*
X228766904Y-134120000D01*
X228814523Y-134167619D01*
X228862142Y-134262857D01*
X228862142Y-134405714D01*
X228814523Y-134500952D01*
X228766904Y-134548571D01*
X228671666Y-134596190D01*
X228290714Y-134596190D01*
X229290714Y-135072380D02*
X229290714Y-134072380D01*
X229862142Y-135072380D01*
X229862142Y-134072380D01*
X230385952Y-135072380D02*
X230576428Y-135072380D01*
X230671666Y-135024761D01*
X230719285Y-134977142D01*
X230814523Y-134834285D01*
X230862142Y-134643809D01*
X230862142Y-134262857D01*
X230814523Y-134167619D01*
X230766904Y-134120000D01*
X230671666Y-134072380D01*
X230481190Y-134072380D01*
X230385952Y-134120000D01*
X230338333Y-134167619D01*
X230290714Y-134262857D01*
X230290714Y-134500952D01*
X230338333Y-134596190D01*
X230385952Y-134643809D01*
X230481190Y-134691428D01*
X230671666Y-134691428D01*
X230766904Y-134643809D01*
X230814523Y-134596190D01*
X230862142Y-134500952D01*
X231481190Y-134072380D02*
X231576428Y-134072380D01*
X231671666Y-134120000D01*
X231719285Y-134167619D01*
X231766904Y-134262857D01*
X231814523Y-134453333D01*
X231814523Y-134691428D01*
X231766904Y-134881904D01*
X231719285Y-134977142D01*
X231671666Y-135024761D01*
X231576428Y-135072380D01*
X231481190Y-135072380D01*
X231385952Y-135024761D01*
X231338333Y-134977142D01*
X231290714Y-134881904D01*
X231243095Y-134691428D01*
X231243095Y-134453333D01*
X231290714Y-134262857D01*
X231338333Y-134167619D01*
X231385952Y-134120000D01*
X231481190Y-134072380D01*
X232766904Y-135072380D02*
X232195476Y-135072380D01*
X232481190Y-135072380D02*
X232481190Y-134072380D01*
X232385952Y-134215238D01*
X232290714Y-134310476D01*
X232195476Y-134358095D01*
X223623333Y-134167619D02*
X223670952Y-134120000D01*
X223766190Y-134072380D01*
X224004285Y-134072380D01*
X224099523Y-134120000D01*
X224147142Y-134167619D01*
X224194761Y-134262857D01*
X224194761Y-134358095D01*
X224147142Y-134500952D01*
X223575714Y-135072380D01*
X224194761Y-135072380D01*
X224623333Y-135072380D02*
X224623333Y-134072380D01*
X224718571Y-134691428D02*
X225004285Y-135072380D01*
X225004285Y-134405714D02*
X224623333Y-134786666D01*
X225385238Y-134167619D02*
X225432857Y-134120000D01*
X225528095Y-134072380D01*
X225766190Y-134072380D01*
X225861428Y-134120000D01*
X225909047Y-134167619D01*
X225956666Y-134262857D01*
X225956666Y-134358095D01*
X225909047Y-134500952D01*
X225337619Y-135072380D01*
X225956666Y-135072380D01*
X243292380Y-106243333D02*
X244006666Y-106243333D01*
X244149523Y-106290952D01*
X244244761Y-106386190D01*
X244292380Y-106529047D01*
X244292380Y-106624285D01*
X244292380Y-105767142D02*
X243292380Y-105767142D01*
X243292380Y-105386190D01*
X243340000Y-105290952D01*
X243387619Y-105243333D01*
X243482857Y-105195714D01*
X243625714Y-105195714D01*
X243720952Y-105243333D01*
X243768571Y-105290952D01*
X243816190Y-105386190D01*
X243816190Y-105767142D01*
X243292380Y-104862380D02*
X243292380Y-104243333D01*
X243673333Y-104576666D01*
X243673333Y-104433809D01*
X243720952Y-104338571D01*
X243768571Y-104290952D01*
X243863809Y-104243333D01*
X244101904Y-104243333D01*
X244197142Y-104290952D01*
X244244761Y-104338571D01*
X244292380Y-104433809D01*
X244292380Y-104719523D01*
X244244761Y-104814761D01*
X244197142Y-104862380D01*
X214447380Y-147978571D02*
X213447380Y-147978571D01*
X214352142Y-146930952D02*
X214399761Y-146978571D01*
X214447380Y-147121428D01*
X214447380Y-147216666D01*
X214399761Y-147359523D01*
X214304523Y-147454761D01*
X214209285Y-147502380D01*
X214018809Y-147550000D01*
X213875952Y-147550000D01*
X213685476Y-147502380D01*
X213590238Y-147454761D01*
X213495000Y-147359523D01*
X213447380Y-147216666D01*
X213447380Y-147121428D01*
X213495000Y-146978571D01*
X213542619Y-146930952D01*
X214447380Y-145978571D02*
X214447380Y-146550000D01*
X214447380Y-146264285D02*
X213447380Y-146264285D01*
X213590238Y-146359523D01*
X213685476Y-146454761D01*
X213733095Y-146550000D01*
X213447380Y-145359523D02*
X213447380Y-145264285D01*
X213495000Y-145169047D01*
X213542619Y-145121428D01*
X213637857Y-145073809D01*
X213828333Y-145026190D01*
X214066428Y-145026190D01*
X214256904Y-145073809D01*
X214352142Y-145121428D01*
X214399761Y-145169047D01*
X214447380Y-145264285D01*
X214447380Y-145359523D01*
X214399761Y-145454761D01*
X214352142Y-145502380D01*
X214256904Y-145550000D01*
X214066428Y-145597619D01*
X213828333Y-145597619D01*
X213637857Y-145550000D01*
X213542619Y-145502380D01*
X213495000Y-145454761D01*
X213447380Y-145359523D01*
X214447380Y-144073809D02*
X214447380Y-144645238D01*
X214447380Y-144359523D02*
X213447380Y-144359523D01*
X213590238Y-144454761D01*
X213685476Y-144550000D01*
X213733095Y-144645238D01*
X222305952Y-142327380D02*
X222972619Y-142327380D01*
X222544047Y-143327380D01*
X223782142Y-142660714D02*
X223782142Y-143327380D01*
X223544047Y-142279761D02*
X223305952Y-142994047D01*
X223925000Y-142994047D01*
X224782142Y-143327380D02*
X224305952Y-143327380D01*
X224305952Y-142327380D01*
X225067857Y-143279761D02*
X225210714Y-143327380D01*
X225448809Y-143327380D01*
X225544047Y-143279761D01*
X225591666Y-143232142D01*
X225639285Y-143136904D01*
X225639285Y-143041666D01*
X225591666Y-142946428D01*
X225544047Y-142898809D01*
X225448809Y-142851190D01*
X225258333Y-142803571D01*
X225163095Y-142755952D01*
X225115476Y-142708333D01*
X225067857Y-142613095D01*
X225067857Y-142517857D01*
X225115476Y-142422619D01*
X225163095Y-142375000D01*
X225258333Y-142327380D01*
X225496428Y-142327380D01*
X225639285Y-142375000D01*
X226591666Y-143327380D02*
X226020238Y-143327380D01*
X226305952Y-143327380D02*
X226305952Y-142327380D01*
X226210714Y-142470238D01*
X226115476Y-142565476D01*
X226020238Y-142613095D01*
X227448809Y-142660714D02*
X227448809Y-143327380D01*
X227210714Y-142279761D02*
X226972619Y-142994047D01*
X227591666Y-142994047D01*
X228448809Y-142327380D02*
X227972619Y-142327380D01*
X227925000Y-142803571D01*
X227972619Y-142755952D01*
X228067857Y-142708333D01*
X228305952Y-142708333D01*
X228401190Y-142755952D01*
X228448809Y-142803571D01*
X228496428Y-142898809D01*
X228496428Y-143136904D01*
X228448809Y-143232142D01*
X228401190Y-143279761D01*
X228305952Y-143327380D01*
X228067857Y-143327380D01*
X227972619Y-143279761D01*
X227925000Y-143232142D01*
X165187380Y-140810714D02*
X165901666Y-140810714D01*
X166044523Y-140858333D01*
X166139761Y-140953571D01*
X166187380Y-141096428D01*
X166187380Y-141191666D01*
X166187380Y-139810714D02*
X166187380Y-140382142D01*
X166187380Y-140096428D02*
X165187380Y-140096428D01*
X165330238Y-140191666D01*
X165425476Y-140286904D01*
X165473095Y-140382142D01*
X165187380Y-139191666D02*
X165187380Y-139096428D01*
X165235000Y-139001190D01*
X165282619Y-138953571D01*
X165377857Y-138905952D01*
X165568333Y-138858333D01*
X165806428Y-138858333D01*
X165996904Y-138905952D01*
X166092142Y-138953571D01*
X166139761Y-139001190D01*
X166187380Y-139096428D01*
X166187380Y-139191666D01*
X166139761Y-139286904D01*
X166092142Y-139334523D01*
X165996904Y-139382142D01*
X165806428Y-139429761D01*
X165568333Y-139429761D01*
X165377857Y-139382142D01*
X165282619Y-139334523D01*
X165235000Y-139286904D01*
X165187380Y-139191666D01*
X165282619Y-138477380D02*
X165235000Y-138429761D01*
X165187380Y-138334523D01*
X165187380Y-138096428D01*
X165235000Y-138001190D01*
X165282619Y-137953571D01*
X165377857Y-137905952D01*
X165473095Y-137905952D01*
X165615952Y-137953571D01*
X166187380Y-138525000D01*
X166187380Y-137905952D01*
X156027380Y-148152380D02*
X155027380Y-148152380D01*
X155027380Y-147771428D01*
X155075000Y-147676190D01*
X155122619Y-147628571D01*
X155217857Y-147580952D01*
X155360714Y-147580952D01*
X155455952Y-147628571D01*
X155503571Y-147676190D01*
X155551190Y-147771428D01*
X155551190Y-148152380D01*
X156027380Y-146723809D02*
X155503571Y-146723809D01*
X155408333Y-146771428D01*
X155360714Y-146866666D01*
X155360714Y-147057142D01*
X155408333Y-147152380D01*
X155979761Y-146723809D02*
X156027380Y-146819047D01*
X156027380Y-147057142D01*
X155979761Y-147152380D01*
X155884523Y-147200000D01*
X155789285Y-147200000D01*
X155694047Y-147152380D01*
X155646428Y-147057142D01*
X155646428Y-146819047D01*
X155598809Y-146723809D01*
X156027380Y-145819047D02*
X155027380Y-145819047D01*
X155979761Y-145819047D02*
X156027380Y-145914285D01*
X156027380Y-146104761D01*
X155979761Y-146200000D01*
X155932142Y-146247619D01*
X155836904Y-146295238D01*
X155551190Y-146295238D01*
X155455952Y-146247619D01*
X155408333Y-146200000D01*
X155360714Y-146104761D01*
X155360714Y-145914285D01*
X155408333Y-145819047D01*
X156027380Y-144914285D02*
X155027380Y-144914285D01*
X155979761Y-144914285D02*
X156027380Y-145009523D01*
X156027380Y-145200000D01*
X155979761Y-145295238D01*
X155932142Y-145342857D01*
X155836904Y-145390476D01*
X155551190Y-145390476D01*
X155455952Y-145342857D01*
X155408333Y-145295238D01*
X155360714Y-145200000D01*
X155360714Y-145009523D01*
X155408333Y-144914285D01*
X156027380Y-144295238D02*
X155979761Y-144390476D01*
X155884523Y-144438095D01*
X155027380Y-144438095D01*
X155979761Y-143533333D02*
X156027380Y-143628571D01*
X156027380Y-143819047D01*
X155979761Y-143914285D01*
X155884523Y-143961904D01*
X155503571Y-143961904D01*
X155408333Y-143914285D01*
X155360714Y-143819047D01*
X155360714Y-143628571D01*
X155408333Y-143533333D01*
X155503571Y-143485714D01*
X155598809Y-143485714D01*
X155694047Y-143961904D01*
X156027380Y-142295238D02*
X155027380Y-142295238D01*
X155027380Y-141914285D01*
X155075000Y-141819047D01*
X155122619Y-141771428D01*
X155217857Y-141723809D01*
X155360714Y-141723809D01*
X155455952Y-141771428D01*
X155503571Y-141819047D01*
X155551190Y-141914285D01*
X155551190Y-142295238D01*
X156027380Y-141152380D02*
X155979761Y-141247619D01*
X155932142Y-141295238D01*
X155836904Y-141342857D01*
X155551190Y-141342857D01*
X155455952Y-141295238D01*
X155408333Y-141247619D01*
X155360714Y-141152380D01*
X155360714Y-141009523D01*
X155408333Y-140914285D01*
X155455952Y-140866666D01*
X155551190Y-140819047D01*
X155836904Y-140819047D01*
X155932142Y-140866666D01*
X155979761Y-140914285D01*
X156027380Y-141009523D01*
X156027380Y-141152380D01*
X156027380Y-140390476D02*
X155360714Y-140390476D01*
X155551190Y-140390476D02*
X155455952Y-140342857D01*
X155408333Y-140295238D01*
X155360714Y-140200000D01*
X155360714Y-140104761D01*
X155360714Y-139914285D02*
X155360714Y-139533333D01*
X155027380Y-139771428D02*
X155884523Y-139771428D01*
X155979761Y-139723809D01*
X156027380Y-139628571D01*
X156027380Y-139533333D01*
X156408333Y-138152380D02*
X156360714Y-138200000D01*
X156217857Y-138295238D01*
X156122619Y-138342857D01*
X155979761Y-138390476D01*
X155741666Y-138438095D01*
X155551190Y-138438095D01*
X155313095Y-138390476D01*
X155170238Y-138342857D01*
X155075000Y-138295238D01*
X154932142Y-138200000D01*
X154884523Y-138152380D01*
X156027380Y-137723809D02*
X156027380Y-137533333D01*
X155979761Y-137438095D01*
X155932142Y-137390476D01*
X155789285Y-137295238D01*
X155598809Y-137247619D01*
X155217857Y-137247619D01*
X155122619Y-137295238D01*
X155075000Y-137342857D01*
X155027380Y-137438095D01*
X155027380Y-137628571D01*
X155075000Y-137723809D01*
X155122619Y-137771428D01*
X155217857Y-137819047D01*
X155455952Y-137819047D01*
X155551190Y-137771428D01*
X155598809Y-137723809D01*
X155646428Y-137628571D01*
X155646428Y-137438095D01*
X155598809Y-137342857D01*
X155551190Y-137295238D01*
X155455952Y-137247619D01*
X155646428Y-136819047D02*
X155646428Y-136057142D01*
X156027380Y-135580952D02*
X155027380Y-135580952D01*
X155027380Y-135200000D01*
X155075000Y-135104761D01*
X155122619Y-135057142D01*
X155217857Y-135009523D01*
X155360714Y-135009523D01*
X155455952Y-135057142D01*
X155503571Y-135104761D01*
X155551190Y-135200000D01*
X155551190Y-135580952D01*
X156027380Y-134580952D02*
X155360714Y-134580952D01*
X155027380Y-134580952D02*
X155075000Y-134628571D01*
X155122619Y-134580952D01*
X155075000Y-134533333D01*
X155027380Y-134580952D01*
X155122619Y-134580952D01*
X155360714Y-134104761D02*
X156027380Y-134104761D01*
X155455952Y-134104761D02*
X155408333Y-134057142D01*
X155360714Y-133961904D01*
X155360714Y-133819047D01*
X155408333Y-133723809D01*
X155503571Y-133676190D01*
X156027380Y-133676190D01*
X156027380Y-132438095D02*
X155027380Y-132438095D01*
X155027380Y-132200000D01*
X155075000Y-132057142D01*
X155170238Y-131961904D01*
X155265476Y-131914285D01*
X155455952Y-131866666D01*
X155598809Y-131866666D01*
X155789285Y-131914285D01*
X155884523Y-131961904D01*
X155979761Y-132057142D01*
X156027380Y-132200000D01*
X156027380Y-132438095D01*
X156408333Y-131533333D02*
X156360714Y-131485714D01*
X156217857Y-131390476D01*
X156122619Y-131342857D01*
X155979761Y-131295238D01*
X155741666Y-131247619D01*
X155551190Y-131247619D01*
X155313095Y-131295238D01*
X155170238Y-131342857D01*
X155075000Y-131390476D01*
X154932142Y-131485714D01*
X154884523Y-131533333D01*
X182395952Y-104592380D02*
X182062619Y-104116190D01*
X181824523Y-104592380D02*
X181824523Y-103592380D01*
X182205476Y-103592380D01*
X182300714Y-103640000D01*
X182348333Y-103687619D01*
X182395952Y-103782857D01*
X182395952Y-103925714D01*
X182348333Y-104020952D01*
X182300714Y-104068571D01*
X182205476Y-104116190D01*
X181824523Y-104116190D01*
X183348333Y-104592380D02*
X182776904Y-104592380D01*
X183062619Y-104592380D02*
X183062619Y-103592380D01*
X182967380Y-103735238D01*
X182872142Y-103830476D01*
X182776904Y-103878095D01*
X183729285Y-103687619D02*
X183776904Y-103640000D01*
X183872142Y-103592380D01*
X184110238Y-103592380D01*
X184205476Y-103640000D01*
X184253095Y-103687619D01*
X184300714Y-103782857D01*
X184300714Y-103878095D01*
X184253095Y-104020952D01*
X183681666Y-104592380D01*
X184300714Y-104592380D01*
X184634047Y-103592380D02*
X185253095Y-103592380D01*
X184919761Y-103973333D01*
X185062619Y-103973333D01*
X185157857Y-104020952D01*
X185205476Y-104068571D01*
X185253095Y-104163809D01*
X185253095Y-104401904D01*
X185205476Y-104497142D01*
X185157857Y-104544761D01*
X185062619Y-104592380D01*
X184776904Y-104592380D01*
X184681666Y-104544761D01*
X184634047Y-104497142D01*
X183967380Y-111244047D02*
X183967380Y-111815476D01*
X183967380Y-111529761D02*
X182967380Y-111529761D01*
X183110238Y-111625000D01*
X183205476Y-111720238D01*
X183253095Y-111815476D01*
X183967380Y-110815476D02*
X182967380Y-110815476D01*
X183586428Y-110720238D02*
X183967380Y-110434523D01*
X183300714Y-110434523D02*
X183681666Y-110815476D01*
X179220952Y-105862380D02*
X178887619Y-105386190D01*
X178649523Y-105862380D02*
X178649523Y-104862380D01*
X179030476Y-104862380D01*
X179125714Y-104910000D01*
X179173333Y-104957619D01*
X179220952Y-105052857D01*
X179220952Y-105195714D01*
X179173333Y-105290952D01*
X179125714Y-105338571D01*
X179030476Y-105386190D01*
X178649523Y-105386190D01*
X180173333Y-105862380D02*
X179601904Y-105862380D01*
X179887619Y-105862380D02*
X179887619Y-104862380D01*
X179792380Y-105005238D01*
X179697142Y-105100476D01*
X179601904Y-105148095D01*
X180554285Y-104957619D02*
X180601904Y-104910000D01*
X180697142Y-104862380D01*
X180935238Y-104862380D01*
X181030476Y-104910000D01*
X181078095Y-104957619D01*
X181125714Y-105052857D01*
X181125714Y-105148095D01*
X181078095Y-105290952D01*
X180506666Y-105862380D01*
X181125714Y-105862380D01*
X181506666Y-104957619D02*
X181554285Y-104910000D01*
X181649523Y-104862380D01*
X181887619Y-104862380D01*
X181982857Y-104910000D01*
X182030476Y-104957619D01*
X182078095Y-105052857D01*
X182078095Y-105148095D01*
X182030476Y-105290952D01*
X181459047Y-105862380D01*
X182078095Y-105862380D01*
X180792380Y-111244047D02*
X180792380Y-111815476D01*
X180792380Y-111529761D02*
X179792380Y-111529761D01*
X179935238Y-111625000D01*
X180030476Y-111720238D01*
X180078095Y-111815476D01*
X180792380Y-110815476D02*
X179792380Y-110815476D01*
X180411428Y-110720238D02*
X180792380Y-110434523D01*
X180125714Y-110434523D02*
X180506666Y-110815476D01*
X176045952Y-104592380D02*
X175712619Y-104116190D01*
X175474523Y-104592380D02*
X175474523Y-103592380D01*
X175855476Y-103592380D01*
X175950714Y-103640000D01*
X175998333Y-103687619D01*
X176045952Y-103782857D01*
X176045952Y-103925714D01*
X175998333Y-104020952D01*
X175950714Y-104068571D01*
X175855476Y-104116190D01*
X175474523Y-104116190D01*
X176998333Y-104592380D02*
X176426904Y-104592380D01*
X176712619Y-104592380D02*
X176712619Y-103592380D01*
X176617380Y-103735238D01*
X176522142Y-103830476D01*
X176426904Y-103878095D01*
X177379285Y-103687619D02*
X177426904Y-103640000D01*
X177522142Y-103592380D01*
X177760238Y-103592380D01*
X177855476Y-103640000D01*
X177903095Y-103687619D01*
X177950714Y-103782857D01*
X177950714Y-103878095D01*
X177903095Y-104020952D01*
X177331666Y-104592380D01*
X177950714Y-104592380D01*
X178903095Y-104592380D02*
X178331666Y-104592380D01*
X178617380Y-104592380D02*
X178617380Y-103592380D01*
X178522142Y-103735238D01*
X178426904Y-103830476D01*
X178331666Y-103878095D01*
X177617380Y-111244047D02*
X177617380Y-111815476D01*
X177617380Y-111529761D02*
X176617380Y-111529761D01*
X176760238Y-111625000D01*
X176855476Y-111720238D01*
X176903095Y-111815476D01*
X177617380Y-110815476D02*
X176617380Y-110815476D01*
X177236428Y-110720238D02*
X177617380Y-110434523D01*
X176950714Y-110434523D02*
X177331666Y-110815476D01*
X172870952Y-105862380D02*
X172537619Y-105386190D01*
X172299523Y-105862380D02*
X172299523Y-104862380D01*
X172680476Y-104862380D01*
X172775714Y-104910000D01*
X172823333Y-104957619D01*
X172870952Y-105052857D01*
X172870952Y-105195714D01*
X172823333Y-105290952D01*
X172775714Y-105338571D01*
X172680476Y-105386190D01*
X172299523Y-105386190D01*
X173823333Y-105862380D02*
X173251904Y-105862380D01*
X173537619Y-105862380D02*
X173537619Y-104862380D01*
X173442380Y-105005238D01*
X173347142Y-105100476D01*
X173251904Y-105148095D01*
X174204285Y-104957619D02*
X174251904Y-104910000D01*
X174347142Y-104862380D01*
X174585238Y-104862380D01*
X174680476Y-104910000D01*
X174728095Y-104957619D01*
X174775714Y-105052857D01*
X174775714Y-105148095D01*
X174728095Y-105290952D01*
X174156666Y-105862380D01*
X174775714Y-105862380D01*
X175394761Y-104862380D02*
X175490000Y-104862380D01*
X175585238Y-104910000D01*
X175632857Y-104957619D01*
X175680476Y-105052857D01*
X175728095Y-105243333D01*
X175728095Y-105481428D01*
X175680476Y-105671904D01*
X175632857Y-105767142D01*
X175585238Y-105814761D01*
X175490000Y-105862380D01*
X175394761Y-105862380D01*
X175299523Y-105814761D01*
X175251904Y-105767142D01*
X175204285Y-105671904D01*
X175156666Y-105481428D01*
X175156666Y-105243333D01*
X175204285Y-105052857D01*
X175251904Y-104957619D01*
X175299523Y-104910000D01*
X175394761Y-104862380D01*
X174442380Y-111720238D02*
X174442380Y-112291666D01*
X174442380Y-112005952D02*
X173442380Y-112005952D01*
X173585238Y-112101190D01*
X173680476Y-112196428D01*
X173728095Y-112291666D01*
X173442380Y-111101190D02*
X173442380Y-111005952D01*
X173490000Y-110910714D01*
X173537619Y-110863095D01*
X173632857Y-110815476D01*
X173823333Y-110767857D01*
X174061428Y-110767857D01*
X174251904Y-110815476D01*
X174347142Y-110863095D01*
X174394761Y-110910714D01*
X174442380Y-111005952D01*
X174442380Y-111101190D01*
X174394761Y-111196428D01*
X174347142Y-111244047D01*
X174251904Y-111291666D01*
X174061428Y-111339285D01*
X173823333Y-111339285D01*
X173632857Y-111291666D01*
X173537619Y-111244047D01*
X173490000Y-111196428D01*
X173442380Y-111101190D01*
X174442380Y-110339285D02*
X173442380Y-110339285D01*
X174061428Y-110244047D02*
X174442380Y-109958333D01*
X173775714Y-109958333D02*
X174156666Y-110339285D01*
X172870952Y-128722380D02*
X172537619Y-128246190D01*
X172299523Y-128722380D02*
X172299523Y-127722380D01*
X172680476Y-127722380D01*
X172775714Y-127770000D01*
X172823333Y-127817619D01*
X172870952Y-127912857D01*
X172870952Y-128055714D01*
X172823333Y-128150952D01*
X172775714Y-128198571D01*
X172680476Y-128246190D01*
X172299523Y-128246190D01*
X173823333Y-128722380D02*
X173251904Y-128722380D01*
X173537619Y-128722380D02*
X173537619Y-127722380D01*
X173442380Y-127865238D01*
X173347142Y-127960476D01*
X173251904Y-128008095D01*
X174775714Y-128722380D02*
X174204285Y-128722380D01*
X174490000Y-128722380D02*
X174490000Y-127722380D01*
X174394761Y-127865238D01*
X174299523Y-127960476D01*
X174204285Y-128008095D01*
X175251904Y-128722380D02*
X175442380Y-128722380D01*
X175537619Y-128674761D01*
X175585238Y-128627142D01*
X175680476Y-128484285D01*
X175728095Y-128293809D01*
X175728095Y-127912857D01*
X175680476Y-127817619D01*
X175632857Y-127770000D01*
X175537619Y-127722380D01*
X175347142Y-127722380D01*
X175251904Y-127770000D01*
X175204285Y-127817619D01*
X175156666Y-127912857D01*
X175156666Y-128150952D01*
X175204285Y-128246190D01*
X175251904Y-128293809D01*
X175347142Y-128341428D01*
X175537619Y-128341428D01*
X175632857Y-128293809D01*
X175680476Y-128246190D01*
X175728095Y-128150952D01*
X173537619Y-122451666D02*
X173490000Y-122404047D01*
X173442380Y-122308809D01*
X173442380Y-122070714D01*
X173490000Y-121975476D01*
X173537619Y-121927857D01*
X173632857Y-121880238D01*
X173728095Y-121880238D01*
X173870952Y-121927857D01*
X174442380Y-122499285D01*
X174442380Y-121880238D01*
X173537619Y-121499285D02*
X173490000Y-121451666D01*
X173442380Y-121356428D01*
X173442380Y-121118333D01*
X173490000Y-121023095D01*
X173537619Y-120975476D01*
X173632857Y-120927857D01*
X173728095Y-120927857D01*
X173870952Y-120975476D01*
X174442380Y-121546904D01*
X174442380Y-120927857D01*
X174442380Y-120499285D02*
X173442380Y-120499285D01*
X174061428Y-120404047D02*
X174442380Y-120118333D01*
X173775714Y-120118333D02*
X174156666Y-120499285D01*
X169695952Y-127452380D02*
X169362619Y-126976190D01*
X169124523Y-127452380D02*
X169124523Y-126452380D01*
X169505476Y-126452380D01*
X169600714Y-126500000D01*
X169648333Y-126547619D01*
X169695952Y-126642857D01*
X169695952Y-126785714D01*
X169648333Y-126880952D01*
X169600714Y-126928571D01*
X169505476Y-126976190D01*
X169124523Y-126976190D01*
X170648333Y-127452380D02*
X170076904Y-127452380D01*
X170362619Y-127452380D02*
X170362619Y-126452380D01*
X170267380Y-126595238D01*
X170172142Y-126690476D01*
X170076904Y-126738095D01*
X171600714Y-127452380D02*
X171029285Y-127452380D01*
X171315000Y-127452380D02*
X171315000Y-126452380D01*
X171219761Y-126595238D01*
X171124523Y-126690476D01*
X171029285Y-126738095D01*
X172172142Y-126880952D02*
X172076904Y-126833333D01*
X172029285Y-126785714D01*
X171981666Y-126690476D01*
X171981666Y-126642857D01*
X172029285Y-126547619D01*
X172076904Y-126500000D01*
X172172142Y-126452380D01*
X172362619Y-126452380D01*
X172457857Y-126500000D01*
X172505476Y-126547619D01*
X172553095Y-126642857D01*
X172553095Y-126690476D01*
X172505476Y-126785714D01*
X172457857Y-126833333D01*
X172362619Y-126880952D01*
X172172142Y-126880952D01*
X172076904Y-126928571D01*
X172029285Y-126976190D01*
X171981666Y-127071428D01*
X171981666Y-127261904D01*
X172029285Y-127357142D01*
X172076904Y-127404761D01*
X172172142Y-127452380D01*
X172362619Y-127452380D01*
X172457857Y-127404761D01*
X172505476Y-127357142D01*
X172553095Y-127261904D01*
X172553095Y-127071428D01*
X172505476Y-126976190D01*
X172457857Y-126928571D01*
X172362619Y-126880952D01*
X170362619Y-122451666D02*
X170315000Y-122404047D01*
X170267380Y-122308809D01*
X170267380Y-122070714D01*
X170315000Y-121975476D01*
X170362619Y-121927857D01*
X170457857Y-121880238D01*
X170553095Y-121880238D01*
X170695952Y-121927857D01*
X171267380Y-122499285D01*
X171267380Y-121880238D01*
X170362619Y-121499285D02*
X170315000Y-121451666D01*
X170267380Y-121356428D01*
X170267380Y-121118333D01*
X170315000Y-121023095D01*
X170362619Y-120975476D01*
X170457857Y-120927857D01*
X170553095Y-120927857D01*
X170695952Y-120975476D01*
X171267380Y-121546904D01*
X171267380Y-120927857D01*
X171267380Y-120499285D02*
X170267380Y-120499285D01*
X170886428Y-120404047D02*
X171267380Y-120118333D01*
X170600714Y-120118333D02*
X170981666Y-120499285D01*
X169695952Y-104592380D02*
X169362619Y-104116190D01*
X169124523Y-104592380D02*
X169124523Y-103592380D01*
X169505476Y-103592380D01*
X169600714Y-103640000D01*
X169648333Y-103687619D01*
X169695952Y-103782857D01*
X169695952Y-103925714D01*
X169648333Y-104020952D01*
X169600714Y-104068571D01*
X169505476Y-104116190D01*
X169124523Y-104116190D01*
X170648333Y-104592380D02*
X170076904Y-104592380D01*
X170362619Y-104592380D02*
X170362619Y-103592380D01*
X170267380Y-103735238D01*
X170172142Y-103830476D01*
X170076904Y-103878095D01*
X171600714Y-104592380D02*
X171029285Y-104592380D01*
X171315000Y-104592380D02*
X171315000Y-103592380D01*
X171219761Y-103735238D01*
X171124523Y-103830476D01*
X171029285Y-103878095D01*
X171934047Y-103592380D02*
X172600714Y-103592380D01*
X172172142Y-104592380D01*
X171267380Y-111720238D02*
X171267380Y-112291666D01*
X171267380Y-112005952D02*
X170267380Y-112005952D01*
X170410238Y-112101190D01*
X170505476Y-112196428D01*
X170553095Y-112291666D01*
X170267380Y-111101190D02*
X170267380Y-111005952D01*
X170315000Y-110910714D01*
X170362619Y-110863095D01*
X170457857Y-110815476D01*
X170648333Y-110767857D01*
X170886428Y-110767857D01*
X171076904Y-110815476D01*
X171172142Y-110863095D01*
X171219761Y-110910714D01*
X171267380Y-111005952D01*
X171267380Y-111101190D01*
X171219761Y-111196428D01*
X171172142Y-111244047D01*
X171076904Y-111291666D01*
X170886428Y-111339285D01*
X170648333Y-111339285D01*
X170457857Y-111291666D01*
X170362619Y-111244047D01*
X170315000Y-111196428D01*
X170267380Y-111101190D01*
X171267380Y-110339285D02*
X170267380Y-110339285D01*
X170886428Y-110244047D02*
X171267380Y-109958333D01*
X170600714Y-109958333D02*
X170981666Y-110339285D01*
X182395952Y-127452380D02*
X182062619Y-126976190D01*
X181824523Y-127452380D02*
X181824523Y-126452380D01*
X182205476Y-126452380D01*
X182300714Y-126500000D01*
X182348333Y-126547619D01*
X182395952Y-126642857D01*
X182395952Y-126785714D01*
X182348333Y-126880952D01*
X182300714Y-126928571D01*
X182205476Y-126976190D01*
X181824523Y-126976190D01*
X183348333Y-127452380D02*
X182776904Y-127452380D01*
X183062619Y-127452380D02*
X183062619Y-126452380D01*
X182967380Y-126595238D01*
X182872142Y-126690476D01*
X182776904Y-126738095D01*
X184300714Y-127452380D02*
X183729285Y-127452380D01*
X184015000Y-127452380D02*
X184015000Y-126452380D01*
X183919761Y-126595238D01*
X183824523Y-126690476D01*
X183729285Y-126738095D01*
X185157857Y-126452380D02*
X184967380Y-126452380D01*
X184872142Y-126500000D01*
X184824523Y-126547619D01*
X184729285Y-126690476D01*
X184681666Y-126880952D01*
X184681666Y-127261904D01*
X184729285Y-127357142D01*
X184776904Y-127404761D01*
X184872142Y-127452380D01*
X185062619Y-127452380D01*
X185157857Y-127404761D01*
X185205476Y-127357142D01*
X185253095Y-127261904D01*
X185253095Y-127023809D01*
X185205476Y-126928571D01*
X185157857Y-126880952D01*
X185062619Y-126833333D01*
X184872142Y-126833333D01*
X184776904Y-126880952D01*
X184729285Y-126928571D01*
X184681666Y-127023809D01*
X183967380Y-121880238D02*
X183967380Y-122451666D01*
X183967380Y-122165952D02*
X182967380Y-122165952D01*
X183110238Y-122261190D01*
X183205476Y-122356428D01*
X183253095Y-122451666D01*
X182967380Y-121261190D02*
X182967380Y-121165952D01*
X183015000Y-121070714D01*
X183062619Y-121023095D01*
X183157857Y-120975476D01*
X183348333Y-120927857D01*
X183586428Y-120927857D01*
X183776904Y-120975476D01*
X183872142Y-121023095D01*
X183919761Y-121070714D01*
X183967380Y-121165952D01*
X183967380Y-121261190D01*
X183919761Y-121356428D01*
X183872142Y-121404047D01*
X183776904Y-121451666D01*
X183586428Y-121499285D01*
X183348333Y-121499285D01*
X183157857Y-121451666D01*
X183062619Y-121404047D01*
X183015000Y-121356428D01*
X182967380Y-121261190D01*
X183967380Y-120499285D02*
X182967380Y-120499285D01*
X183586428Y-120404047D02*
X183967380Y-120118333D01*
X183300714Y-120118333D02*
X183681666Y-120499285D01*
X179220952Y-128722380D02*
X178887619Y-128246190D01*
X178649523Y-128722380D02*
X178649523Y-127722380D01*
X179030476Y-127722380D01*
X179125714Y-127770000D01*
X179173333Y-127817619D01*
X179220952Y-127912857D01*
X179220952Y-128055714D01*
X179173333Y-128150952D01*
X179125714Y-128198571D01*
X179030476Y-128246190D01*
X178649523Y-128246190D01*
X180173333Y-128722380D02*
X179601904Y-128722380D01*
X179887619Y-128722380D02*
X179887619Y-127722380D01*
X179792380Y-127865238D01*
X179697142Y-127960476D01*
X179601904Y-128008095D01*
X181125714Y-128722380D02*
X180554285Y-128722380D01*
X180840000Y-128722380D02*
X180840000Y-127722380D01*
X180744761Y-127865238D01*
X180649523Y-127960476D01*
X180554285Y-128008095D01*
X182030476Y-127722380D02*
X181554285Y-127722380D01*
X181506666Y-128198571D01*
X181554285Y-128150952D01*
X181649523Y-128103333D01*
X181887619Y-128103333D01*
X181982857Y-128150952D01*
X182030476Y-128198571D01*
X182078095Y-128293809D01*
X182078095Y-128531904D01*
X182030476Y-128627142D01*
X181982857Y-128674761D01*
X181887619Y-128722380D01*
X181649523Y-128722380D01*
X181554285Y-128674761D01*
X181506666Y-128627142D01*
X180792380Y-121880238D02*
X180792380Y-122451666D01*
X180792380Y-122165952D02*
X179792380Y-122165952D01*
X179935238Y-122261190D01*
X180030476Y-122356428D01*
X180078095Y-122451666D01*
X179792380Y-121261190D02*
X179792380Y-121165952D01*
X179840000Y-121070714D01*
X179887619Y-121023095D01*
X179982857Y-120975476D01*
X180173333Y-120927857D01*
X180411428Y-120927857D01*
X180601904Y-120975476D01*
X180697142Y-121023095D01*
X180744761Y-121070714D01*
X180792380Y-121165952D01*
X180792380Y-121261190D01*
X180744761Y-121356428D01*
X180697142Y-121404047D01*
X180601904Y-121451666D01*
X180411428Y-121499285D01*
X180173333Y-121499285D01*
X179982857Y-121451666D01*
X179887619Y-121404047D01*
X179840000Y-121356428D01*
X179792380Y-121261190D01*
X180792380Y-120499285D02*
X179792380Y-120499285D01*
X180411428Y-120404047D02*
X180792380Y-120118333D01*
X180125714Y-120118333D02*
X180506666Y-120499285D01*
X176045952Y-127452380D02*
X175712619Y-126976190D01*
X175474523Y-127452380D02*
X175474523Y-126452380D01*
X175855476Y-126452380D01*
X175950714Y-126500000D01*
X175998333Y-126547619D01*
X176045952Y-126642857D01*
X176045952Y-126785714D01*
X175998333Y-126880952D01*
X175950714Y-126928571D01*
X175855476Y-126976190D01*
X175474523Y-126976190D01*
X176998333Y-127452380D02*
X176426904Y-127452380D01*
X176712619Y-127452380D02*
X176712619Y-126452380D01*
X176617380Y-126595238D01*
X176522142Y-126690476D01*
X176426904Y-126738095D01*
X177950714Y-127452380D02*
X177379285Y-127452380D01*
X177665000Y-127452380D02*
X177665000Y-126452380D01*
X177569761Y-126595238D01*
X177474523Y-126690476D01*
X177379285Y-126738095D01*
X178807857Y-126785714D02*
X178807857Y-127452380D01*
X178569761Y-126404761D02*
X178331666Y-127119047D01*
X178950714Y-127119047D01*
X177617380Y-121880238D02*
X177617380Y-122451666D01*
X177617380Y-122165952D02*
X176617380Y-122165952D01*
X176760238Y-122261190D01*
X176855476Y-122356428D01*
X176903095Y-122451666D01*
X176617380Y-121261190D02*
X176617380Y-121165952D01*
X176665000Y-121070714D01*
X176712619Y-121023095D01*
X176807857Y-120975476D01*
X176998333Y-120927857D01*
X177236428Y-120927857D01*
X177426904Y-120975476D01*
X177522142Y-121023095D01*
X177569761Y-121070714D01*
X177617380Y-121165952D01*
X177617380Y-121261190D01*
X177569761Y-121356428D01*
X177522142Y-121404047D01*
X177426904Y-121451666D01*
X177236428Y-121499285D01*
X176998333Y-121499285D01*
X176807857Y-121451666D01*
X176712619Y-121404047D01*
X176665000Y-121356428D01*
X176617380Y-121261190D01*
X177617380Y-120499285D02*
X176617380Y-120499285D01*
X177236428Y-120404047D02*
X177617380Y-120118333D01*
X176950714Y-120118333D02*
X177331666Y-120499285D01*
X211812142Y-140461666D02*
X211859761Y-140509285D01*
X211907380Y-140652142D01*
X211907380Y-140747380D01*
X211859761Y-140890238D01*
X211764523Y-140985476D01*
X211669285Y-141033095D01*
X211478809Y-141080714D01*
X211335952Y-141080714D01*
X211145476Y-141033095D01*
X211050238Y-140985476D01*
X210955000Y-140890238D01*
X210907380Y-140747380D01*
X210907380Y-140652142D01*
X210955000Y-140509285D01*
X211002619Y-140461666D01*
X211002619Y-140080714D02*
X210955000Y-140033095D01*
X210907380Y-139937857D01*
X210907380Y-139699761D01*
X210955000Y-139604523D01*
X211002619Y-139556904D01*
X211097857Y-139509285D01*
X211193095Y-139509285D01*
X211335952Y-139556904D01*
X211907380Y-140128333D01*
X211907380Y-139509285D01*
M02*
