M48
INCH,TZ
T1C0.0157
T2C0.0276
T3C0.0295
T4C0.0315
T5C0.0433
T6C0.0551
%
G90
G05
T1
X65400Y-45000
X65850Y-45300
X65850Y-61550
X68500Y-57350
X70050Y-61050
X70550Y-60500
X71550Y-46750
X71600Y-60100
X72250Y-49950
X73469Y-53281
X73750Y-52750
X74000Y-51350
X74650Y-56200
X74750Y-58100
X74800Y-49550
X75500Y-52200
X75650Y-59200
X76000Y-53000
X76450Y-58100
X76500Y-51900
X76500Y-58700
X76500Y-61550
X76600Y-45350
X77150Y-61550
X77500Y-51600
X77500Y-59700
X77600Y-58350
X77900Y-50050
X78050Y-61600
X78546Y-51046
X78800Y-57545
X79100Y-44950
X79500Y-61550
X80000Y-53061
X80100Y-59700
X80500Y-50800
X80500Y-58100
X81000Y-57800
X81500Y-50550
X81750Y-61550
X82450Y-59200
X82500Y-50300
X82787Y-58637
X83000Y-51355
X83500Y-49800
X83500Y-61550
X84000Y-52300
X84000Y-57450
X84500Y-52800
X84500Y-57800
X85000Y-56450
X85550Y-58300
X86000Y-55900
X86050Y-61550
X86450Y-55650
X86700Y-44850
X86950Y-61550
X86950Y-56200
X87150Y-53400
X87250Y-52500
X87650Y-52800
X92950Y-62450
X94000Y-62450
X95018Y-62432
X96000Y-62450
X97500Y-61350
T2
X73750Y-57250
X74250Y-56750
X74750Y-57250
T3
X90000Y-44000
X90500Y-43500
X90500Y-44500
T4
X61750Y-50000
X61750Y-56000
X64750Y-50000
X64750Y-56000
X67000Y-47750
X67000Y-49000
X67000Y-53750
X67000Y-55000
X68000Y-47750
X68000Y-49000
X68000Y-53750
X68000Y-55000
X69000Y-44250
X69000Y-45750
X69000Y-47750
X69000Y-49000
X69000Y-53750
X69000Y-55000
X69250Y-58000
X70000Y-47750
X70000Y-49000
X70000Y-53750
X70000Y-55000
X71000Y-47750
X71000Y-49000
X71000Y-53750
X71000Y-55000
X71016Y-56500
X72000Y-47750
X72000Y-49000
X72000Y-53750
X72000Y-55000
X72000Y-56500
X72250Y-58000
X73000Y-47750
X73000Y-49000
X73000Y-53750
X73000Y-55000
X74000Y-44250
X74000Y-45750
X74000Y-47750
X74000Y-49000
X74000Y-53750
X74000Y-55000
X75000Y-47750
X75000Y-49000
X75000Y-53750
X75000Y-55000
X76000Y-43000
X76000Y-46000
X76000Y-47750
X76000Y-49000
X76000Y-53750
X76000Y-55000
X77000Y-47750
X77000Y-49000
X77000Y-53750
X77000Y-55000
X77250Y-43000
X77250Y-46000
X78000Y-47750
X78000Y-49000
X78000Y-53750
X78000Y-55000
X78500Y-43000
X78500Y-46000
X78750Y-57000
X79000Y-47750
X79000Y-49000
X79000Y-53750
X79000Y-55000
X79750Y-43000
X79750Y-46000
X80000Y-47750
X80000Y-49000
X80000Y-53750
X80000Y-55000
X81000Y-43000
X81000Y-46000
X81000Y-47750
X81000Y-49000
X81000Y-53750
X81000Y-55000
X81750Y-57000
X82000Y-47750
X82000Y-49000
X82000Y-53750
X82000Y-55000
X82250Y-43000
X82250Y-46000
X83000Y-47750
X83000Y-49000
X83000Y-53750
X83000Y-55000
X83500Y-43000
X83500Y-46000
X84000Y-47750
X84000Y-49000
X84000Y-53750
X84000Y-55000
X84750Y-43000
X84750Y-46000
X85000Y-47750
X85000Y-49000
X85000Y-53750
X85000Y-55000
X86000Y-43000
X86000Y-46000
X86000Y-47750
X86000Y-49000
X86000Y-53750
X86000Y-55000
X87250Y-43000
X87250Y-46000
X87750Y-47916
X87750Y-48900
X88500Y-43000
X88500Y-46000
X89750Y-46000
X89750Y-49000
X91000Y-46000
X91000Y-49000
X92750Y-41516
X92750Y-42500
X94500Y-41516
X94500Y-42500
X96250Y-41516
X96250Y-42500
T5
X93031Y-48500
X94016Y-46531
X94016Y-50469
X95000Y-45547
X95000Y-48500
X95000Y-51453
T6
X98937Y-47516
X98937Y-49484
T0
M30
