G04 #@! TF.GenerationSoftware,KiCad,Pcbnew,(5.1.12)-1*
G04 #@! TF.CreationDate,2024-01-30T17:11:01+00:00*
G04 #@! TF.ProjectId,CPCVideo,43504356-6964-4656-9f2e-6b696361645f,rev?*
G04 #@! TF.SameCoordinates,Original*
G04 #@! TF.FileFunction,Legend,Top*
G04 #@! TF.FilePolarity,Positive*
%FSLAX46Y46*%
G04 Gerber Fmt 4.6, Leading zero omitted, Abs format (unit mm)*
G04 Created by KiCad (PCBNEW (5.1.12)-1) date 2024-01-30 17:11:01*
%MOMM*%
%LPD*%
G01*
G04 APERTURE LIST*
%ADD10C,0.150000*%
%ADD11C,0.250000*%
%ADD12C,0.200000*%
%ADD13C,0.120000*%
G04 APERTURE END LIST*
D10*
X251912380Y-143033571D02*
X251436190Y-143366904D01*
X251912380Y-143605000D02*
X250912380Y-143605000D01*
X250912380Y-143224047D01*
X250960000Y-143128809D01*
X251007619Y-143081190D01*
X251102857Y-143033571D01*
X251245714Y-143033571D01*
X251340952Y-143081190D01*
X251388571Y-143128809D01*
X251436190Y-143224047D01*
X251436190Y-143605000D01*
X251388571Y-142605000D02*
X251388571Y-142271666D01*
X251912380Y-142128809D02*
X251912380Y-142605000D01*
X250912380Y-142605000D01*
X250912380Y-142128809D01*
X250912380Y-141843095D02*
X251912380Y-141509761D01*
X250912380Y-141176428D01*
X251912380Y-139557380D02*
X251912380Y-140128809D01*
X251912380Y-139843095D02*
X250912380Y-139843095D01*
X251055238Y-139938333D01*
X251150476Y-140033571D01*
X251198095Y-140128809D01*
X229077142Y-138565476D02*
X228981904Y-138517857D01*
X228791428Y-138517857D01*
X228696190Y-138565476D01*
X228600952Y-138660714D01*
X228553333Y-138755952D01*
X228553333Y-138946428D01*
X228600952Y-139041666D01*
X228696190Y-139136904D01*
X228791428Y-139184523D01*
X228981904Y-139184523D01*
X229077142Y-139136904D01*
X228886666Y-138184523D02*
X228648571Y-138232142D01*
X228410476Y-138375000D01*
X228267619Y-138613095D01*
X228220000Y-138851190D01*
X228267619Y-139089285D01*
X228410476Y-139327380D01*
X228648571Y-139470238D01*
X228886666Y-139517857D01*
X229124761Y-139470238D01*
X229362857Y-139327380D01*
X229505714Y-139089285D01*
X229553333Y-138851190D01*
X229505714Y-138613095D01*
X229362857Y-138375000D01*
X229124761Y-138232142D01*
X228886666Y-138184523D01*
X230743809Y-139327380D02*
X230743809Y-138327380D01*
X231077142Y-139041666D01*
X231410476Y-138327380D01*
X231410476Y-139327380D01*
X231886666Y-139327380D02*
X231886666Y-138660714D01*
X231886666Y-138327380D02*
X231839047Y-138375000D01*
X231886666Y-138422619D01*
X231934285Y-138375000D01*
X231886666Y-138327380D01*
X231886666Y-138422619D01*
X232362857Y-139327380D02*
X232362857Y-138327380D01*
X232458095Y-138946428D02*
X232743809Y-139327380D01*
X232743809Y-138660714D02*
X232362857Y-139041666D01*
X233553333Y-139279761D02*
X233458095Y-139327380D01*
X233267619Y-139327380D01*
X233172380Y-139279761D01*
X233124761Y-139184523D01*
X233124761Y-138803571D01*
X233172380Y-138708333D01*
X233267619Y-138660714D01*
X233458095Y-138660714D01*
X233553333Y-138708333D01*
X233600952Y-138803571D01*
X233600952Y-138898809D01*
X233124761Y-138994047D01*
X234743809Y-139279761D02*
X234886666Y-139327380D01*
X235124761Y-139327380D01*
X235220000Y-139279761D01*
X235267619Y-139232142D01*
X235315238Y-139136904D01*
X235315238Y-139041666D01*
X235267619Y-138946428D01*
X235220000Y-138898809D01*
X235124761Y-138851190D01*
X234934285Y-138803571D01*
X234839047Y-138755952D01*
X234791428Y-138708333D01*
X234743809Y-138613095D01*
X234743809Y-138517857D01*
X234791428Y-138422619D01*
X234839047Y-138375000D01*
X234934285Y-138327380D01*
X235172380Y-138327380D01*
X235315238Y-138375000D01*
X236172380Y-138660714D02*
X236172380Y-139327380D01*
X235743809Y-138660714D02*
X235743809Y-139184523D01*
X235791428Y-139279761D01*
X235886666Y-139327380D01*
X236029523Y-139327380D01*
X236124761Y-139279761D01*
X236172380Y-139232142D01*
X236505714Y-138660714D02*
X236886666Y-138660714D01*
X236648571Y-138327380D02*
X236648571Y-139184523D01*
X236696190Y-139279761D01*
X236791428Y-139327380D01*
X236886666Y-139327380D01*
X237077142Y-138660714D02*
X237458095Y-138660714D01*
X237220000Y-138327380D02*
X237220000Y-139184523D01*
X237267619Y-139279761D01*
X237362857Y-139327380D01*
X237458095Y-139327380D01*
X237934285Y-139327380D02*
X237839047Y-139279761D01*
X237791428Y-139232142D01*
X237743809Y-139136904D01*
X237743809Y-138851190D01*
X237791428Y-138755952D01*
X237839047Y-138708333D01*
X237934285Y-138660714D01*
X238077142Y-138660714D01*
X238172380Y-138708333D01*
X238220000Y-138755952D01*
X238267619Y-138851190D01*
X238267619Y-139136904D01*
X238220000Y-139232142D01*
X238172380Y-139279761D01*
X238077142Y-139327380D01*
X237934285Y-139327380D01*
X238696190Y-138660714D02*
X238696190Y-139327380D01*
X238696190Y-138755952D02*
X238743809Y-138708333D01*
X238839047Y-138660714D01*
X238981904Y-138660714D01*
X239077142Y-138708333D01*
X239124761Y-138803571D01*
X239124761Y-139327380D01*
X239648571Y-139279761D02*
X239648571Y-139327380D01*
X239600952Y-139422619D01*
X239553333Y-139470238D01*
X240791428Y-138422619D02*
X240839047Y-138375000D01*
X240934285Y-138327380D01*
X241172380Y-138327380D01*
X241267619Y-138375000D01*
X241315238Y-138422619D01*
X241362857Y-138517857D01*
X241362857Y-138613095D01*
X241315238Y-138755952D01*
X240743809Y-139327380D01*
X241362857Y-139327380D01*
X241981904Y-138327380D02*
X242077142Y-138327380D01*
X242172380Y-138375000D01*
X242220000Y-138422619D01*
X242267619Y-138517857D01*
X242315238Y-138708333D01*
X242315238Y-138946428D01*
X242267619Y-139136904D01*
X242220000Y-139232142D01*
X242172380Y-139279761D01*
X242077142Y-139327380D01*
X241981904Y-139327380D01*
X241886666Y-139279761D01*
X241839047Y-139232142D01*
X241791428Y-139136904D01*
X241743809Y-138946428D01*
X241743809Y-138708333D01*
X241791428Y-138517857D01*
X241839047Y-138422619D01*
X241886666Y-138375000D01*
X241981904Y-138327380D01*
X242696190Y-138422619D02*
X242743809Y-138375000D01*
X242839047Y-138327380D01*
X243077142Y-138327380D01*
X243172380Y-138375000D01*
X243220000Y-138422619D01*
X243267619Y-138517857D01*
X243267619Y-138613095D01*
X243220000Y-138755952D01*
X242648571Y-139327380D01*
X243267619Y-139327380D01*
X244124761Y-138660714D02*
X244124761Y-139327380D01*
X243886666Y-138279761D02*
X243648571Y-138994047D01*
X244267619Y-138994047D01*
X231910476Y-140453571D02*
X232053333Y-140501190D01*
X232100952Y-140548809D01*
X232148571Y-140644047D01*
X232148571Y-140786904D01*
X232100952Y-140882142D01*
X232053333Y-140929761D01*
X231958095Y-140977380D01*
X231577142Y-140977380D01*
X231577142Y-139977380D01*
X231910476Y-139977380D01*
X232005714Y-140025000D01*
X232053333Y-140072619D01*
X232100952Y-140167857D01*
X232100952Y-140263095D01*
X232053333Y-140358333D01*
X232005714Y-140405952D01*
X231910476Y-140453571D01*
X231577142Y-140453571D01*
X232577142Y-140977380D02*
X232577142Y-140310714D01*
X232577142Y-140501190D02*
X232624761Y-140405952D01*
X232672380Y-140358333D01*
X232767619Y-140310714D01*
X232862857Y-140310714D01*
X233577142Y-140929761D02*
X233481904Y-140977380D01*
X233291428Y-140977380D01*
X233196190Y-140929761D01*
X233148571Y-140834523D01*
X233148571Y-140453571D01*
X233196190Y-140358333D01*
X233291428Y-140310714D01*
X233481904Y-140310714D01*
X233577142Y-140358333D01*
X233624761Y-140453571D01*
X233624761Y-140548809D01*
X233148571Y-140644047D01*
X234481904Y-140977380D02*
X234481904Y-140453571D01*
X234434285Y-140358333D01*
X234339047Y-140310714D01*
X234148571Y-140310714D01*
X234053333Y-140358333D01*
X234481904Y-140929761D02*
X234386666Y-140977380D01*
X234148571Y-140977380D01*
X234053333Y-140929761D01*
X234005714Y-140834523D01*
X234005714Y-140739285D01*
X234053333Y-140644047D01*
X234148571Y-140596428D01*
X234386666Y-140596428D01*
X234481904Y-140548809D01*
X235386666Y-140977380D02*
X235386666Y-139977380D01*
X235386666Y-140929761D02*
X235291428Y-140977380D01*
X235100952Y-140977380D01*
X235005714Y-140929761D01*
X234958095Y-140882142D01*
X234910476Y-140786904D01*
X234910476Y-140501190D01*
X234958095Y-140405952D01*
X235005714Y-140358333D01*
X235100952Y-140310714D01*
X235291428Y-140310714D01*
X235386666Y-140358333D01*
X236005714Y-140405952D02*
X235910476Y-140358333D01*
X235862857Y-140310714D01*
X235815238Y-140215476D01*
X235815238Y-140167857D01*
X235862857Y-140072619D01*
X235910476Y-140025000D01*
X236005714Y-139977380D01*
X236196190Y-139977380D01*
X236291428Y-140025000D01*
X236339047Y-140072619D01*
X236386666Y-140167857D01*
X236386666Y-140215476D01*
X236339047Y-140310714D01*
X236291428Y-140358333D01*
X236196190Y-140405952D01*
X236005714Y-140405952D01*
X235910476Y-140453571D01*
X235862857Y-140501190D01*
X235815238Y-140596428D01*
X235815238Y-140786904D01*
X235862857Y-140882142D01*
X235910476Y-140929761D01*
X236005714Y-140977380D01*
X236196190Y-140977380D01*
X236291428Y-140929761D01*
X236339047Y-140882142D01*
X236386666Y-140786904D01*
X236386666Y-140596428D01*
X236339047Y-140501190D01*
X236291428Y-140453571D01*
X236196190Y-140405952D01*
X237005714Y-139977380D02*
X237100952Y-139977380D01*
X237196190Y-140025000D01*
X237243809Y-140072619D01*
X237291428Y-140167857D01*
X237339047Y-140358333D01*
X237339047Y-140596428D01*
X237291428Y-140786904D01*
X237243809Y-140882142D01*
X237196190Y-140929761D01*
X237100952Y-140977380D01*
X237005714Y-140977380D01*
X236910476Y-140929761D01*
X236862857Y-140882142D01*
X236815238Y-140786904D01*
X236767619Y-140596428D01*
X236767619Y-140358333D01*
X236815238Y-140167857D01*
X236862857Y-140072619D01*
X236910476Y-140025000D01*
X237005714Y-139977380D01*
X237767619Y-140882142D02*
X237815238Y-140929761D01*
X237767619Y-140977380D01*
X237720000Y-140929761D01*
X237767619Y-140882142D01*
X237767619Y-140977380D01*
X238672380Y-140929761D02*
X238577142Y-140977380D01*
X238386666Y-140977380D01*
X238291428Y-140929761D01*
X238243809Y-140882142D01*
X238196190Y-140786904D01*
X238196190Y-140501190D01*
X238243809Y-140405952D01*
X238291428Y-140358333D01*
X238386666Y-140310714D01*
X238577142Y-140310714D01*
X238672380Y-140358333D01*
X239243809Y-140977380D02*
X239148571Y-140929761D01*
X239100952Y-140882142D01*
X239053333Y-140786904D01*
X239053333Y-140501190D01*
X239100952Y-140405952D01*
X239148571Y-140358333D01*
X239243809Y-140310714D01*
X239386666Y-140310714D01*
X239481904Y-140358333D01*
X239529523Y-140405952D01*
X239577142Y-140501190D01*
X239577142Y-140786904D01*
X239529523Y-140882142D01*
X239481904Y-140929761D01*
X239386666Y-140977380D01*
X239243809Y-140977380D01*
X240005714Y-140977380D02*
X240005714Y-140310714D01*
X240005714Y-140405952D02*
X240053333Y-140358333D01*
X240148571Y-140310714D01*
X240291428Y-140310714D01*
X240386666Y-140358333D01*
X240434285Y-140453571D01*
X240434285Y-140977380D01*
X240434285Y-140453571D02*
X240481904Y-140358333D01*
X240577142Y-140310714D01*
X240720000Y-140310714D01*
X240815238Y-140358333D01*
X240862857Y-140453571D01*
X240862857Y-140977380D01*
D11*
X223398571Y-135703571D02*
X223898571Y-137203571D01*
X224398571Y-135703571D01*
X224898571Y-137203571D02*
X224898571Y-136203571D01*
X224898571Y-135703571D02*
X224827142Y-135775000D01*
X224898571Y-135846428D01*
X224970000Y-135775000D01*
X224898571Y-135703571D01*
X224898571Y-135846428D01*
X226255714Y-137203571D02*
X226255714Y-135703571D01*
X226255714Y-137132142D02*
X226112857Y-137203571D01*
X225827142Y-137203571D01*
X225684285Y-137132142D01*
X225612857Y-137060714D01*
X225541428Y-136917857D01*
X225541428Y-136489285D01*
X225612857Y-136346428D01*
X225684285Y-136275000D01*
X225827142Y-136203571D01*
X226112857Y-136203571D01*
X226255714Y-136275000D01*
X227541428Y-137132142D02*
X227398571Y-137203571D01*
X227112857Y-137203571D01*
X226970000Y-137132142D01*
X226898571Y-136989285D01*
X226898571Y-136417857D01*
X226970000Y-136275000D01*
X227112857Y-136203571D01*
X227398571Y-136203571D01*
X227541428Y-136275000D01*
X227612857Y-136417857D01*
X227612857Y-136560714D01*
X226898571Y-136703571D01*
X228470000Y-137203571D02*
X228327142Y-137132142D01*
X228255714Y-137060714D01*
X228184285Y-136917857D01*
X228184285Y-136489285D01*
X228255714Y-136346428D01*
X228327142Y-136275000D01*
X228470000Y-136203571D01*
X228684285Y-136203571D01*
X228827142Y-136275000D01*
X228898571Y-136346428D01*
X228970000Y-136489285D01*
X228970000Y-136917857D01*
X228898571Y-137060714D01*
X228827142Y-137132142D01*
X228684285Y-137203571D01*
X228470000Y-137203571D01*
X230541428Y-136203571D02*
X231112857Y-136203571D01*
X230755714Y-137203571D02*
X230755714Y-135917857D01*
X230827142Y-135775000D01*
X230970000Y-135703571D01*
X231112857Y-135703571D01*
X231827142Y-137203571D02*
X231684285Y-137132142D01*
X231612857Y-137060714D01*
X231541428Y-136917857D01*
X231541428Y-136489285D01*
X231612857Y-136346428D01*
X231684285Y-136275000D01*
X231827142Y-136203571D01*
X232041428Y-136203571D01*
X232184285Y-136275000D01*
X232255714Y-136346428D01*
X232327142Y-136489285D01*
X232327142Y-136917857D01*
X232255714Y-137060714D01*
X232184285Y-137132142D01*
X232041428Y-137203571D01*
X231827142Y-137203571D01*
X232970000Y-137203571D02*
X232970000Y-136203571D01*
X232970000Y-136489285D02*
X233041428Y-136346428D01*
X233112857Y-136275000D01*
X233255714Y-136203571D01*
X233398571Y-136203571D01*
X235898571Y-137060714D02*
X235827142Y-137132142D01*
X235612857Y-137203571D01*
X235470000Y-137203571D01*
X235255714Y-137132142D01*
X235112857Y-136989285D01*
X235041428Y-136846428D01*
X234970000Y-136560714D01*
X234970000Y-136346428D01*
X235041428Y-136060714D01*
X235112857Y-135917857D01*
X235255714Y-135775000D01*
X235470000Y-135703571D01*
X235612857Y-135703571D01*
X235827142Y-135775000D01*
X235898571Y-135846428D01*
X236541428Y-137203571D02*
X236541428Y-135703571D01*
X237112857Y-135703571D01*
X237255714Y-135775000D01*
X237327142Y-135846428D01*
X237398571Y-135989285D01*
X237398571Y-136203571D01*
X237327142Y-136346428D01*
X237255714Y-136417857D01*
X237112857Y-136489285D01*
X236541428Y-136489285D01*
X238898571Y-137060714D02*
X238827142Y-137132142D01*
X238612857Y-137203571D01*
X238470000Y-137203571D01*
X238255714Y-137132142D01*
X238112857Y-136989285D01*
X238041428Y-136846428D01*
X237970000Y-136560714D01*
X237970000Y-136346428D01*
X238041428Y-136060714D01*
X238112857Y-135917857D01*
X238255714Y-135775000D01*
X238470000Y-135703571D01*
X238612857Y-135703571D01*
X238827142Y-135775000D01*
X238898571Y-135846428D01*
X240684285Y-137203571D02*
X240684285Y-135703571D01*
X241184285Y-136775000D01*
X241684285Y-135703571D01*
X241684285Y-137203571D01*
X242612857Y-137203571D02*
X242470000Y-137132142D01*
X242398571Y-137060714D01*
X242327142Y-136917857D01*
X242327142Y-136489285D01*
X242398571Y-136346428D01*
X242470000Y-136275000D01*
X242612857Y-136203571D01*
X242827142Y-136203571D01*
X242970000Y-136275000D01*
X243041428Y-136346428D01*
X243112857Y-136489285D01*
X243112857Y-136917857D01*
X243041428Y-137060714D01*
X242970000Y-137132142D01*
X242827142Y-137203571D01*
X242612857Y-137203571D01*
X244398571Y-137203571D02*
X244398571Y-135703571D01*
X244398571Y-137132142D02*
X244255714Y-137203571D01*
X243970000Y-137203571D01*
X243827142Y-137132142D01*
X243755714Y-137060714D01*
X243684285Y-136917857D01*
X243684285Y-136489285D01*
X243755714Y-136346428D01*
X243827142Y-136275000D01*
X243970000Y-136203571D01*
X244255714Y-136203571D01*
X244398571Y-136275000D01*
X245755714Y-136203571D02*
X245755714Y-137203571D01*
X245112857Y-136203571D02*
X245112857Y-136989285D01*
X245184285Y-137132142D01*
X245327142Y-137203571D01*
X245541428Y-137203571D01*
X245684285Y-137132142D01*
X245755714Y-137060714D01*
X246684285Y-137203571D02*
X246541428Y-137132142D01*
X246470000Y-136989285D01*
X246470000Y-135703571D01*
X247898571Y-137203571D02*
X247898571Y-136417857D01*
X247827142Y-136275000D01*
X247684285Y-136203571D01*
X247398571Y-136203571D01*
X247255714Y-136275000D01*
X247898571Y-137132142D02*
X247755714Y-137203571D01*
X247398571Y-137203571D01*
X247255714Y-137132142D01*
X247184285Y-136989285D01*
X247184285Y-136846428D01*
X247255714Y-136703571D01*
X247398571Y-136632142D01*
X247755714Y-136632142D01*
X247898571Y-136560714D01*
X248612857Y-137203571D02*
X248612857Y-136203571D01*
X248612857Y-136489285D02*
X248684285Y-136346428D01*
X248755714Y-136275000D01*
X248898571Y-136203571D01*
X249041428Y-136203571D01*
D12*
X156895800Y-153131520D02*
X156931360Y-153131520D01*
D13*
X253800000Y-113090000D02*
X251800000Y-113090000D01*
X251800000Y-113090000D02*
X251800000Y-114090000D01*
X251800000Y-114090000D02*
X235800000Y-114090000D01*
X235800000Y-114090000D02*
X235800000Y-132290000D01*
X251800000Y-132290000D02*
X235800000Y-132290000D01*
X251800000Y-132290000D02*
X251800000Y-133290000D01*
X253800000Y-133290000D02*
X251800000Y-133290000D01*
X253800000Y-113090000D02*
X253800000Y-133290000D01*
X240950000Y-107329000D02*
X240950000Y-106071000D01*
X239110000Y-107329000D02*
X239110000Y-106071000D01*
X236505000Y-107329000D02*
X236505000Y-106071000D01*
X234665000Y-107329000D02*
X234665000Y-106071000D01*
X245395000Y-107329000D02*
X245395000Y-106071000D01*
X243555000Y-107329000D02*
X243555000Y-106071000D01*
X231720000Y-113560000D02*
X231720000Y-109960000D01*
X231697684Y-109951555D02*
G75*
G03*
X227420000Y-110980000I-1827684J-1808445D01*
G01*
X231711741Y-113571875D02*
G75*
G02*
X227420000Y-112580000I-1841741J1811875D01*
G01*
X190177331Y-147987281D02*
X191089499Y-148899448D01*
X191089499Y-148899448D02*
X192079448Y-147909499D01*
X192079448Y-147909499D02*
X191167281Y-146997331D01*
X191167150Y-146997544D02*
G75*
G03*
X190177331Y-147987281I-2572150J1582544D01*
G01*
X186920000Y-116205000D02*
X186230000Y-116205000D01*
X176300000Y-116205000D02*
X176990000Y-116205000D01*
X186230000Y-114485000D02*
X176990000Y-114485000D01*
X186230000Y-117925000D02*
X186230000Y-114485000D01*
X176990000Y-117925000D02*
X186230000Y-117925000D01*
X176990000Y-114485000D02*
X176990000Y-117925000D01*
X186920000Y-112395000D02*
X186230000Y-112395000D01*
X176300000Y-112395000D02*
X176990000Y-112395000D01*
X186230000Y-110675000D02*
X176990000Y-110675000D01*
X186230000Y-114115000D02*
X186230000Y-110675000D01*
X176990000Y-114115000D02*
X186230000Y-114115000D01*
X176990000Y-110675000D02*
X176990000Y-114115000D01*
X207105000Y-146150000D02*
X207105000Y-145820000D01*
X200565000Y-146150000D02*
X207105000Y-146150000D01*
X200565000Y-145820000D02*
X200565000Y-146150000D01*
X207105000Y-143410000D02*
X207105000Y-143740000D01*
X200565000Y-143410000D02*
X207105000Y-143410000D01*
X200565000Y-143740000D02*
X200565000Y-143410000D01*
X176435000Y-145950000D02*
X176435000Y-146280000D01*
X182975000Y-145950000D02*
X176435000Y-145950000D01*
X182975000Y-146280000D02*
X182975000Y-145950000D01*
X176435000Y-148690000D02*
X176435000Y-148360000D01*
X182975000Y-148690000D02*
X176435000Y-148690000D01*
X182975000Y-148360000D02*
X182975000Y-148690000D01*
X222985000Y-109760000D02*
X222655000Y-109760000D01*
X222985000Y-116300000D02*
X222985000Y-109760000D01*
X222655000Y-116300000D02*
X222985000Y-116300000D01*
X220245000Y-109760000D02*
X220575000Y-109760000D01*
X220245000Y-116300000D02*
X220245000Y-109760000D01*
X220575000Y-116300000D02*
X220245000Y-116300000D01*
X229335000Y-117380000D02*
X229005000Y-117380000D01*
X229335000Y-123920000D02*
X229335000Y-117380000D01*
X229005000Y-123920000D02*
X229335000Y-123920000D01*
X226595000Y-117380000D02*
X226925000Y-117380000D01*
X226595000Y-123920000D02*
X226595000Y-117380000D01*
X226925000Y-123920000D02*
X226595000Y-123920000D01*
X226160000Y-109760000D02*
X225830000Y-109760000D01*
X226160000Y-116300000D02*
X226160000Y-109760000D01*
X225830000Y-116300000D02*
X226160000Y-116300000D01*
X223420000Y-109760000D02*
X223750000Y-109760000D01*
X223420000Y-116300000D02*
X223420000Y-109760000D01*
X223750000Y-116300000D02*
X223420000Y-116300000D01*
X229770000Y-123920000D02*
X230100000Y-123920000D01*
X229770000Y-117380000D02*
X229770000Y-123920000D01*
X230100000Y-117380000D02*
X229770000Y-117380000D01*
X232510000Y-123920000D02*
X232180000Y-123920000D01*
X232510000Y-117380000D02*
X232510000Y-123920000D01*
X232180000Y-117380000D02*
X232510000Y-117380000D01*
X217070000Y-116300000D02*
X217400000Y-116300000D01*
X217070000Y-109760000D02*
X217070000Y-116300000D01*
X217400000Y-109760000D02*
X217070000Y-109760000D01*
X219810000Y-116300000D02*
X219480000Y-116300000D01*
X219810000Y-109760000D02*
X219810000Y-116300000D01*
X219480000Y-109760000D02*
X219810000Y-109760000D01*
X207545000Y-116300000D02*
X207875000Y-116300000D01*
X207545000Y-109760000D02*
X207545000Y-116300000D01*
X207875000Y-109760000D02*
X207545000Y-109760000D01*
X210285000Y-116300000D02*
X209955000Y-116300000D01*
X210285000Y-109760000D02*
X210285000Y-116300000D01*
X209955000Y-109760000D02*
X210285000Y-109760000D01*
X198020000Y-116300000D02*
X198350000Y-116300000D01*
X198020000Y-109760000D02*
X198020000Y-116300000D01*
X198350000Y-109760000D02*
X198020000Y-109760000D01*
X200760000Y-116300000D02*
X200430000Y-116300000D01*
X200760000Y-109760000D02*
X200760000Y-116300000D01*
X200430000Y-109760000D02*
X200760000Y-109760000D01*
X216635000Y-109760000D02*
X216305000Y-109760000D01*
X216635000Y-116300000D02*
X216635000Y-109760000D01*
X216305000Y-116300000D02*
X216635000Y-116300000D01*
X213895000Y-109760000D02*
X214225000Y-109760000D01*
X213895000Y-116300000D02*
X213895000Y-109760000D01*
X214225000Y-116300000D02*
X213895000Y-116300000D01*
X213460000Y-109760000D02*
X213130000Y-109760000D01*
X213460000Y-116300000D02*
X213460000Y-109760000D01*
X213130000Y-116300000D02*
X213460000Y-116300000D01*
X210720000Y-109760000D02*
X211050000Y-109760000D01*
X210720000Y-116300000D02*
X210720000Y-109760000D01*
X211050000Y-116300000D02*
X210720000Y-116300000D01*
X207110000Y-109760000D02*
X206780000Y-109760000D01*
X207110000Y-116300000D02*
X207110000Y-109760000D01*
X206780000Y-116300000D02*
X207110000Y-116300000D01*
X204370000Y-109760000D02*
X204700000Y-109760000D01*
X204370000Y-116300000D02*
X204370000Y-109760000D01*
X204700000Y-116300000D02*
X204370000Y-116300000D01*
X203935000Y-109760000D02*
X203605000Y-109760000D01*
X203935000Y-116300000D02*
X203935000Y-109760000D01*
X203605000Y-116300000D02*
X203935000Y-116300000D01*
X201195000Y-109760000D02*
X201525000Y-109760000D01*
X201195000Y-116300000D02*
X201195000Y-109760000D01*
X201525000Y-116300000D02*
X201195000Y-116300000D01*
X197585000Y-109760000D02*
X197255000Y-109760000D01*
X197585000Y-116300000D02*
X197585000Y-109760000D01*
X197255000Y-116300000D02*
X197585000Y-116300000D01*
X194845000Y-109760000D02*
X195175000Y-109760000D01*
X194845000Y-116300000D02*
X194845000Y-109760000D01*
X195175000Y-116300000D02*
X194845000Y-116300000D01*
X194410000Y-109760000D02*
X194080000Y-109760000D01*
X194410000Y-116300000D02*
X194410000Y-109760000D01*
X194080000Y-116300000D02*
X194410000Y-116300000D01*
X191670000Y-109760000D02*
X192000000Y-109760000D01*
X191670000Y-116300000D02*
X191670000Y-109760000D01*
X192000000Y-116300000D02*
X191670000Y-116300000D01*
X154955000Y-145070000D02*
X167105000Y-145070000D01*
X154205000Y-124920000D02*
X154205000Y-144320000D01*
X166355000Y-124170000D02*
X154955000Y-124170000D01*
X167105000Y-145070000D02*
X167105000Y-124920000D01*
X154205000Y-144320000D02*
G75*
G03*
X154955000Y-145070000I750000J0D01*
G01*
X154955000Y-124170000D02*
G75*
G03*
X154205000Y-124920000I0J-750000D01*
G01*
X167105000Y-124920000D02*
G75*
G03*
X166355000Y-124170000I-750000J0D01*
G01*
X168850000Y-133080000D02*
X168850000Y-138540000D01*
X168850000Y-138540000D02*
X219770000Y-138540000D01*
X219770000Y-138540000D02*
X219770000Y-125620000D01*
X219770000Y-125620000D02*
X168850000Y-125620000D01*
X168850000Y-125620000D02*
X168850000Y-131080000D01*
X168790000Y-141030000D02*
X219830000Y-141030000D01*
X219830000Y-141030000D02*
X219830000Y-123130000D01*
X219830000Y-123130000D02*
X168790000Y-123130000D01*
X168790000Y-123130000D02*
X168790000Y-141030000D01*
X168850000Y-131080000D02*
G75*
G02*
X168850000Y-133080000I0J-1000000D01*
G01*
X168850000Y-129905000D02*
X168850000Y-135365000D01*
X168850000Y-135365000D02*
X219770000Y-135365000D01*
X219770000Y-135365000D02*
X219770000Y-122445000D01*
X219770000Y-122445000D02*
X168850000Y-122445000D01*
X168850000Y-122445000D02*
X168850000Y-127905000D01*
X168790000Y-137855000D02*
X219830000Y-137855000D01*
X219830000Y-137855000D02*
X219830000Y-119955000D01*
X219830000Y-119955000D02*
X168790000Y-119955000D01*
X168790000Y-119955000D02*
X168790000Y-137855000D01*
X168850000Y-127905000D02*
G75*
G02*
X168850000Y-129905000I0J-1000000D01*
G01*
X221715000Y-124776000D02*
X221715000Y-121136000D01*
X224055000Y-124776000D02*
X224055000Y-121136000D01*
X221715000Y-124776000D02*
X221960000Y-124776000D01*
X223810000Y-124776000D02*
X224055000Y-124776000D01*
X221715000Y-121136000D02*
X221960000Y-121136000D01*
X223810000Y-121136000D02*
X224055000Y-121136000D01*
X183450000Y-144680000D02*
X179810000Y-144680000D01*
X183450000Y-142340000D02*
X179810000Y-142340000D01*
X183450000Y-144680000D02*
X183450000Y-144435000D01*
X183450000Y-142585000D02*
X183450000Y-142340000D01*
X179810000Y-144680000D02*
X179810000Y-144435000D01*
X179810000Y-142585000D02*
X179810000Y-142340000D01*
D10*
X157281666Y-156192380D02*
X157281666Y-156906666D01*
X157234047Y-157049523D01*
X157138809Y-157144761D01*
X156995952Y-157192380D01*
X156900714Y-157192380D01*
X157757857Y-157192380D02*
X157757857Y-156192380D01*
X158138809Y-156192380D01*
X158234047Y-156240000D01*
X158281666Y-156287619D01*
X158329285Y-156382857D01*
X158329285Y-156525714D01*
X158281666Y-156620952D01*
X158234047Y-156668571D01*
X158138809Y-156716190D01*
X157757857Y-156716190D01*
X158710238Y-156287619D02*
X158757857Y-156240000D01*
X158853095Y-156192380D01*
X159091190Y-156192380D01*
X159186428Y-156240000D01*
X159234047Y-156287619D01*
X159281666Y-156382857D01*
X159281666Y-156478095D01*
X159234047Y-156620952D01*
X158662619Y-157192380D01*
X159281666Y-157192380D01*
X234052380Y-127333333D02*
X234766666Y-127333333D01*
X234909523Y-127380952D01*
X235004761Y-127476190D01*
X235052380Y-127619047D01*
X235052380Y-127714285D01*
X235052380Y-126333333D02*
X235052380Y-126904761D01*
X235052380Y-126619047D02*
X234052380Y-126619047D01*
X234195238Y-126714285D01*
X234290476Y-126809523D01*
X234338095Y-126904761D01*
D11*
X239324285Y-111573571D02*
X239824285Y-113073571D01*
X240324285Y-111573571D01*
X240824285Y-113073571D02*
X240824285Y-111573571D01*
X241538571Y-113073571D02*
X241538571Y-111573571D01*
X241895714Y-111573571D01*
X242110000Y-111645000D01*
X242252857Y-111787857D01*
X242324285Y-111930714D01*
X242395714Y-112216428D01*
X242395714Y-112430714D01*
X242324285Y-112716428D01*
X242252857Y-112859285D01*
X242110000Y-113002142D01*
X241895714Y-113073571D01*
X241538571Y-113073571D01*
X243038571Y-112287857D02*
X243538571Y-112287857D01*
X243752857Y-113073571D02*
X243038571Y-113073571D01*
X243038571Y-111573571D01*
X243752857Y-111573571D01*
X244681428Y-111573571D02*
X244967142Y-111573571D01*
X245110000Y-111645000D01*
X245252857Y-111787857D01*
X245324285Y-112073571D01*
X245324285Y-112573571D01*
X245252857Y-112859285D01*
X245110000Y-113002142D01*
X244967142Y-113073571D01*
X244681428Y-113073571D01*
X244538571Y-113002142D01*
X244395714Y-112859285D01*
X244324285Y-112573571D01*
X244324285Y-112073571D01*
X244395714Y-111787857D01*
X244538571Y-111645000D01*
X244681428Y-111573571D01*
X247395714Y-111573571D02*
X247681428Y-111573571D01*
X247824285Y-111645000D01*
X247967142Y-111787857D01*
X248038571Y-112073571D01*
X248038571Y-112573571D01*
X247967142Y-112859285D01*
X247824285Y-113002142D01*
X247681428Y-113073571D01*
X247395714Y-113073571D01*
X247252857Y-113002142D01*
X247110000Y-112859285D01*
X247038571Y-112573571D01*
X247038571Y-112073571D01*
X247110000Y-111787857D01*
X247252857Y-111645000D01*
X247395714Y-111573571D01*
X248681428Y-111573571D02*
X248681428Y-112787857D01*
X248752857Y-112930714D01*
X248824285Y-113002142D01*
X248967142Y-113073571D01*
X249252857Y-113073571D01*
X249395714Y-113002142D01*
X249467142Y-112930714D01*
X249538571Y-112787857D01*
X249538571Y-111573571D01*
X250038571Y-111573571D02*
X250895714Y-111573571D01*
X250467142Y-113073571D02*
X250467142Y-111573571D01*
D10*
X238910952Y-110212142D02*
X238863333Y-110259761D01*
X238720476Y-110307380D01*
X238625238Y-110307380D01*
X238482380Y-110259761D01*
X238387142Y-110164523D01*
X238339523Y-110069285D01*
X238291904Y-109878809D01*
X238291904Y-109735952D01*
X238339523Y-109545476D01*
X238387142Y-109450238D01*
X238482380Y-109355000D01*
X238625238Y-109307380D01*
X238720476Y-109307380D01*
X238863333Y-109355000D01*
X238910952Y-109402619D01*
X239863333Y-110307380D02*
X239291904Y-110307380D01*
X239577619Y-110307380D02*
X239577619Y-109307380D01*
X239482380Y-109450238D01*
X239387142Y-109545476D01*
X239291904Y-109593095D01*
X240720476Y-109640714D02*
X240720476Y-110307380D01*
X240482380Y-109259761D02*
X240244285Y-109974047D01*
X240863333Y-109974047D01*
X241768095Y-110307380D02*
X241196666Y-110307380D01*
X241482380Y-110307380D02*
X241482380Y-109307380D01*
X241387142Y-109450238D01*
X241291904Y-109545476D01*
X241196666Y-109593095D01*
X241627619Y-108390476D02*
X241580000Y-108342857D01*
X241532380Y-108247619D01*
X241532380Y-108009523D01*
X241580000Y-107914285D01*
X241627619Y-107866666D01*
X241722857Y-107819047D01*
X241818095Y-107819047D01*
X241960952Y-107866666D01*
X242532380Y-108438095D01*
X242532380Y-107819047D01*
X241627619Y-107438095D02*
X241580000Y-107390476D01*
X241532380Y-107295238D01*
X241532380Y-107057142D01*
X241580000Y-106961904D01*
X241627619Y-106914285D01*
X241722857Y-106866666D01*
X241818095Y-106866666D01*
X241960952Y-106914285D01*
X242532380Y-107485714D01*
X242532380Y-106866666D01*
X241532380Y-106247619D02*
X241532380Y-106152380D01*
X241580000Y-106057142D01*
X241627619Y-106009523D01*
X241722857Y-105961904D01*
X241913333Y-105914285D01*
X242151428Y-105914285D01*
X242341904Y-105961904D01*
X242437142Y-106009523D01*
X242484761Y-106057142D01*
X242532380Y-106152380D01*
X242532380Y-106247619D01*
X242484761Y-106342857D01*
X242437142Y-106390476D01*
X242341904Y-106438095D01*
X242151428Y-106485714D01*
X241913333Y-106485714D01*
X241722857Y-106438095D01*
X241627619Y-106390476D01*
X241580000Y-106342857D01*
X241532380Y-106247619D01*
X241865714Y-105485714D02*
X242865714Y-105485714D01*
X241913333Y-105485714D02*
X241865714Y-105390476D01*
X241865714Y-105200000D01*
X241913333Y-105104761D01*
X241960952Y-105057142D01*
X242056190Y-105009523D01*
X242341904Y-105009523D01*
X242437142Y-105057142D01*
X242484761Y-105104761D01*
X242532380Y-105200000D01*
X242532380Y-105390476D01*
X242484761Y-105485714D01*
X234465952Y-110212142D02*
X234418333Y-110259761D01*
X234275476Y-110307380D01*
X234180238Y-110307380D01*
X234037380Y-110259761D01*
X233942142Y-110164523D01*
X233894523Y-110069285D01*
X233846904Y-109878809D01*
X233846904Y-109735952D01*
X233894523Y-109545476D01*
X233942142Y-109450238D01*
X234037380Y-109355000D01*
X234180238Y-109307380D01*
X234275476Y-109307380D01*
X234418333Y-109355000D01*
X234465952Y-109402619D01*
X235418333Y-110307380D02*
X234846904Y-110307380D01*
X235132619Y-110307380D02*
X235132619Y-109307380D01*
X235037380Y-109450238D01*
X234942142Y-109545476D01*
X234846904Y-109593095D01*
X236275476Y-109640714D02*
X236275476Y-110307380D01*
X236037380Y-109259761D02*
X235799285Y-109974047D01*
X236418333Y-109974047D01*
X236989761Y-109307380D02*
X237085000Y-109307380D01*
X237180238Y-109355000D01*
X237227857Y-109402619D01*
X237275476Y-109497857D01*
X237323095Y-109688333D01*
X237323095Y-109926428D01*
X237275476Y-110116904D01*
X237227857Y-110212142D01*
X237180238Y-110259761D01*
X237085000Y-110307380D01*
X236989761Y-110307380D01*
X236894523Y-110259761D01*
X236846904Y-110212142D01*
X236799285Y-110116904D01*
X236751666Y-109926428D01*
X236751666Y-109688333D01*
X236799285Y-109497857D01*
X236846904Y-109402619D01*
X236894523Y-109355000D01*
X236989761Y-109307380D01*
X237037619Y-108370476D02*
X236990000Y-108322857D01*
X236942380Y-108227619D01*
X236942380Y-107989523D01*
X236990000Y-107894285D01*
X237037619Y-107846666D01*
X237132857Y-107799047D01*
X237228095Y-107799047D01*
X237370952Y-107846666D01*
X237942380Y-108418095D01*
X237942380Y-107799047D01*
X237037619Y-107418095D02*
X236990000Y-107370476D01*
X236942380Y-107275238D01*
X236942380Y-107037142D01*
X236990000Y-106941904D01*
X237037619Y-106894285D01*
X237132857Y-106846666D01*
X237228095Y-106846666D01*
X237370952Y-106894285D01*
X237942380Y-107465714D01*
X237942380Y-106846666D01*
X236942380Y-106227619D02*
X236942380Y-106132380D01*
X236990000Y-106037142D01*
X237037619Y-105989523D01*
X237132857Y-105941904D01*
X237323333Y-105894285D01*
X237561428Y-105894285D01*
X237751904Y-105941904D01*
X237847142Y-105989523D01*
X237894761Y-106037142D01*
X237942380Y-106132380D01*
X237942380Y-106227619D01*
X237894761Y-106322857D01*
X237847142Y-106370476D01*
X237751904Y-106418095D01*
X237561428Y-106465714D01*
X237323333Y-106465714D01*
X237132857Y-106418095D01*
X237037619Y-106370476D01*
X236990000Y-106322857D01*
X236942380Y-106227619D01*
X237275714Y-105465714D02*
X238275714Y-105465714D01*
X237323333Y-105465714D02*
X237275714Y-105370476D01*
X237275714Y-105180000D01*
X237323333Y-105084761D01*
X237370952Y-105037142D01*
X237466190Y-104989523D01*
X237751904Y-104989523D01*
X237847142Y-105037142D01*
X237894761Y-105084761D01*
X237942380Y-105180000D01*
X237942380Y-105370476D01*
X237894761Y-105465714D01*
X243355952Y-110212142D02*
X243308333Y-110259761D01*
X243165476Y-110307380D01*
X243070238Y-110307380D01*
X242927380Y-110259761D01*
X242832142Y-110164523D01*
X242784523Y-110069285D01*
X242736904Y-109878809D01*
X242736904Y-109735952D01*
X242784523Y-109545476D01*
X242832142Y-109450238D01*
X242927380Y-109355000D01*
X243070238Y-109307380D01*
X243165476Y-109307380D01*
X243308333Y-109355000D01*
X243355952Y-109402619D01*
X244308333Y-110307380D02*
X243736904Y-110307380D01*
X244022619Y-110307380D02*
X244022619Y-109307380D01*
X243927380Y-109450238D01*
X243832142Y-109545476D01*
X243736904Y-109593095D01*
X244641666Y-109307380D02*
X245260714Y-109307380D01*
X244927380Y-109688333D01*
X245070238Y-109688333D01*
X245165476Y-109735952D01*
X245213095Y-109783571D01*
X245260714Y-109878809D01*
X245260714Y-110116904D01*
X245213095Y-110212142D01*
X245165476Y-110259761D01*
X245070238Y-110307380D01*
X244784523Y-110307380D01*
X244689285Y-110259761D01*
X244641666Y-110212142D01*
X245736904Y-110307380D02*
X245927380Y-110307380D01*
X246022619Y-110259761D01*
X246070238Y-110212142D01*
X246165476Y-110069285D01*
X246213095Y-109878809D01*
X246213095Y-109497857D01*
X246165476Y-109402619D01*
X246117857Y-109355000D01*
X246022619Y-109307380D01*
X245832142Y-109307380D01*
X245736904Y-109355000D01*
X245689285Y-109402619D01*
X245641666Y-109497857D01*
X245641666Y-109735952D01*
X245689285Y-109831190D01*
X245736904Y-109878809D01*
X245832142Y-109926428D01*
X246022619Y-109926428D01*
X246117857Y-109878809D01*
X246165476Y-109831190D01*
X246213095Y-109735952D01*
X246072619Y-108370476D02*
X246025000Y-108322857D01*
X245977380Y-108227619D01*
X245977380Y-107989523D01*
X246025000Y-107894285D01*
X246072619Y-107846666D01*
X246167857Y-107799047D01*
X246263095Y-107799047D01*
X246405952Y-107846666D01*
X246977380Y-108418095D01*
X246977380Y-107799047D01*
X246072619Y-107418095D02*
X246025000Y-107370476D01*
X245977380Y-107275238D01*
X245977380Y-107037142D01*
X246025000Y-106941904D01*
X246072619Y-106894285D01*
X246167857Y-106846666D01*
X246263095Y-106846666D01*
X246405952Y-106894285D01*
X246977380Y-107465714D01*
X246977380Y-106846666D01*
X245977380Y-106227619D02*
X245977380Y-106132380D01*
X246025000Y-106037142D01*
X246072619Y-105989523D01*
X246167857Y-105941904D01*
X246358333Y-105894285D01*
X246596428Y-105894285D01*
X246786904Y-105941904D01*
X246882142Y-105989523D01*
X246929761Y-106037142D01*
X246977380Y-106132380D01*
X246977380Y-106227619D01*
X246929761Y-106322857D01*
X246882142Y-106370476D01*
X246786904Y-106418095D01*
X246596428Y-106465714D01*
X246358333Y-106465714D01*
X246167857Y-106418095D01*
X246072619Y-106370476D01*
X246025000Y-106322857D01*
X245977380Y-106227619D01*
X246310714Y-105465714D02*
X247310714Y-105465714D01*
X246358333Y-105465714D02*
X246310714Y-105370476D01*
X246310714Y-105180000D01*
X246358333Y-105084761D01*
X246405952Y-105037142D01*
X246501190Y-104989523D01*
X246786904Y-104989523D01*
X246882142Y-105037142D01*
X246929761Y-105084761D01*
X246977380Y-105180000D01*
X246977380Y-105370476D01*
X246929761Y-105465714D01*
X228187380Y-108497619D02*
X228092142Y-108450000D01*
X227996904Y-108354761D01*
X227854047Y-108211904D01*
X227758809Y-108164285D01*
X227663571Y-108164285D01*
X227711190Y-108402380D02*
X227615952Y-108354761D01*
X227520714Y-108259523D01*
X227473095Y-108069047D01*
X227473095Y-107735714D01*
X227520714Y-107545238D01*
X227615952Y-107450000D01*
X227711190Y-107402380D01*
X227901666Y-107402380D01*
X227996904Y-107450000D01*
X228092142Y-107545238D01*
X228139761Y-107735714D01*
X228139761Y-108069047D01*
X228092142Y-108259523D01*
X227996904Y-108354761D01*
X227901666Y-108402380D01*
X227711190Y-108402380D01*
X229092142Y-108402380D02*
X228520714Y-108402380D01*
X228806428Y-108402380D02*
X228806428Y-107402380D01*
X228711190Y-107545238D01*
X228615952Y-107640476D01*
X228520714Y-107688095D01*
X229711190Y-107402380D02*
X229806428Y-107402380D01*
X229901666Y-107450000D01*
X229949285Y-107497619D01*
X229996904Y-107592857D01*
X230044523Y-107783333D01*
X230044523Y-108021428D01*
X229996904Y-108211904D01*
X229949285Y-108307142D01*
X229901666Y-108354761D01*
X229806428Y-108402380D01*
X229711190Y-108402380D01*
X229615952Y-108354761D01*
X229568333Y-108307142D01*
X229520714Y-108211904D01*
X229473095Y-108021428D01*
X229473095Y-107783333D01*
X229520714Y-107592857D01*
X229568333Y-107497619D01*
X229615952Y-107450000D01*
X229711190Y-107402380D01*
X230425476Y-107497619D02*
X230473095Y-107450000D01*
X230568333Y-107402380D01*
X230806428Y-107402380D01*
X230901666Y-107450000D01*
X230949285Y-107497619D01*
X230996904Y-107592857D01*
X230996904Y-107688095D01*
X230949285Y-107830952D01*
X230377857Y-108402380D01*
X230996904Y-108402380D01*
X232207619Y-115355238D02*
X232160000Y-115307619D01*
X232112380Y-115212380D01*
X232112380Y-114974285D01*
X232160000Y-114879047D01*
X232207619Y-114831428D01*
X232302857Y-114783809D01*
X232398095Y-114783809D01*
X232540952Y-114831428D01*
X233112380Y-115402857D01*
X233112380Y-114783809D01*
X233064761Y-114402857D02*
X233112380Y-114260000D01*
X233112380Y-114021904D01*
X233064761Y-113926666D01*
X233017142Y-113879047D01*
X232921904Y-113831428D01*
X232826666Y-113831428D01*
X232731428Y-113879047D01*
X232683809Y-113926666D01*
X232636190Y-114021904D01*
X232588571Y-114212380D01*
X232540952Y-114307619D01*
X232493333Y-114355238D01*
X232398095Y-114402857D01*
X232302857Y-114402857D01*
X232207619Y-114355238D01*
X232160000Y-114307619D01*
X232112380Y-114212380D01*
X232112380Y-113974285D01*
X232160000Y-113831428D01*
X233017142Y-112831428D02*
X233064761Y-112879047D01*
X233112380Y-113021904D01*
X233112380Y-113117142D01*
X233064761Y-113260000D01*
X232969523Y-113355238D01*
X232874285Y-113402857D01*
X232683809Y-113450476D01*
X232540952Y-113450476D01*
X232350476Y-113402857D01*
X232255238Y-113355238D01*
X232160000Y-113260000D01*
X232112380Y-113117142D01*
X232112380Y-113021904D01*
X232160000Y-112879047D01*
X232207619Y-112831428D01*
X233112380Y-111879047D02*
X233112380Y-112450476D01*
X233112380Y-112164761D02*
X232112380Y-112164761D01*
X232255238Y-112260000D01*
X232350476Y-112355238D01*
X232398095Y-112450476D01*
X232540952Y-111307619D02*
X232493333Y-111402857D01*
X232445714Y-111450476D01*
X232350476Y-111498095D01*
X232302857Y-111498095D01*
X232207619Y-111450476D01*
X232160000Y-111402857D01*
X232112380Y-111307619D01*
X232112380Y-111117142D01*
X232160000Y-111021904D01*
X232207619Y-110974285D01*
X232302857Y-110926666D01*
X232350476Y-110926666D01*
X232445714Y-110974285D01*
X232493333Y-111021904D01*
X232540952Y-111117142D01*
X232540952Y-111307619D01*
X232588571Y-111402857D01*
X232636190Y-111450476D01*
X232731428Y-111498095D01*
X232921904Y-111498095D01*
X233017142Y-111450476D01*
X233064761Y-111402857D01*
X233112380Y-111307619D01*
X233112380Y-111117142D01*
X233064761Y-111021904D01*
X233017142Y-110974285D01*
X232921904Y-110926666D01*
X232731428Y-110926666D01*
X232636190Y-110974285D01*
X232588571Y-111021904D01*
X232540952Y-111117142D01*
X233112380Y-109974285D02*
X233112380Y-110545714D01*
X233112380Y-110260000D02*
X232112380Y-110260000D01*
X232255238Y-110355238D01*
X232350476Y-110450476D01*
X232398095Y-110545714D01*
X232112380Y-109069523D02*
X232112380Y-109545714D01*
X232588571Y-109593333D01*
X232540952Y-109545714D01*
X232493333Y-109450476D01*
X232493333Y-109212380D01*
X232540952Y-109117142D01*
X232588571Y-109069523D01*
X232683809Y-109021904D01*
X232921904Y-109021904D01*
X233017142Y-109069523D01*
X233064761Y-109117142D01*
X233112380Y-109212380D01*
X233112380Y-109450476D01*
X233064761Y-109545714D01*
X233017142Y-109593333D01*
X232636190Y-108402857D02*
X233112380Y-108402857D01*
X232112380Y-108736190D02*
X232636190Y-108402857D01*
X232112380Y-108069523D01*
X193262380Y-144057619D02*
X193167142Y-144010000D01*
X193071904Y-143914761D01*
X192929047Y-143771904D01*
X192833809Y-143724285D01*
X192738571Y-143724285D01*
X192786190Y-143962380D02*
X192690952Y-143914761D01*
X192595714Y-143819523D01*
X192548095Y-143629047D01*
X192548095Y-143295714D01*
X192595714Y-143105238D01*
X192690952Y-143010000D01*
X192786190Y-142962380D01*
X192976666Y-142962380D01*
X193071904Y-143010000D01*
X193167142Y-143105238D01*
X193214761Y-143295714D01*
X193214761Y-143629047D01*
X193167142Y-143819523D01*
X193071904Y-143914761D01*
X192976666Y-143962380D01*
X192786190Y-143962380D01*
X194167142Y-143962380D02*
X193595714Y-143962380D01*
X193881428Y-143962380D02*
X193881428Y-142962380D01*
X193786190Y-143105238D01*
X193690952Y-143200476D01*
X193595714Y-143248095D01*
X194786190Y-142962380D02*
X194881428Y-142962380D01*
X194976666Y-143010000D01*
X195024285Y-143057619D01*
X195071904Y-143152857D01*
X195119523Y-143343333D01*
X195119523Y-143581428D01*
X195071904Y-143771904D01*
X195024285Y-143867142D01*
X194976666Y-143914761D01*
X194881428Y-143962380D01*
X194786190Y-143962380D01*
X194690952Y-143914761D01*
X194643333Y-143867142D01*
X194595714Y-143771904D01*
X194548095Y-143581428D01*
X194548095Y-143343333D01*
X194595714Y-143152857D01*
X194643333Y-143057619D01*
X194690952Y-143010000D01*
X194786190Y-142962380D01*
X195452857Y-142962380D02*
X196071904Y-142962380D01*
X195738571Y-143343333D01*
X195881428Y-143343333D01*
X195976666Y-143390952D01*
X196024285Y-143438571D01*
X196071904Y-143533809D01*
X196071904Y-143771904D01*
X196024285Y-143867142D01*
X195976666Y-143914761D01*
X195881428Y-143962380D01*
X195595714Y-143962380D01*
X195500476Y-143914761D01*
X195452857Y-143867142D01*
X192865714Y-144962619D02*
X192913333Y-144915000D01*
X193008571Y-144867380D01*
X193246666Y-144867380D01*
X193341904Y-144915000D01*
X193389523Y-144962619D01*
X193437142Y-145057857D01*
X193437142Y-145153095D01*
X193389523Y-145295952D01*
X192818095Y-145867380D01*
X193437142Y-145867380D01*
X193865714Y-145867380D02*
X193865714Y-144867380D01*
X194437142Y-145867380D01*
X194437142Y-144867380D01*
X194865714Y-144962619D02*
X194913333Y-144915000D01*
X195008571Y-144867380D01*
X195246666Y-144867380D01*
X195341904Y-144915000D01*
X195389523Y-144962619D01*
X195437142Y-145057857D01*
X195437142Y-145153095D01*
X195389523Y-145295952D01*
X194818095Y-145867380D01*
X195437142Y-145867380D01*
X195770476Y-144867380D02*
X196389523Y-144867380D01*
X196056190Y-145248333D01*
X196199047Y-145248333D01*
X196294285Y-145295952D01*
X196341904Y-145343571D01*
X196389523Y-145438809D01*
X196389523Y-145676904D01*
X196341904Y-145772142D01*
X196294285Y-145819761D01*
X196199047Y-145867380D01*
X195913333Y-145867380D01*
X195818095Y-145819761D01*
X195770476Y-145772142D01*
X197246666Y-144867380D02*
X197056190Y-144867380D01*
X196960952Y-144915000D01*
X196913333Y-144962619D01*
X196818095Y-145105476D01*
X196770476Y-145295952D01*
X196770476Y-145676904D01*
X196818095Y-145772142D01*
X196865714Y-145819761D01*
X196960952Y-145867380D01*
X197151428Y-145867380D01*
X197246666Y-145819761D01*
X197294285Y-145772142D01*
X197341904Y-145676904D01*
X197341904Y-145438809D01*
X197294285Y-145343571D01*
X197246666Y-145295952D01*
X197151428Y-145248333D01*
X196960952Y-145248333D01*
X196865714Y-145295952D01*
X196818095Y-145343571D01*
X196770476Y-145438809D01*
X197818095Y-145867380D02*
X198008571Y-145867380D01*
X198103809Y-145819761D01*
X198151428Y-145772142D01*
X198246666Y-145629285D01*
X198294285Y-145438809D01*
X198294285Y-145057857D01*
X198246666Y-144962619D01*
X198199047Y-144915000D01*
X198103809Y-144867380D01*
X197913333Y-144867380D01*
X197818095Y-144915000D01*
X197770476Y-144962619D01*
X197722857Y-145057857D01*
X197722857Y-145295952D01*
X197770476Y-145391190D01*
X197818095Y-145438809D01*
X197913333Y-145486428D01*
X198103809Y-145486428D01*
X198199047Y-145438809D01*
X198246666Y-145391190D01*
X198294285Y-145295952D01*
X170965952Y-116657380D02*
X170632619Y-116181190D01*
X170394523Y-116657380D02*
X170394523Y-115657380D01*
X170775476Y-115657380D01*
X170870714Y-115705000D01*
X170918333Y-115752619D01*
X170965952Y-115847857D01*
X170965952Y-115990714D01*
X170918333Y-116085952D01*
X170870714Y-116133571D01*
X170775476Y-116181190D01*
X170394523Y-116181190D01*
X171918333Y-116657380D02*
X171346904Y-116657380D01*
X171632619Y-116657380D02*
X171632619Y-115657380D01*
X171537380Y-115800238D01*
X171442142Y-115895476D01*
X171346904Y-115943095D01*
X172251666Y-115657380D02*
X172870714Y-115657380D01*
X172537380Y-116038333D01*
X172680238Y-116038333D01*
X172775476Y-116085952D01*
X172823095Y-116133571D01*
X172870714Y-116228809D01*
X172870714Y-116466904D01*
X172823095Y-116562142D01*
X172775476Y-116609761D01*
X172680238Y-116657380D01*
X172394523Y-116657380D01*
X172299285Y-116609761D01*
X172251666Y-116562142D01*
X173346904Y-116657380D02*
X173537380Y-116657380D01*
X173632619Y-116609761D01*
X173680238Y-116562142D01*
X173775476Y-116419285D01*
X173823095Y-116228809D01*
X173823095Y-115847857D01*
X173775476Y-115752619D01*
X173727857Y-115705000D01*
X173632619Y-115657380D01*
X173442142Y-115657380D01*
X173346904Y-115705000D01*
X173299285Y-115752619D01*
X173251666Y-115847857D01*
X173251666Y-116085952D01*
X173299285Y-116181190D01*
X173346904Y-116228809D01*
X173442142Y-116276428D01*
X173632619Y-116276428D01*
X173727857Y-116228809D01*
X173775476Y-116181190D01*
X173823095Y-116085952D01*
X178490952Y-116657380D02*
X177919523Y-116657380D01*
X178205238Y-116657380D02*
X178205238Y-115657380D01*
X178110000Y-115800238D01*
X178014761Y-115895476D01*
X177919523Y-115943095D01*
X178871904Y-115752619D02*
X178919523Y-115705000D01*
X179014761Y-115657380D01*
X179252857Y-115657380D01*
X179348095Y-115705000D01*
X179395714Y-115752619D01*
X179443333Y-115847857D01*
X179443333Y-115943095D01*
X179395714Y-116085952D01*
X178824285Y-116657380D01*
X179443333Y-116657380D01*
X180443333Y-116657380D02*
X180110000Y-116181190D01*
X179871904Y-116657380D02*
X179871904Y-115657380D01*
X180252857Y-115657380D01*
X180348095Y-115705000D01*
X180395714Y-115752619D01*
X180443333Y-115847857D01*
X180443333Y-115990714D01*
X180395714Y-116085952D01*
X180348095Y-116133571D01*
X180252857Y-116181190D01*
X179871904Y-116181190D01*
X182157619Y-116657380D02*
X181586190Y-116657380D01*
X181871904Y-116657380D02*
X181871904Y-115657380D01*
X181776666Y-115800238D01*
X181681428Y-115895476D01*
X181586190Y-115943095D01*
X183300476Y-115609761D02*
X182443333Y-116895476D01*
X183586190Y-115752619D02*
X183633809Y-115705000D01*
X183729047Y-115657380D01*
X183967142Y-115657380D01*
X184062380Y-115705000D01*
X184110000Y-115752619D01*
X184157619Y-115847857D01*
X184157619Y-115943095D01*
X184110000Y-116085952D01*
X183538571Y-116657380D01*
X184157619Y-116657380D01*
X184490952Y-115657380D02*
X184729047Y-116657380D01*
X184919523Y-115943095D01*
X185110000Y-116657380D01*
X185348095Y-115657380D01*
X170965952Y-112847380D02*
X170632619Y-112371190D01*
X170394523Y-112847380D02*
X170394523Y-111847380D01*
X170775476Y-111847380D01*
X170870714Y-111895000D01*
X170918333Y-111942619D01*
X170965952Y-112037857D01*
X170965952Y-112180714D01*
X170918333Y-112275952D01*
X170870714Y-112323571D01*
X170775476Y-112371190D01*
X170394523Y-112371190D01*
X171918333Y-112847380D02*
X171346904Y-112847380D01*
X171632619Y-112847380D02*
X171632619Y-111847380D01*
X171537380Y-111990238D01*
X171442142Y-112085476D01*
X171346904Y-112133095D01*
X172251666Y-111847380D02*
X172870714Y-111847380D01*
X172537380Y-112228333D01*
X172680238Y-112228333D01*
X172775476Y-112275952D01*
X172823095Y-112323571D01*
X172870714Y-112418809D01*
X172870714Y-112656904D01*
X172823095Y-112752142D01*
X172775476Y-112799761D01*
X172680238Y-112847380D01*
X172394523Y-112847380D01*
X172299285Y-112799761D01*
X172251666Y-112752142D01*
X173442142Y-112275952D02*
X173346904Y-112228333D01*
X173299285Y-112180714D01*
X173251666Y-112085476D01*
X173251666Y-112037857D01*
X173299285Y-111942619D01*
X173346904Y-111895000D01*
X173442142Y-111847380D01*
X173632619Y-111847380D01*
X173727857Y-111895000D01*
X173775476Y-111942619D01*
X173823095Y-112037857D01*
X173823095Y-112085476D01*
X173775476Y-112180714D01*
X173727857Y-112228333D01*
X173632619Y-112275952D01*
X173442142Y-112275952D01*
X173346904Y-112323571D01*
X173299285Y-112371190D01*
X173251666Y-112466428D01*
X173251666Y-112656904D01*
X173299285Y-112752142D01*
X173346904Y-112799761D01*
X173442142Y-112847380D01*
X173632619Y-112847380D01*
X173727857Y-112799761D01*
X173775476Y-112752142D01*
X173823095Y-112656904D01*
X173823095Y-112466428D01*
X173775476Y-112371190D01*
X173727857Y-112323571D01*
X173632619Y-112275952D01*
X178490952Y-112847380D02*
X177919523Y-112847380D01*
X178205238Y-112847380D02*
X178205238Y-111847380D01*
X178110000Y-111990238D01*
X178014761Y-112085476D01*
X177919523Y-112133095D01*
X178871904Y-111942619D02*
X178919523Y-111895000D01*
X179014761Y-111847380D01*
X179252857Y-111847380D01*
X179348095Y-111895000D01*
X179395714Y-111942619D01*
X179443333Y-112037857D01*
X179443333Y-112133095D01*
X179395714Y-112275952D01*
X178824285Y-112847380D01*
X179443333Y-112847380D01*
X180443333Y-112847380D02*
X180110000Y-112371190D01*
X179871904Y-112847380D02*
X179871904Y-111847380D01*
X180252857Y-111847380D01*
X180348095Y-111895000D01*
X180395714Y-111942619D01*
X180443333Y-112037857D01*
X180443333Y-112180714D01*
X180395714Y-112275952D01*
X180348095Y-112323571D01*
X180252857Y-112371190D01*
X179871904Y-112371190D01*
X182157619Y-112847380D02*
X181586190Y-112847380D01*
X181871904Y-112847380D02*
X181871904Y-111847380D01*
X181776666Y-111990238D01*
X181681428Y-112085476D01*
X181586190Y-112133095D01*
X183300476Y-111799761D02*
X182443333Y-113085476D01*
X183586190Y-111942619D02*
X183633809Y-111895000D01*
X183729047Y-111847380D01*
X183967142Y-111847380D01*
X184062380Y-111895000D01*
X184110000Y-111942619D01*
X184157619Y-112037857D01*
X184157619Y-112133095D01*
X184110000Y-112275952D01*
X183538571Y-112847380D01*
X184157619Y-112847380D01*
X184490952Y-111847380D02*
X184729047Y-112847380D01*
X184919523Y-112133095D01*
X185110000Y-112847380D01*
X185348095Y-111847380D01*
X209700952Y-145232380D02*
X209367619Y-144756190D01*
X209129523Y-145232380D02*
X209129523Y-144232380D01*
X209510476Y-144232380D01*
X209605714Y-144280000D01*
X209653333Y-144327619D01*
X209700952Y-144422857D01*
X209700952Y-144565714D01*
X209653333Y-144660952D01*
X209605714Y-144708571D01*
X209510476Y-144756190D01*
X209129523Y-144756190D01*
X210653333Y-145232380D02*
X210081904Y-145232380D01*
X210367619Y-145232380D02*
X210367619Y-144232380D01*
X210272380Y-144375238D01*
X210177142Y-144470476D01*
X210081904Y-144518095D01*
X211510476Y-144565714D02*
X211510476Y-145232380D01*
X211272380Y-144184761D02*
X211034285Y-144899047D01*
X211653333Y-144899047D01*
X212558095Y-145232380D02*
X211986666Y-145232380D01*
X212272380Y-145232380D02*
X212272380Y-144232380D01*
X212177142Y-144375238D01*
X212081904Y-144470476D01*
X211986666Y-144518095D01*
X203549285Y-144232380D02*
X203358809Y-144232380D01*
X203263571Y-144280000D01*
X203215952Y-144327619D01*
X203120714Y-144470476D01*
X203073095Y-144660952D01*
X203073095Y-145041904D01*
X203120714Y-145137142D01*
X203168333Y-145184761D01*
X203263571Y-145232380D01*
X203454047Y-145232380D01*
X203549285Y-145184761D01*
X203596904Y-145137142D01*
X203644523Y-145041904D01*
X203644523Y-144803809D01*
X203596904Y-144708571D01*
X203549285Y-144660952D01*
X203454047Y-144613333D01*
X203263571Y-144613333D01*
X203168333Y-144660952D01*
X203120714Y-144708571D01*
X203073095Y-144803809D01*
X204215952Y-144660952D02*
X204120714Y-144613333D01*
X204073095Y-144565714D01*
X204025476Y-144470476D01*
X204025476Y-144422857D01*
X204073095Y-144327619D01*
X204120714Y-144280000D01*
X204215952Y-144232380D01*
X204406428Y-144232380D01*
X204501666Y-144280000D01*
X204549285Y-144327619D01*
X204596904Y-144422857D01*
X204596904Y-144470476D01*
X204549285Y-144565714D01*
X204501666Y-144613333D01*
X204406428Y-144660952D01*
X204215952Y-144660952D01*
X204120714Y-144708571D01*
X204073095Y-144756190D01*
X204025476Y-144851428D01*
X204025476Y-145041904D01*
X204073095Y-145137142D01*
X204120714Y-145184761D01*
X204215952Y-145232380D01*
X204406428Y-145232380D01*
X204501666Y-145184761D01*
X204549285Y-145137142D01*
X204596904Y-145041904D01*
X204596904Y-144851428D01*
X204549285Y-144756190D01*
X204501666Y-144708571D01*
X204406428Y-144660952D01*
X171600952Y-147772380D02*
X171267619Y-147296190D01*
X171029523Y-147772380D02*
X171029523Y-146772380D01*
X171410476Y-146772380D01*
X171505714Y-146820000D01*
X171553333Y-146867619D01*
X171600952Y-146962857D01*
X171600952Y-147105714D01*
X171553333Y-147200952D01*
X171505714Y-147248571D01*
X171410476Y-147296190D01*
X171029523Y-147296190D01*
X172553333Y-147772380D02*
X171981904Y-147772380D01*
X172267619Y-147772380D02*
X172267619Y-146772380D01*
X172172380Y-146915238D01*
X172077142Y-147010476D01*
X171981904Y-147058095D01*
X173410476Y-147105714D02*
X173410476Y-147772380D01*
X173172380Y-146724761D02*
X172934285Y-147439047D01*
X173553333Y-147439047D01*
X174124761Y-146772380D02*
X174220000Y-146772380D01*
X174315238Y-146820000D01*
X174362857Y-146867619D01*
X174410476Y-146962857D01*
X174458095Y-147153333D01*
X174458095Y-147391428D01*
X174410476Y-147581904D01*
X174362857Y-147677142D01*
X174315238Y-147724761D01*
X174220000Y-147772380D01*
X174124761Y-147772380D01*
X174029523Y-147724761D01*
X173981904Y-147677142D01*
X173934285Y-147581904D01*
X173886666Y-147391428D01*
X173886666Y-147153333D01*
X173934285Y-146962857D01*
X173981904Y-146867619D01*
X174029523Y-146820000D01*
X174124761Y-146772380D01*
X179038333Y-147772380D02*
X178466904Y-147772380D01*
X178752619Y-147772380D02*
X178752619Y-146772380D01*
X178657380Y-146915238D01*
X178562142Y-147010476D01*
X178466904Y-147058095D01*
X179657380Y-146772380D02*
X179752619Y-146772380D01*
X179847857Y-146820000D01*
X179895476Y-146867619D01*
X179943095Y-146962857D01*
X179990714Y-147153333D01*
X179990714Y-147391428D01*
X179943095Y-147581904D01*
X179895476Y-147677142D01*
X179847857Y-147724761D01*
X179752619Y-147772380D01*
X179657380Y-147772380D01*
X179562142Y-147724761D01*
X179514523Y-147677142D01*
X179466904Y-147581904D01*
X179419285Y-147391428D01*
X179419285Y-147153333D01*
X179466904Y-146962857D01*
X179514523Y-146867619D01*
X179562142Y-146820000D01*
X179657380Y-146772380D01*
X180609761Y-146772380D02*
X180705000Y-146772380D01*
X180800238Y-146820000D01*
X180847857Y-146867619D01*
X180895476Y-146962857D01*
X180943095Y-147153333D01*
X180943095Y-147391428D01*
X180895476Y-147581904D01*
X180847857Y-147677142D01*
X180800238Y-147724761D01*
X180705000Y-147772380D01*
X180609761Y-147772380D01*
X180514523Y-147724761D01*
X180466904Y-147677142D01*
X180419285Y-147581904D01*
X180371666Y-147391428D01*
X180371666Y-147153333D01*
X180419285Y-146962857D01*
X180466904Y-146867619D01*
X180514523Y-146820000D01*
X180609761Y-146772380D01*
X222067380Y-107164047D02*
X221591190Y-107497380D01*
X222067380Y-107735476D02*
X221067380Y-107735476D01*
X221067380Y-107354523D01*
X221115000Y-107259285D01*
X221162619Y-107211666D01*
X221257857Y-107164047D01*
X221400714Y-107164047D01*
X221495952Y-107211666D01*
X221543571Y-107259285D01*
X221591190Y-107354523D01*
X221591190Y-107735476D01*
X222067380Y-106211666D02*
X222067380Y-106783095D01*
X222067380Y-106497380D02*
X221067380Y-106497380D01*
X221210238Y-106592619D01*
X221305476Y-106687857D01*
X221353095Y-106783095D01*
X221067380Y-105878333D02*
X221067380Y-105259285D01*
X221448333Y-105592619D01*
X221448333Y-105449761D01*
X221495952Y-105354523D01*
X221543571Y-105306904D01*
X221638809Y-105259285D01*
X221876904Y-105259285D01*
X221972142Y-105306904D01*
X222019761Y-105354523D01*
X222067380Y-105449761D01*
X222067380Y-105735476D01*
X222019761Y-105830714D01*
X221972142Y-105878333D01*
X221067380Y-104925952D02*
X221067380Y-104259285D01*
X222067380Y-104687857D01*
X221162619Y-114268095D02*
X221115000Y-114220476D01*
X221067380Y-114125238D01*
X221067380Y-113887142D01*
X221115000Y-113791904D01*
X221162619Y-113744285D01*
X221257857Y-113696666D01*
X221353095Y-113696666D01*
X221495952Y-113744285D01*
X222067380Y-114315714D01*
X222067380Y-113696666D01*
X221162619Y-113315714D02*
X221115000Y-113268095D01*
X221067380Y-113172857D01*
X221067380Y-112934761D01*
X221115000Y-112839523D01*
X221162619Y-112791904D01*
X221257857Y-112744285D01*
X221353095Y-112744285D01*
X221495952Y-112791904D01*
X222067380Y-113363333D01*
X222067380Y-112744285D01*
X221067380Y-112125238D02*
X221067380Y-112030000D01*
X221115000Y-111934761D01*
X221162619Y-111887142D01*
X221257857Y-111839523D01*
X221448333Y-111791904D01*
X221686428Y-111791904D01*
X221876904Y-111839523D01*
X221972142Y-111887142D01*
X222019761Y-111934761D01*
X222067380Y-112030000D01*
X222067380Y-112125238D01*
X222019761Y-112220476D01*
X221972142Y-112268095D01*
X221876904Y-112315714D01*
X221686428Y-112363333D01*
X221448333Y-112363333D01*
X221257857Y-112315714D01*
X221162619Y-112268095D01*
X221115000Y-112220476D01*
X221067380Y-112125238D01*
X228417380Y-128754047D02*
X227941190Y-129087380D01*
X228417380Y-129325476D02*
X227417380Y-129325476D01*
X227417380Y-128944523D01*
X227465000Y-128849285D01*
X227512619Y-128801666D01*
X227607857Y-128754047D01*
X227750714Y-128754047D01*
X227845952Y-128801666D01*
X227893571Y-128849285D01*
X227941190Y-128944523D01*
X227941190Y-129325476D01*
X228417380Y-127801666D02*
X228417380Y-128373095D01*
X228417380Y-128087380D02*
X227417380Y-128087380D01*
X227560238Y-128182619D01*
X227655476Y-128277857D01*
X227703095Y-128373095D01*
X227417380Y-127468333D02*
X227417380Y-126849285D01*
X227798333Y-127182619D01*
X227798333Y-127039761D01*
X227845952Y-126944523D01*
X227893571Y-126896904D01*
X227988809Y-126849285D01*
X228226904Y-126849285D01*
X228322142Y-126896904D01*
X228369761Y-126944523D01*
X228417380Y-127039761D01*
X228417380Y-127325476D01*
X228369761Y-127420714D01*
X228322142Y-127468333D01*
X227417380Y-125992142D02*
X227417380Y-126182619D01*
X227465000Y-126277857D01*
X227512619Y-126325476D01*
X227655476Y-126420714D01*
X227845952Y-126468333D01*
X228226904Y-126468333D01*
X228322142Y-126420714D01*
X228369761Y-126373095D01*
X228417380Y-126277857D01*
X228417380Y-126087380D01*
X228369761Y-125992142D01*
X228322142Y-125944523D01*
X228226904Y-125896904D01*
X227988809Y-125896904D01*
X227893571Y-125944523D01*
X227845952Y-125992142D01*
X227798333Y-126087380D01*
X227798333Y-126277857D01*
X227845952Y-126373095D01*
X227893571Y-126420714D01*
X227988809Y-126468333D01*
X228417380Y-121316666D02*
X228417380Y-121888095D01*
X228417380Y-121602380D02*
X227417380Y-121602380D01*
X227560238Y-121697619D01*
X227655476Y-121792857D01*
X227703095Y-121888095D01*
X227417380Y-120411904D02*
X227417380Y-120888095D01*
X227893571Y-120935714D01*
X227845952Y-120888095D01*
X227798333Y-120792857D01*
X227798333Y-120554761D01*
X227845952Y-120459523D01*
X227893571Y-120411904D01*
X227988809Y-120364285D01*
X228226904Y-120364285D01*
X228322142Y-120411904D01*
X228369761Y-120459523D01*
X228417380Y-120554761D01*
X228417380Y-120792857D01*
X228369761Y-120888095D01*
X228322142Y-120935714D01*
X227417380Y-119745238D02*
X227417380Y-119650000D01*
X227465000Y-119554761D01*
X227512619Y-119507142D01*
X227607857Y-119459523D01*
X227798333Y-119411904D01*
X228036428Y-119411904D01*
X228226904Y-119459523D01*
X228322142Y-119507142D01*
X228369761Y-119554761D01*
X228417380Y-119650000D01*
X228417380Y-119745238D01*
X228369761Y-119840476D01*
X228322142Y-119888095D01*
X228226904Y-119935714D01*
X228036428Y-119983333D01*
X227798333Y-119983333D01*
X227607857Y-119935714D01*
X227512619Y-119888095D01*
X227465000Y-119840476D01*
X227417380Y-119745238D01*
X225242380Y-107164047D02*
X224766190Y-107497380D01*
X225242380Y-107735476D02*
X224242380Y-107735476D01*
X224242380Y-107354523D01*
X224290000Y-107259285D01*
X224337619Y-107211666D01*
X224432857Y-107164047D01*
X224575714Y-107164047D01*
X224670952Y-107211666D01*
X224718571Y-107259285D01*
X224766190Y-107354523D01*
X224766190Y-107735476D01*
X225242380Y-106211666D02*
X225242380Y-106783095D01*
X225242380Y-106497380D02*
X224242380Y-106497380D01*
X224385238Y-106592619D01*
X224480476Y-106687857D01*
X224528095Y-106783095D01*
X224242380Y-105878333D02*
X224242380Y-105259285D01*
X224623333Y-105592619D01*
X224623333Y-105449761D01*
X224670952Y-105354523D01*
X224718571Y-105306904D01*
X224813809Y-105259285D01*
X225051904Y-105259285D01*
X225147142Y-105306904D01*
X225194761Y-105354523D01*
X225242380Y-105449761D01*
X225242380Y-105735476D01*
X225194761Y-105830714D01*
X225147142Y-105878333D01*
X224242380Y-104354523D02*
X224242380Y-104830714D01*
X224718571Y-104878333D01*
X224670952Y-104830714D01*
X224623333Y-104735476D01*
X224623333Y-104497380D01*
X224670952Y-104402142D01*
X224718571Y-104354523D01*
X224813809Y-104306904D01*
X225051904Y-104306904D01*
X225147142Y-104354523D01*
X225194761Y-104402142D01*
X225242380Y-104497380D01*
X225242380Y-104735476D01*
X225194761Y-104830714D01*
X225147142Y-104878333D01*
X224242380Y-113791904D02*
X224242380Y-113982380D01*
X224290000Y-114077619D01*
X224337619Y-114125238D01*
X224480476Y-114220476D01*
X224670952Y-114268095D01*
X225051904Y-114268095D01*
X225147142Y-114220476D01*
X225194761Y-114172857D01*
X225242380Y-114077619D01*
X225242380Y-113887142D01*
X225194761Y-113791904D01*
X225147142Y-113744285D01*
X225051904Y-113696666D01*
X224813809Y-113696666D01*
X224718571Y-113744285D01*
X224670952Y-113791904D01*
X224623333Y-113887142D01*
X224623333Y-114077619D01*
X224670952Y-114172857D01*
X224718571Y-114220476D01*
X224813809Y-114268095D01*
X224670952Y-113125238D02*
X224623333Y-113220476D01*
X224575714Y-113268095D01*
X224480476Y-113315714D01*
X224432857Y-113315714D01*
X224337619Y-113268095D01*
X224290000Y-113220476D01*
X224242380Y-113125238D01*
X224242380Y-112934761D01*
X224290000Y-112839523D01*
X224337619Y-112791904D01*
X224432857Y-112744285D01*
X224480476Y-112744285D01*
X224575714Y-112791904D01*
X224623333Y-112839523D01*
X224670952Y-112934761D01*
X224670952Y-113125238D01*
X224718571Y-113220476D01*
X224766190Y-113268095D01*
X224861428Y-113315714D01*
X225051904Y-113315714D01*
X225147142Y-113268095D01*
X225194761Y-113220476D01*
X225242380Y-113125238D01*
X225242380Y-112934761D01*
X225194761Y-112839523D01*
X225147142Y-112791904D01*
X225051904Y-112744285D01*
X224861428Y-112744285D01*
X224766190Y-112791904D01*
X224718571Y-112839523D01*
X224670952Y-112934761D01*
X224242380Y-112125238D02*
X224242380Y-112030000D01*
X224290000Y-111934761D01*
X224337619Y-111887142D01*
X224432857Y-111839523D01*
X224623333Y-111791904D01*
X224861428Y-111791904D01*
X225051904Y-111839523D01*
X225147142Y-111887142D01*
X225194761Y-111934761D01*
X225242380Y-112030000D01*
X225242380Y-112125238D01*
X225194761Y-112220476D01*
X225147142Y-112268095D01*
X225051904Y-112315714D01*
X224861428Y-112363333D01*
X224623333Y-112363333D01*
X224432857Y-112315714D01*
X224337619Y-112268095D01*
X224290000Y-112220476D01*
X224242380Y-112125238D01*
X231592380Y-128754047D02*
X231116190Y-129087380D01*
X231592380Y-129325476D02*
X230592380Y-129325476D01*
X230592380Y-128944523D01*
X230640000Y-128849285D01*
X230687619Y-128801666D01*
X230782857Y-128754047D01*
X230925714Y-128754047D01*
X231020952Y-128801666D01*
X231068571Y-128849285D01*
X231116190Y-128944523D01*
X231116190Y-129325476D01*
X231592380Y-127801666D02*
X231592380Y-128373095D01*
X231592380Y-128087380D02*
X230592380Y-128087380D01*
X230735238Y-128182619D01*
X230830476Y-128277857D01*
X230878095Y-128373095D01*
X230592380Y-127468333D02*
X230592380Y-126849285D01*
X230973333Y-127182619D01*
X230973333Y-127039761D01*
X231020952Y-126944523D01*
X231068571Y-126896904D01*
X231163809Y-126849285D01*
X231401904Y-126849285D01*
X231497142Y-126896904D01*
X231544761Y-126944523D01*
X231592380Y-127039761D01*
X231592380Y-127325476D01*
X231544761Y-127420714D01*
X231497142Y-127468333D01*
X230925714Y-125992142D02*
X231592380Y-125992142D01*
X230544761Y-126230238D02*
X231259047Y-126468333D01*
X231259047Y-125849285D01*
X231592380Y-121316666D02*
X231592380Y-121888095D01*
X231592380Y-121602380D02*
X230592380Y-121602380D01*
X230735238Y-121697619D01*
X230830476Y-121792857D01*
X230878095Y-121888095D01*
X231020952Y-120745238D02*
X230973333Y-120840476D01*
X230925714Y-120888095D01*
X230830476Y-120935714D01*
X230782857Y-120935714D01*
X230687619Y-120888095D01*
X230640000Y-120840476D01*
X230592380Y-120745238D01*
X230592380Y-120554761D01*
X230640000Y-120459523D01*
X230687619Y-120411904D01*
X230782857Y-120364285D01*
X230830476Y-120364285D01*
X230925714Y-120411904D01*
X230973333Y-120459523D01*
X231020952Y-120554761D01*
X231020952Y-120745238D01*
X231068571Y-120840476D01*
X231116190Y-120888095D01*
X231211428Y-120935714D01*
X231401904Y-120935714D01*
X231497142Y-120888095D01*
X231544761Y-120840476D01*
X231592380Y-120745238D01*
X231592380Y-120554761D01*
X231544761Y-120459523D01*
X231497142Y-120411904D01*
X231401904Y-120364285D01*
X231211428Y-120364285D01*
X231116190Y-120411904D01*
X231068571Y-120459523D01*
X231020952Y-120554761D01*
X230592380Y-119745238D02*
X230592380Y-119650000D01*
X230640000Y-119554761D01*
X230687619Y-119507142D01*
X230782857Y-119459523D01*
X230973333Y-119411904D01*
X231211428Y-119411904D01*
X231401904Y-119459523D01*
X231497142Y-119507142D01*
X231544761Y-119554761D01*
X231592380Y-119650000D01*
X231592380Y-119745238D01*
X231544761Y-119840476D01*
X231497142Y-119888095D01*
X231401904Y-119935714D01*
X231211428Y-119983333D01*
X230973333Y-119983333D01*
X230782857Y-119935714D01*
X230687619Y-119888095D01*
X230640000Y-119840476D01*
X230592380Y-119745238D01*
X218892380Y-107164047D02*
X218416190Y-107497380D01*
X218892380Y-107735476D02*
X217892380Y-107735476D01*
X217892380Y-107354523D01*
X217940000Y-107259285D01*
X217987619Y-107211666D01*
X218082857Y-107164047D01*
X218225714Y-107164047D01*
X218320952Y-107211666D01*
X218368571Y-107259285D01*
X218416190Y-107354523D01*
X218416190Y-107735476D01*
X218892380Y-106211666D02*
X218892380Y-106783095D01*
X218892380Y-106497380D02*
X217892380Y-106497380D01*
X218035238Y-106592619D01*
X218130476Y-106687857D01*
X218178095Y-106783095D01*
X217892380Y-105878333D02*
X217892380Y-105259285D01*
X218273333Y-105592619D01*
X218273333Y-105449761D01*
X218320952Y-105354523D01*
X218368571Y-105306904D01*
X218463809Y-105259285D01*
X218701904Y-105259285D01*
X218797142Y-105306904D01*
X218844761Y-105354523D01*
X218892380Y-105449761D01*
X218892380Y-105735476D01*
X218844761Y-105830714D01*
X218797142Y-105878333D01*
X217892380Y-104925952D02*
X217892380Y-104306904D01*
X218273333Y-104640238D01*
X218273333Y-104497380D01*
X218320952Y-104402142D01*
X218368571Y-104354523D01*
X218463809Y-104306904D01*
X218701904Y-104306904D01*
X218797142Y-104354523D01*
X218844761Y-104402142D01*
X218892380Y-104497380D01*
X218892380Y-104783095D01*
X218844761Y-104878333D01*
X218797142Y-104925952D01*
X218892380Y-113625238D02*
X218892380Y-114196666D01*
X218892380Y-113910952D02*
X217892380Y-113910952D01*
X218035238Y-114006190D01*
X218130476Y-114101428D01*
X218178095Y-114196666D01*
X217892380Y-113006190D02*
X217892380Y-112910952D01*
X217940000Y-112815714D01*
X217987619Y-112768095D01*
X218082857Y-112720476D01*
X218273333Y-112672857D01*
X218511428Y-112672857D01*
X218701904Y-112720476D01*
X218797142Y-112768095D01*
X218844761Y-112815714D01*
X218892380Y-112910952D01*
X218892380Y-113006190D01*
X218844761Y-113101428D01*
X218797142Y-113149047D01*
X218701904Y-113196666D01*
X218511428Y-113244285D01*
X218273333Y-113244285D01*
X218082857Y-113196666D01*
X217987619Y-113149047D01*
X217940000Y-113101428D01*
X217892380Y-113006190D01*
X218892380Y-112244285D02*
X217892380Y-112244285D01*
X218511428Y-112149047D02*
X218892380Y-111863333D01*
X218225714Y-111863333D02*
X218606666Y-112244285D01*
X209367380Y-107164047D02*
X208891190Y-107497380D01*
X209367380Y-107735476D02*
X208367380Y-107735476D01*
X208367380Y-107354523D01*
X208415000Y-107259285D01*
X208462619Y-107211666D01*
X208557857Y-107164047D01*
X208700714Y-107164047D01*
X208795952Y-107211666D01*
X208843571Y-107259285D01*
X208891190Y-107354523D01*
X208891190Y-107735476D01*
X209367380Y-106211666D02*
X209367380Y-106783095D01*
X209367380Y-106497380D02*
X208367380Y-106497380D01*
X208510238Y-106592619D01*
X208605476Y-106687857D01*
X208653095Y-106783095D01*
X208367380Y-105878333D02*
X208367380Y-105259285D01*
X208748333Y-105592619D01*
X208748333Y-105449761D01*
X208795952Y-105354523D01*
X208843571Y-105306904D01*
X208938809Y-105259285D01*
X209176904Y-105259285D01*
X209272142Y-105306904D01*
X209319761Y-105354523D01*
X209367380Y-105449761D01*
X209367380Y-105735476D01*
X209319761Y-105830714D01*
X209272142Y-105878333D01*
X208462619Y-104878333D02*
X208415000Y-104830714D01*
X208367380Y-104735476D01*
X208367380Y-104497380D01*
X208415000Y-104402142D01*
X208462619Y-104354523D01*
X208557857Y-104306904D01*
X208653095Y-104306904D01*
X208795952Y-104354523D01*
X209367380Y-104925952D01*
X209367380Y-104306904D01*
X209367380Y-113149047D02*
X209367380Y-113720476D01*
X209367380Y-113434761D02*
X208367380Y-113434761D01*
X208510238Y-113530000D01*
X208605476Y-113625238D01*
X208653095Y-113720476D01*
X209367380Y-112720476D02*
X208367380Y-112720476D01*
X208986428Y-112625238D02*
X209367380Y-112339523D01*
X208700714Y-112339523D02*
X209081666Y-112720476D01*
X199842380Y-107164047D02*
X199366190Y-107497380D01*
X199842380Y-107735476D02*
X198842380Y-107735476D01*
X198842380Y-107354523D01*
X198890000Y-107259285D01*
X198937619Y-107211666D01*
X199032857Y-107164047D01*
X199175714Y-107164047D01*
X199270952Y-107211666D01*
X199318571Y-107259285D01*
X199366190Y-107354523D01*
X199366190Y-107735476D01*
X199842380Y-106211666D02*
X199842380Y-106783095D01*
X199842380Y-106497380D02*
X198842380Y-106497380D01*
X198985238Y-106592619D01*
X199080476Y-106687857D01*
X199128095Y-106783095D01*
X198842380Y-105878333D02*
X198842380Y-105259285D01*
X199223333Y-105592619D01*
X199223333Y-105449761D01*
X199270952Y-105354523D01*
X199318571Y-105306904D01*
X199413809Y-105259285D01*
X199651904Y-105259285D01*
X199747142Y-105306904D01*
X199794761Y-105354523D01*
X199842380Y-105449761D01*
X199842380Y-105735476D01*
X199794761Y-105830714D01*
X199747142Y-105878333D01*
X199842380Y-104306904D02*
X199842380Y-104878333D01*
X199842380Y-104592619D02*
X198842380Y-104592619D01*
X198985238Y-104687857D01*
X199080476Y-104783095D01*
X199128095Y-104878333D01*
X198842380Y-114244285D02*
X198842380Y-113625238D01*
X199223333Y-113958571D01*
X199223333Y-113815714D01*
X199270952Y-113720476D01*
X199318571Y-113672857D01*
X199413809Y-113625238D01*
X199651904Y-113625238D01*
X199747142Y-113672857D01*
X199794761Y-113720476D01*
X199842380Y-113815714D01*
X199842380Y-114101428D01*
X199794761Y-114196666D01*
X199747142Y-114244285D01*
X199842380Y-113196666D02*
X198842380Y-113196666D01*
X199461428Y-113101428D02*
X199842380Y-112815714D01*
X199175714Y-112815714D02*
X199556666Y-113196666D01*
X198842380Y-112482380D02*
X198842380Y-111863333D01*
X199223333Y-112196666D01*
X199223333Y-112053809D01*
X199270952Y-111958571D01*
X199318571Y-111910952D01*
X199413809Y-111863333D01*
X199651904Y-111863333D01*
X199747142Y-111910952D01*
X199794761Y-111958571D01*
X199842380Y-112053809D01*
X199842380Y-112339523D01*
X199794761Y-112434761D01*
X199747142Y-112482380D01*
X215717380Y-107164047D02*
X215241190Y-107497380D01*
X215717380Y-107735476D02*
X214717380Y-107735476D01*
X214717380Y-107354523D01*
X214765000Y-107259285D01*
X214812619Y-107211666D01*
X214907857Y-107164047D01*
X215050714Y-107164047D01*
X215145952Y-107211666D01*
X215193571Y-107259285D01*
X215241190Y-107354523D01*
X215241190Y-107735476D01*
X215717380Y-106211666D02*
X215717380Y-106783095D01*
X215717380Y-106497380D02*
X214717380Y-106497380D01*
X214860238Y-106592619D01*
X214955476Y-106687857D01*
X215003095Y-106783095D01*
X214717380Y-105878333D02*
X214717380Y-105259285D01*
X215098333Y-105592619D01*
X215098333Y-105449761D01*
X215145952Y-105354523D01*
X215193571Y-105306904D01*
X215288809Y-105259285D01*
X215526904Y-105259285D01*
X215622142Y-105306904D01*
X215669761Y-105354523D01*
X215717380Y-105449761D01*
X215717380Y-105735476D01*
X215669761Y-105830714D01*
X215622142Y-105878333D01*
X214717380Y-104640238D02*
X214717380Y-104545000D01*
X214765000Y-104449761D01*
X214812619Y-104402142D01*
X214907857Y-104354523D01*
X215098333Y-104306904D01*
X215336428Y-104306904D01*
X215526904Y-104354523D01*
X215622142Y-104402142D01*
X215669761Y-104449761D01*
X215717380Y-104545000D01*
X215717380Y-104640238D01*
X215669761Y-104735476D01*
X215622142Y-104783095D01*
X215526904Y-104830714D01*
X215336428Y-104878333D01*
X215098333Y-104878333D01*
X214907857Y-104830714D01*
X214812619Y-104783095D01*
X214765000Y-104735476D01*
X214717380Y-104640238D01*
X214812619Y-114268095D02*
X214765000Y-114220476D01*
X214717380Y-114125238D01*
X214717380Y-113887142D01*
X214765000Y-113791904D01*
X214812619Y-113744285D01*
X214907857Y-113696666D01*
X215003095Y-113696666D01*
X215145952Y-113744285D01*
X215717380Y-114315714D01*
X215717380Y-113696666D01*
X214717380Y-113363333D02*
X214717380Y-112696666D01*
X215717380Y-113125238D01*
X214717380Y-112125238D02*
X214717380Y-112030000D01*
X214765000Y-111934761D01*
X214812619Y-111887142D01*
X214907857Y-111839523D01*
X215098333Y-111791904D01*
X215336428Y-111791904D01*
X215526904Y-111839523D01*
X215622142Y-111887142D01*
X215669761Y-111934761D01*
X215717380Y-112030000D01*
X215717380Y-112125238D01*
X215669761Y-112220476D01*
X215622142Y-112268095D01*
X215526904Y-112315714D01*
X215336428Y-112363333D01*
X215098333Y-112363333D01*
X214907857Y-112315714D01*
X214812619Y-112268095D01*
X214765000Y-112220476D01*
X214717380Y-112125238D01*
X212542380Y-107164047D02*
X212066190Y-107497380D01*
X212542380Y-107735476D02*
X211542380Y-107735476D01*
X211542380Y-107354523D01*
X211590000Y-107259285D01*
X211637619Y-107211666D01*
X211732857Y-107164047D01*
X211875714Y-107164047D01*
X211970952Y-107211666D01*
X212018571Y-107259285D01*
X212066190Y-107354523D01*
X212066190Y-107735476D01*
X212542380Y-106211666D02*
X212542380Y-106783095D01*
X212542380Y-106497380D02*
X211542380Y-106497380D01*
X211685238Y-106592619D01*
X211780476Y-106687857D01*
X211828095Y-106783095D01*
X211637619Y-105830714D02*
X211590000Y-105783095D01*
X211542380Y-105687857D01*
X211542380Y-105449761D01*
X211590000Y-105354523D01*
X211637619Y-105306904D01*
X211732857Y-105259285D01*
X211828095Y-105259285D01*
X211970952Y-105306904D01*
X212542380Y-105878333D01*
X212542380Y-105259285D01*
X212542380Y-104783095D02*
X212542380Y-104592619D01*
X212494761Y-104497380D01*
X212447142Y-104449761D01*
X212304285Y-104354523D01*
X212113809Y-104306904D01*
X211732857Y-104306904D01*
X211637619Y-104354523D01*
X211590000Y-104402142D01*
X211542380Y-104497380D01*
X211542380Y-104687857D01*
X211590000Y-104783095D01*
X211637619Y-104830714D01*
X211732857Y-104878333D01*
X211970952Y-104878333D01*
X212066190Y-104830714D01*
X212113809Y-104783095D01*
X212161428Y-104687857D01*
X212161428Y-104497380D01*
X212113809Y-104402142D01*
X212066190Y-104354523D01*
X211970952Y-104306904D01*
X211542380Y-113791904D02*
X211542380Y-113982380D01*
X211590000Y-114077619D01*
X211637619Y-114125238D01*
X211780476Y-114220476D01*
X211970952Y-114268095D01*
X212351904Y-114268095D01*
X212447142Y-114220476D01*
X212494761Y-114172857D01*
X212542380Y-114077619D01*
X212542380Y-113887142D01*
X212494761Y-113791904D01*
X212447142Y-113744285D01*
X212351904Y-113696666D01*
X212113809Y-113696666D01*
X212018571Y-113744285D01*
X211970952Y-113791904D01*
X211923333Y-113887142D01*
X211923333Y-114077619D01*
X211970952Y-114172857D01*
X212018571Y-114220476D01*
X212113809Y-114268095D01*
X211970952Y-113125238D02*
X211923333Y-113220476D01*
X211875714Y-113268095D01*
X211780476Y-113315714D01*
X211732857Y-113315714D01*
X211637619Y-113268095D01*
X211590000Y-113220476D01*
X211542380Y-113125238D01*
X211542380Y-112934761D01*
X211590000Y-112839523D01*
X211637619Y-112791904D01*
X211732857Y-112744285D01*
X211780476Y-112744285D01*
X211875714Y-112791904D01*
X211923333Y-112839523D01*
X211970952Y-112934761D01*
X211970952Y-113125238D01*
X212018571Y-113220476D01*
X212066190Y-113268095D01*
X212161428Y-113315714D01*
X212351904Y-113315714D01*
X212447142Y-113268095D01*
X212494761Y-113220476D01*
X212542380Y-113125238D01*
X212542380Y-112934761D01*
X212494761Y-112839523D01*
X212447142Y-112791904D01*
X212351904Y-112744285D01*
X212161428Y-112744285D01*
X212066190Y-112791904D01*
X212018571Y-112839523D01*
X211970952Y-112934761D01*
X211542380Y-112125238D02*
X211542380Y-112030000D01*
X211590000Y-111934761D01*
X211637619Y-111887142D01*
X211732857Y-111839523D01*
X211923333Y-111791904D01*
X212161428Y-111791904D01*
X212351904Y-111839523D01*
X212447142Y-111887142D01*
X212494761Y-111934761D01*
X212542380Y-112030000D01*
X212542380Y-112125238D01*
X212494761Y-112220476D01*
X212447142Y-112268095D01*
X212351904Y-112315714D01*
X212161428Y-112363333D01*
X211923333Y-112363333D01*
X211732857Y-112315714D01*
X211637619Y-112268095D01*
X211590000Y-112220476D01*
X211542380Y-112125238D01*
X206192380Y-107164047D02*
X205716190Y-107497380D01*
X206192380Y-107735476D02*
X205192380Y-107735476D01*
X205192380Y-107354523D01*
X205240000Y-107259285D01*
X205287619Y-107211666D01*
X205382857Y-107164047D01*
X205525714Y-107164047D01*
X205620952Y-107211666D01*
X205668571Y-107259285D01*
X205716190Y-107354523D01*
X205716190Y-107735476D01*
X206192380Y-106211666D02*
X206192380Y-106783095D01*
X206192380Y-106497380D02*
X205192380Y-106497380D01*
X205335238Y-106592619D01*
X205430476Y-106687857D01*
X205478095Y-106783095D01*
X205287619Y-105830714D02*
X205240000Y-105783095D01*
X205192380Y-105687857D01*
X205192380Y-105449761D01*
X205240000Y-105354523D01*
X205287619Y-105306904D01*
X205382857Y-105259285D01*
X205478095Y-105259285D01*
X205620952Y-105306904D01*
X206192380Y-105878333D01*
X206192380Y-105259285D01*
X205620952Y-104687857D02*
X205573333Y-104783095D01*
X205525714Y-104830714D01*
X205430476Y-104878333D01*
X205382857Y-104878333D01*
X205287619Y-104830714D01*
X205240000Y-104783095D01*
X205192380Y-104687857D01*
X205192380Y-104497380D01*
X205240000Y-104402142D01*
X205287619Y-104354523D01*
X205382857Y-104306904D01*
X205430476Y-104306904D01*
X205525714Y-104354523D01*
X205573333Y-104402142D01*
X205620952Y-104497380D01*
X205620952Y-104687857D01*
X205668571Y-104783095D01*
X205716190Y-104830714D01*
X205811428Y-104878333D01*
X206001904Y-104878333D01*
X206097142Y-104830714D01*
X206144761Y-104783095D01*
X206192380Y-104687857D01*
X206192380Y-104497380D01*
X206144761Y-104402142D01*
X206097142Y-104354523D01*
X206001904Y-104306904D01*
X205811428Y-104306904D01*
X205716190Y-104354523D01*
X205668571Y-104402142D01*
X205620952Y-104497380D01*
X205287619Y-114268095D02*
X205240000Y-114220476D01*
X205192380Y-114125238D01*
X205192380Y-113887142D01*
X205240000Y-113791904D01*
X205287619Y-113744285D01*
X205382857Y-113696666D01*
X205478095Y-113696666D01*
X205620952Y-113744285D01*
X206192380Y-114315714D01*
X206192380Y-113696666D01*
X205192380Y-113363333D02*
X205192380Y-112696666D01*
X206192380Y-113125238D01*
X205192380Y-112125238D02*
X205192380Y-112030000D01*
X205240000Y-111934761D01*
X205287619Y-111887142D01*
X205382857Y-111839523D01*
X205573333Y-111791904D01*
X205811428Y-111791904D01*
X206001904Y-111839523D01*
X206097142Y-111887142D01*
X206144761Y-111934761D01*
X206192380Y-112030000D01*
X206192380Y-112125238D01*
X206144761Y-112220476D01*
X206097142Y-112268095D01*
X206001904Y-112315714D01*
X205811428Y-112363333D01*
X205573333Y-112363333D01*
X205382857Y-112315714D01*
X205287619Y-112268095D01*
X205240000Y-112220476D01*
X205192380Y-112125238D01*
X203017380Y-107164047D02*
X202541190Y-107497380D01*
X203017380Y-107735476D02*
X202017380Y-107735476D01*
X202017380Y-107354523D01*
X202065000Y-107259285D01*
X202112619Y-107211666D01*
X202207857Y-107164047D01*
X202350714Y-107164047D01*
X202445952Y-107211666D01*
X202493571Y-107259285D01*
X202541190Y-107354523D01*
X202541190Y-107735476D01*
X203017380Y-106211666D02*
X203017380Y-106783095D01*
X203017380Y-106497380D02*
X202017380Y-106497380D01*
X202160238Y-106592619D01*
X202255476Y-106687857D01*
X202303095Y-106783095D01*
X202112619Y-105830714D02*
X202065000Y-105783095D01*
X202017380Y-105687857D01*
X202017380Y-105449761D01*
X202065000Y-105354523D01*
X202112619Y-105306904D01*
X202207857Y-105259285D01*
X202303095Y-105259285D01*
X202445952Y-105306904D01*
X203017380Y-105878333D01*
X203017380Y-105259285D01*
X202017380Y-104925952D02*
X202017380Y-104259285D01*
X203017380Y-104687857D01*
X202017380Y-113791904D02*
X202017380Y-113982380D01*
X202065000Y-114077619D01*
X202112619Y-114125238D01*
X202255476Y-114220476D01*
X202445952Y-114268095D01*
X202826904Y-114268095D01*
X202922142Y-114220476D01*
X202969761Y-114172857D01*
X203017380Y-114077619D01*
X203017380Y-113887142D01*
X202969761Y-113791904D01*
X202922142Y-113744285D01*
X202826904Y-113696666D01*
X202588809Y-113696666D01*
X202493571Y-113744285D01*
X202445952Y-113791904D01*
X202398333Y-113887142D01*
X202398333Y-114077619D01*
X202445952Y-114172857D01*
X202493571Y-114220476D01*
X202588809Y-114268095D01*
X202445952Y-113125238D02*
X202398333Y-113220476D01*
X202350714Y-113268095D01*
X202255476Y-113315714D01*
X202207857Y-113315714D01*
X202112619Y-113268095D01*
X202065000Y-113220476D01*
X202017380Y-113125238D01*
X202017380Y-112934761D01*
X202065000Y-112839523D01*
X202112619Y-112791904D01*
X202207857Y-112744285D01*
X202255476Y-112744285D01*
X202350714Y-112791904D01*
X202398333Y-112839523D01*
X202445952Y-112934761D01*
X202445952Y-113125238D01*
X202493571Y-113220476D01*
X202541190Y-113268095D01*
X202636428Y-113315714D01*
X202826904Y-113315714D01*
X202922142Y-113268095D01*
X202969761Y-113220476D01*
X203017380Y-113125238D01*
X203017380Y-112934761D01*
X202969761Y-112839523D01*
X202922142Y-112791904D01*
X202826904Y-112744285D01*
X202636428Y-112744285D01*
X202541190Y-112791904D01*
X202493571Y-112839523D01*
X202445952Y-112934761D01*
X202017380Y-112125238D02*
X202017380Y-112030000D01*
X202065000Y-111934761D01*
X202112619Y-111887142D01*
X202207857Y-111839523D01*
X202398333Y-111791904D01*
X202636428Y-111791904D01*
X202826904Y-111839523D01*
X202922142Y-111887142D01*
X202969761Y-111934761D01*
X203017380Y-112030000D01*
X203017380Y-112125238D01*
X202969761Y-112220476D01*
X202922142Y-112268095D01*
X202826904Y-112315714D01*
X202636428Y-112363333D01*
X202398333Y-112363333D01*
X202207857Y-112315714D01*
X202112619Y-112268095D01*
X202065000Y-112220476D01*
X202017380Y-112125238D01*
X196667380Y-107164047D02*
X196191190Y-107497380D01*
X196667380Y-107735476D02*
X195667380Y-107735476D01*
X195667380Y-107354523D01*
X195715000Y-107259285D01*
X195762619Y-107211666D01*
X195857857Y-107164047D01*
X196000714Y-107164047D01*
X196095952Y-107211666D01*
X196143571Y-107259285D01*
X196191190Y-107354523D01*
X196191190Y-107735476D01*
X196667380Y-106211666D02*
X196667380Y-106783095D01*
X196667380Y-106497380D02*
X195667380Y-106497380D01*
X195810238Y-106592619D01*
X195905476Y-106687857D01*
X195953095Y-106783095D01*
X195762619Y-105830714D02*
X195715000Y-105783095D01*
X195667380Y-105687857D01*
X195667380Y-105449761D01*
X195715000Y-105354523D01*
X195762619Y-105306904D01*
X195857857Y-105259285D01*
X195953095Y-105259285D01*
X196095952Y-105306904D01*
X196667380Y-105878333D01*
X196667380Y-105259285D01*
X195667380Y-104402142D02*
X195667380Y-104592619D01*
X195715000Y-104687857D01*
X195762619Y-104735476D01*
X195905476Y-104830714D01*
X196095952Y-104878333D01*
X196476904Y-104878333D01*
X196572142Y-104830714D01*
X196619761Y-104783095D01*
X196667380Y-104687857D01*
X196667380Y-104497380D01*
X196619761Y-104402142D01*
X196572142Y-104354523D01*
X196476904Y-104306904D01*
X196238809Y-104306904D01*
X196143571Y-104354523D01*
X196095952Y-104402142D01*
X196048333Y-104497380D01*
X196048333Y-104687857D01*
X196095952Y-104783095D01*
X196143571Y-104830714D01*
X196238809Y-104878333D01*
X195762619Y-114268095D02*
X195715000Y-114220476D01*
X195667380Y-114125238D01*
X195667380Y-113887142D01*
X195715000Y-113791904D01*
X195762619Y-113744285D01*
X195857857Y-113696666D01*
X195953095Y-113696666D01*
X196095952Y-113744285D01*
X196667380Y-114315714D01*
X196667380Y-113696666D01*
X195667380Y-113363333D02*
X195667380Y-112696666D01*
X196667380Y-113125238D01*
X195667380Y-112125238D02*
X195667380Y-112030000D01*
X195715000Y-111934761D01*
X195762619Y-111887142D01*
X195857857Y-111839523D01*
X196048333Y-111791904D01*
X196286428Y-111791904D01*
X196476904Y-111839523D01*
X196572142Y-111887142D01*
X196619761Y-111934761D01*
X196667380Y-112030000D01*
X196667380Y-112125238D01*
X196619761Y-112220476D01*
X196572142Y-112268095D01*
X196476904Y-112315714D01*
X196286428Y-112363333D01*
X196048333Y-112363333D01*
X195857857Y-112315714D01*
X195762619Y-112268095D01*
X195715000Y-112220476D01*
X195667380Y-112125238D01*
X193492380Y-107164047D02*
X193016190Y-107497380D01*
X193492380Y-107735476D02*
X192492380Y-107735476D01*
X192492380Y-107354523D01*
X192540000Y-107259285D01*
X192587619Y-107211666D01*
X192682857Y-107164047D01*
X192825714Y-107164047D01*
X192920952Y-107211666D01*
X192968571Y-107259285D01*
X193016190Y-107354523D01*
X193016190Y-107735476D01*
X193492380Y-106211666D02*
X193492380Y-106783095D01*
X193492380Y-106497380D02*
X192492380Y-106497380D01*
X192635238Y-106592619D01*
X192730476Y-106687857D01*
X192778095Y-106783095D01*
X192587619Y-105830714D02*
X192540000Y-105783095D01*
X192492380Y-105687857D01*
X192492380Y-105449761D01*
X192540000Y-105354523D01*
X192587619Y-105306904D01*
X192682857Y-105259285D01*
X192778095Y-105259285D01*
X192920952Y-105306904D01*
X193492380Y-105878333D01*
X193492380Y-105259285D01*
X192492380Y-104354523D02*
X192492380Y-104830714D01*
X192968571Y-104878333D01*
X192920952Y-104830714D01*
X192873333Y-104735476D01*
X192873333Y-104497380D01*
X192920952Y-104402142D01*
X192968571Y-104354523D01*
X193063809Y-104306904D01*
X193301904Y-104306904D01*
X193397142Y-104354523D01*
X193444761Y-104402142D01*
X193492380Y-104497380D01*
X193492380Y-104735476D01*
X193444761Y-104830714D01*
X193397142Y-104878333D01*
X192492380Y-113791904D02*
X192492380Y-113982380D01*
X192540000Y-114077619D01*
X192587619Y-114125238D01*
X192730476Y-114220476D01*
X192920952Y-114268095D01*
X193301904Y-114268095D01*
X193397142Y-114220476D01*
X193444761Y-114172857D01*
X193492380Y-114077619D01*
X193492380Y-113887142D01*
X193444761Y-113791904D01*
X193397142Y-113744285D01*
X193301904Y-113696666D01*
X193063809Y-113696666D01*
X192968571Y-113744285D01*
X192920952Y-113791904D01*
X192873333Y-113887142D01*
X192873333Y-114077619D01*
X192920952Y-114172857D01*
X192968571Y-114220476D01*
X193063809Y-114268095D01*
X192920952Y-113125238D02*
X192873333Y-113220476D01*
X192825714Y-113268095D01*
X192730476Y-113315714D01*
X192682857Y-113315714D01*
X192587619Y-113268095D01*
X192540000Y-113220476D01*
X192492380Y-113125238D01*
X192492380Y-112934761D01*
X192540000Y-112839523D01*
X192587619Y-112791904D01*
X192682857Y-112744285D01*
X192730476Y-112744285D01*
X192825714Y-112791904D01*
X192873333Y-112839523D01*
X192920952Y-112934761D01*
X192920952Y-113125238D01*
X192968571Y-113220476D01*
X193016190Y-113268095D01*
X193111428Y-113315714D01*
X193301904Y-113315714D01*
X193397142Y-113268095D01*
X193444761Y-113220476D01*
X193492380Y-113125238D01*
X193492380Y-112934761D01*
X193444761Y-112839523D01*
X193397142Y-112791904D01*
X193301904Y-112744285D01*
X193111428Y-112744285D01*
X193016190Y-112791904D01*
X192968571Y-112839523D01*
X192920952Y-112934761D01*
X192492380Y-112125238D02*
X192492380Y-112030000D01*
X192540000Y-111934761D01*
X192587619Y-111887142D01*
X192682857Y-111839523D01*
X192873333Y-111791904D01*
X193111428Y-111791904D01*
X193301904Y-111839523D01*
X193397142Y-111887142D01*
X193444761Y-111934761D01*
X193492380Y-112030000D01*
X193492380Y-112125238D01*
X193444761Y-112220476D01*
X193397142Y-112268095D01*
X193301904Y-112315714D01*
X193111428Y-112363333D01*
X192873333Y-112363333D01*
X192682857Y-112315714D01*
X192587619Y-112268095D01*
X192540000Y-112220476D01*
X192492380Y-112125238D01*
X163917380Y-123681904D02*
X164917380Y-123015238D01*
X163917380Y-123015238D02*
X164917380Y-123681904D01*
X164917380Y-122586666D02*
X164917380Y-122396190D01*
X164869761Y-122300952D01*
X164822142Y-122253333D01*
X164679285Y-122158095D01*
X164488809Y-122110476D01*
X164107857Y-122110476D01*
X164012619Y-122158095D01*
X163965000Y-122205714D01*
X163917380Y-122300952D01*
X163917380Y-122491428D01*
X163965000Y-122586666D01*
X164012619Y-122634285D01*
X164107857Y-122681904D01*
X164345952Y-122681904D01*
X164441190Y-122634285D01*
X164488809Y-122586666D01*
X164536428Y-122491428D01*
X164536428Y-122300952D01*
X164488809Y-122205714D01*
X164441190Y-122158095D01*
X164345952Y-122110476D01*
X163917380Y-121491428D02*
X163917380Y-121396190D01*
X163965000Y-121300952D01*
X164012619Y-121253333D01*
X164107857Y-121205714D01*
X164298333Y-121158095D01*
X164536428Y-121158095D01*
X164726904Y-121205714D01*
X164822142Y-121253333D01*
X164869761Y-121300952D01*
X164917380Y-121396190D01*
X164917380Y-121491428D01*
X164869761Y-121586666D01*
X164822142Y-121634285D01*
X164726904Y-121681904D01*
X164536428Y-121729523D01*
X164298333Y-121729523D01*
X164107857Y-121681904D01*
X164012619Y-121634285D01*
X163965000Y-121586666D01*
X163917380Y-121491428D01*
X164917380Y-120205714D02*
X164917380Y-120777142D01*
X164917380Y-120491428D02*
X163917380Y-120491428D01*
X164060238Y-120586666D01*
X164155476Y-120681904D01*
X164203095Y-120777142D01*
X161107380Y-140762857D02*
X161107380Y-141334285D01*
X161107380Y-141048571D02*
X160107380Y-141048571D01*
X160250238Y-141143809D01*
X160345476Y-141239047D01*
X160393095Y-141334285D01*
X160107380Y-139905714D02*
X160107380Y-140096190D01*
X160155000Y-140191428D01*
X160202619Y-140239047D01*
X160345476Y-140334285D01*
X160535952Y-140381904D01*
X160916904Y-140381904D01*
X161012142Y-140334285D01*
X161059761Y-140286666D01*
X161107380Y-140191428D01*
X161107380Y-140000952D01*
X161059761Y-139905714D01*
X161012142Y-139858095D01*
X160916904Y-139810476D01*
X160678809Y-139810476D01*
X160583571Y-139858095D01*
X160535952Y-139905714D01*
X160488333Y-140000952D01*
X160488333Y-140191428D01*
X160535952Y-140286666D01*
X160583571Y-140334285D01*
X160678809Y-140381904D01*
X161107380Y-139381904D02*
X160107380Y-139381904D01*
X160821666Y-139048571D01*
X160107380Y-138715238D01*
X161107380Y-138715238D01*
X161107380Y-138239047D02*
X160107380Y-138239047D01*
X160583571Y-138239047D02*
X160583571Y-137667619D01*
X161107380Y-137667619D02*
X160107380Y-137667619D01*
X160440714Y-137286666D02*
X160440714Y-136762857D01*
X161107380Y-137286666D01*
X161107380Y-136762857D01*
X161012142Y-135048571D02*
X161059761Y-135096190D01*
X161107380Y-135239047D01*
X161107380Y-135334285D01*
X161059761Y-135477142D01*
X160964523Y-135572380D01*
X160869285Y-135620000D01*
X160678809Y-135667619D01*
X160535952Y-135667619D01*
X160345476Y-135620000D01*
X160250238Y-135572380D01*
X160155000Y-135477142D01*
X160107380Y-135334285D01*
X160107380Y-135239047D01*
X160155000Y-135096190D01*
X160202619Y-135048571D01*
X160107380Y-134715238D02*
X161107380Y-134048571D01*
X160107380Y-134048571D02*
X161107380Y-134715238D01*
X160107380Y-133477142D02*
X160107380Y-133286666D01*
X160155000Y-133191428D01*
X160250238Y-133096190D01*
X160440714Y-133048571D01*
X160774047Y-133048571D01*
X160964523Y-133096190D01*
X161059761Y-133191428D01*
X161107380Y-133286666D01*
X161107380Y-133477142D01*
X161059761Y-133572380D01*
X160964523Y-133667619D01*
X160774047Y-133715238D01*
X160440714Y-133715238D01*
X160250238Y-133667619D01*
X160155000Y-133572380D01*
X160107380Y-133477142D01*
X161202619Y-132858095D02*
X161202619Y-132096190D01*
X161107380Y-131858095D02*
X160107380Y-131858095D01*
X160107380Y-131620000D01*
X160155000Y-131477142D01*
X160250238Y-131381904D01*
X160345476Y-131334285D01*
X160535952Y-131286666D01*
X160678809Y-131286666D01*
X160869285Y-131334285D01*
X160964523Y-131381904D01*
X161059761Y-131477142D01*
X161107380Y-131620000D01*
X161107380Y-131858095D01*
X161107380Y-130858095D02*
X160107380Y-130858095D01*
X161107380Y-130381904D02*
X160107380Y-130381904D01*
X160107380Y-130000952D01*
X160155000Y-129905714D01*
X160202619Y-129858095D01*
X160297857Y-129810476D01*
X160440714Y-129810476D01*
X160535952Y-129858095D01*
X160583571Y-129905714D01*
X160631190Y-130000952D01*
X160631190Y-130381904D01*
X161107380Y-128858095D02*
X161107380Y-129429523D01*
X161107380Y-129143809D02*
X160107380Y-129143809D01*
X160250238Y-129239047D01*
X160345476Y-129334285D01*
X160393095Y-129429523D01*
X160440714Y-128000952D02*
X161107380Y-128000952D01*
X160059761Y-128239047D02*
X160774047Y-128477142D01*
X160774047Y-127858095D01*
X168302380Y-135278571D02*
X167302380Y-135278571D01*
X168207142Y-134230952D02*
X168254761Y-134278571D01*
X168302380Y-134421428D01*
X168302380Y-134516666D01*
X168254761Y-134659523D01*
X168159523Y-134754761D01*
X168064285Y-134802380D01*
X167873809Y-134850000D01*
X167730952Y-134850000D01*
X167540476Y-134802380D01*
X167445238Y-134754761D01*
X167350000Y-134659523D01*
X167302380Y-134516666D01*
X167302380Y-134421428D01*
X167350000Y-134278571D01*
X167397619Y-134230952D01*
X168302380Y-133754761D02*
X168302380Y-133564285D01*
X168254761Y-133469047D01*
X168207142Y-133421428D01*
X168064285Y-133326190D01*
X167873809Y-133278571D01*
X167492857Y-133278571D01*
X167397619Y-133326190D01*
X167350000Y-133373809D01*
X167302380Y-133469047D01*
X167302380Y-133659523D01*
X167350000Y-133754761D01*
X167397619Y-133802380D01*
X167492857Y-133850000D01*
X167730952Y-133850000D01*
X167826190Y-133802380D01*
X167873809Y-133754761D01*
X167921428Y-133659523D01*
X167921428Y-133469047D01*
X167873809Y-133373809D01*
X167826190Y-133326190D01*
X167730952Y-133278571D01*
X168302380Y-132326190D02*
X168302380Y-132897619D01*
X168302380Y-132611904D02*
X167302380Y-132611904D01*
X167445238Y-132707142D01*
X167540476Y-132802380D01*
X167588095Y-132897619D01*
X167730952Y-131754761D02*
X167683333Y-131850000D01*
X167635714Y-131897619D01*
X167540476Y-131945238D01*
X167492857Y-131945238D01*
X167397619Y-131897619D01*
X167350000Y-131850000D01*
X167302380Y-131754761D01*
X167302380Y-131564285D01*
X167350000Y-131469047D01*
X167397619Y-131421428D01*
X167492857Y-131373809D01*
X167540476Y-131373809D01*
X167635714Y-131421428D01*
X167683333Y-131469047D01*
X167730952Y-131564285D01*
X167730952Y-131754761D01*
X167778571Y-131850000D01*
X167826190Y-131897619D01*
X167921428Y-131945238D01*
X168111904Y-131945238D01*
X168207142Y-131897619D01*
X168254761Y-131850000D01*
X168302380Y-131754761D01*
X168302380Y-131564285D01*
X168254761Y-131469047D01*
X168207142Y-131421428D01*
X168111904Y-131373809D01*
X167921428Y-131373809D01*
X167826190Y-131421428D01*
X167778571Y-131469047D01*
X167730952Y-131564285D01*
X190619523Y-132246666D02*
X191095714Y-132246666D01*
X190524285Y-132532380D02*
X190857619Y-131532380D01*
X191190952Y-132532380D01*
X191524285Y-132532380D02*
X191524285Y-131532380D01*
X191857619Y-132246666D01*
X192190952Y-131532380D01*
X192190952Y-132532380D01*
X193190952Y-131580000D02*
X193095714Y-131532380D01*
X192952857Y-131532380D01*
X192810000Y-131580000D01*
X192714761Y-131675238D01*
X192667142Y-131770476D01*
X192619523Y-131960952D01*
X192619523Y-132103809D01*
X192667142Y-132294285D01*
X192714761Y-132389523D01*
X192810000Y-132484761D01*
X192952857Y-132532380D01*
X193048095Y-132532380D01*
X193190952Y-132484761D01*
X193238571Y-132437142D01*
X193238571Y-132103809D01*
X193048095Y-132103809D01*
X194095714Y-131865714D02*
X194095714Y-132532380D01*
X193857619Y-131484761D02*
X193619523Y-132199047D01*
X194238571Y-132199047D01*
X194810000Y-131532380D02*
X194905238Y-131532380D01*
X195000476Y-131580000D01*
X195048095Y-131627619D01*
X195095714Y-131722857D01*
X195143333Y-131913333D01*
X195143333Y-132151428D01*
X195095714Y-132341904D01*
X195048095Y-132437142D01*
X195000476Y-132484761D01*
X194905238Y-132532380D01*
X194810000Y-132532380D01*
X194714761Y-132484761D01*
X194667142Y-132437142D01*
X194619523Y-132341904D01*
X194571904Y-132151428D01*
X194571904Y-131913333D01*
X194619523Y-131722857D01*
X194667142Y-131627619D01*
X194714761Y-131580000D01*
X194810000Y-131532380D01*
X195762380Y-131532380D02*
X195857619Y-131532380D01*
X195952857Y-131580000D01*
X196000476Y-131627619D01*
X196048095Y-131722857D01*
X196095714Y-131913333D01*
X196095714Y-132151428D01*
X196048095Y-132341904D01*
X196000476Y-132437142D01*
X195952857Y-132484761D01*
X195857619Y-132532380D01*
X195762380Y-132532380D01*
X195667142Y-132484761D01*
X195619523Y-132437142D01*
X195571904Y-132341904D01*
X195524285Y-132151428D01*
X195524285Y-131913333D01*
X195571904Y-131722857D01*
X195619523Y-131627619D01*
X195667142Y-131580000D01*
X195762380Y-131532380D01*
X197048095Y-132532380D02*
X196476666Y-132532380D01*
X196762380Y-132532380D02*
X196762380Y-131532380D01*
X196667142Y-131675238D01*
X196571904Y-131770476D01*
X196476666Y-131818095D01*
X197667142Y-131532380D02*
X197762380Y-131532380D01*
X197857619Y-131580000D01*
X197905238Y-131627619D01*
X197952857Y-131722857D01*
X198000476Y-131913333D01*
X198000476Y-132151428D01*
X197952857Y-132341904D01*
X197905238Y-132437142D01*
X197857619Y-132484761D01*
X197762380Y-132532380D01*
X197667142Y-132532380D01*
X197571904Y-132484761D01*
X197524285Y-132437142D01*
X197476666Y-132341904D01*
X197429047Y-132151428D01*
X197429047Y-131913333D01*
X197476666Y-131722857D01*
X197524285Y-131627619D01*
X197571904Y-131580000D01*
X197667142Y-131532380D01*
X168302380Y-130198571D02*
X167302380Y-130198571D01*
X168207142Y-129150952D02*
X168254761Y-129198571D01*
X168302380Y-129341428D01*
X168302380Y-129436666D01*
X168254761Y-129579523D01*
X168159523Y-129674761D01*
X168064285Y-129722380D01*
X167873809Y-129770000D01*
X167730952Y-129770000D01*
X167540476Y-129722380D01*
X167445238Y-129674761D01*
X167350000Y-129579523D01*
X167302380Y-129436666D01*
X167302380Y-129341428D01*
X167350000Y-129198571D01*
X167397619Y-129150952D01*
X168302380Y-128198571D02*
X168302380Y-128770000D01*
X168302380Y-128484285D02*
X167302380Y-128484285D01*
X167445238Y-128579523D01*
X167540476Y-128674761D01*
X167588095Y-128770000D01*
X168302380Y-127246190D02*
X168302380Y-127817619D01*
X168302380Y-127531904D02*
X167302380Y-127531904D01*
X167445238Y-127627142D01*
X167540476Y-127722380D01*
X167588095Y-127817619D01*
X167730952Y-126674761D02*
X167683333Y-126770000D01*
X167635714Y-126817619D01*
X167540476Y-126865238D01*
X167492857Y-126865238D01*
X167397619Y-126817619D01*
X167350000Y-126770000D01*
X167302380Y-126674761D01*
X167302380Y-126484285D01*
X167350000Y-126389047D01*
X167397619Y-126341428D01*
X167492857Y-126293809D01*
X167540476Y-126293809D01*
X167635714Y-126341428D01*
X167683333Y-126389047D01*
X167730952Y-126484285D01*
X167730952Y-126674761D01*
X167778571Y-126770000D01*
X167826190Y-126817619D01*
X167921428Y-126865238D01*
X168111904Y-126865238D01*
X168207142Y-126817619D01*
X168254761Y-126770000D01*
X168302380Y-126674761D01*
X168302380Y-126484285D01*
X168254761Y-126389047D01*
X168207142Y-126341428D01*
X168111904Y-126293809D01*
X167921428Y-126293809D01*
X167826190Y-126341428D01*
X167778571Y-126389047D01*
X167730952Y-126484285D01*
X190619523Y-129071666D02*
X191095714Y-129071666D01*
X190524285Y-129357380D02*
X190857619Y-128357380D01*
X191190952Y-129357380D01*
X191524285Y-129357380D02*
X191524285Y-128357380D01*
X191857619Y-129071666D01*
X192190952Y-128357380D01*
X192190952Y-129357380D01*
X193190952Y-128405000D02*
X193095714Y-128357380D01*
X192952857Y-128357380D01*
X192810000Y-128405000D01*
X192714761Y-128500238D01*
X192667142Y-128595476D01*
X192619523Y-128785952D01*
X192619523Y-128928809D01*
X192667142Y-129119285D01*
X192714761Y-129214523D01*
X192810000Y-129309761D01*
X192952857Y-129357380D01*
X193048095Y-129357380D01*
X193190952Y-129309761D01*
X193238571Y-129262142D01*
X193238571Y-128928809D01*
X193048095Y-128928809D01*
X194095714Y-128690714D02*
X194095714Y-129357380D01*
X193857619Y-128309761D02*
X193619523Y-129024047D01*
X194238571Y-129024047D01*
X194810000Y-128357380D02*
X194905238Y-128357380D01*
X195000476Y-128405000D01*
X195048095Y-128452619D01*
X195095714Y-128547857D01*
X195143333Y-128738333D01*
X195143333Y-128976428D01*
X195095714Y-129166904D01*
X195048095Y-129262142D01*
X195000476Y-129309761D01*
X194905238Y-129357380D01*
X194810000Y-129357380D01*
X194714761Y-129309761D01*
X194667142Y-129262142D01*
X194619523Y-129166904D01*
X194571904Y-128976428D01*
X194571904Y-128738333D01*
X194619523Y-128547857D01*
X194667142Y-128452619D01*
X194714761Y-128405000D01*
X194810000Y-128357380D01*
X195762380Y-128357380D02*
X195857619Y-128357380D01*
X195952857Y-128405000D01*
X196000476Y-128452619D01*
X196048095Y-128547857D01*
X196095714Y-128738333D01*
X196095714Y-128976428D01*
X196048095Y-129166904D01*
X196000476Y-129262142D01*
X195952857Y-129309761D01*
X195857619Y-129357380D01*
X195762380Y-129357380D01*
X195667142Y-129309761D01*
X195619523Y-129262142D01*
X195571904Y-129166904D01*
X195524285Y-128976428D01*
X195524285Y-128738333D01*
X195571904Y-128547857D01*
X195619523Y-128452619D01*
X195667142Y-128405000D01*
X195762380Y-128357380D01*
X196714761Y-128357380D02*
X196810000Y-128357380D01*
X196905238Y-128405000D01*
X196952857Y-128452619D01*
X197000476Y-128547857D01*
X197048095Y-128738333D01*
X197048095Y-128976428D01*
X197000476Y-129166904D01*
X196952857Y-129262142D01*
X196905238Y-129309761D01*
X196810000Y-129357380D01*
X196714761Y-129357380D01*
X196619523Y-129309761D01*
X196571904Y-129262142D01*
X196524285Y-129166904D01*
X196476666Y-128976428D01*
X196476666Y-128738333D01*
X196524285Y-128547857D01*
X196571904Y-128452619D01*
X196619523Y-128405000D01*
X196714761Y-128357380D01*
X197381428Y-128357380D02*
X198048095Y-128357380D01*
X197619523Y-129357380D01*
X222607142Y-130484285D02*
X222654761Y-130531904D01*
X222702380Y-130674761D01*
X222702380Y-130770000D01*
X222654761Y-130912857D01*
X222559523Y-131008095D01*
X222464285Y-131055714D01*
X222273809Y-131103333D01*
X222130952Y-131103333D01*
X221940476Y-131055714D01*
X221845238Y-131008095D01*
X221750000Y-130912857D01*
X221702380Y-130770000D01*
X221702380Y-130674761D01*
X221750000Y-130531904D01*
X221797619Y-130484285D01*
X222702380Y-129531904D02*
X222702380Y-130103333D01*
X222702380Y-129817619D02*
X221702380Y-129817619D01*
X221845238Y-129912857D01*
X221940476Y-130008095D01*
X221988095Y-130103333D01*
X221702380Y-128912857D02*
X221702380Y-128817619D01*
X221750000Y-128722380D01*
X221797619Y-128674761D01*
X221892857Y-128627142D01*
X222083333Y-128579523D01*
X222321428Y-128579523D01*
X222511904Y-128627142D01*
X222607142Y-128674761D01*
X222654761Y-128722380D01*
X222702380Y-128817619D01*
X222702380Y-128912857D01*
X222654761Y-129008095D01*
X222607142Y-129055714D01*
X222511904Y-129103333D01*
X222321428Y-129150952D01*
X222083333Y-129150952D01*
X221892857Y-129103333D01*
X221797619Y-129055714D01*
X221750000Y-129008095D01*
X221702380Y-128912857D01*
X222035714Y-127722380D02*
X222702380Y-127722380D01*
X221654761Y-127960476D02*
X222369047Y-128198571D01*
X222369047Y-127579523D01*
X222321428Y-127198571D02*
X222321428Y-126436666D01*
X221797619Y-126008095D02*
X221750000Y-125960476D01*
X221702380Y-125865238D01*
X221702380Y-125627142D01*
X221750000Y-125531904D01*
X221797619Y-125484285D01*
X221892857Y-125436666D01*
X221988095Y-125436666D01*
X222130952Y-125484285D01*
X222702380Y-126055714D01*
X222702380Y-125436666D01*
X222972380Y-129277857D02*
X222972380Y-129182619D01*
X223020000Y-129087380D01*
X223067619Y-129039761D01*
X223162857Y-128992142D01*
X223353333Y-128944523D01*
X223591428Y-128944523D01*
X223781904Y-128992142D01*
X223877142Y-129039761D01*
X223924761Y-129087380D01*
X223972380Y-129182619D01*
X223972380Y-129277857D01*
X223924761Y-129373095D01*
X223877142Y-129420714D01*
X223781904Y-129468333D01*
X223591428Y-129515952D01*
X223353333Y-129515952D01*
X223162857Y-129468333D01*
X223067619Y-129420714D01*
X223020000Y-129373095D01*
X222972380Y-129277857D01*
X223877142Y-128515952D02*
X223924761Y-128468333D01*
X223972380Y-128515952D01*
X223924761Y-128563571D01*
X223877142Y-128515952D01*
X223972380Y-128515952D01*
X223972380Y-127515952D02*
X223972380Y-128087380D01*
X223972380Y-127801666D02*
X222972380Y-127801666D01*
X223115238Y-127896904D01*
X223210476Y-127992142D01*
X223258095Y-128087380D01*
X223305714Y-126658809D02*
X223972380Y-126658809D01*
X223305714Y-127087380D02*
X223829523Y-127087380D01*
X223924761Y-127039761D01*
X223972380Y-126944523D01*
X223972380Y-126801666D01*
X223924761Y-126706428D01*
X223877142Y-126658809D01*
X223448571Y-125849285D02*
X223448571Y-126182619D01*
X223972380Y-126182619D02*
X222972380Y-126182619D01*
X222972380Y-125706428D01*
X173680714Y-143232142D02*
X173633095Y-143279761D01*
X173490238Y-143327380D01*
X173395000Y-143327380D01*
X173252142Y-143279761D01*
X173156904Y-143184523D01*
X173109285Y-143089285D01*
X173061666Y-142898809D01*
X173061666Y-142755952D01*
X173109285Y-142565476D01*
X173156904Y-142470238D01*
X173252142Y-142375000D01*
X173395000Y-142327380D01*
X173490238Y-142327380D01*
X173633095Y-142375000D01*
X173680714Y-142422619D01*
X174633095Y-143327380D02*
X174061666Y-143327380D01*
X174347380Y-143327380D02*
X174347380Y-142327380D01*
X174252142Y-142470238D01*
X174156904Y-142565476D01*
X174061666Y-142613095D01*
X175252142Y-142327380D02*
X175347380Y-142327380D01*
X175442619Y-142375000D01*
X175490238Y-142422619D01*
X175537857Y-142517857D01*
X175585476Y-142708333D01*
X175585476Y-142946428D01*
X175537857Y-143136904D01*
X175490238Y-143232142D01*
X175442619Y-143279761D01*
X175347380Y-143327380D01*
X175252142Y-143327380D01*
X175156904Y-143279761D01*
X175109285Y-143232142D01*
X175061666Y-143136904D01*
X175014047Y-142946428D01*
X175014047Y-142708333D01*
X175061666Y-142517857D01*
X175109285Y-142422619D01*
X175156904Y-142375000D01*
X175252142Y-142327380D01*
X176442619Y-142660714D02*
X176442619Y-143327380D01*
X176204523Y-142279761D02*
X175966428Y-142994047D01*
X176585476Y-142994047D01*
X176966428Y-142946428D02*
X177728333Y-142946428D01*
X178728333Y-143327380D02*
X178156904Y-143327380D01*
X178442619Y-143327380D02*
X178442619Y-142327380D01*
X178347380Y-142470238D01*
X178252142Y-142565476D01*
X178156904Y-142613095D01*
X175522142Y-143597380D02*
X175617380Y-143597380D01*
X175712619Y-143645000D01*
X175760238Y-143692619D01*
X175807857Y-143787857D01*
X175855476Y-143978333D01*
X175855476Y-144216428D01*
X175807857Y-144406904D01*
X175760238Y-144502142D01*
X175712619Y-144549761D01*
X175617380Y-144597380D01*
X175522142Y-144597380D01*
X175426904Y-144549761D01*
X175379285Y-144502142D01*
X175331666Y-144406904D01*
X175284047Y-144216428D01*
X175284047Y-143978333D01*
X175331666Y-143787857D01*
X175379285Y-143692619D01*
X175426904Y-143645000D01*
X175522142Y-143597380D01*
X176284047Y-144502142D02*
X176331666Y-144549761D01*
X176284047Y-144597380D01*
X176236428Y-144549761D01*
X176284047Y-144502142D01*
X176284047Y-144597380D01*
X177284047Y-144597380D02*
X176712619Y-144597380D01*
X176998333Y-144597380D02*
X176998333Y-143597380D01*
X176903095Y-143740238D01*
X176807857Y-143835476D01*
X176712619Y-143883095D01*
X178141190Y-143930714D02*
X178141190Y-144597380D01*
X177712619Y-143930714D02*
X177712619Y-144454523D01*
X177760238Y-144549761D01*
X177855476Y-144597380D01*
X177998333Y-144597380D01*
X178093571Y-144549761D01*
X178141190Y-144502142D01*
X178950714Y-144073571D02*
X178617380Y-144073571D01*
X178617380Y-144597380D02*
X178617380Y-143597380D01*
X179093571Y-143597380D01*
M02*
