G04 #@! TF.GenerationSoftware,KiCad,Pcbnew,(5.1.12)-1*
G04 #@! TF.CreationDate,2024-01-30T17:11:01+00:00*
G04 #@! TF.ProjectId,CPCVideo,43504356-6964-4656-9f2e-6b696361645f,rev?*
G04 #@! TF.SameCoordinates,Original*
G04 #@! TF.FileFunction,Soldermask,Top*
G04 #@! TF.FilePolarity,Negative*
%FSLAX46Y46*%
G04 Gerber Fmt 4.6, Leading zero omitted, Abs format (unit mm)*
G04 Created by KiCad (PCBNEW (5.1.12)-1) date 2024-01-30 17:11:01*
%MOMM*%
%LPD*%
G01*
G04 APERTURE LIST*
%ADD10C,0.100000*%
%ADD11R,1.600000X10.000000*%
%ADD12C,2.200000*%
%ADD13C,1.800000*%
%ADD14C,1.600000*%
%ADD15R,1.800000X1.100000*%
%ADD16O,1.200000X1.200000*%
%ADD17O,1.600000X1.200000*%
%ADD18O,1.600000X1.600000*%
%ADD19R,1.600000X1.600000*%
G04 APERTURE END LIST*
D10*
G36*
X250190000Y-160550000D02*
G01*
X250190000Y-171345000D01*
X156210000Y-171345000D01*
X156210000Y-160550000D01*
X250190000Y-160550000D01*
G37*
X250190000Y-160550000D02*
X250190000Y-171345000D01*
X156210000Y-171345000D01*
X156210000Y-160550000D01*
X250190000Y-160550000D01*
D11*
X247650000Y-165735000D03*
X245110000Y-165735000D03*
X242570000Y-165735000D03*
X240030000Y-165735000D03*
X237490000Y-165735000D03*
X234950000Y-165735000D03*
X232410000Y-165735000D03*
X229870000Y-165735000D03*
X227330000Y-165735000D03*
X224790000Y-165735000D03*
X222250000Y-165735000D03*
X219710000Y-165735000D03*
X217170000Y-165735000D03*
X214630000Y-165735000D03*
X212090000Y-165735000D03*
X209550000Y-165735000D03*
X207010000Y-165735000D03*
X204470000Y-165735000D03*
X201930000Y-165735000D03*
X199390000Y-165735000D03*
X196850000Y-165735000D03*
X194310000Y-165735000D03*
X191770000Y-165735000D03*
X189230000Y-165735000D03*
X186690000Y-165735000D03*
X184150000Y-165735000D03*
X181610000Y-165735000D03*
X179070000Y-165735000D03*
X176530000Y-165735000D03*
X173990000Y-165735000D03*
X171450000Y-165735000D03*
X168910000Y-165735000D03*
X166370000Y-165735000D03*
X163830000Y-165735000D03*
X161290000Y-165735000D03*
X158750000Y-165735000D03*
D12*
X251300000Y-125690000D03*
X251300000Y-120690000D03*
D13*
X236300000Y-123190000D03*
X241300000Y-130690000D03*
X238800000Y-128190000D03*
X241300000Y-123190000D03*
X238800000Y-118190000D03*
X241300000Y-115690000D03*
D14*
X240030000Y-105450000D03*
X240030000Y-107950000D03*
X235585000Y-105450000D03*
X235585000Y-107950000D03*
X244475000Y-105450000D03*
X244475000Y-107950000D03*
D15*
X230270000Y-113030000D03*
G36*
G01*
X230895000Y-111040000D02*
X229645000Y-111040000D01*
G75*
G02*
X229370000Y-110765000I0J275000D01*
G01*
X229370000Y-110215000D01*
G75*
G02*
X229645000Y-109940000I275000J0D01*
G01*
X230895000Y-109940000D01*
G75*
G02*
X231170000Y-110215000I0J-275000D01*
G01*
X231170000Y-110765000D01*
G75*
G02*
X230895000Y-111040000I-275000J0D01*
G01*
G37*
G36*
G01*
X228825000Y-112310000D02*
X227575000Y-112310000D01*
G75*
G02*
X227300000Y-112035000I0J275000D01*
G01*
X227300000Y-111485000D01*
G75*
G02*
X227575000Y-111210000I275000J0D01*
G01*
X228825000Y-111210000D01*
G75*
G02*
X229100000Y-111485000I0J-275000D01*
G01*
X229100000Y-112035000D01*
G75*
G02*
X228825000Y-112310000I-275000J0D01*
G01*
G37*
D16*
X187325000Y-145415000D03*
X188595000Y-144145000D03*
D17*
X189865000Y-145415000D03*
D18*
X187960000Y-116205000D03*
D14*
X175260000Y-116205000D03*
D18*
X187960000Y-112395000D03*
D14*
X175260000Y-112395000D03*
D18*
X207645000Y-144780000D03*
D14*
X200025000Y-144780000D03*
D18*
X175895000Y-147320000D03*
D14*
X183515000Y-147320000D03*
D18*
X221615000Y-109220000D03*
D14*
X221615000Y-116840000D03*
D18*
X227965000Y-116840000D03*
D14*
X227965000Y-124460000D03*
D18*
X224790000Y-109220000D03*
D14*
X224790000Y-116840000D03*
D18*
X231140000Y-124460000D03*
D14*
X231140000Y-116840000D03*
D18*
X218440000Y-116840000D03*
D14*
X218440000Y-109220000D03*
D18*
X208915000Y-116840000D03*
D14*
X208915000Y-109220000D03*
D18*
X199390000Y-116840000D03*
D14*
X199390000Y-109220000D03*
D18*
X215265000Y-109220000D03*
D14*
X215265000Y-116840000D03*
D18*
X212090000Y-109220000D03*
D14*
X212090000Y-116840000D03*
D18*
X205740000Y-109220000D03*
D14*
X205740000Y-116840000D03*
D18*
X202565000Y-109220000D03*
D14*
X202565000Y-116840000D03*
D18*
X196215000Y-109220000D03*
D14*
X196215000Y-116840000D03*
D18*
X193040000Y-109220000D03*
D14*
X193040000Y-116840000D03*
X164465000Y-127000000D03*
X156845000Y-127000000D03*
X156845000Y-142240000D03*
D19*
X164465000Y-142240000D03*
D18*
X170180000Y-124460000D03*
X218440000Y-139700000D03*
X172720000Y-124460000D03*
X215900000Y-139700000D03*
X175260000Y-124460000D03*
X213360000Y-139700000D03*
X177800000Y-124460000D03*
X210820000Y-139700000D03*
X180340000Y-124460000D03*
X208280000Y-139700000D03*
X182880000Y-124460000D03*
X205740000Y-139700000D03*
X185420000Y-124460000D03*
X203200000Y-139700000D03*
X187960000Y-124460000D03*
X200660000Y-139700000D03*
X190500000Y-124460000D03*
X198120000Y-139700000D03*
X193040000Y-124460000D03*
X195580000Y-139700000D03*
X195580000Y-124460000D03*
X193040000Y-139700000D03*
X198120000Y-124460000D03*
X190500000Y-139700000D03*
X200660000Y-124460000D03*
X187960000Y-139700000D03*
X203200000Y-124460000D03*
X185420000Y-139700000D03*
X205740000Y-124460000D03*
X182880000Y-139700000D03*
X208280000Y-124460000D03*
X180340000Y-139700000D03*
X210820000Y-124460000D03*
X177800000Y-139700000D03*
X213360000Y-124460000D03*
X175260000Y-139700000D03*
X215900000Y-124460000D03*
X172720000Y-139700000D03*
X218440000Y-124460000D03*
D19*
X170180000Y-139700000D03*
D18*
X170180000Y-121285000D03*
X218440000Y-136525000D03*
X172720000Y-121285000D03*
X215900000Y-136525000D03*
X175260000Y-121285000D03*
X213360000Y-136525000D03*
X177800000Y-121285000D03*
X210820000Y-136525000D03*
X180340000Y-121285000D03*
X208280000Y-136525000D03*
X182880000Y-121285000D03*
X205740000Y-136525000D03*
X185420000Y-121285000D03*
X203200000Y-136525000D03*
X187960000Y-121285000D03*
X200660000Y-136525000D03*
X190500000Y-121285000D03*
X198120000Y-136525000D03*
X193040000Y-121285000D03*
X195580000Y-136525000D03*
X195580000Y-121285000D03*
X193040000Y-136525000D03*
X198120000Y-121285000D03*
X190500000Y-136525000D03*
X200660000Y-121285000D03*
X187960000Y-136525000D03*
X203200000Y-121285000D03*
X185420000Y-136525000D03*
X205740000Y-121285000D03*
X182880000Y-136525000D03*
X208280000Y-121285000D03*
X180340000Y-136525000D03*
X210820000Y-121285000D03*
X177800000Y-136525000D03*
X213360000Y-121285000D03*
X175260000Y-136525000D03*
X215900000Y-121285000D03*
X172720000Y-136525000D03*
X218440000Y-121285000D03*
D19*
X170180000Y-136525000D03*
D14*
X222885000Y-121706000D03*
X222885000Y-124206000D03*
X180380000Y-143510000D03*
X182880000Y-143510000D03*
M02*
