G04 #@! TF.GenerationSoftware,KiCad,Pcbnew,(5.1.12)-1*
G04 #@! TF.CreationDate,2024-01-30T17:02:35+00:00*
G04 #@! TF.ProjectId,CPCRAMCtrl,43504352-414d-4437-9472-6c2e6b696361,rev?*
G04 #@! TF.SameCoordinates,Original*
G04 #@! TF.FileFunction,Soldermask,Top*
G04 #@! TF.FilePolarity,Negative*
%FSLAX46Y46*%
G04 Gerber Fmt 4.6, Leading zero omitted, Abs format (unit mm)*
G04 Created by KiCad (PCBNEW (5.1.12)-1) date 2024-01-30 17:02:35*
%MOMM*%
%LPD*%
G01*
G04 APERTURE LIST*
%ADD10C,0.100000*%
%ADD11R,1.600000X10.000000*%
%ADD12O,1.600000X1.600000*%
%ADD13R,1.600000X1.600000*%
%ADD14C,1.600000*%
%ADD15O,1.700000X1.700000*%
%ADD16R,1.700000X1.700000*%
G04 APERTURE END LIST*
D10*
G36*
X250190000Y-160655000D02*
G01*
X250190000Y-171450000D01*
X156210000Y-171450000D01*
X156210000Y-160655000D01*
X250190000Y-160655000D01*
G37*
X250190000Y-160655000D02*
X250190000Y-171450000D01*
X156210000Y-171450000D01*
X156210000Y-160655000D01*
X250190000Y-160655000D01*
D11*
X247650000Y-165840000D03*
X245110000Y-165840000D03*
X242570000Y-165840000D03*
X240030000Y-165840000D03*
X237490000Y-165840000D03*
X234950000Y-165840000D03*
X232410000Y-165840000D03*
X229870000Y-165840000D03*
X227330000Y-165840000D03*
X224790000Y-165840000D03*
X222250000Y-165840000D03*
X219710000Y-165840000D03*
X217170000Y-165840000D03*
X214630000Y-165840000D03*
X212090000Y-165840000D03*
X209550000Y-165840000D03*
X207010000Y-165840000D03*
X204470000Y-165840000D03*
X201930000Y-165840000D03*
X199390000Y-165840000D03*
X196850000Y-165840000D03*
X194310000Y-165840000D03*
X191770000Y-165840000D03*
X189230000Y-165840000D03*
X186690000Y-165840000D03*
X184150000Y-165840000D03*
X181610000Y-165840000D03*
X179070000Y-165840000D03*
X176530000Y-165840000D03*
X173990000Y-165840000D03*
X171450000Y-165840000D03*
X168910000Y-165840000D03*
X166370000Y-165840000D03*
X163830000Y-165840000D03*
X161290000Y-165840000D03*
X158750000Y-165840000D03*
D12*
X219075000Y-125095000D03*
X241935000Y-132715000D03*
X221615000Y-125095000D03*
X239395000Y-132715000D03*
X224155000Y-125095000D03*
X236855000Y-132715000D03*
X226695000Y-125095000D03*
X234315000Y-132715000D03*
X229235000Y-125095000D03*
X231775000Y-132715000D03*
X231775000Y-125095000D03*
X229235000Y-132715000D03*
X234315000Y-125095000D03*
X226695000Y-132715000D03*
X236855000Y-125095000D03*
X224155000Y-132715000D03*
X239395000Y-125095000D03*
X221615000Y-132715000D03*
X241935000Y-125095000D03*
D13*
X219075000Y-132715000D03*
D12*
X193675000Y-137160000D03*
X208915000Y-144780000D03*
X196215000Y-137160000D03*
X206375000Y-144780000D03*
X198755000Y-137160000D03*
X203835000Y-144780000D03*
X201295000Y-137160000D03*
X201295000Y-144780000D03*
X203835000Y-137160000D03*
X198755000Y-144780000D03*
X206375000Y-137160000D03*
X196215000Y-144780000D03*
X208915000Y-137160000D03*
D13*
X193675000Y-144780000D03*
D12*
X186055000Y-108585000D03*
D14*
X178435000Y-108585000D03*
D12*
X168275000Y-137160000D03*
X183515000Y-144780000D03*
X170815000Y-137160000D03*
X180975000Y-144780000D03*
X173355000Y-137160000D03*
X178435000Y-144780000D03*
X175895000Y-137160000D03*
X175895000Y-144780000D03*
X178435000Y-137160000D03*
X173355000Y-144780000D03*
X180975000Y-137160000D03*
X170815000Y-144780000D03*
X183515000Y-137160000D03*
D13*
X168275000Y-144780000D03*
D12*
X231775000Y-113030000D03*
X249555000Y-120650000D03*
X234315000Y-113030000D03*
X247015000Y-120650000D03*
X236855000Y-113030000D03*
X244475000Y-120650000D03*
X239395000Y-113030000D03*
X241935000Y-120650000D03*
X241935000Y-113030000D03*
X239395000Y-120650000D03*
X244475000Y-113030000D03*
X236855000Y-120650000D03*
X247015000Y-113030000D03*
X234315000Y-120650000D03*
X249555000Y-113030000D03*
D13*
X231775000Y-120650000D03*
D12*
X193675000Y-125095000D03*
X208915000Y-132715000D03*
X196215000Y-125095000D03*
X206375000Y-132715000D03*
X198755000Y-125095000D03*
X203835000Y-132715000D03*
X201295000Y-125095000D03*
X201295000Y-132715000D03*
X203835000Y-125095000D03*
X198755000Y-132715000D03*
X206375000Y-125095000D03*
X196215000Y-132715000D03*
X208915000Y-125095000D03*
D13*
X193675000Y-132715000D03*
D12*
X168275000Y-125095000D03*
X183515000Y-132715000D03*
X170815000Y-125095000D03*
X180975000Y-132715000D03*
X173355000Y-125095000D03*
X178435000Y-132715000D03*
X175895000Y-125095000D03*
X175895000Y-132715000D03*
X178435000Y-125095000D03*
X173355000Y-132715000D03*
X180975000Y-125095000D03*
X170815000Y-132715000D03*
X183515000Y-125095000D03*
D13*
X168275000Y-132715000D03*
D12*
X219075000Y-137160000D03*
X241935000Y-144780000D03*
X221615000Y-137160000D03*
X239395000Y-144780000D03*
X224155000Y-137160000D03*
X236855000Y-144780000D03*
X226695000Y-137160000D03*
X234315000Y-144780000D03*
X229235000Y-137160000D03*
X231775000Y-144780000D03*
X231775000Y-137160000D03*
X229235000Y-144780000D03*
X234315000Y-137160000D03*
X226695000Y-144780000D03*
X236855000Y-137160000D03*
X224155000Y-144780000D03*
X239395000Y-137160000D03*
X221615000Y-144780000D03*
X241935000Y-137160000D03*
D13*
X219075000Y-144780000D03*
D12*
X250190000Y-125095000D03*
D14*
X250190000Y-132715000D03*
D12*
X247015000Y-125095000D03*
D14*
X247015000Y-132715000D03*
D12*
X247015000Y-137160000D03*
D14*
X247015000Y-144780000D03*
D12*
X189230000Y-120650000D03*
D14*
X189230000Y-113030000D03*
D12*
X168275000Y-113030000D03*
X183515000Y-120650000D03*
X170815000Y-113030000D03*
X180975000Y-120650000D03*
X173355000Y-113030000D03*
X178435000Y-120650000D03*
X175895000Y-113030000D03*
X175895000Y-120650000D03*
X178435000Y-113030000D03*
X173355000Y-120650000D03*
X180975000Y-113030000D03*
X170815000Y-120650000D03*
X183515000Y-113030000D03*
D13*
X168275000Y-120650000D03*
D14*
X226100000Y-113030000D03*
X228600000Y-113030000D03*
D15*
X213995000Y-109220000D03*
D16*
X213995000Y-106680000D03*
D15*
X219075000Y-109220000D03*
D16*
X219075000Y-106680000D03*
D15*
X216535000Y-109220000D03*
D16*
X216535000Y-106680000D03*
D12*
X198755000Y-113030000D03*
X221615000Y-120650000D03*
X201295000Y-113030000D03*
X219075000Y-120650000D03*
X203835000Y-113030000D03*
X216535000Y-120650000D03*
X206375000Y-113030000D03*
X213995000Y-120650000D03*
X208915000Y-113030000D03*
X211455000Y-120650000D03*
X211455000Y-113030000D03*
X208915000Y-120650000D03*
X213995000Y-113030000D03*
X206375000Y-120650000D03*
X216535000Y-113030000D03*
X203835000Y-120650000D03*
X219075000Y-113030000D03*
X201295000Y-120650000D03*
X221615000Y-113030000D03*
D13*
X198755000Y-120650000D03*
D14*
X213400000Y-125135000D03*
X215900000Y-125135000D03*
X213400000Y-137160000D03*
X215900000Y-137160000D03*
X193080000Y-113030000D03*
X195580000Y-113030000D03*
X188000000Y-125135000D03*
X190500000Y-125135000D03*
X188000000Y-137200000D03*
X190500000Y-137200000D03*
X162600000Y-113070000D03*
X165100000Y-113070000D03*
X162600000Y-125095000D03*
X165100000Y-125095000D03*
X162600000Y-137200000D03*
X165100000Y-137200000D03*
M02*
