G04 #@! TF.GenerationSoftware,KiCad,Pcbnew,(5.1.12)-1*
G04 #@! TF.CreationDate,2023-07-18T15:52:43+01:00*
G04 #@! TF.ProjectId,CPCRAMCtrl,43504352-414d-4437-9472-6c2e6b696361,rev?*
G04 #@! TF.SameCoordinates,Original*
G04 #@! TF.FileFunction,Legend,Bot*
G04 #@! TF.FilePolarity,Positive*
%FSLAX46Y46*%
G04 Gerber Fmt 4.6, Leading zero omitted, Abs format (unit mm)*
G04 Created by KiCad (PCBNEW (5.1.12)-1) date 2023-07-18 15:52:43*
%MOMM*%
%LPD*%
G01*
G04 APERTURE LIST*
%ADD10C,0.150000*%
%ADD11C,0.120000*%
G04 APERTURE END LIST*
D10*
X210484404Y-127707380D02*
X210484404Y-126707380D01*
X210008214Y-127040714D02*
X210008214Y-127707380D01*
X210008214Y-127135952D02*
X209960595Y-127088333D01*
X209865357Y-127040714D01*
X209722500Y-127040714D01*
X209627261Y-127088333D01*
X209579642Y-127183571D01*
X209579642Y-127707380D01*
X209151071Y-127659761D02*
X209055833Y-127707380D01*
X208865357Y-127707380D01*
X208770119Y-127659761D01*
X208722500Y-127564523D01*
X208722500Y-127516904D01*
X208770119Y-127421666D01*
X208865357Y-127374047D01*
X209008214Y-127374047D01*
X209103452Y-127326428D01*
X209151071Y-127231190D01*
X209151071Y-127183571D01*
X209103452Y-127088333D01*
X209008214Y-127040714D01*
X208865357Y-127040714D01*
X208770119Y-127088333D01*
X208436785Y-127040714D02*
X208055833Y-127040714D01*
X208293928Y-126707380D02*
X208293928Y-127564523D01*
X208246309Y-127659761D01*
X208151071Y-127707380D01*
X208055833Y-127707380D01*
X207293928Y-127707380D02*
X207293928Y-127183571D01*
X207341547Y-127088333D01*
X207436785Y-127040714D01*
X207627261Y-127040714D01*
X207722500Y-127088333D01*
X207293928Y-127659761D02*
X207389166Y-127707380D01*
X207627261Y-127707380D01*
X207722500Y-127659761D01*
X207770119Y-127564523D01*
X207770119Y-127469285D01*
X207722500Y-127374047D01*
X207627261Y-127326428D01*
X207389166Y-127326428D01*
X207293928Y-127278809D01*
X206674880Y-127707380D02*
X206770119Y-127659761D01*
X206817738Y-127564523D01*
X206817738Y-126707380D01*
X206151071Y-127707380D02*
X206246309Y-127659761D01*
X206293928Y-127564523D01*
X206293928Y-126707380D01*
X205008214Y-127707380D02*
X205008214Y-126707380D01*
X203960595Y-127612142D02*
X204008214Y-127659761D01*
X204151071Y-127707380D01*
X204246309Y-127707380D01*
X204389166Y-127659761D01*
X204484404Y-127564523D01*
X204532023Y-127469285D01*
X204579642Y-127278809D01*
X204579642Y-127135952D01*
X204532023Y-126945476D01*
X204484404Y-126850238D01*
X204389166Y-126755000D01*
X204246309Y-126707380D01*
X204151071Y-126707380D01*
X204008214Y-126755000D01*
X203960595Y-126802619D01*
X203008214Y-127707380D02*
X203579642Y-127707380D01*
X203293928Y-127707380D02*
X203293928Y-126707380D01*
X203389166Y-126850238D01*
X203484404Y-126945476D01*
X203579642Y-126993095D01*
X202055833Y-127707380D02*
X202627261Y-127707380D01*
X202341547Y-127707380D02*
X202341547Y-126707380D01*
X202436785Y-126850238D01*
X202532023Y-126945476D01*
X202627261Y-126993095D01*
X201484404Y-127135952D02*
X201579642Y-127088333D01*
X201627261Y-127040714D01*
X201674880Y-126945476D01*
X201674880Y-126897857D01*
X201627261Y-126802619D01*
X201579642Y-126755000D01*
X201484404Y-126707380D01*
X201293928Y-126707380D01*
X201198690Y-126755000D01*
X201151071Y-126802619D01*
X201103452Y-126897857D01*
X201103452Y-126945476D01*
X201151071Y-127040714D01*
X201198690Y-127088333D01*
X201293928Y-127135952D01*
X201484404Y-127135952D01*
X201579642Y-127183571D01*
X201627261Y-127231190D01*
X201674880Y-127326428D01*
X201674880Y-127516904D01*
X201627261Y-127612142D01*
X201579642Y-127659761D01*
X201484404Y-127707380D01*
X201293928Y-127707380D01*
X201198690Y-127659761D01*
X201151071Y-127612142D01*
X201103452Y-127516904D01*
X201103452Y-127326428D01*
X201151071Y-127231190D01*
X201198690Y-127183571D01*
X201293928Y-127135952D01*
X200055833Y-127040714D02*
X199674880Y-127040714D01*
X199912976Y-126707380D02*
X199912976Y-127564523D01*
X199865357Y-127659761D01*
X199770119Y-127707380D01*
X199674880Y-127707380D01*
X199198690Y-127707380D02*
X199293928Y-127659761D01*
X199341547Y-127612142D01*
X199389166Y-127516904D01*
X199389166Y-127231190D01*
X199341547Y-127135952D01*
X199293928Y-127088333D01*
X199198690Y-127040714D01*
X199055833Y-127040714D01*
X198960595Y-127088333D01*
X198912976Y-127135952D01*
X198865357Y-127231190D01*
X198865357Y-127516904D01*
X198912976Y-127612142D01*
X198960595Y-127659761D01*
X199055833Y-127707380D01*
X199198690Y-127707380D01*
X197246309Y-127707380D02*
X197246309Y-127183571D01*
X197293928Y-127088333D01*
X197389166Y-127040714D01*
X197579642Y-127040714D01*
X197674880Y-127088333D01*
X197246309Y-127659761D02*
X197341547Y-127707380D01*
X197579642Y-127707380D01*
X197674880Y-127659761D01*
X197722500Y-127564523D01*
X197722500Y-127469285D01*
X197674880Y-127374047D01*
X197579642Y-127326428D01*
X197341547Y-127326428D01*
X197246309Y-127278809D01*
X196341547Y-127659761D02*
X196436785Y-127707380D01*
X196627261Y-127707380D01*
X196722500Y-127659761D01*
X196770119Y-127612142D01*
X196817738Y-127516904D01*
X196817738Y-127231190D01*
X196770119Y-127135952D01*
X196722500Y-127088333D01*
X196627261Y-127040714D01*
X196436785Y-127040714D01*
X196341547Y-127088333D01*
X195484404Y-127659761D02*
X195579642Y-127707380D01*
X195770119Y-127707380D01*
X195865357Y-127659761D01*
X195912976Y-127612142D01*
X195960595Y-127516904D01*
X195960595Y-127231190D01*
X195912976Y-127135952D01*
X195865357Y-127088333D01*
X195770119Y-127040714D01*
X195579642Y-127040714D01*
X195484404Y-127088333D01*
X194674880Y-127659761D02*
X194770119Y-127707380D01*
X194960595Y-127707380D01*
X195055833Y-127659761D01*
X195103452Y-127564523D01*
X195103452Y-127183571D01*
X195055833Y-127088333D01*
X194960595Y-127040714D01*
X194770119Y-127040714D01*
X194674880Y-127088333D01*
X194627261Y-127183571D01*
X194627261Y-127278809D01*
X195103452Y-127374047D01*
X194246309Y-127659761D02*
X194151071Y-127707380D01*
X193960595Y-127707380D01*
X193865357Y-127659761D01*
X193817738Y-127564523D01*
X193817738Y-127516904D01*
X193865357Y-127421666D01*
X193960595Y-127374047D01*
X194103452Y-127374047D01*
X194198690Y-127326428D01*
X194246309Y-127231190D01*
X194246309Y-127183571D01*
X194198690Y-127088333D01*
X194103452Y-127040714D01*
X193960595Y-127040714D01*
X193865357Y-127088333D01*
X193436785Y-127659761D02*
X193341547Y-127707380D01*
X193151071Y-127707380D01*
X193055833Y-127659761D01*
X193008214Y-127564523D01*
X193008214Y-127516904D01*
X193055833Y-127421666D01*
X193151071Y-127374047D01*
X193293928Y-127374047D01*
X193389166Y-127326428D01*
X193436785Y-127231190D01*
X193436785Y-127183571D01*
X193389166Y-127088333D01*
X193293928Y-127040714D01*
X193151071Y-127040714D01*
X193055833Y-127088333D01*
X191817738Y-127707380D02*
X191817738Y-127040714D01*
X191817738Y-127135952D02*
X191770119Y-127088333D01*
X191674880Y-127040714D01*
X191532023Y-127040714D01*
X191436785Y-127088333D01*
X191389166Y-127183571D01*
X191389166Y-127707380D01*
X191389166Y-127183571D02*
X191341547Y-127088333D01*
X191246309Y-127040714D01*
X191103452Y-127040714D01*
X191008214Y-127088333D01*
X190960595Y-127183571D01*
X190960595Y-127707380D01*
X190341547Y-127707380D02*
X190436785Y-127659761D01*
X190484404Y-127612142D01*
X190532023Y-127516904D01*
X190532023Y-127231190D01*
X190484404Y-127135952D01*
X190436785Y-127088333D01*
X190341547Y-127040714D01*
X190198690Y-127040714D01*
X190103452Y-127088333D01*
X190055833Y-127135952D01*
X190008214Y-127231190D01*
X190008214Y-127516904D01*
X190055833Y-127612142D01*
X190103452Y-127659761D01*
X190198690Y-127707380D01*
X190341547Y-127707380D01*
X189579642Y-127707380D02*
X189579642Y-127040714D01*
X189579642Y-127231190D02*
X189532023Y-127135952D01*
X189484404Y-127088333D01*
X189389166Y-127040714D01*
X189293928Y-127040714D01*
X188579642Y-127659761D02*
X188674880Y-127707380D01*
X188865357Y-127707380D01*
X188960595Y-127659761D01*
X189008214Y-127564523D01*
X189008214Y-127183571D01*
X188960595Y-127088333D01*
X188865357Y-127040714D01*
X188674880Y-127040714D01*
X188579642Y-127088333D01*
X188532023Y-127183571D01*
X188532023Y-127278809D01*
X189008214Y-127374047D01*
X187484404Y-127040714D02*
X187103452Y-127040714D01*
X187341547Y-126707380D02*
X187341547Y-127564523D01*
X187293928Y-127659761D01*
X187198690Y-127707380D01*
X187103452Y-127707380D01*
X186770119Y-127707380D02*
X186770119Y-126707380D01*
X186341547Y-127707380D02*
X186341547Y-127183571D01*
X186389166Y-127088333D01*
X186484404Y-127040714D01*
X186627261Y-127040714D01*
X186722500Y-127088333D01*
X186770119Y-127135952D01*
X185436785Y-127707380D02*
X185436785Y-127183571D01*
X185484404Y-127088333D01*
X185579642Y-127040714D01*
X185770119Y-127040714D01*
X185865357Y-127088333D01*
X185436785Y-127659761D02*
X185532023Y-127707380D01*
X185770119Y-127707380D01*
X185865357Y-127659761D01*
X185912976Y-127564523D01*
X185912976Y-127469285D01*
X185865357Y-127374047D01*
X185770119Y-127326428D01*
X185532023Y-127326428D01*
X185436785Y-127278809D01*
X184960595Y-127040714D02*
X184960595Y-127707380D01*
X184960595Y-127135952D02*
X184912976Y-127088333D01*
X184817738Y-127040714D01*
X184674880Y-127040714D01*
X184579642Y-127088333D01*
X184532023Y-127183571D01*
X184532023Y-127707380D01*
X182865357Y-126707380D02*
X183055833Y-126707380D01*
X183151071Y-126755000D01*
X183198690Y-126802619D01*
X183293928Y-126945476D01*
X183341547Y-127135952D01*
X183341547Y-127516904D01*
X183293928Y-127612142D01*
X183246309Y-127659761D01*
X183151071Y-127707380D01*
X182960595Y-127707380D01*
X182865357Y-127659761D01*
X182817738Y-127612142D01*
X182770119Y-127516904D01*
X182770119Y-127278809D01*
X182817738Y-127183571D01*
X182865357Y-127135952D01*
X182960595Y-127088333D01*
X183151071Y-127088333D01*
X183246309Y-127135952D01*
X183293928Y-127183571D01*
X183341547Y-127278809D01*
X181912976Y-127040714D02*
X181912976Y-127707380D01*
X182151071Y-126659761D02*
X182389166Y-127374047D01*
X181770119Y-127374047D01*
X181389166Y-127707380D02*
X181389166Y-126707380D01*
X181293928Y-127326428D02*
X181008214Y-127707380D01*
X181008214Y-127040714D02*
X181389166Y-127421666D01*
X179246309Y-127707380D02*
X179579642Y-127231190D01*
X179817738Y-127707380D02*
X179817738Y-126707380D01*
X179436785Y-126707380D01*
X179341547Y-126755000D01*
X179293928Y-126802619D01*
X179246309Y-126897857D01*
X179246309Y-127040714D01*
X179293928Y-127135952D01*
X179341547Y-127183571D01*
X179436785Y-127231190D01*
X179817738Y-127231190D01*
X178865357Y-127421666D02*
X178389166Y-127421666D01*
X178960595Y-127707380D02*
X178627261Y-126707380D01*
X178293928Y-127707380D01*
X177960595Y-127707380D02*
X177960595Y-126707380D01*
X177627261Y-127421666D01*
X177293928Y-126707380D01*
X177293928Y-127707380D01*
X176817738Y-127612142D02*
X176770119Y-127659761D01*
X176817738Y-127707380D01*
X176865357Y-127659761D01*
X176817738Y-127612142D01*
X176817738Y-127707380D01*
X210484404Y-129357380D02*
X210484404Y-128357380D01*
X210151071Y-128690714D02*
X209770119Y-128690714D01*
X210008214Y-129357380D02*
X210008214Y-128500238D01*
X209960595Y-128405000D01*
X209865357Y-128357380D01*
X209770119Y-128357380D01*
X208674880Y-128690714D02*
X208674880Y-129357380D01*
X208674880Y-128785952D02*
X208627261Y-128738333D01*
X208532023Y-128690714D01*
X208389166Y-128690714D01*
X208293928Y-128738333D01*
X208246309Y-128833571D01*
X208246309Y-129357380D01*
X207627261Y-129357380D02*
X207722500Y-129309761D01*
X207770119Y-129262142D01*
X207817738Y-129166904D01*
X207817738Y-128881190D01*
X207770119Y-128785952D01*
X207722500Y-128738333D01*
X207627261Y-128690714D01*
X207484404Y-128690714D01*
X207389166Y-128738333D01*
X207341547Y-128785952D01*
X207293928Y-128881190D01*
X207293928Y-129166904D01*
X207341547Y-129262142D01*
X207389166Y-129309761D01*
X207484404Y-129357380D01*
X207627261Y-129357380D01*
X207008214Y-128690714D02*
X206627261Y-128690714D01*
X206865357Y-128357380D02*
X206865357Y-129214523D01*
X206817738Y-129309761D01*
X206722500Y-129357380D01*
X206627261Y-129357380D01*
X205532023Y-129357380D02*
X205532023Y-128690714D01*
X205532023Y-128357380D02*
X205579642Y-128405000D01*
X205532023Y-128452619D01*
X205484404Y-128405000D01*
X205532023Y-128357380D01*
X205532023Y-128452619D01*
X205055833Y-128690714D02*
X205055833Y-129357380D01*
X205055833Y-128785952D02*
X205008214Y-128738333D01*
X204912976Y-128690714D01*
X204770119Y-128690714D01*
X204674880Y-128738333D01*
X204627261Y-128833571D01*
X204627261Y-129357380D01*
X204198690Y-129309761D02*
X204103452Y-129357380D01*
X203912976Y-129357380D01*
X203817738Y-129309761D01*
X203770119Y-129214523D01*
X203770119Y-129166904D01*
X203817738Y-129071666D01*
X203912976Y-129024047D01*
X204055833Y-129024047D01*
X204151071Y-128976428D01*
X204198690Y-128881190D01*
X204198690Y-128833571D01*
X204151071Y-128738333D01*
X204055833Y-128690714D01*
X203912976Y-128690714D01*
X203817738Y-128738333D01*
X203484404Y-128690714D02*
X203103452Y-128690714D01*
X203341547Y-128357380D02*
X203341547Y-129214523D01*
X203293928Y-129309761D01*
X203198690Y-129357380D01*
X203103452Y-129357380D01*
X202341547Y-129357380D02*
X202341547Y-128833571D01*
X202389166Y-128738333D01*
X202484404Y-128690714D01*
X202674880Y-128690714D01*
X202770119Y-128738333D01*
X202341547Y-129309761D02*
X202436785Y-129357380D01*
X202674880Y-129357380D01*
X202770119Y-129309761D01*
X202817738Y-129214523D01*
X202817738Y-129119285D01*
X202770119Y-129024047D01*
X202674880Y-128976428D01*
X202436785Y-128976428D01*
X202341547Y-128928809D01*
X201722500Y-129357380D02*
X201817738Y-129309761D01*
X201865357Y-129214523D01*
X201865357Y-128357380D01*
X201198690Y-129357380D02*
X201293928Y-129309761D01*
X201341547Y-129214523D01*
X201341547Y-128357380D01*
X200817738Y-129357380D02*
X200817738Y-128690714D01*
X200817738Y-128357380D02*
X200865357Y-128405000D01*
X200817738Y-128452619D01*
X200770119Y-128405000D01*
X200817738Y-128357380D01*
X200817738Y-128452619D01*
X200341547Y-128690714D02*
X200341547Y-129357380D01*
X200341547Y-128785952D02*
X200293928Y-128738333D01*
X200198690Y-128690714D01*
X200055833Y-128690714D01*
X199960595Y-128738333D01*
X199912976Y-128833571D01*
X199912976Y-129357380D01*
X199008214Y-128690714D02*
X199008214Y-129500238D01*
X199055833Y-129595476D01*
X199103452Y-129643095D01*
X199198690Y-129690714D01*
X199341547Y-129690714D01*
X199436785Y-129643095D01*
X199008214Y-129309761D02*
X199103452Y-129357380D01*
X199293928Y-129357380D01*
X199389166Y-129309761D01*
X199436785Y-129262142D01*
X199484404Y-129166904D01*
X199484404Y-128881190D01*
X199436785Y-128785952D01*
X199389166Y-128738333D01*
X199293928Y-128690714D01*
X199103452Y-128690714D01*
X199008214Y-128738333D01*
X197770119Y-129357380D02*
X197770119Y-128357380D01*
X196722500Y-129262142D02*
X196770119Y-129309761D01*
X196912976Y-129357380D01*
X197008214Y-129357380D01*
X197151071Y-129309761D01*
X197246309Y-129214523D01*
X197293928Y-129119285D01*
X197341547Y-128928809D01*
X197341547Y-128785952D01*
X197293928Y-128595476D01*
X197246309Y-128500238D01*
X197151071Y-128405000D01*
X197008214Y-128357380D01*
X196912976Y-128357380D01*
X196770119Y-128405000D01*
X196722500Y-128452619D01*
X195770119Y-129357380D02*
X196341547Y-129357380D01*
X196055833Y-129357380D02*
X196055833Y-128357380D01*
X196151071Y-128500238D01*
X196246309Y-128595476D01*
X196341547Y-128643095D01*
X194817738Y-129357380D02*
X195389166Y-129357380D01*
X195103452Y-129357380D02*
X195103452Y-128357380D01*
X195198690Y-128500238D01*
X195293928Y-128595476D01*
X195389166Y-128643095D01*
X194246309Y-128785952D02*
X194341547Y-128738333D01*
X194389166Y-128690714D01*
X194436785Y-128595476D01*
X194436785Y-128547857D01*
X194389166Y-128452619D01*
X194341547Y-128405000D01*
X194246309Y-128357380D01*
X194055833Y-128357380D01*
X193960595Y-128405000D01*
X193912976Y-128452619D01*
X193865357Y-128547857D01*
X193865357Y-128595476D01*
X193912976Y-128690714D01*
X193960595Y-128738333D01*
X194055833Y-128785952D01*
X194246309Y-128785952D01*
X194341547Y-128833571D01*
X194389166Y-128881190D01*
X194436785Y-128976428D01*
X194436785Y-129166904D01*
X194389166Y-129262142D01*
X194341547Y-129309761D01*
X194246309Y-129357380D01*
X194055833Y-129357380D01*
X193960595Y-129309761D01*
X193912976Y-129262142D01*
X193865357Y-129166904D01*
X193865357Y-128976428D01*
X193912976Y-128881190D01*
X193960595Y-128833571D01*
X194055833Y-128785952D01*
X193389166Y-129309761D02*
X193389166Y-129357380D01*
X193436785Y-129452619D01*
X193484404Y-129500238D01*
X192198690Y-129357380D02*
X192198690Y-128690714D01*
X192198690Y-128357380D02*
X192246309Y-128405000D01*
X192198690Y-128452619D01*
X192151071Y-128405000D01*
X192198690Y-128357380D01*
X192198690Y-128452619D01*
X191722500Y-128690714D02*
X191722500Y-129357380D01*
X191722500Y-128785952D02*
X191674880Y-128738333D01*
X191579642Y-128690714D01*
X191436785Y-128690714D01*
X191341547Y-128738333D01*
X191293928Y-128833571D01*
X191293928Y-129357380D01*
X190865357Y-129309761D02*
X190770119Y-129357380D01*
X190579642Y-129357380D01*
X190484404Y-129309761D01*
X190436785Y-129214523D01*
X190436785Y-129166904D01*
X190484404Y-129071666D01*
X190579642Y-129024047D01*
X190722500Y-129024047D01*
X190817738Y-128976428D01*
X190865357Y-128881190D01*
X190865357Y-128833571D01*
X190817738Y-128738333D01*
X190722500Y-128690714D01*
X190579642Y-128690714D01*
X190484404Y-128738333D01*
X190151071Y-128690714D02*
X189770119Y-128690714D01*
X190008214Y-128357380D02*
X190008214Y-129214523D01*
X189960595Y-129309761D01*
X189865357Y-129357380D01*
X189770119Y-129357380D01*
X189008214Y-129357380D02*
X189008214Y-128833571D01*
X189055833Y-128738333D01*
X189151071Y-128690714D01*
X189341547Y-128690714D01*
X189436785Y-128738333D01*
X189008214Y-129309761D02*
X189103452Y-129357380D01*
X189341547Y-129357380D01*
X189436785Y-129309761D01*
X189484404Y-129214523D01*
X189484404Y-129119285D01*
X189436785Y-129024047D01*
X189341547Y-128976428D01*
X189103452Y-128976428D01*
X189008214Y-128928809D01*
X188389166Y-129357380D02*
X188484404Y-129309761D01*
X188532023Y-129214523D01*
X188532023Y-128357380D01*
X187865357Y-129357380D02*
X187960595Y-129309761D01*
X188008214Y-129214523D01*
X188008214Y-128357380D01*
X186246309Y-129357380D02*
X186722500Y-129357380D01*
X186722500Y-128357380D01*
X185912976Y-129357380D02*
X185912976Y-128357380D01*
X185341547Y-129357380D02*
X185770119Y-128785952D01*
X185341547Y-128357380D02*
X185912976Y-128928809D01*
X184436785Y-128357380D02*
X184912976Y-128357380D01*
X184960595Y-128833571D01*
X184912976Y-128785952D01*
X184817738Y-128738333D01*
X184579642Y-128738333D01*
X184484404Y-128785952D01*
X184436785Y-128833571D01*
X184389166Y-128928809D01*
X184389166Y-129166904D01*
X184436785Y-129262142D01*
X184484404Y-129309761D01*
X184579642Y-129357380D01*
X184817738Y-129357380D01*
X184912976Y-129309761D01*
X184960595Y-129262142D01*
X183912976Y-129309761D02*
X183912976Y-129357380D01*
X183960595Y-129452619D01*
X184008214Y-129500238D01*
X182246309Y-129357380D02*
X182722500Y-129357380D01*
X182722500Y-128357380D01*
X181912976Y-129357380D02*
X181912976Y-128357380D01*
X181341547Y-129357380D02*
X181770119Y-128785952D01*
X181341547Y-128357380D02*
X181912976Y-128928809D01*
X180484404Y-128357380D02*
X180674880Y-128357380D01*
X180770119Y-128405000D01*
X180817738Y-128452619D01*
X180912976Y-128595476D01*
X180960595Y-128785952D01*
X180960595Y-129166904D01*
X180912976Y-129262142D01*
X180865357Y-129309761D01*
X180770119Y-129357380D01*
X180579642Y-129357380D01*
X180484404Y-129309761D01*
X180436785Y-129262142D01*
X180389166Y-129166904D01*
X180389166Y-128928809D01*
X180436785Y-128833571D01*
X180484404Y-128785952D01*
X180579642Y-128738333D01*
X180770119Y-128738333D01*
X180865357Y-128785952D01*
X180912976Y-128833571D01*
X180960595Y-128928809D01*
X179912976Y-129309761D02*
X179912976Y-129357380D01*
X179960595Y-129452619D01*
X180008214Y-129500238D01*
X178246309Y-129357380D02*
X178722500Y-129357380D01*
X178722500Y-128357380D01*
X177912976Y-129357380D02*
X177912976Y-128357380D01*
X177341547Y-129357380D02*
X177770119Y-128785952D01*
X177341547Y-128357380D02*
X177912976Y-128928809D01*
X177008214Y-128357380D02*
X176341547Y-128357380D01*
X176770119Y-129357380D01*
X175960595Y-129262142D02*
X175912976Y-129309761D01*
X175960595Y-129357380D01*
X176008214Y-129309761D01*
X175960595Y-129262142D01*
X175960595Y-129357380D01*
X210484404Y-131007380D02*
X210484404Y-130007380D01*
X210246309Y-130007380D01*
X210103452Y-130055000D01*
X210008214Y-130150238D01*
X209960595Y-130245476D01*
X209912976Y-130435952D01*
X209912976Y-130578809D01*
X209960595Y-130769285D01*
X210008214Y-130864523D01*
X210103452Y-130959761D01*
X210246309Y-131007380D01*
X210484404Y-131007380D01*
X209341547Y-131007380D02*
X209436785Y-130959761D01*
X209484404Y-130912142D01*
X209532023Y-130816904D01*
X209532023Y-130531190D01*
X209484404Y-130435952D01*
X209436785Y-130388333D01*
X209341547Y-130340714D01*
X209198690Y-130340714D01*
X209103452Y-130388333D01*
X209055833Y-130435952D01*
X209008214Y-130531190D01*
X209008214Y-130816904D01*
X209055833Y-130912142D01*
X209103452Y-130959761D01*
X209198690Y-131007380D01*
X209341547Y-131007380D01*
X207817738Y-131007380D02*
X207817738Y-130007380D01*
X207246309Y-131007380D01*
X207246309Y-130007380D01*
X206579642Y-130007380D02*
X206389166Y-130007380D01*
X206293928Y-130055000D01*
X206198690Y-130150238D01*
X206151071Y-130340714D01*
X206151071Y-130674047D01*
X206198690Y-130864523D01*
X206293928Y-130959761D01*
X206389166Y-131007380D01*
X206579642Y-131007380D01*
X206674880Y-130959761D01*
X206770119Y-130864523D01*
X206817738Y-130674047D01*
X206817738Y-130340714D01*
X206770119Y-130150238D01*
X206674880Y-130055000D01*
X206579642Y-130007380D01*
X205865357Y-130007380D02*
X205293928Y-130007380D01*
X205579642Y-131007380D02*
X205579642Y-130007380D01*
X204198690Y-131007380D02*
X204198690Y-130340714D01*
X204198690Y-130007380D02*
X204246309Y-130055000D01*
X204198690Y-130102619D01*
X204151071Y-130055000D01*
X204198690Y-130007380D01*
X204198690Y-130102619D01*
X203722500Y-130340714D02*
X203722500Y-131007380D01*
X203722500Y-130435952D02*
X203674880Y-130388333D01*
X203579642Y-130340714D01*
X203436785Y-130340714D01*
X203341547Y-130388333D01*
X203293928Y-130483571D01*
X203293928Y-131007380D01*
X202865357Y-130959761D02*
X202770119Y-131007380D01*
X202579642Y-131007380D01*
X202484404Y-130959761D01*
X202436785Y-130864523D01*
X202436785Y-130816904D01*
X202484404Y-130721666D01*
X202579642Y-130674047D01*
X202722500Y-130674047D01*
X202817738Y-130626428D01*
X202865357Y-130531190D01*
X202865357Y-130483571D01*
X202817738Y-130388333D01*
X202722500Y-130340714D01*
X202579642Y-130340714D01*
X202484404Y-130388333D01*
X202151071Y-130340714D02*
X201770119Y-130340714D01*
X202008214Y-130007380D02*
X202008214Y-130864523D01*
X201960595Y-130959761D01*
X201865357Y-131007380D01*
X201770119Y-131007380D01*
X201008214Y-131007380D02*
X201008214Y-130483571D01*
X201055833Y-130388333D01*
X201151071Y-130340714D01*
X201341547Y-130340714D01*
X201436785Y-130388333D01*
X201008214Y-130959761D02*
X201103452Y-131007380D01*
X201341547Y-131007380D01*
X201436785Y-130959761D01*
X201484404Y-130864523D01*
X201484404Y-130769285D01*
X201436785Y-130674047D01*
X201341547Y-130626428D01*
X201103452Y-130626428D01*
X201008214Y-130578809D01*
X200389166Y-131007380D02*
X200484404Y-130959761D01*
X200532023Y-130864523D01*
X200532023Y-130007380D01*
X199865357Y-131007380D02*
X199960595Y-130959761D01*
X200008214Y-130864523D01*
X200008214Y-130007380D01*
X198722500Y-131007380D02*
X198722500Y-130007380D01*
X198722500Y-130388333D02*
X198627261Y-130340714D01*
X198436785Y-130340714D01*
X198341547Y-130388333D01*
X198293928Y-130435952D01*
X198246309Y-130531190D01*
X198246309Y-130816904D01*
X198293928Y-130912142D01*
X198341547Y-130959761D01*
X198436785Y-131007380D01*
X198627261Y-131007380D01*
X198722500Y-130959761D01*
X197674880Y-131007380D02*
X197770119Y-130959761D01*
X197817738Y-130912142D01*
X197865357Y-130816904D01*
X197865357Y-130531190D01*
X197817738Y-130435952D01*
X197770119Y-130388333D01*
X197674880Y-130340714D01*
X197532023Y-130340714D01*
X197436785Y-130388333D01*
X197389166Y-130435952D01*
X197341547Y-130531190D01*
X197341547Y-130816904D01*
X197389166Y-130912142D01*
X197436785Y-130959761D01*
X197532023Y-131007380D01*
X197674880Y-131007380D01*
X197055833Y-130340714D02*
X196674880Y-130340714D01*
X196912976Y-130007380D02*
X196912976Y-130864523D01*
X196865357Y-130959761D01*
X196770119Y-131007380D01*
X196674880Y-131007380D01*
X196341547Y-131007380D02*
X196341547Y-130007380D01*
X195912976Y-131007380D02*
X195912976Y-130483571D01*
X195960595Y-130388333D01*
X196055833Y-130340714D01*
X196198690Y-130340714D01*
X196293928Y-130388333D01*
X196341547Y-130435952D01*
X194674880Y-131007380D02*
X194674880Y-130007380D01*
X193627261Y-130912142D02*
X193674880Y-130959761D01*
X193817738Y-131007380D01*
X193912976Y-131007380D01*
X194055833Y-130959761D01*
X194151071Y-130864523D01*
X194198690Y-130769285D01*
X194246309Y-130578809D01*
X194246309Y-130435952D01*
X194198690Y-130245476D01*
X194151071Y-130150238D01*
X194055833Y-130055000D01*
X193912976Y-130007380D01*
X193817738Y-130007380D01*
X193674880Y-130055000D01*
X193627261Y-130102619D01*
X192674880Y-131007380D02*
X193246309Y-131007380D01*
X192960595Y-131007380D02*
X192960595Y-130007380D01*
X193055833Y-130150238D01*
X193151071Y-130245476D01*
X193246309Y-130293095D01*
X191722500Y-131007380D02*
X192293928Y-131007380D01*
X192008214Y-131007380D02*
X192008214Y-130007380D01*
X192103452Y-130150238D01*
X192198690Y-130245476D01*
X192293928Y-130293095D01*
X191151071Y-130435952D02*
X191246309Y-130388333D01*
X191293928Y-130340714D01*
X191341547Y-130245476D01*
X191341547Y-130197857D01*
X191293928Y-130102619D01*
X191246309Y-130055000D01*
X191151071Y-130007380D01*
X190960595Y-130007380D01*
X190865357Y-130055000D01*
X190817738Y-130102619D01*
X190770119Y-130197857D01*
X190770119Y-130245476D01*
X190817738Y-130340714D01*
X190865357Y-130388333D01*
X190960595Y-130435952D01*
X191151071Y-130435952D01*
X191246309Y-130483571D01*
X191293928Y-130531190D01*
X191341547Y-130626428D01*
X191341547Y-130816904D01*
X191293928Y-130912142D01*
X191246309Y-130959761D01*
X191151071Y-131007380D01*
X190960595Y-131007380D01*
X190865357Y-130959761D01*
X190817738Y-130912142D01*
X190770119Y-130816904D01*
X190770119Y-130626428D01*
X190817738Y-130531190D01*
X190865357Y-130483571D01*
X190960595Y-130435952D01*
X189151071Y-131007380D02*
X189151071Y-130483571D01*
X189198690Y-130388333D01*
X189293928Y-130340714D01*
X189484404Y-130340714D01*
X189579642Y-130388333D01*
X189151071Y-130959761D02*
X189246309Y-131007380D01*
X189484404Y-131007380D01*
X189579642Y-130959761D01*
X189627261Y-130864523D01*
X189627261Y-130769285D01*
X189579642Y-130674047D01*
X189484404Y-130626428D01*
X189246309Y-130626428D01*
X189151071Y-130578809D01*
X188674880Y-130340714D02*
X188674880Y-131007380D01*
X188674880Y-130435952D02*
X188627261Y-130388333D01*
X188532023Y-130340714D01*
X188389166Y-130340714D01*
X188293928Y-130388333D01*
X188246309Y-130483571D01*
X188246309Y-131007380D01*
X187341547Y-131007380D02*
X187341547Y-130007380D01*
X187341547Y-130959761D02*
X187436785Y-131007380D01*
X187627261Y-131007380D01*
X187722500Y-130959761D01*
X187770119Y-130912142D01*
X187817738Y-130816904D01*
X187817738Y-130531190D01*
X187770119Y-130435952D01*
X187722500Y-130388333D01*
X187627261Y-130340714D01*
X187436785Y-130340714D01*
X187341547Y-130388333D01*
X185960595Y-131007380D02*
X186055833Y-130959761D01*
X186103452Y-130864523D01*
X186103452Y-130007380D01*
X185579642Y-131007380D02*
X185579642Y-130340714D01*
X185579642Y-130007380D02*
X185627261Y-130055000D01*
X185579642Y-130102619D01*
X185532023Y-130055000D01*
X185579642Y-130007380D01*
X185579642Y-130102619D01*
X185103452Y-130340714D02*
X185103452Y-131007380D01*
X185103452Y-130435952D02*
X185055833Y-130388333D01*
X184960595Y-130340714D01*
X184817738Y-130340714D01*
X184722500Y-130388333D01*
X184674880Y-130483571D01*
X184674880Y-131007380D01*
X184198690Y-131007380D02*
X184198690Y-130007380D01*
X184103452Y-130626428D02*
X183817738Y-131007380D01*
X183817738Y-130340714D02*
X184198690Y-130721666D01*
X183436785Y-130959761D02*
X183341547Y-131007380D01*
X183151071Y-131007380D01*
X183055833Y-130959761D01*
X183008214Y-130864523D01*
X183008214Y-130816904D01*
X183055833Y-130721666D01*
X183151071Y-130674047D01*
X183293928Y-130674047D01*
X183389166Y-130626428D01*
X183436785Y-130531190D01*
X183436785Y-130483571D01*
X183389166Y-130388333D01*
X183293928Y-130340714D01*
X183151071Y-130340714D01*
X183055833Y-130388333D01*
X182579642Y-130912142D02*
X182532023Y-130959761D01*
X182579642Y-131007380D01*
X182627261Y-130959761D01*
X182579642Y-130912142D01*
X182579642Y-131007380D01*
X241974047Y-110577380D02*
X241402619Y-110577380D01*
X241688333Y-111577380D02*
X241688333Y-110577380D01*
X240926428Y-111577380D02*
X241021666Y-111529761D01*
X241069285Y-111482142D01*
X241116904Y-111386904D01*
X241116904Y-111101190D01*
X241069285Y-111005952D01*
X241021666Y-110958333D01*
X240926428Y-110910714D01*
X240783571Y-110910714D01*
X240688333Y-110958333D01*
X240640714Y-111005952D01*
X240593095Y-111101190D01*
X240593095Y-111386904D01*
X240640714Y-111482142D01*
X240688333Y-111529761D01*
X240783571Y-111577380D01*
X240926428Y-111577380D01*
X238831190Y-111577380D02*
X239164523Y-111101190D01*
X239402619Y-111577380D02*
X239402619Y-110577380D01*
X239021666Y-110577380D01*
X238926428Y-110625000D01*
X238878809Y-110672619D01*
X238831190Y-110767857D01*
X238831190Y-110910714D01*
X238878809Y-111005952D01*
X238926428Y-111053571D01*
X239021666Y-111101190D01*
X239402619Y-111101190D01*
X238450238Y-111291666D02*
X237974047Y-111291666D01*
X238545476Y-111577380D02*
X238212142Y-110577380D01*
X237878809Y-111577380D01*
X237545476Y-111577380D02*
X237545476Y-110577380D01*
X237212142Y-111291666D01*
X236878809Y-110577380D01*
X236878809Y-111577380D01*
X235640714Y-111577380D02*
X235640714Y-110577380D01*
X235640714Y-110958333D02*
X235545476Y-110910714D01*
X235355000Y-110910714D01*
X235259761Y-110958333D01*
X235212142Y-111005952D01*
X235164523Y-111101190D01*
X235164523Y-111386904D01*
X235212142Y-111482142D01*
X235259761Y-111529761D01*
X235355000Y-111577380D01*
X235545476Y-111577380D01*
X235640714Y-111529761D01*
X234593095Y-111577380D02*
X234688333Y-111529761D01*
X234735952Y-111482142D01*
X234783571Y-111386904D01*
X234783571Y-111101190D01*
X234735952Y-111005952D01*
X234688333Y-110958333D01*
X234593095Y-110910714D01*
X234450238Y-110910714D01*
X234355000Y-110958333D01*
X234307380Y-111005952D01*
X234259761Y-111101190D01*
X234259761Y-111386904D01*
X234307380Y-111482142D01*
X234355000Y-111529761D01*
X234450238Y-111577380D01*
X234593095Y-111577380D01*
X233402619Y-111577380D02*
X233402619Y-111053571D01*
X233450238Y-110958333D01*
X233545476Y-110910714D01*
X233735952Y-110910714D01*
X233831190Y-110958333D01*
X233402619Y-111529761D02*
X233497857Y-111577380D01*
X233735952Y-111577380D01*
X233831190Y-111529761D01*
X233878809Y-111434523D01*
X233878809Y-111339285D01*
X233831190Y-111244047D01*
X233735952Y-111196428D01*
X233497857Y-111196428D01*
X233402619Y-111148809D01*
X232926428Y-111577380D02*
X232926428Y-110910714D01*
X232926428Y-111101190D02*
X232878809Y-111005952D01*
X232831190Y-110958333D01*
X232735952Y-110910714D01*
X232640714Y-110910714D01*
X231878809Y-111577380D02*
X231878809Y-110577380D01*
X231878809Y-111529761D02*
X231974047Y-111577380D01*
X232164523Y-111577380D01*
X232259761Y-111529761D01*
X232307380Y-111482142D01*
X232355000Y-111386904D01*
X232355000Y-111101190D01*
X232307380Y-111005952D01*
X232259761Y-110958333D01*
X232164523Y-110910714D01*
X231974047Y-110910714D01*
X231878809Y-110958333D01*
X210532023Y-108881666D02*
X210055833Y-108881666D01*
X210627261Y-109167380D02*
X210293928Y-108167380D01*
X209960595Y-109167380D01*
X208865357Y-109167380D02*
X208865357Y-108500714D01*
X208865357Y-108595952D02*
X208817738Y-108548333D01*
X208722500Y-108500714D01*
X208579642Y-108500714D01*
X208484404Y-108548333D01*
X208436785Y-108643571D01*
X208436785Y-109167380D01*
X208436785Y-108643571D02*
X208389166Y-108548333D01*
X208293928Y-108500714D01*
X208151071Y-108500714D01*
X208055833Y-108548333D01*
X208008214Y-108643571D01*
X208008214Y-109167380D01*
X207389166Y-109167380D02*
X207484404Y-109119761D01*
X207532023Y-109072142D01*
X207579642Y-108976904D01*
X207579642Y-108691190D01*
X207532023Y-108595952D01*
X207484404Y-108548333D01*
X207389166Y-108500714D01*
X207246309Y-108500714D01*
X207151071Y-108548333D01*
X207103452Y-108595952D01*
X207055833Y-108691190D01*
X207055833Y-108976904D01*
X207103452Y-109072142D01*
X207151071Y-109119761D01*
X207246309Y-109167380D01*
X207389166Y-109167380D01*
X206198690Y-109167380D02*
X206198690Y-108167380D01*
X206198690Y-109119761D02*
X206293928Y-109167380D01*
X206484404Y-109167380D01*
X206579642Y-109119761D01*
X206627261Y-109072142D01*
X206674880Y-108976904D01*
X206674880Y-108691190D01*
X206627261Y-108595952D01*
X206579642Y-108548333D01*
X206484404Y-108500714D01*
X206293928Y-108500714D01*
X206198690Y-108548333D01*
X205293928Y-108500714D02*
X205293928Y-109167380D01*
X205722500Y-108500714D02*
X205722500Y-109024523D01*
X205674880Y-109119761D01*
X205579642Y-109167380D01*
X205436785Y-109167380D01*
X205341547Y-109119761D01*
X205293928Y-109072142D01*
X204674880Y-109167380D02*
X204770119Y-109119761D01*
X204817738Y-109024523D01*
X204817738Y-108167380D01*
X203865357Y-109167380D02*
X203865357Y-108643571D01*
X203912976Y-108548333D01*
X204008214Y-108500714D01*
X204198690Y-108500714D01*
X204293928Y-108548333D01*
X203865357Y-109119761D02*
X203960595Y-109167380D01*
X204198690Y-109167380D01*
X204293928Y-109119761D01*
X204341547Y-109024523D01*
X204341547Y-108929285D01*
X204293928Y-108834047D01*
X204198690Y-108786428D01*
X203960595Y-108786428D01*
X203865357Y-108738809D01*
X203389166Y-109167380D02*
X203389166Y-108500714D01*
X203389166Y-108691190D02*
X203341547Y-108595952D01*
X203293928Y-108548333D01*
X203198690Y-108500714D01*
X203103452Y-108500714D01*
X202055833Y-108881666D02*
X201579642Y-108881666D01*
X202151071Y-109167380D02*
X201817738Y-108167380D01*
X201484404Y-109167380D01*
X201151071Y-109167380D02*
X201151071Y-108500714D01*
X201151071Y-108595952D02*
X201103452Y-108548333D01*
X201008214Y-108500714D01*
X200865357Y-108500714D01*
X200770119Y-108548333D01*
X200722500Y-108643571D01*
X200722500Y-109167380D01*
X200722500Y-108643571D02*
X200674880Y-108548333D01*
X200579642Y-108500714D01*
X200436785Y-108500714D01*
X200341547Y-108548333D01*
X200293928Y-108643571D01*
X200293928Y-109167380D01*
X199865357Y-109119761D02*
X199770119Y-109167380D01*
X199579642Y-109167380D01*
X199484404Y-109119761D01*
X199436785Y-109024523D01*
X199436785Y-108976904D01*
X199484404Y-108881666D01*
X199579642Y-108834047D01*
X199722500Y-108834047D01*
X199817738Y-108786428D01*
X199865357Y-108691190D01*
X199865357Y-108643571D01*
X199817738Y-108548333D01*
X199722500Y-108500714D01*
X199579642Y-108500714D01*
X199484404Y-108548333D01*
X199151071Y-108500714D02*
X198770119Y-108500714D01*
X199008214Y-108167380D02*
X199008214Y-109024523D01*
X198960595Y-109119761D01*
X198865357Y-109167380D01*
X198770119Y-109167380D01*
X198436785Y-109167380D02*
X198436785Y-108500714D01*
X198436785Y-108691190D02*
X198389166Y-108595952D01*
X198341547Y-108548333D01*
X198246309Y-108500714D01*
X198151071Y-108500714D01*
X197389166Y-109167380D02*
X197389166Y-108643571D01*
X197436785Y-108548333D01*
X197532023Y-108500714D01*
X197722500Y-108500714D01*
X197817738Y-108548333D01*
X197389166Y-109119761D02*
X197484404Y-109167380D01*
X197722500Y-109167380D01*
X197817738Y-109119761D01*
X197865357Y-109024523D01*
X197865357Y-108929285D01*
X197817738Y-108834047D01*
X197722500Y-108786428D01*
X197484404Y-108786428D01*
X197389166Y-108738809D01*
X196484404Y-109167380D02*
X196484404Y-108167380D01*
X196484404Y-109119761D02*
X196579642Y-109167380D01*
X196770119Y-109167380D01*
X196865357Y-109119761D01*
X196912976Y-109072142D01*
X196960595Y-108976904D01*
X196960595Y-108691190D01*
X196912976Y-108595952D01*
X196865357Y-108548333D01*
X196770119Y-108500714D01*
X196579642Y-108500714D01*
X196484404Y-108548333D01*
X194674880Y-109072142D02*
X194722500Y-109119761D01*
X194865357Y-109167380D01*
X194960595Y-109167380D01*
X195103452Y-109119761D01*
X195198690Y-109024523D01*
X195246309Y-108929285D01*
X195293928Y-108738809D01*
X195293928Y-108595952D01*
X195246309Y-108405476D01*
X195198690Y-108310238D01*
X195103452Y-108215000D01*
X194960595Y-108167380D01*
X194865357Y-108167380D01*
X194722500Y-108215000D01*
X194674880Y-108262619D01*
X194246309Y-109167380D02*
X194246309Y-108167380D01*
X193865357Y-108167380D01*
X193770119Y-108215000D01*
X193722500Y-108262619D01*
X193674880Y-108357857D01*
X193674880Y-108500714D01*
X193722500Y-108595952D01*
X193770119Y-108643571D01*
X193865357Y-108691190D01*
X194246309Y-108691190D01*
X192674880Y-109072142D02*
X192722500Y-109119761D01*
X192865357Y-109167380D01*
X192960595Y-109167380D01*
X193103452Y-109119761D01*
X193198690Y-109024523D01*
X193246309Y-108929285D01*
X193293928Y-108738809D01*
X193293928Y-108595952D01*
X193246309Y-108405476D01*
X193198690Y-108310238D01*
X193103452Y-108215000D01*
X192960595Y-108167380D01*
X192865357Y-108167380D01*
X192722500Y-108215000D01*
X192674880Y-108262619D01*
X191055833Y-109119761D02*
X191151071Y-109167380D01*
X191341547Y-109167380D01*
X191436785Y-109119761D01*
X191484404Y-109072142D01*
X191532023Y-108976904D01*
X191532023Y-108691190D01*
X191484404Y-108595952D01*
X191436785Y-108548333D01*
X191341547Y-108500714D01*
X191151071Y-108500714D01*
X191055833Y-108548333D01*
X190484404Y-109167380D02*
X190579642Y-109119761D01*
X190627261Y-109072142D01*
X190674880Y-108976904D01*
X190674880Y-108691190D01*
X190627261Y-108595952D01*
X190579642Y-108548333D01*
X190484404Y-108500714D01*
X190341547Y-108500714D01*
X190246309Y-108548333D01*
X190198690Y-108595952D01*
X190151071Y-108691190D01*
X190151071Y-108976904D01*
X190198690Y-109072142D01*
X190246309Y-109119761D01*
X190341547Y-109167380D01*
X190484404Y-109167380D01*
X189722500Y-109167380D02*
X189722500Y-108500714D01*
X189722500Y-108595952D02*
X189674880Y-108548333D01*
X189579642Y-108500714D01*
X189436785Y-108500714D01*
X189341547Y-108548333D01*
X189293928Y-108643571D01*
X189293928Y-109167380D01*
X189293928Y-108643571D02*
X189246309Y-108548333D01*
X189151071Y-108500714D01*
X189008214Y-108500714D01*
X188912976Y-108548333D01*
X188865357Y-108643571D01*
X188865357Y-109167380D01*
X188389166Y-108500714D02*
X188389166Y-109500714D01*
X188389166Y-108548333D02*
X188293928Y-108500714D01*
X188103452Y-108500714D01*
X188008214Y-108548333D01*
X187960595Y-108595952D01*
X187912976Y-108691190D01*
X187912976Y-108976904D01*
X187960595Y-109072142D01*
X188008214Y-109119761D01*
X188103452Y-109167380D01*
X188293928Y-109167380D01*
X188389166Y-109119761D01*
X187055833Y-109167380D02*
X187055833Y-108643571D01*
X187103452Y-108548333D01*
X187198690Y-108500714D01*
X187389166Y-108500714D01*
X187484404Y-108548333D01*
X187055833Y-109119761D02*
X187151071Y-109167380D01*
X187389166Y-109167380D01*
X187484404Y-109119761D01*
X187532023Y-109024523D01*
X187532023Y-108929285D01*
X187484404Y-108834047D01*
X187389166Y-108786428D01*
X187151071Y-108786428D01*
X187055833Y-108738809D01*
X186722500Y-108500714D02*
X186341547Y-108500714D01*
X186579642Y-108167380D02*
X186579642Y-109024523D01*
X186532023Y-109119761D01*
X186436785Y-109167380D01*
X186341547Y-109167380D01*
X186008214Y-109167380D02*
X186008214Y-108500714D01*
X186008214Y-108167380D02*
X186055833Y-108215000D01*
X186008214Y-108262619D01*
X185960595Y-108215000D01*
X186008214Y-108167380D01*
X186008214Y-108262619D01*
X185532023Y-109167380D02*
X185532023Y-108167380D01*
X185532023Y-108548333D02*
X185436785Y-108500714D01*
X185246309Y-108500714D01*
X185151071Y-108548333D01*
X185103452Y-108595952D01*
X185055833Y-108691190D01*
X185055833Y-108976904D01*
X185103452Y-109072142D01*
X185151071Y-109119761D01*
X185246309Y-109167380D01*
X185436785Y-109167380D01*
X185532023Y-109119761D01*
X184484404Y-109167380D02*
X184579642Y-109119761D01*
X184627261Y-109024523D01*
X184627261Y-108167380D01*
X183722500Y-109119761D02*
X183817738Y-109167380D01*
X184008214Y-109167380D01*
X184103452Y-109119761D01*
X184151071Y-109024523D01*
X184151071Y-108643571D01*
X184103452Y-108548333D01*
X184008214Y-108500714D01*
X183817738Y-108500714D01*
X183722500Y-108548333D01*
X183674880Y-108643571D01*
X183674880Y-108738809D01*
X184151071Y-108834047D01*
X182055833Y-108500714D02*
X182055833Y-109167380D01*
X182484404Y-108500714D02*
X182484404Y-109024523D01*
X182436785Y-109119761D01*
X182341547Y-109167380D01*
X182198690Y-109167380D01*
X182103452Y-109119761D01*
X182055833Y-109072142D01*
X181627261Y-109119761D02*
X181532023Y-109167380D01*
X181341547Y-109167380D01*
X181246309Y-109119761D01*
X181198690Y-109024523D01*
X181198690Y-108976904D01*
X181246309Y-108881666D01*
X181341547Y-108834047D01*
X181484404Y-108834047D01*
X181579642Y-108786428D01*
X181627261Y-108691190D01*
X181627261Y-108643571D01*
X181579642Y-108548333D01*
X181484404Y-108500714D01*
X181341547Y-108500714D01*
X181246309Y-108548333D01*
X180770119Y-109167380D02*
X180770119Y-108500714D01*
X180770119Y-108167380D02*
X180817738Y-108215000D01*
X180770119Y-108262619D01*
X180722500Y-108215000D01*
X180770119Y-108167380D01*
X180770119Y-108262619D01*
X180293928Y-108500714D02*
X180293928Y-109167380D01*
X180293928Y-108595952D02*
X180246309Y-108548333D01*
X180151071Y-108500714D01*
X180008214Y-108500714D01*
X179912976Y-108548333D01*
X179865357Y-108643571D01*
X179865357Y-109167380D01*
X178960595Y-108500714D02*
X178960595Y-109310238D01*
X179008214Y-109405476D01*
X179055833Y-109453095D01*
X179151071Y-109500714D01*
X179293928Y-109500714D01*
X179389166Y-109453095D01*
X178960595Y-109119761D02*
X179055833Y-109167380D01*
X179246309Y-109167380D01*
X179341547Y-109119761D01*
X179389166Y-109072142D01*
X179436785Y-108976904D01*
X179436785Y-108691190D01*
X179389166Y-108595952D01*
X179341547Y-108548333D01*
X179246309Y-108500714D01*
X179055833Y-108500714D01*
X178960595Y-108548333D01*
X177293928Y-109167380D02*
X177293928Y-108643571D01*
X177341547Y-108548333D01*
X177436785Y-108500714D01*
X177627261Y-108500714D01*
X177722500Y-108548333D01*
X177293928Y-109119761D02*
X177389166Y-109167380D01*
X177627261Y-109167380D01*
X177722500Y-109119761D01*
X177770119Y-109024523D01*
X177770119Y-108929285D01*
X177722500Y-108834047D01*
X177627261Y-108786428D01*
X177389166Y-108786428D01*
X177293928Y-108738809D01*
X176817738Y-108500714D02*
X176817738Y-109167380D01*
X176817738Y-108595952D02*
X176770119Y-108548333D01*
X176674880Y-108500714D01*
X176532023Y-108500714D01*
X176436785Y-108548333D01*
X176389166Y-108643571D01*
X176389166Y-109167380D01*
X174579642Y-109167380D02*
X174912976Y-108691190D01*
X175151071Y-109167380D02*
X175151071Y-108167380D01*
X174770119Y-108167380D01*
X174674880Y-108215000D01*
X174627261Y-108262619D01*
X174579642Y-108357857D01*
X174579642Y-108500714D01*
X174627261Y-108595952D01*
X174674880Y-108643571D01*
X174770119Y-108691190D01*
X175151071Y-108691190D01*
X173579642Y-109072142D02*
X173627261Y-109119761D01*
X173770119Y-109167380D01*
X173865357Y-109167380D01*
X174008214Y-109119761D01*
X174103452Y-109024523D01*
X174151071Y-108929285D01*
X174198690Y-108738809D01*
X174198690Y-108595952D01*
X174151071Y-108405476D01*
X174103452Y-108310238D01*
X174008214Y-108215000D01*
X173865357Y-108167380D01*
X173770119Y-108167380D01*
X173627261Y-108215000D01*
X173579642Y-108262619D01*
X173198690Y-108262619D02*
X173151071Y-108215000D01*
X173055833Y-108167380D01*
X172817738Y-108167380D01*
X172722500Y-108215000D01*
X172674880Y-108262619D01*
X172627261Y-108357857D01*
X172627261Y-108453095D01*
X172674880Y-108595952D01*
X173246309Y-109167380D01*
X172627261Y-109167380D01*
X172008214Y-108167380D02*
X171912976Y-108167380D01*
X171817738Y-108215000D01*
X171770119Y-108262619D01*
X171722500Y-108357857D01*
X171674880Y-108548333D01*
X171674880Y-108786428D01*
X171722500Y-108976904D01*
X171770119Y-109072142D01*
X171817738Y-109119761D01*
X171912976Y-109167380D01*
X172008214Y-109167380D01*
X172103452Y-109119761D01*
X172151071Y-109072142D01*
X172198690Y-108976904D01*
X172246309Y-108786428D01*
X172246309Y-108548333D01*
X172198690Y-108357857D01*
X172151071Y-108262619D01*
X172103452Y-108215000D01*
X172008214Y-108167380D01*
X170722500Y-109167380D02*
X171293928Y-109167380D01*
X171008214Y-109167380D02*
X171008214Y-108167380D01*
X171103452Y-108310238D01*
X171198690Y-108405476D01*
X171293928Y-108453095D01*
X169865357Y-108500714D02*
X169865357Y-109167380D01*
X170103452Y-108119761D02*
X170341547Y-108834047D01*
X169722500Y-108834047D01*
X210484404Y-110817380D02*
X210484404Y-109817380D01*
X210484404Y-110198333D02*
X210389166Y-110150714D01*
X210198690Y-110150714D01*
X210103452Y-110198333D01*
X210055833Y-110245952D01*
X210008214Y-110341190D01*
X210008214Y-110626904D01*
X210055833Y-110722142D01*
X210103452Y-110769761D01*
X210198690Y-110817380D01*
X210389166Y-110817380D01*
X210484404Y-110769761D01*
X209151071Y-110817380D02*
X209151071Y-110293571D01*
X209198690Y-110198333D01*
X209293928Y-110150714D01*
X209484404Y-110150714D01*
X209579642Y-110198333D01*
X209151071Y-110769761D02*
X209246309Y-110817380D01*
X209484404Y-110817380D01*
X209579642Y-110769761D01*
X209627261Y-110674523D01*
X209627261Y-110579285D01*
X209579642Y-110484047D01*
X209484404Y-110436428D01*
X209246309Y-110436428D01*
X209151071Y-110388809D01*
X208246309Y-110769761D02*
X208341547Y-110817380D01*
X208532023Y-110817380D01*
X208627261Y-110769761D01*
X208674880Y-110722142D01*
X208722500Y-110626904D01*
X208722500Y-110341190D01*
X208674880Y-110245952D01*
X208627261Y-110198333D01*
X208532023Y-110150714D01*
X208341547Y-110150714D01*
X208246309Y-110198333D01*
X207817738Y-110817380D02*
X207817738Y-109817380D01*
X207722500Y-110436428D02*
X207436785Y-110817380D01*
X207436785Y-110150714D02*
X207817738Y-110531666D01*
X207008214Y-110150714D02*
X207008214Y-111150714D01*
X207008214Y-110198333D02*
X206912976Y-110150714D01*
X206722500Y-110150714D01*
X206627261Y-110198333D01*
X206579642Y-110245952D01*
X206532023Y-110341190D01*
X206532023Y-110626904D01*
X206579642Y-110722142D01*
X206627261Y-110769761D01*
X206722500Y-110817380D01*
X206912976Y-110817380D01*
X207008214Y-110769761D01*
X205960595Y-110817380D02*
X206055833Y-110769761D01*
X206103452Y-110674523D01*
X206103452Y-109817380D01*
X205151071Y-110817380D02*
X205151071Y-110293571D01*
X205198690Y-110198333D01*
X205293928Y-110150714D01*
X205484404Y-110150714D01*
X205579642Y-110198333D01*
X205151071Y-110769761D02*
X205246309Y-110817380D01*
X205484404Y-110817380D01*
X205579642Y-110769761D01*
X205627261Y-110674523D01*
X205627261Y-110579285D01*
X205579642Y-110484047D01*
X205484404Y-110436428D01*
X205246309Y-110436428D01*
X205151071Y-110388809D01*
X204674880Y-110150714D02*
X204674880Y-110817380D01*
X204674880Y-110245952D02*
X204627261Y-110198333D01*
X204532023Y-110150714D01*
X204389166Y-110150714D01*
X204293928Y-110198333D01*
X204246309Y-110293571D01*
X204246309Y-110817380D01*
X203389166Y-110769761D02*
X203484404Y-110817380D01*
X203674880Y-110817380D01*
X203770119Y-110769761D01*
X203817738Y-110674523D01*
X203817738Y-110293571D01*
X203770119Y-110198333D01*
X203674880Y-110150714D01*
X203484404Y-110150714D01*
X203389166Y-110198333D01*
X203341547Y-110293571D01*
X203341547Y-110388809D01*
X203817738Y-110484047D01*
X202912976Y-110722142D02*
X202865357Y-110769761D01*
X202912976Y-110817380D01*
X202960595Y-110769761D01*
X202912976Y-110722142D01*
X202912976Y-110817380D01*
X201817738Y-109817380D02*
X201246309Y-109817380D01*
X201532023Y-110817380D02*
X201532023Y-109817380D01*
X200912976Y-110817380D02*
X200912976Y-109817380D01*
X200484404Y-110817380D02*
X200484404Y-110293571D01*
X200532023Y-110198333D01*
X200627261Y-110150714D01*
X200770119Y-110150714D01*
X200865357Y-110198333D01*
X200912976Y-110245952D01*
X200008214Y-110817380D02*
X200008214Y-110150714D01*
X200008214Y-109817380D02*
X200055833Y-109865000D01*
X200008214Y-109912619D01*
X199960595Y-109865000D01*
X200008214Y-109817380D01*
X200008214Y-109912619D01*
X199579642Y-110769761D02*
X199484404Y-110817380D01*
X199293928Y-110817380D01*
X199198690Y-110769761D01*
X199151071Y-110674523D01*
X199151071Y-110626904D01*
X199198690Y-110531666D01*
X199293928Y-110484047D01*
X199436785Y-110484047D01*
X199532023Y-110436428D01*
X199579642Y-110341190D01*
X199579642Y-110293571D01*
X199532023Y-110198333D01*
X199436785Y-110150714D01*
X199293928Y-110150714D01*
X199198690Y-110198333D01*
X197960595Y-110817380D02*
X197960595Y-110150714D01*
X197960595Y-109817380D02*
X198008214Y-109865000D01*
X197960595Y-109912619D01*
X197912976Y-109865000D01*
X197960595Y-109817380D01*
X197960595Y-109912619D01*
X197532023Y-110769761D02*
X197436785Y-110817380D01*
X197246309Y-110817380D01*
X197151071Y-110769761D01*
X197103452Y-110674523D01*
X197103452Y-110626904D01*
X197151071Y-110531666D01*
X197246309Y-110484047D01*
X197389166Y-110484047D01*
X197484404Y-110436428D01*
X197532023Y-110341190D01*
X197532023Y-110293571D01*
X197484404Y-110198333D01*
X197389166Y-110150714D01*
X197246309Y-110150714D01*
X197151071Y-110198333D01*
X195912976Y-110817380D02*
X195912976Y-109817380D01*
X195341547Y-110817380D01*
X195341547Y-109817380D01*
X194674880Y-109817380D02*
X194484404Y-109817380D01*
X194389166Y-109865000D01*
X194293928Y-109960238D01*
X194246309Y-110150714D01*
X194246309Y-110484047D01*
X194293928Y-110674523D01*
X194389166Y-110769761D01*
X194484404Y-110817380D01*
X194674880Y-110817380D01*
X194770119Y-110769761D01*
X194865357Y-110674523D01*
X194912976Y-110484047D01*
X194912976Y-110150714D01*
X194865357Y-109960238D01*
X194770119Y-109865000D01*
X194674880Y-109817380D01*
X193960595Y-109817380D02*
X193389166Y-109817380D01*
X193674880Y-110817380D02*
X193674880Y-109817380D01*
X191865357Y-110817380D02*
X191865357Y-110293571D01*
X191912976Y-110198333D01*
X192008214Y-110150714D01*
X192198690Y-110150714D01*
X192293928Y-110198333D01*
X191865357Y-110769761D02*
X191960595Y-110817380D01*
X192198690Y-110817380D01*
X192293928Y-110769761D01*
X192341547Y-110674523D01*
X192341547Y-110579285D01*
X192293928Y-110484047D01*
X192198690Y-110436428D01*
X191960595Y-110436428D01*
X191865357Y-110388809D01*
X191389166Y-110150714D02*
X191389166Y-110817380D01*
X191389166Y-110245952D02*
X191341547Y-110198333D01*
X191246309Y-110150714D01*
X191103452Y-110150714D01*
X191008214Y-110198333D01*
X190960595Y-110293571D01*
X190960595Y-110817380D01*
X189151071Y-110817380D02*
X189484404Y-110341190D01*
X189722500Y-110817380D02*
X189722500Y-109817380D01*
X189341547Y-109817380D01*
X189246309Y-109865000D01*
X189198690Y-109912619D01*
X189151071Y-110007857D01*
X189151071Y-110150714D01*
X189198690Y-110245952D01*
X189246309Y-110293571D01*
X189341547Y-110341190D01*
X189722500Y-110341190D01*
X188151071Y-110722142D02*
X188198690Y-110769761D01*
X188341547Y-110817380D01*
X188436785Y-110817380D01*
X188579642Y-110769761D01*
X188674880Y-110674523D01*
X188722500Y-110579285D01*
X188770119Y-110388809D01*
X188770119Y-110245952D01*
X188722500Y-110055476D01*
X188674880Y-109960238D01*
X188579642Y-109865000D01*
X188436785Y-109817380D01*
X188341547Y-109817380D01*
X188198690Y-109865000D01*
X188151071Y-109912619D01*
X187770119Y-109912619D02*
X187722500Y-109865000D01*
X187627261Y-109817380D01*
X187389166Y-109817380D01*
X187293928Y-109865000D01*
X187246309Y-109912619D01*
X187198690Y-110007857D01*
X187198690Y-110103095D01*
X187246309Y-110245952D01*
X187817738Y-110817380D01*
X187198690Y-110817380D01*
X186579642Y-109817380D02*
X186484404Y-109817380D01*
X186389166Y-109865000D01*
X186341547Y-109912619D01*
X186293928Y-110007857D01*
X186246309Y-110198333D01*
X186246309Y-110436428D01*
X186293928Y-110626904D01*
X186341547Y-110722142D01*
X186389166Y-110769761D01*
X186484404Y-110817380D01*
X186579642Y-110817380D01*
X186674880Y-110769761D01*
X186722500Y-110722142D01*
X186770119Y-110626904D01*
X186817738Y-110436428D01*
X186817738Y-110198333D01*
X186770119Y-110007857D01*
X186722500Y-109912619D01*
X186674880Y-109865000D01*
X186579642Y-109817380D01*
X185293928Y-110817380D02*
X185865357Y-110817380D01*
X185579642Y-110817380D02*
X185579642Y-109817380D01*
X185674880Y-109960238D01*
X185770119Y-110055476D01*
X185865357Y-110103095D01*
X184436785Y-110150714D02*
X184436785Y-110817380D01*
X184674880Y-109769761D02*
X184912976Y-110484047D01*
X184293928Y-110484047D01*
X183151071Y-110817380D02*
X183151071Y-110150714D01*
X183151071Y-110245952D02*
X183103452Y-110198333D01*
X183008214Y-110150714D01*
X182865357Y-110150714D01*
X182770119Y-110198333D01*
X182722500Y-110293571D01*
X182722500Y-110817380D01*
X182722500Y-110293571D02*
X182674880Y-110198333D01*
X182579642Y-110150714D01*
X182436785Y-110150714D01*
X182341547Y-110198333D01*
X182293928Y-110293571D01*
X182293928Y-110817380D01*
X181674880Y-110817380D02*
X181770119Y-110769761D01*
X181817738Y-110722142D01*
X181865357Y-110626904D01*
X181865357Y-110341190D01*
X181817738Y-110245952D01*
X181770119Y-110198333D01*
X181674880Y-110150714D01*
X181532023Y-110150714D01*
X181436785Y-110198333D01*
X181389166Y-110245952D01*
X181341547Y-110341190D01*
X181341547Y-110626904D01*
X181389166Y-110722142D01*
X181436785Y-110769761D01*
X181532023Y-110817380D01*
X181674880Y-110817380D01*
X180484404Y-110817380D02*
X180484404Y-109817380D01*
X180484404Y-110769761D02*
X180579642Y-110817380D01*
X180770119Y-110817380D01*
X180865357Y-110769761D01*
X180912976Y-110722142D01*
X180960595Y-110626904D01*
X180960595Y-110341190D01*
X180912976Y-110245952D01*
X180865357Y-110198333D01*
X180770119Y-110150714D01*
X180579642Y-110150714D01*
X180484404Y-110198333D01*
X179579642Y-110150714D02*
X179579642Y-110817380D01*
X180008214Y-110150714D02*
X180008214Y-110674523D01*
X179960595Y-110769761D01*
X179865357Y-110817380D01*
X179722500Y-110817380D01*
X179627261Y-110769761D01*
X179579642Y-110722142D01*
X178960595Y-110817380D02*
X179055833Y-110769761D01*
X179103452Y-110674523D01*
X179103452Y-109817380D01*
X178198690Y-110769761D02*
X178293928Y-110817380D01*
X178484404Y-110817380D01*
X178579642Y-110769761D01*
X178627261Y-110674523D01*
X178627261Y-110293571D01*
X178579642Y-110198333D01*
X178484404Y-110150714D01*
X178293928Y-110150714D01*
X178198690Y-110198333D01*
X178151071Y-110293571D01*
X178151071Y-110388809D01*
X178627261Y-110484047D01*
X177722500Y-110722142D02*
X177674880Y-110769761D01*
X177722500Y-110817380D01*
X177770119Y-110769761D01*
X177722500Y-110722142D01*
X177722500Y-110817380D01*
X210532023Y-115481666D02*
X210055833Y-115481666D01*
X210627261Y-115767380D02*
X210293928Y-114767380D01*
X209960595Y-115767380D01*
X209484404Y-115767380D02*
X209579642Y-115719761D01*
X209627261Y-115624523D01*
X209627261Y-114767380D01*
X208960595Y-115767380D02*
X209055833Y-115719761D01*
X209103452Y-115624523D01*
X209103452Y-114767380D01*
X207389166Y-115719761D02*
X207484404Y-115767380D01*
X207674880Y-115767380D01*
X207770119Y-115719761D01*
X207817738Y-115672142D01*
X207865357Y-115576904D01*
X207865357Y-115291190D01*
X207817738Y-115195952D01*
X207770119Y-115148333D01*
X207674880Y-115100714D01*
X207484404Y-115100714D01*
X207389166Y-115148333D01*
X206532023Y-115767380D02*
X206532023Y-115243571D01*
X206579642Y-115148333D01*
X206674880Y-115100714D01*
X206865357Y-115100714D01*
X206960595Y-115148333D01*
X206532023Y-115719761D02*
X206627261Y-115767380D01*
X206865357Y-115767380D01*
X206960595Y-115719761D01*
X207008214Y-115624523D01*
X207008214Y-115529285D01*
X206960595Y-115434047D01*
X206865357Y-115386428D01*
X206627261Y-115386428D01*
X206532023Y-115338809D01*
X206055833Y-115100714D02*
X206055833Y-116100714D01*
X206055833Y-115148333D02*
X205960595Y-115100714D01*
X205770119Y-115100714D01*
X205674880Y-115148333D01*
X205627261Y-115195952D01*
X205579642Y-115291190D01*
X205579642Y-115576904D01*
X205627261Y-115672142D01*
X205674880Y-115719761D01*
X205770119Y-115767380D01*
X205960595Y-115767380D01*
X206055833Y-115719761D01*
X204722500Y-115767380D02*
X204722500Y-115243571D01*
X204770119Y-115148333D01*
X204865357Y-115100714D01*
X205055833Y-115100714D01*
X205151071Y-115148333D01*
X204722500Y-115719761D02*
X204817738Y-115767380D01*
X205055833Y-115767380D01*
X205151071Y-115719761D01*
X205198690Y-115624523D01*
X205198690Y-115529285D01*
X205151071Y-115434047D01*
X205055833Y-115386428D01*
X204817738Y-115386428D01*
X204722500Y-115338809D01*
X203817738Y-115719761D02*
X203912976Y-115767380D01*
X204103452Y-115767380D01*
X204198690Y-115719761D01*
X204246309Y-115672142D01*
X204293928Y-115576904D01*
X204293928Y-115291190D01*
X204246309Y-115195952D01*
X204198690Y-115148333D01*
X204103452Y-115100714D01*
X203912976Y-115100714D01*
X203817738Y-115148333D01*
X203389166Y-115767380D02*
X203389166Y-115100714D01*
X203389166Y-114767380D02*
X203436785Y-114815000D01*
X203389166Y-114862619D01*
X203341547Y-114815000D01*
X203389166Y-114767380D01*
X203389166Y-114862619D01*
X203055833Y-115100714D02*
X202674880Y-115100714D01*
X202912976Y-114767380D02*
X202912976Y-115624523D01*
X202865357Y-115719761D01*
X202770119Y-115767380D01*
X202674880Y-115767380D01*
X202198690Y-115767380D02*
X202293928Y-115719761D01*
X202341547Y-115672142D01*
X202389166Y-115576904D01*
X202389166Y-115291190D01*
X202341547Y-115195952D01*
X202293928Y-115148333D01*
X202198690Y-115100714D01*
X202055833Y-115100714D01*
X201960595Y-115148333D01*
X201912976Y-115195952D01*
X201865357Y-115291190D01*
X201865357Y-115576904D01*
X201912976Y-115672142D01*
X201960595Y-115719761D01*
X202055833Y-115767380D01*
X202198690Y-115767380D01*
X201436785Y-115767380D02*
X201436785Y-115100714D01*
X201436785Y-115291190D02*
X201389166Y-115195952D01*
X201341547Y-115148333D01*
X201246309Y-115100714D01*
X201151071Y-115100714D01*
X200865357Y-115719761D02*
X200770119Y-115767380D01*
X200579642Y-115767380D01*
X200484404Y-115719761D01*
X200436785Y-115624523D01*
X200436785Y-115576904D01*
X200484404Y-115481666D01*
X200579642Y-115434047D01*
X200722500Y-115434047D01*
X200817738Y-115386428D01*
X200865357Y-115291190D01*
X200865357Y-115243571D01*
X200817738Y-115148333D01*
X200722500Y-115100714D01*
X200579642Y-115100714D01*
X200484404Y-115148333D01*
X198817738Y-115767380D02*
X198817738Y-115243571D01*
X198865357Y-115148333D01*
X198960595Y-115100714D01*
X199151071Y-115100714D01*
X199246309Y-115148333D01*
X198817738Y-115719761D02*
X198912976Y-115767380D01*
X199151071Y-115767380D01*
X199246309Y-115719761D01*
X199293928Y-115624523D01*
X199293928Y-115529285D01*
X199246309Y-115434047D01*
X199151071Y-115386428D01*
X198912976Y-115386428D01*
X198817738Y-115338809D01*
X198341547Y-115767380D02*
X198341547Y-115100714D01*
X198341547Y-115291190D02*
X198293928Y-115195952D01*
X198246309Y-115148333D01*
X198151071Y-115100714D01*
X198055833Y-115100714D01*
X197341547Y-115719761D02*
X197436785Y-115767380D01*
X197627261Y-115767380D01*
X197722500Y-115719761D01*
X197770119Y-115624523D01*
X197770119Y-115243571D01*
X197722500Y-115148333D01*
X197627261Y-115100714D01*
X197436785Y-115100714D01*
X197341547Y-115148333D01*
X197293928Y-115243571D01*
X197293928Y-115338809D01*
X197770119Y-115434047D01*
X195912976Y-114767380D02*
X195817738Y-114767380D01*
X195722500Y-114815000D01*
X195674880Y-114862619D01*
X195627261Y-114957857D01*
X195579642Y-115148333D01*
X195579642Y-115386428D01*
X195627261Y-115576904D01*
X195674880Y-115672142D01*
X195722500Y-115719761D01*
X195817738Y-115767380D01*
X195912976Y-115767380D01*
X196008214Y-115719761D01*
X196055833Y-115672142D01*
X196103452Y-115576904D01*
X196151071Y-115386428D01*
X196151071Y-115148333D01*
X196103452Y-114957857D01*
X196055833Y-114862619D01*
X196008214Y-114815000D01*
X195912976Y-114767380D01*
X195151071Y-115672142D02*
X195103452Y-115719761D01*
X195151071Y-115767380D01*
X195198690Y-115719761D01*
X195151071Y-115672142D01*
X195151071Y-115767380D01*
X194151071Y-115767380D02*
X194722500Y-115767380D01*
X194436785Y-115767380D02*
X194436785Y-114767380D01*
X194532023Y-114910238D01*
X194627261Y-115005476D01*
X194722500Y-115053095D01*
X193293928Y-115100714D02*
X193293928Y-115767380D01*
X193722500Y-115100714D02*
X193722500Y-115624523D01*
X193674880Y-115719761D01*
X193579642Y-115767380D01*
X193436785Y-115767380D01*
X193341547Y-115719761D01*
X193293928Y-115672142D01*
X192484404Y-115243571D02*
X192817738Y-115243571D01*
X192817738Y-115767380D02*
X192817738Y-114767380D01*
X192341547Y-114767380D01*
X191246309Y-114719761D02*
X192103452Y-116005476D01*
X190389166Y-115767380D02*
X190960595Y-115767380D01*
X190674880Y-115767380D02*
X190674880Y-114767380D01*
X190770119Y-114910238D01*
X190865357Y-115005476D01*
X190960595Y-115053095D01*
X189770119Y-114767380D02*
X189674880Y-114767380D01*
X189579642Y-114815000D01*
X189532023Y-114862619D01*
X189484404Y-114957857D01*
X189436785Y-115148333D01*
X189436785Y-115386428D01*
X189484404Y-115576904D01*
X189532023Y-115672142D01*
X189579642Y-115719761D01*
X189674880Y-115767380D01*
X189770119Y-115767380D01*
X189865357Y-115719761D01*
X189912976Y-115672142D01*
X189960595Y-115576904D01*
X190008214Y-115386428D01*
X190008214Y-115148333D01*
X189960595Y-114957857D01*
X189912976Y-114862619D01*
X189865357Y-114815000D01*
X189770119Y-114767380D01*
X188817738Y-114767380D02*
X188722500Y-114767380D01*
X188627261Y-114815000D01*
X188579642Y-114862619D01*
X188532023Y-114957857D01*
X188484404Y-115148333D01*
X188484404Y-115386428D01*
X188532023Y-115576904D01*
X188579642Y-115672142D01*
X188627261Y-115719761D01*
X188722500Y-115767380D01*
X188817738Y-115767380D01*
X188912976Y-115719761D01*
X188960595Y-115672142D01*
X189008214Y-115576904D01*
X189055833Y-115386428D01*
X189055833Y-115148333D01*
X189008214Y-114957857D01*
X188960595Y-114862619D01*
X188912976Y-114815000D01*
X188817738Y-114767380D01*
X188055833Y-115100714D02*
X188055833Y-115767380D01*
X188055833Y-115195952D02*
X188008214Y-115148333D01*
X187912976Y-115100714D01*
X187770119Y-115100714D01*
X187674880Y-115148333D01*
X187627261Y-115243571D01*
X187627261Y-115767380D01*
X186817738Y-115243571D02*
X187151071Y-115243571D01*
X187151071Y-115767380D02*
X187151071Y-114767380D01*
X186674880Y-114767380D01*
X186293928Y-115672142D02*
X186246309Y-115719761D01*
X186293928Y-115767380D01*
X186341547Y-115719761D01*
X186293928Y-115672142D01*
X186293928Y-115767380D01*
X184865357Y-114767380D02*
X184674880Y-114767380D01*
X184579642Y-114815000D01*
X184484404Y-114910238D01*
X184436785Y-115100714D01*
X184436785Y-115434047D01*
X184484404Y-115624523D01*
X184579642Y-115719761D01*
X184674880Y-115767380D01*
X184865357Y-115767380D01*
X184960595Y-115719761D01*
X185055833Y-115624523D01*
X185103452Y-115434047D01*
X185103452Y-115100714D01*
X185055833Y-114910238D01*
X184960595Y-114815000D01*
X184865357Y-114767380D01*
X184151071Y-115100714D02*
X183770119Y-115100714D01*
X184008214Y-114767380D02*
X184008214Y-115624523D01*
X183960595Y-115719761D01*
X183865357Y-115767380D01*
X183770119Y-115767380D01*
X183436785Y-115767380D02*
X183436785Y-114767380D01*
X183008214Y-115767380D02*
X183008214Y-115243571D01*
X183055833Y-115148333D01*
X183151071Y-115100714D01*
X183293928Y-115100714D01*
X183389166Y-115148333D01*
X183436785Y-115195952D01*
X182151071Y-115719761D02*
X182246309Y-115767380D01*
X182436785Y-115767380D01*
X182532023Y-115719761D01*
X182579642Y-115624523D01*
X182579642Y-115243571D01*
X182532023Y-115148333D01*
X182436785Y-115100714D01*
X182246309Y-115100714D01*
X182151071Y-115148333D01*
X182103452Y-115243571D01*
X182103452Y-115338809D01*
X182579642Y-115434047D01*
X181674880Y-115767380D02*
X181674880Y-115100714D01*
X181674880Y-115291190D02*
X181627261Y-115195952D01*
X181579642Y-115148333D01*
X181484404Y-115100714D01*
X181389166Y-115100714D01*
X179865357Y-115719761D02*
X179960595Y-115767380D01*
X180151071Y-115767380D01*
X180246309Y-115719761D01*
X180293928Y-115672142D01*
X180341547Y-115576904D01*
X180341547Y-115291190D01*
X180293928Y-115195952D01*
X180246309Y-115148333D01*
X180151071Y-115100714D01*
X179960595Y-115100714D01*
X179865357Y-115148333D01*
X179293928Y-115767380D02*
X179389166Y-115719761D01*
X179436785Y-115672142D01*
X179484404Y-115576904D01*
X179484404Y-115291190D01*
X179436785Y-115195952D01*
X179389166Y-115148333D01*
X179293928Y-115100714D01*
X179151071Y-115100714D01*
X179055833Y-115148333D01*
X179008214Y-115195952D01*
X178960595Y-115291190D01*
X178960595Y-115576904D01*
X179008214Y-115672142D01*
X179055833Y-115719761D01*
X179151071Y-115767380D01*
X179293928Y-115767380D01*
X178532023Y-115767380D02*
X178532023Y-115100714D01*
X178532023Y-115195952D02*
X178484404Y-115148333D01*
X178389166Y-115100714D01*
X178246309Y-115100714D01*
X178151071Y-115148333D01*
X178103452Y-115243571D01*
X178103452Y-115767380D01*
X178103452Y-115243571D02*
X178055833Y-115148333D01*
X177960595Y-115100714D01*
X177817738Y-115100714D01*
X177722500Y-115148333D01*
X177674880Y-115243571D01*
X177674880Y-115767380D01*
X177198690Y-115100714D02*
X177198690Y-116100714D01*
X177198690Y-115148333D02*
X177103452Y-115100714D01*
X176912976Y-115100714D01*
X176817738Y-115148333D01*
X176770119Y-115195952D01*
X176722500Y-115291190D01*
X176722500Y-115576904D01*
X176770119Y-115672142D01*
X176817738Y-115719761D01*
X176912976Y-115767380D01*
X177103452Y-115767380D01*
X177198690Y-115719761D01*
X176151071Y-115767380D02*
X176246309Y-115719761D01*
X176293928Y-115672142D01*
X176341547Y-115576904D01*
X176341547Y-115291190D01*
X176293928Y-115195952D01*
X176246309Y-115148333D01*
X176151071Y-115100714D01*
X176008214Y-115100714D01*
X175912976Y-115148333D01*
X175865357Y-115195952D01*
X175817738Y-115291190D01*
X175817738Y-115576904D01*
X175865357Y-115672142D01*
X175912976Y-115719761D01*
X176008214Y-115767380D01*
X176151071Y-115767380D01*
X175389166Y-115100714D02*
X175389166Y-115767380D01*
X175389166Y-115195952D02*
X175341547Y-115148333D01*
X175246309Y-115100714D01*
X175103452Y-115100714D01*
X175008214Y-115148333D01*
X174960595Y-115243571D01*
X174960595Y-115767380D01*
X174103452Y-115719761D02*
X174198690Y-115767380D01*
X174389166Y-115767380D01*
X174484404Y-115719761D01*
X174532023Y-115624523D01*
X174532023Y-115243571D01*
X174484404Y-115148333D01*
X174389166Y-115100714D01*
X174198690Y-115100714D01*
X174103452Y-115148333D01*
X174055833Y-115243571D01*
X174055833Y-115338809D01*
X174532023Y-115434047D01*
X173627261Y-115100714D02*
X173627261Y-115767380D01*
X173627261Y-115195952D02*
X173579642Y-115148333D01*
X173484404Y-115100714D01*
X173341547Y-115100714D01*
X173246309Y-115148333D01*
X173198690Y-115243571D01*
X173198690Y-115767380D01*
X172865357Y-115100714D02*
X172484404Y-115100714D01*
X172722500Y-114767380D02*
X172722500Y-115624523D01*
X172674880Y-115719761D01*
X172579642Y-115767380D01*
X172484404Y-115767380D01*
X172198690Y-115719761D02*
X172103452Y-115767380D01*
X171912976Y-115767380D01*
X171817738Y-115719761D01*
X171770119Y-115624523D01*
X171770119Y-115576904D01*
X171817738Y-115481666D01*
X171912976Y-115434047D01*
X172055833Y-115434047D01*
X172151071Y-115386428D01*
X172198690Y-115291190D01*
X172198690Y-115243571D01*
X172151071Y-115148333D01*
X172055833Y-115100714D01*
X171912976Y-115100714D01*
X171817738Y-115148333D01*
X170151071Y-115767380D02*
X170151071Y-115243571D01*
X170198690Y-115148333D01*
X170293928Y-115100714D01*
X170484404Y-115100714D01*
X170579642Y-115148333D01*
X170151071Y-115719761D02*
X170246309Y-115767380D01*
X170484404Y-115767380D01*
X170579642Y-115719761D01*
X170627261Y-115624523D01*
X170627261Y-115529285D01*
X170579642Y-115434047D01*
X170484404Y-115386428D01*
X170246309Y-115386428D01*
X170151071Y-115338809D01*
X169722500Y-115719761D02*
X169627261Y-115767380D01*
X169436785Y-115767380D01*
X169341547Y-115719761D01*
X169293928Y-115624523D01*
X169293928Y-115576904D01*
X169341547Y-115481666D01*
X169436785Y-115434047D01*
X169579642Y-115434047D01*
X169674880Y-115386428D01*
X169722500Y-115291190D01*
X169722500Y-115243571D01*
X169674880Y-115148333D01*
X169579642Y-115100714D01*
X169436785Y-115100714D01*
X169341547Y-115148333D01*
X168103452Y-115767380D02*
X168103452Y-115100714D01*
X168103452Y-115195952D02*
X168055833Y-115148333D01*
X167960595Y-115100714D01*
X167817738Y-115100714D01*
X167722500Y-115148333D01*
X167674880Y-115243571D01*
X167674880Y-115767380D01*
X167674880Y-115243571D02*
X167627261Y-115148333D01*
X167532023Y-115100714D01*
X167389166Y-115100714D01*
X167293928Y-115148333D01*
X167246309Y-115243571D01*
X167246309Y-115767380D01*
X166341547Y-115767380D02*
X166341547Y-115243571D01*
X166389166Y-115148333D01*
X166484404Y-115100714D01*
X166674880Y-115100714D01*
X166770119Y-115148333D01*
X166341547Y-115719761D02*
X166436785Y-115767380D01*
X166674880Y-115767380D01*
X166770119Y-115719761D01*
X166817738Y-115624523D01*
X166817738Y-115529285D01*
X166770119Y-115434047D01*
X166674880Y-115386428D01*
X166436785Y-115386428D01*
X166341547Y-115338809D01*
X165865357Y-115767380D02*
X165865357Y-115100714D01*
X165865357Y-115291190D02*
X165817738Y-115195952D01*
X165770119Y-115148333D01*
X165674880Y-115100714D01*
X165579642Y-115100714D01*
X165246309Y-115767380D02*
X165246309Y-114767380D01*
X165151071Y-115386428D02*
X164865357Y-115767380D01*
X164865357Y-115100714D02*
X165246309Y-115481666D01*
X164055833Y-115719761D02*
X164151071Y-115767380D01*
X164341547Y-115767380D01*
X164436785Y-115719761D01*
X164484404Y-115624523D01*
X164484404Y-115243571D01*
X164436785Y-115148333D01*
X164341547Y-115100714D01*
X164151071Y-115100714D01*
X164055833Y-115148333D01*
X164008214Y-115243571D01*
X164008214Y-115338809D01*
X164484404Y-115434047D01*
X163151071Y-115767380D02*
X163151071Y-114767380D01*
X163151071Y-115719761D02*
X163246309Y-115767380D01*
X163436785Y-115767380D01*
X163532023Y-115719761D01*
X163579642Y-115672142D01*
X163627261Y-115576904D01*
X163627261Y-115291190D01*
X163579642Y-115195952D01*
X163532023Y-115148333D01*
X163436785Y-115100714D01*
X163246309Y-115100714D01*
X163151071Y-115148333D01*
X162674880Y-115672142D02*
X162627261Y-115719761D01*
X162674880Y-115767380D01*
X162722500Y-115719761D01*
X162674880Y-115672142D01*
X162674880Y-115767380D01*
X210151071Y-116893571D02*
X210008214Y-116941190D01*
X209960595Y-116988809D01*
X209912976Y-117084047D01*
X209912976Y-117226904D01*
X209960595Y-117322142D01*
X210008214Y-117369761D01*
X210103452Y-117417380D01*
X210484404Y-117417380D01*
X210484404Y-116417380D01*
X210151071Y-116417380D01*
X210055833Y-116465000D01*
X210008214Y-116512619D01*
X209960595Y-116607857D01*
X209960595Y-116703095D01*
X210008214Y-116798333D01*
X210055833Y-116845952D01*
X210151071Y-116893571D01*
X210484404Y-116893571D01*
X209484404Y-117417380D02*
X209484404Y-116750714D01*
X209484404Y-116941190D02*
X209436785Y-116845952D01*
X209389166Y-116798333D01*
X209293928Y-116750714D01*
X209198690Y-116750714D01*
X208484404Y-117369761D02*
X208579642Y-117417380D01*
X208770119Y-117417380D01*
X208865357Y-117369761D01*
X208912976Y-117274523D01*
X208912976Y-116893571D01*
X208865357Y-116798333D01*
X208770119Y-116750714D01*
X208579642Y-116750714D01*
X208484404Y-116798333D01*
X208436785Y-116893571D01*
X208436785Y-116988809D01*
X208912976Y-117084047D01*
X207579642Y-117417380D02*
X207579642Y-116893571D01*
X207627261Y-116798333D01*
X207722500Y-116750714D01*
X207912976Y-116750714D01*
X208008214Y-116798333D01*
X207579642Y-117369761D02*
X207674880Y-117417380D01*
X207912976Y-117417380D01*
X208008214Y-117369761D01*
X208055833Y-117274523D01*
X208055833Y-117179285D01*
X208008214Y-117084047D01*
X207912976Y-117036428D01*
X207674880Y-117036428D01*
X207579642Y-116988809D01*
X206674880Y-117417380D02*
X206674880Y-116417380D01*
X206674880Y-117369761D02*
X206770119Y-117417380D01*
X206960595Y-117417380D01*
X207055833Y-117369761D01*
X207103452Y-117322142D01*
X207151071Y-117226904D01*
X207151071Y-116941190D01*
X207103452Y-116845952D01*
X207055833Y-116798333D01*
X206960595Y-116750714D01*
X206770119Y-116750714D01*
X206674880Y-116798333D01*
X206055833Y-116845952D02*
X206151071Y-116798333D01*
X206198690Y-116750714D01*
X206246309Y-116655476D01*
X206246309Y-116607857D01*
X206198690Y-116512619D01*
X206151071Y-116465000D01*
X206055833Y-116417380D01*
X205865357Y-116417380D01*
X205770119Y-116465000D01*
X205722500Y-116512619D01*
X205674880Y-116607857D01*
X205674880Y-116655476D01*
X205722500Y-116750714D01*
X205770119Y-116798333D01*
X205865357Y-116845952D01*
X206055833Y-116845952D01*
X206151071Y-116893571D01*
X206198690Y-116941190D01*
X206246309Y-117036428D01*
X206246309Y-117226904D01*
X206198690Y-117322142D01*
X206151071Y-117369761D01*
X206055833Y-117417380D01*
X205865357Y-117417380D01*
X205770119Y-117369761D01*
X205722500Y-117322142D01*
X205674880Y-117226904D01*
X205674880Y-117036428D01*
X205722500Y-116941190D01*
X205770119Y-116893571D01*
X205865357Y-116845952D01*
X205055833Y-116417380D02*
X204960595Y-116417380D01*
X204865357Y-116465000D01*
X204817738Y-116512619D01*
X204770119Y-116607857D01*
X204722500Y-116798333D01*
X204722500Y-117036428D01*
X204770119Y-117226904D01*
X204817738Y-117322142D01*
X204865357Y-117369761D01*
X204960595Y-117417380D01*
X205055833Y-117417380D01*
X205151071Y-117369761D01*
X205198690Y-117322142D01*
X205246309Y-117226904D01*
X205293928Y-117036428D01*
X205293928Y-116798333D01*
X205246309Y-116607857D01*
X205198690Y-116512619D01*
X205151071Y-116465000D01*
X205055833Y-116417380D01*
X204293928Y-117322142D02*
X204246309Y-117369761D01*
X204293928Y-117417380D01*
X204341547Y-117369761D01*
X204293928Y-117322142D01*
X204293928Y-117417380D01*
X203389166Y-117369761D02*
X203484404Y-117417380D01*
X203674880Y-117417380D01*
X203770119Y-117369761D01*
X203817738Y-117322142D01*
X203865357Y-117226904D01*
X203865357Y-116941190D01*
X203817738Y-116845952D01*
X203770119Y-116798333D01*
X203674880Y-116750714D01*
X203484404Y-116750714D01*
X203389166Y-116798333D01*
X202817738Y-117417380D02*
X202912976Y-117369761D01*
X202960595Y-117322142D01*
X203008214Y-117226904D01*
X203008214Y-116941190D01*
X202960595Y-116845952D01*
X202912976Y-116798333D01*
X202817738Y-116750714D01*
X202674880Y-116750714D01*
X202579642Y-116798333D01*
X202532023Y-116845952D01*
X202484404Y-116941190D01*
X202484404Y-117226904D01*
X202532023Y-117322142D01*
X202579642Y-117369761D01*
X202674880Y-117417380D01*
X202817738Y-117417380D01*
X202055833Y-117417380D02*
X202055833Y-116750714D01*
X202055833Y-116845952D02*
X202008214Y-116798333D01*
X201912976Y-116750714D01*
X201770119Y-116750714D01*
X201674880Y-116798333D01*
X201627261Y-116893571D01*
X201627261Y-117417380D01*
X201627261Y-116893571D02*
X201579642Y-116798333D01*
X201484404Y-116750714D01*
X201341547Y-116750714D01*
X201246309Y-116798333D01*
X201198690Y-116893571D01*
X201198690Y-117417380D01*
X197674880Y-117036428D02*
X196912976Y-117036428D01*
X193389166Y-117417380D02*
X193389166Y-116750714D01*
X193389166Y-116845952D02*
X193341547Y-116798333D01*
X193246309Y-116750714D01*
X193103452Y-116750714D01*
X193008214Y-116798333D01*
X192960595Y-116893571D01*
X192960595Y-117417380D01*
X192960595Y-116893571D02*
X192912976Y-116798333D01*
X192817738Y-116750714D01*
X192674880Y-116750714D01*
X192579642Y-116798333D01*
X192532023Y-116893571D01*
X192532023Y-117417380D01*
X192103452Y-117369761D02*
X192008214Y-117417380D01*
X191817738Y-117417380D01*
X191722500Y-117369761D01*
X191674880Y-117274523D01*
X191674880Y-117226904D01*
X191722500Y-117131666D01*
X191817738Y-117084047D01*
X191960595Y-117084047D01*
X192055833Y-117036428D01*
X192103452Y-116941190D01*
X192103452Y-116893571D01*
X192055833Y-116798333D01*
X191960595Y-116750714D01*
X191817738Y-116750714D01*
X191722500Y-116798333D01*
X191389166Y-116750714D02*
X191008214Y-116750714D01*
X191246309Y-116417380D02*
X191246309Y-117274523D01*
X191198690Y-117369761D01*
X191103452Y-117417380D01*
X191008214Y-117417380D01*
X190246309Y-117417380D02*
X190246309Y-116417380D01*
X190246309Y-117369761D02*
X190341547Y-117417380D01*
X190532023Y-117417380D01*
X190627261Y-117369761D01*
X190674880Y-117322142D01*
X190722500Y-117226904D01*
X190722500Y-116941190D01*
X190674880Y-116845952D01*
X190627261Y-116798333D01*
X190532023Y-116750714D01*
X190341547Y-116750714D01*
X190246309Y-116798333D01*
X189770119Y-116750714D02*
X189770119Y-117417380D01*
X189770119Y-116845952D02*
X189722500Y-116798333D01*
X189627261Y-116750714D01*
X189484404Y-116750714D01*
X189389166Y-116798333D01*
X189341547Y-116893571D01*
X189341547Y-117417380D01*
X188865357Y-117322142D02*
X188817738Y-117369761D01*
X188865357Y-117417380D01*
X188912976Y-117369761D01*
X188865357Y-117322142D01*
X188865357Y-117417380D01*
X188436785Y-117369761D02*
X188341547Y-117417380D01*
X188151071Y-117417380D01*
X188055833Y-117369761D01*
X188008214Y-117274523D01*
X188008214Y-117226904D01*
X188055833Y-117131666D01*
X188151071Y-117084047D01*
X188293928Y-117084047D01*
X188389166Y-117036428D01*
X188436785Y-116941190D01*
X188436785Y-116893571D01*
X188389166Y-116798333D01*
X188293928Y-116750714D01*
X188151071Y-116750714D01*
X188055833Y-116798333D01*
X187436785Y-117417380D02*
X187532023Y-117369761D01*
X187579642Y-117322142D01*
X187627261Y-117226904D01*
X187627261Y-116941190D01*
X187579642Y-116845952D01*
X187532023Y-116798333D01*
X187436785Y-116750714D01*
X187293928Y-116750714D01*
X187198690Y-116798333D01*
X187151071Y-116845952D01*
X187103452Y-116941190D01*
X187103452Y-117226904D01*
X187151071Y-117322142D01*
X187198690Y-117369761D01*
X187293928Y-117417380D01*
X187436785Y-117417380D01*
X186246309Y-117369761D02*
X186341547Y-117417380D01*
X186532023Y-117417380D01*
X186627261Y-117369761D01*
X186674880Y-117322142D01*
X186722500Y-117226904D01*
X186722500Y-116941190D01*
X186674880Y-116845952D01*
X186627261Y-116798333D01*
X186532023Y-116750714D01*
X186341547Y-116750714D01*
X186246309Y-116798333D01*
X185817738Y-117417380D02*
X185817738Y-116750714D01*
X185817738Y-116417380D02*
X185865357Y-116465000D01*
X185817738Y-116512619D01*
X185770119Y-116465000D01*
X185817738Y-116417380D01*
X185817738Y-116512619D01*
X184912976Y-117417380D02*
X184912976Y-116893571D01*
X184960595Y-116798333D01*
X185055833Y-116750714D01*
X185246309Y-116750714D01*
X185341547Y-116798333D01*
X184912976Y-117369761D02*
X185008214Y-117417380D01*
X185246309Y-117417380D01*
X185341547Y-117369761D01*
X185389166Y-117274523D01*
X185389166Y-117179285D01*
X185341547Y-117084047D01*
X185246309Y-117036428D01*
X185008214Y-117036428D01*
X184912976Y-116988809D01*
X184293928Y-117417380D02*
X184389166Y-117369761D01*
X184436785Y-117274523D01*
X184436785Y-116417380D01*
X183198690Y-116369761D02*
X184055833Y-117655476D01*
X182246309Y-116941190D02*
X182293928Y-116893571D01*
X182389166Y-116845952D01*
X182484404Y-116845952D01*
X182579642Y-116893571D01*
X182627261Y-116941190D01*
X182674880Y-117036428D01*
X182674880Y-117131666D01*
X182627261Y-117226904D01*
X182579642Y-117274523D01*
X182484404Y-117322142D01*
X182389166Y-117322142D01*
X182293928Y-117274523D01*
X182246309Y-117226904D01*
X182246309Y-116845952D02*
X182246309Y-117226904D01*
X182198690Y-117274523D01*
X182151071Y-117274523D01*
X182055833Y-117226904D01*
X182008214Y-117131666D01*
X182008214Y-116893571D01*
X182103452Y-116750714D01*
X182246309Y-116655476D01*
X182436785Y-116607857D01*
X182627261Y-116655476D01*
X182770119Y-116750714D01*
X182865357Y-116893571D01*
X182912976Y-117084047D01*
X182865357Y-117274523D01*
X182770119Y-117417380D01*
X182627261Y-117512619D01*
X182436785Y-117560238D01*
X182246309Y-117512619D01*
X182103452Y-117417380D01*
X181579642Y-117417380D02*
X181579642Y-116417380D01*
X181579642Y-116798333D02*
X181484404Y-116750714D01*
X181293928Y-116750714D01*
X181198690Y-116798333D01*
X181151071Y-116845952D01*
X181103452Y-116941190D01*
X181103452Y-117226904D01*
X181151071Y-117322142D01*
X181198690Y-117369761D01*
X181293928Y-117417380D01*
X181484404Y-117417380D01*
X181579642Y-117369761D01*
X180674880Y-117417380D02*
X180674880Y-116750714D01*
X180674880Y-116941190D02*
X180627261Y-116845952D01*
X180579642Y-116798333D01*
X180484404Y-116750714D01*
X180389166Y-116750714D01*
X179674880Y-117369761D02*
X179770119Y-117417380D01*
X179960595Y-117417380D01*
X180055833Y-117369761D01*
X180103452Y-117274523D01*
X180103452Y-116893571D01*
X180055833Y-116798333D01*
X179960595Y-116750714D01*
X179770119Y-116750714D01*
X179674880Y-116798333D01*
X179627261Y-116893571D01*
X179627261Y-116988809D01*
X180103452Y-117084047D01*
X178770119Y-117417380D02*
X178770119Y-116893571D01*
X178817738Y-116798333D01*
X178912976Y-116750714D01*
X179103452Y-116750714D01*
X179198690Y-116798333D01*
X178770119Y-117369761D02*
X178865357Y-117417380D01*
X179103452Y-117417380D01*
X179198690Y-117369761D01*
X179246309Y-117274523D01*
X179246309Y-117179285D01*
X179198690Y-117084047D01*
X179103452Y-117036428D01*
X178865357Y-117036428D01*
X178770119Y-116988809D01*
X177865357Y-117417380D02*
X177865357Y-116417380D01*
X177865357Y-117369761D02*
X177960595Y-117417380D01*
X178151071Y-117417380D01*
X178246309Y-117369761D01*
X178293928Y-117322142D01*
X178341547Y-117226904D01*
X178341547Y-116941190D01*
X178293928Y-116845952D01*
X178246309Y-116798333D01*
X178151071Y-116750714D01*
X177960595Y-116750714D01*
X177865357Y-116798333D01*
X177246309Y-116845952D02*
X177341547Y-116798333D01*
X177389166Y-116750714D01*
X177436785Y-116655476D01*
X177436785Y-116607857D01*
X177389166Y-116512619D01*
X177341547Y-116465000D01*
X177246309Y-116417380D01*
X177055833Y-116417380D01*
X176960595Y-116465000D01*
X176912976Y-116512619D01*
X176865357Y-116607857D01*
X176865357Y-116655476D01*
X176912976Y-116750714D01*
X176960595Y-116798333D01*
X177055833Y-116845952D01*
X177246309Y-116845952D01*
X177341547Y-116893571D01*
X177389166Y-116941190D01*
X177436785Y-117036428D01*
X177436785Y-117226904D01*
X177389166Y-117322142D01*
X177341547Y-117369761D01*
X177246309Y-117417380D01*
X177055833Y-117417380D01*
X176960595Y-117369761D01*
X176912976Y-117322142D01*
X176865357Y-117226904D01*
X176865357Y-117036428D01*
X176912976Y-116941190D01*
X176960595Y-116893571D01*
X177055833Y-116845952D01*
X176246309Y-116417380D02*
X176151071Y-116417380D01*
X176055833Y-116465000D01*
X176008214Y-116512619D01*
X175960595Y-116607857D01*
X175912976Y-116798333D01*
X175912976Y-117036428D01*
X175960595Y-117226904D01*
X176008214Y-117322142D01*
X176055833Y-117369761D01*
X176151071Y-117417380D01*
X176246309Y-117417380D01*
X176341547Y-117369761D01*
X176389166Y-117322142D01*
X176436785Y-117226904D01*
X176484404Y-117036428D01*
X176484404Y-116798333D01*
X176436785Y-116607857D01*
X176389166Y-116512619D01*
X176341547Y-116465000D01*
X176246309Y-116417380D01*
X210055833Y-118400714D02*
X210055833Y-119210238D01*
X210103452Y-119305476D01*
X210151071Y-119353095D01*
X210246309Y-119400714D01*
X210389166Y-119400714D01*
X210484404Y-119353095D01*
X210055833Y-119019761D02*
X210151071Y-119067380D01*
X210341547Y-119067380D01*
X210436785Y-119019761D01*
X210484404Y-118972142D01*
X210532023Y-118876904D01*
X210532023Y-118591190D01*
X210484404Y-118495952D01*
X210436785Y-118448333D01*
X210341547Y-118400714D01*
X210151071Y-118400714D01*
X210055833Y-118448333D01*
X209579642Y-119067380D02*
X209579642Y-118400714D01*
X209579642Y-118067380D02*
X209627261Y-118115000D01*
X209579642Y-118162619D01*
X209532023Y-118115000D01*
X209579642Y-118067380D01*
X209579642Y-118162619D01*
X209246309Y-118400714D02*
X208865357Y-118400714D01*
X209103452Y-118067380D02*
X209103452Y-118924523D01*
X209055833Y-119019761D01*
X208960595Y-119067380D01*
X208865357Y-119067380D01*
X208532023Y-119067380D02*
X208532023Y-118067380D01*
X208103452Y-119067380D02*
X208103452Y-118543571D01*
X208151071Y-118448333D01*
X208246309Y-118400714D01*
X208389166Y-118400714D01*
X208484404Y-118448333D01*
X208532023Y-118495952D01*
X207198690Y-118400714D02*
X207198690Y-119067380D01*
X207627261Y-118400714D02*
X207627261Y-118924523D01*
X207579642Y-119019761D01*
X207484404Y-119067380D01*
X207341547Y-119067380D01*
X207246309Y-119019761D01*
X207198690Y-118972142D01*
X206722500Y-119067380D02*
X206722500Y-118067380D01*
X206722500Y-118448333D02*
X206627261Y-118400714D01*
X206436785Y-118400714D01*
X206341547Y-118448333D01*
X206293928Y-118495952D01*
X206246309Y-118591190D01*
X206246309Y-118876904D01*
X206293928Y-118972142D01*
X206341547Y-119019761D01*
X206436785Y-119067380D01*
X206627261Y-119067380D01*
X206722500Y-119019761D01*
X205817738Y-118972142D02*
X205770119Y-119019761D01*
X205817738Y-119067380D01*
X205865357Y-119019761D01*
X205817738Y-118972142D01*
X205817738Y-119067380D01*
X204912976Y-119019761D02*
X205008214Y-119067380D01*
X205198690Y-119067380D01*
X205293928Y-119019761D01*
X205341547Y-118972142D01*
X205389166Y-118876904D01*
X205389166Y-118591190D01*
X205341547Y-118495952D01*
X205293928Y-118448333D01*
X205198690Y-118400714D01*
X205008214Y-118400714D01*
X204912976Y-118448333D01*
X204341547Y-119067380D02*
X204436785Y-119019761D01*
X204484404Y-118972142D01*
X204532023Y-118876904D01*
X204532023Y-118591190D01*
X204484404Y-118495952D01*
X204436785Y-118448333D01*
X204341547Y-118400714D01*
X204198690Y-118400714D01*
X204103452Y-118448333D01*
X204055833Y-118495952D01*
X204008214Y-118591190D01*
X204008214Y-118876904D01*
X204055833Y-118972142D01*
X204103452Y-119019761D01*
X204198690Y-119067380D01*
X204341547Y-119067380D01*
X203579642Y-119067380D02*
X203579642Y-118400714D01*
X203579642Y-118495952D02*
X203532023Y-118448333D01*
X203436785Y-118400714D01*
X203293928Y-118400714D01*
X203198690Y-118448333D01*
X203151071Y-118543571D01*
X203151071Y-119067380D01*
X203151071Y-118543571D02*
X203103452Y-118448333D01*
X203008214Y-118400714D01*
X202865357Y-118400714D01*
X202770119Y-118448333D01*
X202722500Y-118543571D01*
X202722500Y-119067380D01*
X201532023Y-118019761D02*
X202389166Y-119305476D01*
X201198690Y-119067380D02*
X201198690Y-118067380D01*
X201198690Y-118448333D02*
X201103452Y-118400714D01*
X200912976Y-118400714D01*
X200817738Y-118448333D01*
X200770119Y-118495952D01*
X200722500Y-118591190D01*
X200722500Y-118876904D01*
X200770119Y-118972142D01*
X200817738Y-119019761D01*
X200912976Y-119067380D01*
X201103452Y-119067380D01*
X201198690Y-119019761D01*
X200293928Y-119067380D02*
X200293928Y-118400714D01*
X200293928Y-118591190D02*
X200246309Y-118495952D01*
X200198690Y-118448333D01*
X200103452Y-118400714D01*
X200008214Y-118400714D01*
X199293928Y-119019761D02*
X199389166Y-119067380D01*
X199579642Y-119067380D01*
X199674880Y-119019761D01*
X199722500Y-118924523D01*
X199722500Y-118543571D01*
X199674880Y-118448333D01*
X199579642Y-118400714D01*
X199389166Y-118400714D01*
X199293928Y-118448333D01*
X199246309Y-118543571D01*
X199246309Y-118638809D01*
X199722500Y-118734047D01*
X198389166Y-119067380D02*
X198389166Y-118543571D01*
X198436785Y-118448333D01*
X198532023Y-118400714D01*
X198722500Y-118400714D01*
X198817738Y-118448333D01*
X198389166Y-119019761D02*
X198484404Y-119067380D01*
X198722500Y-119067380D01*
X198817738Y-119019761D01*
X198865357Y-118924523D01*
X198865357Y-118829285D01*
X198817738Y-118734047D01*
X198722500Y-118686428D01*
X198484404Y-118686428D01*
X198389166Y-118638809D01*
X197484404Y-119067380D02*
X197484404Y-118067380D01*
X197484404Y-119019761D02*
X197579642Y-119067380D01*
X197770119Y-119067380D01*
X197865357Y-119019761D01*
X197912976Y-118972142D01*
X197960595Y-118876904D01*
X197960595Y-118591190D01*
X197912976Y-118495952D01*
X197865357Y-118448333D01*
X197770119Y-118400714D01*
X197579642Y-118400714D01*
X197484404Y-118448333D01*
X196865357Y-118495952D02*
X196960595Y-118448333D01*
X197008214Y-118400714D01*
X197055833Y-118305476D01*
X197055833Y-118257857D01*
X197008214Y-118162619D01*
X196960595Y-118115000D01*
X196865357Y-118067380D01*
X196674880Y-118067380D01*
X196579642Y-118115000D01*
X196532023Y-118162619D01*
X196484404Y-118257857D01*
X196484404Y-118305476D01*
X196532023Y-118400714D01*
X196579642Y-118448333D01*
X196674880Y-118495952D01*
X196865357Y-118495952D01*
X196960595Y-118543571D01*
X197008214Y-118591190D01*
X197055833Y-118686428D01*
X197055833Y-118876904D01*
X197008214Y-118972142D01*
X196960595Y-119019761D01*
X196865357Y-119067380D01*
X196674880Y-119067380D01*
X196579642Y-119019761D01*
X196532023Y-118972142D01*
X196484404Y-118876904D01*
X196484404Y-118686428D01*
X196532023Y-118591190D01*
X196579642Y-118543571D01*
X196674880Y-118495952D01*
X195865357Y-118067380D02*
X195770119Y-118067380D01*
X195674880Y-118115000D01*
X195627261Y-118162619D01*
X195579642Y-118257857D01*
X195532023Y-118448333D01*
X195532023Y-118686428D01*
X195579642Y-118876904D01*
X195627261Y-118972142D01*
X195674880Y-119019761D01*
X195770119Y-119067380D01*
X195865357Y-119067380D01*
X195960595Y-119019761D01*
X196008214Y-118972142D01*
X196055833Y-118876904D01*
X196103452Y-118686428D01*
X196103452Y-118448333D01*
X196055833Y-118257857D01*
X196008214Y-118162619D01*
X195960595Y-118115000D01*
X195865357Y-118067380D01*
X192055833Y-118686428D02*
X191293928Y-118686428D01*
X187912976Y-118400714D02*
X187532023Y-118400714D01*
X187770119Y-118067380D02*
X187770119Y-118924523D01*
X187722500Y-119019761D01*
X187627261Y-119067380D01*
X187532023Y-119067380D01*
X187293928Y-118400714D02*
X187103452Y-119067380D01*
X186912976Y-118591190D01*
X186722500Y-119067380D01*
X186532023Y-118400714D01*
X186151071Y-119067380D02*
X186151071Y-118400714D01*
X186151071Y-118067380D02*
X186198690Y-118115000D01*
X186151071Y-118162619D01*
X186103452Y-118115000D01*
X186151071Y-118067380D01*
X186151071Y-118162619D01*
X185817738Y-118400714D02*
X185436785Y-118400714D01*
X185674880Y-118067380D02*
X185674880Y-118924523D01*
X185627261Y-119019761D01*
X185532023Y-119067380D01*
X185436785Y-119067380D01*
X185246309Y-118400714D02*
X184865357Y-118400714D01*
X185103452Y-118067380D02*
X185103452Y-118924523D01*
X185055833Y-119019761D01*
X184960595Y-119067380D01*
X184865357Y-119067380D01*
X184151071Y-119019761D02*
X184246309Y-119067380D01*
X184436785Y-119067380D01*
X184532023Y-119019761D01*
X184579642Y-118924523D01*
X184579642Y-118543571D01*
X184532023Y-118448333D01*
X184436785Y-118400714D01*
X184246309Y-118400714D01*
X184151071Y-118448333D01*
X184103452Y-118543571D01*
X184103452Y-118638809D01*
X184579642Y-118734047D01*
X183674880Y-119067380D02*
X183674880Y-118400714D01*
X183674880Y-118591190D02*
X183627261Y-118495952D01*
X183579642Y-118448333D01*
X183484404Y-118400714D01*
X183389166Y-118400714D01*
X183055833Y-118972142D02*
X183008214Y-119019761D01*
X183055833Y-119067380D01*
X183103452Y-119019761D01*
X183055833Y-118972142D01*
X183055833Y-119067380D01*
X182151071Y-119019761D02*
X182246309Y-119067380D01*
X182436785Y-119067380D01*
X182532023Y-119019761D01*
X182579642Y-118972142D01*
X182627261Y-118876904D01*
X182627261Y-118591190D01*
X182579642Y-118495952D01*
X182532023Y-118448333D01*
X182436785Y-118400714D01*
X182246309Y-118400714D01*
X182151071Y-118448333D01*
X181579642Y-119067380D02*
X181674880Y-119019761D01*
X181722500Y-118972142D01*
X181770119Y-118876904D01*
X181770119Y-118591190D01*
X181722500Y-118495952D01*
X181674880Y-118448333D01*
X181579642Y-118400714D01*
X181436785Y-118400714D01*
X181341547Y-118448333D01*
X181293928Y-118495952D01*
X181246309Y-118591190D01*
X181246309Y-118876904D01*
X181293928Y-118972142D01*
X181341547Y-119019761D01*
X181436785Y-119067380D01*
X181579642Y-119067380D01*
X180817738Y-119067380D02*
X180817738Y-118400714D01*
X180817738Y-118495952D02*
X180770119Y-118448333D01*
X180674880Y-118400714D01*
X180532023Y-118400714D01*
X180436785Y-118448333D01*
X180389166Y-118543571D01*
X180389166Y-119067380D01*
X180389166Y-118543571D02*
X180341547Y-118448333D01*
X180246309Y-118400714D01*
X180103452Y-118400714D01*
X180008214Y-118448333D01*
X179960595Y-118543571D01*
X179960595Y-119067380D01*
X178770119Y-118019761D02*
X179627261Y-119305476D01*
X178436785Y-119067380D02*
X178436785Y-118067380D01*
X178436785Y-118448333D02*
X178341547Y-118400714D01*
X178151071Y-118400714D01*
X178055833Y-118448333D01*
X178008214Y-118495952D01*
X177960595Y-118591190D01*
X177960595Y-118876904D01*
X178008214Y-118972142D01*
X178055833Y-119019761D01*
X178151071Y-119067380D01*
X178341547Y-119067380D01*
X178436785Y-119019761D01*
X177532023Y-119067380D02*
X177532023Y-118400714D01*
X177532023Y-118591190D02*
X177484404Y-118495952D01*
X177436785Y-118448333D01*
X177341547Y-118400714D01*
X177246309Y-118400714D01*
X176532023Y-119019761D02*
X176627261Y-119067380D01*
X176817738Y-119067380D01*
X176912976Y-119019761D01*
X176960595Y-118924523D01*
X176960595Y-118543571D01*
X176912976Y-118448333D01*
X176817738Y-118400714D01*
X176627261Y-118400714D01*
X176532023Y-118448333D01*
X176484404Y-118543571D01*
X176484404Y-118638809D01*
X176960595Y-118734047D01*
X175627261Y-119067380D02*
X175627261Y-118543571D01*
X175674880Y-118448333D01*
X175770119Y-118400714D01*
X175960595Y-118400714D01*
X176055833Y-118448333D01*
X175627261Y-119019761D02*
X175722500Y-119067380D01*
X175960595Y-119067380D01*
X176055833Y-119019761D01*
X176103452Y-118924523D01*
X176103452Y-118829285D01*
X176055833Y-118734047D01*
X175960595Y-118686428D01*
X175722500Y-118686428D01*
X175627261Y-118638809D01*
X174722500Y-119067380D02*
X174722500Y-118067380D01*
X174722500Y-119019761D02*
X174817738Y-119067380D01*
X175008214Y-119067380D01*
X175103452Y-119019761D01*
X175151071Y-118972142D01*
X175198690Y-118876904D01*
X175198690Y-118591190D01*
X175151071Y-118495952D01*
X175103452Y-118448333D01*
X175008214Y-118400714D01*
X174817738Y-118400714D01*
X174722500Y-118448333D01*
X174103452Y-118495952D02*
X174198690Y-118448333D01*
X174246309Y-118400714D01*
X174293928Y-118305476D01*
X174293928Y-118257857D01*
X174246309Y-118162619D01*
X174198690Y-118115000D01*
X174103452Y-118067380D01*
X173912976Y-118067380D01*
X173817738Y-118115000D01*
X173770119Y-118162619D01*
X173722500Y-118257857D01*
X173722500Y-118305476D01*
X173770119Y-118400714D01*
X173817738Y-118448333D01*
X173912976Y-118495952D01*
X174103452Y-118495952D01*
X174198690Y-118543571D01*
X174246309Y-118591190D01*
X174293928Y-118686428D01*
X174293928Y-118876904D01*
X174246309Y-118972142D01*
X174198690Y-119019761D01*
X174103452Y-119067380D01*
X173912976Y-119067380D01*
X173817738Y-119019761D01*
X173770119Y-118972142D01*
X173722500Y-118876904D01*
X173722500Y-118686428D01*
X173770119Y-118591190D01*
X173817738Y-118543571D01*
X173912976Y-118495952D01*
X173103452Y-118067380D02*
X173008214Y-118067380D01*
X172912976Y-118115000D01*
X172865357Y-118162619D01*
X172817738Y-118257857D01*
X172770119Y-118448333D01*
X172770119Y-118686428D01*
X172817738Y-118876904D01*
X172865357Y-118972142D01*
X172912976Y-119019761D01*
X173008214Y-119067380D01*
X173103452Y-119067380D01*
X173198690Y-119019761D01*
X173246309Y-118972142D01*
X173293928Y-118876904D01*
X173341547Y-118686428D01*
X173341547Y-118448333D01*
X173293928Y-118257857D01*
X173246309Y-118162619D01*
X173198690Y-118115000D01*
X173103452Y-118067380D01*
X171912976Y-119019761D02*
X172008214Y-119067380D01*
X172198690Y-119067380D01*
X172293928Y-119019761D01*
X172341547Y-118972142D01*
X172389166Y-118876904D01*
X172389166Y-118591190D01*
X172341547Y-118495952D01*
X172293928Y-118448333D01*
X172198690Y-118400714D01*
X172008214Y-118400714D01*
X171912976Y-118448333D01*
X171341547Y-119067380D02*
X171436785Y-119019761D01*
X171484404Y-118972142D01*
X171532023Y-118876904D01*
X171532023Y-118591190D01*
X171484404Y-118495952D01*
X171436785Y-118448333D01*
X171341547Y-118400714D01*
X171198690Y-118400714D01*
X171103452Y-118448333D01*
X171055833Y-118495952D01*
X171008214Y-118591190D01*
X171008214Y-118876904D01*
X171055833Y-118972142D01*
X171103452Y-119019761D01*
X171198690Y-119067380D01*
X171341547Y-119067380D01*
X170579642Y-119067380D02*
X170579642Y-118400714D01*
X170579642Y-118495952D02*
X170532023Y-118448333D01*
X170436785Y-118400714D01*
X170293928Y-118400714D01*
X170198690Y-118448333D01*
X170151071Y-118543571D01*
X170151071Y-119067380D01*
X170151071Y-118543571D02*
X170103452Y-118448333D01*
X170008214Y-118400714D01*
X169865357Y-118400714D01*
X169770119Y-118448333D01*
X169722500Y-118543571D01*
X169722500Y-119067380D01*
D11*
X247075000Y-104715000D02*
X247075000Y-109915000D01*
X229235000Y-104715000D02*
X247075000Y-104715000D01*
X226635000Y-109915000D02*
X247075000Y-109915000D01*
X229235000Y-104715000D02*
X229235000Y-107315000D01*
X229235000Y-107315000D02*
X226635000Y-107315000D01*
X226635000Y-107315000D02*
X226635000Y-109915000D01*
X227965000Y-104715000D02*
X226635000Y-104715000D01*
X226635000Y-104715000D02*
X226635000Y-106045000D01*
D10*
X225087380Y-106981666D02*
X225801666Y-106981666D01*
X225944523Y-106934047D01*
X226039761Y-106838809D01*
X226087380Y-106695952D01*
X226087380Y-106600714D01*
X225182619Y-107410238D02*
X225135000Y-107457857D01*
X225087380Y-107553095D01*
X225087380Y-107791190D01*
X225135000Y-107886428D01*
X225182619Y-107934047D01*
X225277857Y-107981666D01*
X225373095Y-107981666D01*
X225515952Y-107934047D01*
X226087380Y-107362619D01*
X226087380Y-107981666D01*
M02*
