M48
INCH,TZ
T1C0.0157
T2C0.0315
T3C0.0394
%
G90
G05
T1
X62450Y-42300
X63100Y-50300
X63300Y-62400
X63450Y-50700
X64500Y-51000
X64500Y-61300
X68800Y-58850
X69750Y-46700
X71700Y-50000
X72750Y-45450
X72800Y-55100
X72950Y-52250
X73200Y-59600
X73800Y-55800
X74000Y-47950
X74000Y-52447
X74500Y-45204
X74500Y-55650
X75500Y-56000
X77750Y-45804
X77850Y-59150
X78750Y-45000
X78750Y-57950
X79250Y-50000
X79800Y-61650
X80700Y-58500
X80750Y-46050
X81950Y-56400
X82750Y-47000
X82950Y-48031
X83100Y-45150
X83150Y-61650
X83450Y-54518
X83450Y-50650
X84500Y-51000
X84500Y-52800
X84500Y-61650
X85300Y-54800
X85400Y-50300
X85500Y-61650
X85650Y-57650
X85713Y-45737
X86250Y-53350
X86500Y-61650
X86750Y-58850
X87250Y-60000
X87400Y-50000
X87500Y-61650
X87550Y-57950
X87800Y-60000
X88200Y-59150
X88350Y-51350
X88500Y-61600
X88650Y-58500
X88807Y-50707
X89250Y-60400
X89500Y-61450
X90000Y-54850
X90250Y-59600
X90700Y-59650
X90950Y-58900
X90950Y-61600
X91250Y-60750
X91500Y-58600
X92100Y-59200
X92100Y-61600
X92400Y-58300
X93200Y-61100
X93650Y-58000
X94500Y-57650
X95200Y-56400
X95200Y-60150
X95900Y-54850
X96946Y-61650
X97500Y-61650
T2
X64016Y-44516
X64016Y-49250
X64016Y-54016
X65000Y-44516
X65000Y-49250
X65000Y-54016
X66250Y-44500
X66250Y-47500
X66250Y-49250
X66250Y-52250
X66250Y-54000
X66250Y-57000
X67250Y-44500
X67250Y-47500
X67250Y-49250
X67250Y-52250
X67250Y-54000
X67250Y-57000
X68250Y-44500
X68250Y-47500
X68250Y-49250
X68250Y-52250
X68250Y-54000
X68250Y-57000
X69250Y-44500
X69250Y-47500
X69250Y-49250
X69250Y-52250
X69250Y-54000
X69250Y-57000
X70250Y-42750
X70250Y-44500
X70250Y-47500
X70250Y-49250
X70250Y-52250
X70250Y-54000
X70250Y-57000
X71250Y-44500
X71250Y-47500
X71250Y-49250
X71250Y-52250
X71250Y-54000
X71250Y-57000
X72250Y-44500
X72250Y-47500
X72250Y-49250
X72250Y-52250
X72250Y-54000
X72250Y-57000
X73250Y-42750
X74016Y-49266
X74016Y-54016
X74500Y-44500
X74500Y-47500
X75000Y-49266
X75000Y-54016
X76016Y-44500
X76250Y-49250
X76250Y-52250
X76250Y-54000
X76250Y-57000
X77000Y-44500
X77250Y-49250
X77250Y-52250
X77250Y-54000
X77250Y-57000
X78250Y-44500
X78250Y-47500
X78250Y-49250
X78250Y-52250
X78250Y-54000
X78250Y-57000
X79250Y-44500
X79250Y-47500
X79250Y-49250
X79250Y-52250
X79250Y-54000
X79250Y-57000
X80250Y-44500
X80250Y-47500
X80250Y-49250
X80250Y-52250
X80250Y-54000
X80250Y-57000
X81250Y-44500
X81250Y-47500
X81250Y-49250
X81250Y-52250
X81250Y-54000
X81250Y-57000
X82250Y-44500
X82250Y-47500
X82250Y-49250
X82250Y-52250
X82250Y-54000
X82250Y-57000
X83250Y-44500
X83250Y-47500
X84016Y-49266
X84016Y-54000
X84250Y-44500
X84250Y-47500
X85000Y-49266
X85000Y-54000
X85250Y-44500
X85250Y-47500
X86250Y-44500
X86250Y-47500
X86250Y-49250
X86250Y-52250
X86250Y-54000
X86250Y-57000
X87250Y-44500
X87250Y-47500
X87250Y-49250
X87250Y-52250
X87250Y-54000
X87250Y-57000
X88250Y-49250
X88250Y-52250
X88250Y-54000
X88250Y-57000
X89016Y-44500
X89250Y-49250
X89250Y-52250
X89250Y-54000
X89250Y-57000
X90000Y-44500
X90250Y-49250
X90250Y-52250
X90250Y-54000
X90250Y-57000
X91250Y-44500
X91250Y-47500
X91250Y-49250
X91250Y-52250
X91250Y-54000
X91250Y-57000
X92250Y-44500
X92250Y-47500
X92250Y-49250
X92250Y-52250
X92250Y-54000
X92250Y-57000
X93250Y-44500
X93250Y-47500
X93250Y-49250
X93250Y-52250
X93250Y-54000
X93250Y-57000
X94250Y-44500
X94250Y-47500
X94250Y-49250
X94250Y-52250
X94250Y-54000
X94250Y-57000
X95250Y-44500
X95250Y-47500
X95250Y-49250
X95250Y-52250
X95250Y-54000
X95250Y-57000
X96250Y-44500
X96250Y-47500
X97250Y-44500
X97250Y-47500
X97250Y-49250
X97250Y-52250
X97250Y-54000
X97250Y-57000
X98250Y-44500
X98250Y-47500
X98500Y-49250
X98500Y-52250
T3
X84250Y-42000
X84250Y-43000
X85250Y-42000
X85250Y-43000
X86250Y-42000
X86250Y-43000
T0
M30
