G04 #@! TF.GenerationSoftware,KiCad,Pcbnew,(5.1.12)-1*
G04 #@! TF.CreationDate,2023-07-18T15:52:43+01:00*
G04 #@! TF.ProjectId,CPCRAMCtrl,43504352-414d-4437-9472-6c2e6b696361,rev?*
G04 #@! TF.SameCoordinates,Original*
G04 #@! TF.FileFunction,Soldermask,Top*
G04 #@! TF.FilePolarity,Negative*
%FSLAX46Y46*%
G04 Gerber Fmt 4.6, Leading zero omitted, Abs format (unit mm)*
G04 Created by KiCad (PCBNEW (5.1.12)-1) date 2023-07-18 15:52:43*
%MOMM*%
%LPD*%
G01*
G04 APERTURE LIST*
%ADD10O,1.700000X1.700000*%
%ADD11R,1.700000X1.700000*%
%ADD12O,1.600000X1.600000*%
%ADD13R,1.600000X1.600000*%
%ADD14C,1.600000*%
%ADD15C,3.200000*%
G04 APERTURE END LIST*
D10*
X245745000Y-108585000D03*
X245745000Y-106045000D03*
X243205000Y-108585000D03*
X243205000Y-106045000D03*
X240665000Y-108585000D03*
X240665000Y-106045000D03*
X238125000Y-108585000D03*
X238125000Y-106045000D03*
X235585000Y-108585000D03*
X235585000Y-106045000D03*
X233045000Y-108585000D03*
X233045000Y-106045000D03*
X230505000Y-108585000D03*
X230505000Y-106045000D03*
X227965000Y-108585000D03*
D11*
X227965000Y-106045000D03*
D12*
X193675000Y-137160000D03*
X208915000Y-144780000D03*
X196215000Y-137160000D03*
X206375000Y-144780000D03*
X198755000Y-137160000D03*
X203835000Y-144780000D03*
X201295000Y-137160000D03*
X201295000Y-144780000D03*
X203835000Y-137160000D03*
X198755000Y-144780000D03*
X206375000Y-137160000D03*
X196215000Y-144780000D03*
X208915000Y-137160000D03*
D13*
X193675000Y-144780000D03*
D12*
X247015000Y-137160000D03*
D14*
X247015000Y-144780000D03*
D12*
X168275000Y-137160000D03*
X183515000Y-144780000D03*
X170815000Y-137160000D03*
X180975000Y-144780000D03*
X173355000Y-137160000D03*
X178435000Y-144780000D03*
X175895000Y-137160000D03*
X175895000Y-144780000D03*
X178435000Y-137160000D03*
X173355000Y-144780000D03*
X180975000Y-137160000D03*
X170815000Y-144780000D03*
X183515000Y-137160000D03*
D13*
X168275000Y-144780000D03*
D12*
X231775000Y-113030000D03*
X249555000Y-120650000D03*
X234315000Y-113030000D03*
X247015000Y-120650000D03*
X236855000Y-113030000D03*
X244475000Y-120650000D03*
X239395000Y-113030000D03*
X241935000Y-120650000D03*
X241935000Y-113030000D03*
X239395000Y-120650000D03*
X244475000Y-113030000D03*
X236855000Y-120650000D03*
X247015000Y-113030000D03*
X234315000Y-120650000D03*
X249555000Y-113030000D03*
D13*
X231775000Y-120650000D03*
D12*
X193675000Y-125095000D03*
X208915000Y-132715000D03*
X196215000Y-125095000D03*
X206375000Y-132715000D03*
X198755000Y-125095000D03*
X203835000Y-132715000D03*
X201295000Y-125095000D03*
X201295000Y-132715000D03*
X203835000Y-125095000D03*
X198755000Y-132715000D03*
X206375000Y-125095000D03*
X196215000Y-132715000D03*
X208915000Y-125095000D03*
D13*
X193675000Y-132715000D03*
D12*
X168275000Y-125095000D03*
X183515000Y-132715000D03*
X170815000Y-125095000D03*
X180975000Y-132715000D03*
X173355000Y-125095000D03*
X178435000Y-132715000D03*
X175895000Y-125095000D03*
X175895000Y-132715000D03*
X178435000Y-125095000D03*
X173355000Y-132715000D03*
X180975000Y-125095000D03*
X170815000Y-132715000D03*
X183515000Y-125095000D03*
D13*
X168275000Y-132715000D03*
D12*
X219075000Y-137160000D03*
X241935000Y-144780000D03*
X221615000Y-137160000D03*
X239395000Y-144780000D03*
X224155000Y-137160000D03*
X236855000Y-144780000D03*
X226695000Y-137160000D03*
X234315000Y-144780000D03*
X229235000Y-137160000D03*
X231775000Y-144780000D03*
X231775000Y-137160000D03*
X229235000Y-144780000D03*
X234315000Y-137160000D03*
X226695000Y-144780000D03*
X236855000Y-137160000D03*
X224155000Y-144780000D03*
X239395000Y-137160000D03*
X221615000Y-144780000D03*
X241935000Y-137160000D03*
D13*
X219075000Y-144780000D03*
D12*
X219075000Y-125095000D03*
X241935000Y-132715000D03*
X221615000Y-125095000D03*
X239395000Y-132715000D03*
X224155000Y-125095000D03*
X236855000Y-132715000D03*
X226695000Y-125095000D03*
X234315000Y-132715000D03*
X229235000Y-125095000D03*
X231775000Y-132715000D03*
X231775000Y-125095000D03*
X229235000Y-132715000D03*
X234315000Y-125095000D03*
X226695000Y-132715000D03*
X236855000Y-125095000D03*
X224155000Y-132715000D03*
X239395000Y-125095000D03*
X221615000Y-132715000D03*
X241935000Y-125095000D03*
D13*
X219075000Y-132715000D03*
D12*
X250190000Y-125095000D03*
D14*
X250190000Y-132715000D03*
D12*
X247015000Y-125095000D03*
D14*
X247015000Y-132715000D03*
D12*
X250190000Y-137160000D03*
D14*
X250190000Y-144780000D03*
D12*
X189230000Y-120650000D03*
D14*
X189230000Y-113030000D03*
D10*
X172085000Y-106045000D03*
X174625000Y-106045000D03*
X177165000Y-106045000D03*
X179705000Y-106045000D03*
X182245000Y-106045000D03*
X184785000Y-106045000D03*
X187325000Y-106045000D03*
X189865000Y-106045000D03*
X192405000Y-106045000D03*
D11*
X194945000Y-106045000D03*
D12*
X168275000Y-113030000D03*
X183515000Y-120650000D03*
X170815000Y-113030000D03*
X180975000Y-120650000D03*
X173355000Y-113030000D03*
X178435000Y-120650000D03*
X175895000Y-113030000D03*
X175895000Y-120650000D03*
X178435000Y-113030000D03*
X173355000Y-120650000D03*
X180975000Y-113030000D03*
X170815000Y-120650000D03*
X183515000Y-113030000D03*
D13*
X168275000Y-120650000D03*
D14*
X226100000Y-113030000D03*
X228600000Y-113030000D03*
D10*
X213995000Y-109220000D03*
D11*
X213995000Y-106680000D03*
D10*
X254762000Y-151612600D03*
X252222000Y-151612600D03*
X249682000Y-151612600D03*
X247142000Y-151612600D03*
X244602000Y-151612600D03*
X242062000Y-151612600D03*
X239522000Y-151612600D03*
X236982000Y-151612600D03*
X234442000Y-151612600D03*
X231902000Y-151612600D03*
X229362000Y-151612600D03*
X226822000Y-151612600D03*
X224282000Y-151612600D03*
X221742000Y-151612600D03*
X219202000Y-151612600D03*
X216662000Y-151612600D03*
X214122000Y-151612600D03*
X211582000Y-151612600D03*
X209042000Y-151612600D03*
X206502000Y-151612600D03*
X203962000Y-151612600D03*
X201422000Y-151612600D03*
X198882000Y-151612600D03*
X196342000Y-151612600D03*
X193802000Y-151612600D03*
X191262000Y-151612600D03*
X188722000Y-151612600D03*
X186182000Y-151612600D03*
X183642000Y-151612600D03*
X181102000Y-151612600D03*
X178562000Y-151612600D03*
X176022000Y-151612600D03*
X173482000Y-151612600D03*
X170942000Y-151612600D03*
X168402000Y-151612600D03*
X165862000Y-151612600D03*
X163322000Y-151612600D03*
X160782000Y-151612600D03*
X158242000Y-151612600D03*
D11*
X155702000Y-151612600D03*
D10*
X219075000Y-109220000D03*
D11*
X219075000Y-106680000D03*
D10*
X216535000Y-109220000D03*
D11*
X216535000Y-106680000D03*
D10*
X257302000Y-149072600D03*
X254762000Y-149072600D03*
X252222000Y-149072600D03*
X249682000Y-149072600D03*
X247142000Y-149072600D03*
X244602000Y-149072600D03*
X242062000Y-149072600D03*
X239522000Y-149072600D03*
X236982000Y-149072600D03*
X234442000Y-149072600D03*
X231902000Y-149072600D03*
X229362000Y-149072600D03*
X226822000Y-149072600D03*
X224282000Y-149072600D03*
X221742000Y-149072600D03*
X219202000Y-149072600D03*
X216662000Y-149072600D03*
X214122000Y-149072600D03*
X211582000Y-149072600D03*
X209042000Y-149072600D03*
X206502000Y-149072600D03*
X203962000Y-149072600D03*
X201422000Y-149072600D03*
X198882000Y-149072600D03*
D11*
X196342000Y-149072600D03*
D12*
X198755000Y-113030000D03*
X221615000Y-120650000D03*
X201295000Y-113030000D03*
X219075000Y-120650000D03*
X203835000Y-113030000D03*
X216535000Y-120650000D03*
X206375000Y-113030000D03*
X213995000Y-120650000D03*
X208915000Y-113030000D03*
X211455000Y-120650000D03*
X211455000Y-113030000D03*
X208915000Y-120650000D03*
X213995000Y-113030000D03*
X206375000Y-120650000D03*
X216535000Y-113030000D03*
X203835000Y-120650000D03*
X219075000Y-113030000D03*
X201295000Y-120650000D03*
X221615000Y-113030000D03*
D13*
X198755000Y-120650000D03*
D14*
X213400000Y-125135000D03*
X215900000Y-125135000D03*
X213400000Y-137160000D03*
X215900000Y-137160000D03*
X193080000Y-113030000D03*
X195580000Y-113030000D03*
X188000000Y-125135000D03*
X190500000Y-125135000D03*
X188000000Y-137200000D03*
X190500000Y-137200000D03*
X162600000Y-113070000D03*
X165100000Y-113070000D03*
X162600000Y-125095000D03*
X165100000Y-125095000D03*
X162600000Y-137200000D03*
X165100000Y-137200000D03*
D15*
X158927800Y-120243600D03*
M02*
