G04 #@! TF.GenerationSoftware,KiCad,Pcbnew,(5.1.12)-1*
G04 #@! TF.CreationDate,2023-07-18T15:52:43+01:00*
G04 #@! TF.ProjectId,CPCRAMCtrl,43504352-414d-4437-9472-6c2e6b696361,rev?*
G04 #@! TF.SameCoordinates,Original*
G04 #@! TF.FileFunction,Legend,Top*
G04 #@! TF.FilePolarity,Positive*
%FSLAX46Y46*%
G04 Gerber Fmt 4.6, Leading zero omitted, Abs format (unit mm)*
G04 Created by KiCad (PCBNEW (5.1.12)-1) date 2023-07-18 15:52:43*
%MOMM*%
%LPD*%
G01*
G04 APERTURE LIST*
%ADD10C,0.150000*%
%ADD11C,0.250000*%
%ADD12C,0.200000*%
%ADD13C,0.300000*%
%ADD14C,0.120000*%
G04 APERTURE END LIST*
D10*
X177943571Y-108037380D02*
X178515000Y-108037380D01*
X178229285Y-109037380D02*
X178229285Y-108037380D01*
X178991190Y-109037380D02*
X178895952Y-108989761D01*
X178848333Y-108942142D01*
X178800714Y-108846904D01*
X178800714Y-108561190D01*
X178848333Y-108465952D01*
X178895952Y-108418333D01*
X178991190Y-108370714D01*
X179134047Y-108370714D01*
X179229285Y-108418333D01*
X179276904Y-108465952D01*
X179324523Y-108561190D01*
X179324523Y-108846904D01*
X179276904Y-108942142D01*
X179229285Y-108989761D01*
X179134047Y-109037380D01*
X178991190Y-109037380D01*
X180419761Y-108370714D02*
X180657857Y-109037380D01*
X180895952Y-108370714D01*
X181276904Y-109037380D02*
X181276904Y-108370714D01*
X181276904Y-108037380D02*
X181229285Y-108085000D01*
X181276904Y-108132619D01*
X181324523Y-108085000D01*
X181276904Y-108037380D01*
X181276904Y-108132619D01*
X182181666Y-109037380D02*
X182181666Y-108037380D01*
X182181666Y-108989761D02*
X182086428Y-109037380D01*
X181895952Y-109037380D01*
X181800714Y-108989761D01*
X181753095Y-108942142D01*
X181705476Y-108846904D01*
X181705476Y-108561190D01*
X181753095Y-108465952D01*
X181800714Y-108418333D01*
X181895952Y-108370714D01*
X182086428Y-108370714D01*
X182181666Y-108418333D01*
X183038809Y-108989761D02*
X182943571Y-109037380D01*
X182753095Y-109037380D01*
X182657857Y-108989761D01*
X182610238Y-108894523D01*
X182610238Y-108513571D01*
X182657857Y-108418333D01*
X182753095Y-108370714D01*
X182943571Y-108370714D01*
X183038809Y-108418333D01*
X183086428Y-108513571D01*
X183086428Y-108608809D01*
X182610238Y-108704047D01*
X183657857Y-109037380D02*
X183562619Y-108989761D01*
X183515000Y-108942142D01*
X183467380Y-108846904D01*
X183467380Y-108561190D01*
X183515000Y-108465952D01*
X183562619Y-108418333D01*
X183657857Y-108370714D01*
X183800714Y-108370714D01*
X183895952Y-108418333D01*
X183943571Y-108465952D01*
X183991190Y-108561190D01*
X183991190Y-108846904D01*
X183943571Y-108942142D01*
X183895952Y-108989761D01*
X183800714Y-109037380D01*
X183657857Y-109037380D01*
X185181666Y-109037380D02*
X185181666Y-108037380D01*
X185181666Y-108418333D02*
X185276904Y-108370714D01*
X185467380Y-108370714D01*
X185562619Y-108418333D01*
X185610238Y-108465952D01*
X185657857Y-108561190D01*
X185657857Y-108846904D01*
X185610238Y-108942142D01*
X185562619Y-108989761D01*
X185467380Y-109037380D01*
X185276904Y-109037380D01*
X185181666Y-108989761D01*
X186229285Y-109037380D02*
X186134047Y-108989761D01*
X186086428Y-108942142D01*
X186038809Y-108846904D01*
X186038809Y-108561190D01*
X186086428Y-108465952D01*
X186134047Y-108418333D01*
X186229285Y-108370714D01*
X186372142Y-108370714D01*
X186467380Y-108418333D01*
X186515000Y-108465952D01*
X186562619Y-108561190D01*
X186562619Y-108846904D01*
X186515000Y-108942142D01*
X186467380Y-108989761D01*
X186372142Y-109037380D01*
X186229285Y-109037380D01*
X187419761Y-109037380D02*
X187419761Y-108513571D01*
X187372142Y-108418333D01*
X187276904Y-108370714D01*
X187086428Y-108370714D01*
X186991190Y-108418333D01*
X187419761Y-108989761D02*
X187324523Y-109037380D01*
X187086428Y-109037380D01*
X186991190Y-108989761D01*
X186943571Y-108894523D01*
X186943571Y-108799285D01*
X186991190Y-108704047D01*
X187086428Y-108656428D01*
X187324523Y-108656428D01*
X187419761Y-108608809D01*
X187895952Y-109037380D02*
X187895952Y-108370714D01*
X187895952Y-108561190D02*
X187943571Y-108465952D01*
X187991190Y-108418333D01*
X188086428Y-108370714D01*
X188181666Y-108370714D01*
X188943571Y-109037380D02*
X188943571Y-108037380D01*
X188943571Y-108989761D02*
X188848333Y-109037380D01*
X188657857Y-109037380D01*
X188562619Y-108989761D01*
X188515000Y-108942142D01*
X188467380Y-108846904D01*
X188467380Y-108561190D01*
X188515000Y-108465952D01*
X188562619Y-108418333D01*
X188657857Y-108370714D01*
X188848333Y-108370714D01*
X188943571Y-108418333D01*
X196057142Y-108720476D02*
X195961904Y-108672857D01*
X195771428Y-108672857D01*
X195676190Y-108720476D01*
X195580952Y-108815714D01*
X195533333Y-108910952D01*
X195533333Y-109101428D01*
X195580952Y-109196666D01*
X195676190Y-109291904D01*
X195771428Y-109339523D01*
X195961904Y-109339523D01*
X196057142Y-109291904D01*
X195866666Y-108339523D02*
X195628571Y-108387142D01*
X195390476Y-108530000D01*
X195247619Y-108768095D01*
X195200000Y-109006190D01*
X195247619Y-109244285D01*
X195390476Y-109482380D01*
X195628571Y-109625238D01*
X195866666Y-109672857D01*
X196104761Y-109625238D01*
X196342857Y-109482380D01*
X196485714Y-109244285D01*
X196533333Y-109006190D01*
X196485714Y-108768095D01*
X196342857Y-108530000D01*
X196104761Y-108387142D01*
X195866666Y-108339523D01*
X197723809Y-109482380D02*
X197723809Y-108482380D01*
X198057142Y-109196666D01*
X198390476Y-108482380D01*
X198390476Y-109482380D01*
X198866666Y-109482380D02*
X198866666Y-108815714D01*
X198866666Y-108482380D02*
X198819047Y-108530000D01*
X198866666Y-108577619D01*
X198914285Y-108530000D01*
X198866666Y-108482380D01*
X198866666Y-108577619D01*
X199342857Y-109482380D02*
X199342857Y-108482380D01*
X199438095Y-109101428D02*
X199723809Y-109482380D01*
X199723809Y-108815714D02*
X199342857Y-109196666D01*
X200533333Y-109434761D02*
X200438095Y-109482380D01*
X200247619Y-109482380D01*
X200152380Y-109434761D01*
X200104761Y-109339523D01*
X200104761Y-108958571D01*
X200152380Y-108863333D01*
X200247619Y-108815714D01*
X200438095Y-108815714D01*
X200533333Y-108863333D01*
X200580952Y-108958571D01*
X200580952Y-109053809D01*
X200104761Y-109149047D01*
X201723809Y-109434761D02*
X201866666Y-109482380D01*
X202104761Y-109482380D01*
X202200000Y-109434761D01*
X202247619Y-109387142D01*
X202295238Y-109291904D01*
X202295238Y-109196666D01*
X202247619Y-109101428D01*
X202200000Y-109053809D01*
X202104761Y-109006190D01*
X201914285Y-108958571D01*
X201819047Y-108910952D01*
X201771428Y-108863333D01*
X201723809Y-108768095D01*
X201723809Y-108672857D01*
X201771428Y-108577619D01*
X201819047Y-108530000D01*
X201914285Y-108482380D01*
X202152380Y-108482380D01*
X202295238Y-108530000D01*
X203152380Y-108815714D02*
X203152380Y-109482380D01*
X202723809Y-108815714D02*
X202723809Y-109339523D01*
X202771428Y-109434761D01*
X202866666Y-109482380D01*
X203009523Y-109482380D01*
X203104761Y-109434761D01*
X203152380Y-109387142D01*
X203485714Y-108815714D02*
X203866666Y-108815714D01*
X203628571Y-108482380D02*
X203628571Y-109339523D01*
X203676190Y-109434761D01*
X203771428Y-109482380D01*
X203866666Y-109482380D01*
X204057142Y-108815714D02*
X204438095Y-108815714D01*
X204200000Y-108482380D02*
X204200000Y-109339523D01*
X204247619Y-109434761D01*
X204342857Y-109482380D01*
X204438095Y-109482380D01*
X204914285Y-109482380D02*
X204819047Y-109434761D01*
X204771428Y-109387142D01*
X204723809Y-109291904D01*
X204723809Y-109006190D01*
X204771428Y-108910952D01*
X204819047Y-108863333D01*
X204914285Y-108815714D01*
X205057142Y-108815714D01*
X205152380Y-108863333D01*
X205200000Y-108910952D01*
X205247619Y-109006190D01*
X205247619Y-109291904D01*
X205200000Y-109387142D01*
X205152380Y-109434761D01*
X205057142Y-109482380D01*
X204914285Y-109482380D01*
X205676190Y-108815714D02*
X205676190Y-109482380D01*
X205676190Y-108910952D02*
X205723809Y-108863333D01*
X205819047Y-108815714D01*
X205961904Y-108815714D01*
X206057142Y-108863333D01*
X206104761Y-108958571D01*
X206104761Y-109482380D01*
X206628571Y-109434761D02*
X206628571Y-109482380D01*
X206580952Y-109577619D01*
X206533333Y-109625238D01*
X207771428Y-108577619D02*
X207819047Y-108530000D01*
X207914285Y-108482380D01*
X208152380Y-108482380D01*
X208247619Y-108530000D01*
X208295238Y-108577619D01*
X208342857Y-108672857D01*
X208342857Y-108768095D01*
X208295238Y-108910952D01*
X207723809Y-109482380D01*
X208342857Y-109482380D01*
X208961904Y-108482380D02*
X209057142Y-108482380D01*
X209152380Y-108530000D01*
X209200000Y-108577619D01*
X209247619Y-108672857D01*
X209295238Y-108863333D01*
X209295238Y-109101428D01*
X209247619Y-109291904D01*
X209200000Y-109387142D01*
X209152380Y-109434761D01*
X209057142Y-109482380D01*
X208961904Y-109482380D01*
X208866666Y-109434761D01*
X208819047Y-109387142D01*
X208771428Y-109291904D01*
X208723809Y-109101428D01*
X208723809Y-108863333D01*
X208771428Y-108672857D01*
X208819047Y-108577619D01*
X208866666Y-108530000D01*
X208961904Y-108482380D01*
X209676190Y-108577619D02*
X209723809Y-108530000D01*
X209819047Y-108482380D01*
X210057142Y-108482380D01*
X210152380Y-108530000D01*
X210200000Y-108577619D01*
X210247619Y-108672857D01*
X210247619Y-108768095D01*
X210200000Y-108910952D01*
X209628571Y-109482380D01*
X210247619Y-109482380D01*
X210580952Y-108482380D02*
X211200000Y-108482380D01*
X210866666Y-108863333D01*
X211009523Y-108863333D01*
X211104761Y-108910952D01*
X211152380Y-108958571D01*
X211200000Y-109053809D01*
X211200000Y-109291904D01*
X211152380Y-109387142D01*
X211104761Y-109434761D01*
X211009523Y-109482380D01*
X210723809Y-109482380D01*
X210628571Y-109434761D01*
X210580952Y-109387142D01*
X198890476Y-110608571D02*
X199033333Y-110656190D01*
X199080952Y-110703809D01*
X199128571Y-110799047D01*
X199128571Y-110941904D01*
X199080952Y-111037142D01*
X199033333Y-111084761D01*
X198938095Y-111132380D01*
X198557142Y-111132380D01*
X198557142Y-110132380D01*
X198890476Y-110132380D01*
X198985714Y-110180000D01*
X199033333Y-110227619D01*
X199080952Y-110322857D01*
X199080952Y-110418095D01*
X199033333Y-110513333D01*
X198985714Y-110560952D01*
X198890476Y-110608571D01*
X198557142Y-110608571D01*
X199557142Y-111132380D02*
X199557142Y-110465714D01*
X199557142Y-110656190D02*
X199604761Y-110560952D01*
X199652380Y-110513333D01*
X199747619Y-110465714D01*
X199842857Y-110465714D01*
X200557142Y-111084761D02*
X200461904Y-111132380D01*
X200271428Y-111132380D01*
X200176190Y-111084761D01*
X200128571Y-110989523D01*
X200128571Y-110608571D01*
X200176190Y-110513333D01*
X200271428Y-110465714D01*
X200461904Y-110465714D01*
X200557142Y-110513333D01*
X200604761Y-110608571D01*
X200604761Y-110703809D01*
X200128571Y-110799047D01*
X201461904Y-111132380D02*
X201461904Y-110608571D01*
X201414285Y-110513333D01*
X201319047Y-110465714D01*
X201128571Y-110465714D01*
X201033333Y-110513333D01*
X201461904Y-111084761D02*
X201366666Y-111132380D01*
X201128571Y-111132380D01*
X201033333Y-111084761D01*
X200985714Y-110989523D01*
X200985714Y-110894285D01*
X201033333Y-110799047D01*
X201128571Y-110751428D01*
X201366666Y-110751428D01*
X201461904Y-110703809D01*
X202366666Y-111132380D02*
X202366666Y-110132380D01*
X202366666Y-111084761D02*
X202271428Y-111132380D01*
X202080952Y-111132380D01*
X201985714Y-111084761D01*
X201938095Y-111037142D01*
X201890476Y-110941904D01*
X201890476Y-110656190D01*
X201938095Y-110560952D01*
X201985714Y-110513333D01*
X202080952Y-110465714D01*
X202271428Y-110465714D01*
X202366666Y-110513333D01*
X202985714Y-110560952D02*
X202890476Y-110513333D01*
X202842857Y-110465714D01*
X202795238Y-110370476D01*
X202795238Y-110322857D01*
X202842857Y-110227619D01*
X202890476Y-110180000D01*
X202985714Y-110132380D01*
X203176190Y-110132380D01*
X203271428Y-110180000D01*
X203319047Y-110227619D01*
X203366666Y-110322857D01*
X203366666Y-110370476D01*
X203319047Y-110465714D01*
X203271428Y-110513333D01*
X203176190Y-110560952D01*
X202985714Y-110560952D01*
X202890476Y-110608571D01*
X202842857Y-110656190D01*
X202795238Y-110751428D01*
X202795238Y-110941904D01*
X202842857Y-111037142D01*
X202890476Y-111084761D01*
X202985714Y-111132380D01*
X203176190Y-111132380D01*
X203271428Y-111084761D01*
X203319047Y-111037142D01*
X203366666Y-110941904D01*
X203366666Y-110751428D01*
X203319047Y-110656190D01*
X203271428Y-110608571D01*
X203176190Y-110560952D01*
X203985714Y-110132380D02*
X204080952Y-110132380D01*
X204176190Y-110180000D01*
X204223809Y-110227619D01*
X204271428Y-110322857D01*
X204319047Y-110513333D01*
X204319047Y-110751428D01*
X204271428Y-110941904D01*
X204223809Y-111037142D01*
X204176190Y-111084761D01*
X204080952Y-111132380D01*
X203985714Y-111132380D01*
X203890476Y-111084761D01*
X203842857Y-111037142D01*
X203795238Y-110941904D01*
X203747619Y-110751428D01*
X203747619Y-110513333D01*
X203795238Y-110322857D01*
X203842857Y-110227619D01*
X203890476Y-110180000D01*
X203985714Y-110132380D01*
X204747619Y-111037142D02*
X204795238Y-111084761D01*
X204747619Y-111132380D01*
X204700000Y-111084761D01*
X204747619Y-111037142D01*
X204747619Y-111132380D01*
X205652380Y-111084761D02*
X205557142Y-111132380D01*
X205366666Y-111132380D01*
X205271428Y-111084761D01*
X205223809Y-111037142D01*
X205176190Y-110941904D01*
X205176190Y-110656190D01*
X205223809Y-110560952D01*
X205271428Y-110513333D01*
X205366666Y-110465714D01*
X205557142Y-110465714D01*
X205652380Y-110513333D01*
X206223809Y-111132380D02*
X206128571Y-111084761D01*
X206080952Y-111037142D01*
X206033333Y-110941904D01*
X206033333Y-110656190D01*
X206080952Y-110560952D01*
X206128571Y-110513333D01*
X206223809Y-110465714D01*
X206366666Y-110465714D01*
X206461904Y-110513333D01*
X206509523Y-110560952D01*
X206557142Y-110656190D01*
X206557142Y-110941904D01*
X206509523Y-111037142D01*
X206461904Y-111084761D01*
X206366666Y-111132380D01*
X206223809Y-111132380D01*
X206985714Y-111132380D02*
X206985714Y-110465714D01*
X206985714Y-110560952D02*
X207033333Y-110513333D01*
X207128571Y-110465714D01*
X207271428Y-110465714D01*
X207366666Y-110513333D01*
X207414285Y-110608571D01*
X207414285Y-111132380D01*
X207414285Y-110608571D02*
X207461904Y-110513333D01*
X207557142Y-110465714D01*
X207700000Y-110465714D01*
X207795238Y-110513333D01*
X207842857Y-110608571D01*
X207842857Y-111132380D01*
X252547380Y-113267857D02*
X252071190Y-113601190D01*
X252547380Y-113839285D02*
X251547380Y-113839285D01*
X251547380Y-113458333D01*
X251595000Y-113363095D01*
X251642619Y-113315476D01*
X251737857Y-113267857D01*
X251880714Y-113267857D01*
X251975952Y-113315476D01*
X252023571Y-113363095D01*
X252071190Y-113458333D01*
X252071190Y-113839285D01*
X252023571Y-112839285D02*
X252023571Y-112505952D01*
X252547380Y-112363095D02*
X252547380Y-112839285D01*
X251547380Y-112839285D01*
X251547380Y-112363095D01*
X251547380Y-112077380D02*
X252547380Y-111744047D01*
X251547380Y-111410714D01*
X251547380Y-110125000D02*
X251547380Y-110029761D01*
X251595000Y-109934523D01*
X251642619Y-109886904D01*
X251737857Y-109839285D01*
X251928333Y-109791666D01*
X252166428Y-109791666D01*
X252356904Y-109839285D01*
X252452142Y-109886904D01*
X252499761Y-109934523D01*
X252547380Y-110029761D01*
X252547380Y-110125000D01*
X252499761Y-110220238D01*
X252452142Y-110267857D01*
X252356904Y-110315476D01*
X252166428Y-110363095D01*
X251928333Y-110363095D01*
X251737857Y-110315476D01*
X251642619Y-110267857D01*
X251595000Y-110220238D01*
X251547380Y-110125000D01*
X252452142Y-109363095D02*
X252499761Y-109315476D01*
X252547380Y-109363095D01*
X252499761Y-109410714D01*
X252452142Y-109363095D01*
X252547380Y-109363095D01*
X252547380Y-108363095D02*
X252547380Y-108934523D01*
X252547380Y-108648809D02*
X251547380Y-108648809D01*
X251690238Y-108744047D01*
X251785476Y-108839285D01*
X251833095Y-108934523D01*
D11*
X156908571Y-140863214D02*
X156194285Y-141363214D01*
X156908571Y-141720357D02*
X155408571Y-141720357D01*
X155408571Y-141148928D01*
X155480000Y-141006071D01*
X155551428Y-140934642D01*
X155694285Y-140863214D01*
X155908571Y-140863214D01*
X156051428Y-140934642D01*
X156122857Y-141006071D01*
X156194285Y-141148928D01*
X156194285Y-141720357D01*
X156480000Y-140291785D02*
X156480000Y-139577500D01*
X156908571Y-140434642D02*
X155408571Y-139934642D01*
X156908571Y-139434642D01*
X156908571Y-138934642D02*
X155408571Y-138934642D01*
X156480000Y-138434642D01*
X155408571Y-137934642D01*
X156908571Y-137934642D01*
X156765714Y-135220357D02*
X156837142Y-135291785D01*
X156908571Y-135506071D01*
X156908571Y-135648928D01*
X156837142Y-135863214D01*
X156694285Y-136006071D01*
X156551428Y-136077500D01*
X156265714Y-136148928D01*
X156051428Y-136148928D01*
X155765714Y-136077500D01*
X155622857Y-136006071D01*
X155480000Y-135863214D01*
X155408571Y-135648928D01*
X155408571Y-135506071D01*
X155480000Y-135291785D01*
X155551428Y-135220357D01*
X156908571Y-134363214D02*
X156837142Y-134506071D01*
X156765714Y-134577500D01*
X156622857Y-134648928D01*
X156194285Y-134648928D01*
X156051428Y-134577500D01*
X155980000Y-134506071D01*
X155908571Y-134363214D01*
X155908571Y-134148928D01*
X155980000Y-134006071D01*
X156051428Y-133934642D01*
X156194285Y-133863214D01*
X156622857Y-133863214D01*
X156765714Y-133934642D01*
X156837142Y-134006071D01*
X156908571Y-134148928D01*
X156908571Y-134363214D01*
X155908571Y-133220357D02*
X156908571Y-133220357D01*
X156051428Y-133220357D02*
X155980000Y-133148928D01*
X155908571Y-133006071D01*
X155908571Y-132791785D01*
X155980000Y-132648928D01*
X156122857Y-132577500D01*
X156908571Y-132577500D01*
X155908571Y-132077500D02*
X155908571Y-131506071D01*
X155408571Y-131863214D02*
X156694285Y-131863214D01*
X156837142Y-131791785D01*
X156908571Y-131648928D01*
X156908571Y-131506071D01*
X156908571Y-131006071D02*
X155908571Y-131006071D01*
X156194285Y-131006071D02*
X156051428Y-130934642D01*
X155980000Y-130863214D01*
X155908571Y-130720357D01*
X155908571Y-130577500D01*
X156908571Y-129863214D02*
X156837142Y-130006071D01*
X156765714Y-130077500D01*
X156622857Y-130148928D01*
X156194285Y-130148928D01*
X156051428Y-130077500D01*
X155980000Y-130006071D01*
X155908571Y-129863214D01*
X155908571Y-129648928D01*
X155980000Y-129506071D01*
X156051428Y-129434642D01*
X156194285Y-129363214D01*
X156622857Y-129363214D01*
X156765714Y-129434642D01*
X156837142Y-129506071D01*
X156908571Y-129648928D01*
X156908571Y-129863214D01*
X156908571Y-128506071D02*
X156837142Y-128648928D01*
X156694285Y-128720357D01*
X155408571Y-128720357D01*
X155908571Y-127006071D02*
X155908571Y-126434642D01*
X156908571Y-126791785D02*
X155622857Y-126791785D01*
X155480000Y-126720357D01*
X155408571Y-126577500D01*
X155408571Y-126434642D01*
X156908571Y-125720357D02*
X156837142Y-125863214D01*
X156765714Y-125934642D01*
X156622857Y-126006071D01*
X156194285Y-126006071D01*
X156051428Y-125934642D01*
X155980000Y-125863214D01*
X155908571Y-125720357D01*
X155908571Y-125506071D01*
X155980000Y-125363214D01*
X156051428Y-125291785D01*
X156194285Y-125220357D01*
X156622857Y-125220357D01*
X156765714Y-125291785D01*
X156837142Y-125363214D01*
X156908571Y-125506071D01*
X156908571Y-125720357D01*
X156908571Y-124577500D02*
X155908571Y-124577500D01*
X156194285Y-124577500D02*
X156051428Y-124506071D01*
X155980000Y-124434642D01*
X155908571Y-124291785D01*
X155908571Y-124148928D01*
X159265714Y-140863214D02*
X159337142Y-140934642D01*
X159408571Y-141148928D01*
X159408571Y-141291785D01*
X159337142Y-141506071D01*
X159194285Y-141648928D01*
X159051428Y-141720357D01*
X158765714Y-141791785D01*
X158551428Y-141791785D01*
X158265714Y-141720357D01*
X158122857Y-141648928D01*
X157980000Y-141506071D01*
X157908571Y-141291785D01*
X157908571Y-141148928D01*
X157980000Y-140934642D01*
X158051428Y-140863214D01*
X159408571Y-140220357D02*
X157908571Y-140220357D01*
X157908571Y-139648928D01*
X157980000Y-139506071D01*
X158051428Y-139434642D01*
X158194285Y-139363214D01*
X158408571Y-139363214D01*
X158551428Y-139434642D01*
X158622857Y-139506071D01*
X158694285Y-139648928D01*
X158694285Y-140220357D01*
X159265714Y-137863214D02*
X159337142Y-137934642D01*
X159408571Y-138148928D01*
X159408571Y-138291785D01*
X159337142Y-138506071D01*
X159194285Y-138648928D01*
X159051428Y-138720357D01*
X158765714Y-138791785D01*
X158551428Y-138791785D01*
X158265714Y-138720357D01*
X158122857Y-138648928D01*
X157980000Y-138506071D01*
X157908571Y-138291785D01*
X157908571Y-138148928D01*
X157980000Y-137934642D01*
X158051428Y-137863214D01*
X159408571Y-136077500D02*
X157908571Y-136077500D01*
X158980000Y-135577500D01*
X157908571Y-135077500D01*
X159408571Y-135077500D01*
X159408571Y-134148928D02*
X159337142Y-134291785D01*
X159265714Y-134363214D01*
X159122857Y-134434642D01*
X158694285Y-134434642D01*
X158551428Y-134363214D01*
X158480000Y-134291785D01*
X158408571Y-134148928D01*
X158408571Y-133934642D01*
X158480000Y-133791785D01*
X158551428Y-133720357D01*
X158694285Y-133648928D01*
X159122857Y-133648928D01*
X159265714Y-133720357D01*
X159337142Y-133791785D01*
X159408571Y-133934642D01*
X159408571Y-134148928D01*
X159408571Y-132363214D02*
X157908571Y-132363214D01*
X159337142Y-132363214D02*
X159408571Y-132506071D01*
X159408571Y-132791785D01*
X159337142Y-132934642D01*
X159265714Y-133006071D01*
X159122857Y-133077500D01*
X158694285Y-133077500D01*
X158551428Y-133006071D01*
X158480000Y-132934642D01*
X158408571Y-132791785D01*
X158408571Y-132506071D01*
X158480000Y-132363214D01*
X158408571Y-131006071D02*
X159408571Y-131006071D01*
X158408571Y-131648928D02*
X159194285Y-131648928D01*
X159337142Y-131577500D01*
X159408571Y-131434642D01*
X159408571Y-131220357D01*
X159337142Y-131077500D01*
X159265714Y-131006071D01*
X159408571Y-130077500D02*
X159337142Y-130220357D01*
X159194285Y-130291785D01*
X157908571Y-130291785D01*
X159408571Y-128863214D02*
X158622857Y-128863214D01*
X158480000Y-128934642D01*
X158408571Y-129077500D01*
X158408571Y-129363214D01*
X158480000Y-129506071D01*
X159337142Y-128863214D02*
X159408571Y-129006071D01*
X159408571Y-129363214D01*
X159337142Y-129506071D01*
X159194285Y-129577500D01*
X159051428Y-129577500D01*
X158908571Y-129506071D01*
X158837142Y-129363214D01*
X158837142Y-129006071D01*
X158765714Y-128863214D01*
X159408571Y-128148928D02*
X158408571Y-128148928D01*
X158694285Y-128148928D02*
X158551428Y-128077500D01*
X158480000Y-128006071D01*
X158408571Y-127863214D01*
X158408571Y-127720357D01*
D12*
X156895800Y-153131520D02*
X156931360Y-153131520D01*
X156895800Y-143019780D02*
X156895800Y-153131520D01*
X155326080Y-143019780D02*
X156895800Y-143019780D01*
X154144980Y-144200880D02*
X155326080Y-143019780D01*
X154144980Y-153131520D02*
X154144980Y-144200880D01*
D13*
X156360251Y-149315465D02*
X154860251Y-149315465D01*
X154860251Y-148744037D01*
X154931680Y-148601180D01*
X155003108Y-148529751D01*
X155145965Y-148458322D01*
X155360251Y-148458322D01*
X155503108Y-148529751D01*
X155574537Y-148601180D01*
X155645965Y-148744037D01*
X155645965Y-149315465D01*
X156360251Y-147815465D02*
X155360251Y-147815465D01*
X154860251Y-147815465D02*
X154931680Y-147886894D01*
X155003108Y-147815465D01*
X154931680Y-147744037D01*
X154860251Y-147815465D01*
X155003108Y-147815465D01*
X155360251Y-147101180D02*
X156360251Y-147101180D01*
X155503108Y-147101180D02*
X155431680Y-147029751D01*
X155360251Y-146886894D01*
X155360251Y-146672608D01*
X155431680Y-146529751D01*
X155574537Y-146458322D01*
X156360251Y-146458322D01*
X156360251Y-143815465D02*
X156360251Y-144672608D01*
X156360251Y-144244037D02*
X154860251Y-144244037D01*
X155074537Y-144386894D01*
X155217394Y-144529751D01*
X155288822Y-144672608D01*
D14*
X192285000Y-135830000D02*
X192285000Y-146110000D01*
X210305000Y-135830000D02*
X192285000Y-135830000D01*
X210305000Y-146110000D02*
X210305000Y-135830000D01*
X192285000Y-146110000D02*
X210305000Y-146110000D01*
X192345000Y-138320000D02*
X192345000Y-139970000D01*
X210245000Y-138320000D02*
X192345000Y-138320000D01*
X210245000Y-143620000D02*
X210245000Y-138320000D01*
X192345000Y-143620000D02*
X210245000Y-143620000D01*
X192345000Y-141970000D02*
X192345000Y-143620000D01*
X192345000Y-139970000D02*
G75*
G02*
X192345000Y-141970000I0J-1000000D01*
G01*
X245975000Y-144240000D02*
X245645000Y-144240000D01*
X245645000Y-144240000D02*
X245645000Y-137700000D01*
X245645000Y-137700000D02*
X245975000Y-137700000D01*
X248055000Y-144240000D02*
X248385000Y-144240000D01*
X248385000Y-144240000D02*
X248385000Y-137700000D01*
X248385000Y-137700000D02*
X248055000Y-137700000D01*
X166945000Y-141970000D02*
X166945000Y-143620000D01*
X166945000Y-143620000D02*
X184845000Y-143620000D01*
X184845000Y-143620000D02*
X184845000Y-138320000D01*
X184845000Y-138320000D02*
X166945000Y-138320000D01*
X166945000Y-138320000D02*
X166945000Y-139970000D01*
X166885000Y-146110000D02*
X184905000Y-146110000D01*
X184905000Y-146110000D02*
X184905000Y-135830000D01*
X184905000Y-135830000D02*
X166885000Y-135830000D01*
X166885000Y-135830000D02*
X166885000Y-146110000D01*
X166945000Y-139970000D02*
G75*
G02*
X166945000Y-141970000I0J-1000000D01*
G01*
X230445000Y-117840000D02*
X230445000Y-119490000D01*
X230445000Y-119490000D02*
X250885000Y-119490000D01*
X250885000Y-119490000D02*
X250885000Y-114190000D01*
X250885000Y-114190000D02*
X230445000Y-114190000D01*
X230445000Y-114190000D02*
X230445000Y-115840000D01*
X230385000Y-121980000D02*
X250945000Y-121980000D01*
X250945000Y-121980000D02*
X250945000Y-111700000D01*
X250945000Y-111700000D02*
X230385000Y-111700000D01*
X230385000Y-111700000D02*
X230385000Y-121980000D01*
X230445000Y-115840000D02*
G75*
G02*
X230445000Y-117840000I0J-1000000D01*
G01*
X192345000Y-129905000D02*
X192345000Y-131555000D01*
X192345000Y-131555000D02*
X210245000Y-131555000D01*
X210245000Y-131555000D02*
X210245000Y-126255000D01*
X210245000Y-126255000D02*
X192345000Y-126255000D01*
X192345000Y-126255000D02*
X192345000Y-127905000D01*
X192285000Y-134045000D02*
X210305000Y-134045000D01*
X210305000Y-134045000D02*
X210305000Y-123765000D01*
X210305000Y-123765000D02*
X192285000Y-123765000D01*
X192285000Y-123765000D02*
X192285000Y-134045000D01*
X192345000Y-127905000D02*
G75*
G02*
X192345000Y-129905000I0J-1000000D01*
G01*
X166945000Y-129905000D02*
X166945000Y-131555000D01*
X166945000Y-131555000D02*
X184845000Y-131555000D01*
X184845000Y-131555000D02*
X184845000Y-126255000D01*
X184845000Y-126255000D02*
X166945000Y-126255000D01*
X166945000Y-126255000D02*
X166945000Y-127905000D01*
X166885000Y-134045000D02*
X184905000Y-134045000D01*
X184905000Y-134045000D02*
X184905000Y-123765000D01*
X184905000Y-123765000D02*
X166885000Y-123765000D01*
X166885000Y-123765000D02*
X166885000Y-134045000D01*
X166945000Y-127905000D02*
G75*
G02*
X166945000Y-129905000I0J-1000000D01*
G01*
X217745000Y-141970000D02*
X217745000Y-143620000D01*
X217745000Y-143620000D02*
X243265000Y-143620000D01*
X243265000Y-143620000D02*
X243265000Y-138320000D01*
X243265000Y-138320000D02*
X217745000Y-138320000D01*
X217745000Y-138320000D02*
X217745000Y-139970000D01*
X217685000Y-146110000D02*
X243325000Y-146110000D01*
X243325000Y-146110000D02*
X243325000Y-135830000D01*
X243325000Y-135830000D02*
X217685000Y-135830000D01*
X217685000Y-135830000D02*
X217685000Y-146110000D01*
X217745000Y-139970000D02*
G75*
G02*
X217745000Y-141970000I0J-1000000D01*
G01*
X217745000Y-129905000D02*
X217745000Y-131555000D01*
X217745000Y-131555000D02*
X243265000Y-131555000D01*
X243265000Y-131555000D02*
X243265000Y-126255000D01*
X243265000Y-126255000D02*
X217745000Y-126255000D01*
X217745000Y-126255000D02*
X217745000Y-127905000D01*
X217685000Y-134045000D02*
X243325000Y-134045000D01*
X243325000Y-134045000D02*
X243325000Y-123765000D01*
X243325000Y-123765000D02*
X217685000Y-123765000D01*
X217685000Y-123765000D02*
X217685000Y-134045000D01*
X217745000Y-127905000D02*
G75*
G02*
X217745000Y-129905000I0J-1000000D01*
G01*
X249150000Y-132175000D02*
X248820000Y-132175000D01*
X248820000Y-132175000D02*
X248820000Y-125635000D01*
X248820000Y-125635000D02*
X249150000Y-125635000D01*
X251230000Y-132175000D02*
X251560000Y-132175000D01*
X251560000Y-132175000D02*
X251560000Y-125635000D01*
X251560000Y-125635000D02*
X251230000Y-125635000D01*
X245975000Y-132175000D02*
X245645000Y-132175000D01*
X245645000Y-132175000D02*
X245645000Y-125635000D01*
X245645000Y-125635000D02*
X245975000Y-125635000D01*
X248055000Y-132175000D02*
X248385000Y-132175000D01*
X248385000Y-132175000D02*
X248385000Y-125635000D01*
X248385000Y-125635000D02*
X248055000Y-125635000D01*
X249150000Y-144240000D02*
X248820000Y-144240000D01*
X248820000Y-144240000D02*
X248820000Y-137700000D01*
X248820000Y-137700000D02*
X249150000Y-137700000D01*
X251230000Y-144240000D02*
X251560000Y-144240000D01*
X251560000Y-144240000D02*
X251560000Y-137700000D01*
X251560000Y-137700000D02*
X251230000Y-137700000D01*
X190270000Y-113570000D02*
X190600000Y-113570000D01*
X190600000Y-113570000D02*
X190600000Y-120110000D01*
X190600000Y-120110000D02*
X190270000Y-120110000D01*
X188190000Y-113570000D02*
X187860000Y-113570000D01*
X187860000Y-113570000D02*
X187860000Y-120110000D01*
X187860000Y-120110000D02*
X188190000Y-120110000D01*
X193675000Y-104715000D02*
X193675000Y-107375000D01*
X193675000Y-104715000D02*
X170755000Y-104715000D01*
X170755000Y-104715000D02*
X170755000Y-107375000D01*
X193675000Y-107375000D02*
X170755000Y-107375000D01*
X196275000Y-107375000D02*
X194945000Y-107375000D01*
X196275000Y-106045000D02*
X196275000Y-107375000D01*
X166945000Y-117840000D02*
X166945000Y-119490000D01*
X166945000Y-119490000D02*
X184845000Y-119490000D01*
X184845000Y-119490000D02*
X184845000Y-114190000D01*
X184845000Y-114190000D02*
X166945000Y-114190000D01*
X166945000Y-114190000D02*
X166945000Y-115840000D01*
X166885000Y-121980000D02*
X184905000Y-121980000D01*
X184905000Y-121980000D02*
X184905000Y-111700000D01*
X184905000Y-111700000D02*
X166885000Y-111700000D01*
X166885000Y-111700000D02*
X166885000Y-121980000D01*
X166945000Y-115840000D02*
G75*
G02*
X166945000Y-117840000I0J-1000000D01*
G01*
X228970000Y-114150000D02*
X225730000Y-114150000D01*
X228970000Y-111910000D02*
X225730000Y-111910000D01*
X228970000Y-114150000D02*
X228970000Y-114085000D01*
X228970000Y-111975000D02*
X228970000Y-111910000D01*
X225730000Y-114150000D02*
X225730000Y-114085000D01*
X225730000Y-111975000D02*
X225730000Y-111910000D01*
X212665000Y-105350000D02*
X213995000Y-105350000D01*
X212665000Y-106680000D02*
X212665000Y-105350000D01*
X212665000Y-107950000D02*
X215325000Y-107950000D01*
X215325000Y-107950000D02*
X215325000Y-110550000D01*
X212665000Y-107950000D02*
X212665000Y-110550000D01*
X212665000Y-110550000D02*
X215325000Y-110550000D01*
X154372000Y-152942600D02*
X154372000Y-151612600D01*
X155702000Y-152942600D02*
X154372000Y-152942600D01*
X156972000Y-152942600D02*
X156972000Y-150282600D01*
X156972000Y-150282600D02*
X256092000Y-150282600D01*
X156972000Y-152942600D02*
X256092000Y-152942600D01*
X256092000Y-152942600D02*
X256092000Y-150282600D01*
X217745000Y-105350000D02*
X219075000Y-105350000D01*
X217745000Y-106680000D02*
X217745000Y-105350000D01*
X217745000Y-107950000D02*
X220405000Y-107950000D01*
X220405000Y-107950000D02*
X220405000Y-110550000D01*
X217745000Y-107950000D02*
X217745000Y-110550000D01*
X217745000Y-110550000D02*
X220405000Y-110550000D01*
X215205000Y-105350000D02*
X216535000Y-105350000D01*
X215205000Y-106680000D02*
X215205000Y-105350000D01*
X215205000Y-107950000D02*
X217865000Y-107950000D01*
X217865000Y-107950000D02*
X217865000Y-110550000D01*
X215205000Y-107950000D02*
X215205000Y-110550000D01*
X215205000Y-110550000D02*
X217865000Y-110550000D01*
X195012000Y-150402600D02*
X195012000Y-149072600D01*
X196342000Y-150402600D02*
X195012000Y-150402600D01*
X197612000Y-150402600D02*
X197612000Y-147742600D01*
X197612000Y-147742600D02*
X258632000Y-147742600D01*
X197612000Y-150402600D02*
X258632000Y-150402600D01*
X258632000Y-150402600D02*
X258632000Y-147742600D01*
X197425000Y-114190000D02*
X197425000Y-115840000D01*
X222945000Y-114190000D02*
X197425000Y-114190000D01*
X222945000Y-119490000D02*
X222945000Y-114190000D01*
X197425000Y-119490000D02*
X222945000Y-119490000D01*
X197425000Y-117840000D02*
X197425000Y-119490000D01*
X197425000Y-115840000D02*
G75*
G02*
X197425000Y-117840000I0J-1000000D01*
G01*
X213030000Y-124080000D02*
X213030000Y-124015000D01*
X213030000Y-126255000D02*
X213030000Y-126190000D01*
X216270000Y-124080000D02*
X216270000Y-124015000D01*
X216270000Y-126255000D02*
X216270000Y-126190000D01*
X216270000Y-124015000D02*
X213030000Y-124015000D01*
X216270000Y-126255000D02*
X213030000Y-126255000D01*
X213030000Y-136105000D02*
X213030000Y-136040000D01*
X213030000Y-138280000D02*
X213030000Y-138215000D01*
X216270000Y-136105000D02*
X216270000Y-136040000D01*
X216270000Y-138280000D02*
X216270000Y-138215000D01*
X216270000Y-136040000D02*
X213030000Y-136040000D01*
X216270000Y-138280000D02*
X213030000Y-138280000D01*
X192710000Y-111975000D02*
X192710000Y-111910000D01*
X192710000Y-114150000D02*
X192710000Y-114085000D01*
X195950000Y-111975000D02*
X195950000Y-111910000D01*
X195950000Y-114150000D02*
X195950000Y-114085000D01*
X195950000Y-111910000D02*
X192710000Y-111910000D01*
X195950000Y-114150000D02*
X192710000Y-114150000D01*
X187630000Y-124080000D02*
X187630000Y-124015000D01*
X187630000Y-126255000D02*
X187630000Y-126190000D01*
X190870000Y-124080000D02*
X190870000Y-124015000D01*
X190870000Y-126255000D02*
X190870000Y-126190000D01*
X190870000Y-124015000D02*
X187630000Y-124015000D01*
X190870000Y-126255000D02*
X187630000Y-126255000D01*
X187630000Y-136145000D02*
X187630000Y-136080000D01*
X187630000Y-138320000D02*
X187630000Y-138255000D01*
X190870000Y-136145000D02*
X190870000Y-136080000D01*
X190870000Y-138320000D02*
X190870000Y-138255000D01*
X190870000Y-136080000D02*
X187630000Y-136080000D01*
X190870000Y-138320000D02*
X187630000Y-138320000D01*
X162230000Y-112015000D02*
X162230000Y-111950000D01*
X162230000Y-114190000D02*
X162230000Y-114125000D01*
X165470000Y-112015000D02*
X165470000Y-111950000D01*
X165470000Y-114190000D02*
X165470000Y-114125000D01*
X165470000Y-111950000D02*
X162230000Y-111950000D01*
X165470000Y-114190000D02*
X162230000Y-114190000D01*
X162230000Y-124040000D02*
X162230000Y-123975000D01*
X162230000Y-126215000D02*
X162230000Y-126150000D01*
X165470000Y-124040000D02*
X165470000Y-123975000D01*
X165470000Y-126215000D02*
X165470000Y-126150000D01*
X165470000Y-123975000D02*
X162230000Y-123975000D01*
X165470000Y-126215000D02*
X162230000Y-126215000D01*
X162230000Y-136145000D02*
X162230000Y-136080000D01*
X162230000Y-138320000D02*
X162230000Y-138255000D01*
X165470000Y-136145000D02*
X165470000Y-136080000D01*
X165470000Y-138320000D02*
X165470000Y-138255000D01*
X165470000Y-136080000D02*
X162230000Y-136080000D01*
X165470000Y-138320000D02*
X162230000Y-138320000D01*
D10*
X191797380Y-142898571D02*
X190797380Y-142898571D01*
X191702142Y-141850952D02*
X191749761Y-141898571D01*
X191797380Y-142041428D01*
X191797380Y-142136666D01*
X191749761Y-142279523D01*
X191654523Y-142374761D01*
X191559285Y-142422380D01*
X191368809Y-142470000D01*
X191225952Y-142470000D01*
X191035476Y-142422380D01*
X190940238Y-142374761D01*
X190845000Y-142279523D01*
X190797380Y-142136666D01*
X190797380Y-142041428D01*
X190845000Y-141898571D01*
X190892619Y-141850952D01*
X191797380Y-140898571D02*
X191797380Y-141470000D01*
X191797380Y-141184285D02*
X190797380Y-141184285D01*
X190940238Y-141279523D01*
X191035476Y-141374761D01*
X191083095Y-141470000D01*
X191797380Y-139946190D02*
X191797380Y-140517619D01*
X191797380Y-140231904D02*
X190797380Y-140231904D01*
X190940238Y-140327142D01*
X191035476Y-140422380D01*
X191083095Y-140517619D01*
X190892619Y-139565238D02*
X190845000Y-139517619D01*
X190797380Y-139422380D01*
X190797380Y-139184285D01*
X190845000Y-139089047D01*
X190892619Y-139041428D01*
X190987857Y-138993809D01*
X191083095Y-138993809D01*
X191225952Y-139041428D01*
X191797380Y-139612857D01*
X191797380Y-138993809D01*
X198652142Y-140422380D02*
X199318809Y-140422380D01*
X198890238Y-141422380D01*
X200128333Y-140755714D02*
X200128333Y-141422380D01*
X199890238Y-140374761D02*
X199652142Y-141089047D01*
X200271190Y-141089047D01*
X201128333Y-141422380D02*
X200652142Y-141422380D01*
X200652142Y-140422380D01*
X201414047Y-141374761D02*
X201556904Y-141422380D01*
X201795000Y-141422380D01*
X201890238Y-141374761D01*
X201937857Y-141327142D01*
X201985476Y-141231904D01*
X201985476Y-141136666D01*
X201937857Y-141041428D01*
X201890238Y-140993809D01*
X201795000Y-140946190D01*
X201604523Y-140898571D01*
X201509285Y-140850952D01*
X201461666Y-140803333D01*
X201414047Y-140708095D01*
X201414047Y-140612857D01*
X201461666Y-140517619D01*
X201509285Y-140470000D01*
X201604523Y-140422380D01*
X201842619Y-140422380D01*
X201985476Y-140470000D01*
X202318809Y-140422380D02*
X202937857Y-140422380D01*
X202604523Y-140803333D01*
X202747380Y-140803333D01*
X202842619Y-140850952D01*
X202890238Y-140898571D01*
X202937857Y-140993809D01*
X202937857Y-141231904D01*
X202890238Y-141327142D01*
X202842619Y-141374761D01*
X202747380Y-141422380D01*
X202461666Y-141422380D01*
X202366428Y-141374761D01*
X202318809Y-141327142D01*
X203318809Y-140517619D02*
X203366428Y-140470000D01*
X203461666Y-140422380D01*
X203699761Y-140422380D01*
X203795000Y-140470000D01*
X203842619Y-140517619D01*
X203890238Y-140612857D01*
X203890238Y-140708095D01*
X203842619Y-140850952D01*
X203271190Y-141422380D01*
X203890238Y-141422380D01*
X245097380Y-142089047D02*
X244621190Y-142422380D01*
X245097380Y-142660476D02*
X244097380Y-142660476D01*
X244097380Y-142279523D01*
X244145000Y-142184285D01*
X244192619Y-142136666D01*
X244287857Y-142089047D01*
X244430714Y-142089047D01*
X244525952Y-142136666D01*
X244573571Y-142184285D01*
X244621190Y-142279523D01*
X244621190Y-142660476D01*
X245097380Y-141136666D02*
X245097380Y-141708095D01*
X245097380Y-141422380D02*
X244097380Y-141422380D01*
X244240238Y-141517619D01*
X244335476Y-141612857D01*
X244383095Y-141708095D01*
X244192619Y-140755714D02*
X244145000Y-140708095D01*
X244097380Y-140612857D01*
X244097380Y-140374761D01*
X244145000Y-140279523D01*
X244192619Y-140231904D01*
X244287857Y-140184285D01*
X244383095Y-140184285D01*
X244525952Y-140231904D01*
X245097380Y-140803333D01*
X245097380Y-140184285D01*
X244430714Y-139327142D02*
X245097380Y-139327142D01*
X244049761Y-139565238D02*
X244764047Y-139803333D01*
X244764047Y-139184285D01*
X246562619Y-142136666D02*
X246515000Y-142089047D01*
X246467380Y-141993809D01*
X246467380Y-141755714D01*
X246515000Y-141660476D01*
X246562619Y-141612857D01*
X246657857Y-141565238D01*
X246753095Y-141565238D01*
X246895952Y-141612857D01*
X247467380Y-142184285D01*
X247467380Y-141565238D01*
X247467380Y-141136666D02*
X246467380Y-141136666D01*
X247086428Y-141041428D02*
X247467380Y-140755714D01*
X246800714Y-140755714D02*
X247181666Y-141136666D01*
X246562619Y-140374761D02*
X246515000Y-140327142D01*
X246467380Y-140231904D01*
X246467380Y-139993809D01*
X246515000Y-139898571D01*
X246562619Y-139850952D01*
X246657857Y-139803333D01*
X246753095Y-139803333D01*
X246895952Y-139850952D01*
X247467380Y-140422380D01*
X247467380Y-139803333D01*
X165397380Y-142684285D02*
X166206904Y-142684285D01*
X166302142Y-142636666D01*
X166349761Y-142589047D01*
X166397380Y-142493809D01*
X166397380Y-142303333D01*
X166349761Y-142208095D01*
X166302142Y-142160476D01*
X166206904Y-142112857D01*
X165397380Y-142112857D01*
X166397380Y-141112857D02*
X166397380Y-141684285D01*
X166397380Y-141398571D02*
X165397380Y-141398571D01*
X165540238Y-141493809D01*
X165635476Y-141589047D01*
X165683095Y-141684285D01*
X166397380Y-140636666D02*
X166397380Y-140446190D01*
X166349761Y-140350952D01*
X166302142Y-140303333D01*
X166159285Y-140208095D01*
X165968809Y-140160476D01*
X165587857Y-140160476D01*
X165492619Y-140208095D01*
X165445000Y-140255714D01*
X165397380Y-140350952D01*
X165397380Y-140541428D01*
X165445000Y-140636666D01*
X165492619Y-140684285D01*
X165587857Y-140731904D01*
X165825952Y-140731904D01*
X165921190Y-140684285D01*
X165968809Y-140636666D01*
X166016428Y-140541428D01*
X166016428Y-140350952D01*
X165968809Y-140255714D01*
X165921190Y-140208095D01*
X165825952Y-140160476D01*
X165397380Y-139255714D02*
X165397380Y-139731904D01*
X165873571Y-139779523D01*
X165825952Y-139731904D01*
X165778333Y-139636666D01*
X165778333Y-139398571D01*
X165825952Y-139303333D01*
X165873571Y-139255714D01*
X165968809Y-139208095D01*
X166206904Y-139208095D01*
X166302142Y-139255714D01*
X166349761Y-139303333D01*
X166397380Y-139398571D01*
X166397380Y-139636666D01*
X166349761Y-139731904D01*
X166302142Y-139779523D01*
X173252142Y-140422380D02*
X173918809Y-140422380D01*
X173490238Y-141422380D01*
X174728333Y-140755714D02*
X174728333Y-141422380D01*
X174490238Y-140374761D02*
X174252142Y-141089047D01*
X174871190Y-141089047D01*
X175728333Y-141422380D02*
X175252142Y-141422380D01*
X175252142Y-140422380D01*
X176014047Y-141374761D02*
X176156904Y-141422380D01*
X176395000Y-141422380D01*
X176490238Y-141374761D01*
X176537857Y-141327142D01*
X176585476Y-141231904D01*
X176585476Y-141136666D01*
X176537857Y-141041428D01*
X176490238Y-140993809D01*
X176395000Y-140946190D01*
X176204523Y-140898571D01*
X176109285Y-140850952D01*
X176061666Y-140803333D01*
X176014047Y-140708095D01*
X176014047Y-140612857D01*
X176061666Y-140517619D01*
X176109285Y-140470000D01*
X176204523Y-140422380D01*
X176442619Y-140422380D01*
X176585476Y-140470000D01*
X176918809Y-140422380D02*
X177585476Y-140422380D01*
X177156904Y-141422380D01*
X178395000Y-140755714D02*
X178395000Y-141422380D01*
X178156904Y-140374761D02*
X177918809Y-141089047D01*
X178537857Y-141089047D01*
X228897380Y-118554285D02*
X229706904Y-118554285D01*
X229802142Y-118506666D01*
X229849761Y-118459047D01*
X229897380Y-118363809D01*
X229897380Y-118173333D01*
X229849761Y-118078095D01*
X229802142Y-118030476D01*
X229706904Y-117982857D01*
X228897380Y-117982857D01*
X229897380Y-116982857D02*
X229897380Y-117554285D01*
X229897380Y-117268571D02*
X228897380Y-117268571D01*
X229040238Y-117363809D01*
X229135476Y-117459047D01*
X229183095Y-117554285D01*
X229897380Y-116506666D02*
X229897380Y-116316190D01*
X229849761Y-116220952D01*
X229802142Y-116173333D01*
X229659285Y-116078095D01*
X229468809Y-116030476D01*
X229087857Y-116030476D01*
X228992619Y-116078095D01*
X228945000Y-116125714D01*
X228897380Y-116220952D01*
X228897380Y-116411428D01*
X228945000Y-116506666D01*
X228992619Y-116554285D01*
X229087857Y-116601904D01*
X229325952Y-116601904D01*
X229421190Y-116554285D01*
X229468809Y-116506666D01*
X229516428Y-116411428D01*
X229516428Y-116220952D01*
X229468809Y-116125714D01*
X229421190Y-116078095D01*
X229325952Y-116030476D01*
X229230714Y-115173333D02*
X229897380Y-115173333D01*
X228849761Y-115411428D02*
X229564047Y-115649523D01*
X229564047Y-115030476D01*
X237545952Y-116292380D02*
X238212619Y-116292380D01*
X237784047Y-117292380D01*
X239022142Y-116625714D02*
X239022142Y-117292380D01*
X238784047Y-116244761D02*
X238545952Y-116959047D01*
X239165000Y-116959047D01*
X240022142Y-117292380D02*
X239545952Y-117292380D01*
X239545952Y-116292380D01*
X240307857Y-117244761D02*
X240450714Y-117292380D01*
X240688809Y-117292380D01*
X240784047Y-117244761D01*
X240831666Y-117197142D01*
X240879285Y-117101904D01*
X240879285Y-117006666D01*
X240831666Y-116911428D01*
X240784047Y-116863809D01*
X240688809Y-116816190D01*
X240498333Y-116768571D01*
X240403095Y-116720952D01*
X240355476Y-116673333D01*
X240307857Y-116578095D01*
X240307857Y-116482857D01*
X240355476Y-116387619D01*
X240403095Y-116340000D01*
X240498333Y-116292380D01*
X240736428Y-116292380D01*
X240879285Y-116340000D01*
X241831666Y-117292380D02*
X241260238Y-117292380D01*
X241545952Y-117292380D02*
X241545952Y-116292380D01*
X241450714Y-116435238D01*
X241355476Y-116530476D01*
X241260238Y-116578095D01*
X242165000Y-116292380D02*
X242831666Y-116292380D01*
X242403095Y-117292380D01*
X243117380Y-116292380D02*
X243736428Y-116292380D01*
X243403095Y-116673333D01*
X243545952Y-116673333D01*
X243641190Y-116720952D01*
X243688809Y-116768571D01*
X243736428Y-116863809D01*
X243736428Y-117101904D01*
X243688809Y-117197142D01*
X243641190Y-117244761D01*
X243545952Y-117292380D01*
X243260238Y-117292380D01*
X243165000Y-117244761D01*
X243117380Y-117197142D01*
X190797380Y-130619285D02*
X191606904Y-130619285D01*
X191702142Y-130571666D01*
X191749761Y-130524047D01*
X191797380Y-130428809D01*
X191797380Y-130238333D01*
X191749761Y-130143095D01*
X191702142Y-130095476D01*
X191606904Y-130047857D01*
X190797380Y-130047857D01*
X191797380Y-129047857D02*
X191797380Y-129619285D01*
X191797380Y-129333571D02*
X190797380Y-129333571D01*
X190940238Y-129428809D01*
X191035476Y-129524047D01*
X191083095Y-129619285D01*
X191797380Y-128571666D02*
X191797380Y-128381190D01*
X191749761Y-128285952D01*
X191702142Y-128238333D01*
X191559285Y-128143095D01*
X191368809Y-128095476D01*
X190987857Y-128095476D01*
X190892619Y-128143095D01*
X190845000Y-128190714D01*
X190797380Y-128285952D01*
X190797380Y-128476428D01*
X190845000Y-128571666D01*
X190892619Y-128619285D01*
X190987857Y-128666904D01*
X191225952Y-128666904D01*
X191321190Y-128619285D01*
X191368809Y-128571666D01*
X191416428Y-128476428D01*
X191416428Y-128285952D01*
X191368809Y-128190714D01*
X191321190Y-128143095D01*
X191225952Y-128095476D01*
X190797380Y-127762142D02*
X190797380Y-127143095D01*
X191178333Y-127476428D01*
X191178333Y-127333571D01*
X191225952Y-127238333D01*
X191273571Y-127190714D01*
X191368809Y-127143095D01*
X191606904Y-127143095D01*
X191702142Y-127190714D01*
X191749761Y-127238333D01*
X191797380Y-127333571D01*
X191797380Y-127619285D01*
X191749761Y-127714523D01*
X191702142Y-127762142D01*
X198652142Y-128357380D02*
X199318809Y-128357380D01*
X198890238Y-129357380D01*
X200128333Y-128690714D02*
X200128333Y-129357380D01*
X199890238Y-128309761D02*
X199652142Y-129024047D01*
X200271190Y-129024047D01*
X201128333Y-129357380D02*
X200652142Y-129357380D01*
X200652142Y-128357380D01*
X201414047Y-129309761D02*
X201556904Y-129357380D01*
X201795000Y-129357380D01*
X201890238Y-129309761D01*
X201937857Y-129262142D01*
X201985476Y-129166904D01*
X201985476Y-129071666D01*
X201937857Y-128976428D01*
X201890238Y-128928809D01*
X201795000Y-128881190D01*
X201604523Y-128833571D01*
X201509285Y-128785952D01*
X201461666Y-128738333D01*
X201414047Y-128643095D01*
X201414047Y-128547857D01*
X201461666Y-128452619D01*
X201509285Y-128405000D01*
X201604523Y-128357380D01*
X201842619Y-128357380D01*
X201985476Y-128405000D01*
X202604523Y-128357380D02*
X202699761Y-128357380D01*
X202795000Y-128405000D01*
X202842619Y-128452619D01*
X202890238Y-128547857D01*
X202937857Y-128738333D01*
X202937857Y-128976428D01*
X202890238Y-129166904D01*
X202842619Y-129262142D01*
X202795000Y-129309761D01*
X202699761Y-129357380D01*
X202604523Y-129357380D01*
X202509285Y-129309761D01*
X202461666Y-129262142D01*
X202414047Y-129166904D01*
X202366428Y-128976428D01*
X202366428Y-128738333D01*
X202414047Y-128547857D01*
X202461666Y-128452619D01*
X202509285Y-128405000D01*
X202604523Y-128357380D01*
X203509285Y-128785952D02*
X203414047Y-128738333D01*
X203366428Y-128690714D01*
X203318809Y-128595476D01*
X203318809Y-128547857D01*
X203366428Y-128452619D01*
X203414047Y-128405000D01*
X203509285Y-128357380D01*
X203699761Y-128357380D01*
X203795000Y-128405000D01*
X203842619Y-128452619D01*
X203890238Y-128547857D01*
X203890238Y-128595476D01*
X203842619Y-128690714D01*
X203795000Y-128738333D01*
X203699761Y-128785952D01*
X203509285Y-128785952D01*
X203414047Y-128833571D01*
X203366428Y-128881190D01*
X203318809Y-128976428D01*
X203318809Y-129166904D01*
X203366428Y-129262142D01*
X203414047Y-129309761D01*
X203509285Y-129357380D01*
X203699761Y-129357380D01*
X203795000Y-129309761D01*
X203842619Y-129262142D01*
X203890238Y-129166904D01*
X203890238Y-128976428D01*
X203842619Y-128881190D01*
X203795000Y-128833571D01*
X203699761Y-128785952D01*
X165397380Y-130619285D02*
X166206904Y-130619285D01*
X166302142Y-130571666D01*
X166349761Y-130524047D01*
X166397380Y-130428809D01*
X166397380Y-130238333D01*
X166349761Y-130143095D01*
X166302142Y-130095476D01*
X166206904Y-130047857D01*
X165397380Y-130047857D01*
X166397380Y-129047857D02*
X166397380Y-129619285D01*
X166397380Y-129333571D02*
X165397380Y-129333571D01*
X165540238Y-129428809D01*
X165635476Y-129524047D01*
X165683095Y-129619285D01*
X166397380Y-128571666D02*
X166397380Y-128381190D01*
X166349761Y-128285952D01*
X166302142Y-128238333D01*
X166159285Y-128143095D01*
X165968809Y-128095476D01*
X165587857Y-128095476D01*
X165492619Y-128143095D01*
X165445000Y-128190714D01*
X165397380Y-128285952D01*
X165397380Y-128476428D01*
X165445000Y-128571666D01*
X165492619Y-128619285D01*
X165587857Y-128666904D01*
X165825952Y-128666904D01*
X165921190Y-128619285D01*
X165968809Y-128571666D01*
X166016428Y-128476428D01*
X166016428Y-128285952D01*
X165968809Y-128190714D01*
X165921190Y-128143095D01*
X165825952Y-128095476D01*
X166397380Y-127143095D02*
X166397380Y-127714523D01*
X166397380Y-127428809D02*
X165397380Y-127428809D01*
X165540238Y-127524047D01*
X165635476Y-127619285D01*
X165683095Y-127714523D01*
X173252142Y-128357380D02*
X173918809Y-128357380D01*
X173490238Y-129357380D01*
X174728333Y-128690714D02*
X174728333Y-129357380D01*
X174490238Y-128309761D02*
X174252142Y-129024047D01*
X174871190Y-129024047D01*
X175728333Y-129357380D02*
X175252142Y-129357380D01*
X175252142Y-128357380D01*
X176014047Y-129309761D02*
X176156904Y-129357380D01*
X176395000Y-129357380D01*
X176490238Y-129309761D01*
X176537857Y-129262142D01*
X176585476Y-129166904D01*
X176585476Y-129071666D01*
X176537857Y-128976428D01*
X176490238Y-128928809D01*
X176395000Y-128881190D01*
X176204523Y-128833571D01*
X176109285Y-128785952D01*
X176061666Y-128738333D01*
X176014047Y-128643095D01*
X176014047Y-128547857D01*
X176061666Y-128452619D01*
X176109285Y-128405000D01*
X176204523Y-128357380D01*
X176442619Y-128357380D01*
X176585476Y-128405000D01*
X177204523Y-128357380D02*
X177299761Y-128357380D01*
X177395000Y-128405000D01*
X177442619Y-128452619D01*
X177490238Y-128547857D01*
X177537857Y-128738333D01*
X177537857Y-128976428D01*
X177490238Y-129166904D01*
X177442619Y-129262142D01*
X177395000Y-129309761D01*
X177299761Y-129357380D01*
X177204523Y-129357380D01*
X177109285Y-129309761D01*
X177061666Y-129262142D01*
X177014047Y-129166904D01*
X176966428Y-128976428D01*
X176966428Y-128738333D01*
X177014047Y-128547857D01*
X177061666Y-128452619D01*
X177109285Y-128405000D01*
X177204523Y-128357380D01*
X178395000Y-128690714D02*
X178395000Y-129357380D01*
X178156904Y-128309761D02*
X177918809Y-129024047D01*
X178537857Y-129024047D01*
X216197380Y-142684285D02*
X217006904Y-142684285D01*
X217102142Y-142636666D01*
X217149761Y-142589047D01*
X217197380Y-142493809D01*
X217197380Y-142303333D01*
X217149761Y-142208095D01*
X217102142Y-142160476D01*
X217006904Y-142112857D01*
X216197380Y-142112857D01*
X217197380Y-141112857D02*
X217197380Y-141684285D01*
X217197380Y-141398571D02*
X216197380Y-141398571D01*
X216340238Y-141493809D01*
X216435476Y-141589047D01*
X216483095Y-141684285D01*
X217197380Y-140160476D02*
X217197380Y-140731904D01*
X217197380Y-140446190D02*
X216197380Y-140446190D01*
X216340238Y-140541428D01*
X216435476Y-140636666D01*
X216483095Y-140731904D01*
X216197380Y-139255714D02*
X216197380Y-139731904D01*
X216673571Y-139779523D01*
X216625952Y-139731904D01*
X216578333Y-139636666D01*
X216578333Y-139398571D01*
X216625952Y-139303333D01*
X216673571Y-139255714D01*
X216768809Y-139208095D01*
X217006904Y-139208095D01*
X217102142Y-139255714D01*
X217149761Y-139303333D01*
X217197380Y-139398571D01*
X217197380Y-139636666D01*
X217149761Y-139731904D01*
X217102142Y-139779523D01*
X227385952Y-140422380D02*
X228052619Y-140422380D01*
X227624047Y-141422380D01*
X228862142Y-140755714D02*
X228862142Y-141422380D01*
X228624047Y-140374761D02*
X228385952Y-141089047D01*
X229005000Y-141089047D01*
X229862142Y-141422380D02*
X229385952Y-141422380D01*
X229385952Y-140422380D01*
X230147857Y-141374761D02*
X230290714Y-141422380D01*
X230528809Y-141422380D01*
X230624047Y-141374761D01*
X230671666Y-141327142D01*
X230719285Y-141231904D01*
X230719285Y-141136666D01*
X230671666Y-141041428D01*
X230624047Y-140993809D01*
X230528809Y-140946190D01*
X230338333Y-140898571D01*
X230243095Y-140850952D01*
X230195476Y-140803333D01*
X230147857Y-140708095D01*
X230147857Y-140612857D01*
X230195476Y-140517619D01*
X230243095Y-140470000D01*
X230338333Y-140422380D01*
X230576428Y-140422380D01*
X230719285Y-140470000D01*
X231100238Y-140517619D02*
X231147857Y-140470000D01*
X231243095Y-140422380D01*
X231481190Y-140422380D01*
X231576428Y-140470000D01*
X231624047Y-140517619D01*
X231671666Y-140612857D01*
X231671666Y-140708095D01*
X231624047Y-140850952D01*
X231052619Y-141422380D01*
X231671666Y-141422380D01*
X232528809Y-140755714D02*
X232528809Y-141422380D01*
X232290714Y-140374761D02*
X232052619Y-141089047D01*
X232671666Y-141089047D01*
X233481190Y-140755714D02*
X233481190Y-141422380D01*
X233243095Y-140374761D02*
X233005000Y-141089047D01*
X233624047Y-141089047D01*
X216197380Y-130619285D02*
X217006904Y-130619285D01*
X217102142Y-130571666D01*
X217149761Y-130524047D01*
X217197380Y-130428809D01*
X217197380Y-130238333D01*
X217149761Y-130143095D01*
X217102142Y-130095476D01*
X217006904Y-130047857D01*
X216197380Y-130047857D01*
X217197380Y-129047857D02*
X217197380Y-129619285D01*
X217197380Y-129333571D02*
X216197380Y-129333571D01*
X216340238Y-129428809D01*
X216435476Y-129524047D01*
X216483095Y-129619285D01*
X217197380Y-128095476D02*
X217197380Y-128666904D01*
X217197380Y-128381190D02*
X216197380Y-128381190D01*
X216340238Y-128476428D01*
X216435476Y-128571666D01*
X216483095Y-128666904D01*
X216530714Y-127238333D02*
X217197380Y-127238333D01*
X216149761Y-127476428D02*
X216864047Y-127714523D01*
X216864047Y-127095476D01*
X227385952Y-128357380D02*
X228052619Y-128357380D01*
X227624047Y-129357380D01*
X228862142Y-128690714D02*
X228862142Y-129357380D01*
X228624047Y-128309761D02*
X228385952Y-129024047D01*
X229005000Y-129024047D01*
X229862142Y-129357380D02*
X229385952Y-129357380D01*
X229385952Y-128357380D01*
X230147857Y-129309761D02*
X230290714Y-129357380D01*
X230528809Y-129357380D01*
X230624047Y-129309761D01*
X230671666Y-129262142D01*
X230719285Y-129166904D01*
X230719285Y-129071666D01*
X230671666Y-128976428D01*
X230624047Y-128928809D01*
X230528809Y-128881190D01*
X230338333Y-128833571D01*
X230243095Y-128785952D01*
X230195476Y-128738333D01*
X230147857Y-128643095D01*
X230147857Y-128547857D01*
X230195476Y-128452619D01*
X230243095Y-128405000D01*
X230338333Y-128357380D01*
X230576428Y-128357380D01*
X230719285Y-128405000D01*
X231052619Y-128357380D02*
X231671666Y-128357380D01*
X231338333Y-128738333D01*
X231481190Y-128738333D01*
X231576428Y-128785952D01*
X231624047Y-128833571D01*
X231671666Y-128928809D01*
X231671666Y-129166904D01*
X231624047Y-129262142D01*
X231576428Y-129309761D01*
X231481190Y-129357380D01*
X231195476Y-129357380D01*
X231100238Y-129309761D01*
X231052619Y-129262142D01*
X232005000Y-128357380D02*
X232671666Y-128357380D01*
X232243095Y-129357380D01*
X232957380Y-128357380D02*
X233576428Y-128357380D01*
X233243095Y-128738333D01*
X233385952Y-128738333D01*
X233481190Y-128785952D01*
X233528809Y-128833571D01*
X233576428Y-128928809D01*
X233576428Y-129166904D01*
X233528809Y-129262142D01*
X233481190Y-129309761D01*
X233385952Y-129357380D01*
X233100238Y-129357380D01*
X233005000Y-129309761D01*
X232957380Y-129262142D01*
X249070952Y-123642380D02*
X248737619Y-123166190D01*
X248499523Y-123642380D02*
X248499523Y-122642380D01*
X248880476Y-122642380D01*
X248975714Y-122690000D01*
X249023333Y-122737619D01*
X249070952Y-122832857D01*
X249070952Y-122975714D01*
X249023333Y-123070952D01*
X248975714Y-123118571D01*
X248880476Y-123166190D01*
X248499523Y-123166190D01*
X250023333Y-123642380D02*
X249451904Y-123642380D01*
X249737619Y-123642380D02*
X249737619Y-122642380D01*
X249642380Y-122785238D01*
X249547142Y-122880476D01*
X249451904Y-122928095D01*
X250499523Y-123642380D02*
X250690000Y-123642380D01*
X250785238Y-123594761D01*
X250832857Y-123547142D01*
X250928095Y-123404285D01*
X250975714Y-123213809D01*
X250975714Y-122832857D01*
X250928095Y-122737619D01*
X250880476Y-122690000D01*
X250785238Y-122642380D01*
X250594761Y-122642380D01*
X250499523Y-122690000D01*
X250451904Y-122737619D01*
X250404285Y-122832857D01*
X250404285Y-123070952D01*
X250451904Y-123166190D01*
X250499523Y-123213809D01*
X250594761Y-123261428D01*
X250785238Y-123261428D01*
X250880476Y-123213809D01*
X250928095Y-123166190D01*
X250975714Y-123070952D01*
X251832857Y-122975714D02*
X251832857Y-123642380D01*
X251594761Y-122594761D02*
X251356666Y-123309047D01*
X251975714Y-123309047D01*
X249737619Y-130071666D02*
X249690000Y-130024047D01*
X249642380Y-129928809D01*
X249642380Y-129690714D01*
X249690000Y-129595476D01*
X249737619Y-129547857D01*
X249832857Y-129500238D01*
X249928095Y-129500238D01*
X250070952Y-129547857D01*
X250642380Y-130119285D01*
X250642380Y-129500238D01*
X250642380Y-129071666D02*
X249642380Y-129071666D01*
X250261428Y-128976428D02*
X250642380Y-128690714D01*
X249975714Y-128690714D02*
X250356666Y-129071666D01*
X249737619Y-128309761D02*
X249690000Y-128262142D01*
X249642380Y-128166904D01*
X249642380Y-127928809D01*
X249690000Y-127833571D01*
X249737619Y-127785952D01*
X249832857Y-127738333D01*
X249928095Y-127738333D01*
X250070952Y-127785952D01*
X250642380Y-128357380D01*
X250642380Y-127738333D01*
X245097380Y-130024047D02*
X244621190Y-130357380D01*
X245097380Y-130595476D02*
X244097380Y-130595476D01*
X244097380Y-130214523D01*
X244145000Y-130119285D01*
X244192619Y-130071666D01*
X244287857Y-130024047D01*
X244430714Y-130024047D01*
X244525952Y-130071666D01*
X244573571Y-130119285D01*
X244621190Y-130214523D01*
X244621190Y-130595476D01*
X245097380Y-129071666D02*
X245097380Y-129643095D01*
X245097380Y-129357380D02*
X244097380Y-129357380D01*
X244240238Y-129452619D01*
X244335476Y-129547857D01*
X244383095Y-129643095D01*
X245097380Y-128595476D02*
X245097380Y-128405000D01*
X245049761Y-128309761D01*
X245002142Y-128262142D01*
X244859285Y-128166904D01*
X244668809Y-128119285D01*
X244287857Y-128119285D01*
X244192619Y-128166904D01*
X244145000Y-128214523D01*
X244097380Y-128309761D01*
X244097380Y-128500238D01*
X244145000Y-128595476D01*
X244192619Y-128643095D01*
X244287857Y-128690714D01*
X244525952Y-128690714D01*
X244621190Y-128643095D01*
X244668809Y-128595476D01*
X244716428Y-128500238D01*
X244716428Y-128309761D01*
X244668809Y-128214523D01*
X244621190Y-128166904D01*
X244525952Y-128119285D01*
X244097380Y-127785952D02*
X244097380Y-127166904D01*
X244478333Y-127500238D01*
X244478333Y-127357380D01*
X244525952Y-127262142D01*
X244573571Y-127214523D01*
X244668809Y-127166904D01*
X244906904Y-127166904D01*
X245002142Y-127214523D01*
X245049761Y-127262142D01*
X245097380Y-127357380D01*
X245097380Y-127643095D01*
X245049761Y-127738333D01*
X245002142Y-127785952D01*
X246562619Y-130071666D02*
X246515000Y-130024047D01*
X246467380Y-129928809D01*
X246467380Y-129690714D01*
X246515000Y-129595476D01*
X246562619Y-129547857D01*
X246657857Y-129500238D01*
X246753095Y-129500238D01*
X246895952Y-129547857D01*
X247467380Y-130119285D01*
X247467380Y-129500238D01*
X247467380Y-129071666D02*
X246467380Y-129071666D01*
X247086428Y-128976428D02*
X247467380Y-128690714D01*
X246800714Y-128690714D02*
X247181666Y-129071666D01*
X246562619Y-128309761D02*
X246515000Y-128262142D01*
X246467380Y-128166904D01*
X246467380Y-127928809D01*
X246515000Y-127833571D01*
X246562619Y-127785952D01*
X246657857Y-127738333D01*
X246753095Y-127738333D01*
X246895952Y-127785952D01*
X247467380Y-128357380D01*
X247467380Y-127738333D01*
X249070952Y-135707380D02*
X248737619Y-135231190D01*
X248499523Y-135707380D02*
X248499523Y-134707380D01*
X248880476Y-134707380D01*
X248975714Y-134755000D01*
X249023333Y-134802619D01*
X249070952Y-134897857D01*
X249070952Y-135040714D01*
X249023333Y-135135952D01*
X248975714Y-135183571D01*
X248880476Y-135231190D01*
X248499523Y-135231190D01*
X250023333Y-135707380D02*
X249451904Y-135707380D01*
X249737619Y-135707380D02*
X249737619Y-134707380D01*
X249642380Y-134850238D01*
X249547142Y-134945476D01*
X249451904Y-134993095D01*
X250499523Y-135707380D02*
X250690000Y-135707380D01*
X250785238Y-135659761D01*
X250832857Y-135612142D01*
X250928095Y-135469285D01*
X250975714Y-135278809D01*
X250975714Y-134897857D01*
X250928095Y-134802619D01*
X250880476Y-134755000D01*
X250785238Y-134707380D01*
X250594761Y-134707380D01*
X250499523Y-134755000D01*
X250451904Y-134802619D01*
X250404285Y-134897857D01*
X250404285Y-135135952D01*
X250451904Y-135231190D01*
X250499523Y-135278809D01*
X250594761Y-135326428D01*
X250785238Y-135326428D01*
X250880476Y-135278809D01*
X250928095Y-135231190D01*
X250975714Y-135135952D01*
X251356666Y-134802619D02*
X251404285Y-134755000D01*
X251499523Y-134707380D01*
X251737619Y-134707380D01*
X251832857Y-134755000D01*
X251880476Y-134802619D01*
X251928095Y-134897857D01*
X251928095Y-134993095D01*
X251880476Y-135135952D01*
X251309047Y-135707380D01*
X251928095Y-135707380D01*
X249737619Y-142136666D02*
X249690000Y-142089047D01*
X249642380Y-141993809D01*
X249642380Y-141755714D01*
X249690000Y-141660476D01*
X249737619Y-141612857D01*
X249832857Y-141565238D01*
X249928095Y-141565238D01*
X250070952Y-141612857D01*
X250642380Y-142184285D01*
X250642380Y-141565238D01*
X250642380Y-141136666D02*
X249642380Y-141136666D01*
X250261428Y-141041428D02*
X250642380Y-140755714D01*
X249975714Y-140755714D02*
X250356666Y-141136666D01*
X249737619Y-140374761D02*
X249690000Y-140327142D01*
X249642380Y-140231904D01*
X249642380Y-139993809D01*
X249690000Y-139898571D01*
X249737619Y-139850952D01*
X249832857Y-139803333D01*
X249928095Y-139803333D01*
X250070952Y-139850952D01*
X250642380Y-140422380D01*
X250642380Y-139803333D01*
X192052380Y-117959047D02*
X191576190Y-118292380D01*
X192052380Y-118530476D02*
X191052380Y-118530476D01*
X191052380Y-118149523D01*
X191100000Y-118054285D01*
X191147619Y-118006666D01*
X191242857Y-117959047D01*
X191385714Y-117959047D01*
X191480952Y-118006666D01*
X191528571Y-118054285D01*
X191576190Y-118149523D01*
X191576190Y-118530476D01*
X192052380Y-117006666D02*
X192052380Y-117578095D01*
X192052380Y-117292380D02*
X191052380Y-117292380D01*
X191195238Y-117387619D01*
X191290476Y-117482857D01*
X191338095Y-117578095D01*
X192052380Y-116530476D02*
X192052380Y-116340000D01*
X192004761Y-116244761D01*
X191957142Y-116197142D01*
X191814285Y-116101904D01*
X191623809Y-116054285D01*
X191242857Y-116054285D01*
X191147619Y-116101904D01*
X191100000Y-116149523D01*
X191052380Y-116244761D01*
X191052380Y-116435238D01*
X191100000Y-116530476D01*
X191147619Y-116578095D01*
X191242857Y-116625714D01*
X191480952Y-116625714D01*
X191576190Y-116578095D01*
X191623809Y-116530476D01*
X191671428Y-116435238D01*
X191671428Y-116244761D01*
X191623809Y-116149523D01*
X191576190Y-116101904D01*
X191480952Y-116054285D01*
X192052380Y-115101904D02*
X192052380Y-115673333D01*
X192052380Y-115387619D02*
X191052380Y-115387619D01*
X191195238Y-115482857D01*
X191290476Y-115578095D01*
X191338095Y-115673333D01*
X189682380Y-117435238D02*
X189682380Y-118006666D01*
X189682380Y-117720952D02*
X188682380Y-117720952D01*
X188825238Y-117816190D01*
X188920476Y-117911428D01*
X188968095Y-118006666D01*
X188682380Y-116816190D02*
X188682380Y-116720952D01*
X188730000Y-116625714D01*
X188777619Y-116578095D01*
X188872857Y-116530476D01*
X189063333Y-116482857D01*
X189301428Y-116482857D01*
X189491904Y-116530476D01*
X189587142Y-116578095D01*
X189634761Y-116625714D01*
X189682380Y-116720952D01*
X189682380Y-116816190D01*
X189634761Y-116911428D01*
X189587142Y-116959047D01*
X189491904Y-117006666D01*
X189301428Y-117054285D01*
X189063333Y-117054285D01*
X188872857Y-117006666D01*
X188777619Y-116959047D01*
X188730000Y-116911428D01*
X188682380Y-116816190D01*
X189682380Y-116054285D02*
X188682380Y-116054285D01*
X189301428Y-115959047D02*
X189682380Y-115673333D01*
X189015714Y-115673333D02*
X189396666Y-116054285D01*
X197167380Y-106378333D02*
X197881666Y-106378333D01*
X198024523Y-106425952D01*
X198119761Y-106521190D01*
X198167380Y-106664047D01*
X198167380Y-106759285D01*
X198167380Y-105378333D02*
X198167380Y-105949761D01*
X198167380Y-105664047D02*
X197167380Y-105664047D01*
X197310238Y-105759285D01*
X197405476Y-105854523D01*
X197453095Y-105949761D01*
X166397380Y-118768571D02*
X165397380Y-118768571D01*
X166302142Y-117720952D02*
X166349761Y-117768571D01*
X166397380Y-117911428D01*
X166397380Y-118006666D01*
X166349761Y-118149523D01*
X166254523Y-118244761D01*
X166159285Y-118292380D01*
X165968809Y-118340000D01*
X165825952Y-118340000D01*
X165635476Y-118292380D01*
X165540238Y-118244761D01*
X165445000Y-118149523D01*
X165397380Y-118006666D01*
X165397380Y-117911428D01*
X165445000Y-117768571D01*
X165492619Y-117720952D01*
X166397380Y-116768571D02*
X166397380Y-117340000D01*
X166397380Y-117054285D02*
X165397380Y-117054285D01*
X165540238Y-117149523D01*
X165635476Y-117244761D01*
X165683095Y-117340000D01*
X166397380Y-116292380D02*
X166397380Y-116101904D01*
X166349761Y-116006666D01*
X166302142Y-115959047D01*
X166159285Y-115863809D01*
X165968809Y-115816190D01*
X165587857Y-115816190D01*
X165492619Y-115863809D01*
X165445000Y-115911428D01*
X165397380Y-116006666D01*
X165397380Y-116197142D01*
X165445000Y-116292380D01*
X165492619Y-116340000D01*
X165587857Y-116387619D01*
X165825952Y-116387619D01*
X165921190Y-116340000D01*
X165968809Y-116292380D01*
X166016428Y-116197142D01*
X166016428Y-116006666D01*
X165968809Y-115911428D01*
X165921190Y-115863809D01*
X165825952Y-115816190D01*
X165492619Y-115435238D02*
X165445000Y-115387619D01*
X165397380Y-115292380D01*
X165397380Y-115054285D01*
X165445000Y-114959047D01*
X165492619Y-114911428D01*
X165587857Y-114863809D01*
X165683095Y-114863809D01*
X165825952Y-114911428D01*
X166397380Y-115482857D01*
X166397380Y-114863809D01*
X173252142Y-116292380D02*
X173918809Y-116292380D01*
X173490238Y-117292380D01*
X174728333Y-116625714D02*
X174728333Y-117292380D01*
X174490238Y-116244761D02*
X174252142Y-116959047D01*
X174871190Y-116959047D01*
X175728333Y-117292380D02*
X175252142Y-117292380D01*
X175252142Y-116292380D01*
X176014047Y-117244761D02*
X176156904Y-117292380D01*
X176395000Y-117292380D01*
X176490238Y-117244761D01*
X176537857Y-117197142D01*
X176585476Y-117101904D01*
X176585476Y-117006666D01*
X176537857Y-116911428D01*
X176490238Y-116863809D01*
X176395000Y-116816190D01*
X176204523Y-116768571D01*
X176109285Y-116720952D01*
X176061666Y-116673333D01*
X176014047Y-116578095D01*
X176014047Y-116482857D01*
X176061666Y-116387619D01*
X176109285Y-116340000D01*
X176204523Y-116292380D01*
X176442619Y-116292380D01*
X176585476Y-116340000D01*
X176918809Y-116292380D02*
X177537857Y-116292380D01*
X177204523Y-116673333D01*
X177347380Y-116673333D01*
X177442619Y-116720952D01*
X177490238Y-116768571D01*
X177537857Y-116863809D01*
X177537857Y-117101904D01*
X177490238Y-117197142D01*
X177442619Y-117244761D01*
X177347380Y-117292380D01*
X177061666Y-117292380D01*
X176966428Y-117244761D01*
X176918809Y-117197142D01*
X177918809Y-116387619D02*
X177966428Y-116340000D01*
X178061666Y-116292380D01*
X178299761Y-116292380D01*
X178395000Y-116340000D01*
X178442619Y-116387619D01*
X178490238Y-116482857D01*
X178490238Y-116578095D01*
X178442619Y-116720952D01*
X177871190Y-117292380D01*
X178490238Y-117292380D01*
X227183333Y-115637142D02*
X227135714Y-115684761D01*
X226992857Y-115732380D01*
X226897619Y-115732380D01*
X226754761Y-115684761D01*
X226659523Y-115589523D01*
X226611904Y-115494285D01*
X226564285Y-115303809D01*
X226564285Y-115160952D01*
X226611904Y-114970476D01*
X226659523Y-114875238D01*
X226754761Y-114780000D01*
X226897619Y-114732380D01*
X226992857Y-114732380D01*
X227135714Y-114780000D01*
X227183333Y-114827619D01*
X227659523Y-115732380D02*
X227850000Y-115732380D01*
X227945238Y-115684761D01*
X227992857Y-115637142D01*
X228088095Y-115494285D01*
X228135714Y-115303809D01*
X228135714Y-114922857D01*
X228088095Y-114827619D01*
X228040476Y-114780000D01*
X227945238Y-114732380D01*
X227754761Y-114732380D01*
X227659523Y-114780000D01*
X227611904Y-114827619D01*
X227564285Y-114922857D01*
X227564285Y-115160952D01*
X227611904Y-115256190D01*
X227659523Y-115303809D01*
X227754761Y-115351428D01*
X227945238Y-115351428D01*
X228040476Y-115303809D01*
X228088095Y-115256190D01*
X228135714Y-115160952D01*
X212693333Y-104802380D02*
X212217142Y-104802380D01*
X212217142Y-103802380D01*
X213026666Y-104802380D02*
X213026666Y-103802380D01*
X213598095Y-104802380D02*
X213169523Y-104230952D01*
X213598095Y-103802380D02*
X213026666Y-104373809D01*
X213931428Y-103802380D02*
X214598095Y-103802380D01*
X214169523Y-104802380D01*
X152824380Y-152445933D02*
X153538666Y-152445933D01*
X153681523Y-152493552D01*
X153776761Y-152588790D01*
X153824380Y-152731647D01*
X153824380Y-152826885D01*
X153824380Y-151969742D02*
X152824380Y-151969742D01*
X152824380Y-151588790D01*
X152872000Y-151493552D01*
X152919619Y-151445933D01*
X153014857Y-151398314D01*
X153157714Y-151398314D01*
X153252952Y-151445933D01*
X153300571Y-151493552D01*
X153348190Y-151588790D01*
X153348190Y-151969742D01*
X153824380Y-150445933D02*
X153824380Y-151017361D01*
X153824380Y-150731647D02*
X152824380Y-150731647D01*
X152967238Y-150826885D01*
X153062476Y-150922123D01*
X153110095Y-151017361D01*
X219043333Y-104802380D02*
X218567142Y-104802380D01*
X218567142Y-103802380D01*
X219376666Y-104802380D02*
X219376666Y-103802380D01*
X219948095Y-104802380D02*
X219519523Y-104230952D01*
X219948095Y-103802380D02*
X219376666Y-104373809D01*
X220805238Y-103802380D02*
X220614761Y-103802380D01*
X220519523Y-103850000D01*
X220471904Y-103897619D01*
X220376666Y-104040476D01*
X220329047Y-104230952D01*
X220329047Y-104611904D01*
X220376666Y-104707142D01*
X220424285Y-104754761D01*
X220519523Y-104802380D01*
X220710000Y-104802380D01*
X220805238Y-104754761D01*
X220852857Y-104707142D01*
X220900476Y-104611904D01*
X220900476Y-104373809D01*
X220852857Y-104278571D01*
X220805238Y-104230952D01*
X220710000Y-104183333D01*
X220519523Y-104183333D01*
X220424285Y-104230952D01*
X220376666Y-104278571D01*
X220329047Y-104373809D01*
X215868333Y-104802380D02*
X215392142Y-104802380D01*
X215392142Y-103802380D01*
X216201666Y-104802380D02*
X216201666Y-103802380D01*
X216773095Y-104802380D02*
X216344523Y-104230952D01*
X216773095Y-103802380D02*
X216201666Y-104373809D01*
X217677857Y-103802380D02*
X217201666Y-103802380D01*
X217154047Y-104278571D01*
X217201666Y-104230952D01*
X217296904Y-104183333D01*
X217535000Y-104183333D01*
X217630238Y-104230952D01*
X217677857Y-104278571D01*
X217725476Y-104373809D01*
X217725476Y-104611904D01*
X217677857Y-104707142D01*
X217630238Y-104754761D01*
X217535000Y-104802380D01*
X217296904Y-104802380D01*
X217201666Y-104754761D01*
X217154047Y-104707142D01*
X193464380Y-149905933D02*
X194178666Y-149905933D01*
X194321523Y-149953552D01*
X194416761Y-150048790D01*
X194464380Y-150191647D01*
X194464380Y-150286885D01*
X194464380Y-149429742D02*
X193464380Y-149429742D01*
X193464380Y-149048790D01*
X193512000Y-148953552D01*
X193559619Y-148905933D01*
X193654857Y-148858314D01*
X193797714Y-148858314D01*
X193892952Y-148905933D01*
X193940571Y-148953552D01*
X193988190Y-149048790D01*
X193988190Y-149429742D01*
X193559619Y-148477361D02*
X193512000Y-148429742D01*
X193464380Y-148334504D01*
X193464380Y-148096409D01*
X193512000Y-148001171D01*
X193559619Y-147953552D01*
X193654857Y-147905933D01*
X193750095Y-147905933D01*
X193892952Y-147953552D01*
X194464380Y-148524980D01*
X194464380Y-147905933D01*
X196877380Y-118768571D02*
X195877380Y-118768571D01*
X196782142Y-117720952D02*
X196829761Y-117768571D01*
X196877380Y-117911428D01*
X196877380Y-118006666D01*
X196829761Y-118149523D01*
X196734523Y-118244761D01*
X196639285Y-118292380D01*
X196448809Y-118340000D01*
X196305952Y-118340000D01*
X196115476Y-118292380D01*
X196020238Y-118244761D01*
X195925000Y-118149523D01*
X195877380Y-118006666D01*
X195877380Y-117911428D01*
X195925000Y-117768571D01*
X195972619Y-117720952D01*
X196877380Y-116768571D02*
X196877380Y-117340000D01*
X196877380Y-117054285D02*
X195877380Y-117054285D01*
X196020238Y-117149523D01*
X196115476Y-117244761D01*
X196163095Y-117340000D01*
X196877380Y-115816190D02*
X196877380Y-116387619D01*
X196877380Y-116101904D02*
X195877380Y-116101904D01*
X196020238Y-116197142D01*
X196115476Y-116292380D01*
X196163095Y-116387619D01*
X196305952Y-115244761D02*
X196258333Y-115340000D01*
X196210714Y-115387619D01*
X196115476Y-115435238D01*
X196067857Y-115435238D01*
X195972619Y-115387619D01*
X195925000Y-115340000D01*
X195877380Y-115244761D01*
X195877380Y-115054285D01*
X195925000Y-114959047D01*
X195972619Y-114911428D01*
X196067857Y-114863809D01*
X196115476Y-114863809D01*
X196210714Y-114911428D01*
X196258333Y-114959047D01*
X196305952Y-115054285D01*
X196305952Y-115244761D01*
X196353571Y-115340000D01*
X196401190Y-115387619D01*
X196496428Y-115435238D01*
X196686904Y-115435238D01*
X196782142Y-115387619D01*
X196829761Y-115340000D01*
X196877380Y-115244761D01*
X196877380Y-115054285D01*
X196829761Y-114959047D01*
X196782142Y-114911428D01*
X196686904Y-114863809D01*
X196496428Y-114863809D01*
X196401190Y-114911428D01*
X196353571Y-114959047D01*
X196305952Y-115054285D01*
X206494523Y-117006666D02*
X206970714Y-117006666D01*
X206399285Y-117292380D02*
X206732619Y-116292380D01*
X207065952Y-117292380D01*
X207399285Y-117292380D02*
X207399285Y-116292380D01*
X207732619Y-117006666D01*
X208065952Y-116292380D01*
X208065952Y-117292380D01*
X209065952Y-116340000D02*
X208970714Y-116292380D01*
X208827857Y-116292380D01*
X208685000Y-116340000D01*
X208589761Y-116435238D01*
X208542142Y-116530476D01*
X208494523Y-116720952D01*
X208494523Y-116863809D01*
X208542142Y-117054285D01*
X208589761Y-117149523D01*
X208685000Y-117244761D01*
X208827857Y-117292380D01*
X208923095Y-117292380D01*
X209065952Y-117244761D01*
X209113571Y-117197142D01*
X209113571Y-116863809D01*
X208923095Y-116863809D01*
X209970714Y-116625714D02*
X209970714Y-117292380D01*
X209732619Y-116244761D02*
X209494523Y-116959047D01*
X210113571Y-116959047D01*
X210685000Y-116292380D02*
X210780238Y-116292380D01*
X210875476Y-116340000D01*
X210923095Y-116387619D01*
X210970714Y-116482857D01*
X211018333Y-116673333D01*
X211018333Y-116911428D01*
X210970714Y-117101904D01*
X210923095Y-117197142D01*
X210875476Y-117244761D01*
X210780238Y-117292380D01*
X210685000Y-117292380D01*
X210589761Y-117244761D01*
X210542142Y-117197142D01*
X210494523Y-117101904D01*
X210446904Y-116911428D01*
X210446904Y-116673333D01*
X210494523Y-116482857D01*
X210542142Y-116387619D01*
X210589761Y-116340000D01*
X210685000Y-116292380D01*
X211637380Y-116292380D02*
X211732619Y-116292380D01*
X211827857Y-116340000D01*
X211875476Y-116387619D01*
X211923095Y-116482857D01*
X211970714Y-116673333D01*
X211970714Y-116911428D01*
X211923095Y-117101904D01*
X211875476Y-117197142D01*
X211827857Y-117244761D01*
X211732619Y-117292380D01*
X211637380Y-117292380D01*
X211542142Y-117244761D01*
X211494523Y-117197142D01*
X211446904Y-117101904D01*
X211399285Y-116911428D01*
X211399285Y-116673333D01*
X211446904Y-116482857D01*
X211494523Y-116387619D01*
X211542142Y-116340000D01*
X211637380Y-116292380D01*
X212304047Y-116292380D02*
X212923095Y-116292380D01*
X212589761Y-116673333D01*
X212732619Y-116673333D01*
X212827857Y-116720952D01*
X212875476Y-116768571D01*
X212923095Y-116863809D01*
X212923095Y-117101904D01*
X212875476Y-117197142D01*
X212827857Y-117244761D01*
X212732619Y-117292380D01*
X212446904Y-117292380D01*
X212351666Y-117244761D01*
X212304047Y-117197142D01*
X213875476Y-117292380D02*
X213304047Y-117292380D01*
X213589761Y-117292380D02*
X213589761Y-116292380D01*
X213494523Y-116435238D01*
X213399285Y-116530476D01*
X213304047Y-116578095D01*
X214483333Y-127742142D02*
X214435714Y-127789761D01*
X214292857Y-127837380D01*
X214197619Y-127837380D01*
X214054761Y-127789761D01*
X213959523Y-127694523D01*
X213911904Y-127599285D01*
X213864285Y-127408809D01*
X213864285Y-127265952D01*
X213911904Y-127075476D01*
X213959523Y-126980238D01*
X214054761Y-126885000D01*
X214197619Y-126837380D01*
X214292857Y-126837380D01*
X214435714Y-126885000D01*
X214483333Y-126932619D01*
X215054761Y-127265952D02*
X214959523Y-127218333D01*
X214911904Y-127170714D01*
X214864285Y-127075476D01*
X214864285Y-127027857D01*
X214911904Y-126932619D01*
X214959523Y-126885000D01*
X215054761Y-126837380D01*
X215245238Y-126837380D01*
X215340476Y-126885000D01*
X215388095Y-126932619D01*
X215435714Y-127027857D01*
X215435714Y-127075476D01*
X215388095Y-127170714D01*
X215340476Y-127218333D01*
X215245238Y-127265952D01*
X215054761Y-127265952D01*
X214959523Y-127313571D01*
X214911904Y-127361190D01*
X214864285Y-127456428D01*
X214864285Y-127646904D01*
X214911904Y-127742142D01*
X214959523Y-127789761D01*
X215054761Y-127837380D01*
X215245238Y-127837380D01*
X215340476Y-127789761D01*
X215388095Y-127742142D01*
X215435714Y-127646904D01*
X215435714Y-127456428D01*
X215388095Y-127361190D01*
X215340476Y-127313571D01*
X215245238Y-127265952D01*
X214483333Y-139767142D02*
X214435714Y-139814761D01*
X214292857Y-139862380D01*
X214197619Y-139862380D01*
X214054761Y-139814761D01*
X213959523Y-139719523D01*
X213911904Y-139624285D01*
X213864285Y-139433809D01*
X213864285Y-139290952D01*
X213911904Y-139100476D01*
X213959523Y-139005238D01*
X214054761Y-138910000D01*
X214197619Y-138862380D01*
X214292857Y-138862380D01*
X214435714Y-138910000D01*
X214483333Y-138957619D01*
X214816666Y-138862380D02*
X215483333Y-138862380D01*
X215054761Y-139862380D01*
X194163333Y-115637142D02*
X194115714Y-115684761D01*
X193972857Y-115732380D01*
X193877619Y-115732380D01*
X193734761Y-115684761D01*
X193639523Y-115589523D01*
X193591904Y-115494285D01*
X193544285Y-115303809D01*
X193544285Y-115160952D01*
X193591904Y-114970476D01*
X193639523Y-114875238D01*
X193734761Y-114780000D01*
X193877619Y-114732380D01*
X193972857Y-114732380D01*
X194115714Y-114780000D01*
X194163333Y-114827619D01*
X195020476Y-114732380D02*
X194830000Y-114732380D01*
X194734761Y-114780000D01*
X194687142Y-114827619D01*
X194591904Y-114970476D01*
X194544285Y-115160952D01*
X194544285Y-115541904D01*
X194591904Y-115637142D01*
X194639523Y-115684761D01*
X194734761Y-115732380D01*
X194925238Y-115732380D01*
X195020476Y-115684761D01*
X195068095Y-115637142D01*
X195115714Y-115541904D01*
X195115714Y-115303809D01*
X195068095Y-115208571D01*
X195020476Y-115160952D01*
X194925238Y-115113333D01*
X194734761Y-115113333D01*
X194639523Y-115160952D01*
X194591904Y-115208571D01*
X194544285Y-115303809D01*
X189083333Y-127742142D02*
X189035714Y-127789761D01*
X188892857Y-127837380D01*
X188797619Y-127837380D01*
X188654761Y-127789761D01*
X188559523Y-127694523D01*
X188511904Y-127599285D01*
X188464285Y-127408809D01*
X188464285Y-127265952D01*
X188511904Y-127075476D01*
X188559523Y-126980238D01*
X188654761Y-126885000D01*
X188797619Y-126837380D01*
X188892857Y-126837380D01*
X189035714Y-126885000D01*
X189083333Y-126932619D01*
X189988095Y-126837380D02*
X189511904Y-126837380D01*
X189464285Y-127313571D01*
X189511904Y-127265952D01*
X189607142Y-127218333D01*
X189845238Y-127218333D01*
X189940476Y-127265952D01*
X189988095Y-127313571D01*
X190035714Y-127408809D01*
X190035714Y-127646904D01*
X189988095Y-127742142D01*
X189940476Y-127789761D01*
X189845238Y-127837380D01*
X189607142Y-127837380D01*
X189511904Y-127789761D01*
X189464285Y-127742142D01*
X189083333Y-139807142D02*
X189035714Y-139854761D01*
X188892857Y-139902380D01*
X188797619Y-139902380D01*
X188654761Y-139854761D01*
X188559523Y-139759523D01*
X188511904Y-139664285D01*
X188464285Y-139473809D01*
X188464285Y-139330952D01*
X188511904Y-139140476D01*
X188559523Y-139045238D01*
X188654761Y-138950000D01*
X188797619Y-138902380D01*
X188892857Y-138902380D01*
X189035714Y-138950000D01*
X189083333Y-138997619D01*
X189940476Y-139235714D02*
X189940476Y-139902380D01*
X189702380Y-138854761D02*
X189464285Y-139569047D01*
X190083333Y-139569047D01*
X163683333Y-115677142D02*
X163635714Y-115724761D01*
X163492857Y-115772380D01*
X163397619Y-115772380D01*
X163254761Y-115724761D01*
X163159523Y-115629523D01*
X163111904Y-115534285D01*
X163064285Y-115343809D01*
X163064285Y-115200952D01*
X163111904Y-115010476D01*
X163159523Y-114915238D01*
X163254761Y-114820000D01*
X163397619Y-114772380D01*
X163492857Y-114772380D01*
X163635714Y-114820000D01*
X163683333Y-114867619D01*
X164016666Y-114772380D02*
X164635714Y-114772380D01*
X164302380Y-115153333D01*
X164445238Y-115153333D01*
X164540476Y-115200952D01*
X164588095Y-115248571D01*
X164635714Y-115343809D01*
X164635714Y-115581904D01*
X164588095Y-115677142D01*
X164540476Y-115724761D01*
X164445238Y-115772380D01*
X164159523Y-115772380D01*
X164064285Y-115724761D01*
X164016666Y-115677142D01*
X163683333Y-127702142D02*
X163635714Y-127749761D01*
X163492857Y-127797380D01*
X163397619Y-127797380D01*
X163254761Y-127749761D01*
X163159523Y-127654523D01*
X163111904Y-127559285D01*
X163064285Y-127368809D01*
X163064285Y-127225952D01*
X163111904Y-127035476D01*
X163159523Y-126940238D01*
X163254761Y-126845000D01*
X163397619Y-126797380D01*
X163492857Y-126797380D01*
X163635714Y-126845000D01*
X163683333Y-126892619D01*
X164064285Y-126892619D02*
X164111904Y-126845000D01*
X164207142Y-126797380D01*
X164445238Y-126797380D01*
X164540476Y-126845000D01*
X164588095Y-126892619D01*
X164635714Y-126987857D01*
X164635714Y-127083095D01*
X164588095Y-127225952D01*
X164016666Y-127797380D01*
X164635714Y-127797380D01*
X163683333Y-139807142D02*
X163635714Y-139854761D01*
X163492857Y-139902380D01*
X163397619Y-139902380D01*
X163254761Y-139854761D01*
X163159523Y-139759523D01*
X163111904Y-139664285D01*
X163064285Y-139473809D01*
X163064285Y-139330952D01*
X163111904Y-139140476D01*
X163159523Y-139045238D01*
X163254761Y-138950000D01*
X163397619Y-138902380D01*
X163492857Y-138902380D01*
X163635714Y-138950000D01*
X163683333Y-138997619D01*
X164635714Y-139902380D02*
X164064285Y-139902380D01*
X164350000Y-139902380D02*
X164350000Y-138902380D01*
X164254761Y-139045238D01*
X164159523Y-139140476D01*
X164064285Y-139188095D01*
M02*
