M48
INCH,TZ
T1C0.0157
T2C0.0315
T3C0.0394
%
G90
G05
T1
X61350Y-50650
X62300Y-51000
X67850Y-53450
X68750Y-51350
X70750Y-51750
X71150Y-50350
X71700Y-50300
X72750Y-45450
X73400Y-46400
X74000Y-47950
X74000Y-52447
X74500Y-45204
X78750Y-45000
X78750Y-53100
X79250Y-50300
X79750Y-46700
X80250Y-49900
X80750Y-42800
X80750Y-46050
X81500Y-41750
X82250Y-41750
X82750Y-47000
X82850Y-52750
X83450Y-50650
X84000Y-50600
X84500Y-51000
X85713Y-45737
X87700Y-48200
X88350Y-51350
X89250Y-51600
X89750Y-51850
X89750Y-54600
X90053Y-57550
X90550Y-46400
X90850Y-46650
X91950Y-57550
X93750Y-54600
X93950Y-57550
X96000Y-57800
T2
X64016Y-44516
X64016Y-49250
X64016Y-54016
X65000Y-44516
X65000Y-49250
X65000Y-54016
X66250Y-44500
X66250Y-47500
X66250Y-49250
X66250Y-52250
X66250Y-54000
X66250Y-57000
X67250Y-44500
X67250Y-47500
X67250Y-49250
X67250Y-52250
X67250Y-54000
X67250Y-57000
X68250Y-44500
X68250Y-47500
X68250Y-49250
X68250Y-52250
X68250Y-54000
X68250Y-57000
X69250Y-44500
X69250Y-47500
X69250Y-49250
X69250Y-52250
X69250Y-54000
X69250Y-57000
X70250Y-44500
X70250Y-47500
X70250Y-49250
X70250Y-52250
X70250Y-54000
X70250Y-57000
X71250Y-44500
X71250Y-47500
X71250Y-49250
X71250Y-52250
X71250Y-54000
X71250Y-57000
X72250Y-44500
X72250Y-47500
X72250Y-49250
X72250Y-52250
X72250Y-54000
X72250Y-57000
X74016Y-49266
X74016Y-54016
X74500Y-44500
X74500Y-47500
X75000Y-49266
X75000Y-54016
X76016Y-44500
X76250Y-49250
X76250Y-52250
X76250Y-54000
X76250Y-57000
X77000Y-44500
X77250Y-49250
X77250Y-52250
X77250Y-54000
X77250Y-57000
X78250Y-44500
X78250Y-47500
X78250Y-49250
X78250Y-52250
X78250Y-54000
X78250Y-57000
X79250Y-44500
X79250Y-47500
X79250Y-49250
X79250Y-52250
X79250Y-54000
X79250Y-57000
X80250Y-44500
X80250Y-47500
X80250Y-49250
X80250Y-52250
X80250Y-54000
X80250Y-57000
X81250Y-44500
X81250Y-47500
X81250Y-49250
X81250Y-52250
X81250Y-54000
X81250Y-57000
X82250Y-44500
X82250Y-47500
X82250Y-49250
X82250Y-52250
X82250Y-54000
X82250Y-57000
X83250Y-44500
X83250Y-47500
X84016Y-49266
X84016Y-54000
X84250Y-44500
X84250Y-47500
X85000Y-49266
X85000Y-54000
X85250Y-44500
X85250Y-47500
X86250Y-44500
X86250Y-47500
X86250Y-49250
X86250Y-52250
X86250Y-54000
X86250Y-57000
X87250Y-44500
X87250Y-47500
X87250Y-49250
X87250Y-52250
X87250Y-54000
X87250Y-57000
X88250Y-49250
X88250Y-52250
X88250Y-54000
X88250Y-57000
X89016Y-44500
X89250Y-49250
X89250Y-52250
X89250Y-54000
X89250Y-57000
X90000Y-44500
X90250Y-49250
X90250Y-52250
X90250Y-54000
X90250Y-57000
X91250Y-44500
X91250Y-47500
X91250Y-49250
X91250Y-52250
X91250Y-54000
X91250Y-57000
X92250Y-44500
X92250Y-47500
X92250Y-49250
X92250Y-52250
X92250Y-54000
X92250Y-57000
X93250Y-44500
X93250Y-47500
X93250Y-49250
X93250Y-52250
X93250Y-54000
X93250Y-57000
X94250Y-44500
X94250Y-47500
X94250Y-49250
X94250Y-52250
X94250Y-54000
X94250Y-57000
X95250Y-44500
X95250Y-47500
X95250Y-49250
X95250Y-52250
X95250Y-54000
X95250Y-57000
X96250Y-44500
X96250Y-47500
X97250Y-44500
X97250Y-47500
X97250Y-49250
X97250Y-52250
X97250Y-54000
X97250Y-57000
X98250Y-44500
X98250Y-47500
X98500Y-49250
X98500Y-52250
X98500Y-54000
X98500Y-57000
T3
X61300Y-59690
X62300Y-59690
X63300Y-59690
X64300Y-59690
X65300Y-59690
X66300Y-59690
X67300Y-59690
X67750Y-41750
X68300Y-59690
X68750Y-41750
X69300Y-59690
X69750Y-41750
X70300Y-59690
X70750Y-41750
X71300Y-59690
X71750Y-41750
X72300Y-59690
X72750Y-41750
X73300Y-59690
X73750Y-41750
X74300Y-59690
X74750Y-41750
X75300Y-59690
X75750Y-41750
X76300Y-59690
X76750Y-41750
X77300Y-58690
X77300Y-59690
X78300Y-58690
X78300Y-59690
X79300Y-58690
X79300Y-59690
X80300Y-58690
X80300Y-59690
X81300Y-58690
X81300Y-59690
X82300Y-58690
X82300Y-59690
X83300Y-58690
X83300Y-59690
X84250Y-42000
X84250Y-43000
X84300Y-58690
X84300Y-59690
X85250Y-42000
X85250Y-43000
X85300Y-58690
X85300Y-59690
X86250Y-42000
X86250Y-43000
X86300Y-58690
X86300Y-59690
X87300Y-58690
X87300Y-59690
X88300Y-58690
X88300Y-59690
X89300Y-58690
X89300Y-59690
X89750Y-41750
X89750Y-42750
X90300Y-58690
X90300Y-59690
X90750Y-41750
X90750Y-42750
X91300Y-58690
X91300Y-59690
X91750Y-41750
X91750Y-42750
X92300Y-58690
X92300Y-59690
X92750Y-41750
X92750Y-42750
X93300Y-58690
X93300Y-59690
X93750Y-41750
X93750Y-42750
X94300Y-58690
X94300Y-59690
X94750Y-41750
X94750Y-42750
X95300Y-58690
X95300Y-59690
X95750Y-41750
X95750Y-42750
X96300Y-58690
X96300Y-59690
X96750Y-41750
X96750Y-42750
X97300Y-58690
X97300Y-59690
X98300Y-58690
X98300Y-59690
X99300Y-58690
X99300Y-59690
X100300Y-58690
X100300Y-59690
X101300Y-58690
T0
M30
