M48
INCH,TZ
T1C0.0157
T2C0.0315
T3C0.0354
T4C0.0394
%
G90
G05
T1
X60900Y-55600
X60900Y-58900
X60950Y-50550
X62300Y-49850
X62300Y-52500
X62300Y-55550
X62300Y-58750
X62450Y-42050
X63400Y-55550
X63800Y-59050
X64050Y-53650
X64350Y-56900
X66400Y-44250
X67000Y-60750
X67600Y-49650
X67668Y-49118
X68500Y-42750
X68500Y-43750
X68500Y-44750
X68600Y-41100
X69300Y-46250
X70024Y-48326
X70374Y-48724
X70500Y-59250
X71550Y-57700
X72500Y-58750
X73150Y-41100
X76000Y-55400
X77000Y-60750
X77250Y-41100
X77700Y-62400
X79000Y-58000
X81200Y-41100
X81300Y-48300
X81450Y-58300
X81500Y-54000
X81700Y-59100
X81800Y-52650
X83000Y-51700
X83950Y-41050
X84850Y-45850
X85150Y-58000
X85500Y-62450
X85850Y-57750
X86100Y-45750
X86250Y-48200
X87100Y-41100
X87250Y-56150
X88000Y-57900
X88025Y-56725
X88050Y-58700
X88500Y-50700
X89750Y-41050
X89850Y-45150
X92550Y-48650
X93150Y-59000
X96500Y-45450
X97500Y-41100
X98900Y-42000
X99000Y-44100
X99100Y-50000
X99150Y-52950
X99150Y-56250
X99200Y-58850
T2
X61500Y-41750
X61500Y-42750
X61500Y-43750
X61500Y-44750
X61500Y-45750
X61500Y-46750
X61500Y-47750
X62000Y-60250
X62000Y-61500
X62000Y-62750
X64500Y-41750
X64500Y-42750
X64500Y-43750
X64500Y-44750
X64500Y-45750
X64500Y-46750
X64500Y-47750
X65000Y-60250
X65000Y-61500
X65000Y-62750
X65750Y-41750
X65750Y-42734
X65750Y-47266
X65750Y-48250
X67000Y-41750
X67000Y-42750
X67000Y-43750
X67000Y-44750
X67000Y-45750
X67000Y-46750
X67000Y-47750
X70000Y-41750
X70000Y-42750
X70000Y-43750
X70000Y-44750
X70000Y-45750
X70000Y-46750
X70000Y-47750
X72000Y-42750
X72000Y-44000
X72000Y-47000
X72984Y-42750
X73000Y-44000
X73000Y-47000
X74000Y-42750
X74000Y-44000
X74000Y-47000
X75000Y-44000
X75000Y-47000
X76000Y-44000
X76000Y-47000
X77000Y-42750
X77000Y-44000
X77000Y-47000
X78000Y-42750
X78000Y-44000
X78000Y-47000
X79000Y-44000
X79000Y-47000
X80000Y-44000
X80000Y-47000
X81000Y-42750
X81000Y-44000
X81000Y-47000
X83000Y-44000
X83000Y-47000
X84250Y-44000
X84250Y-47000
X85500Y-44000
X85500Y-47000
X85500Y-50000
X85500Y-53000
X86750Y-44000
X86750Y-47000
X88000Y-44000
X88000Y-47000
X89250Y-44000
X89250Y-47000
X90750Y-41750
X90750Y-42734
X90750Y-46250
X90750Y-47234
X90750Y-50750
X90750Y-51734
X92000Y-41750
X92000Y-44750
X92000Y-46213
X92000Y-49213
X92000Y-50750
X92000Y-53750
X93000Y-41750
X93000Y-44750
X93000Y-46213
X93000Y-49213
X93000Y-50750
X93000Y-53750
X94000Y-41750
X94000Y-44750
X94000Y-46213
X94000Y-49213
X94000Y-50750
X94000Y-53750
X95000Y-41750
X95000Y-44750
X95000Y-46213
X95000Y-49213
X95000Y-50750
X95000Y-53750
X95000Y-55250
X96000Y-41750
X96000Y-44750
X96000Y-46213
X96000Y-49213
X96000Y-50750
X96000Y-53750
X97000Y-41750
X97000Y-44750
X97000Y-46213
X97000Y-49213
X97000Y-50750
X97000Y-53750
X98000Y-41750
X98000Y-44750
X98000Y-46213
X98000Y-49213
X98000Y-50750
X98000Y-53750
X98000Y-55250
T3
X82250Y-42500
X83250Y-42500
X85000Y-42500
X86000Y-42500
X87750Y-42500
X88750Y-42500
T4
X65000Y-50750
X65000Y-56750
X66000Y-50750
X66000Y-56750
X67000Y-50750
X67000Y-56750
X68000Y-50750
X68000Y-56750
X68000Y-63750
X68000Y-64750
X69000Y-50750
X69000Y-56750
X69000Y-63750
X69000Y-64750
X70000Y-50750
X70000Y-56750
X70000Y-63750
X70000Y-64750
X71000Y-50750
X71000Y-56750
X71000Y-63750
X71000Y-64750
X72000Y-50750
X72000Y-56750
X72000Y-63750
X72000Y-64750
X73000Y-50750
X73000Y-56750
X73000Y-63750
X73000Y-64750
X74000Y-50750
X74000Y-56750
X74000Y-63750
X74000Y-64750
X75000Y-50750
X75000Y-56750
X75000Y-63750
X75000Y-64750
X76000Y-50750
X76000Y-56750
X76000Y-63750
X76000Y-64750
X77000Y-50750
X77000Y-56750
X77000Y-63750
X77000Y-64750
X78000Y-50750
X78000Y-56750
X78000Y-63750
X78000Y-64750
X79000Y-50750
X79000Y-56750
X79000Y-63750
X79000Y-64750
X80000Y-50750
X80000Y-56750
X80000Y-63750
X80000Y-64750
X81000Y-63750
X81000Y-64750
X82000Y-63750
X82000Y-64750
X83000Y-63750
X83000Y-64750
X84000Y-63750
X84000Y-64750
X85000Y-63750
X85000Y-64750
X85500Y-54500
X85500Y-55500
X86000Y-63750
X86000Y-64750
X87000Y-63750
X87000Y-64750
X88000Y-63750
X88000Y-64750
X89000Y-63750
X89000Y-64750
X90000Y-63750
X90000Y-64750
X91000Y-63750
X91000Y-64750
X92000Y-63750
X92000Y-64750
T0
M30
