G04 #@! TF.GenerationSoftware,KiCad,Pcbnew,(5.1.7)-1*
G04 #@! TF.CreationDate,2022-08-31T14:47:41+01:00*
G04 #@! TF.ProjectId,CPCROM,43504352-4f4d-42e6-9b69-6361645f7063,rev?*
G04 #@! TF.SameCoordinates,Original*
G04 #@! TF.FileFunction,Soldermask,Top*
G04 #@! TF.FilePolarity,Negative*
%FSLAX46Y46*%
G04 Gerber Fmt 4.6, Leading zero omitted, Abs format (unit mm)*
G04 Created by KiCad (PCBNEW (5.1.7)-1) date 2022-08-31 14:47:41*
%MOMM*%
%LPD*%
G01*
G04 APERTURE LIST*
%ADD10O,1.600000X1.600000*%
%ADD11R,1.600000X1.600000*%
%ADD12C,1.600000*%
%ADD13O,1.440000X2.000000*%
%ADD14R,1.440000X2.000000*%
%ADD15O,1.700000X1.700000*%
%ADD16R,1.700000X1.700000*%
%ADD17C,3.200000*%
G04 APERTURE END LIST*
D10*
X190500000Y-106045000D03*
X182880000Y-121285000D03*
X190500000Y-108585000D03*
X182880000Y-118745000D03*
X190500000Y-111125000D03*
X182880000Y-116205000D03*
X190500000Y-113665000D03*
X182880000Y-113665000D03*
X190500000Y-116205000D03*
X182880000Y-111125000D03*
X190500000Y-118745000D03*
X182880000Y-108585000D03*
X190500000Y-121285000D03*
D11*
X182880000Y-106045000D03*
D12*
X165100000Y-120015000D03*
X165100000Y-122515000D03*
D13*
X203200000Y-128905000D03*
X203200000Y-144145000D03*
X200660000Y-128905000D03*
X200660000Y-144145000D03*
X198120000Y-128905000D03*
X198120000Y-144145000D03*
X195580000Y-128905000D03*
X195580000Y-144145000D03*
X193040000Y-128905000D03*
X193040000Y-144145000D03*
X190500000Y-128905000D03*
X190500000Y-144145000D03*
X187960000Y-128905000D03*
X187960000Y-144145000D03*
X185420000Y-128905000D03*
X185420000Y-144145000D03*
X182880000Y-128905000D03*
X182880000Y-144145000D03*
X180340000Y-128905000D03*
X180340000Y-144145000D03*
X177800000Y-128905000D03*
X177800000Y-144145000D03*
X175260000Y-128905000D03*
X175260000Y-144145000D03*
X172720000Y-128905000D03*
X172720000Y-144145000D03*
X170180000Y-128905000D03*
X170180000Y-144145000D03*
X167640000Y-128905000D03*
X167640000Y-144145000D03*
X165100000Y-128905000D03*
D14*
X165100000Y-144145000D03*
D15*
X241300000Y-144780000D03*
D16*
X243840000Y-144780000D03*
D15*
X241300000Y-147320000D03*
D16*
X238760000Y-147320000D03*
D10*
X176530000Y-106045000D03*
X168910000Y-121285000D03*
X176530000Y-108585000D03*
X168910000Y-118745000D03*
X176530000Y-111125000D03*
X168910000Y-116205000D03*
X176530000Y-113665000D03*
X168910000Y-113665000D03*
X176530000Y-116205000D03*
X168910000Y-111125000D03*
X176530000Y-118745000D03*
X168910000Y-108585000D03*
X176530000Y-121285000D03*
D11*
X168910000Y-106045000D03*
D10*
X224790000Y-128905000D03*
D12*
X224790000Y-136525000D03*
D10*
X221615000Y-128905000D03*
D12*
X221615000Y-136525000D03*
D10*
X218440000Y-128905000D03*
D12*
X218440000Y-136525000D03*
D10*
X215265000Y-128905000D03*
D12*
X215265000Y-136525000D03*
D10*
X212090000Y-128905000D03*
D12*
X212090000Y-136525000D03*
D10*
X248920000Y-140335000D03*
D12*
X241300000Y-140335000D03*
D15*
X224790000Y-111125000D03*
D16*
X222250000Y-111125000D03*
D15*
X224790000Y-108585000D03*
D16*
X222250000Y-108585000D03*
D15*
X224790000Y-106045000D03*
D16*
X222250000Y-106045000D03*
D15*
X254762000Y-151612600D03*
X252222000Y-151612600D03*
X249682000Y-151612600D03*
X247142000Y-151612600D03*
X244602000Y-151612600D03*
X242062000Y-151612600D03*
X239522000Y-151612600D03*
X236982000Y-151612600D03*
X234442000Y-151612600D03*
X231902000Y-151612600D03*
X229362000Y-151612600D03*
X226822000Y-151612600D03*
X224282000Y-151612600D03*
X221742000Y-151612600D03*
X219202000Y-151612600D03*
X216662000Y-151612600D03*
X214122000Y-151612600D03*
X211582000Y-151612600D03*
X209042000Y-151612600D03*
X206502000Y-151612600D03*
X203962000Y-151612600D03*
X201422000Y-151612600D03*
X198882000Y-151612600D03*
X196342000Y-151612600D03*
X193802000Y-151612600D03*
X191262000Y-151612600D03*
X188722000Y-151612600D03*
X186182000Y-151612600D03*
X183642000Y-151612600D03*
X181102000Y-151612600D03*
X178562000Y-151612600D03*
X176022000Y-151612600D03*
X173482000Y-151612600D03*
X170942000Y-151612600D03*
X168402000Y-151612600D03*
X165862000Y-151612600D03*
X163322000Y-151612600D03*
X160782000Y-151612600D03*
X158242000Y-151612600D03*
D16*
X155702000Y-151612600D03*
D10*
X233680000Y-117475000D03*
X248920000Y-125095000D03*
X236220000Y-117475000D03*
X246380000Y-125095000D03*
X238760000Y-117475000D03*
X243840000Y-125095000D03*
X241300000Y-117475000D03*
X241300000Y-125095000D03*
X243840000Y-117475000D03*
X238760000Y-125095000D03*
X246380000Y-117475000D03*
X236220000Y-125095000D03*
X248920000Y-117475000D03*
D11*
X233680000Y-125095000D03*
D10*
X233680000Y-106045000D03*
X248920000Y-113665000D03*
X236220000Y-106045000D03*
X246380000Y-113665000D03*
X238760000Y-106045000D03*
X243840000Y-113665000D03*
X241300000Y-106045000D03*
X241300000Y-113665000D03*
X243840000Y-106045000D03*
X238760000Y-113665000D03*
X246380000Y-106045000D03*
X236220000Y-113665000D03*
X248920000Y-106045000D03*
D11*
X233680000Y-113665000D03*
D10*
X233680000Y-128905000D03*
X248920000Y-136525000D03*
X236220000Y-128905000D03*
X246380000Y-136525000D03*
X238760000Y-128905000D03*
X243840000Y-136525000D03*
X241300000Y-128905000D03*
X241300000Y-136525000D03*
X243840000Y-128905000D03*
X238760000Y-136525000D03*
X246380000Y-128905000D03*
X236220000Y-136525000D03*
X248920000Y-128905000D03*
D11*
X233680000Y-136525000D03*
D10*
X194310000Y-111760000D03*
X217170000Y-119380000D03*
X196850000Y-111760000D03*
X214630000Y-119380000D03*
X199390000Y-111760000D03*
X212090000Y-119380000D03*
X201930000Y-111760000D03*
X209550000Y-119380000D03*
X204470000Y-111760000D03*
X207010000Y-119380000D03*
X207010000Y-111760000D03*
X204470000Y-119380000D03*
X209550000Y-111760000D03*
X201930000Y-119380000D03*
X212090000Y-111760000D03*
X199390000Y-119380000D03*
X214630000Y-111760000D03*
X196850000Y-119380000D03*
X217170000Y-111760000D03*
D11*
X194310000Y-119380000D03*
D12*
X196810000Y-106045000D03*
X194310000Y-106045000D03*
X196810000Y-108585000D03*
X194310000Y-108585000D03*
X229870000Y-111085000D03*
X229870000Y-108585000D03*
X229870000Y-122515000D03*
X229870000Y-120015000D03*
X179705000Y-108545000D03*
X179705000Y-106045000D03*
X229870000Y-133945000D03*
X229870000Y-131445000D03*
D17*
X158927800Y-120243600D03*
M02*
