G04 #@! TF.GenerationSoftware,KiCad,Pcbnew,(5.1.12)-1*
G04 #@! TF.CreationDate,2024-06-29T17:03:21+01:00*
G04 #@! TF.ProjectId,CPCROM,43504352-4f4d-42e6-9b69-6361645f7063,rev?*
G04 #@! TF.SameCoordinates,Original*
G04 #@! TF.FileFunction,Legend,Bot*
G04 #@! TF.FilePolarity,Positive*
%FSLAX46Y46*%
G04 Gerber Fmt 4.6, Leading zero omitted, Abs format (unit mm)*
G04 Created by KiCad (PCBNEW (5.1.12)-1) date 2024-06-29 17:03:21*
%MOMM*%
%LPD*%
G01*
G04 APERTURE LIST*
%ADD10C,0.150000*%
%ADD11C,0.120000*%
G04 APERTURE END LIST*
D10*
X204134404Y-133492380D02*
X204134404Y-132492380D01*
X204134404Y-132968571D02*
X203562976Y-132968571D01*
X203562976Y-133492380D02*
X203562976Y-132492380D01*
X202896309Y-132492380D02*
X202705833Y-132492380D01*
X202610595Y-132540000D01*
X202515357Y-132635238D01*
X202467738Y-132825714D01*
X202467738Y-133159047D01*
X202515357Y-133349523D01*
X202610595Y-133444761D01*
X202705833Y-133492380D01*
X202896309Y-133492380D01*
X202991547Y-133444761D01*
X203086785Y-133349523D01*
X203134404Y-133159047D01*
X203134404Y-132825714D01*
X203086785Y-132635238D01*
X202991547Y-132540000D01*
X202896309Y-132492380D01*
X202134404Y-132492380D02*
X201896309Y-133492380D01*
X201705833Y-132778095D01*
X201515357Y-133492380D01*
X201277261Y-132492380D01*
X200277261Y-132492380D02*
X199705833Y-132492380D01*
X199991547Y-133492380D02*
X199991547Y-132492380D01*
X199182023Y-132492380D02*
X198991547Y-132492380D01*
X198896309Y-132540000D01*
X198801071Y-132635238D01*
X198753452Y-132825714D01*
X198753452Y-133159047D01*
X198801071Y-133349523D01*
X198896309Y-133444761D01*
X198991547Y-133492380D01*
X199182023Y-133492380D01*
X199277261Y-133444761D01*
X199372500Y-133349523D01*
X199420119Y-133159047D01*
X199420119Y-132825714D01*
X199372500Y-132635238D01*
X199277261Y-132540000D01*
X199182023Y-132492380D01*
X197229642Y-132968571D02*
X197562976Y-132968571D01*
X197562976Y-133492380D02*
X197562976Y-132492380D01*
X197086785Y-132492380D01*
X196229642Y-133492380D02*
X196705833Y-133492380D01*
X196705833Y-132492380D01*
X195943928Y-133206666D02*
X195467738Y-133206666D01*
X196039166Y-133492380D02*
X195705833Y-132492380D01*
X195372500Y-133492380D01*
X195086785Y-133444761D02*
X194943928Y-133492380D01*
X194705833Y-133492380D01*
X194610595Y-133444761D01*
X194562976Y-133397142D01*
X194515357Y-133301904D01*
X194515357Y-133206666D01*
X194562976Y-133111428D01*
X194610595Y-133063809D01*
X194705833Y-133016190D01*
X194896309Y-132968571D01*
X194991547Y-132920952D01*
X195039166Y-132873333D01*
X195086785Y-132778095D01*
X195086785Y-132682857D01*
X195039166Y-132587619D01*
X194991547Y-132540000D01*
X194896309Y-132492380D01*
X194658214Y-132492380D01*
X194515357Y-132540000D01*
X194086785Y-133492380D02*
X194086785Y-132492380D01*
X194086785Y-132968571D02*
X193515357Y-132968571D01*
X193515357Y-133492380D02*
X193515357Y-132492380D01*
X192420119Y-132492380D02*
X191848690Y-132492380D01*
X192134404Y-133492380D02*
X192134404Y-132492380D01*
X191515357Y-133492380D02*
X191515357Y-132492380D01*
X191515357Y-132968571D02*
X190943928Y-132968571D01*
X190943928Y-133492380D02*
X190943928Y-132492380D01*
X190467738Y-132968571D02*
X190134404Y-132968571D01*
X189991547Y-133492380D02*
X190467738Y-133492380D01*
X190467738Y-132492380D01*
X189991547Y-132492380D01*
X188801071Y-132968571D02*
X188467738Y-132968571D01*
X188324880Y-133492380D02*
X188801071Y-133492380D01*
X188801071Y-132492380D01*
X188324880Y-132492380D01*
X187896309Y-132968571D02*
X187562976Y-132968571D01*
X187420119Y-133492380D02*
X187896309Y-133492380D01*
X187896309Y-132492380D01*
X187420119Y-132492380D01*
X186991547Y-133492380D02*
X186991547Y-132492380D01*
X186610595Y-132492380D01*
X186515357Y-132540000D01*
X186467738Y-132587619D01*
X186420119Y-132682857D01*
X186420119Y-132825714D01*
X186467738Y-132920952D01*
X186515357Y-132968571D01*
X186610595Y-133016190D01*
X186991547Y-133016190D01*
X185420119Y-133492380D02*
X185753452Y-133016190D01*
X185991547Y-133492380D02*
X185991547Y-132492380D01*
X185610595Y-132492380D01*
X185515357Y-132540000D01*
X185467738Y-132587619D01*
X185420119Y-132682857D01*
X185420119Y-132825714D01*
X185467738Y-132920952D01*
X185515357Y-132968571D01*
X185610595Y-133016190D01*
X185991547Y-133016190D01*
X184801071Y-132492380D02*
X184610595Y-132492380D01*
X184515357Y-132540000D01*
X184420119Y-132635238D01*
X184372500Y-132825714D01*
X184372500Y-133159047D01*
X184420119Y-133349523D01*
X184515357Y-133444761D01*
X184610595Y-133492380D01*
X184801071Y-133492380D01*
X184896309Y-133444761D01*
X184991547Y-133349523D01*
X185039166Y-133159047D01*
X185039166Y-132825714D01*
X184991547Y-132635238D01*
X184896309Y-132540000D01*
X184801071Y-132492380D01*
X183943928Y-133492380D02*
X183943928Y-132492380D01*
X183610595Y-133206666D01*
X183277261Y-132492380D01*
X183277261Y-133492380D01*
X203991547Y-136792380D02*
X204086785Y-136744761D01*
X204134404Y-136697142D01*
X204182023Y-136601904D01*
X204182023Y-136316190D01*
X204134404Y-136220952D01*
X204086785Y-136173333D01*
X203991547Y-136125714D01*
X203848690Y-136125714D01*
X203753452Y-136173333D01*
X203705833Y-136220952D01*
X203658214Y-136316190D01*
X203658214Y-136601904D01*
X203705833Y-136697142D01*
X203753452Y-136744761D01*
X203848690Y-136792380D01*
X203991547Y-136792380D01*
X202801071Y-136125714D02*
X202801071Y-136792380D01*
X203229642Y-136125714D02*
X203229642Y-136649523D01*
X203182023Y-136744761D01*
X203086785Y-136792380D01*
X202943928Y-136792380D01*
X202848690Y-136744761D01*
X202801071Y-136697142D01*
X202467738Y-136125714D02*
X202086785Y-136125714D01*
X202324880Y-135792380D02*
X202324880Y-136649523D01*
X202277261Y-136744761D01*
X202182023Y-136792380D01*
X202086785Y-136792380D01*
X200705833Y-137173333D02*
X200753452Y-137125714D01*
X200848690Y-136982857D01*
X200896309Y-136887619D01*
X200943928Y-136744761D01*
X200991547Y-136506666D01*
X200991547Y-136316190D01*
X200943928Y-136078095D01*
X200896309Y-135935238D01*
X200848690Y-135840000D01*
X200753452Y-135697142D01*
X200705833Y-135649523D01*
X199515357Y-136792380D02*
X199562976Y-136792380D01*
X199658214Y-136744761D01*
X199801071Y-136601904D01*
X200039166Y-136316190D01*
X200134404Y-136173333D01*
X200182023Y-136030476D01*
X200182023Y-135935238D01*
X200134404Y-135840000D01*
X200039166Y-135792380D01*
X199991547Y-135792380D01*
X199896309Y-135840000D01*
X199848690Y-135935238D01*
X199848690Y-135982857D01*
X199896309Y-136078095D01*
X199943928Y-136125714D01*
X200229642Y-136316190D01*
X200277261Y-136363809D01*
X200324880Y-136459047D01*
X200324880Y-136601904D01*
X200277261Y-136697142D01*
X200229642Y-136744761D01*
X200134404Y-136792380D01*
X199991547Y-136792380D01*
X199896309Y-136744761D01*
X199848690Y-136697142D01*
X199705833Y-136506666D01*
X199658214Y-136363809D01*
X199658214Y-136268571D01*
X198658214Y-136744761D02*
X198753452Y-136792380D01*
X198943928Y-136792380D01*
X199039166Y-136744761D01*
X199086785Y-136697142D01*
X199134404Y-136601904D01*
X199134404Y-136316190D01*
X199086785Y-136220952D01*
X199039166Y-136173333D01*
X198943928Y-136125714D01*
X198753452Y-136125714D01*
X198658214Y-136173333D01*
X198372500Y-136125714D02*
X197991547Y-136125714D01*
X198229642Y-136792380D02*
X198229642Y-135935238D01*
X198182023Y-135840000D01*
X198086785Y-135792380D01*
X197991547Y-135792380D01*
X197801071Y-136125714D02*
X197420119Y-136125714D01*
X197658214Y-136792380D02*
X197658214Y-135935238D01*
X197610595Y-135840000D01*
X197515357Y-135792380D01*
X197420119Y-135792380D01*
X197229642Y-136125714D02*
X196848690Y-136125714D01*
X197086785Y-136792380D02*
X197086785Y-135935238D01*
X197039166Y-135840000D01*
X196943928Y-135792380D01*
X196848690Y-135792380D01*
X196610595Y-137173333D02*
X196562976Y-137125714D01*
X196467738Y-136982857D01*
X196420119Y-136887619D01*
X196372500Y-136744761D01*
X196324880Y-136506666D01*
X196324880Y-136316190D01*
X196372500Y-136078095D01*
X196420119Y-135935238D01*
X196467738Y-135840000D01*
X196562976Y-135697142D01*
X196610595Y-135649523D01*
X195801071Y-136744761D02*
X195801071Y-136792380D01*
X195848690Y-136887619D01*
X195896309Y-136935238D01*
X194801071Y-136792380D02*
X195134404Y-136316190D01*
X195372500Y-136792380D02*
X195372500Y-135792380D01*
X194991547Y-135792380D01*
X194896309Y-135840000D01*
X194848690Y-135887619D01*
X194801071Y-135982857D01*
X194801071Y-136125714D01*
X194848690Y-136220952D01*
X194896309Y-136268571D01*
X194991547Y-136316190D01*
X195372500Y-136316190D01*
X194182023Y-135792380D02*
X193991547Y-135792380D01*
X193896309Y-135840000D01*
X193801071Y-135935238D01*
X193753452Y-136125714D01*
X193753452Y-136459047D01*
X193801071Y-136649523D01*
X193896309Y-136744761D01*
X193991547Y-136792380D01*
X194182023Y-136792380D01*
X194277261Y-136744761D01*
X194372500Y-136649523D01*
X194420119Y-136459047D01*
X194420119Y-136125714D01*
X194372500Y-135935238D01*
X194277261Y-135840000D01*
X194182023Y-135792380D01*
X193324880Y-136792380D02*
X193324880Y-135792380D01*
X192991547Y-136506666D01*
X192658214Y-135792380D01*
X192658214Y-136792380D01*
X192420119Y-136887619D02*
X191658214Y-136887619D01*
X191420119Y-136125714D02*
X191420119Y-136792380D01*
X191420119Y-136220952D02*
X191372500Y-136173333D01*
X191277261Y-136125714D01*
X191134404Y-136125714D01*
X191039166Y-136173333D01*
X190991547Y-136268571D01*
X190991547Y-136792380D01*
X190086785Y-136125714D02*
X190086785Y-136792380D01*
X190515357Y-136125714D02*
X190515357Y-136649523D01*
X190467738Y-136744761D01*
X190372500Y-136792380D01*
X190229642Y-136792380D01*
X190134404Y-136744761D01*
X190086785Y-136697142D01*
X189610595Y-136792380D02*
X189610595Y-136125714D01*
X189610595Y-136220952D02*
X189562976Y-136173333D01*
X189467738Y-136125714D01*
X189324880Y-136125714D01*
X189229642Y-136173333D01*
X189182023Y-136268571D01*
X189182023Y-136792380D01*
X189182023Y-136268571D02*
X189134404Y-136173333D01*
X189039166Y-136125714D01*
X188896309Y-136125714D01*
X188801071Y-136173333D01*
X188753452Y-136268571D01*
X188753452Y-136792380D01*
X188277261Y-136792380D02*
X188277261Y-135792380D01*
X188277261Y-136173333D02*
X188182023Y-136125714D01*
X187991547Y-136125714D01*
X187896309Y-136173333D01*
X187848690Y-136220952D01*
X187801071Y-136316190D01*
X187801071Y-136601904D01*
X187848690Y-136697142D01*
X187896309Y-136744761D01*
X187991547Y-136792380D01*
X188182023Y-136792380D01*
X188277261Y-136744761D01*
X186991547Y-136744761D02*
X187086785Y-136792380D01*
X187277261Y-136792380D01*
X187372500Y-136744761D01*
X187420119Y-136649523D01*
X187420119Y-136268571D01*
X187372500Y-136173333D01*
X187277261Y-136125714D01*
X187086785Y-136125714D01*
X186991547Y-136173333D01*
X186943928Y-136268571D01*
X186943928Y-136363809D01*
X187420119Y-136459047D01*
X186515357Y-136792380D02*
X186515357Y-136125714D01*
X186515357Y-136316190D02*
X186467738Y-136220952D01*
X186420119Y-136173333D01*
X186324880Y-136125714D01*
X186229642Y-136125714D01*
X184943928Y-135792380D02*
X184753452Y-135792380D01*
X184658214Y-135840000D01*
X184562976Y-135935238D01*
X184515357Y-136125714D01*
X184515357Y-136459047D01*
X184562976Y-136649523D01*
X184658214Y-136744761D01*
X184753452Y-136792380D01*
X184943928Y-136792380D01*
X185039166Y-136744761D01*
X185134404Y-136649523D01*
X185182023Y-136459047D01*
X185182023Y-136125714D01*
X185134404Y-135935238D01*
X185039166Y-135840000D01*
X184943928Y-135792380D01*
X183515357Y-136792380D02*
X183848690Y-136316190D01*
X184086785Y-136792380D02*
X184086785Y-135792380D01*
X183705833Y-135792380D01*
X183610595Y-135840000D01*
X183562976Y-135887619D01*
X183515357Y-135982857D01*
X183515357Y-136125714D01*
X183562976Y-136220952D01*
X183610595Y-136268571D01*
X183705833Y-136316190D01*
X184086785Y-136316190D01*
X182372500Y-136744761D02*
X182229642Y-136792380D01*
X181991547Y-136792380D01*
X181896309Y-136744761D01*
X181848690Y-136697142D01*
X181801071Y-136601904D01*
X181801071Y-136506666D01*
X181848690Y-136411428D01*
X181896309Y-136363809D01*
X181991547Y-136316190D01*
X182182023Y-136268571D01*
X182277261Y-136220952D01*
X182324880Y-136173333D01*
X182372500Y-136078095D01*
X182372500Y-135982857D01*
X182324880Y-135887619D01*
X182277261Y-135840000D01*
X182182023Y-135792380D01*
X181943928Y-135792380D01*
X181801071Y-135840000D01*
X182086785Y-135649523D02*
X182086785Y-136935238D01*
X180991547Y-136744761D02*
X181086785Y-136792380D01*
X181277261Y-136792380D01*
X181372500Y-136744761D01*
X181420119Y-136649523D01*
X181420119Y-136268571D01*
X181372500Y-136173333D01*
X181277261Y-136125714D01*
X181086785Y-136125714D01*
X180991547Y-136173333D01*
X180943928Y-136268571D01*
X180943928Y-136363809D01*
X181420119Y-136459047D01*
X180324880Y-135792380D02*
X180229642Y-135792380D01*
X180134404Y-135840000D01*
X180086785Y-135887619D01*
X180039166Y-135982857D01*
X179991547Y-136173333D01*
X179991547Y-136411428D01*
X180039166Y-136601904D01*
X180086785Y-136697142D01*
X180134404Y-136744761D01*
X180229642Y-136792380D01*
X180324880Y-136792380D01*
X180420119Y-136744761D01*
X180467738Y-136697142D01*
X180515357Y-136601904D01*
X180562976Y-136411428D01*
X180562976Y-136173333D01*
X180515357Y-135982857D01*
X180467738Y-135887619D01*
X180420119Y-135840000D01*
X180324880Y-135792380D01*
X178753452Y-136744761D02*
X178753452Y-136792380D01*
X178801071Y-136887619D01*
X178848690Y-136935238D01*
X178801071Y-136173333D02*
X178753452Y-136220952D01*
X178801071Y-136268571D01*
X178848690Y-136220952D01*
X178801071Y-136173333D01*
X178801071Y-136268571D01*
X178372500Y-136506666D02*
X177896309Y-136506666D01*
X178467738Y-136792380D02*
X178134404Y-135792380D01*
X177801071Y-136792380D01*
X177467738Y-136792380D02*
X177467738Y-136125714D01*
X177467738Y-136316190D02*
X177420119Y-136220952D01*
X177372500Y-136173333D01*
X177277261Y-136125714D01*
X177182023Y-136125714D01*
X176848690Y-136792380D02*
X176848690Y-136125714D01*
X176848690Y-136220952D02*
X176801071Y-136173333D01*
X176705833Y-136125714D01*
X176562976Y-136125714D01*
X176467738Y-136173333D01*
X176420119Y-136268571D01*
X176420119Y-136792380D01*
X176420119Y-136268571D02*
X176372500Y-136173333D01*
X176277261Y-136125714D01*
X176134404Y-136125714D01*
X176039166Y-136173333D01*
X175991547Y-136268571D01*
X175991547Y-136792380D01*
X203372500Y-137775714D02*
X204134404Y-138061428D01*
X203372500Y-138347142D01*
X202896309Y-138442380D02*
X202896309Y-137775714D01*
X202896309Y-137966190D02*
X202848690Y-137870952D01*
X202801071Y-137823333D01*
X202705833Y-137775714D01*
X202610595Y-137775714D01*
X201896309Y-138394761D02*
X201991547Y-138442380D01*
X202182023Y-138442380D01*
X202277261Y-138394761D01*
X202324880Y-138299523D01*
X202324880Y-137918571D01*
X202277261Y-137823333D01*
X202182023Y-137775714D01*
X201991547Y-137775714D01*
X201896309Y-137823333D01*
X201848690Y-137918571D01*
X201848690Y-138013809D01*
X202324880Y-138109047D01*
X201420119Y-137775714D02*
X201420119Y-138775714D01*
X201420119Y-137823333D02*
X201324880Y-137775714D01*
X201134404Y-137775714D01*
X201039166Y-137823333D01*
X200991547Y-137870952D01*
X200943928Y-137966190D01*
X200943928Y-138251904D01*
X200991547Y-138347142D01*
X201039166Y-138394761D01*
X201134404Y-138442380D01*
X201324880Y-138442380D01*
X201420119Y-138394761D01*
X200134404Y-138394761D02*
X200229642Y-138442380D01*
X200420119Y-138442380D01*
X200515357Y-138394761D01*
X200562976Y-138299523D01*
X200562976Y-137918571D01*
X200515357Y-137823333D01*
X200420119Y-137775714D01*
X200229642Y-137775714D01*
X200134404Y-137823333D01*
X200086785Y-137918571D01*
X200086785Y-138013809D01*
X200562976Y-138109047D01*
X199229642Y-138442380D02*
X199229642Y-137918571D01*
X199277261Y-137823333D01*
X199372500Y-137775714D01*
X199562976Y-137775714D01*
X199658214Y-137823333D01*
X199229642Y-138394761D02*
X199324880Y-138442380D01*
X199562976Y-138442380D01*
X199658214Y-138394761D01*
X199705833Y-138299523D01*
X199705833Y-138204285D01*
X199658214Y-138109047D01*
X199562976Y-138061428D01*
X199324880Y-138061428D01*
X199229642Y-138013809D01*
X198896309Y-137775714D02*
X198515357Y-137775714D01*
X198753452Y-137442380D02*
X198753452Y-138299523D01*
X198705833Y-138394761D01*
X198610595Y-138442380D01*
X198515357Y-138442380D01*
X196991547Y-138442380D02*
X196991547Y-137918571D01*
X197039166Y-137823333D01*
X197134404Y-137775714D01*
X197324880Y-137775714D01*
X197420119Y-137823333D01*
X196991547Y-138394761D02*
X197086785Y-138442380D01*
X197324880Y-138442380D01*
X197420119Y-138394761D01*
X197467738Y-138299523D01*
X197467738Y-138204285D01*
X197420119Y-138109047D01*
X197324880Y-138061428D01*
X197086785Y-138061428D01*
X196991547Y-138013809D01*
X196515357Y-138442380D02*
X196515357Y-137442380D01*
X196515357Y-137823333D02*
X196420119Y-137775714D01*
X196229642Y-137775714D01*
X196134404Y-137823333D01*
X196086785Y-137870952D01*
X196039166Y-137966190D01*
X196039166Y-138251904D01*
X196086785Y-138347142D01*
X196134404Y-138394761D01*
X196229642Y-138442380D01*
X196420119Y-138442380D01*
X196515357Y-138394761D01*
X195467738Y-138442380D02*
X195562976Y-138394761D01*
X195610595Y-138347142D01*
X195658214Y-138251904D01*
X195658214Y-137966190D01*
X195610595Y-137870952D01*
X195562976Y-137823333D01*
X195467738Y-137775714D01*
X195324880Y-137775714D01*
X195229642Y-137823333D01*
X195182023Y-137870952D01*
X195134404Y-137966190D01*
X195134404Y-138251904D01*
X195182023Y-138347142D01*
X195229642Y-138394761D01*
X195324880Y-138442380D01*
X195467738Y-138442380D01*
X194801071Y-137775714D02*
X194562976Y-138442380D01*
X194324880Y-137775714D01*
X193562976Y-138394761D02*
X193658214Y-138442380D01*
X193848690Y-138442380D01*
X193943928Y-138394761D01*
X193991547Y-138299523D01*
X193991547Y-137918571D01*
X193943928Y-137823333D01*
X193848690Y-137775714D01*
X193658214Y-137775714D01*
X193562976Y-137823333D01*
X193515357Y-137918571D01*
X193515357Y-138013809D01*
X193991547Y-138109047D01*
X192324880Y-138442380D02*
X192324880Y-137775714D01*
X192324880Y-137442380D02*
X192372500Y-137490000D01*
X192324880Y-137537619D01*
X192277261Y-137490000D01*
X192324880Y-137442380D01*
X192324880Y-137537619D01*
X191848690Y-137775714D02*
X191848690Y-138442380D01*
X191848690Y-137870952D02*
X191801071Y-137823333D01*
X191705833Y-137775714D01*
X191562976Y-137775714D01*
X191467738Y-137823333D01*
X191420119Y-137918571D01*
X191420119Y-138442380D01*
X190991547Y-138394761D02*
X190896309Y-138442380D01*
X190705833Y-138442380D01*
X190610595Y-138394761D01*
X190562976Y-138299523D01*
X190562976Y-138251904D01*
X190610595Y-138156666D01*
X190705833Y-138109047D01*
X190848690Y-138109047D01*
X190943928Y-138061428D01*
X190991547Y-137966190D01*
X190991547Y-137918571D01*
X190943928Y-137823333D01*
X190848690Y-137775714D01*
X190705833Y-137775714D01*
X190610595Y-137823333D01*
X190277261Y-137775714D02*
X189896309Y-137775714D01*
X190134404Y-137442380D02*
X190134404Y-138299523D01*
X190086785Y-138394761D01*
X189991547Y-138442380D01*
X189896309Y-138442380D01*
X189562976Y-138442380D02*
X189562976Y-137775714D01*
X189562976Y-137966190D02*
X189515357Y-137870952D01*
X189467738Y-137823333D01*
X189372500Y-137775714D01*
X189277261Y-137775714D01*
X188515357Y-137775714D02*
X188515357Y-138442380D01*
X188943928Y-137775714D02*
X188943928Y-138299523D01*
X188896309Y-138394761D01*
X188801071Y-138442380D01*
X188658214Y-138442380D01*
X188562976Y-138394761D01*
X188515357Y-138347142D01*
X187610595Y-138394761D02*
X187705833Y-138442380D01*
X187896309Y-138442380D01*
X187991547Y-138394761D01*
X188039166Y-138347142D01*
X188086785Y-138251904D01*
X188086785Y-137966190D01*
X188039166Y-137870952D01*
X187991547Y-137823333D01*
X187896309Y-137775714D01*
X187705833Y-137775714D01*
X187610595Y-137823333D01*
X187324880Y-137775714D02*
X186943928Y-137775714D01*
X187182023Y-137442380D02*
X187182023Y-138299523D01*
X187134404Y-138394761D01*
X187039166Y-138442380D01*
X186943928Y-138442380D01*
X186610595Y-138442380D02*
X186610595Y-137775714D01*
X186610595Y-137442380D02*
X186658214Y-137490000D01*
X186610595Y-137537619D01*
X186562976Y-137490000D01*
X186610595Y-137442380D01*
X186610595Y-137537619D01*
X185991547Y-138442380D02*
X186086785Y-138394761D01*
X186134404Y-138347142D01*
X186182023Y-138251904D01*
X186182023Y-137966190D01*
X186134404Y-137870952D01*
X186086785Y-137823333D01*
X185991547Y-137775714D01*
X185848690Y-137775714D01*
X185753452Y-137823333D01*
X185705833Y-137870952D01*
X185658214Y-137966190D01*
X185658214Y-138251904D01*
X185705833Y-138347142D01*
X185753452Y-138394761D01*
X185848690Y-138442380D01*
X185991547Y-138442380D01*
X185229642Y-137775714D02*
X185229642Y-138442380D01*
X185229642Y-137870952D02*
X185182023Y-137823333D01*
X185086785Y-137775714D01*
X184943928Y-137775714D01*
X184848690Y-137823333D01*
X184801071Y-137918571D01*
X184801071Y-138442380D01*
X184324880Y-137775714D02*
X183562976Y-138061428D01*
X184324880Y-138347142D01*
X182277261Y-138394761D02*
X182277261Y-138442380D01*
X182324880Y-138537619D01*
X182372500Y-138585238D01*
X182324880Y-137823333D02*
X182277261Y-137870952D01*
X182324880Y-137918571D01*
X182372500Y-137870952D01*
X182324880Y-137823333D01*
X182324880Y-137918571D01*
X181943928Y-137442380D02*
X181705833Y-138442380D01*
X181515357Y-137728095D01*
X181324880Y-138442380D01*
X181086785Y-137442380D01*
X180705833Y-138442380D02*
X180705833Y-137775714D01*
X180705833Y-137966190D02*
X180658214Y-137870952D01*
X180610595Y-137823333D01*
X180515357Y-137775714D01*
X180420119Y-137775714D01*
X180086785Y-138442380D02*
X180086785Y-137775714D01*
X180086785Y-137442380D02*
X180134404Y-137490000D01*
X180086785Y-137537619D01*
X180039166Y-137490000D01*
X180086785Y-137442380D01*
X180086785Y-137537619D01*
X179753452Y-137775714D02*
X179372500Y-137775714D01*
X179610595Y-137442380D02*
X179610595Y-138299523D01*
X179562976Y-138394761D01*
X179467738Y-138442380D01*
X179372500Y-138442380D01*
X178658214Y-138394761D02*
X178753452Y-138442380D01*
X178943928Y-138442380D01*
X179039166Y-138394761D01*
X179086785Y-138299523D01*
X179086785Y-137918571D01*
X179039166Y-137823333D01*
X178943928Y-137775714D01*
X178753452Y-137775714D01*
X178658214Y-137823333D01*
X178610595Y-137918571D01*
X178610595Y-138013809D01*
X179086785Y-138109047D01*
X177039166Y-138394761D02*
X177134404Y-138442380D01*
X177324880Y-138442380D01*
X177420119Y-138394761D01*
X177467738Y-138299523D01*
X177467738Y-137918571D01*
X177420119Y-137823333D01*
X177324880Y-137775714D01*
X177134404Y-137775714D01*
X177039166Y-137823333D01*
X176991547Y-137918571D01*
X176991547Y-138013809D01*
X177467738Y-138109047D01*
X176562976Y-137775714D02*
X176562976Y-138442380D01*
X176562976Y-137870952D02*
X176515357Y-137823333D01*
X176420119Y-137775714D01*
X176277261Y-137775714D01*
X176182023Y-137823333D01*
X176134404Y-137918571D01*
X176134404Y-138442380D01*
X175229642Y-138442380D02*
X175229642Y-137918571D01*
X175277261Y-137823333D01*
X175372500Y-137775714D01*
X175562976Y-137775714D01*
X175658214Y-137823333D01*
X175229642Y-138394761D02*
X175324880Y-138442380D01*
X175562976Y-138442380D01*
X175658214Y-138394761D01*
X175705833Y-138299523D01*
X175705833Y-138204285D01*
X175658214Y-138109047D01*
X175562976Y-138061428D01*
X175324880Y-138061428D01*
X175229642Y-138013809D01*
X174753452Y-138442380D02*
X174753452Y-137442380D01*
X174753452Y-137823333D02*
X174658214Y-137775714D01*
X174467738Y-137775714D01*
X174372500Y-137823333D01*
X174324880Y-137870952D01*
X174277261Y-137966190D01*
X174277261Y-138251904D01*
X174324880Y-138347142D01*
X174372500Y-138394761D01*
X174467738Y-138442380D01*
X174658214Y-138442380D01*
X174753452Y-138394761D01*
X173705833Y-138442380D02*
X173801071Y-138394761D01*
X173848690Y-138299523D01*
X173848690Y-137442380D01*
X172943928Y-138394761D02*
X173039166Y-138442380D01*
X173229642Y-138442380D01*
X173324880Y-138394761D01*
X173372500Y-138299523D01*
X173372500Y-137918571D01*
X173324880Y-137823333D01*
X173229642Y-137775714D01*
X173039166Y-137775714D01*
X172943928Y-137823333D01*
X172896309Y-137918571D01*
X172896309Y-138013809D01*
X173372500Y-138109047D01*
X203372500Y-139425714D02*
X204134404Y-139711428D01*
X203372500Y-139997142D01*
X202896309Y-140092380D02*
X202896309Y-139092380D01*
X202515357Y-139092380D01*
X202420119Y-139140000D01*
X202372500Y-139187619D01*
X202324880Y-139282857D01*
X202324880Y-139425714D01*
X202372500Y-139520952D01*
X202420119Y-139568571D01*
X202515357Y-139616190D01*
X202896309Y-139616190D01*
X201896309Y-140092380D02*
X201896309Y-139425714D01*
X201896309Y-139616190D02*
X201848690Y-139520952D01*
X201801071Y-139473333D01*
X201705833Y-139425714D01*
X201610595Y-139425714D01*
X201134404Y-140092380D02*
X201229642Y-140044761D01*
X201277261Y-139997142D01*
X201324880Y-139901904D01*
X201324880Y-139616190D01*
X201277261Y-139520952D01*
X201229642Y-139473333D01*
X201134404Y-139425714D01*
X200991547Y-139425714D01*
X200896309Y-139473333D01*
X200848690Y-139520952D01*
X200801071Y-139616190D01*
X200801071Y-139901904D01*
X200848690Y-139997142D01*
X200896309Y-140044761D01*
X200991547Y-140092380D01*
X201134404Y-140092380D01*
X199943928Y-139425714D02*
X199943928Y-140235238D01*
X199991547Y-140330476D01*
X200039166Y-140378095D01*
X200134404Y-140425714D01*
X200277261Y-140425714D01*
X200372500Y-140378095D01*
X199943928Y-140044761D02*
X200039166Y-140092380D01*
X200229642Y-140092380D01*
X200324880Y-140044761D01*
X200372500Y-139997142D01*
X200420119Y-139901904D01*
X200420119Y-139616190D01*
X200372500Y-139520952D01*
X200324880Y-139473333D01*
X200229642Y-139425714D01*
X200039166Y-139425714D01*
X199943928Y-139473333D01*
X199467738Y-140092380D02*
X199467738Y-139425714D01*
X199467738Y-139616190D02*
X199420119Y-139520952D01*
X199372500Y-139473333D01*
X199277261Y-139425714D01*
X199182023Y-139425714D01*
X198420119Y-140092380D02*
X198420119Y-139568571D01*
X198467738Y-139473333D01*
X198562976Y-139425714D01*
X198753452Y-139425714D01*
X198848690Y-139473333D01*
X198420119Y-140044761D02*
X198515357Y-140092380D01*
X198753452Y-140092380D01*
X198848690Y-140044761D01*
X198896309Y-139949523D01*
X198896309Y-139854285D01*
X198848690Y-139759047D01*
X198753452Y-139711428D01*
X198515357Y-139711428D01*
X198420119Y-139663809D01*
X197943928Y-140092380D02*
X197943928Y-139425714D01*
X197943928Y-139520952D02*
X197896309Y-139473333D01*
X197801071Y-139425714D01*
X197658214Y-139425714D01*
X197562976Y-139473333D01*
X197515357Y-139568571D01*
X197515357Y-140092380D01*
X197515357Y-139568571D02*
X197467738Y-139473333D01*
X197372500Y-139425714D01*
X197229642Y-139425714D01*
X197134404Y-139473333D01*
X197086785Y-139568571D01*
X197086785Y-140092380D01*
X195515357Y-139568571D02*
X195848690Y-139568571D01*
X195848690Y-140092380D02*
X195848690Y-139092380D01*
X195372500Y-139092380D01*
X194515357Y-140092380D02*
X194991547Y-140092380D01*
X194991547Y-139092380D01*
X194229642Y-139806666D02*
X193753452Y-139806666D01*
X194324880Y-140092380D02*
X193991547Y-139092380D01*
X193658214Y-140092380D01*
X193372500Y-140044761D02*
X193229642Y-140092380D01*
X192991547Y-140092380D01*
X192896309Y-140044761D01*
X192848690Y-139997142D01*
X192801071Y-139901904D01*
X192801071Y-139806666D01*
X192848690Y-139711428D01*
X192896309Y-139663809D01*
X192991547Y-139616190D01*
X193182023Y-139568571D01*
X193277261Y-139520952D01*
X193324880Y-139473333D01*
X193372500Y-139378095D01*
X193372500Y-139282857D01*
X193324880Y-139187619D01*
X193277261Y-139140000D01*
X193182023Y-139092380D01*
X192943928Y-139092380D01*
X192801071Y-139140000D01*
X192372500Y-140092380D02*
X192372500Y-139092380D01*
X192372500Y-139568571D02*
X191801071Y-139568571D01*
X191801071Y-140092380D02*
X191801071Y-139092380D01*
X190134404Y-140092380D02*
X190134404Y-139568571D01*
X190182023Y-139473333D01*
X190277261Y-139425714D01*
X190467738Y-139425714D01*
X190562976Y-139473333D01*
X190134404Y-140044761D02*
X190229642Y-140092380D01*
X190467738Y-140092380D01*
X190562976Y-140044761D01*
X190610595Y-139949523D01*
X190610595Y-139854285D01*
X190562976Y-139759047D01*
X190467738Y-139711428D01*
X190229642Y-139711428D01*
X190134404Y-139663809D01*
X189705833Y-140044761D02*
X189610595Y-140092380D01*
X189420119Y-140092380D01*
X189324880Y-140044761D01*
X189277261Y-139949523D01*
X189277261Y-139901904D01*
X189324880Y-139806666D01*
X189420119Y-139759047D01*
X189562976Y-139759047D01*
X189658214Y-139711428D01*
X189705833Y-139616190D01*
X189705833Y-139568571D01*
X189658214Y-139473333D01*
X189562976Y-139425714D01*
X189420119Y-139425714D01*
X189324880Y-139473333D01*
X188086785Y-139425714D02*
X188086785Y-140425714D01*
X188086785Y-139473333D02*
X187991547Y-139425714D01*
X187801071Y-139425714D01*
X187705833Y-139473333D01*
X187658214Y-139520952D01*
X187610595Y-139616190D01*
X187610595Y-139901904D01*
X187658214Y-139997142D01*
X187705833Y-140044761D01*
X187801071Y-140092380D01*
X187991547Y-140092380D01*
X188086785Y-140044761D01*
X186801071Y-140044761D02*
X186896309Y-140092380D01*
X187086785Y-140092380D01*
X187182023Y-140044761D01*
X187229642Y-139949523D01*
X187229642Y-139568571D01*
X187182023Y-139473333D01*
X187086785Y-139425714D01*
X186896309Y-139425714D01*
X186801071Y-139473333D01*
X186753452Y-139568571D01*
X186753452Y-139663809D01*
X187229642Y-139759047D01*
X186324880Y-140092380D02*
X186324880Y-139425714D01*
X186324880Y-139616190D02*
X186277261Y-139520952D01*
X186229642Y-139473333D01*
X186134404Y-139425714D01*
X186039166Y-139425714D01*
X184515357Y-140092380D02*
X184515357Y-139092380D01*
X184515357Y-140044761D02*
X184610595Y-140092380D01*
X184801071Y-140092380D01*
X184896309Y-140044761D01*
X184943928Y-139997142D01*
X184991547Y-139901904D01*
X184991547Y-139616190D01*
X184943928Y-139520952D01*
X184896309Y-139473333D01*
X184801071Y-139425714D01*
X184610595Y-139425714D01*
X184515357Y-139473333D01*
X183610595Y-140092380D02*
X183610595Y-139568571D01*
X183658214Y-139473333D01*
X183753452Y-139425714D01*
X183943928Y-139425714D01*
X184039166Y-139473333D01*
X183610595Y-140044761D02*
X183705833Y-140092380D01*
X183943928Y-140092380D01*
X184039166Y-140044761D01*
X184086785Y-139949523D01*
X184086785Y-139854285D01*
X184039166Y-139759047D01*
X183943928Y-139711428D01*
X183705833Y-139711428D01*
X183610595Y-139663809D01*
X183277261Y-139425714D02*
X182896309Y-139425714D01*
X183134404Y-139092380D02*
X183134404Y-139949523D01*
X183086785Y-140044761D01*
X182991547Y-140092380D01*
X182896309Y-140092380D01*
X182134404Y-140092380D02*
X182134404Y-139568571D01*
X182182023Y-139473333D01*
X182277261Y-139425714D01*
X182467738Y-139425714D01*
X182562976Y-139473333D01*
X182134404Y-140044761D02*
X182229642Y-140092380D01*
X182467738Y-140092380D01*
X182562976Y-140044761D01*
X182610595Y-139949523D01*
X182610595Y-139854285D01*
X182562976Y-139759047D01*
X182467738Y-139711428D01*
X182229642Y-139711428D01*
X182134404Y-139663809D01*
X181705833Y-140044761D02*
X181610595Y-140092380D01*
X181420119Y-140092380D01*
X181324880Y-140044761D01*
X181277261Y-139949523D01*
X181277261Y-139901904D01*
X181324880Y-139806666D01*
X181420119Y-139759047D01*
X181562976Y-139759047D01*
X181658214Y-139711428D01*
X181705833Y-139616190D01*
X181705833Y-139568571D01*
X181658214Y-139473333D01*
X181562976Y-139425714D01*
X181420119Y-139425714D01*
X181324880Y-139473333D01*
X180848690Y-140092380D02*
X180848690Y-139092380D01*
X180420119Y-140092380D02*
X180420119Y-139568571D01*
X180467738Y-139473333D01*
X180562976Y-139425714D01*
X180705833Y-139425714D01*
X180801071Y-139473333D01*
X180848690Y-139520952D01*
X179562976Y-140044761D02*
X179658214Y-140092380D01*
X179848690Y-140092380D01*
X179943928Y-140044761D01*
X179991547Y-139949523D01*
X179991547Y-139568571D01*
X179943928Y-139473333D01*
X179848690Y-139425714D01*
X179658214Y-139425714D01*
X179562976Y-139473333D01*
X179515357Y-139568571D01*
X179515357Y-139663809D01*
X179991547Y-139759047D01*
X178705833Y-140044761D02*
X178801071Y-140092380D01*
X178991547Y-140092380D01*
X179086785Y-140044761D01*
X179134404Y-139949523D01*
X179134404Y-139568571D01*
X179086785Y-139473333D01*
X178991547Y-139425714D01*
X178801071Y-139425714D01*
X178705833Y-139473333D01*
X178658214Y-139568571D01*
X178658214Y-139663809D01*
X179134404Y-139759047D01*
X178372500Y-139425714D02*
X177991547Y-139425714D01*
X178229642Y-139092380D02*
X178229642Y-139949523D01*
X178182023Y-140044761D01*
X178086785Y-140092380D01*
X177991547Y-140092380D01*
X177658214Y-139425714D02*
X176896309Y-139711428D01*
X177658214Y-139997142D01*
X203991547Y-141742380D02*
X204086785Y-141694761D01*
X204134404Y-141647142D01*
X204182023Y-141551904D01*
X204182023Y-141266190D01*
X204134404Y-141170952D01*
X204086785Y-141123333D01*
X203991547Y-141075714D01*
X203848690Y-141075714D01*
X203753452Y-141123333D01*
X203705833Y-141170952D01*
X203658214Y-141266190D01*
X203658214Y-141551904D01*
X203705833Y-141647142D01*
X203753452Y-141694761D01*
X203848690Y-141742380D01*
X203991547Y-141742380D01*
X202801071Y-141075714D02*
X202801071Y-141742380D01*
X203229642Y-141075714D02*
X203229642Y-141599523D01*
X203182023Y-141694761D01*
X203086785Y-141742380D01*
X202943928Y-141742380D01*
X202848690Y-141694761D01*
X202801071Y-141647142D01*
X202467738Y-141075714D02*
X202086785Y-141075714D01*
X202324880Y-140742380D02*
X202324880Y-141599523D01*
X202277261Y-141694761D01*
X202182023Y-141742380D01*
X202086785Y-141742380D01*
X200705833Y-142123333D02*
X200753452Y-142075714D01*
X200848690Y-141932857D01*
X200896309Y-141837619D01*
X200943928Y-141694761D01*
X200991547Y-141456666D01*
X200991547Y-141266190D01*
X200943928Y-141028095D01*
X200896309Y-140885238D01*
X200848690Y-140790000D01*
X200753452Y-140647142D01*
X200705833Y-140599523D01*
X199515357Y-141742380D02*
X199562976Y-141742380D01*
X199658214Y-141694761D01*
X199801071Y-141551904D01*
X200039166Y-141266190D01*
X200134404Y-141123333D01*
X200182023Y-140980476D01*
X200182023Y-140885238D01*
X200134404Y-140790000D01*
X200039166Y-140742380D01*
X199991547Y-140742380D01*
X199896309Y-140790000D01*
X199848690Y-140885238D01*
X199848690Y-140932857D01*
X199896309Y-141028095D01*
X199943928Y-141075714D01*
X200229642Y-141266190D01*
X200277261Y-141313809D01*
X200324880Y-141409047D01*
X200324880Y-141551904D01*
X200277261Y-141647142D01*
X200229642Y-141694761D01*
X200134404Y-141742380D01*
X199991547Y-141742380D01*
X199896309Y-141694761D01*
X199848690Y-141647142D01*
X199705833Y-141456666D01*
X199658214Y-141313809D01*
X199658214Y-141218571D01*
X198658214Y-141694761D02*
X198753452Y-141742380D01*
X198943928Y-141742380D01*
X199039166Y-141694761D01*
X199086785Y-141647142D01*
X199134404Y-141551904D01*
X199134404Y-141266190D01*
X199086785Y-141170952D01*
X199039166Y-141123333D01*
X198943928Y-141075714D01*
X198753452Y-141075714D01*
X198658214Y-141123333D01*
X198372500Y-141075714D02*
X197991547Y-141075714D01*
X198229642Y-141742380D02*
X198229642Y-140885238D01*
X198182023Y-140790000D01*
X198086785Y-140742380D01*
X197991547Y-140742380D01*
X197801071Y-141075714D02*
X197420119Y-141075714D01*
X197658214Y-141742380D02*
X197658214Y-140885238D01*
X197610595Y-140790000D01*
X197515357Y-140742380D01*
X197420119Y-140742380D01*
X197229642Y-141075714D02*
X196848690Y-141075714D01*
X197086785Y-141742380D02*
X197086785Y-140885238D01*
X197039166Y-140790000D01*
X196943928Y-140742380D01*
X196848690Y-140742380D01*
X196610595Y-142123333D02*
X196562976Y-142075714D01*
X196467738Y-141932857D01*
X196420119Y-141837619D01*
X196372500Y-141694761D01*
X196324880Y-141456666D01*
X196324880Y-141266190D01*
X196372500Y-141028095D01*
X196420119Y-140885238D01*
X196467738Y-140790000D01*
X196562976Y-140647142D01*
X196610595Y-140599523D01*
X195801071Y-141694761D02*
X195801071Y-141742380D01*
X195848690Y-141837619D01*
X195896309Y-141885238D01*
X194801071Y-141742380D02*
X195134404Y-141266190D01*
X195372500Y-141742380D02*
X195372500Y-140742380D01*
X194991547Y-140742380D01*
X194896309Y-140790000D01*
X194848690Y-140837619D01*
X194801071Y-140932857D01*
X194801071Y-141075714D01*
X194848690Y-141170952D01*
X194896309Y-141218571D01*
X194991547Y-141266190D01*
X195372500Y-141266190D01*
X194182023Y-140742380D02*
X193991547Y-140742380D01*
X193896309Y-140790000D01*
X193801071Y-140885238D01*
X193753452Y-141075714D01*
X193753452Y-141409047D01*
X193801071Y-141599523D01*
X193896309Y-141694761D01*
X193991547Y-141742380D01*
X194182023Y-141742380D01*
X194277261Y-141694761D01*
X194372500Y-141599523D01*
X194420119Y-141409047D01*
X194420119Y-141075714D01*
X194372500Y-140885238D01*
X194277261Y-140790000D01*
X194182023Y-140742380D01*
X193324880Y-141742380D02*
X193324880Y-140742380D01*
X192991547Y-141456666D01*
X192658214Y-140742380D01*
X192658214Y-141742380D01*
X192420119Y-141837619D02*
X191658214Y-141837619D01*
X191420119Y-141075714D02*
X191420119Y-141742380D01*
X191420119Y-141170952D02*
X191372500Y-141123333D01*
X191277261Y-141075714D01*
X191134404Y-141075714D01*
X191039166Y-141123333D01*
X190991547Y-141218571D01*
X190991547Y-141742380D01*
X190086785Y-141075714D02*
X190086785Y-141742380D01*
X190515357Y-141075714D02*
X190515357Y-141599523D01*
X190467738Y-141694761D01*
X190372500Y-141742380D01*
X190229642Y-141742380D01*
X190134404Y-141694761D01*
X190086785Y-141647142D01*
X189610595Y-141742380D02*
X189610595Y-141075714D01*
X189610595Y-141170952D02*
X189562976Y-141123333D01*
X189467738Y-141075714D01*
X189324880Y-141075714D01*
X189229642Y-141123333D01*
X189182023Y-141218571D01*
X189182023Y-141742380D01*
X189182023Y-141218571D02*
X189134404Y-141123333D01*
X189039166Y-141075714D01*
X188896309Y-141075714D01*
X188801071Y-141123333D01*
X188753452Y-141218571D01*
X188753452Y-141742380D01*
X188277261Y-141742380D02*
X188277261Y-140742380D01*
X188277261Y-141123333D02*
X188182023Y-141075714D01*
X187991547Y-141075714D01*
X187896309Y-141123333D01*
X187848690Y-141170952D01*
X187801071Y-141266190D01*
X187801071Y-141551904D01*
X187848690Y-141647142D01*
X187896309Y-141694761D01*
X187991547Y-141742380D01*
X188182023Y-141742380D01*
X188277261Y-141694761D01*
X186991547Y-141694761D02*
X187086785Y-141742380D01*
X187277261Y-141742380D01*
X187372500Y-141694761D01*
X187420119Y-141599523D01*
X187420119Y-141218571D01*
X187372500Y-141123333D01*
X187277261Y-141075714D01*
X187086785Y-141075714D01*
X186991547Y-141123333D01*
X186943928Y-141218571D01*
X186943928Y-141313809D01*
X187420119Y-141409047D01*
X186515357Y-141742380D02*
X186515357Y-141075714D01*
X186515357Y-141266190D02*
X186467738Y-141170952D01*
X186420119Y-141123333D01*
X186324880Y-141075714D01*
X186229642Y-141075714D01*
X185086785Y-141694761D02*
X185086785Y-141742380D01*
X185134404Y-141837619D01*
X185182023Y-141885238D01*
X185134404Y-141123333D02*
X185086785Y-141170952D01*
X185134404Y-141218571D01*
X185182023Y-141170952D01*
X185134404Y-141123333D01*
X185134404Y-141218571D01*
X184658214Y-141742380D02*
X184658214Y-140742380D01*
X184420119Y-140742380D01*
X184277261Y-140790000D01*
X184182023Y-140885238D01*
X184134404Y-140980476D01*
X184086785Y-141170952D01*
X184086785Y-141313809D01*
X184134404Y-141504285D01*
X184182023Y-141599523D01*
X184277261Y-141694761D01*
X184420119Y-141742380D01*
X184658214Y-141742380D01*
X183658214Y-141742380D02*
X183658214Y-141075714D01*
X183658214Y-140742380D02*
X183705833Y-140790000D01*
X183658214Y-140837619D01*
X183610595Y-140790000D01*
X183658214Y-140742380D01*
X183658214Y-140837619D01*
X183229642Y-141694761D02*
X183134404Y-141742380D01*
X182943928Y-141742380D01*
X182848690Y-141694761D01*
X182801071Y-141599523D01*
X182801071Y-141551904D01*
X182848690Y-141456666D01*
X182943928Y-141409047D01*
X183086785Y-141409047D01*
X183182023Y-141361428D01*
X183229642Y-141266190D01*
X183229642Y-141218571D01*
X183182023Y-141123333D01*
X183086785Y-141075714D01*
X182943928Y-141075714D01*
X182848690Y-141123333D01*
X181943928Y-141742380D02*
X181943928Y-141218571D01*
X181991547Y-141123333D01*
X182086785Y-141075714D01*
X182277261Y-141075714D01*
X182372500Y-141123333D01*
X181943928Y-141694761D02*
X182039166Y-141742380D01*
X182277261Y-141742380D01*
X182372500Y-141694761D01*
X182420119Y-141599523D01*
X182420119Y-141504285D01*
X182372500Y-141409047D01*
X182277261Y-141361428D01*
X182039166Y-141361428D01*
X181943928Y-141313809D01*
X181467738Y-141742380D02*
X181467738Y-140742380D01*
X181467738Y-141123333D02*
X181372500Y-141075714D01*
X181182023Y-141075714D01*
X181086785Y-141123333D01*
X181039166Y-141170952D01*
X180991547Y-141266190D01*
X180991547Y-141551904D01*
X181039166Y-141647142D01*
X181086785Y-141694761D01*
X181182023Y-141742380D01*
X181372500Y-141742380D01*
X181467738Y-141694761D01*
X180420119Y-141742380D02*
X180515357Y-141694761D01*
X180562976Y-141599523D01*
X180562976Y-140742380D01*
X179658214Y-141694761D02*
X179753452Y-141742380D01*
X179943928Y-141742380D01*
X180039166Y-141694761D01*
X180086785Y-141599523D01*
X180086785Y-141218571D01*
X180039166Y-141123333D01*
X179943928Y-141075714D01*
X179753452Y-141075714D01*
X179658214Y-141123333D01*
X179610595Y-141218571D01*
X179610595Y-141313809D01*
X180086785Y-141409047D01*
X177991547Y-141742380D02*
X177991547Y-141218571D01*
X178039166Y-141123333D01*
X178134404Y-141075714D01*
X178324880Y-141075714D01*
X178420119Y-141123333D01*
X177991547Y-141694761D02*
X178086785Y-141742380D01*
X178324880Y-141742380D01*
X178420119Y-141694761D01*
X178467738Y-141599523D01*
X178467738Y-141504285D01*
X178420119Y-141409047D01*
X178324880Y-141361428D01*
X178086785Y-141361428D01*
X177991547Y-141313809D01*
X177515357Y-141075714D02*
X177515357Y-141742380D01*
X177515357Y-141170952D02*
X177467738Y-141123333D01*
X177372500Y-141075714D01*
X177229642Y-141075714D01*
X177134404Y-141123333D01*
X177086785Y-141218571D01*
X177086785Y-141742380D01*
X176182023Y-141742380D02*
X176182023Y-140742380D01*
X176182023Y-141694761D02*
X176277261Y-141742380D01*
X176467738Y-141742380D01*
X176562976Y-141694761D01*
X176610595Y-141647142D01*
X176658214Y-141551904D01*
X176658214Y-141266190D01*
X176610595Y-141170952D01*
X176562976Y-141123333D01*
X176467738Y-141075714D01*
X176277261Y-141075714D01*
X176182023Y-141123333D01*
X174515357Y-141742380D02*
X174515357Y-140742380D01*
X174515357Y-141694761D02*
X174610595Y-141742380D01*
X174801071Y-141742380D01*
X174896309Y-141694761D01*
X174943928Y-141647142D01*
X174991547Y-141551904D01*
X174991547Y-141266190D01*
X174943928Y-141170952D01*
X174896309Y-141123333D01*
X174801071Y-141075714D01*
X174610595Y-141075714D01*
X174515357Y-141123333D01*
X174039166Y-141742380D02*
X174039166Y-141075714D01*
X174039166Y-140742380D02*
X174086785Y-140790000D01*
X174039166Y-140837619D01*
X173991547Y-140790000D01*
X174039166Y-140742380D01*
X174039166Y-140837619D01*
X173610595Y-141694761D02*
X173515357Y-141742380D01*
X173324880Y-141742380D01*
X173229642Y-141694761D01*
X173182023Y-141599523D01*
X173182023Y-141551904D01*
X173229642Y-141456666D01*
X173324880Y-141409047D01*
X173467738Y-141409047D01*
X173562976Y-141361428D01*
X173610595Y-141266190D01*
X173610595Y-141218571D01*
X173562976Y-141123333D01*
X173467738Y-141075714D01*
X173324880Y-141075714D01*
X173229642Y-141123333D01*
X172324880Y-141742380D02*
X172324880Y-141218571D01*
X172372500Y-141123333D01*
X172467738Y-141075714D01*
X172658214Y-141075714D01*
X172753452Y-141123333D01*
X172324880Y-141694761D02*
X172420119Y-141742380D01*
X172658214Y-141742380D01*
X172753452Y-141694761D01*
X172801071Y-141599523D01*
X172801071Y-141504285D01*
X172753452Y-141409047D01*
X172658214Y-141361428D01*
X172420119Y-141361428D01*
X172324880Y-141313809D01*
X171848690Y-141742380D02*
X171848690Y-141075714D01*
X171848690Y-141266190D02*
X171801071Y-141170952D01*
X171753452Y-141123333D01*
X171658214Y-141075714D01*
X171562976Y-141075714D01*
X171229642Y-141742380D02*
X171229642Y-141075714D01*
X171229642Y-141170952D02*
X171182023Y-141123333D01*
X171086785Y-141075714D01*
X170943928Y-141075714D01*
X170848690Y-141123333D01*
X170801071Y-141218571D01*
X170801071Y-141742380D01*
X170801071Y-141218571D02*
X170753452Y-141123333D01*
X170658214Y-141075714D01*
X170515357Y-141075714D01*
X170420119Y-141123333D01*
X170372500Y-141218571D01*
X170372500Y-141742380D01*
X204229642Y-145692380D02*
X203991547Y-146692380D01*
X203801071Y-145978095D01*
X203610595Y-146692380D01*
X203372500Y-145692380D01*
X202991547Y-146692380D02*
X202991547Y-145692380D01*
X202562976Y-146692380D02*
X202562976Y-146168571D01*
X202610595Y-146073333D01*
X202705833Y-146025714D01*
X202848690Y-146025714D01*
X202943928Y-146073333D01*
X202991547Y-146120952D01*
X201705833Y-146644761D02*
X201801071Y-146692380D01*
X201991547Y-146692380D01*
X202086785Y-146644761D01*
X202134404Y-146549523D01*
X202134404Y-146168571D01*
X202086785Y-146073333D01*
X201991547Y-146025714D01*
X201801071Y-146025714D01*
X201705833Y-146073333D01*
X201658214Y-146168571D01*
X201658214Y-146263809D01*
X202134404Y-146359047D01*
X201229642Y-146025714D02*
X201229642Y-146692380D01*
X201229642Y-146120952D02*
X201182023Y-146073333D01*
X201086785Y-146025714D01*
X200943928Y-146025714D01*
X200848690Y-146073333D01*
X200801071Y-146168571D01*
X200801071Y-146692380D01*
X199658214Y-146025714D02*
X199467738Y-146692380D01*
X199277261Y-146216190D01*
X199086785Y-146692380D01*
X198896309Y-146025714D01*
X198515357Y-146692380D02*
X198515357Y-146025714D01*
X198515357Y-146216190D02*
X198467738Y-146120952D01*
X198420119Y-146073333D01*
X198324880Y-146025714D01*
X198229642Y-146025714D01*
X197896309Y-146692380D02*
X197896309Y-146025714D01*
X197896309Y-145692380D02*
X197943928Y-145740000D01*
X197896309Y-145787619D01*
X197848690Y-145740000D01*
X197896309Y-145692380D01*
X197896309Y-145787619D01*
X197562976Y-146025714D02*
X197182023Y-146025714D01*
X197420119Y-145692380D02*
X197420119Y-146549523D01*
X197372500Y-146644761D01*
X197277261Y-146692380D01*
X197182023Y-146692380D01*
X196467738Y-146644761D02*
X196562976Y-146692380D01*
X196753452Y-146692380D01*
X196848690Y-146644761D01*
X196896309Y-146549523D01*
X196896309Y-146168571D01*
X196848690Y-146073333D01*
X196753452Y-146025714D01*
X196562976Y-146025714D01*
X196467738Y-146073333D01*
X196420119Y-146168571D01*
X196420119Y-146263809D01*
X196896309Y-146359047D01*
X194848690Y-146644761D02*
X194943928Y-146692380D01*
X195134404Y-146692380D01*
X195229642Y-146644761D01*
X195277261Y-146549523D01*
X195277261Y-146168571D01*
X195229642Y-146073333D01*
X195134404Y-146025714D01*
X194943928Y-146025714D01*
X194848690Y-146073333D01*
X194801071Y-146168571D01*
X194801071Y-146263809D01*
X195277261Y-146359047D01*
X194372500Y-146025714D02*
X194372500Y-146692380D01*
X194372500Y-146120952D02*
X194324880Y-146073333D01*
X194229642Y-146025714D01*
X194086785Y-146025714D01*
X193991547Y-146073333D01*
X193943928Y-146168571D01*
X193943928Y-146692380D01*
X193039166Y-146692380D02*
X193039166Y-146168571D01*
X193086785Y-146073333D01*
X193182023Y-146025714D01*
X193372500Y-146025714D01*
X193467738Y-146073333D01*
X193039166Y-146644761D02*
X193134404Y-146692380D01*
X193372500Y-146692380D01*
X193467738Y-146644761D01*
X193515357Y-146549523D01*
X193515357Y-146454285D01*
X193467738Y-146359047D01*
X193372500Y-146311428D01*
X193134404Y-146311428D01*
X193039166Y-146263809D01*
X192562976Y-146692380D02*
X192562976Y-145692380D01*
X192562976Y-146073333D02*
X192467738Y-146025714D01*
X192277261Y-146025714D01*
X192182023Y-146073333D01*
X192134404Y-146120952D01*
X192086785Y-146216190D01*
X192086785Y-146501904D01*
X192134404Y-146597142D01*
X192182023Y-146644761D01*
X192277261Y-146692380D01*
X192467738Y-146692380D01*
X192562976Y-146644761D01*
X191515357Y-146692380D02*
X191610595Y-146644761D01*
X191658214Y-146549523D01*
X191658214Y-145692380D01*
X190753452Y-146644761D02*
X190848690Y-146692380D01*
X191039166Y-146692380D01*
X191134404Y-146644761D01*
X191182023Y-146549523D01*
X191182023Y-146168571D01*
X191134404Y-146073333D01*
X191039166Y-146025714D01*
X190848690Y-146025714D01*
X190753452Y-146073333D01*
X190705833Y-146168571D01*
X190705833Y-146263809D01*
X191182023Y-146359047D01*
X189848690Y-146692380D02*
X189848690Y-145692380D01*
X189848690Y-146644761D02*
X189943928Y-146692380D01*
X190134404Y-146692380D01*
X190229642Y-146644761D01*
X190277261Y-146597142D01*
X190324880Y-146501904D01*
X190324880Y-146216190D01*
X190277261Y-146120952D01*
X190229642Y-146073333D01*
X190134404Y-146025714D01*
X189943928Y-146025714D01*
X189848690Y-146073333D01*
X189372500Y-146597142D02*
X189324880Y-146644761D01*
X189372500Y-146692380D01*
X189420119Y-146644761D01*
X189372500Y-146597142D01*
X189372500Y-146692380D01*
X189372500Y-146073333D02*
X189324880Y-146120952D01*
X189372500Y-146168571D01*
X189420119Y-146120952D01*
X189372500Y-146073333D01*
X189372500Y-146168571D01*
X203991547Y-147342380D02*
X203991547Y-147580476D01*
X204229642Y-147485238D02*
X203991547Y-147580476D01*
X203753452Y-147485238D01*
X204134404Y-147770952D02*
X203991547Y-147580476D01*
X203848690Y-147770952D01*
X202658214Y-148056666D02*
X202182023Y-148056666D01*
X202753452Y-148342380D02*
X202420119Y-147342380D01*
X202086785Y-148342380D01*
X201229642Y-148342380D02*
X201801071Y-148342380D01*
X201515357Y-148342380D02*
X201515357Y-147342380D01*
X201610595Y-147485238D01*
X201705833Y-147580476D01*
X201801071Y-147628095D01*
X200324880Y-147342380D02*
X200801071Y-147342380D01*
X200848690Y-147818571D01*
X200801071Y-147770952D01*
X200705833Y-147723333D01*
X200467738Y-147723333D01*
X200372500Y-147770952D01*
X200324880Y-147818571D01*
X200277261Y-147913809D01*
X200277261Y-148151904D01*
X200324880Y-148247142D01*
X200372500Y-148294761D01*
X200467738Y-148342380D01*
X200705833Y-148342380D01*
X200801071Y-148294761D01*
X200848690Y-148247142D01*
X198658214Y-148342380D02*
X198658214Y-147818571D01*
X198705833Y-147723333D01*
X198801071Y-147675714D01*
X198991547Y-147675714D01*
X199086785Y-147723333D01*
X198658214Y-148294761D02*
X198753452Y-148342380D01*
X198991547Y-148342380D01*
X199086785Y-148294761D01*
X199134404Y-148199523D01*
X199134404Y-148104285D01*
X199086785Y-148009047D01*
X198991547Y-147961428D01*
X198753452Y-147961428D01*
X198658214Y-147913809D01*
X198182023Y-147675714D02*
X198182023Y-148342380D01*
X198182023Y-147770952D02*
X198134404Y-147723333D01*
X198039166Y-147675714D01*
X197896309Y-147675714D01*
X197801071Y-147723333D01*
X197753452Y-147818571D01*
X197753452Y-148342380D01*
X196848690Y-148342380D02*
X196848690Y-147342380D01*
X196848690Y-148294761D02*
X196943928Y-148342380D01*
X197134404Y-148342380D01*
X197229642Y-148294761D01*
X197277261Y-148247142D01*
X197324880Y-148151904D01*
X197324880Y-147866190D01*
X197277261Y-147770952D01*
X197229642Y-147723333D01*
X197134404Y-147675714D01*
X196943928Y-147675714D01*
X196848690Y-147723333D01*
X195658214Y-148056666D02*
X195182023Y-148056666D01*
X195753452Y-148342380D02*
X195420119Y-147342380D01*
X195086785Y-148342380D01*
X194229642Y-148342380D02*
X194801071Y-148342380D01*
X194515357Y-148342380D02*
X194515357Y-147342380D01*
X194610595Y-147485238D01*
X194705833Y-147580476D01*
X194801071Y-147628095D01*
X193372500Y-147675714D02*
X193372500Y-148342380D01*
X193610595Y-147294761D02*
X193848690Y-148009047D01*
X193229642Y-148009047D01*
X191658214Y-148342380D02*
X191658214Y-147818571D01*
X191705833Y-147723333D01*
X191801071Y-147675714D01*
X191991547Y-147675714D01*
X192086785Y-147723333D01*
X191658214Y-148294761D02*
X191753452Y-148342380D01*
X191991547Y-148342380D01*
X192086785Y-148294761D01*
X192134404Y-148199523D01*
X192134404Y-148104285D01*
X192086785Y-148009047D01*
X191991547Y-147961428D01*
X191753452Y-147961428D01*
X191658214Y-147913809D01*
X191182023Y-148342380D02*
X191182023Y-147675714D01*
X191182023Y-147866190D02*
X191134404Y-147770952D01*
X191086785Y-147723333D01*
X190991547Y-147675714D01*
X190896309Y-147675714D01*
X190182023Y-148294761D02*
X190277261Y-148342380D01*
X190467738Y-148342380D01*
X190562976Y-148294761D01*
X190610595Y-148199523D01*
X190610595Y-147818571D01*
X190562976Y-147723333D01*
X190467738Y-147675714D01*
X190277261Y-147675714D01*
X190182023Y-147723333D01*
X190134404Y-147818571D01*
X190134404Y-147913809D01*
X190610595Y-148009047D01*
X188943928Y-148342380D02*
X188943928Y-147675714D01*
X188943928Y-147342380D02*
X188991547Y-147390000D01*
X188943928Y-147437619D01*
X188896309Y-147390000D01*
X188943928Y-147342380D01*
X188943928Y-147437619D01*
X188039166Y-147675714D02*
X188039166Y-148485238D01*
X188086785Y-148580476D01*
X188134404Y-148628095D01*
X188229642Y-148675714D01*
X188372500Y-148675714D01*
X188467738Y-148628095D01*
X188039166Y-148294761D02*
X188134404Y-148342380D01*
X188324880Y-148342380D01*
X188420119Y-148294761D01*
X188467738Y-148247142D01*
X188515357Y-148151904D01*
X188515357Y-147866190D01*
X188467738Y-147770952D01*
X188420119Y-147723333D01*
X188324880Y-147675714D01*
X188134404Y-147675714D01*
X188039166Y-147723333D01*
X187562976Y-147675714D02*
X187562976Y-148342380D01*
X187562976Y-147770952D02*
X187515357Y-147723333D01*
X187420119Y-147675714D01*
X187277261Y-147675714D01*
X187182023Y-147723333D01*
X187134404Y-147818571D01*
X187134404Y-148342380D01*
X186515357Y-148342380D02*
X186610595Y-148294761D01*
X186658214Y-148247142D01*
X186705833Y-148151904D01*
X186705833Y-147866190D01*
X186658214Y-147770952D01*
X186610595Y-147723333D01*
X186515357Y-147675714D01*
X186372500Y-147675714D01*
X186277261Y-147723333D01*
X186229642Y-147770952D01*
X186182023Y-147866190D01*
X186182023Y-148151904D01*
X186229642Y-148247142D01*
X186277261Y-148294761D01*
X186372500Y-148342380D01*
X186515357Y-148342380D01*
X185753452Y-148342380D02*
X185753452Y-147675714D01*
X185753452Y-147866190D02*
X185705833Y-147770952D01*
X185658214Y-147723333D01*
X185562976Y-147675714D01*
X185467738Y-147675714D01*
X184753452Y-148294761D02*
X184848690Y-148342380D01*
X185039166Y-148342380D01*
X185134404Y-148294761D01*
X185182023Y-148199523D01*
X185182023Y-147818571D01*
X185134404Y-147723333D01*
X185039166Y-147675714D01*
X184848690Y-147675714D01*
X184753452Y-147723333D01*
X184705833Y-147818571D01*
X184705833Y-147913809D01*
X185182023Y-148009047D01*
X183848690Y-148342380D02*
X183848690Y-147342380D01*
X183848690Y-148294761D02*
X183943928Y-148342380D01*
X184134404Y-148342380D01*
X184229642Y-148294761D01*
X184277261Y-148247142D01*
X184324880Y-148151904D01*
X184324880Y-147866190D01*
X184277261Y-147770952D01*
X184229642Y-147723333D01*
X184134404Y-147675714D01*
X183943928Y-147675714D01*
X183848690Y-147723333D01*
X183372500Y-148247142D02*
X183324880Y-148294761D01*
X183372500Y-148342380D01*
X183420119Y-148294761D01*
X183372500Y-148247142D01*
X183372500Y-148342380D01*
X203991547Y-148992380D02*
X203991547Y-149230476D01*
X204229642Y-149135238D02*
X203991547Y-149230476D01*
X203753452Y-149135238D01*
X204134404Y-149420952D02*
X203991547Y-149230476D01*
X203848690Y-149420952D01*
X202753452Y-148992380D02*
X202182023Y-148992380D01*
X202467738Y-149992380D02*
X202467738Y-148992380D01*
X201848690Y-149992380D02*
X201848690Y-148992380D01*
X201420119Y-149992380D02*
X201420119Y-149468571D01*
X201467738Y-149373333D01*
X201562976Y-149325714D01*
X201705833Y-149325714D01*
X201801071Y-149373333D01*
X201848690Y-149420952D01*
X200562976Y-149944761D02*
X200658214Y-149992380D01*
X200848690Y-149992380D01*
X200943928Y-149944761D01*
X200991547Y-149849523D01*
X200991547Y-149468571D01*
X200943928Y-149373333D01*
X200848690Y-149325714D01*
X200658214Y-149325714D01*
X200562976Y-149373333D01*
X200515357Y-149468571D01*
X200515357Y-149563809D01*
X200991547Y-149659047D01*
X199467738Y-149325714D02*
X199086785Y-149325714D01*
X199324880Y-149992380D02*
X199324880Y-149135238D01*
X199277261Y-149040000D01*
X199182023Y-148992380D01*
X199086785Y-148992380D01*
X198610595Y-149992380D02*
X198705833Y-149944761D01*
X198753452Y-149849523D01*
X198753452Y-148992380D01*
X197801071Y-149992380D02*
X197801071Y-149468571D01*
X197848690Y-149373333D01*
X197943928Y-149325714D01*
X198134404Y-149325714D01*
X198229642Y-149373333D01*
X197801071Y-149944761D02*
X197896309Y-149992380D01*
X198134404Y-149992380D01*
X198229642Y-149944761D01*
X198277261Y-149849523D01*
X198277261Y-149754285D01*
X198229642Y-149659047D01*
X198134404Y-149611428D01*
X197896309Y-149611428D01*
X197801071Y-149563809D01*
X197372500Y-149944761D02*
X197277261Y-149992380D01*
X197086785Y-149992380D01*
X196991547Y-149944761D01*
X196943928Y-149849523D01*
X196943928Y-149801904D01*
X196991547Y-149706666D01*
X197086785Y-149659047D01*
X197229642Y-149659047D01*
X197324880Y-149611428D01*
X197372500Y-149516190D01*
X197372500Y-149468571D01*
X197324880Y-149373333D01*
X197229642Y-149325714D01*
X197086785Y-149325714D01*
X196991547Y-149373333D01*
X196515357Y-149992380D02*
X196515357Y-148992380D01*
X196086785Y-149992380D02*
X196086785Y-149468571D01*
X196134404Y-149373333D01*
X196229642Y-149325714D01*
X196372500Y-149325714D01*
X196467738Y-149373333D01*
X196515357Y-149420952D01*
X194848690Y-149992380D02*
X194848690Y-149325714D01*
X194848690Y-149420952D02*
X194801071Y-149373333D01*
X194705833Y-149325714D01*
X194562976Y-149325714D01*
X194467738Y-149373333D01*
X194420119Y-149468571D01*
X194420119Y-149992380D01*
X194420119Y-149468571D02*
X194372500Y-149373333D01*
X194277261Y-149325714D01*
X194134404Y-149325714D01*
X194039166Y-149373333D01*
X193991547Y-149468571D01*
X193991547Y-149992380D01*
X193086785Y-149992380D02*
X193086785Y-149468571D01*
X193134404Y-149373333D01*
X193229642Y-149325714D01*
X193420119Y-149325714D01*
X193515357Y-149373333D01*
X193086785Y-149944761D02*
X193182023Y-149992380D01*
X193420119Y-149992380D01*
X193515357Y-149944761D01*
X193562976Y-149849523D01*
X193562976Y-149754285D01*
X193515357Y-149659047D01*
X193420119Y-149611428D01*
X193182023Y-149611428D01*
X193086785Y-149563809D01*
X192610595Y-149325714D02*
X192610595Y-150325714D01*
X192610595Y-149373333D02*
X192515357Y-149325714D01*
X192324880Y-149325714D01*
X192229642Y-149373333D01*
X192182023Y-149420952D01*
X192134404Y-149516190D01*
X192134404Y-149801904D01*
X192182023Y-149897142D01*
X192229642Y-149944761D01*
X192324880Y-149992380D01*
X192515357Y-149992380D01*
X192610595Y-149944761D01*
X191753452Y-149944761D02*
X191658214Y-149992380D01*
X191467738Y-149992380D01*
X191372500Y-149944761D01*
X191324880Y-149849523D01*
X191324880Y-149801904D01*
X191372500Y-149706666D01*
X191467738Y-149659047D01*
X191610595Y-149659047D01*
X191705833Y-149611428D01*
X191753452Y-149516190D01*
X191753452Y-149468571D01*
X191705833Y-149373333D01*
X191610595Y-149325714D01*
X191467738Y-149325714D01*
X191372500Y-149373333D01*
X190277261Y-149325714D02*
X189896309Y-149325714D01*
X190134404Y-148992380D02*
X190134404Y-149849523D01*
X190086785Y-149944761D01*
X189991547Y-149992380D01*
X189896309Y-149992380D01*
X189420119Y-149992380D02*
X189515357Y-149944761D01*
X189562976Y-149897142D01*
X189610595Y-149801904D01*
X189610595Y-149516190D01*
X189562976Y-149420952D01*
X189515357Y-149373333D01*
X189420119Y-149325714D01*
X189277261Y-149325714D01*
X189182023Y-149373333D01*
X189134404Y-149420952D01*
X189086785Y-149516190D01*
X189086785Y-149801904D01*
X189134404Y-149897142D01*
X189182023Y-149944761D01*
X189277261Y-149992380D01*
X189420119Y-149992380D01*
X187753452Y-148992380D02*
X187753452Y-149230476D01*
X187991547Y-149135238D02*
X187753452Y-149230476D01*
X187515357Y-149135238D01*
X187896309Y-149420952D02*
X187753452Y-149230476D01*
X187610595Y-149420952D01*
X186705833Y-149992380D02*
X186705833Y-149468571D01*
X186753452Y-149373333D01*
X186848690Y-149325714D01*
X187039166Y-149325714D01*
X187134404Y-149373333D01*
X186705833Y-149944761D02*
X186801071Y-149992380D01*
X187039166Y-149992380D01*
X187134404Y-149944761D01*
X187182023Y-149849523D01*
X187182023Y-149754285D01*
X187134404Y-149659047D01*
X187039166Y-149611428D01*
X186801071Y-149611428D01*
X186705833Y-149563809D01*
X186086785Y-149992380D02*
X186182023Y-149944761D01*
X186229642Y-149849523D01*
X186229642Y-148992380D01*
X185562976Y-149992380D02*
X185658214Y-149944761D01*
X185705833Y-149849523D01*
X185705833Y-148992380D01*
X185039166Y-148992380D02*
X185039166Y-149230476D01*
X185277261Y-149135238D02*
X185039166Y-149230476D01*
X184801071Y-149135238D01*
X185182023Y-149420952D02*
X185039166Y-149230476D01*
X184896309Y-149420952D01*
X183658214Y-149992380D02*
X183658214Y-149325714D01*
X183658214Y-149420952D02*
X183610595Y-149373333D01*
X183515357Y-149325714D01*
X183372500Y-149325714D01*
X183277261Y-149373333D01*
X183229642Y-149468571D01*
X183229642Y-149992380D01*
X183229642Y-149468571D02*
X183182023Y-149373333D01*
X183086785Y-149325714D01*
X182943928Y-149325714D01*
X182848690Y-149373333D01*
X182801071Y-149468571D01*
X182801071Y-149992380D01*
X181943928Y-149944761D02*
X182039166Y-149992380D01*
X182229642Y-149992380D01*
X182324880Y-149944761D01*
X182372500Y-149849523D01*
X182372500Y-149468571D01*
X182324880Y-149373333D01*
X182229642Y-149325714D01*
X182039166Y-149325714D01*
X181943928Y-149373333D01*
X181896309Y-149468571D01*
X181896309Y-149563809D01*
X182372500Y-149659047D01*
X181467738Y-149992380D02*
X181467738Y-149325714D01*
X181467738Y-149420952D02*
X181420119Y-149373333D01*
X181324880Y-149325714D01*
X181182023Y-149325714D01*
X181086785Y-149373333D01*
X181039166Y-149468571D01*
X181039166Y-149992380D01*
X181039166Y-149468571D02*
X180991547Y-149373333D01*
X180896309Y-149325714D01*
X180753452Y-149325714D01*
X180658214Y-149373333D01*
X180610595Y-149468571D01*
X180610595Y-149992380D01*
X179991547Y-149992380D02*
X180086785Y-149944761D01*
X180134404Y-149897142D01*
X180182023Y-149801904D01*
X180182023Y-149516190D01*
X180134404Y-149420952D01*
X180086785Y-149373333D01*
X179991547Y-149325714D01*
X179848690Y-149325714D01*
X179753452Y-149373333D01*
X179705833Y-149420952D01*
X179658214Y-149516190D01*
X179658214Y-149801904D01*
X179705833Y-149897142D01*
X179753452Y-149944761D01*
X179848690Y-149992380D01*
X179991547Y-149992380D01*
X179229642Y-149992380D02*
X179229642Y-149325714D01*
X179229642Y-149516190D02*
X179182023Y-149420952D01*
X179134404Y-149373333D01*
X179039166Y-149325714D01*
X178943928Y-149325714D01*
X178705833Y-149325714D02*
X178467738Y-149992380D01*
X178229642Y-149325714D02*
X178467738Y-149992380D01*
X178562976Y-150230476D01*
X178610595Y-150278095D01*
X178705833Y-150325714D01*
X177086785Y-149992380D02*
X177086785Y-148992380D01*
X177086785Y-149373333D02*
X176991547Y-149325714D01*
X176801071Y-149325714D01*
X176705833Y-149373333D01*
X176658214Y-149420952D01*
X176610595Y-149516190D01*
X176610595Y-149801904D01*
X176658214Y-149897142D01*
X176705833Y-149944761D01*
X176801071Y-149992380D01*
X176991547Y-149992380D01*
X177086785Y-149944761D01*
X175753452Y-149992380D02*
X175753452Y-149468571D01*
X175801071Y-149373333D01*
X175896309Y-149325714D01*
X176086785Y-149325714D01*
X176182023Y-149373333D01*
X175753452Y-149944761D02*
X175848690Y-149992380D01*
X176086785Y-149992380D01*
X176182023Y-149944761D01*
X176229642Y-149849523D01*
X176229642Y-149754285D01*
X176182023Y-149659047D01*
X176086785Y-149611428D01*
X175848690Y-149611428D01*
X175753452Y-149563809D01*
X175277261Y-149325714D02*
X175277261Y-149992380D01*
X175277261Y-149420952D02*
X175229642Y-149373333D01*
X175134404Y-149325714D01*
X174991547Y-149325714D01*
X174896309Y-149373333D01*
X174848690Y-149468571D01*
X174848690Y-149992380D01*
X174372500Y-149992380D02*
X174372500Y-148992380D01*
X174277261Y-149611428D02*
X173991547Y-149992380D01*
X173991547Y-149325714D02*
X174372500Y-149706666D01*
X173610595Y-149944761D02*
X173515357Y-149992380D01*
X173324880Y-149992380D01*
X173229642Y-149944761D01*
X173182023Y-149849523D01*
X173182023Y-149801904D01*
X173229642Y-149706666D01*
X173324880Y-149659047D01*
X173467738Y-149659047D01*
X173562976Y-149611428D01*
X173610595Y-149516190D01*
X173610595Y-149468571D01*
X173562976Y-149373333D01*
X173467738Y-149325714D01*
X173324880Y-149325714D01*
X173229642Y-149373333D01*
X172753452Y-149897142D02*
X172705833Y-149944761D01*
X172753452Y-149992380D01*
X172801071Y-149944761D01*
X172753452Y-149897142D01*
X172753452Y-149992380D01*
X203991547Y-150642380D02*
X203991547Y-150880476D01*
X204229642Y-150785238D02*
X203991547Y-150880476D01*
X203753452Y-150785238D01*
X204134404Y-151070952D02*
X203991547Y-150880476D01*
X203848690Y-151070952D01*
X202705833Y-150642380D02*
X202467738Y-151642380D01*
X202277261Y-150928095D01*
X202086785Y-151642380D01*
X201848690Y-150642380D01*
X201467738Y-151642380D02*
X201467738Y-150975714D01*
X201467738Y-151166190D02*
X201420119Y-151070952D01*
X201372500Y-151023333D01*
X201277261Y-150975714D01*
X201182023Y-150975714D01*
X200848690Y-151642380D02*
X200848690Y-150975714D01*
X200848690Y-150642380D02*
X200896309Y-150690000D01*
X200848690Y-150737619D01*
X200801071Y-150690000D01*
X200848690Y-150642380D01*
X200848690Y-150737619D01*
X200515357Y-150975714D02*
X200134404Y-150975714D01*
X200372500Y-150642380D02*
X200372500Y-151499523D01*
X200324880Y-151594761D01*
X200229642Y-151642380D01*
X200134404Y-151642380D01*
X199420119Y-151594761D02*
X199515357Y-151642380D01*
X199705833Y-151642380D01*
X199801071Y-151594761D01*
X199848690Y-151499523D01*
X199848690Y-151118571D01*
X199801071Y-151023333D01*
X199705833Y-150975714D01*
X199515357Y-150975714D01*
X199420119Y-151023333D01*
X199372500Y-151118571D01*
X199372500Y-151213809D01*
X199848690Y-151309047D01*
X198991547Y-151594761D02*
X198896309Y-151642380D01*
X198705833Y-151642380D01*
X198610595Y-151594761D01*
X198562976Y-151499523D01*
X198562976Y-151451904D01*
X198610595Y-151356666D01*
X198705833Y-151309047D01*
X198848690Y-151309047D01*
X198943928Y-151261428D01*
X198991547Y-151166190D01*
X198991547Y-151118571D01*
X198943928Y-151023333D01*
X198848690Y-150975714D01*
X198705833Y-150975714D01*
X198610595Y-151023333D01*
X197515357Y-150975714D02*
X197134404Y-150975714D01*
X197372500Y-150642380D02*
X197372500Y-151499523D01*
X197324880Y-151594761D01*
X197229642Y-151642380D01*
X197134404Y-151642380D01*
X196658214Y-151642380D02*
X196753452Y-151594761D01*
X196801071Y-151547142D01*
X196848690Y-151451904D01*
X196848690Y-151166190D01*
X196801071Y-151070952D01*
X196753452Y-151023333D01*
X196658214Y-150975714D01*
X196515357Y-150975714D01*
X196420119Y-151023333D01*
X196372500Y-151070952D01*
X196324880Y-151166190D01*
X196324880Y-151451904D01*
X196372500Y-151547142D01*
X196420119Y-151594761D01*
X196515357Y-151642380D01*
X196658214Y-151642380D01*
X194562976Y-151642380D02*
X194896309Y-151166190D01*
X195134404Y-151642380D02*
X195134404Y-150642380D01*
X194753452Y-150642380D01*
X194658214Y-150690000D01*
X194610595Y-150737619D01*
X194562976Y-150832857D01*
X194562976Y-150975714D01*
X194610595Y-151070952D01*
X194658214Y-151118571D01*
X194753452Y-151166190D01*
X195134404Y-151166190D01*
X194182023Y-151356666D02*
X193705833Y-151356666D01*
X194277261Y-151642380D02*
X193943928Y-150642380D01*
X193610595Y-151642380D01*
X193277261Y-151642380D02*
X193277261Y-150642380D01*
X192943928Y-151356666D01*
X192610595Y-150642380D01*
X192610595Y-151642380D01*
X190943928Y-151642380D02*
X190943928Y-151118571D01*
X190991547Y-151023333D01*
X191086785Y-150975714D01*
X191277261Y-150975714D01*
X191372500Y-151023333D01*
X190943928Y-151594761D02*
X191039166Y-151642380D01*
X191277261Y-151642380D01*
X191372500Y-151594761D01*
X191420119Y-151499523D01*
X191420119Y-151404285D01*
X191372500Y-151309047D01*
X191277261Y-151261428D01*
X191039166Y-151261428D01*
X190943928Y-151213809D01*
X190467738Y-151642380D02*
X190467738Y-150975714D01*
X190467738Y-151166190D02*
X190420119Y-151070952D01*
X190372500Y-151023333D01*
X190277261Y-150975714D01*
X190182023Y-150975714D01*
X189467738Y-151594761D02*
X189562976Y-151642380D01*
X189753452Y-151642380D01*
X189848690Y-151594761D01*
X189896309Y-151499523D01*
X189896309Y-151118571D01*
X189848690Y-151023333D01*
X189753452Y-150975714D01*
X189562976Y-150975714D01*
X189467738Y-151023333D01*
X189420119Y-151118571D01*
X189420119Y-151213809D01*
X189896309Y-151309047D01*
X187801071Y-151642380D02*
X187801071Y-150642380D01*
X187801071Y-151594761D02*
X187896309Y-151642380D01*
X188086785Y-151642380D01*
X188182023Y-151594761D01*
X188229642Y-151547142D01*
X188277261Y-151451904D01*
X188277261Y-151166190D01*
X188229642Y-151070952D01*
X188182023Y-151023333D01*
X188086785Y-150975714D01*
X187896309Y-150975714D01*
X187801071Y-151023333D01*
X187324880Y-151642380D02*
X187324880Y-150975714D01*
X187324880Y-150642380D02*
X187372500Y-150690000D01*
X187324880Y-150737619D01*
X187277261Y-150690000D01*
X187324880Y-150642380D01*
X187324880Y-150737619D01*
X186896309Y-151594761D02*
X186801071Y-151642380D01*
X186610595Y-151642380D01*
X186515357Y-151594761D01*
X186467738Y-151499523D01*
X186467738Y-151451904D01*
X186515357Y-151356666D01*
X186610595Y-151309047D01*
X186753452Y-151309047D01*
X186848690Y-151261428D01*
X186896309Y-151166190D01*
X186896309Y-151118571D01*
X186848690Y-151023333D01*
X186753452Y-150975714D01*
X186610595Y-150975714D01*
X186515357Y-151023333D01*
X186039166Y-151642380D02*
X186039166Y-150642380D01*
X186039166Y-151023333D02*
X185943928Y-150975714D01*
X185753452Y-150975714D01*
X185658214Y-151023333D01*
X185610595Y-151070952D01*
X185562976Y-151166190D01*
X185562976Y-151451904D01*
X185610595Y-151547142D01*
X185658214Y-151594761D01*
X185753452Y-151642380D01*
X185943928Y-151642380D01*
X186039166Y-151594761D01*
X184991547Y-151642380D02*
X185086785Y-151594761D01*
X185134404Y-151499523D01*
X185134404Y-150642380D01*
X184229642Y-151594761D02*
X184324880Y-151642380D01*
X184515357Y-151642380D01*
X184610595Y-151594761D01*
X184658214Y-151499523D01*
X184658214Y-151118571D01*
X184610595Y-151023333D01*
X184515357Y-150975714D01*
X184324880Y-150975714D01*
X184229642Y-151023333D01*
X184182023Y-151118571D01*
X184182023Y-151213809D01*
X184658214Y-151309047D01*
X183324880Y-151642380D02*
X183324880Y-150642380D01*
X183324880Y-151594761D02*
X183420119Y-151642380D01*
X183610595Y-151642380D01*
X183705833Y-151594761D01*
X183753452Y-151547142D01*
X183801071Y-151451904D01*
X183801071Y-151166190D01*
X183753452Y-151070952D01*
X183705833Y-151023333D01*
X183610595Y-150975714D01*
X183420119Y-150975714D01*
X183324880Y-151023333D01*
X181801071Y-152023333D02*
X181848690Y-151975714D01*
X181943928Y-151832857D01*
X181991547Y-151737619D01*
X182039166Y-151594761D01*
X182086785Y-151356666D01*
X182086785Y-151166190D01*
X182039166Y-150928095D01*
X181991547Y-150785238D01*
X181943928Y-150690000D01*
X181848690Y-150547142D01*
X181801071Y-150499523D01*
X181420119Y-151642380D02*
X181420119Y-150975714D01*
X181420119Y-150642380D02*
X181467738Y-150690000D01*
X181420119Y-150737619D01*
X181372500Y-150690000D01*
X181420119Y-150642380D01*
X181420119Y-150737619D01*
X181086785Y-150975714D02*
X180705833Y-150975714D01*
X180943928Y-151642380D02*
X180943928Y-150785238D01*
X180896309Y-150690000D01*
X180801071Y-150642380D01*
X180705833Y-150642380D01*
X179134404Y-151642380D02*
X179610595Y-151642380D01*
X179610595Y-150642380D01*
X178801071Y-151642380D02*
X178801071Y-150642380D01*
X178229642Y-151642380D02*
X178658214Y-151070952D01*
X178229642Y-150642380D02*
X178801071Y-151213809D01*
X177277261Y-151642380D02*
X177848690Y-151642380D01*
X177562976Y-151642380D02*
X177562976Y-150642380D01*
X177658214Y-150785238D01*
X177753452Y-150880476D01*
X177848690Y-150928095D01*
X176086785Y-151642380D02*
X176086785Y-150975714D01*
X176086785Y-150642380D02*
X176134404Y-150690000D01*
X176086785Y-150737619D01*
X176039166Y-150690000D01*
X176086785Y-150642380D01*
X176086785Y-150737619D01*
X175610595Y-150975714D02*
X175610595Y-151642380D01*
X175610595Y-151070952D02*
X175562976Y-151023333D01*
X175467738Y-150975714D01*
X175324880Y-150975714D01*
X175229642Y-151023333D01*
X175182023Y-151118571D01*
X175182023Y-151642380D01*
X174753452Y-151594761D02*
X174658214Y-151642380D01*
X174467738Y-151642380D01*
X174372500Y-151594761D01*
X174324880Y-151499523D01*
X174324880Y-151451904D01*
X174372500Y-151356666D01*
X174467738Y-151309047D01*
X174610595Y-151309047D01*
X174705833Y-151261428D01*
X174753452Y-151166190D01*
X174753452Y-151118571D01*
X174705833Y-151023333D01*
X174610595Y-150975714D01*
X174467738Y-150975714D01*
X174372500Y-151023333D01*
X174039166Y-150975714D02*
X173658214Y-150975714D01*
X173896309Y-150642380D02*
X173896309Y-151499523D01*
X173848690Y-151594761D01*
X173753452Y-151642380D01*
X173658214Y-151642380D01*
X172896309Y-151642380D02*
X172896309Y-151118571D01*
X172943928Y-151023333D01*
X173039166Y-150975714D01*
X173229642Y-150975714D01*
X173324880Y-151023333D01*
X172896309Y-151594761D02*
X172991547Y-151642380D01*
X173229642Y-151642380D01*
X173324880Y-151594761D01*
X173372500Y-151499523D01*
X173372500Y-151404285D01*
X173324880Y-151309047D01*
X173229642Y-151261428D01*
X172991547Y-151261428D01*
X172896309Y-151213809D01*
X172277261Y-151642380D02*
X172372500Y-151594761D01*
X172420119Y-151499523D01*
X172420119Y-150642380D01*
X171753452Y-151642380D02*
X171848690Y-151594761D01*
X171896309Y-151499523D01*
X171896309Y-150642380D01*
X170991547Y-151594761D02*
X171086785Y-151642380D01*
X171277261Y-151642380D01*
X171372500Y-151594761D01*
X171420119Y-151499523D01*
X171420119Y-151118571D01*
X171372500Y-151023333D01*
X171277261Y-150975714D01*
X171086785Y-150975714D01*
X170991547Y-151023333D01*
X170943928Y-151118571D01*
X170943928Y-151213809D01*
X171420119Y-151309047D01*
X170086785Y-151642380D02*
X170086785Y-150642380D01*
X170086785Y-151594761D02*
X170182023Y-151642380D01*
X170372500Y-151642380D01*
X170467738Y-151594761D01*
X170515357Y-151547142D01*
X170562976Y-151451904D01*
X170562976Y-151166190D01*
X170515357Y-151070952D01*
X170467738Y-151023333D01*
X170372500Y-150975714D01*
X170182023Y-150975714D01*
X170086785Y-151023333D01*
X169705833Y-152023333D02*
X169658214Y-151975714D01*
X169562976Y-151832857D01*
X169515357Y-151737619D01*
X169467738Y-151594761D01*
X169420119Y-151356666D01*
X169420119Y-151166190D01*
X169467738Y-150928095D01*
X169515357Y-150785238D01*
X169562976Y-150690000D01*
X169658214Y-150547142D01*
X169705833Y-150499523D01*
X168943928Y-151547142D02*
X168896309Y-151594761D01*
X168943928Y-151642380D01*
X168991547Y-151594761D01*
X168943928Y-151547142D01*
X168943928Y-151642380D01*
X203991547Y-152292380D02*
X203991547Y-152530476D01*
X204229642Y-152435238D02*
X203991547Y-152530476D01*
X203753452Y-152435238D01*
X204134404Y-152720952D02*
X203991547Y-152530476D01*
X203848690Y-152720952D01*
X202277261Y-152768571D02*
X202610595Y-152768571D01*
X202610595Y-153292380D02*
X202610595Y-152292380D01*
X202134404Y-152292380D01*
X201753452Y-153292380D02*
X201753452Y-152625714D01*
X201753452Y-152292380D02*
X201801071Y-152340000D01*
X201753452Y-152387619D01*
X201705833Y-152340000D01*
X201753452Y-152292380D01*
X201753452Y-152387619D01*
X201277261Y-153292380D02*
X201277261Y-152625714D01*
X201277261Y-152816190D02*
X201229642Y-152720952D01*
X201182023Y-152673333D01*
X201086785Y-152625714D01*
X200991547Y-152625714D01*
X200658214Y-153292380D02*
X200658214Y-152625714D01*
X200658214Y-152720952D02*
X200610595Y-152673333D01*
X200515357Y-152625714D01*
X200372500Y-152625714D01*
X200277261Y-152673333D01*
X200229642Y-152768571D01*
X200229642Y-153292380D01*
X200229642Y-152768571D02*
X200182023Y-152673333D01*
X200086785Y-152625714D01*
X199943928Y-152625714D01*
X199848690Y-152673333D01*
X199801071Y-152768571D01*
X199801071Y-153292380D01*
X199420119Y-152625714D02*
X199229642Y-153292380D01*
X199039166Y-152816190D01*
X198848690Y-153292380D01*
X198658214Y-152625714D01*
X197848690Y-153292380D02*
X197848690Y-152768571D01*
X197896309Y-152673333D01*
X197991547Y-152625714D01*
X198182023Y-152625714D01*
X198277261Y-152673333D01*
X197848690Y-153244761D02*
X197943928Y-153292380D01*
X198182023Y-153292380D01*
X198277261Y-153244761D01*
X198324880Y-153149523D01*
X198324880Y-153054285D01*
X198277261Y-152959047D01*
X198182023Y-152911428D01*
X197943928Y-152911428D01*
X197848690Y-152863809D01*
X197372500Y-153292380D02*
X197372500Y-152625714D01*
X197372500Y-152816190D02*
X197324880Y-152720952D01*
X197277261Y-152673333D01*
X197182023Y-152625714D01*
X197086785Y-152625714D01*
X196372500Y-153244761D02*
X196467738Y-153292380D01*
X196658214Y-153292380D01*
X196753452Y-153244761D01*
X196801071Y-153149523D01*
X196801071Y-152768571D01*
X196753452Y-152673333D01*
X196658214Y-152625714D01*
X196467738Y-152625714D01*
X196372500Y-152673333D01*
X196324880Y-152768571D01*
X196324880Y-152863809D01*
X196801071Y-152959047D01*
X195134404Y-153292380D02*
X195134404Y-152625714D01*
X195134404Y-152292380D02*
X195182023Y-152340000D01*
X195134404Y-152387619D01*
X195086785Y-152340000D01*
X195134404Y-152292380D01*
X195134404Y-152387619D01*
X194705833Y-153244761D02*
X194610595Y-153292380D01*
X194420119Y-153292380D01*
X194324880Y-153244761D01*
X194277261Y-153149523D01*
X194277261Y-153101904D01*
X194324880Y-153006666D01*
X194420119Y-152959047D01*
X194562976Y-152959047D01*
X194658214Y-152911428D01*
X194705833Y-152816190D01*
X194705833Y-152768571D01*
X194658214Y-152673333D01*
X194562976Y-152625714D01*
X194420119Y-152625714D01*
X194324880Y-152673333D01*
X193086785Y-153292380D02*
X193086785Y-152625714D01*
X193086785Y-152292380D02*
X193134404Y-152340000D01*
X193086785Y-152387619D01*
X193039166Y-152340000D01*
X193086785Y-152292380D01*
X193086785Y-152387619D01*
X192610595Y-152625714D02*
X192610595Y-153292380D01*
X192610595Y-152720952D02*
X192562976Y-152673333D01*
X192467738Y-152625714D01*
X192324880Y-152625714D01*
X192229642Y-152673333D01*
X192182023Y-152768571D01*
X192182023Y-153292380D01*
X190943928Y-153292380D02*
X190943928Y-152292380D01*
X190943928Y-152673333D02*
X190848690Y-152625714D01*
X190658214Y-152625714D01*
X190562976Y-152673333D01*
X190515357Y-152720952D01*
X190467738Y-152816190D01*
X190467738Y-153101904D01*
X190515357Y-153197142D01*
X190562976Y-153244761D01*
X190658214Y-153292380D01*
X190848690Y-153292380D01*
X190943928Y-153244761D01*
X189610595Y-153292380D02*
X189610595Y-152768571D01*
X189658214Y-152673333D01*
X189753452Y-152625714D01*
X189943928Y-152625714D01*
X190039166Y-152673333D01*
X189610595Y-153244761D02*
X189705833Y-153292380D01*
X189943928Y-153292380D01*
X190039166Y-153244761D01*
X190086785Y-153149523D01*
X190086785Y-153054285D01*
X190039166Y-152959047D01*
X189943928Y-152911428D01*
X189705833Y-152911428D01*
X189610595Y-152863809D01*
X189134404Y-152625714D02*
X189134404Y-153292380D01*
X189134404Y-152720952D02*
X189086785Y-152673333D01*
X188991547Y-152625714D01*
X188848690Y-152625714D01*
X188753452Y-152673333D01*
X188705833Y-152768571D01*
X188705833Y-153292380D01*
X188229642Y-153292380D02*
X188229642Y-152292380D01*
X188134404Y-152911428D02*
X187848690Y-153292380D01*
X187848690Y-152625714D02*
X188229642Y-153006666D01*
X186753452Y-152292380D02*
X186134404Y-152292380D01*
X186467738Y-152673333D01*
X186324880Y-152673333D01*
X186229642Y-152720952D01*
X186182023Y-152768571D01*
X186134404Y-152863809D01*
X186134404Y-153101904D01*
X186182023Y-153197142D01*
X186229642Y-153244761D01*
X186324880Y-153292380D01*
X186610595Y-153292380D01*
X186705833Y-153244761D01*
X186753452Y-153197142D01*
X185182023Y-153292380D02*
X185753452Y-153292380D01*
X185467738Y-153292380D02*
X185467738Y-152292380D01*
X185562976Y-152435238D01*
X185658214Y-152530476D01*
X185753452Y-152578095D01*
X184753452Y-153197142D02*
X184705833Y-153244761D01*
X184753452Y-153292380D01*
X184801071Y-153244761D01*
X184753452Y-153197142D01*
X184753452Y-153292380D01*
X203562976Y-156592380D02*
X203896309Y-156116190D01*
X204134404Y-156592380D02*
X204134404Y-155592380D01*
X203753452Y-155592380D01*
X203658214Y-155640000D01*
X203610595Y-155687619D01*
X203562976Y-155782857D01*
X203562976Y-155925714D01*
X203610595Y-156020952D01*
X203658214Y-156068571D01*
X203753452Y-156116190D01*
X204134404Y-156116190D01*
X202943928Y-155592380D02*
X202753452Y-155592380D01*
X202658214Y-155640000D01*
X202562976Y-155735238D01*
X202515357Y-155925714D01*
X202515357Y-156259047D01*
X202562976Y-156449523D01*
X202658214Y-156544761D01*
X202753452Y-156592380D01*
X202943928Y-156592380D01*
X203039166Y-156544761D01*
X203134404Y-156449523D01*
X203182023Y-156259047D01*
X203182023Y-155925714D01*
X203134404Y-155735238D01*
X203039166Y-155640000D01*
X202943928Y-155592380D01*
X202086785Y-156592380D02*
X202086785Y-155592380D01*
X201753452Y-156306666D01*
X201420119Y-155592380D01*
X201420119Y-156592380D01*
X200182023Y-156592380D02*
X200182023Y-155592380D01*
X200182023Y-155973333D02*
X200086785Y-155925714D01*
X199896309Y-155925714D01*
X199801071Y-155973333D01*
X199753452Y-156020952D01*
X199705833Y-156116190D01*
X199705833Y-156401904D01*
X199753452Y-156497142D01*
X199801071Y-156544761D01*
X199896309Y-156592380D01*
X200086785Y-156592380D01*
X200182023Y-156544761D01*
X198848690Y-155925714D02*
X198848690Y-156592380D01*
X199277261Y-155925714D02*
X199277261Y-156449523D01*
X199229642Y-156544761D01*
X199134404Y-156592380D01*
X198991547Y-156592380D01*
X198896309Y-156544761D01*
X198848690Y-156497142D01*
X198372500Y-156592380D02*
X198372500Y-155925714D01*
X198372500Y-156116190D02*
X198324880Y-156020952D01*
X198277261Y-155973333D01*
X198182023Y-155925714D01*
X198086785Y-155925714D01*
X197753452Y-155925714D02*
X197753452Y-156592380D01*
X197753452Y-156020952D02*
X197705833Y-155973333D01*
X197610595Y-155925714D01*
X197467738Y-155925714D01*
X197372500Y-155973333D01*
X197324880Y-156068571D01*
X197324880Y-156592380D01*
X196848690Y-156592380D02*
X196848690Y-155925714D01*
X196848690Y-155592380D02*
X196896309Y-155640000D01*
X196848690Y-155687619D01*
X196801071Y-155640000D01*
X196848690Y-155592380D01*
X196848690Y-155687619D01*
X196372500Y-155925714D02*
X196372500Y-156592380D01*
X196372500Y-156020952D02*
X196324880Y-155973333D01*
X196229642Y-155925714D01*
X196086785Y-155925714D01*
X195991547Y-155973333D01*
X195943928Y-156068571D01*
X195943928Y-156592380D01*
X195039166Y-155925714D02*
X195039166Y-156735238D01*
X195086785Y-156830476D01*
X195134404Y-156878095D01*
X195229642Y-156925714D01*
X195372500Y-156925714D01*
X195467738Y-156878095D01*
X195039166Y-156544761D02*
X195134404Y-156592380D01*
X195324880Y-156592380D01*
X195420119Y-156544761D01*
X195467738Y-156497142D01*
X195515357Y-156401904D01*
X195515357Y-156116190D01*
X195467738Y-156020952D01*
X195420119Y-155973333D01*
X195324880Y-155925714D01*
X195134404Y-155925714D01*
X195039166Y-155973333D01*
X193372500Y-156544761D02*
X193467738Y-156592380D01*
X193658214Y-156592380D01*
X193753452Y-156544761D01*
X193801071Y-156497142D01*
X193848690Y-156401904D01*
X193848690Y-156116190D01*
X193801071Y-156020952D01*
X193753452Y-155973333D01*
X193658214Y-155925714D01*
X193467738Y-155925714D01*
X193372500Y-155973333D01*
X192801071Y-156592380D02*
X192896309Y-156544761D01*
X192943928Y-156497142D01*
X192991547Y-156401904D01*
X192991547Y-156116190D01*
X192943928Y-156020952D01*
X192896309Y-155973333D01*
X192801071Y-155925714D01*
X192658214Y-155925714D01*
X192562976Y-155973333D01*
X192515357Y-156020952D01*
X192467738Y-156116190D01*
X192467738Y-156401904D01*
X192515357Y-156497142D01*
X192562976Y-156544761D01*
X192658214Y-156592380D01*
X192801071Y-156592380D01*
X191610595Y-156592380D02*
X191610595Y-155592380D01*
X191610595Y-156544761D02*
X191705833Y-156592380D01*
X191896309Y-156592380D01*
X191991547Y-156544761D01*
X192039166Y-156497142D01*
X192086785Y-156401904D01*
X192086785Y-156116190D01*
X192039166Y-156020952D01*
X191991547Y-155973333D01*
X191896309Y-155925714D01*
X191705833Y-155925714D01*
X191610595Y-155973333D01*
X190753452Y-156544761D02*
X190848690Y-156592380D01*
X191039166Y-156592380D01*
X191134404Y-156544761D01*
X191182023Y-156449523D01*
X191182023Y-156068571D01*
X191134404Y-155973333D01*
X191039166Y-155925714D01*
X190848690Y-155925714D01*
X190753452Y-155973333D01*
X190705833Y-156068571D01*
X190705833Y-156163809D01*
X191182023Y-156259047D01*
X189372500Y-155592380D02*
X189372500Y-155830476D01*
X189610595Y-155735238D02*
X189372500Y-155830476D01*
X189134404Y-155735238D01*
X189515357Y-156020952D02*
X189372500Y-155830476D01*
X189229642Y-156020952D01*
X188753452Y-156592380D02*
X188753452Y-155925714D01*
X188753452Y-156020952D02*
X188705833Y-155973333D01*
X188610595Y-155925714D01*
X188467738Y-155925714D01*
X188372500Y-155973333D01*
X188324880Y-156068571D01*
X188324880Y-156592380D01*
X188324880Y-156068571D02*
X188277261Y-155973333D01*
X188182023Y-155925714D01*
X188039166Y-155925714D01*
X187943928Y-155973333D01*
X187896309Y-156068571D01*
X187896309Y-156592380D01*
X186991547Y-155925714D02*
X186991547Y-156592380D01*
X187420119Y-155925714D02*
X187420119Y-156449523D01*
X187372500Y-156544761D01*
X187277261Y-156592380D01*
X187134404Y-156592380D01*
X187039166Y-156544761D01*
X186991547Y-156497142D01*
X186562976Y-156544761D02*
X186467738Y-156592380D01*
X186277261Y-156592380D01*
X186182023Y-156544761D01*
X186134404Y-156449523D01*
X186134404Y-156401904D01*
X186182023Y-156306666D01*
X186277261Y-156259047D01*
X186420119Y-156259047D01*
X186515357Y-156211428D01*
X186562976Y-156116190D01*
X186562976Y-156068571D01*
X186515357Y-155973333D01*
X186420119Y-155925714D01*
X186277261Y-155925714D01*
X186182023Y-155973333D01*
X185848690Y-155925714D02*
X185467738Y-155925714D01*
X185705833Y-155592380D02*
X185705833Y-156449523D01*
X185658214Y-156544761D01*
X185562976Y-156592380D01*
X185467738Y-156592380D01*
X184991547Y-155592380D02*
X184991547Y-155830476D01*
X185229642Y-155735238D02*
X184991547Y-155830476D01*
X184753452Y-155735238D01*
X185134404Y-156020952D02*
X184991547Y-155830476D01*
X184848690Y-156020952D01*
X183610595Y-156592380D02*
X183610595Y-155925714D01*
X183610595Y-156116190D02*
X183562976Y-156020952D01*
X183515357Y-155973333D01*
X183420119Y-155925714D01*
X183324880Y-155925714D01*
X182562976Y-155925714D02*
X182562976Y-156592380D01*
X182991547Y-155925714D02*
X182991547Y-156449523D01*
X182943928Y-156544761D01*
X182848690Y-156592380D01*
X182705833Y-156592380D01*
X182610595Y-156544761D01*
X182562976Y-156497142D01*
X182086785Y-155925714D02*
X182086785Y-156592380D01*
X182086785Y-156020952D02*
X182039166Y-155973333D01*
X181943928Y-155925714D01*
X181801071Y-155925714D01*
X181705833Y-155973333D01*
X181658214Y-156068571D01*
X181658214Y-156592380D01*
X180562976Y-155925714D02*
X180182023Y-155925714D01*
X180420119Y-156592380D02*
X180420119Y-155735238D01*
X180372500Y-155640000D01*
X180277261Y-155592380D01*
X180182023Y-155592380D01*
X179848690Y-156592380D02*
X179848690Y-155925714D01*
X179848690Y-156116190D02*
X179801071Y-156020952D01*
X179753452Y-155973333D01*
X179658214Y-155925714D01*
X179562976Y-155925714D01*
X179086785Y-156592380D02*
X179182023Y-156544761D01*
X179229642Y-156497142D01*
X179277261Y-156401904D01*
X179277261Y-156116190D01*
X179229642Y-156020952D01*
X179182023Y-155973333D01*
X179086785Y-155925714D01*
X178943928Y-155925714D01*
X178848690Y-155973333D01*
X178801071Y-156020952D01*
X178753452Y-156116190D01*
X178753452Y-156401904D01*
X178801071Y-156497142D01*
X178848690Y-156544761D01*
X178943928Y-156592380D01*
X179086785Y-156592380D01*
X178324880Y-156592380D02*
X178324880Y-155925714D01*
X178324880Y-156020952D02*
X178277261Y-155973333D01*
X178182023Y-155925714D01*
X178039166Y-155925714D01*
X177943928Y-155973333D01*
X177896309Y-156068571D01*
X177896309Y-156592380D01*
X177896309Y-156068571D02*
X177848690Y-155973333D01*
X177753452Y-155925714D01*
X177610595Y-155925714D01*
X177515357Y-155973333D01*
X177467738Y-156068571D01*
X177467738Y-156592380D01*
X175658214Y-156592380D02*
X175991547Y-156116190D01*
X176229642Y-156592380D02*
X176229642Y-155592380D01*
X175848690Y-155592380D01*
X175753452Y-155640000D01*
X175705833Y-155687619D01*
X175658214Y-155782857D01*
X175658214Y-155925714D01*
X175705833Y-156020952D01*
X175753452Y-156068571D01*
X175848690Y-156116190D01*
X176229642Y-156116190D01*
X175277261Y-156306666D02*
X174801071Y-156306666D01*
X175372500Y-156592380D02*
X175039166Y-155592380D01*
X174705833Y-156592380D01*
X174372500Y-156592380D02*
X174372500Y-155592380D01*
X174039166Y-156306666D01*
X173705833Y-155592380D01*
X173705833Y-156592380D01*
X173229642Y-156497142D02*
X173182023Y-156544761D01*
X173229642Y-156592380D01*
X173277261Y-156544761D01*
X173229642Y-156497142D01*
X173229642Y-156592380D01*
X204134404Y-158242380D02*
X204134404Y-157242380D01*
X203658214Y-157575714D02*
X203658214Y-158242380D01*
X203658214Y-157670952D02*
X203610595Y-157623333D01*
X203515357Y-157575714D01*
X203372500Y-157575714D01*
X203277261Y-157623333D01*
X203229642Y-157718571D01*
X203229642Y-158242380D01*
X202896309Y-157575714D02*
X202515357Y-157575714D01*
X202753452Y-157242380D02*
X202753452Y-158099523D01*
X202705833Y-158194761D01*
X202610595Y-158242380D01*
X202515357Y-158242380D01*
X201801071Y-158194761D02*
X201896309Y-158242380D01*
X202086785Y-158242380D01*
X202182023Y-158194761D01*
X202229642Y-158099523D01*
X202229642Y-157718571D01*
X202182023Y-157623333D01*
X202086785Y-157575714D01*
X201896309Y-157575714D01*
X201801071Y-157623333D01*
X201753452Y-157718571D01*
X201753452Y-157813809D01*
X202229642Y-157909047D01*
X201324880Y-158242380D02*
X201324880Y-157575714D01*
X201324880Y-157766190D02*
X201277261Y-157670952D01*
X201229642Y-157623333D01*
X201134404Y-157575714D01*
X201039166Y-157575714D01*
X200705833Y-158242380D02*
X200705833Y-157575714D01*
X200705833Y-157766190D02*
X200658214Y-157670952D01*
X200610595Y-157623333D01*
X200515357Y-157575714D01*
X200420119Y-157575714D01*
X199658214Y-157575714D02*
X199658214Y-158242380D01*
X200086785Y-157575714D02*
X200086785Y-158099523D01*
X200039166Y-158194761D01*
X199943928Y-158242380D01*
X199801071Y-158242380D01*
X199705833Y-158194761D01*
X199658214Y-158147142D01*
X199182023Y-157575714D02*
X199182023Y-158575714D01*
X199182023Y-157623333D02*
X199086785Y-157575714D01*
X198896309Y-157575714D01*
X198801071Y-157623333D01*
X198753452Y-157670952D01*
X198705833Y-157766190D01*
X198705833Y-158051904D01*
X198753452Y-158147142D01*
X198801071Y-158194761D01*
X198896309Y-158242380D01*
X199086785Y-158242380D01*
X199182023Y-158194761D01*
X198420119Y-157575714D02*
X198039166Y-157575714D01*
X198277261Y-157242380D02*
X198277261Y-158099523D01*
X198229642Y-158194761D01*
X198134404Y-158242380D01*
X198039166Y-158242380D01*
X197753452Y-158194761D02*
X197658214Y-158242380D01*
X197467738Y-158242380D01*
X197372500Y-158194761D01*
X197324880Y-158099523D01*
X197324880Y-158051904D01*
X197372500Y-157956666D01*
X197467738Y-157909047D01*
X197610595Y-157909047D01*
X197705833Y-157861428D01*
X197753452Y-157766190D01*
X197753452Y-157718571D01*
X197705833Y-157623333D01*
X197610595Y-157575714D01*
X197467738Y-157575714D01*
X197372500Y-157623333D01*
X195991547Y-157242380D02*
X195991547Y-157480476D01*
X196229642Y-157385238D02*
X195991547Y-157480476D01*
X195753452Y-157385238D01*
X196134404Y-157670952D02*
X195991547Y-157480476D01*
X195848690Y-157670952D01*
X195372500Y-158242380D02*
X195372500Y-157575714D01*
X195372500Y-157670952D02*
X195324880Y-157623333D01*
X195229642Y-157575714D01*
X195086785Y-157575714D01*
X194991547Y-157623333D01*
X194943928Y-157718571D01*
X194943928Y-158242380D01*
X194943928Y-157718571D02*
X194896309Y-157623333D01*
X194801071Y-157575714D01*
X194658214Y-157575714D01*
X194562976Y-157623333D01*
X194515357Y-157718571D01*
X194515357Y-158242380D01*
X193610595Y-157575714D02*
X193610595Y-158242380D01*
X194039166Y-157575714D02*
X194039166Y-158099523D01*
X193991547Y-158194761D01*
X193896309Y-158242380D01*
X193753452Y-158242380D01*
X193658214Y-158194761D01*
X193610595Y-158147142D01*
X193182023Y-158194761D02*
X193086785Y-158242380D01*
X192896309Y-158242380D01*
X192801071Y-158194761D01*
X192753452Y-158099523D01*
X192753452Y-158051904D01*
X192801071Y-157956666D01*
X192896309Y-157909047D01*
X193039166Y-157909047D01*
X193134404Y-157861428D01*
X193182023Y-157766190D01*
X193182023Y-157718571D01*
X193134404Y-157623333D01*
X193039166Y-157575714D01*
X192896309Y-157575714D01*
X192801071Y-157623333D01*
X192467738Y-157575714D02*
X192086785Y-157575714D01*
X192324880Y-157242380D02*
X192324880Y-158099523D01*
X192277261Y-158194761D01*
X192182023Y-158242380D01*
X192086785Y-158242380D01*
X191610595Y-157242380D02*
X191610595Y-157480476D01*
X191848690Y-157385238D02*
X191610595Y-157480476D01*
X191372500Y-157385238D01*
X191753452Y-157670952D02*
X191610595Y-157480476D01*
X191467738Y-157670952D01*
X190229642Y-158242380D02*
X190229642Y-157242380D01*
X190229642Y-157623333D02*
X190134404Y-157575714D01*
X189943928Y-157575714D01*
X189848690Y-157623333D01*
X189801071Y-157670952D01*
X189753452Y-157766190D01*
X189753452Y-158051904D01*
X189801071Y-158147142D01*
X189848690Y-158194761D01*
X189943928Y-158242380D01*
X190134404Y-158242380D01*
X190229642Y-158194761D01*
X188943928Y-158194761D02*
X189039166Y-158242380D01*
X189229642Y-158242380D01*
X189324880Y-158194761D01*
X189372500Y-158099523D01*
X189372500Y-157718571D01*
X189324880Y-157623333D01*
X189229642Y-157575714D01*
X189039166Y-157575714D01*
X188943928Y-157623333D01*
X188896309Y-157718571D01*
X188896309Y-157813809D01*
X189372500Y-157909047D01*
X187277261Y-158242380D02*
X187277261Y-157242380D01*
X187277261Y-158194761D02*
X187372500Y-158242380D01*
X187562976Y-158242380D01*
X187658214Y-158194761D01*
X187705833Y-158147142D01*
X187753452Y-158051904D01*
X187753452Y-157766190D01*
X187705833Y-157670952D01*
X187658214Y-157623333D01*
X187562976Y-157575714D01*
X187372500Y-157575714D01*
X187277261Y-157623333D01*
X186801071Y-158242380D02*
X186801071Y-157575714D01*
X186801071Y-157242380D02*
X186848690Y-157290000D01*
X186801071Y-157337619D01*
X186753452Y-157290000D01*
X186801071Y-157242380D01*
X186801071Y-157337619D01*
X186372500Y-158194761D02*
X186277261Y-158242380D01*
X186086785Y-158242380D01*
X185991547Y-158194761D01*
X185943928Y-158099523D01*
X185943928Y-158051904D01*
X185991547Y-157956666D01*
X186086785Y-157909047D01*
X186229642Y-157909047D01*
X186324880Y-157861428D01*
X186372500Y-157766190D01*
X186372500Y-157718571D01*
X186324880Y-157623333D01*
X186229642Y-157575714D01*
X186086785Y-157575714D01*
X185991547Y-157623333D01*
X185086785Y-158242380D02*
X185086785Y-157718571D01*
X185134404Y-157623333D01*
X185229642Y-157575714D01*
X185420119Y-157575714D01*
X185515357Y-157623333D01*
X185086785Y-158194761D02*
X185182023Y-158242380D01*
X185420119Y-158242380D01*
X185515357Y-158194761D01*
X185562976Y-158099523D01*
X185562976Y-158004285D01*
X185515357Y-157909047D01*
X185420119Y-157861428D01*
X185182023Y-157861428D01*
X185086785Y-157813809D01*
X184610595Y-158242380D02*
X184610595Y-157242380D01*
X184610595Y-157623333D02*
X184515357Y-157575714D01*
X184324880Y-157575714D01*
X184229642Y-157623333D01*
X184182023Y-157670952D01*
X184134404Y-157766190D01*
X184134404Y-158051904D01*
X184182023Y-158147142D01*
X184229642Y-158194761D01*
X184324880Y-158242380D01*
X184515357Y-158242380D01*
X184610595Y-158194761D01*
X183562976Y-158242380D02*
X183658214Y-158194761D01*
X183705833Y-158099523D01*
X183705833Y-157242380D01*
X182801071Y-158194761D02*
X182896309Y-158242380D01*
X183086785Y-158242380D01*
X183182023Y-158194761D01*
X183229642Y-158099523D01*
X183229642Y-157718571D01*
X183182023Y-157623333D01*
X183086785Y-157575714D01*
X182896309Y-157575714D01*
X182801071Y-157623333D01*
X182753452Y-157718571D01*
X182753452Y-157813809D01*
X183229642Y-157909047D01*
X181896309Y-158242380D02*
X181896309Y-157242380D01*
X181896309Y-158194761D02*
X181991547Y-158242380D01*
X182182023Y-158242380D01*
X182277261Y-158194761D01*
X182324880Y-158147142D01*
X182372500Y-158051904D01*
X182372500Y-157766190D01*
X182324880Y-157670952D01*
X182277261Y-157623333D01*
X182182023Y-157575714D01*
X181991547Y-157575714D01*
X181896309Y-157623333D01*
X180753452Y-157575714D02*
X180562976Y-158242380D01*
X180372500Y-157766190D01*
X180182023Y-158242380D01*
X179991547Y-157575714D01*
X179610595Y-158242380D02*
X179610595Y-157242380D01*
X179182023Y-158242380D02*
X179182023Y-157718571D01*
X179229642Y-157623333D01*
X179324880Y-157575714D01*
X179467738Y-157575714D01*
X179562976Y-157623333D01*
X179610595Y-157670952D01*
X178705833Y-158242380D02*
X178705833Y-157575714D01*
X178705833Y-157242380D02*
X178753452Y-157290000D01*
X178705833Y-157337619D01*
X178658214Y-157290000D01*
X178705833Y-157242380D01*
X178705833Y-157337619D01*
X178086785Y-158242380D02*
X178182023Y-158194761D01*
X178229642Y-158099523D01*
X178229642Y-157242380D01*
X177753452Y-158194761D02*
X177658214Y-158242380D01*
X177467738Y-158242380D01*
X177372500Y-158194761D01*
X177324880Y-158099523D01*
X177324880Y-158051904D01*
X177372500Y-157956666D01*
X177467738Y-157909047D01*
X177610595Y-157909047D01*
X177705833Y-157861428D01*
X177753452Y-157766190D01*
X177753452Y-157718571D01*
X177705833Y-157623333D01*
X177610595Y-157575714D01*
X177467738Y-157575714D01*
X177372500Y-157623333D01*
X176134404Y-158242380D02*
X176134404Y-157242380D01*
X176134404Y-157623333D02*
X176039166Y-157575714D01*
X175848690Y-157575714D01*
X175753452Y-157623333D01*
X175705833Y-157670952D01*
X175658214Y-157766190D01*
X175658214Y-158051904D01*
X175705833Y-158147142D01*
X175753452Y-158194761D01*
X175848690Y-158242380D01*
X176039166Y-158242380D01*
X176134404Y-158194761D01*
X174801071Y-157575714D02*
X174801071Y-158242380D01*
X175229642Y-157575714D02*
X175229642Y-158099523D01*
X175182023Y-158194761D01*
X175086785Y-158242380D01*
X174943928Y-158242380D01*
X174848690Y-158194761D01*
X174801071Y-158147142D01*
X174324880Y-158242380D02*
X174324880Y-157575714D01*
X174324880Y-157766190D02*
X174277261Y-157670952D01*
X174229642Y-157623333D01*
X174134404Y-157575714D01*
X174039166Y-157575714D01*
X173705833Y-157575714D02*
X173705833Y-158242380D01*
X173705833Y-157670952D02*
X173658214Y-157623333D01*
X173562976Y-157575714D01*
X173420119Y-157575714D01*
X173324880Y-157623333D01*
X173277261Y-157718571D01*
X173277261Y-158242380D01*
X172801071Y-158242380D02*
X172801071Y-157575714D01*
X172801071Y-157242380D02*
X172848690Y-157290000D01*
X172801071Y-157337619D01*
X172753452Y-157290000D01*
X172801071Y-157242380D01*
X172801071Y-157337619D01*
X172324880Y-157575714D02*
X172324880Y-158242380D01*
X172324880Y-157670952D02*
X172277261Y-157623333D01*
X172182023Y-157575714D01*
X172039166Y-157575714D01*
X171943928Y-157623333D01*
X171896309Y-157718571D01*
X171896309Y-158242380D01*
X170991547Y-157575714D02*
X170991547Y-158385238D01*
X171039166Y-158480476D01*
X171086785Y-158528095D01*
X171182023Y-158575714D01*
X171324880Y-158575714D01*
X171420119Y-158528095D01*
X170991547Y-158194761D02*
X171086785Y-158242380D01*
X171277261Y-158242380D01*
X171372500Y-158194761D01*
X171420119Y-158147142D01*
X171467738Y-158051904D01*
X171467738Y-157766190D01*
X171420119Y-157670952D01*
X171372500Y-157623333D01*
X171277261Y-157575714D01*
X171086785Y-157575714D01*
X170991547Y-157623333D01*
X170515357Y-158147142D02*
X170467738Y-158194761D01*
X170515357Y-158242380D01*
X170562976Y-158194761D01*
X170515357Y-158147142D01*
X170515357Y-158242380D01*
X202927976Y-122437380D02*
X203261309Y-121961190D01*
X203499404Y-122437380D02*
X203499404Y-121437380D01*
X203118452Y-121437380D01*
X203023214Y-121485000D01*
X202975595Y-121532619D01*
X202927976Y-121627857D01*
X202927976Y-121770714D01*
X202975595Y-121865952D01*
X203023214Y-121913571D01*
X203118452Y-121961190D01*
X203499404Y-121961190D01*
X202308928Y-121437380D02*
X202118452Y-121437380D01*
X202023214Y-121485000D01*
X201927976Y-121580238D01*
X201880357Y-121770714D01*
X201880357Y-122104047D01*
X201927976Y-122294523D01*
X202023214Y-122389761D01*
X202118452Y-122437380D01*
X202308928Y-122437380D01*
X202404166Y-122389761D01*
X202499404Y-122294523D01*
X202547023Y-122104047D01*
X202547023Y-121770714D01*
X202499404Y-121580238D01*
X202404166Y-121485000D01*
X202308928Y-121437380D01*
X201451785Y-122437380D02*
X201451785Y-121437380D01*
X201118452Y-122151666D01*
X200785119Y-121437380D01*
X200785119Y-122437380D01*
X199594642Y-122389761D02*
X199499404Y-122437380D01*
X199308928Y-122437380D01*
X199213690Y-122389761D01*
X199166071Y-122294523D01*
X199166071Y-122246904D01*
X199213690Y-122151666D01*
X199308928Y-122104047D01*
X199451785Y-122104047D01*
X199547023Y-122056428D01*
X199594642Y-121961190D01*
X199594642Y-121913571D01*
X199547023Y-121818333D01*
X199451785Y-121770714D01*
X199308928Y-121770714D01*
X199213690Y-121818333D01*
X198594642Y-122437380D02*
X198689880Y-122389761D01*
X198737500Y-122294523D01*
X198737500Y-121437380D01*
X198070833Y-122437380D02*
X198166071Y-122389761D01*
X198213690Y-122342142D01*
X198261309Y-122246904D01*
X198261309Y-121961190D01*
X198213690Y-121865952D01*
X198166071Y-121818333D01*
X198070833Y-121770714D01*
X197927976Y-121770714D01*
X197832738Y-121818333D01*
X197785119Y-121865952D01*
X197737500Y-121961190D01*
X197737500Y-122246904D01*
X197785119Y-122342142D01*
X197832738Y-122389761D01*
X197927976Y-122437380D01*
X198070833Y-122437380D01*
X197451785Y-121770714D02*
X197070833Y-121770714D01*
X197308928Y-121437380D02*
X197308928Y-122294523D01*
X197261309Y-122389761D01*
X197166071Y-122437380D01*
X197070833Y-122437380D01*
X196070833Y-121437380D02*
X195451785Y-121437380D01*
X195785119Y-121818333D01*
X195642261Y-121818333D01*
X195547023Y-121865952D01*
X195499404Y-121913571D01*
X195451785Y-122008809D01*
X195451785Y-122246904D01*
X195499404Y-122342142D01*
X195547023Y-122389761D01*
X195642261Y-122437380D01*
X195927976Y-122437380D01*
X196023214Y-122389761D01*
X196070833Y-122342142D01*
X194499404Y-122437380D02*
X195070833Y-122437380D01*
X194785119Y-122437380D02*
X194785119Y-121437380D01*
X194880357Y-121580238D01*
X194975595Y-121675476D01*
X195070833Y-121723095D01*
X193308928Y-122437380D02*
X193308928Y-121770714D01*
X193308928Y-121437380D02*
X193356547Y-121485000D01*
X193308928Y-121532619D01*
X193261309Y-121485000D01*
X193308928Y-121437380D01*
X193308928Y-121532619D01*
X192880357Y-122389761D02*
X192785119Y-122437380D01*
X192594642Y-122437380D01*
X192499404Y-122389761D01*
X192451785Y-122294523D01*
X192451785Y-122246904D01*
X192499404Y-122151666D01*
X192594642Y-122104047D01*
X192737500Y-122104047D01*
X192832738Y-122056428D01*
X192880357Y-121961190D01*
X192880357Y-121913571D01*
X192832738Y-121818333D01*
X192737500Y-121770714D01*
X192594642Y-121770714D01*
X192499404Y-121818333D01*
X191404166Y-121770714D02*
X191023214Y-121770714D01*
X191261309Y-122437380D02*
X191261309Y-121580238D01*
X191213690Y-121485000D01*
X191118452Y-121437380D01*
X191023214Y-121437380D01*
X190689880Y-122437380D02*
X190689880Y-121770714D01*
X190689880Y-121437380D02*
X190737500Y-121485000D01*
X190689880Y-121532619D01*
X190642261Y-121485000D01*
X190689880Y-121437380D01*
X190689880Y-121532619D01*
X190213690Y-122437380D02*
X190213690Y-121770714D01*
X190213690Y-121961190D02*
X190166071Y-121865952D01*
X190118452Y-121818333D01*
X190023214Y-121770714D01*
X189927976Y-121770714D01*
X189594642Y-122437380D02*
X189594642Y-121770714D01*
X189594642Y-121865952D02*
X189547023Y-121818333D01*
X189451785Y-121770714D01*
X189308928Y-121770714D01*
X189213690Y-121818333D01*
X189166071Y-121913571D01*
X189166071Y-122437380D01*
X189166071Y-121913571D02*
X189118452Y-121818333D01*
X189023214Y-121770714D01*
X188880357Y-121770714D01*
X188785119Y-121818333D01*
X188737500Y-121913571D01*
X188737500Y-122437380D01*
X188356547Y-121770714D02*
X188166071Y-122437380D01*
X187975595Y-121961190D01*
X187785119Y-122437380D01*
X187594642Y-121770714D01*
X186785119Y-122437380D02*
X186785119Y-121913571D01*
X186832738Y-121818333D01*
X186927976Y-121770714D01*
X187118452Y-121770714D01*
X187213690Y-121818333D01*
X186785119Y-122389761D02*
X186880357Y-122437380D01*
X187118452Y-122437380D01*
X187213690Y-122389761D01*
X187261309Y-122294523D01*
X187261309Y-122199285D01*
X187213690Y-122104047D01*
X187118452Y-122056428D01*
X186880357Y-122056428D01*
X186785119Y-122008809D01*
X186308928Y-122437380D02*
X186308928Y-121770714D01*
X186308928Y-121961190D02*
X186261309Y-121865952D01*
X186213690Y-121818333D01*
X186118452Y-121770714D01*
X186023214Y-121770714D01*
X185308928Y-122389761D02*
X185404166Y-122437380D01*
X185594642Y-122437380D01*
X185689880Y-122389761D01*
X185737500Y-122294523D01*
X185737500Y-121913571D01*
X185689880Y-121818333D01*
X185594642Y-121770714D01*
X185404166Y-121770714D01*
X185308928Y-121818333D01*
X185261309Y-121913571D01*
X185261309Y-122008809D01*
X185737500Y-122104047D01*
X203547023Y-124039761D02*
X203404166Y-124087380D01*
X203166071Y-124087380D01*
X203070833Y-124039761D01*
X203023214Y-123992142D01*
X202975595Y-123896904D01*
X202975595Y-123801666D01*
X203023214Y-123706428D01*
X203070833Y-123658809D01*
X203166071Y-123611190D01*
X203356547Y-123563571D01*
X203451785Y-123515952D01*
X203499404Y-123468333D01*
X203547023Y-123373095D01*
X203547023Y-123277857D01*
X203499404Y-123182619D01*
X203451785Y-123135000D01*
X203356547Y-123087380D01*
X203118452Y-123087380D01*
X202975595Y-123135000D01*
X202404166Y-124087380D02*
X202499404Y-124039761D01*
X202547023Y-123944523D01*
X202547023Y-123087380D01*
X201880357Y-124087380D02*
X201975595Y-124039761D01*
X202023214Y-123992142D01*
X202070833Y-123896904D01*
X202070833Y-123611190D01*
X202023214Y-123515952D01*
X201975595Y-123468333D01*
X201880357Y-123420714D01*
X201737500Y-123420714D01*
X201642261Y-123468333D01*
X201594642Y-123515952D01*
X201547023Y-123611190D01*
X201547023Y-123896904D01*
X201594642Y-123992142D01*
X201642261Y-124039761D01*
X201737500Y-124087380D01*
X201880357Y-124087380D01*
X201261309Y-123420714D02*
X200880357Y-123420714D01*
X201118452Y-123087380D02*
X201118452Y-123944523D01*
X201070833Y-124039761D01*
X200975595Y-124087380D01*
X200880357Y-124087380D01*
X200594642Y-124039761D02*
X200499404Y-124087380D01*
X200308928Y-124087380D01*
X200213690Y-124039761D01*
X200166071Y-123944523D01*
X200166071Y-123896904D01*
X200213690Y-123801666D01*
X200308928Y-123754047D01*
X200451785Y-123754047D01*
X200547023Y-123706428D01*
X200594642Y-123611190D01*
X200594642Y-123563571D01*
X200547023Y-123468333D01*
X200451785Y-123420714D01*
X200308928Y-123420714D01*
X200213690Y-123468333D01*
X198785119Y-123087380D02*
X198689880Y-123087380D01*
X198594642Y-123135000D01*
X198547023Y-123182619D01*
X198499404Y-123277857D01*
X198451785Y-123468333D01*
X198451785Y-123706428D01*
X198499404Y-123896904D01*
X198547023Y-123992142D01*
X198594642Y-124039761D01*
X198689880Y-124087380D01*
X198785119Y-124087380D01*
X198880357Y-124039761D01*
X198927976Y-123992142D01*
X198975595Y-123896904D01*
X199023214Y-123706428D01*
X199023214Y-123468333D01*
X198975595Y-123277857D01*
X198927976Y-123182619D01*
X198880357Y-123135000D01*
X198785119Y-123087380D01*
X198023214Y-123992142D02*
X197975595Y-124039761D01*
X198023214Y-124087380D01*
X198070833Y-124039761D01*
X198023214Y-123992142D01*
X198023214Y-124087380D01*
X197547023Y-123992142D02*
X197499404Y-124039761D01*
X197547023Y-124087380D01*
X197594642Y-124039761D01*
X197547023Y-123992142D01*
X197547023Y-124087380D01*
X197166071Y-123087380D02*
X196547023Y-123087380D01*
X196880357Y-123468333D01*
X196737500Y-123468333D01*
X196642261Y-123515952D01*
X196594642Y-123563571D01*
X196547023Y-123658809D01*
X196547023Y-123896904D01*
X196594642Y-123992142D01*
X196642261Y-124039761D01*
X196737500Y-124087380D01*
X197023214Y-124087380D01*
X197118452Y-124039761D01*
X197166071Y-123992142D01*
X195927976Y-123087380D02*
X195832738Y-123087380D01*
X195737500Y-123135000D01*
X195689880Y-123182619D01*
X195642261Y-123277857D01*
X195594642Y-123468333D01*
X195594642Y-123706428D01*
X195642261Y-123896904D01*
X195689880Y-123992142D01*
X195737500Y-124039761D01*
X195832738Y-124087380D01*
X195927976Y-124087380D01*
X196023214Y-124039761D01*
X196070833Y-123992142D01*
X196118452Y-123896904D01*
X196166071Y-123706428D01*
X196166071Y-123468333D01*
X196118452Y-123277857D01*
X196070833Y-123182619D01*
X196023214Y-123135000D01*
X195927976Y-123087380D01*
X193975595Y-124087380D02*
X193975595Y-123563571D01*
X194023214Y-123468333D01*
X194118452Y-123420714D01*
X194308928Y-123420714D01*
X194404166Y-123468333D01*
X193975595Y-124039761D02*
X194070833Y-124087380D01*
X194308928Y-124087380D01*
X194404166Y-124039761D01*
X194451785Y-123944523D01*
X194451785Y-123849285D01*
X194404166Y-123754047D01*
X194308928Y-123706428D01*
X194070833Y-123706428D01*
X193975595Y-123658809D01*
X193499404Y-124087380D02*
X193499404Y-123420714D01*
X193499404Y-123611190D02*
X193451785Y-123515952D01*
X193404166Y-123468333D01*
X193308928Y-123420714D01*
X193213690Y-123420714D01*
X192499404Y-124039761D02*
X192594642Y-124087380D01*
X192785119Y-124087380D01*
X192880357Y-124039761D01*
X192927976Y-123944523D01*
X192927976Y-123563571D01*
X192880357Y-123468333D01*
X192785119Y-123420714D01*
X192594642Y-123420714D01*
X192499404Y-123468333D01*
X192451785Y-123563571D01*
X192451785Y-123658809D01*
X192927976Y-123754047D01*
X190832738Y-123420714D02*
X190832738Y-124087380D01*
X191261309Y-123420714D02*
X191261309Y-123944523D01*
X191213690Y-124039761D01*
X191118452Y-124087380D01*
X190975595Y-124087380D01*
X190880357Y-124039761D01*
X190832738Y-123992142D01*
X190356547Y-123420714D02*
X190356547Y-124420714D01*
X190356547Y-123468333D02*
X190261309Y-123420714D01*
X190070833Y-123420714D01*
X189975595Y-123468333D01*
X189927976Y-123515952D01*
X189880357Y-123611190D01*
X189880357Y-123896904D01*
X189927976Y-123992142D01*
X189975595Y-124039761D01*
X190070833Y-124087380D01*
X190261309Y-124087380D01*
X190356547Y-124039761D01*
X189451785Y-123420714D02*
X189451785Y-124420714D01*
X189451785Y-123468333D02*
X189356547Y-123420714D01*
X189166071Y-123420714D01*
X189070833Y-123468333D01*
X189023214Y-123515952D01*
X188975595Y-123611190D01*
X188975595Y-123896904D01*
X189023214Y-123992142D01*
X189070833Y-124039761D01*
X189166071Y-124087380D01*
X189356547Y-124087380D01*
X189451785Y-124039761D01*
X188166071Y-124039761D02*
X188261309Y-124087380D01*
X188451785Y-124087380D01*
X188547023Y-124039761D01*
X188594642Y-123944523D01*
X188594642Y-123563571D01*
X188547023Y-123468333D01*
X188451785Y-123420714D01*
X188261309Y-123420714D01*
X188166071Y-123468333D01*
X188118452Y-123563571D01*
X188118452Y-123658809D01*
X188594642Y-123754047D01*
X187689880Y-124087380D02*
X187689880Y-123420714D01*
X187689880Y-123611190D02*
X187642261Y-123515952D01*
X187594642Y-123468333D01*
X187499404Y-123420714D01*
X187404166Y-123420714D01*
X185737500Y-124087380D02*
X186070833Y-123611190D01*
X186308928Y-124087380D02*
X186308928Y-123087380D01*
X185927976Y-123087380D01*
X185832738Y-123135000D01*
X185785119Y-123182619D01*
X185737500Y-123277857D01*
X185737500Y-123420714D01*
X185785119Y-123515952D01*
X185832738Y-123563571D01*
X185927976Y-123611190D01*
X186308928Y-123611190D01*
X185118452Y-123087380D02*
X184927976Y-123087380D01*
X184832738Y-123135000D01*
X184737500Y-123230238D01*
X184689880Y-123420714D01*
X184689880Y-123754047D01*
X184737500Y-123944523D01*
X184832738Y-124039761D01*
X184927976Y-124087380D01*
X185118452Y-124087380D01*
X185213690Y-124039761D01*
X185308928Y-123944523D01*
X185356547Y-123754047D01*
X185356547Y-123420714D01*
X185308928Y-123230238D01*
X185213690Y-123135000D01*
X185118452Y-123087380D01*
X184261309Y-124087380D02*
X184261309Y-123087380D01*
X183927976Y-123801666D01*
X183594642Y-123087380D01*
X183594642Y-124087380D01*
X183166071Y-124039761D02*
X183070833Y-124087380D01*
X182880357Y-124087380D01*
X182785119Y-124039761D01*
X182737500Y-123944523D01*
X182737500Y-123896904D01*
X182785119Y-123801666D01*
X182880357Y-123754047D01*
X183023214Y-123754047D01*
X183118452Y-123706428D01*
X183166071Y-123611190D01*
X183166071Y-123563571D01*
X183118452Y-123468333D01*
X183023214Y-123420714D01*
X182880357Y-123420714D01*
X182785119Y-123468333D01*
X203499404Y-127387380D02*
X203499404Y-126387380D01*
X203118452Y-126387380D01*
X203023214Y-126435000D01*
X202975595Y-126482619D01*
X202927976Y-126577857D01*
X202927976Y-126720714D01*
X202975595Y-126815952D01*
X203023214Y-126863571D01*
X203118452Y-126911190D01*
X203499404Y-126911190D01*
X202356547Y-127387380D02*
X202451785Y-127339761D01*
X202499404Y-127292142D01*
X202547023Y-127196904D01*
X202547023Y-126911190D01*
X202499404Y-126815952D01*
X202451785Y-126768333D01*
X202356547Y-126720714D01*
X202213690Y-126720714D01*
X202118452Y-126768333D01*
X202070833Y-126815952D01*
X202023214Y-126911190D01*
X202023214Y-127196904D01*
X202070833Y-127292142D01*
X202118452Y-127339761D01*
X202213690Y-127387380D01*
X202356547Y-127387380D01*
X201594642Y-127387380D02*
X201594642Y-126720714D01*
X201594642Y-126911190D02*
X201547023Y-126815952D01*
X201499404Y-126768333D01*
X201404166Y-126720714D01*
X201308928Y-126720714D01*
X201118452Y-126720714D02*
X200737500Y-126720714D01*
X200975595Y-126387380D02*
X200975595Y-127244523D01*
X200927976Y-127339761D01*
X200832738Y-127387380D01*
X200737500Y-127387380D01*
X200451785Y-127339761D02*
X200356547Y-127387380D01*
X200166071Y-127387380D01*
X200070833Y-127339761D01*
X200023214Y-127244523D01*
X200023214Y-127196904D01*
X200070833Y-127101666D01*
X200166071Y-127054047D01*
X200308928Y-127054047D01*
X200404166Y-127006428D01*
X200451785Y-126911190D01*
X200451785Y-126863571D01*
X200404166Y-126768333D01*
X200308928Y-126720714D01*
X200166071Y-126720714D01*
X200070833Y-126768333D01*
X199594642Y-127292142D02*
X199547023Y-127339761D01*
X199594642Y-127387380D01*
X199642261Y-127339761D01*
X199594642Y-127292142D01*
X199594642Y-127387380D01*
X199594642Y-126768333D02*
X199547023Y-126815952D01*
X199594642Y-126863571D01*
X199642261Y-126815952D01*
X199594642Y-126768333D01*
X199594642Y-126863571D01*
X197785119Y-127387380D02*
X198118452Y-126911190D01*
X198356547Y-127387380D02*
X198356547Y-126387380D01*
X197975595Y-126387380D01*
X197880357Y-126435000D01*
X197832738Y-126482619D01*
X197785119Y-126577857D01*
X197785119Y-126720714D01*
X197832738Y-126815952D01*
X197880357Y-126863571D01*
X197975595Y-126911190D01*
X198356547Y-126911190D01*
X197166071Y-126387380D02*
X196975595Y-126387380D01*
X196880357Y-126435000D01*
X196785119Y-126530238D01*
X196737500Y-126720714D01*
X196737500Y-127054047D01*
X196785119Y-127244523D01*
X196880357Y-127339761D01*
X196975595Y-127387380D01*
X197166071Y-127387380D01*
X197261309Y-127339761D01*
X197356547Y-127244523D01*
X197404166Y-127054047D01*
X197404166Y-126720714D01*
X197356547Y-126530238D01*
X197261309Y-126435000D01*
X197166071Y-126387380D01*
X196308928Y-127387380D02*
X196308928Y-126387380D01*
X195975595Y-127101666D01*
X195642261Y-126387380D01*
X195642261Y-127387380D01*
X194451785Y-127339761D02*
X194356547Y-127387380D01*
X194166071Y-127387380D01*
X194070833Y-127339761D01*
X194023214Y-127244523D01*
X194023214Y-127196904D01*
X194070833Y-127101666D01*
X194166071Y-127054047D01*
X194308928Y-127054047D01*
X194404166Y-127006428D01*
X194451785Y-126911190D01*
X194451785Y-126863571D01*
X194404166Y-126768333D01*
X194308928Y-126720714D01*
X194166071Y-126720714D01*
X194070833Y-126768333D01*
X193213690Y-127339761D02*
X193308928Y-127387380D01*
X193499404Y-127387380D01*
X193594642Y-127339761D01*
X193642261Y-127244523D01*
X193642261Y-126863571D01*
X193594642Y-126768333D01*
X193499404Y-126720714D01*
X193308928Y-126720714D01*
X193213690Y-126768333D01*
X193166071Y-126863571D01*
X193166071Y-126958809D01*
X193642261Y-127054047D01*
X192594642Y-127387380D02*
X192689880Y-127339761D01*
X192737500Y-127244523D01*
X192737500Y-126387380D01*
X191832738Y-127339761D02*
X191927976Y-127387380D01*
X192118452Y-127387380D01*
X192213690Y-127339761D01*
X192261309Y-127244523D01*
X192261309Y-126863571D01*
X192213690Y-126768333D01*
X192118452Y-126720714D01*
X191927976Y-126720714D01*
X191832738Y-126768333D01*
X191785119Y-126863571D01*
X191785119Y-126958809D01*
X192261309Y-127054047D01*
X190927976Y-127339761D02*
X191023214Y-127387380D01*
X191213690Y-127387380D01*
X191308928Y-127339761D01*
X191356547Y-127292142D01*
X191404166Y-127196904D01*
X191404166Y-126911190D01*
X191356547Y-126815952D01*
X191308928Y-126768333D01*
X191213690Y-126720714D01*
X191023214Y-126720714D01*
X190927976Y-126768333D01*
X190642261Y-126720714D02*
X190261309Y-126720714D01*
X190499404Y-126387380D02*
X190499404Y-127244523D01*
X190451785Y-127339761D01*
X190356547Y-127387380D01*
X190261309Y-127387380D01*
X189927976Y-127292142D02*
X189880357Y-127339761D01*
X189927976Y-127387380D01*
X189975595Y-127339761D01*
X189927976Y-127292142D01*
X189927976Y-127387380D01*
X189927976Y-126768333D02*
X189880357Y-126815952D01*
X189927976Y-126863571D01*
X189975595Y-126815952D01*
X189927976Y-126768333D01*
X189927976Y-126863571D01*
X187880357Y-127387380D02*
X187927976Y-127387380D01*
X188023214Y-127339761D01*
X188166071Y-127196904D01*
X188404166Y-126911190D01*
X188499404Y-126768333D01*
X188547023Y-126625476D01*
X188547023Y-126530238D01*
X188499404Y-126435000D01*
X188404166Y-126387380D01*
X188356547Y-126387380D01*
X188261309Y-126435000D01*
X188213690Y-126530238D01*
X188213690Y-126577857D01*
X188261309Y-126673095D01*
X188308928Y-126720714D01*
X188594642Y-126911190D01*
X188642261Y-126958809D01*
X188689880Y-127054047D01*
X188689880Y-127196904D01*
X188642261Y-127292142D01*
X188594642Y-127339761D01*
X188499404Y-127387380D01*
X188356547Y-127387380D01*
X188261309Y-127339761D01*
X188213690Y-127292142D01*
X188070833Y-127101666D01*
X188023214Y-126958809D01*
X188023214Y-126863571D01*
X187023214Y-127387380D02*
X187023214Y-126387380D01*
X187023214Y-127339761D02*
X187118452Y-127387380D01*
X187308928Y-127387380D01*
X187404166Y-127339761D01*
X187451785Y-127292142D01*
X187499404Y-127196904D01*
X187499404Y-126911190D01*
X187451785Y-126815952D01*
X187404166Y-126768333D01*
X187308928Y-126720714D01*
X187118452Y-126720714D01*
X187023214Y-126768333D01*
X186689880Y-126720714D02*
X186308928Y-126720714D01*
X186547023Y-127387380D02*
X186547023Y-126530238D01*
X186499404Y-126435000D01*
X186404166Y-126387380D01*
X186308928Y-126387380D01*
X186118452Y-126720714D02*
X185737500Y-126720714D01*
X185975595Y-127387380D02*
X185975595Y-126530238D01*
X185927976Y-126435000D01*
X185832738Y-126387380D01*
X185737500Y-126387380D01*
X185547023Y-126720714D02*
X185166071Y-126720714D01*
X185404166Y-127387380D02*
X185404166Y-126530238D01*
X185356547Y-126435000D01*
X185261309Y-126387380D01*
X185166071Y-126387380D01*
X184832738Y-127292142D02*
X184785119Y-127339761D01*
X184832738Y-127387380D01*
X184880357Y-127339761D01*
X184832738Y-127292142D01*
X184832738Y-127387380D01*
X183689880Y-126387380D02*
X183451785Y-127387380D01*
X183261309Y-126673095D01*
X183070833Y-127387380D01*
X182832738Y-126387380D01*
X182451785Y-127387380D02*
X182451785Y-126720714D01*
X182451785Y-126911190D02*
X182404166Y-126815952D01*
X182356547Y-126768333D01*
X182261309Y-126720714D01*
X182166071Y-126720714D01*
X181832738Y-127387380D02*
X181832738Y-126720714D01*
X181832738Y-126387380D02*
X181880357Y-126435000D01*
X181832738Y-126482619D01*
X181785119Y-126435000D01*
X181832738Y-126387380D01*
X181832738Y-126482619D01*
X181499404Y-126720714D02*
X181118452Y-126720714D01*
X181356547Y-126387380D02*
X181356547Y-127244523D01*
X181308928Y-127339761D01*
X181213690Y-127387380D01*
X181118452Y-127387380D01*
X180404166Y-127339761D02*
X180499404Y-127387380D01*
X180689880Y-127387380D01*
X180785119Y-127339761D01*
X180832738Y-127244523D01*
X180832738Y-126863571D01*
X180785119Y-126768333D01*
X180689880Y-126720714D01*
X180499404Y-126720714D01*
X180404166Y-126768333D01*
X180356547Y-126863571D01*
X180356547Y-126958809D01*
X180832738Y-127054047D01*
X178737500Y-127339761D02*
X178832738Y-127387380D01*
X179023214Y-127387380D01*
X179118452Y-127339761D01*
X179166071Y-127292142D01*
X179213690Y-127196904D01*
X179213690Y-126911190D01*
X179166071Y-126815952D01*
X179118452Y-126768333D01*
X179023214Y-126720714D01*
X178832738Y-126720714D01*
X178737500Y-126768333D01*
X178166071Y-127387380D02*
X178261309Y-127339761D01*
X178308928Y-127292142D01*
X178356547Y-127196904D01*
X178356547Y-126911190D01*
X178308928Y-126815952D01*
X178261309Y-126768333D01*
X178166071Y-126720714D01*
X178023214Y-126720714D01*
X177927976Y-126768333D01*
X177880357Y-126815952D01*
X177832738Y-126911190D01*
X177832738Y-127196904D01*
X177880357Y-127292142D01*
X177927976Y-127339761D01*
X178023214Y-127387380D01*
X178166071Y-127387380D01*
X177404166Y-126720714D02*
X177404166Y-127387380D01*
X177404166Y-126815952D02*
X177356547Y-126768333D01*
X177261309Y-126720714D01*
X177118452Y-126720714D01*
X177023214Y-126768333D01*
X176975595Y-126863571D01*
X176975595Y-127387380D01*
X176642261Y-126720714D02*
X176261309Y-126720714D01*
X176499404Y-126387380D02*
X176499404Y-127244523D01*
X176451785Y-127339761D01*
X176356547Y-127387380D01*
X176261309Y-127387380D01*
X175927976Y-127387380D02*
X175927976Y-126720714D01*
X175927976Y-126911190D02*
X175880357Y-126815952D01*
X175832738Y-126768333D01*
X175737500Y-126720714D01*
X175642261Y-126720714D01*
X175166071Y-127387380D02*
X175261309Y-127339761D01*
X175308928Y-127292142D01*
X175356547Y-127196904D01*
X175356547Y-126911190D01*
X175308928Y-126815952D01*
X175261309Y-126768333D01*
X175166071Y-126720714D01*
X175023214Y-126720714D01*
X174927976Y-126768333D01*
X174880357Y-126815952D01*
X174832738Y-126911190D01*
X174832738Y-127196904D01*
X174880357Y-127292142D01*
X174927976Y-127339761D01*
X175023214Y-127387380D01*
X175166071Y-127387380D01*
X174261309Y-127387380D02*
X174356547Y-127339761D01*
X174404166Y-127244523D01*
X174404166Y-126387380D01*
X173880357Y-127292142D02*
X173832738Y-127339761D01*
X173880357Y-127387380D01*
X173927976Y-127339761D01*
X173880357Y-127292142D01*
X173880357Y-127387380D01*
X173880357Y-126768333D02*
X173832738Y-126815952D01*
X173880357Y-126863571D01*
X173927976Y-126815952D01*
X173880357Y-126768333D01*
X173880357Y-126863571D01*
X171832738Y-127387380D02*
X171880357Y-127387380D01*
X171975595Y-127339761D01*
X172118452Y-127196904D01*
X172356547Y-126911190D01*
X172451785Y-126768333D01*
X172499404Y-126625476D01*
X172499404Y-126530238D01*
X172451785Y-126435000D01*
X172356547Y-126387380D01*
X172308928Y-126387380D01*
X172213690Y-126435000D01*
X172166071Y-126530238D01*
X172166071Y-126577857D01*
X172213690Y-126673095D01*
X172261309Y-126720714D01*
X172547023Y-126911190D01*
X172594642Y-126958809D01*
X172642261Y-127054047D01*
X172642261Y-127196904D01*
X172594642Y-127292142D01*
X172547023Y-127339761D01*
X172451785Y-127387380D01*
X172308928Y-127387380D01*
X172213690Y-127339761D01*
X172166071Y-127292142D01*
X172023214Y-127101666D01*
X171975595Y-126958809D01*
X171975595Y-126863571D01*
X170975595Y-127339761D02*
X171070833Y-127387380D01*
X171261309Y-127387380D01*
X171356547Y-127339761D01*
X171404166Y-127292142D01*
X171451785Y-127196904D01*
X171451785Y-126911190D01*
X171404166Y-126815952D01*
X171356547Y-126768333D01*
X171261309Y-126720714D01*
X171070833Y-126720714D01*
X170975595Y-126768333D01*
X170689880Y-126720714D02*
X170308928Y-126720714D01*
X170547023Y-127387380D02*
X170547023Y-126530238D01*
X170499404Y-126435000D01*
X170404166Y-126387380D01*
X170308928Y-126387380D01*
X170118452Y-126720714D02*
X169737500Y-126720714D01*
X169975595Y-127387380D02*
X169975595Y-126530238D01*
X169927976Y-126435000D01*
X169832738Y-126387380D01*
X169737500Y-126387380D01*
X169547023Y-126720714D02*
X169166071Y-126720714D01*
X169404166Y-127387380D02*
X169404166Y-126530238D01*
X169356547Y-126435000D01*
X169261309Y-126387380D01*
X169166071Y-126387380D01*
X247362023Y-150916666D02*
X246885833Y-150916666D01*
X247457261Y-151202380D02*
X247123928Y-150202380D01*
X246790595Y-151202380D01*
X246314404Y-151202380D02*
X246409642Y-151154761D01*
X246457261Y-151059523D01*
X246457261Y-150202380D01*
X245790595Y-151202380D02*
X245885833Y-151154761D01*
X245933452Y-151059523D01*
X245933452Y-150202380D01*
X244219166Y-151154761D02*
X244314404Y-151202380D01*
X244504880Y-151202380D01*
X244600119Y-151154761D01*
X244647738Y-151107142D01*
X244695357Y-151011904D01*
X244695357Y-150726190D01*
X244647738Y-150630952D01*
X244600119Y-150583333D01*
X244504880Y-150535714D01*
X244314404Y-150535714D01*
X244219166Y-150583333D01*
X243362023Y-151202380D02*
X243362023Y-150678571D01*
X243409642Y-150583333D01*
X243504880Y-150535714D01*
X243695357Y-150535714D01*
X243790595Y-150583333D01*
X243362023Y-151154761D02*
X243457261Y-151202380D01*
X243695357Y-151202380D01*
X243790595Y-151154761D01*
X243838214Y-151059523D01*
X243838214Y-150964285D01*
X243790595Y-150869047D01*
X243695357Y-150821428D01*
X243457261Y-150821428D01*
X243362023Y-150773809D01*
X242885833Y-150535714D02*
X242885833Y-151535714D01*
X242885833Y-150583333D02*
X242790595Y-150535714D01*
X242600119Y-150535714D01*
X242504880Y-150583333D01*
X242457261Y-150630952D01*
X242409642Y-150726190D01*
X242409642Y-151011904D01*
X242457261Y-151107142D01*
X242504880Y-151154761D01*
X242600119Y-151202380D01*
X242790595Y-151202380D01*
X242885833Y-151154761D01*
X241552500Y-151202380D02*
X241552500Y-150678571D01*
X241600119Y-150583333D01*
X241695357Y-150535714D01*
X241885833Y-150535714D01*
X241981071Y-150583333D01*
X241552500Y-151154761D02*
X241647738Y-151202380D01*
X241885833Y-151202380D01*
X241981071Y-151154761D01*
X242028690Y-151059523D01*
X242028690Y-150964285D01*
X241981071Y-150869047D01*
X241885833Y-150821428D01*
X241647738Y-150821428D01*
X241552500Y-150773809D01*
X240647738Y-151154761D02*
X240742976Y-151202380D01*
X240933452Y-151202380D01*
X241028690Y-151154761D01*
X241076309Y-151107142D01*
X241123928Y-151011904D01*
X241123928Y-150726190D01*
X241076309Y-150630952D01*
X241028690Y-150583333D01*
X240933452Y-150535714D01*
X240742976Y-150535714D01*
X240647738Y-150583333D01*
X240219166Y-151202380D02*
X240219166Y-150535714D01*
X240219166Y-150202380D02*
X240266785Y-150250000D01*
X240219166Y-150297619D01*
X240171547Y-150250000D01*
X240219166Y-150202380D01*
X240219166Y-150297619D01*
X239885833Y-150535714D02*
X239504880Y-150535714D01*
X239742976Y-150202380D02*
X239742976Y-151059523D01*
X239695357Y-151154761D01*
X239600119Y-151202380D01*
X239504880Y-151202380D01*
X239028690Y-151202380D02*
X239123928Y-151154761D01*
X239171547Y-151107142D01*
X239219166Y-151011904D01*
X239219166Y-150726190D01*
X239171547Y-150630952D01*
X239123928Y-150583333D01*
X239028690Y-150535714D01*
X238885833Y-150535714D01*
X238790595Y-150583333D01*
X238742976Y-150630952D01*
X238695357Y-150726190D01*
X238695357Y-151011904D01*
X238742976Y-151107142D01*
X238790595Y-151154761D01*
X238885833Y-151202380D01*
X239028690Y-151202380D01*
X238266785Y-151202380D02*
X238266785Y-150535714D01*
X238266785Y-150726190D02*
X238219166Y-150630952D01*
X238171547Y-150583333D01*
X238076309Y-150535714D01*
X237981071Y-150535714D01*
X237695357Y-151154761D02*
X237600119Y-151202380D01*
X237409642Y-151202380D01*
X237314404Y-151154761D01*
X237266785Y-151059523D01*
X237266785Y-151011904D01*
X237314404Y-150916666D01*
X237409642Y-150869047D01*
X237552500Y-150869047D01*
X237647738Y-150821428D01*
X237695357Y-150726190D01*
X237695357Y-150678571D01*
X237647738Y-150583333D01*
X237552500Y-150535714D01*
X237409642Y-150535714D01*
X237314404Y-150583333D01*
X235647738Y-151202380D02*
X235647738Y-150678571D01*
X235695357Y-150583333D01*
X235790595Y-150535714D01*
X235981071Y-150535714D01*
X236076309Y-150583333D01*
X235647738Y-151154761D02*
X235742976Y-151202380D01*
X235981071Y-151202380D01*
X236076309Y-151154761D01*
X236123928Y-151059523D01*
X236123928Y-150964285D01*
X236076309Y-150869047D01*
X235981071Y-150821428D01*
X235742976Y-150821428D01*
X235647738Y-150773809D01*
X235171547Y-151202380D02*
X235171547Y-150535714D01*
X235171547Y-150726190D02*
X235123928Y-150630952D01*
X235076309Y-150583333D01*
X234981071Y-150535714D01*
X234885833Y-150535714D01*
X234171547Y-151154761D02*
X234266785Y-151202380D01*
X234457261Y-151202380D01*
X234552500Y-151154761D01*
X234600119Y-151059523D01*
X234600119Y-150678571D01*
X234552500Y-150583333D01*
X234457261Y-150535714D01*
X234266785Y-150535714D01*
X234171547Y-150583333D01*
X234123928Y-150678571D01*
X234123928Y-150773809D01*
X234600119Y-150869047D01*
X232409642Y-151202380D02*
X232981071Y-151202380D01*
X232695357Y-151202380D02*
X232695357Y-150202380D01*
X232790595Y-150345238D01*
X232885833Y-150440476D01*
X232981071Y-150488095D01*
X231790595Y-150202380D02*
X231695357Y-150202380D01*
X231600119Y-150250000D01*
X231552500Y-150297619D01*
X231504880Y-150392857D01*
X231457261Y-150583333D01*
X231457261Y-150821428D01*
X231504880Y-151011904D01*
X231552500Y-151107142D01*
X231600119Y-151154761D01*
X231695357Y-151202380D01*
X231790595Y-151202380D01*
X231885833Y-151154761D01*
X231933452Y-151107142D01*
X231981071Y-151011904D01*
X232028690Y-150821428D01*
X232028690Y-150583333D01*
X231981071Y-150392857D01*
X231933452Y-150297619D01*
X231885833Y-150250000D01*
X231790595Y-150202380D01*
X230838214Y-150202380D02*
X230742976Y-150202380D01*
X230647738Y-150250000D01*
X230600119Y-150297619D01*
X230552500Y-150392857D01*
X230504880Y-150583333D01*
X230504880Y-150821428D01*
X230552500Y-151011904D01*
X230600119Y-151107142D01*
X230647738Y-151154761D01*
X230742976Y-151202380D01*
X230838214Y-151202380D01*
X230933452Y-151154761D01*
X230981071Y-151107142D01*
X231028690Y-151011904D01*
X231076309Y-150821428D01*
X231076309Y-150583333D01*
X231028690Y-150392857D01*
X230981071Y-150297619D01*
X230933452Y-150250000D01*
X230838214Y-150202380D01*
X230076309Y-150535714D02*
X230076309Y-151202380D01*
X230076309Y-150630952D02*
X230028690Y-150583333D01*
X229933452Y-150535714D01*
X229790595Y-150535714D01*
X229695357Y-150583333D01*
X229647738Y-150678571D01*
X229647738Y-151202380D01*
X228838214Y-150678571D02*
X229171547Y-150678571D01*
X229171547Y-151202380D02*
X229171547Y-150202380D01*
X228695357Y-150202380D01*
X227123928Y-150535714D02*
X227123928Y-151202380D01*
X227552500Y-150535714D02*
X227552500Y-151059523D01*
X227504880Y-151154761D01*
X227409642Y-151202380D01*
X227266785Y-151202380D01*
X227171547Y-151154761D01*
X227123928Y-151107142D01*
X226647738Y-150535714D02*
X226647738Y-151202380D01*
X226647738Y-150630952D02*
X226600119Y-150583333D01*
X226504880Y-150535714D01*
X226362023Y-150535714D01*
X226266785Y-150583333D01*
X226219166Y-150678571D01*
X226219166Y-151202380D01*
X225600119Y-151202380D02*
X225695357Y-151154761D01*
X225742976Y-151059523D01*
X225742976Y-150202380D01*
X224838214Y-151154761D02*
X224933452Y-151202380D01*
X225123928Y-151202380D01*
X225219166Y-151154761D01*
X225266785Y-151059523D01*
X225266785Y-150678571D01*
X225219166Y-150583333D01*
X225123928Y-150535714D01*
X224933452Y-150535714D01*
X224838214Y-150583333D01*
X224790595Y-150678571D01*
X224790595Y-150773809D01*
X225266785Y-150869047D01*
X224409642Y-151154761D02*
X224314404Y-151202380D01*
X224123928Y-151202380D01*
X224028690Y-151154761D01*
X223981071Y-151059523D01*
X223981071Y-151011904D01*
X224028690Y-150916666D01*
X224123928Y-150869047D01*
X224266785Y-150869047D01*
X224362023Y-150821428D01*
X224409642Y-150726190D01*
X224409642Y-150678571D01*
X224362023Y-150583333D01*
X224266785Y-150535714D01*
X224123928Y-150535714D01*
X224028690Y-150583333D01*
X223600119Y-151154761D02*
X223504880Y-151202380D01*
X223314404Y-151202380D01*
X223219166Y-151154761D01*
X223171547Y-151059523D01*
X223171547Y-151011904D01*
X223219166Y-150916666D01*
X223314404Y-150869047D01*
X223457261Y-150869047D01*
X223552500Y-150821428D01*
X223600119Y-150726190D01*
X223600119Y-150678571D01*
X223552500Y-150583333D01*
X223457261Y-150535714D01*
X223314404Y-150535714D01*
X223219166Y-150583333D01*
X221981071Y-151202380D02*
X221981071Y-150535714D01*
X221981071Y-150630952D02*
X221933452Y-150583333D01*
X221838214Y-150535714D01*
X221695357Y-150535714D01*
X221600119Y-150583333D01*
X221552500Y-150678571D01*
X221552500Y-151202380D01*
X221552500Y-150678571D02*
X221504880Y-150583333D01*
X221409642Y-150535714D01*
X221266785Y-150535714D01*
X221171547Y-150583333D01*
X221123928Y-150678571D01*
X221123928Y-151202380D01*
X220219166Y-151202380D02*
X220219166Y-150678571D01*
X220266785Y-150583333D01*
X220362023Y-150535714D01*
X220552500Y-150535714D01*
X220647738Y-150583333D01*
X220219166Y-151154761D02*
X220314404Y-151202380D01*
X220552500Y-151202380D01*
X220647738Y-151154761D01*
X220695357Y-151059523D01*
X220695357Y-150964285D01*
X220647738Y-150869047D01*
X220552500Y-150821428D01*
X220314404Y-150821428D01*
X220219166Y-150773809D01*
X219742976Y-151202380D02*
X219742976Y-150535714D01*
X219742976Y-150726190D02*
X219695357Y-150630952D01*
X219647738Y-150583333D01*
X219552500Y-150535714D01*
X219457261Y-150535714D01*
X219123928Y-151202380D02*
X219123928Y-150202380D01*
X219028690Y-150821428D02*
X218742976Y-151202380D01*
X218742976Y-150535714D02*
X219123928Y-150916666D01*
X217933452Y-151154761D02*
X218028690Y-151202380D01*
X218219166Y-151202380D01*
X218314404Y-151154761D01*
X218362023Y-151059523D01*
X218362023Y-150678571D01*
X218314404Y-150583333D01*
X218219166Y-150535714D01*
X218028690Y-150535714D01*
X217933452Y-150583333D01*
X217885833Y-150678571D01*
X217885833Y-150773809D01*
X218362023Y-150869047D01*
X217028690Y-151202380D02*
X217028690Y-150202380D01*
X217028690Y-151154761D02*
X217123928Y-151202380D01*
X217314404Y-151202380D01*
X217409642Y-151154761D01*
X217457261Y-151107142D01*
X217504880Y-151011904D01*
X217504880Y-150726190D01*
X217457261Y-150630952D01*
X217409642Y-150583333D01*
X217314404Y-150535714D01*
X217123928Y-150535714D01*
X217028690Y-150583333D01*
X216552500Y-151107142D02*
X216504880Y-151154761D01*
X216552500Y-151202380D01*
X216600119Y-151154761D01*
X216552500Y-151107142D01*
X216552500Y-151202380D01*
X246838214Y-152852380D02*
X247314404Y-152852380D01*
X247314404Y-151852380D01*
X246504880Y-152328571D02*
X246171547Y-152328571D01*
X246028690Y-152852380D02*
X246504880Y-152852380D01*
X246504880Y-151852380D01*
X246028690Y-151852380D01*
X245600119Y-152852380D02*
X245600119Y-151852380D01*
X245362023Y-151852380D01*
X245219166Y-151900000D01*
X245123928Y-151995238D01*
X245076309Y-152090476D01*
X245028690Y-152280952D01*
X245028690Y-152423809D01*
X245076309Y-152614285D01*
X245123928Y-152709523D01*
X245219166Y-152804761D01*
X245362023Y-152852380D01*
X245600119Y-152852380D01*
X244647738Y-152804761D02*
X244552500Y-152852380D01*
X244362023Y-152852380D01*
X244266785Y-152804761D01*
X244219166Y-152709523D01*
X244219166Y-152661904D01*
X244266785Y-152566666D01*
X244362023Y-152519047D01*
X244504880Y-152519047D01*
X244600119Y-152471428D01*
X244647738Y-152376190D01*
X244647738Y-152328571D01*
X244600119Y-152233333D01*
X244504880Y-152185714D01*
X244362023Y-152185714D01*
X244266785Y-152233333D01*
X242600119Y-152852380D02*
X242600119Y-152328571D01*
X242647738Y-152233333D01*
X242742976Y-152185714D01*
X242933452Y-152185714D01*
X243028690Y-152233333D01*
X242600119Y-152804761D02*
X242695357Y-152852380D01*
X242933452Y-152852380D01*
X243028690Y-152804761D01*
X243076309Y-152709523D01*
X243076309Y-152614285D01*
X243028690Y-152519047D01*
X242933452Y-152471428D01*
X242695357Y-152471428D01*
X242600119Y-152423809D01*
X242123928Y-152852380D02*
X242123928Y-152185714D01*
X242123928Y-152376190D02*
X242076309Y-152280952D01*
X242028690Y-152233333D01*
X241933452Y-152185714D01*
X241838214Y-152185714D01*
X241123928Y-152804761D02*
X241219166Y-152852380D01*
X241409642Y-152852380D01*
X241504880Y-152804761D01*
X241552500Y-152709523D01*
X241552500Y-152328571D01*
X241504880Y-152233333D01*
X241409642Y-152185714D01*
X241219166Y-152185714D01*
X241123928Y-152233333D01*
X241076309Y-152328571D01*
X241076309Y-152423809D01*
X241552500Y-152519047D01*
X239981071Y-151852380D02*
X239362023Y-151852380D01*
X239695357Y-152233333D01*
X239552500Y-152233333D01*
X239457261Y-152280952D01*
X239409642Y-152328571D01*
X239362023Y-152423809D01*
X239362023Y-152661904D01*
X239409642Y-152757142D01*
X239457261Y-152804761D01*
X239552500Y-152852380D01*
X239838214Y-152852380D01*
X239933452Y-152804761D01*
X239981071Y-152757142D01*
X238933452Y-152852380D02*
X238933452Y-152185714D01*
X238933452Y-152280952D02*
X238885833Y-152233333D01*
X238790595Y-152185714D01*
X238647738Y-152185714D01*
X238552500Y-152233333D01*
X238504880Y-152328571D01*
X238504880Y-152852380D01*
X238504880Y-152328571D02*
X238457261Y-152233333D01*
X238362023Y-152185714D01*
X238219166Y-152185714D01*
X238123928Y-152233333D01*
X238076309Y-152328571D01*
X238076309Y-152852380D01*
X237600119Y-152852380D02*
X237600119Y-152185714D01*
X237600119Y-152280952D02*
X237552500Y-152233333D01*
X237457261Y-152185714D01*
X237314404Y-152185714D01*
X237219166Y-152233333D01*
X237171547Y-152328571D01*
X237171547Y-152852380D01*
X237171547Y-152328571D02*
X237123928Y-152233333D01*
X237028690Y-152185714D01*
X236885833Y-152185714D01*
X236790595Y-152233333D01*
X236742976Y-152328571D01*
X236742976Y-152852380D01*
X236219166Y-152804761D02*
X236219166Y-152852380D01*
X236266785Y-152947619D01*
X236314404Y-152995238D01*
X235123928Y-152185714D02*
X234885833Y-152852380D01*
X234647738Y-152185714D02*
X234885833Y-152852380D01*
X234981071Y-153090476D01*
X235028690Y-153138095D01*
X235123928Y-153185714D01*
X234123928Y-152852380D02*
X234219166Y-152804761D01*
X234266785Y-152757142D01*
X234314404Y-152661904D01*
X234314404Y-152376190D01*
X234266785Y-152280952D01*
X234219166Y-152233333D01*
X234123928Y-152185714D01*
X233981071Y-152185714D01*
X233885833Y-152233333D01*
X233838214Y-152280952D01*
X233790595Y-152376190D01*
X233790595Y-152661904D01*
X233838214Y-152757142D01*
X233885833Y-152804761D01*
X233981071Y-152852380D01*
X234123928Y-152852380D01*
X232933452Y-152185714D02*
X232933452Y-152852380D01*
X233362023Y-152185714D02*
X233362023Y-152709523D01*
X233314404Y-152804761D01*
X233219166Y-152852380D01*
X233076309Y-152852380D01*
X232981071Y-152804761D01*
X232933452Y-152757142D01*
X232457261Y-152852380D02*
X232457261Y-152185714D01*
X232457261Y-152376190D02*
X232409642Y-152280952D01*
X232362023Y-152233333D01*
X232266785Y-152185714D01*
X232171547Y-152185714D01*
X230647738Y-152804761D02*
X230742976Y-152852380D01*
X230933452Y-152852380D01*
X231028690Y-152804761D01*
X231076309Y-152757142D01*
X231123928Y-152661904D01*
X231123928Y-152376190D01*
X231076309Y-152280952D01*
X231028690Y-152233333D01*
X230933452Y-152185714D01*
X230742976Y-152185714D01*
X230647738Y-152233333D01*
X230219166Y-152852380D02*
X230219166Y-151852380D01*
X229790595Y-152852380D02*
X229790595Y-152328571D01*
X229838214Y-152233333D01*
X229933452Y-152185714D01*
X230076309Y-152185714D01*
X230171547Y-152233333D01*
X230219166Y-152280952D01*
X229171547Y-152852380D02*
X229266785Y-152804761D01*
X229314404Y-152757142D01*
X229362023Y-152661904D01*
X229362023Y-152376190D01*
X229314404Y-152280952D01*
X229266785Y-152233333D01*
X229171547Y-152185714D01*
X229028690Y-152185714D01*
X228933452Y-152233333D01*
X228885833Y-152280952D01*
X228838214Y-152376190D01*
X228838214Y-152661904D01*
X228885833Y-152757142D01*
X228933452Y-152804761D01*
X229028690Y-152852380D01*
X229171547Y-152852380D01*
X228409642Y-152852380D02*
X228409642Y-152185714D01*
X228409642Y-151852380D02*
X228457261Y-151900000D01*
X228409642Y-151947619D01*
X228362023Y-151900000D01*
X228409642Y-151852380D01*
X228409642Y-151947619D01*
X227504880Y-152804761D02*
X227600119Y-152852380D01*
X227790595Y-152852380D01*
X227885833Y-152804761D01*
X227933452Y-152757142D01*
X227981071Y-152661904D01*
X227981071Y-152376190D01*
X227933452Y-152280952D01*
X227885833Y-152233333D01*
X227790595Y-152185714D01*
X227600119Y-152185714D01*
X227504880Y-152233333D01*
X226695357Y-152804761D02*
X226790595Y-152852380D01*
X226981071Y-152852380D01*
X227076309Y-152804761D01*
X227123928Y-152709523D01*
X227123928Y-152328571D01*
X227076309Y-152233333D01*
X226981071Y-152185714D01*
X226790595Y-152185714D01*
X226695357Y-152233333D01*
X226647738Y-152328571D01*
X226647738Y-152423809D01*
X227123928Y-152519047D01*
X225314404Y-152852380D02*
X225409642Y-152804761D01*
X225457261Y-152757142D01*
X225504880Y-152661904D01*
X225504880Y-152376190D01*
X225457261Y-152280952D01*
X225409642Y-152233333D01*
X225314404Y-152185714D01*
X225171547Y-152185714D01*
X225076309Y-152233333D01*
X225028690Y-152280952D01*
X224981071Y-152376190D01*
X224981071Y-152661904D01*
X225028690Y-152757142D01*
X225076309Y-152804761D01*
X225171547Y-152852380D01*
X225314404Y-152852380D01*
X224695357Y-152185714D02*
X224314404Y-152185714D01*
X224552500Y-152852380D02*
X224552500Y-151995238D01*
X224504880Y-151900000D01*
X224409642Y-151852380D01*
X224314404Y-151852380D01*
X222790595Y-152804761D02*
X222885833Y-152852380D01*
X223076309Y-152852380D01*
X223171547Y-152804761D01*
X223219166Y-152757142D01*
X223266785Y-152661904D01*
X223266785Y-152376190D01*
X223219166Y-152280952D01*
X223171547Y-152233333D01*
X223076309Y-152185714D01*
X222885833Y-152185714D01*
X222790595Y-152233333D01*
X222219166Y-152852380D02*
X222314404Y-152804761D01*
X222362023Y-152757142D01*
X222409642Y-152661904D01*
X222409642Y-152376190D01*
X222362023Y-152280952D01*
X222314404Y-152233333D01*
X222219166Y-152185714D01*
X222076309Y-152185714D01*
X221981071Y-152233333D01*
X221933452Y-152280952D01*
X221885833Y-152376190D01*
X221885833Y-152661904D01*
X221933452Y-152757142D01*
X221981071Y-152804761D01*
X222076309Y-152852380D01*
X222219166Y-152852380D01*
X221314404Y-152852380D02*
X221409642Y-152804761D01*
X221457261Y-152709523D01*
X221457261Y-151852380D01*
X220790595Y-152852380D02*
X220885833Y-152804761D01*
X220933452Y-152757142D01*
X220981071Y-152661904D01*
X220981071Y-152376190D01*
X220933452Y-152280952D01*
X220885833Y-152233333D01*
X220790595Y-152185714D01*
X220647738Y-152185714D01*
X220552500Y-152233333D01*
X220504880Y-152280952D01*
X220457261Y-152376190D01*
X220457261Y-152661904D01*
X220504880Y-152757142D01*
X220552500Y-152804761D01*
X220647738Y-152852380D01*
X220790595Y-152852380D01*
X219600119Y-152185714D02*
X219600119Y-152852380D01*
X220028690Y-152185714D02*
X220028690Y-152709523D01*
X219981071Y-152804761D01*
X219885833Y-152852380D01*
X219742976Y-152852380D01*
X219647738Y-152804761D01*
X219600119Y-152757142D01*
X219123928Y-152852380D02*
X219123928Y-152185714D01*
X219123928Y-152376190D02*
X219076309Y-152280952D01*
X219028690Y-152233333D01*
X218933452Y-152185714D01*
X218838214Y-152185714D01*
X218552500Y-152804761D02*
X218457261Y-152852380D01*
X218266785Y-152852380D01*
X218171547Y-152804761D01*
X218123928Y-152709523D01*
X218123928Y-152661904D01*
X218171547Y-152566666D01*
X218266785Y-152519047D01*
X218409642Y-152519047D01*
X218504880Y-152471428D01*
X218552500Y-152376190D01*
X218552500Y-152328571D01*
X218504880Y-152233333D01*
X218409642Y-152185714D01*
X218266785Y-152185714D01*
X218171547Y-152233333D01*
X217695357Y-152757142D02*
X217647738Y-152804761D01*
X217695357Y-152852380D01*
X217742976Y-152804761D01*
X217695357Y-152757142D01*
X217695357Y-152852380D01*
X247028690Y-153502380D02*
X247028690Y-154216666D01*
X247076309Y-154359523D01*
X247171547Y-154454761D01*
X247314404Y-154502380D01*
X247409642Y-154502380D01*
X246552500Y-154502380D02*
X246552500Y-153502380D01*
X246171547Y-153502380D01*
X246076309Y-153550000D01*
X246028690Y-153597619D01*
X245981071Y-153692857D01*
X245981071Y-153835714D01*
X246028690Y-153930952D01*
X246076309Y-153978571D01*
X246171547Y-154026190D01*
X246552500Y-154026190D01*
X245028690Y-154502380D02*
X245600119Y-154502380D01*
X245314404Y-154502380D02*
X245314404Y-153502380D01*
X245409642Y-153645238D01*
X245504880Y-153740476D01*
X245600119Y-153788095D01*
X243838214Y-154502380D02*
X243838214Y-153835714D01*
X243838214Y-153502380D02*
X243885833Y-153550000D01*
X243838214Y-153597619D01*
X243790595Y-153550000D01*
X243838214Y-153502380D01*
X243838214Y-153597619D01*
X243409642Y-154454761D02*
X243314404Y-154502380D01*
X243123928Y-154502380D01*
X243028690Y-154454761D01*
X242981071Y-154359523D01*
X242981071Y-154311904D01*
X243028690Y-154216666D01*
X243123928Y-154169047D01*
X243266785Y-154169047D01*
X243362023Y-154121428D01*
X243409642Y-154026190D01*
X243409642Y-153978571D01*
X243362023Y-153883333D01*
X243266785Y-153835714D01*
X243123928Y-153835714D01*
X243028690Y-153883333D01*
X241790595Y-154502380D02*
X241790595Y-153502380D01*
X241457261Y-154216666D01*
X241123928Y-153502380D01*
X241123928Y-154502380D01*
X240742976Y-153502380D02*
X240076309Y-154502380D01*
X240076309Y-153502380D02*
X240742976Y-154502380D01*
X239266785Y-153835714D02*
X239266785Y-154502380D01*
X239504880Y-153454761D02*
X239742976Y-154169047D01*
X239123928Y-154169047D01*
X237552500Y-154454761D02*
X237647738Y-154502380D01*
X237838214Y-154502380D01*
X237933452Y-154454761D01*
X237981071Y-154407142D01*
X238028690Y-154311904D01*
X238028690Y-154026190D01*
X237981071Y-153930952D01*
X237933452Y-153883333D01*
X237838214Y-153835714D01*
X237647738Y-153835714D01*
X237552500Y-153883333D01*
X236981071Y-154502380D02*
X237076309Y-154454761D01*
X237123928Y-154407142D01*
X237171547Y-154311904D01*
X237171547Y-154026190D01*
X237123928Y-153930952D01*
X237076309Y-153883333D01*
X236981071Y-153835714D01*
X236838214Y-153835714D01*
X236742976Y-153883333D01*
X236695357Y-153930952D01*
X236647738Y-154026190D01*
X236647738Y-154311904D01*
X236695357Y-154407142D01*
X236742976Y-154454761D01*
X236838214Y-154502380D01*
X236981071Y-154502380D01*
X236219166Y-154502380D02*
X236219166Y-153835714D01*
X236219166Y-153930952D02*
X236171547Y-153883333D01*
X236076309Y-153835714D01*
X235933452Y-153835714D01*
X235838214Y-153883333D01*
X235790595Y-153978571D01*
X235790595Y-154502380D01*
X235790595Y-153978571D02*
X235742976Y-153883333D01*
X235647738Y-153835714D01*
X235504880Y-153835714D01*
X235409642Y-153883333D01*
X235362023Y-153978571D01*
X235362023Y-154502380D01*
X234885833Y-153835714D02*
X234885833Y-154835714D01*
X234885833Y-153883333D02*
X234790595Y-153835714D01*
X234600119Y-153835714D01*
X234504880Y-153883333D01*
X234457261Y-153930952D01*
X234409642Y-154026190D01*
X234409642Y-154311904D01*
X234457261Y-154407142D01*
X234504880Y-154454761D01*
X234600119Y-154502380D01*
X234790595Y-154502380D01*
X234885833Y-154454761D01*
X233552500Y-154502380D02*
X233552500Y-153978571D01*
X233600119Y-153883333D01*
X233695357Y-153835714D01*
X233885833Y-153835714D01*
X233981071Y-153883333D01*
X233552500Y-154454761D02*
X233647738Y-154502380D01*
X233885833Y-154502380D01*
X233981071Y-154454761D01*
X234028690Y-154359523D01*
X234028690Y-154264285D01*
X233981071Y-154169047D01*
X233885833Y-154121428D01*
X233647738Y-154121428D01*
X233552500Y-154073809D01*
X233219166Y-153835714D02*
X232838214Y-153835714D01*
X233076309Y-153502380D02*
X233076309Y-154359523D01*
X233028690Y-154454761D01*
X232933452Y-154502380D01*
X232838214Y-154502380D01*
X232504880Y-154502380D02*
X232504880Y-153835714D01*
X232504880Y-153502380D02*
X232552500Y-153550000D01*
X232504880Y-153597619D01*
X232457261Y-153550000D01*
X232504880Y-153502380D01*
X232504880Y-153597619D01*
X232028690Y-154502380D02*
X232028690Y-153502380D01*
X232028690Y-153883333D02*
X231933452Y-153835714D01*
X231742976Y-153835714D01*
X231647738Y-153883333D01*
X231600119Y-153930952D01*
X231552500Y-154026190D01*
X231552500Y-154311904D01*
X231600119Y-154407142D01*
X231647738Y-154454761D01*
X231742976Y-154502380D01*
X231933452Y-154502380D01*
X232028690Y-154454761D01*
X230981071Y-154502380D02*
X231076309Y-154454761D01*
X231123928Y-154359523D01*
X231123928Y-153502380D01*
X230219166Y-154454761D02*
X230314404Y-154502380D01*
X230504880Y-154502380D01*
X230600119Y-154454761D01*
X230647738Y-154359523D01*
X230647738Y-153978571D01*
X230600119Y-153883333D01*
X230504880Y-153835714D01*
X230314404Y-153835714D01*
X230219166Y-153883333D01*
X230171547Y-153978571D01*
X230171547Y-154073809D01*
X230647738Y-154169047D01*
X229742976Y-154407142D02*
X229695357Y-154454761D01*
X229742976Y-154502380D01*
X229790595Y-154454761D01*
X229742976Y-154407142D01*
X229742976Y-154502380D01*
X247362023Y-144359761D02*
X247219166Y-144407380D01*
X246981071Y-144407380D01*
X246885833Y-144359761D01*
X246838214Y-144312142D01*
X246790595Y-144216904D01*
X246790595Y-144121666D01*
X246838214Y-144026428D01*
X246885833Y-143978809D01*
X246981071Y-143931190D01*
X247171547Y-143883571D01*
X247266785Y-143835952D01*
X247314404Y-143788333D01*
X247362023Y-143693095D01*
X247362023Y-143597857D01*
X247314404Y-143502619D01*
X247266785Y-143455000D01*
X247171547Y-143407380D01*
X246933452Y-143407380D01*
X246790595Y-143455000D01*
X246362023Y-144407380D02*
X246362023Y-143407380D01*
X245933452Y-144407380D02*
X245933452Y-143883571D01*
X245981071Y-143788333D01*
X246076309Y-143740714D01*
X246219166Y-143740714D01*
X246314404Y-143788333D01*
X246362023Y-143835952D01*
X245314404Y-144407380D02*
X245409642Y-144359761D01*
X245457261Y-144312142D01*
X245504880Y-144216904D01*
X245504880Y-143931190D01*
X245457261Y-143835952D01*
X245409642Y-143788333D01*
X245314404Y-143740714D01*
X245171547Y-143740714D01*
X245076309Y-143788333D01*
X245028690Y-143835952D01*
X244981071Y-143931190D01*
X244981071Y-144216904D01*
X245028690Y-144312142D01*
X245076309Y-144359761D01*
X245171547Y-144407380D01*
X245314404Y-144407380D01*
X244552500Y-144407380D02*
X244552500Y-143740714D01*
X244552500Y-143931190D02*
X244504880Y-143835952D01*
X244457261Y-143788333D01*
X244362023Y-143740714D01*
X244266785Y-143740714D01*
X244076309Y-143740714D02*
X243695357Y-143740714D01*
X243933452Y-143407380D02*
X243933452Y-144264523D01*
X243885833Y-144359761D01*
X243790595Y-144407380D01*
X243695357Y-144407380D01*
X242123928Y-144407380D02*
X242600119Y-144407380D01*
X242600119Y-143407380D01*
X241790595Y-144407380D02*
X241790595Y-143407380D01*
X241219166Y-144407380D02*
X241647738Y-143835952D01*
X241219166Y-143407380D02*
X241790595Y-143978809D01*
X240266785Y-144407380D02*
X240838214Y-144407380D01*
X240552499Y-144407380D02*
X240552499Y-143407380D01*
X240647738Y-143550238D01*
X240742976Y-143645476D01*
X240838214Y-143693095D01*
X239219166Y-143740714D02*
X238838214Y-143740714D01*
X239076309Y-143407380D02*
X239076309Y-144264523D01*
X239028690Y-144359761D01*
X238933452Y-144407380D01*
X238838214Y-144407380D01*
X238362023Y-144407380D02*
X238457261Y-144359761D01*
X238504880Y-144312142D01*
X238552500Y-144216904D01*
X238552500Y-143931190D01*
X238504880Y-143835952D01*
X238457261Y-143788333D01*
X238362023Y-143740714D01*
X238219166Y-143740714D01*
X238123928Y-143788333D01*
X238076309Y-143835952D01*
X238028690Y-143931190D01*
X238028690Y-144216904D01*
X238076309Y-144312142D01*
X238123928Y-144359761D01*
X238219166Y-144407380D01*
X238362023Y-144407380D01*
X236695357Y-144407380D02*
X236790595Y-144359761D01*
X236838214Y-144312142D01*
X236885833Y-144216904D01*
X236885833Y-143931190D01*
X236838214Y-143835952D01*
X236790595Y-143788333D01*
X236695357Y-143740714D01*
X236552500Y-143740714D01*
X236457261Y-143788333D01*
X236409642Y-143835952D01*
X236362023Y-143931190D01*
X236362023Y-144216904D01*
X236409642Y-144312142D01*
X236457261Y-144359761D01*
X236552500Y-144407380D01*
X236695357Y-144407380D01*
X235504880Y-143740714D02*
X235504880Y-144407380D01*
X235933452Y-143740714D02*
X235933452Y-144264523D01*
X235885833Y-144359761D01*
X235790595Y-144407380D01*
X235647738Y-144407380D01*
X235552500Y-144359761D01*
X235504880Y-144312142D01*
X235171547Y-143740714D02*
X234790595Y-143740714D01*
X235028690Y-143407380D02*
X235028690Y-144264523D01*
X234981071Y-144359761D01*
X234885833Y-144407380D01*
X234790595Y-144407380D01*
X234457261Y-143740714D02*
X234457261Y-144740714D01*
X234457261Y-143788333D02*
X234362023Y-143740714D01*
X234171547Y-143740714D01*
X234076309Y-143788333D01*
X234028690Y-143835952D01*
X233981071Y-143931190D01*
X233981071Y-144216904D01*
X234028690Y-144312142D01*
X234076309Y-144359761D01*
X234171547Y-144407380D01*
X234362023Y-144407380D01*
X234457261Y-144359761D01*
X233123928Y-143740714D02*
X233123928Y-144407380D01*
X233552500Y-143740714D02*
X233552500Y-144264523D01*
X233504880Y-144359761D01*
X233409642Y-144407380D01*
X233266785Y-144407380D01*
X233171547Y-144359761D01*
X233123928Y-144312142D01*
X232790595Y-143740714D02*
X232409642Y-143740714D01*
X232647738Y-143407380D02*
X232647738Y-144264523D01*
X232600119Y-144359761D01*
X232504880Y-144407380D01*
X232409642Y-144407380D01*
X230742976Y-144407380D02*
X231076309Y-143931190D01*
X231314404Y-144407380D02*
X231314404Y-143407380D01*
X230933452Y-143407380D01*
X230838214Y-143455000D01*
X230790595Y-143502619D01*
X230742976Y-143597857D01*
X230742976Y-143740714D01*
X230790595Y-143835952D01*
X230838214Y-143883571D01*
X230933452Y-143931190D01*
X231314404Y-143931190D01*
X230362023Y-144121666D02*
X229885833Y-144121666D01*
X230457261Y-144407380D02*
X230123928Y-143407380D01*
X229790595Y-144407380D01*
X229457261Y-144407380D02*
X229457261Y-143407380D01*
X229123928Y-144121666D01*
X228790595Y-143407380D01*
X228790595Y-144407380D01*
X228314404Y-144407380D02*
X228314404Y-143407380D01*
X228076309Y-143407380D01*
X227933452Y-143455000D01*
X227838214Y-143550238D01*
X227790595Y-143645476D01*
X227742976Y-143835952D01*
X227742976Y-143978809D01*
X227790595Y-144169285D01*
X227838214Y-144264523D01*
X227933452Y-144359761D01*
X228076309Y-144407380D01*
X228314404Y-144407380D01*
X227314404Y-144407380D02*
X227314404Y-143407380D01*
X226885833Y-144359761D02*
X226742976Y-144407380D01*
X226504880Y-144407380D01*
X226409642Y-144359761D01*
X226362023Y-144312142D01*
X226314404Y-144216904D01*
X226314404Y-144121666D01*
X226362023Y-144026428D01*
X226409642Y-143978809D01*
X226504880Y-143931190D01*
X226695357Y-143883571D01*
X226790595Y-143835952D01*
X226838214Y-143788333D01*
X226885833Y-143693095D01*
X226885833Y-143597857D01*
X226838214Y-143502619D01*
X226790595Y-143455000D01*
X226695357Y-143407380D01*
X226457261Y-143407380D01*
X226314404Y-143455000D01*
X225219166Y-143740714D02*
X225028690Y-144407380D01*
X224838214Y-143931190D01*
X224647738Y-144407380D01*
X224457261Y-143740714D01*
X224076309Y-144407380D02*
X224076309Y-143407380D01*
X223647738Y-144407380D02*
X223647738Y-143883571D01*
X223695357Y-143788333D01*
X223790595Y-143740714D01*
X223933452Y-143740714D01*
X224028690Y-143788333D01*
X224076309Y-143835952D01*
X223171547Y-144407380D02*
X223171547Y-143740714D01*
X223171547Y-143407380D02*
X223219166Y-143455000D01*
X223171547Y-143502619D01*
X223123928Y-143455000D01*
X223171547Y-143407380D01*
X223171547Y-143502619D01*
X222552500Y-144407380D02*
X222647738Y-144359761D01*
X222695357Y-144264523D01*
X222695357Y-143407380D01*
X221790595Y-144359761D02*
X221885833Y-144407380D01*
X222076309Y-144407380D01*
X222171547Y-144359761D01*
X222219166Y-144264523D01*
X222219166Y-143883571D01*
X222171547Y-143788333D01*
X222076309Y-143740714D01*
X221885833Y-143740714D01*
X221790595Y-143788333D01*
X221742976Y-143883571D01*
X221742976Y-143978809D01*
X222219166Y-144074047D01*
X220647738Y-143740714D02*
X220457261Y-144407380D01*
X220266785Y-143931190D01*
X220076309Y-144407380D01*
X219885833Y-143740714D01*
X219504880Y-144407380D02*
X219504880Y-143740714D01*
X219504880Y-143931190D02*
X219457261Y-143835952D01*
X219409642Y-143788333D01*
X219314404Y-143740714D01*
X219219166Y-143740714D01*
X218885833Y-144407380D02*
X218885833Y-143740714D01*
X218885833Y-143407380D02*
X218933452Y-143455000D01*
X218885833Y-143502619D01*
X218838214Y-143455000D01*
X218885833Y-143407380D01*
X218885833Y-143502619D01*
X218552500Y-143740714D02*
X218171547Y-143740714D01*
X218409642Y-143407380D02*
X218409642Y-144264523D01*
X218362023Y-144359761D01*
X218266785Y-144407380D01*
X218171547Y-144407380D01*
X217838214Y-144407380D02*
X217838214Y-143740714D01*
X217838214Y-143407380D02*
X217885833Y-143455000D01*
X217838214Y-143502619D01*
X217790595Y-143455000D01*
X217838214Y-143407380D01*
X217838214Y-143502619D01*
X217362023Y-143740714D02*
X217362023Y-144407380D01*
X217362023Y-143835952D02*
X217314404Y-143788333D01*
X217219166Y-143740714D01*
X217076309Y-143740714D01*
X216981071Y-143788333D01*
X216933452Y-143883571D01*
X216933452Y-144407380D01*
X216028690Y-143740714D02*
X216028690Y-144550238D01*
X216076309Y-144645476D01*
X216123928Y-144693095D01*
X216219166Y-144740714D01*
X216362023Y-144740714D01*
X216457261Y-144693095D01*
X216028690Y-144359761D02*
X216123928Y-144407380D01*
X216314404Y-144407380D01*
X216409642Y-144359761D01*
X216457261Y-144312142D01*
X216504880Y-144216904D01*
X216504880Y-143931190D01*
X216457261Y-143835952D01*
X216409642Y-143788333D01*
X216314404Y-143740714D01*
X216123928Y-143740714D01*
X216028690Y-143788333D01*
X214933452Y-143740714D02*
X214552500Y-143740714D01*
X214790595Y-143407380D02*
X214790595Y-144264523D01*
X214742976Y-144359761D01*
X214647738Y-144407380D01*
X214552500Y-144407380D01*
X214076309Y-144407380D02*
X214171547Y-144359761D01*
X214219166Y-144312142D01*
X214266785Y-144216904D01*
X214266785Y-143931190D01*
X214219166Y-143835952D01*
X214171547Y-143788333D01*
X214076309Y-143740714D01*
X213933452Y-143740714D01*
X213838214Y-143788333D01*
X213790595Y-143835952D01*
X213742976Y-143931190D01*
X213742976Y-144216904D01*
X213790595Y-144312142D01*
X213838214Y-144359761D01*
X213933452Y-144407380D01*
X214076309Y-144407380D01*
X212695357Y-143740714D02*
X212314404Y-143740714D01*
X212552500Y-144407380D02*
X212552500Y-143550238D01*
X212504880Y-143455000D01*
X212409642Y-143407380D01*
X212314404Y-143407380D01*
X211838214Y-144407380D02*
X211933452Y-144359761D01*
X211981071Y-144264523D01*
X211981071Y-143407380D01*
X211028690Y-144407380D02*
X211028690Y-143883571D01*
X211076309Y-143788333D01*
X211171547Y-143740714D01*
X211362023Y-143740714D01*
X211457261Y-143788333D01*
X211028690Y-144359761D02*
X211123928Y-144407380D01*
X211362023Y-144407380D01*
X211457261Y-144359761D01*
X211504880Y-144264523D01*
X211504880Y-144169285D01*
X211457261Y-144074047D01*
X211362023Y-144026428D01*
X211123928Y-144026428D01*
X211028690Y-143978809D01*
X210600119Y-144359761D02*
X210504880Y-144407380D01*
X210314404Y-144407380D01*
X210219166Y-144359761D01*
X210171547Y-144264523D01*
X210171547Y-144216904D01*
X210219166Y-144121666D01*
X210314404Y-144074047D01*
X210457261Y-144074047D01*
X210552500Y-144026428D01*
X210600119Y-143931190D01*
X210600119Y-143883571D01*
X210552500Y-143788333D01*
X210457261Y-143740714D01*
X210314404Y-143740714D01*
X210219166Y-143788333D01*
X209742976Y-144407380D02*
X209742976Y-143407380D01*
X209314404Y-144407380D02*
X209314404Y-143883571D01*
X209362023Y-143788333D01*
X209457261Y-143740714D01*
X209600119Y-143740714D01*
X209695357Y-143788333D01*
X209742976Y-143835952D01*
X208838214Y-144312142D02*
X208790595Y-144359761D01*
X208838214Y-144407380D01*
X208885833Y-144359761D01*
X208838214Y-144312142D01*
X208838214Y-144407380D01*
X247028690Y-146438333D02*
X247076309Y-146390714D01*
X247171547Y-146247857D01*
X247219166Y-146152619D01*
X247266785Y-146009761D01*
X247314404Y-145771666D01*
X247314404Y-145581190D01*
X247266785Y-145343095D01*
X247219166Y-145200238D01*
X247171547Y-145105000D01*
X247076309Y-144962142D01*
X247028690Y-144914523D01*
X246457261Y-145581190D02*
X246457261Y-146057380D01*
X246790595Y-145057380D02*
X246457261Y-145581190D01*
X246123928Y-145057380D01*
X245647738Y-146057380D02*
X245742976Y-146009761D01*
X245790595Y-145962142D01*
X245838214Y-145866904D01*
X245838214Y-145581190D01*
X245790595Y-145485952D01*
X245742976Y-145438333D01*
X245647738Y-145390714D01*
X245504880Y-145390714D01*
X245409642Y-145438333D01*
X245362023Y-145485952D01*
X245314404Y-145581190D01*
X245314404Y-145866904D01*
X245362023Y-145962142D01*
X245409642Y-146009761D01*
X245504880Y-146057380D01*
X245647738Y-146057380D01*
X244457261Y-145390714D02*
X244457261Y-146057380D01*
X244885833Y-145390714D02*
X244885833Y-145914523D01*
X244838214Y-146009761D01*
X244742976Y-146057380D01*
X244600119Y-146057380D01*
X244504880Y-146009761D01*
X244457261Y-145962142D01*
X243314404Y-145390714D02*
X243123928Y-146057380D01*
X242933452Y-145581190D01*
X242742976Y-146057380D01*
X242552500Y-145390714D01*
X241742976Y-146057380D02*
X241742976Y-145533571D01*
X241790595Y-145438333D01*
X241885833Y-145390714D01*
X242076309Y-145390714D01*
X242171547Y-145438333D01*
X241742976Y-146009761D02*
X241838214Y-146057380D01*
X242076309Y-146057380D01*
X242171547Y-146009761D01*
X242219166Y-145914523D01*
X242219166Y-145819285D01*
X242171547Y-145724047D01*
X242076309Y-145676428D01*
X241838214Y-145676428D01*
X241742976Y-145628809D01*
X241266785Y-145390714D02*
X241266785Y-146057380D01*
X241266785Y-145485952D02*
X241219166Y-145438333D01*
X241123928Y-145390714D01*
X240981071Y-145390714D01*
X240885833Y-145438333D01*
X240838214Y-145533571D01*
X240838214Y-146057380D01*
X240504880Y-145390714D02*
X240123928Y-145390714D01*
X240362023Y-145057380D02*
X240362023Y-145914523D01*
X240314404Y-146009761D01*
X240219166Y-146057380D01*
X240123928Y-146057380D01*
X239171547Y-145390714D02*
X238790595Y-145390714D01*
X239028690Y-145057380D02*
X239028690Y-145914523D01*
X238981071Y-146009761D01*
X238885833Y-146057380D01*
X238790595Y-146057380D01*
X238314404Y-146057380D02*
X238409642Y-146009761D01*
X238457261Y-145962142D01*
X238504880Y-145866904D01*
X238504880Y-145581190D01*
X238457261Y-145485952D01*
X238409642Y-145438333D01*
X238314404Y-145390714D01*
X238171547Y-145390714D01*
X238076309Y-145438333D01*
X238028690Y-145485952D01*
X237981071Y-145581190D01*
X237981071Y-145866904D01*
X238028690Y-145962142D01*
X238076309Y-146009761D01*
X238171547Y-146057380D01*
X238314404Y-146057380D01*
X236362023Y-146057380D02*
X236362023Y-145057380D01*
X236362023Y-146009761D02*
X236457261Y-146057380D01*
X236647738Y-146057380D01*
X236742976Y-146009761D01*
X236790595Y-145962142D01*
X236838214Y-145866904D01*
X236838214Y-145581190D01*
X236790595Y-145485952D01*
X236742976Y-145438333D01*
X236647738Y-145390714D01*
X236457261Y-145390714D01*
X236362023Y-145438333D01*
X235742976Y-146057380D02*
X235838214Y-146009761D01*
X235885833Y-145962142D01*
X235933452Y-145866904D01*
X235933452Y-145581190D01*
X235885833Y-145485952D01*
X235838214Y-145438333D01*
X235742976Y-145390714D01*
X235600119Y-145390714D01*
X235504880Y-145438333D01*
X235457261Y-145485952D01*
X235409642Y-145581190D01*
X235409642Y-145866904D01*
X235457261Y-145962142D01*
X235504880Y-146009761D01*
X235600119Y-146057380D01*
X235742976Y-146057380D01*
X234362023Y-145390714D02*
X233981071Y-145390714D01*
X234219166Y-145057380D02*
X234219166Y-145914523D01*
X234171547Y-146009761D01*
X234076309Y-146057380D01*
X233981071Y-146057380D01*
X233647738Y-146057380D02*
X233647738Y-145057380D01*
X233219166Y-146057380D02*
X233219166Y-145533571D01*
X233266785Y-145438333D01*
X233362023Y-145390714D01*
X233504880Y-145390714D01*
X233600119Y-145438333D01*
X233647738Y-145485952D01*
X232742976Y-146057380D02*
X232742976Y-145390714D01*
X232742976Y-145057380D02*
X232790595Y-145105000D01*
X232742976Y-145152619D01*
X232695357Y-145105000D01*
X232742976Y-145057380D01*
X232742976Y-145152619D01*
X232314404Y-146009761D02*
X232219166Y-146057380D01*
X232028690Y-146057380D01*
X231933452Y-146009761D01*
X231885833Y-145914523D01*
X231885833Y-145866904D01*
X231933452Y-145771666D01*
X232028690Y-145724047D01*
X232171547Y-145724047D01*
X232266785Y-145676428D01*
X232314404Y-145581190D01*
X232314404Y-145533571D01*
X232266785Y-145438333D01*
X232171547Y-145390714D01*
X232028690Y-145390714D01*
X231933452Y-145438333D01*
X231409642Y-146009761D02*
X231409642Y-146057380D01*
X231457261Y-146152619D01*
X231504880Y-146200238D01*
X229790595Y-145390714D02*
X229790595Y-146057380D01*
X230219166Y-145390714D02*
X230219166Y-145914523D01*
X230171547Y-146009761D01*
X230076309Y-146057380D01*
X229933452Y-146057380D01*
X229838214Y-146009761D01*
X229790595Y-145962142D01*
X229314404Y-145390714D02*
X229314404Y-146057380D01*
X229314404Y-145485952D02*
X229266785Y-145438333D01*
X229171547Y-145390714D01*
X229028690Y-145390714D01*
X228933452Y-145438333D01*
X228885833Y-145533571D01*
X228885833Y-146057380D01*
X228266785Y-146057380D02*
X228362023Y-146009761D01*
X228409642Y-145914523D01*
X228409642Y-145057380D01*
X227504880Y-146009761D02*
X227600119Y-146057380D01*
X227790595Y-146057380D01*
X227885833Y-146009761D01*
X227933452Y-145914523D01*
X227933452Y-145533571D01*
X227885833Y-145438333D01*
X227790595Y-145390714D01*
X227600119Y-145390714D01*
X227504880Y-145438333D01*
X227457261Y-145533571D01*
X227457261Y-145628809D01*
X227933452Y-145724047D01*
X227076309Y-146009761D02*
X226981071Y-146057380D01*
X226790595Y-146057380D01*
X226695357Y-146009761D01*
X226647738Y-145914523D01*
X226647738Y-145866904D01*
X226695357Y-145771666D01*
X226790595Y-145724047D01*
X226933452Y-145724047D01*
X227028690Y-145676428D01*
X227076309Y-145581190D01*
X227076309Y-145533571D01*
X227028690Y-145438333D01*
X226933452Y-145390714D01*
X226790595Y-145390714D01*
X226695357Y-145438333D01*
X226266785Y-146009761D02*
X226171547Y-146057380D01*
X225981071Y-146057380D01*
X225885833Y-146009761D01*
X225838214Y-145914523D01*
X225838214Y-145866904D01*
X225885833Y-145771666D01*
X225981071Y-145724047D01*
X226123928Y-145724047D01*
X226219166Y-145676428D01*
X226266785Y-145581190D01*
X226266785Y-145533571D01*
X226219166Y-145438333D01*
X226123928Y-145390714D01*
X225981071Y-145390714D01*
X225885833Y-145438333D01*
X224790595Y-145390714D02*
X224409642Y-145390714D01*
X224647738Y-145057380D02*
X224647738Y-145914523D01*
X224600119Y-146009761D01*
X224504880Y-146057380D01*
X224409642Y-146057380D01*
X224076309Y-146057380D02*
X224076309Y-145057380D01*
X223647738Y-146057380D02*
X223647738Y-145533571D01*
X223695357Y-145438333D01*
X223790595Y-145390714D01*
X223933452Y-145390714D01*
X224028690Y-145438333D01*
X224076309Y-145485952D01*
X222790595Y-146009761D02*
X222885833Y-146057380D01*
X223076309Y-146057380D01*
X223171547Y-146009761D01*
X223219166Y-145914523D01*
X223219166Y-145533571D01*
X223171547Y-145438333D01*
X223076309Y-145390714D01*
X222885833Y-145390714D01*
X222790595Y-145438333D01*
X222742976Y-145533571D01*
X222742976Y-145628809D01*
X223219166Y-145724047D01*
X222314404Y-146057380D02*
X222314404Y-145390714D01*
X222314404Y-145581190D02*
X222266785Y-145485952D01*
X222219166Y-145438333D01*
X222123928Y-145390714D01*
X222028690Y-145390714D01*
X221314404Y-146009761D02*
X221409642Y-146057380D01*
X221600119Y-146057380D01*
X221695357Y-146009761D01*
X221742976Y-145914523D01*
X221742976Y-145533571D01*
X221695357Y-145438333D01*
X221600119Y-145390714D01*
X221409642Y-145390714D01*
X221314404Y-145438333D01*
X221266785Y-145533571D01*
X221266785Y-145628809D01*
X221742976Y-145724047D01*
X220790595Y-145057380D02*
X220885833Y-145247857D01*
X220409642Y-146009761D02*
X220314404Y-146057380D01*
X220123928Y-146057380D01*
X220028690Y-146009761D01*
X219981071Y-145914523D01*
X219981071Y-145866904D01*
X220028690Y-145771666D01*
X220123928Y-145724047D01*
X220266785Y-145724047D01*
X220362023Y-145676428D01*
X220409642Y-145581190D01*
X220409642Y-145533571D01*
X220362023Y-145438333D01*
X220266785Y-145390714D01*
X220123928Y-145390714D01*
X220028690Y-145438333D01*
X218362023Y-146057380D02*
X218362023Y-145533571D01*
X218409642Y-145438333D01*
X218504880Y-145390714D01*
X218695357Y-145390714D01*
X218790595Y-145438333D01*
X218362023Y-146009761D02*
X218457261Y-146057380D01*
X218695357Y-146057380D01*
X218790595Y-146009761D01*
X218838214Y-145914523D01*
X218838214Y-145819285D01*
X218790595Y-145724047D01*
X218695357Y-145676428D01*
X218457261Y-145676428D01*
X218362023Y-145628809D01*
X217123928Y-146057380D02*
X217123928Y-145057380D01*
X217123928Y-145438333D02*
X217028690Y-145390714D01*
X216838214Y-145390714D01*
X216742976Y-145438333D01*
X216695357Y-145485952D01*
X216647738Y-145581190D01*
X216647738Y-145866904D01*
X216695357Y-145962142D01*
X216742976Y-146009761D01*
X216838214Y-146057380D01*
X217028690Y-146057380D01*
X217123928Y-146009761D01*
X215790595Y-145390714D02*
X215790595Y-146057380D01*
X216219166Y-145390714D02*
X216219166Y-145914523D01*
X216171547Y-146009761D01*
X216076309Y-146057380D01*
X215933452Y-146057380D01*
X215838214Y-146009761D01*
X215790595Y-145962142D01*
X214885833Y-145390714D02*
X214885833Y-146200238D01*
X214933452Y-146295476D01*
X214981071Y-146343095D01*
X215076309Y-146390714D01*
X215219166Y-146390714D01*
X215314404Y-146343095D01*
X214885833Y-146009761D02*
X214981071Y-146057380D01*
X215171547Y-146057380D01*
X215266785Y-146009761D01*
X215314404Y-145962142D01*
X215362023Y-145866904D01*
X215362023Y-145581190D01*
X215314404Y-145485952D01*
X215266785Y-145438333D01*
X215171547Y-145390714D01*
X214981071Y-145390714D01*
X214885833Y-145438333D01*
X214504880Y-146438333D02*
X214457261Y-146390714D01*
X214362023Y-146247857D01*
X214314404Y-146152619D01*
X214266785Y-146009761D01*
X214219166Y-145771666D01*
X214219166Y-145581190D01*
X214266785Y-145343095D01*
X214314404Y-145200238D01*
X214362023Y-145105000D01*
X214457261Y-144962142D01*
X214504880Y-144914523D01*
X213742976Y-145962142D02*
X213695357Y-146009761D01*
X213742976Y-146057380D01*
X213790595Y-146009761D01*
X213742976Y-145962142D01*
X213742976Y-146057380D01*
D11*
X171335000Y-111425000D02*
G75*
G03*
X172035000Y-112125000I700000J0D01*
G01*
X172035000Y-110125000D02*
G75*
G03*
X171335000Y-110825000I0J-700000D01*
G01*
X174135000Y-110825000D02*
G75*
G03*
X173435000Y-110125000I-700000J0D01*
G01*
X173435000Y-112125000D02*
G75*
G03*
X174135000Y-111425000I0J700000D01*
G01*
X171335000Y-110825000D02*
X171335000Y-111425000D01*
X173435000Y-110125000D02*
X172035000Y-110125000D01*
X174135000Y-111425000D02*
X174135000Y-110825000D01*
X172035000Y-112125000D02*
X173435000Y-112125000D01*
X157365000Y-116505000D02*
G75*
G03*
X158065000Y-117205000I700000J0D01*
G01*
X158065000Y-115205000D02*
G75*
G03*
X157365000Y-115905000I0J-700000D01*
G01*
X160165000Y-115905000D02*
G75*
G03*
X159465000Y-115205000I-700000J0D01*
G01*
X159465000Y-117205000D02*
G75*
G03*
X160165000Y-116505000I0J700000D01*
G01*
X157365000Y-115905000D02*
X157365000Y-116505000D01*
X159465000Y-115205000D02*
X158065000Y-115205000D01*
X160165000Y-116505000D02*
X160165000Y-115905000D01*
X158065000Y-117205000D02*
X159465000Y-117205000D01*
X157365000Y-113965000D02*
G75*
G03*
X158065000Y-114665000I700000J0D01*
G01*
X158065000Y-112665000D02*
G75*
G03*
X157365000Y-113365000I0J-700000D01*
G01*
X160165000Y-113365000D02*
G75*
G03*
X159465000Y-112665000I-700000J0D01*
G01*
X159465000Y-114665000D02*
G75*
G03*
X160165000Y-113965000I0J700000D01*
G01*
X157365000Y-113365000D02*
X157365000Y-113965000D01*
X159465000Y-112665000D02*
X158065000Y-112665000D01*
X160165000Y-113965000D02*
X160165000Y-113365000D01*
X158065000Y-114665000D02*
X159465000Y-114665000D01*
X171335000Y-108885000D02*
G75*
G03*
X172035000Y-109585000I700000J0D01*
G01*
X172035000Y-107585000D02*
G75*
G03*
X171335000Y-108285000I0J-700000D01*
G01*
X174135000Y-108285000D02*
G75*
G03*
X173435000Y-107585000I-700000J0D01*
G01*
X173435000Y-109585000D02*
G75*
G03*
X174135000Y-108885000I0J700000D01*
G01*
X171335000Y-108285000D02*
X171335000Y-108885000D01*
X173435000Y-107585000D02*
X172035000Y-107585000D01*
X174135000Y-108885000D02*
X174135000Y-108285000D01*
X172035000Y-109585000D02*
X173435000Y-109585000D01*
X176675000Y-110825000D02*
G75*
G03*
X175975000Y-110125000I-700000J0D01*
G01*
X175975000Y-112125000D02*
G75*
G03*
X176675000Y-111425000I0J700000D01*
G01*
X173875000Y-111425000D02*
G75*
G03*
X174575000Y-112125000I700000J0D01*
G01*
X174575000Y-110125000D02*
G75*
G03*
X173875000Y-110825000I0J-700000D01*
G01*
X176675000Y-111425000D02*
X176675000Y-110825000D01*
X174575000Y-112125000D02*
X175975000Y-112125000D01*
X173875000Y-110825000D02*
X173875000Y-111425000D01*
X175975000Y-110125000D02*
X174575000Y-110125000D01*
X176645000Y-113365000D02*
G75*
G03*
X175945000Y-112665000I-700000J0D01*
G01*
X175945000Y-114665000D02*
G75*
G03*
X176645000Y-113965000I0J700000D01*
G01*
X173845000Y-113965000D02*
G75*
G03*
X174545000Y-114665000I700000J0D01*
G01*
X174545000Y-112665000D02*
G75*
G03*
X173845000Y-113365000I0J-700000D01*
G01*
X176645000Y-113965000D02*
X176645000Y-113365000D01*
X174545000Y-114665000D02*
X175945000Y-114665000D01*
X173845000Y-113365000D02*
X173845000Y-113965000D01*
X175945000Y-112665000D02*
X174545000Y-112665000D01*
M02*
