G04 #@! TF.GenerationSoftware,KiCad,Pcbnew,(5.1.7)-1*
G04 #@! TF.CreationDate,2022-08-31T14:47:41+01:00*
G04 #@! TF.ProjectId,CPCROM,43504352-4f4d-42e6-9b69-6361645f7063,rev?*
G04 #@! TF.SameCoordinates,Original*
G04 #@! TF.FileFunction,Legend,Top*
G04 #@! TF.FilePolarity,Positive*
%FSLAX46Y46*%
G04 Gerber Fmt 4.6, Leading zero omitted, Abs format (unit mm)*
G04 Created by KiCad (PCBNEW (5.1.7)-1) date 2022-08-31 14:47:41*
%MOMM*%
%LPD*%
G01*
G04 APERTURE LIST*
%ADD10C,0.150000*%
%ADD11C,0.200000*%
%ADD12C,0.300000*%
%ADD13C,0.120000*%
G04 APERTURE END LIST*
D10*
X248640000Y-149762500D02*
X248640000Y-148762500D01*
X250007380Y-148952976D02*
X249531190Y-149286309D01*
X250007380Y-149524404D02*
X249007380Y-149524404D01*
X249007380Y-149143452D01*
X249055000Y-149048214D01*
X249102619Y-149000595D01*
X249197857Y-148952976D01*
X249340714Y-148952976D01*
X249435952Y-149000595D01*
X249483571Y-149048214D01*
X249531190Y-149143452D01*
X249531190Y-149524404D01*
X248640000Y-148762500D02*
X248640000Y-147714880D01*
X249007380Y-148333928D02*
X249007380Y-148143452D01*
X249055000Y-148048214D01*
X249150238Y-147952976D01*
X249340714Y-147905357D01*
X249674047Y-147905357D01*
X249864523Y-147952976D01*
X249959761Y-148048214D01*
X250007380Y-148143452D01*
X250007380Y-148333928D01*
X249959761Y-148429166D01*
X249864523Y-148524404D01*
X249674047Y-148572023D01*
X249340714Y-148572023D01*
X249150238Y-148524404D01*
X249055000Y-148429166D01*
X249007380Y-148333928D01*
X248640000Y-147714880D02*
X248640000Y-146572023D01*
X250007380Y-147476785D02*
X249007380Y-147476785D01*
X249721666Y-147143452D01*
X249007380Y-146810119D01*
X250007380Y-146810119D01*
X248640000Y-146572023D02*
X248640000Y-145667261D01*
X249483571Y-146333928D02*
X249483571Y-146000595D01*
X250007380Y-145857738D02*
X250007380Y-146333928D01*
X249007380Y-146333928D01*
X249007380Y-145857738D01*
X248640000Y-145667261D02*
X248640000Y-144619642D01*
X250007380Y-145429166D02*
X249007380Y-145429166D01*
X250007380Y-144857738D01*
X249007380Y-144857738D01*
X247467380Y-148952976D02*
X246991190Y-149286309D01*
X247467380Y-149524404D02*
X246467380Y-149524404D01*
X246467380Y-149143452D01*
X246515000Y-149048214D01*
X246562619Y-149000595D01*
X246657857Y-148952976D01*
X246800714Y-148952976D01*
X246895952Y-149000595D01*
X246943571Y-149048214D01*
X246991190Y-149143452D01*
X246991190Y-149524404D01*
X246467380Y-148333928D02*
X246467380Y-148143452D01*
X246515000Y-148048214D01*
X246610238Y-147952976D01*
X246800714Y-147905357D01*
X247134047Y-147905357D01*
X247324523Y-147952976D01*
X247419761Y-148048214D01*
X247467380Y-148143452D01*
X247467380Y-148333928D01*
X247419761Y-148429166D01*
X247324523Y-148524404D01*
X247134047Y-148572023D01*
X246800714Y-148572023D01*
X246610238Y-148524404D01*
X246515000Y-148429166D01*
X246467380Y-148333928D01*
X247467380Y-147476785D02*
X246467380Y-147476785D01*
X247181666Y-147143452D01*
X246467380Y-146810119D01*
X247467380Y-146810119D01*
X247467380Y-146333928D02*
X246467380Y-146333928D01*
X246467380Y-146095833D01*
X246515000Y-145952976D01*
X246610238Y-145857738D01*
X246705476Y-145810119D01*
X246895952Y-145762500D01*
X247038809Y-145762500D01*
X247229285Y-145810119D01*
X247324523Y-145857738D01*
X247419761Y-145952976D01*
X247467380Y-146095833D01*
X247467380Y-146333928D01*
X247467380Y-145333928D02*
X246467380Y-145333928D01*
X247419761Y-144905357D02*
X247467380Y-144762500D01*
X247467380Y-144524404D01*
X247419761Y-144429166D01*
X247372142Y-144381547D01*
X247276904Y-144333928D01*
X247181666Y-144333928D01*
X247086428Y-144381547D01*
X247038809Y-144429166D01*
X246991190Y-144524404D01*
X246943571Y-144714880D01*
X246895952Y-144810119D01*
X246848333Y-144857738D01*
X246753095Y-144905357D01*
X246657857Y-144905357D01*
X246562619Y-144857738D01*
X246515000Y-144810119D01*
X246467380Y-144714880D01*
X246467380Y-144476785D01*
X246515000Y-144333928D01*
X252420380Y-132952857D02*
X251944190Y-133286190D01*
X252420380Y-133524285D02*
X251420380Y-133524285D01*
X251420380Y-133143333D01*
X251468000Y-133048095D01*
X251515619Y-133000476D01*
X251610857Y-132952857D01*
X251753714Y-132952857D01*
X251848952Y-133000476D01*
X251896571Y-133048095D01*
X251944190Y-133143333D01*
X251944190Y-133524285D01*
X251896571Y-132524285D02*
X251896571Y-132190952D01*
X252420380Y-132048095D02*
X252420380Y-132524285D01*
X251420380Y-132524285D01*
X251420380Y-132048095D01*
X251420380Y-131762380D02*
X252420380Y-131429047D01*
X251420380Y-131095714D01*
X251420380Y-129810000D02*
X251420380Y-129714761D01*
X251468000Y-129619523D01*
X251515619Y-129571904D01*
X251610857Y-129524285D01*
X251801333Y-129476666D01*
X252039428Y-129476666D01*
X252229904Y-129524285D01*
X252325142Y-129571904D01*
X252372761Y-129619523D01*
X252420380Y-129714761D01*
X252420380Y-129810000D01*
X252372761Y-129905238D01*
X252325142Y-129952857D01*
X252229904Y-130000476D01*
X252039428Y-130048095D01*
X251801333Y-130048095D01*
X251610857Y-130000476D01*
X251515619Y-129952857D01*
X251468000Y-129905238D01*
X251420380Y-129810000D01*
X252325142Y-129048095D02*
X252372761Y-129000476D01*
X252420380Y-129048095D01*
X252372761Y-129095714D01*
X252325142Y-129048095D01*
X252420380Y-129048095D01*
X251515619Y-128619523D02*
X251468000Y-128571904D01*
X251420380Y-128476666D01*
X251420380Y-128238571D01*
X251468000Y-128143333D01*
X251515619Y-128095714D01*
X251610857Y-128048095D01*
X251706095Y-128048095D01*
X251848952Y-128095714D01*
X252420380Y-128667142D01*
X252420380Y-128048095D01*
D11*
X217484285Y-140370714D02*
X217412857Y-140442142D01*
X217198571Y-140513571D01*
X217055714Y-140513571D01*
X216841428Y-140442142D01*
X216698571Y-140299285D01*
X216627142Y-140156428D01*
X216555714Y-139870714D01*
X216555714Y-139656428D01*
X216627142Y-139370714D01*
X216698571Y-139227857D01*
X216841428Y-139085000D01*
X217055714Y-139013571D01*
X217198571Y-139013571D01*
X217412857Y-139085000D01*
X217484285Y-139156428D01*
X218127142Y-140513571D02*
X218127142Y-139013571D01*
X218698571Y-139013571D01*
X218841428Y-139085000D01*
X218912857Y-139156428D01*
X218984285Y-139299285D01*
X218984285Y-139513571D01*
X218912857Y-139656428D01*
X218841428Y-139727857D01*
X218698571Y-139799285D01*
X218127142Y-139799285D01*
X220484285Y-140370714D02*
X220412857Y-140442142D01*
X220198571Y-140513571D01*
X220055714Y-140513571D01*
X219841428Y-140442142D01*
X219698571Y-140299285D01*
X219627142Y-140156428D01*
X219555714Y-139870714D01*
X219555714Y-139656428D01*
X219627142Y-139370714D01*
X219698571Y-139227857D01*
X219841428Y-139085000D01*
X220055714Y-139013571D01*
X220198571Y-139013571D01*
X220412857Y-139085000D01*
X220484285Y-139156428D01*
X222270000Y-140513571D02*
X222270000Y-139013571D01*
X222770000Y-140085000D01*
X223270000Y-139013571D01*
X223270000Y-140513571D01*
X224198571Y-140513571D02*
X224055714Y-140442142D01*
X223984285Y-140370714D01*
X223912857Y-140227857D01*
X223912857Y-139799285D01*
X223984285Y-139656428D01*
X224055714Y-139585000D01*
X224198571Y-139513571D01*
X224412857Y-139513571D01*
X224555714Y-139585000D01*
X224627142Y-139656428D01*
X224698571Y-139799285D01*
X224698571Y-140227857D01*
X224627142Y-140370714D01*
X224555714Y-140442142D01*
X224412857Y-140513571D01*
X224198571Y-140513571D01*
X225984285Y-140513571D02*
X225984285Y-139013571D01*
X225984285Y-140442142D02*
X225841428Y-140513571D01*
X225555714Y-140513571D01*
X225412857Y-140442142D01*
X225341428Y-140370714D01*
X225270000Y-140227857D01*
X225270000Y-139799285D01*
X225341428Y-139656428D01*
X225412857Y-139585000D01*
X225555714Y-139513571D01*
X225841428Y-139513571D01*
X225984285Y-139585000D01*
X227341428Y-139513571D02*
X227341428Y-140513571D01*
X226698571Y-139513571D02*
X226698571Y-140299285D01*
X226770000Y-140442142D01*
X226912857Y-140513571D01*
X227127142Y-140513571D01*
X227270000Y-140442142D01*
X227341428Y-140370714D01*
X228270000Y-140513571D02*
X228127142Y-140442142D01*
X228055714Y-140299285D01*
X228055714Y-139013571D01*
X229484285Y-140513571D02*
X229484285Y-139727857D01*
X229412857Y-139585000D01*
X229270000Y-139513571D01*
X228984285Y-139513571D01*
X228841428Y-139585000D01*
X229484285Y-140442142D02*
X229341428Y-140513571D01*
X228984285Y-140513571D01*
X228841428Y-140442142D01*
X228770000Y-140299285D01*
X228770000Y-140156428D01*
X228841428Y-140013571D01*
X228984285Y-139942142D01*
X229341428Y-139942142D01*
X229484285Y-139870714D01*
X230198571Y-140513571D02*
X230198571Y-139513571D01*
X230198571Y-139799285D02*
X230270000Y-139656428D01*
X230341428Y-139585000D01*
X230484285Y-139513571D01*
X230627142Y-139513571D01*
X209055714Y-142177857D02*
X209270000Y-142249285D01*
X209341428Y-142320714D01*
X209412857Y-142463571D01*
X209412857Y-142677857D01*
X209341428Y-142820714D01*
X209270000Y-142892142D01*
X209127142Y-142963571D01*
X208555714Y-142963571D01*
X208555714Y-141463571D01*
X209055714Y-141463571D01*
X209198571Y-141535000D01*
X209270000Y-141606428D01*
X209341428Y-141749285D01*
X209341428Y-141892142D01*
X209270000Y-142035000D01*
X209198571Y-142106428D01*
X209055714Y-142177857D01*
X208555714Y-142177857D01*
X210698571Y-141963571D02*
X210698571Y-142963571D01*
X210055714Y-141963571D02*
X210055714Y-142749285D01*
X210127142Y-142892142D01*
X210270000Y-142963571D01*
X210484285Y-142963571D01*
X210627142Y-142892142D01*
X210698571Y-142820714D01*
X211412857Y-142963571D02*
X211412857Y-141963571D01*
X211412857Y-142249285D02*
X211484285Y-142106428D01*
X211555714Y-142035000D01*
X211698571Y-141963571D01*
X211841428Y-141963571D01*
X212341428Y-141963571D02*
X212341428Y-142963571D01*
X212341428Y-142106428D02*
X212412857Y-142035000D01*
X212555714Y-141963571D01*
X212770000Y-141963571D01*
X212912857Y-142035000D01*
X212984285Y-142177857D01*
X212984285Y-142963571D01*
X214341428Y-142963571D02*
X214341428Y-142177857D01*
X214270000Y-142035000D01*
X214127142Y-141963571D01*
X213841428Y-141963571D01*
X213698571Y-142035000D01*
X214341428Y-142892142D02*
X214198571Y-142963571D01*
X213841428Y-142963571D01*
X213698571Y-142892142D01*
X213627142Y-142749285D01*
X213627142Y-142606428D01*
X213698571Y-142463571D01*
X213841428Y-142392142D01*
X214198571Y-142392142D01*
X214341428Y-142320714D01*
X215055714Y-142963571D02*
X215055714Y-141463571D01*
X215055714Y-142035000D02*
X215198571Y-141963571D01*
X215484285Y-141963571D01*
X215627142Y-142035000D01*
X215698571Y-142106428D01*
X215770000Y-142249285D01*
X215770000Y-142677857D01*
X215698571Y-142820714D01*
X215627142Y-142892142D01*
X215484285Y-142963571D01*
X215198571Y-142963571D01*
X215055714Y-142892142D01*
X216627142Y-142963571D02*
X216484285Y-142892142D01*
X216412857Y-142749285D01*
X216412857Y-141463571D01*
X217770000Y-142892142D02*
X217627142Y-142963571D01*
X217341428Y-142963571D01*
X217198571Y-142892142D01*
X217127142Y-142749285D01*
X217127142Y-142177857D01*
X217198571Y-142035000D01*
X217341428Y-141963571D01*
X217627142Y-141963571D01*
X217770000Y-142035000D01*
X217841428Y-142177857D01*
X217841428Y-142320714D01*
X217127142Y-142463571D01*
X220127142Y-142177857D02*
X219627142Y-142177857D01*
X219627142Y-142963571D02*
X219627142Y-141463571D01*
X220341428Y-141463571D01*
X221127142Y-142963571D02*
X220984285Y-142892142D01*
X220912857Y-142749285D01*
X220912857Y-141463571D01*
X222341428Y-142963571D02*
X222341428Y-142177857D01*
X222270000Y-142035000D01*
X222127142Y-141963571D01*
X221841428Y-141963571D01*
X221698571Y-142035000D01*
X222341428Y-142892142D02*
X222198571Y-142963571D01*
X221841428Y-142963571D01*
X221698571Y-142892142D01*
X221627142Y-142749285D01*
X221627142Y-142606428D01*
X221698571Y-142463571D01*
X221841428Y-142392142D01*
X222198571Y-142392142D01*
X222341428Y-142320714D01*
X222984285Y-142892142D02*
X223127142Y-142963571D01*
X223412857Y-142963571D01*
X223555714Y-142892142D01*
X223627142Y-142749285D01*
X223627142Y-142677857D01*
X223555714Y-142535000D01*
X223412857Y-142463571D01*
X223198571Y-142463571D01*
X223055714Y-142392142D01*
X222984285Y-142249285D01*
X222984285Y-142177857D01*
X223055714Y-142035000D01*
X223198571Y-141963571D01*
X223412857Y-141963571D01*
X223555714Y-142035000D01*
X224270000Y-142963571D02*
X224270000Y-141463571D01*
X224912857Y-142963571D02*
X224912857Y-142177857D01*
X224841428Y-142035000D01*
X224698571Y-141963571D01*
X224484285Y-141963571D01*
X224341428Y-142035000D01*
X224270000Y-142106428D01*
X227627142Y-142963571D02*
X227127142Y-142249285D01*
X226770000Y-142963571D02*
X226770000Y-141463571D01*
X227341428Y-141463571D01*
X227484285Y-141535000D01*
X227555714Y-141606428D01*
X227627142Y-141749285D01*
X227627142Y-141963571D01*
X227555714Y-142106428D01*
X227484285Y-142177857D01*
X227341428Y-142249285D01*
X226770000Y-142249285D01*
X228555714Y-141463571D02*
X228841428Y-141463571D01*
X228984285Y-141535000D01*
X229127142Y-141677857D01*
X229198571Y-141963571D01*
X229198571Y-142463571D01*
X229127142Y-142749285D01*
X228984285Y-142892142D01*
X228841428Y-142963571D01*
X228555714Y-142963571D01*
X228412857Y-142892142D01*
X228270000Y-142749285D01*
X228198571Y-142463571D01*
X228198571Y-141963571D01*
X228270000Y-141677857D01*
X228412857Y-141535000D01*
X228555714Y-141463571D01*
X229841428Y-142963571D02*
X229841428Y-141463571D01*
X230341428Y-142535000D01*
X230841428Y-141463571D01*
X230841428Y-142963571D01*
X233198571Y-142177857D02*
X233412857Y-142249285D01*
X233484285Y-142320714D01*
X233555714Y-142463571D01*
X233555714Y-142677857D01*
X233484285Y-142820714D01*
X233412857Y-142892142D01*
X233270000Y-142963571D01*
X232698571Y-142963571D01*
X232698571Y-141463571D01*
X233198571Y-141463571D01*
X233341428Y-141535000D01*
X233412857Y-141606428D01*
X233484285Y-141749285D01*
X233484285Y-141892142D01*
X233412857Y-142035000D01*
X233341428Y-142106428D01*
X233198571Y-142177857D01*
X232698571Y-142177857D01*
X234412857Y-142963571D02*
X234270000Y-142892142D01*
X234198571Y-142820714D01*
X234127142Y-142677857D01*
X234127142Y-142249285D01*
X234198571Y-142106428D01*
X234270000Y-142035000D01*
X234412857Y-141963571D01*
X234627142Y-141963571D01*
X234770000Y-142035000D01*
X234841428Y-142106428D01*
X234912857Y-142249285D01*
X234912857Y-142677857D01*
X234841428Y-142820714D01*
X234770000Y-142892142D01*
X234627142Y-142963571D01*
X234412857Y-142963571D01*
X236198571Y-142963571D02*
X236198571Y-142177857D01*
X236127142Y-142035000D01*
X235984285Y-141963571D01*
X235698571Y-141963571D01*
X235555714Y-142035000D01*
X236198571Y-142892142D02*
X236055714Y-142963571D01*
X235698571Y-142963571D01*
X235555714Y-142892142D01*
X235484285Y-142749285D01*
X235484285Y-142606428D01*
X235555714Y-142463571D01*
X235698571Y-142392142D01*
X236055714Y-142392142D01*
X236198571Y-142320714D01*
X236912857Y-142963571D02*
X236912857Y-141963571D01*
X236912857Y-142249285D02*
X236984285Y-142106428D01*
X237055714Y-142035000D01*
X237198571Y-141963571D01*
X237341428Y-141963571D01*
X238484285Y-142963571D02*
X238484285Y-141463571D01*
X238484285Y-142892142D02*
X238341428Y-142963571D01*
X238055714Y-142963571D01*
X237912857Y-142892142D01*
X237841428Y-142820714D01*
X237770000Y-142677857D01*
X237770000Y-142249285D01*
X237841428Y-142106428D01*
X237912857Y-142035000D01*
X238055714Y-141963571D01*
X238341428Y-141963571D01*
X238484285Y-142035000D01*
X213162857Y-144270714D02*
X213020000Y-144199285D01*
X212734285Y-144199285D01*
X212591428Y-144270714D01*
X212448571Y-144413571D01*
X212377142Y-144556428D01*
X212377142Y-144842142D01*
X212448571Y-144985000D01*
X212591428Y-145127857D01*
X212734285Y-145199285D01*
X213020000Y-145199285D01*
X213162857Y-145127857D01*
X212877142Y-143699285D02*
X212520000Y-143770714D01*
X212162857Y-143985000D01*
X211948571Y-144342142D01*
X211877142Y-144699285D01*
X211948571Y-145056428D01*
X212162857Y-145413571D01*
X212520000Y-145627857D01*
X212877142Y-145699285D01*
X213234285Y-145627857D01*
X213591428Y-145413571D01*
X213805714Y-145056428D01*
X213877142Y-144699285D01*
X213805714Y-144342142D01*
X213591428Y-143985000D01*
X213234285Y-143770714D01*
X212877142Y-143699285D01*
X215662857Y-145413571D02*
X215662857Y-143913571D01*
X216162857Y-144985000D01*
X216662857Y-143913571D01*
X216662857Y-145413571D01*
X217377142Y-145413571D02*
X217377142Y-144413571D01*
X217377142Y-143913571D02*
X217305714Y-143985000D01*
X217377142Y-144056428D01*
X217448571Y-143985000D01*
X217377142Y-143913571D01*
X217377142Y-144056428D01*
X218091428Y-145413571D02*
X218091428Y-143913571D01*
X218234285Y-144842142D02*
X218662857Y-145413571D01*
X218662857Y-144413571D02*
X218091428Y-144985000D01*
X219877142Y-145342142D02*
X219734285Y-145413571D01*
X219448571Y-145413571D01*
X219305714Y-145342142D01*
X219234285Y-145199285D01*
X219234285Y-144627857D01*
X219305714Y-144485000D01*
X219448571Y-144413571D01*
X219734285Y-144413571D01*
X219877142Y-144485000D01*
X219948571Y-144627857D01*
X219948571Y-144770714D01*
X219234285Y-144913571D01*
X221662857Y-145342142D02*
X221877142Y-145413571D01*
X222234285Y-145413571D01*
X222377142Y-145342142D01*
X222448571Y-145270714D01*
X222520000Y-145127857D01*
X222520000Y-144985000D01*
X222448571Y-144842142D01*
X222377142Y-144770714D01*
X222234285Y-144699285D01*
X221948571Y-144627857D01*
X221805714Y-144556428D01*
X221734285Y-144485000D01*
X221662857Y-144342142D01*
X221662857Y-144199285D01*
X221734285Y-144056428D01*
X221805714Y-143985000D01*
X221948571Y-143913571D01*
X222305714Y-143913571D01*
X222520000Y-143985000D01*
X223805714Y-144413571D02*
X223805714Y-145413571D01*
X223162857Y-144413571D02*
X223162857Y-145199285D01*
X223234285Y-145342142D01*
X223377142Y-145413571D01*
X223591428Y-145413571D01*
X223734285Y-145342142D01*
X223805714Y-145270714D01*
X224305714Y-144413571D02*
X224877142Y-144413571D01*
X224520000Y-143913571D02*
X224520000Y-145199285D01*
X224591428Y-145342142D01*
X224734285Y-145413571D01*
X224877142Y-145413571D01*
X225162857Y-144413571D02*
X225734285Y-144413571D01*
X225377142Y-143913571D02*
X225377142Y-145199285D01*
X225448571Y-145342142D01*
X225591428Y-145413571D01*
X225734285Y-145413571D01*
X226448571Y-145413571D02*
X226305714Y-145342142D01*
X226234285Y-145270714D01*
X226162857Y-145127857D01*
X226162857Y-144699285D01*
X226234285Y-144556428D01*
X226305714Y-144485000D01*
X226448571Y-144413571D01*
X226662857Y-144413571D01*
X226805714Y-144485000D01*
X226877142Y-144556428D01*
X226948571Y-144699285D01*
X226948571Y-145127857D01*
X226877142Y-145270714D01*
X226805714Y-145342142D01*
X226662857Y-145413571D01*
X226448571Y-145413571D01*
X227591428Y-144413571D02*
X227591428Y-145413571D01*
X227591428Y-144556428D02*
X227662857Y-144485000D01*
X227805714Y-144413571D01*
X228020000Y-144413571D01*
X228162857Y-144485000D01*
X228234285Y-144627857D01*
X228234285Y-145413571D01*
X230020000Y-144056428D02*
X230091428Y-143985000D01*
X230234285Y-143913571D01*
X230591428Y-143913571D01*
X230734285Y-143985000D01*
X230805714Y-144056428D01*
X230877142Y-144199285D01*
X230877142Y-144342142D01*
X230805714Y-144556428D01*
X229948571Y-145413571D01*
X230877142Y-145413571D01*
X231805714Y-143913571D02*
X231948571Y-143913571D01*
X232091428Y-143985000D01*
X232162857Y-144056428D01*
X232234285Y-144199285D01*
X232305714Y-144485000D01*
X232305714Y-144842142D01*
X232234285Y-145127857D01*
X232162857Y-145270714D01*
X232091428Y-145342142D01*
X231948571Y-145413571D01*
X231805714Y-145413571D01*
X231662857Y-145342142D01*
X231591428Y-145270714D01*
X231520000Y-145127857D01*
X231448571Y-144842142D01*
X231448571Y-144485000D01*
X231520000Y-144199285D01*
X231591428Y-144056428D01*
X231662857Y-143985000D01*
X231805714Y-143913571D01*
X232877142Y-144056428D02*
X232948571Y-143985000D01*
X233091428Y-143913571D01*
X233448571Y-143913571D01*
X233591428Y-143985000D01*
X233662857Y-144056428D01*
X233734285Y-144199285D01*
X233734285Y-144342142D01*
X233662857Y-144556428D01*
X232805714Y-145413571D01*
X233734285Y-145413571D01*
X234305714Y-144056428D02*
X234377142Y-143985000D01*
X234520000Y-143913571D01*
X234877142Y-143913571D01*
X235020000Y-143985000D01*
X235091428Y-144056428D01*
X235162857Y-144199285D01*
X235162857Y-144342142D01*
X235091428Y-144556428D01*
X234234285Y-145413571D01*
X235162857Y-145413571D01*
X217055714Y-147077857D02*
X217270000Y-147149285D01*
X217341428Y-147220714D01*
X217412857Y-147363571D01*
X217412857Y-147577857D01*
X217341428Y-147720714D01*
X217270000Y-147792142D01*
X217127142Y-147863571D01*
X216555714Y-147863571D01*
X216555714Y-146363571D01*
X217055714Y-146363571D01*
X217198571Y-146435000D01*
X217270000Y-146506428D01*
X217341428Y-146649285D01*
X217341428Y-146792142D01*
X217270000Y-146935000D01*
X217198571Y-147006428D01*
X217055714Y-147077857D01*
X216555714Y-147077857D01*
X218055714Y-147863571D02*
X218055714Y-146863571D01*
X218055714Y-147149285D02*
X218127142Y-147006428D01*
X218198571Y-146935000D01*
X218341428Y-146863571D01*
X218484285Y-146863571D01*
X219555714Y-147792142D02*
X219412857Y-147863571D01*
X219127142Y-147863571D01*
X218984285Y-147792142D01*
X218912857Y-147649285D01*
X218912857Y-147077857D01*
X218984285Y-146935000D01*
X219127142Y-146863571D01*
X219412857Y-146863571D01*
X219555714Y-146935000D01*
X219627142Y-147077857D01*
X219627142Y-147220714D01*
X218912857Y-147363571D01*
X220912857Y-147863571D02*
X220912857Y-147077857D01*
X220841428Y-146935000D01*
X220698571Y-146863571D01*
X220412857Y-146863571D01*
X220270000Y-146935000D01*
X220912857Y-147792142D02*
X220770000Y-147863571D01*
X220412857Y-147863571D01*
X220270000Y-147792142D01*
X220198571Y-147649285D01*
X220198571Y-147506428D01*
X220270000Y-147363571D01*
X220412857Y-147292142D01*
X220770000Y-147292142D01*
X220912857Y-147220714D01*
X222270000Y-147863571D02*
X222270000Y-146363571D01*
X222270000Y-147792142D02*
X222127142Y-147863571D01*
X221841428Y-147863571D01*
X221698571Y-147792142D01*
X221627142Y-147720714D01*
X221555714Y-147577857D01*
X221555714Y-147149285D01*
X221627142Y-147006428D01*
X221698571Y-146935000D01*
X221841428Y-146863571D01*
X222127142Y-146863571D01*
X222270000Y-146935000D01*
X223198571Y-147006428D02*
X223055714Y-146935000D01*
X222984285Y-146863571D01*
X222912857Y-146720714D01*
X222912857Y-146649285D01*
X222984285Y-146506428D01*
X223055714Y-146435000D01*
X223198571Y-146363571D01*
X223484285Y-146363571D01*
X223627142Y-146435000D01*
X223698571Y-146506428D01*
X223770000Y-146649285D01*
X223770000Y-146720714D01*
X223698571Y-146863571D01*
X223627142Y-146935000D01*
X223484285Y-147006428D01*
X223198571Y-147006428D01*
X223055714Y-147077857D01*
X222984285Y-147149285D01*
X222912857Y-147292142D01*
X222912857Y-147577857D01*
X222984285Y-147720714D01*
X223055714Y-147792142D01*
X223198571Y-147863571D01*
X223484285Y-147863571D01*
X223627142Y-147792142D01*
X223698571Y-147720714D01*
X223770000Y-147577857D01*
X223770000Y-147292142D01*
X223698571Y-147149285D01*
X223627142Y-147077857D01*
X223484285Y-147006428D01*
X224698571Y-146363571D02*
X224841428Y-146363571D01*
X224984285Y-146435000D01*
X225055714Y-146506428D01*
X225127142Y-146649285D01*
X225198571Y-146935000D01*
X225198571Y-147292142D01*
X225127142Y-147577857D01*
X225055714Y-147720714D01*
X224984285Y-147792142D01*
X224841428Y-147863571D01*
X224698571Y-147863571D01*
X224555714Y-147792142D01*
X224484285Y-147720714D01*
X224412857Y-147577857D01*
X224341428Y-147292142D01*
X224341428Y-146935000D01*
X224412857Y-146649285D01*
X224484285Y-146506428D01*
X224555714Y-146435000D01*
X224698571Y-146363571D01*
X225841428Y-147720714D02*
X225912857Y-147792142D01*
X225841428Y-147863571D01*
X225770000Y-147792142D01*
X225841428Y-147720714D01*
X225841428Y-147863571D01*
X227198571Y-147792142D02*
X227055714Y-147863571D01*
X226770000Y-147863571D01*
X226627142Y-147792142D01*
X226555714Y-147720714D01*
X226484285Y-147577857D01*
X226484285Y-147149285D01*
X226555714Y-147006428D01*
X226627142Y-146935000D01*
X226770000Y-146863571D01*
X227055714Y-146863571D01*
X227198571Y-146935000D01*
X228055714Y-147863571D02*
X227912857Y-147792142D01*
X227841428Y-147720714D01*
X227770000Y-147577857D01*
X227770000Y-147149285D01*
X227841428Y-147006428D01*
X227912857Y-146935000D01*
X228055714Y-146863571D01*
X228270000Y-146863571D01*
X228412857Y-146935000D01*
X228484285Y-147006428D01*
X228555714Y-147149285D01*
X228555714Y-147577857D01*
X228484285Y-147720714D01*
X228412857Y-147792142D01*
X228270000Y-147863571D01*
X228055714Y-147863571D01*
X229198571Y-147863571D02*
X229198571Y-146863571D01*
X229198571Y-147006428D02*
X229270000Y-146935000D01*
X229412857Y-146863571D01*
X229627142Y-146863571D01*
X229770000Y-146935000D01*
X229841428Y-147077857D01*
X229841428Y-147863571D01*
X229841428Y-147077857D02*
X229912857Y-146935000D01*
X230055714Y-146863571D01*
X230270000Y-146863571D01*
X230412857Y-146935000D01*
X230484285Y-147077857D01*
X230484285Y-147863571D01*
X156895800Y-153131520D02*
X156931360Y-153131520D01*
X156895800Y-143019780D02*
X156895800Y-153131520D01*
X155326080Y-143019780D02*
X156895800Y-143019780D01*
X154144980Y-144200880D02*
X155326080Y-143019780D01*
X154144980Y-153131520D02*
X154144980Y-144200880D01*
D12*
X156360251Y-149315465D02*
X154860251Y-149315465D01*
X154860251Y-148744037D01*
X154931680Y-148601180D01*
X155003108Y-148529751D01*
X155145965Y-148458322D01*
X155360251Y-148458322D01*
X155503108Y-148529751D01*
X155574537Y-148601180D01*
X155645965Y-148744037D01*
X155645965Y-149315465D01*
X156360251Y-147815465D02*
X155360251Y-147815465D01*
X154860251Y-147815465D02*
X154931680Y-147886894D01*
X155003108Y-147815465D01*
X154931680Y-147744037D01*
X154860251Y-147815465D01*
X155003108Y-147815465D01*
X155360251Y-147101180D02*
X156360251Y-147101180D01*
X155503108Y-147101180D02*
X155431680Y-147029751D01*
X155360251Y-146886894D01*
X155360251Y-146672608D01*
X155431680Y-146529751D01*
X155574537Y-146458322D01*
X156360251Y-146458322D01*
X156360251Y-143815465D02*
X156360251Y-144672608D01*
X156360251Y-144244037D02*
X154860251Y-144244037D01*
X155074537Y-144386894D01*
X155217394Y-144529751D01*
X155288822Y-144672608D01*
D13*
X185690000Y-104715000D02*
X184040000Y-104715000D01*
X184040000Y-104715000D02*
X184040000Y-122615000D01*
X184040000Y-122615000D02*
X189340000Y-122615000D01*
X189340000Y-122615000D02*
X189340000Y-104715000D01*
X189340000Y-104715000D02*
X187690000Y-104715000D01*
X181550000Y-104655000D02*
X181550000Y-122675000D01*
X181550000Y-122675000D02*
X191830000Y-122675000D01*
X191830000Y-122675000D02*
X191830000Y-104655000D01*
X191830000Y-104655000D02*
X181550000Y-104655000D01*
X187690000Y-104715000D02*
G75*
G02*
X185690000Y-104715000I-1000000J0D01*
G01*
X166155000Y-119645000D02*
X166220000Y-119645000D01*
X163980000Y-119645000D02*
X164045000Y-119645000D01*
X166155000Y-122885000D02*
X166220000Y-122885000D01*
X163980000Y-122885000D02*
X164045000Y-122885000D01*
X166220000Y-122885000D02*
X166220000Y-119645000D01*
X163980000Y-122885000D02*
X163980000Y-119645000D01*
X161300000Y-147345000D02*
G75*
G03*
X161300000Y-147345000I-2550000J0D01*
G01*
X159650000Y-147345000D02*
G75*
G03*
X159650000Y-147345000I-900000J0D01*
G01*
X161200000Y-148075000D02*
X210140000Y-148075000D01*
X210140000Y-148075000D02*
X210140000Y-124975000D01*
X210140000Y-124975000D02*
X154440000Y-124975000D01*
X154440000Y-124975000D02*
X154440000Y-148075000D01*
X154440000Y-148075000D02*
X156300000Y-148075000D01*
X154440000Y-145795000D02*
X156700000Y-145795000D01*
X166370000Y-149095000D02*
X163830000Y-149095000D01*
X245170000Y-143450000D02*
X245170000Y-144780000D01*
X243840000Y-143450000D02*
X245170000Y-143450000D01*
X242570000Y-143450000D02*
X242570000Y-146110000D01*
X242570000Y-146110000D02*
X239970000Y-146110000D01*
X242570000Y-143450000D02*
X239970000Y-143450000D01*
X239970000Y-143450000D02*
X239970000Y-146110000D01*
X237430000Y-148650000D02*
X237430000Y-147320000D01*
X238760000Y-148650000D02*
X237430000Y-148650000D01*
X240030000Y-148650000D02*
X240030000Y-145990000D01*
X240030000Y-145990000D02*
X242630000Y-145990000D01*
X240030000Y-148650000D02*
X242630000Y-148650000D01*
X242630000Y-148650000D02*
X242630000Y-145990000D01*
X171720000Y-104715000D02*
X170070000Y-104715000D01*
X170070000Y-104715000D02*
X170070000Y-122615000D01*
X170070000Y-122615000D02*
X175370000Y-122615000D01*
X175370000Y-122615000D02*
X175370000Y-104715000D01*
X175370000Y-104715000D02*
X173720000Y-104715000D01*
X167580000Y-104655000D02*
X167580000Y-122675000D01*
X167580000Y-122675000D02*
X177860000Y-122675000D01*
X177860000Y-122675000D02*
X177860000Y-104655000D01*
X177860000Y-104655000D02*
X167580000Y-104655000D01*
X173720000Y-104715000D02*
G75*
G02*
X171720000Y-104715000I-1000000J0D01*
G01*
X226160000Y-129445000D02*
X225830000Y-129445000D01*
X226160000Y-135985000D02*
X226160000Y-129445000D01*
X225830000Y-135985000D02*
X226160000Y-135985000D01*
X223420000Y-129445000D02*
X223750000Y-129445000D01*
X223420000Y-135985000D02*
X223420000Y-129445000D01*
X223750000Y-135985000D02*
X223420000Y-135985000D01*
X222985000Y-129445000D02*
X222655000Y-129445000D01*
X222985000Y-135985000D02*
X222985000Y-129445000D01*
X222655000Y-135985000D02*
X222985000Y-135985000D01*
X220245000Y-129445000D02*
X220575000Y-129445000D01*
X220245000Y-135985000D02*
X220245000Y-129445000D01*
X220575000Y-135985000D02*
X220245000Y-135985000D01*
X219810000Y-129445000D02*
X219480000Y-129445000D01*
X219810000Y-135985000D02*
X219810000Y-129445000D01*
X219480000Y-135985000D02*
X219810000Y-135985000D01*
X217070000Y-129445000D02*
X217400000Y-129445000D01*
X217070000Y-135985000D02*
X217070000Y-129445000D01*
X217400000Y-135985000D02*
X217070000Y-135985000D01*
X216635000Y-129445000D02*
X216305000Y-129445000D01*
X216635000Y-135985000D02*
X216635000Y-129445000D01*
X216305000Y-135985000D02*
X216635000Y-135985000D01*
X213895000Y-129445000D02*
X214225000Y-129445000D01*
X213895000Y-135985000D02*
X213895000Y-129445000D01*
X214225000Y-135985000D02*
X213895000Y-135985000D01*
X213460000Y-129445000D02*
X213130000Y-129445000D01*
X213460000Y-135985000D02*
X213460000Y-129445000D01*
X213130000Y-135985000D02*
X213460000Y-135985000D01*
X210720000Y-129445000D02*
X211050000Y-129445000D01*
X210720000Y-135985000D02*
X210720000Y-129445000D01*
X211050000Y-135985000D02*
X210720000Y-135985000D01*
X248380000Y-141705000D02*
X248380000Y-141375000D01*
X241840000Y-141705000D02*
X248380000Y-141705000D01*
X241840000Y-141375000D02*
X241840000Y-141705000D01*
X248380000Y-138965000D02*
X248380000Y-139295000D01*
X241840000Y-138965000D02*
X248380000Y-138965000D01*
X241840000Y-139295000D02*
X241840000Y-138965000D01*
X220920000Y-112455000D02*
X220920000Y-111125000D01*
X222250000Y-112455000D02*
X220920000Y-112455000D01*
X223520000Y-112455000D02*
X223520000Y-109795000D01*
X223520000Y-109795000D02*
X226120000Y-109795000D01*
X223520000Y-112455000D02*
X226120000Y-112455000D01*
X226120000Y-112455000D02*
X226120000Y-109795000D01*
X220920000Y-109915000D02*
X220920000Y-108585000D01*
X222250000Y-109915000D02*
X220920000Y-109915000D01*
X223520000Y-109915000D02*
X223520000Y-107255000D01*
X223520000Y-107255000D02*
X226120000Y-107255000D01*
X223520000Y-109915000D02*
X226120000Y-109915000D01*
X226120000Y-109915000D02*
X226120000Y-107255000D01*
X220920000Y-107375000D02*
X220920000Y-106045000D01*
X222250000Y-107375000D02*
X220920000Y-107375000D01*
X223520000Y-107375000D02*
X223520000Y-104715000D01*
X223520000Y-104715000D02*
X226120000Y-104715000D01*
X223520000Y-107375000D02*
X226120000Y-107375000D01*
X226120000Y-107375000D02*
X226120000Y-104715000D01*
X154372000Y-152942600D02*
X154372000Y-151612600D01*
X155702000Y-152942600D02*
X154372000Y-152942600D01*
X156972000Y-152942600D02*
X156972000Y-150282600D01*
X156972000Y-150282600D02*
X256092000Y-150282600D01*
X156972000Y-152942600D02*
X256092000Y-152942600D01*
X256092000Y-152942600D02*
X256092000Y-150282600D01*
X232290000Y-116145000D02*
X232290000Y-126425000D01*
X250310000Y-116145000D02*
X232290000Y-116145000D01*
X250310000Y-126425000D02*
X250310000Y-116145000D01*
X232290000Y-126425000D02*
X250310000Y-126425000D01*
X232350000Y-118635000D02*
X232350000Y-120285000D01*
X250250000Y-118635000D02*
X232350000Y-118635000D01*
X250250000Y-123935000D02*
X250250000Y-118635000D01*
X232350000Y-123935000D02*
X250250000Y-123935000D01*
X232350000Y-122285000D02*
X232350000Y-123935000D01*
X232350000Y-120285000D02*
G75*
G02*
X232350000Y-122285000I0J-1000000D01*
G01*
X232290000Y-104715000D02*
X232290000Y-114995000D01*
X250310000Y-104715000D02*
X232290000Y-104715000D01*
X250310000Y-114995000D02*
X250310000Y-104715000D01*
X232290000Y-114995000D02*
X250310000Y-114995000D01*
X232350000Y-107205000D02*
X232350000Y-108855000D01*
X250250000Y-107205000D02*
X232350000Y-107205000D01*
X250250000Y-112505000D02*
X250250000Y-107205000D01*
X232350000Y-112505000D02*
X250250000Y-112505000D01*
X232350000Y-110855000D02*
X232350000Y-112505000D01*
X232350000Y-108855000D02*
G75*
G02*
X232350000Y-110855000I0J-1000000D01*
G01*
X232290000Y-127575000D02*
X232290000Y-137855000D01*
X250310000Y-127575000D02*
X232290000Y-127575000D01*
X250310000Y-137855000D02*
X250310000Y-127575000D01*
X232290000Y-137855000D02*
X250310000Y-137855000D01*
X232350000Y-130065000D02*
X232350000Y-131715000D01*
X250250000Y-130065000D02*
X232350000Y-130065000D01*
X250250000Y-135365000D02*
X250250000Y-130065000D01*
X232350000Y-135365000D02*
X250250000Y-135365000D01*
X232350000Y-133715000D02*
X232350000Y-135365000D01*
X232350000Y-131715000D02*
G75*
G02*
X232350000Y-133715000I0J-1000000D01*
G01*
X192920000Y-110430000D02*
X192920000Y-120710000D01*
X218560000Y-110430000D02*
X192920000Y-110430000D01*
X218560000Y-120710000D02*
X218560000Y-110430000D01*
X192920000Y-120710000D02*
X218560000Y-120710000D01*
X192980000Y-112920000D02*
X192980000Y-114570000D01*
X218500000Y-112920000D02*
X192980000Y-112920000D01*
X218500000Y-118220000D02*
X218500000Y-112920000D01*
X192980000Y-118220000D02*
X218500000Y-118220000D01*
X192980000Y-116570000D02*
X192980000Y-118220000D01*
X192980000Y-114570000D02*
G75*
G02*
X192980000Y-116570000I0J-1000000D01*
G01*
X197180000Y-107100000D02*
X197180000Y-107165000D01*
X197180000Y-104925000D02*
X197180000Y-104990000D01*
X193940000Y-107100000D02*
X193940000Y-107165000D01*
X193940000Y-104925000D02*
X193940000Y-104990000D01*
X193940000Y-107165000D02*
X197180000Y-107165000D01*
X193940000Y-104925000D02*
X197180000Y-104925000D01*
X197180000Y-109640000D02*
X197180000Y-109705000D01*
X197180000Y-107465000D02*
X197180000Y-107530000D01*
X193940000Y-109640000D02*
X193940000Y-109705000D01*
X193940000Y-107465000D02*
X193940000Y-107530000D01*
X193940000Y-109705000D02*
X197180000Y-109705000D01*
X193940000Y-107465000D02*
X197180000Y-107465000D01*
X228815000Y-111455000D02*
X228750000Y-111455000D01*
X230990000Y-111455000D02*
X230925000Y-111455000D01*
X228815000Y-108215000D02*
X228750000Y-108215000D01*
X230990000Y-108215000D02*
X230925000Y-108215000D01*
X228750000Y-108215000D02*
X228750000Y-111455000D01*
X230990000Y-108215000D02*
X230990000Y-111455000D01*
X228815000Y-122885000D02*
X228750000Y-122885000D01*
X230990000Y-122885000D02*
X230925000Y-122885000D01*
X228815000Y-119645000D02*
X228750000Y-119645000D01*
X230990000Y-119645000D02*
X230925000Y-119645000D01*
X228750000Y-119645000D02*
X228750000Y-122885000D01*
X230990000Y-119645000D02*
X230990000Y-122885000D01*
X178650000Y-108915000D02*
X178585000Y-108915000D01*
X180825000Y-108915000D02*
X180760000Y-108915000D01*
X178650000Y-105675000D02*
X178585000Y-105675000D01*
X180825000Y-105675000D02*
X180760000Y-105675000D01*
X178585000Y-105675000D02*
X178585000Y-108915000D01*
X180825000Y-105675000D02*
X180825000Y-108915000D01*
X228815000Y-134315000D02*
X228750000Y-134315000D01*
X230990000Y-134315000D02*
X230925000Y-134315000D01*
X228815000Y-131075000D02*
X228750000Y-131075000D01*
X230990000Y-131075000D02*
X230925000Y-131075000D01*
X228750000Y-131075000D02*
X228750000Y-134315000D01*
X230990000Y-131075000D02*
X230990000Y-134315000D01*
D10*
X180792380Y-115593571D02*
X179792380Y-115593571D01*
X180697142Y-114545952D02*
X180744761Y-114593571D01*
X180792380Y-114736428D01*
X180792380Y-114831666D01*
X180744761Y-114974523D01*
X180649523Y-115069761D01*
X180554285Y-115117380D01*
X180363809Y-115165000D01*
X180220952Y-115165000D01*
X180030476Y-115117380D01*
X179935238Y-115069761D01*
X179840000Y-114974523D01*
X179792380Y-114831666D01*
X179792380Y-114736428D01*
X179840000Y-114593571D01*
X179887619Y-114545952D01*
X180792380Y-113593571D02*
X180792380Y-114165000D01*
X180792380Y-113879285D02*
X179792380Y-113879285D01*
X179935238Y-113974523D01*
X180030476Y-114069761D01*
X180078095Y-114165000D01*
X180792380Y-113117380D02*
X180792380Y-112926904D01*
X180744761Y-112831666D01*
X180697142Y-112784047D01*
X180554285Y-112688809D01*
X180363809Y-112641190D01*
X179982857Y-112641190D01*
X179887619Y-112688809D01*
X179840000Y-112736428D01*
X179792380Y-112831666D01*
X179792380Y-113022142D01*
X179840000Y-113117380D01*
X179887619Y-113165000D01*
X179982857Y-113212619D01*
X180220952Y-113212619D01*
X180316190Y-113165000D01*
X180363809Y-113117380D01*
X180411428Y-113022142D01*
X180411428Y-112831666D01*
X180363809Y-112736428D01*
X180316190Y-112688809D01*
X180220952Y-112641190D01*
X180792380Y-111688809D02*
X180792380Y-112260238D01*
X180792380Y-111974523D02*
X179792380Y-111974523D01*
X179935238Y-112069761D01*
X180030476Y-112165000D01*
X180078095Y-112260238D01*
X186142380Y-116307857D02*
X186142380Y-115641190D01*
X187142380Y-116069761D01*
X186475714Y-114831666D02*
X187142380Y-114831666D01*
X186094761Y-115069761D02*
X186809047Y-115307857D01*
X186809047Y-114688809D01*
X187142380Y-113831666D02*
X187142380Y-114307857D01*
X186142380Y-114307857D01*
X187094761Y-113545952D02*
X187142380Y-113403095D01*
X187142380Y-113165000D01*
X187094761Y-113069761D01*
X187047142Y-113022142D01*
X186951904Y-112974523D01*
X186856666Y-112974523D01*
X186761428Y-113022142D01*
X186713809Y-113069761D01*
X186666190Y-113165000D01*
X186618571Y-113355476D01*
X186570952Y-113450714D01*
X186523333Y-113498333D01*
X186428095Y-113545952D01*
X186332857Y-113545952D01*
X186237619Y-113498333D01*
X186190000Y-113450714D01*
X186142380Y-113355476D01*
X186142380Y-113117380D01*
X186190000Y-112974523D01*
X186142380Y-112641190D02*
X186142380Y-112022142D01*
X186523333Y-112355476D01*
X186523333Y-112212619D01*
X186570952Y-112117380D01*
X186618571Y-112069761D01*
X186713809Y-112022142D01*
X186951904Y-112022142D01*
X187047142Y-112069761D01*
X187094761Y-112117380D01*
X187142380Y-112212619D01*
X187142380Y-112498333D01*
X187094761Y-112593571D01*
X187047142Y-112641190D01*
X186237619Y-111641190D02*
X186190000Y-111593571D01*
X186142380Y-111498333D01*
X186142380Y-111260238D01*
X186190000Y-111165000D01*
X186237619Y-111117380D01*
X186332857Y-111069761D01*
X186428095Y-111069761D01*
X186570952Y-111117380D01*
X187142380Y-111688809D01*
X187142380Y-111069761D01*
X165457142Y-118276666D02*
X165504761Y-118324285D01*
X165552380Y-118467142D01*
X165552380Y-118562380D01*
X165504761Y-118705238D01*
X165409523Y-118800476D01*
X165314285Y-118848095D01*
X165123809Y-118895714D01*
X164980952Y-118895714D01*
X164790476Y-118848095D01*
X164695238Y-118800476D01*
X164600000Y-118705238D01*
X164552380Y-118562380D01*
X164552380Y-118467142D01*
X164600000Y-118324285D01*
X164647619Y-118276666D01*
X164552380Y-117943333D02*
X164552380Y-117276666D01*
X165552380Y-117705238D01*
X156186428Y-124277380D02*
X156186428Y-123277380D01*
X157234047Y-124182142D02*
X157186428Y-124229761D01*
X157043571Y-124277380D01*
X156948333Y-124277380D01*
X156805476Y-124229761D01*
X156710238Y-124134523D01*
X156662619Y-124039285D01*
X156615000Y-123848809D01*
X156615000Y-123705952D01*
X156662619Y-123515476D01*
X156710238Y-123420238D01*
X156805476Y-123325000D01*
X156948333Y-123277380D01*
X157043571Y-123277380D01*
X157186428Y-123325000D01*
X157234047Y-123372619D01*
X158186428Y-124277380D02*
X157615000Y-124277380D01*
X157900714Y-124277380D02*
X157900714Y-123277380D01*
X157805476Y-123420238D01*
X157710238Y-123515476D01*
X157615000Y-123563095D01*
X158805476Y-123277380D02*
X158900714Y-123277380D01*
X158995952Y-123325000D01*
X159043571Y-123372619D01*
X159091190Y-123467857D01*
X159138809Y-123658333D01*
X159138809Y-123896428D01*
X159091190Y-124086904D01*
X159043571Y-124182142D01*
X158995952Y-124229761D01*
X158900714Y-124277380D01*
X158805476Y-124277380D01*
X158710238Y-124229761D01*
X158662619Y-124182142D01*
X158615000Y-124086904D01*
X158567380Y-123896428D01*
X158567380Y-123658333D01*
X158615000Y-123467857D01*
X158662619Y-123372619D01*
X158710238Y-123325000D01*
X158805476Y-123277380D01*
X159472142Y-123277380D02*
X160091190Y-123277380D01*
X159757857Y-123658333D01*
X159900714Y-123658333D01*
X159995952Y-123705952D01*
X160043571Y-123753571D01*
X160091190Y-123848809D01*
X160091190Y-124086904D01*
X160043571Y-124182142D01*
X159995952Y-124229761D01*
X159900714Y-124277380D01*
X159615000Y-124277380D01*
X159519761Y-124229761D01*
X159472142Y-124182142D01*
X180991428Y-136929761D02*
X181134285Y-136977380D01*
X181372380Y-136977380D01*
X181467619Y-136929761D01*
X181515238Y-136882142D01*
X181562857Y-136786904D01*
X181562857Y-136691666D01*
X181515238Y-136596428D01*
X181467619Y-136548809D01*
X181372380Y-136501190D01*
X181181904Y-136453571D01*
X181086666Y-136405952D01*
X181039047Y-136358333D01*
X180991428Y-136263095D01*
X180991428Y-136167857D01*
X181039047Y-136072619D01*
X181086666Y-136025000D01*
X181181904Y-135977380D01*
X181420000Y-135977380D01*
X181562857Y-136025000D01*
X181943809Y-136929761D02*
X182086666Y-136977380D01*
X182324761Y-136977380D01*
X182420000Y-136929761D01*
X182467619Y-136882142D01*
X182515238Y-136786904D01*
X182515238Y-136691666D01*
X182467619Y-136596428D01*
X182420000Y-136548809D01*
X182324761Y-136501190D01*
X182134285Y-136453571D01*
X182039047Y-136405952D01*
X181991428Y-136358333D01*
X181943809Y-136263095D01*
X181943809Y-136167857D01*
X181991428Y-136072619D01*
X182039047Y-136025000D01*
X182134285Y-135977380D01*
X182372380Y-135977380D01*
X182515238Y-136025000D01*
X182800952Y-135977380D02*
X183372380Y-135977380D01*
X183086666Y-136977380D02*
X183086666Y-135977380D01*
X183610476Y-135977380D02*
X184229523Y-135977380D01*
X183896190Y-136358333D01*
X184039047Y-136358333D01*
X184134285Y-136405952D01*
X184181904Y-136453571D01*
X184229523Y-136548809D01*
X184229523Y-136786904D01*
X184181904Y-136882142D01*
X184134285Y-136929761D01*
X184039047Y-136977380D01*
X183753333Y-136977380D01*
X183658095Y-136929761D01*
X183610476Y-136882142D01*
X184705714Y-136977380D02*
X184896190Y-136977380D01*
X184991428Y-136929761D01*
X185039047Y-136882142D01*
X185134285Y-136739285D01*
X185181904Y-136548809D01*
X185181904Y-136167857D01*
X185134285Y-136072619D01*
X185086666Y-136025000D01*
X184991428Y-135977380D01*
X184800952Y-135977380D01*
X184705714Y-136025000D01*
X184658095Y-136072619D01*
X184610476Y-136167857D01*
X184610476Y-136405952D01*
X184658095Y-136501190D01*
X184705714Y-136548809D01*
X184800952Y-136596428D01*
X184991428Y-136596428D01*
X185086666Y-136548809D01*
X185134285Y-136501190D01*
X185181904Y-136405952D01*
X185562857Y-136929761D02*
X185705714Y-136977380D01*
X185943809Y-136977380D01*
X186039047Y-136929761D01*
X186086666Y-136882142D01*
X186134285Y-136786904D01*
X186134285Y-136691666D01*
X186086666Y-136596428D01*
X186039047Y-136548809D01*
X185943809Y-136501190D01*
X185753333Y-136453571D01*
X185658095Y-136405952D01*
X185610476Y-136358333D01*
X185562857Y-136263095D01*
X185562857Y-136167857D01*
X185610476Y-136072619D01*
X185658095Y-136025000D01*
X185753333Y-135977380D01*
X185991428Y-135977380D01*
X186134285Y-136025000D01*
X186896190Y-136453571D02*
X186562857Y-136453571D01*
X186562857Y-136977380D02*
X186562857Y-135977380D01*
X187039047Y-135977380D01*
X187610476Y-135977380D02*
X187705714Y-135977380D01*
X187800952Y-136025000D01*
X187848571Y-136072619D01*
X187896190Y-136167857D01*
X187943809Y-136358333D01*
X187943809Y-136596428D01*
X187896190Y-136786904D01*
X187848571Y-136882142D01*
X187800952Y-136929761D01*
X187705714Y-136977380D01*
X187610476Y-136977380D01*
X187515238Y-136929761D01*
X187467619Y-136882142D01*
X187420000Y-136786904D01*
X187372380Y-136596428D01*
X187372380Y-136358333D01*
X187420000Y-136167857D01*
X187467619Y-136072619D01*
X187515238Y-136025000D01*
X187610476Y-135977380D01*
X188800952Y-136310714D02*
X188800952Y-136977380D01*
X188562857Y-135929761D02*
X188324761Y-136644047D01*
X188943809Y-136644047D01*
X189515238Y-135977380D02*
X189610476Y-135977380D01*
X189705714Y-136025000D01*
X189753333Y-136072619D01*
X189800952Y-136167857D01*
X189848571Y-136358333D01*
X189848571Y-136596428D01*
X189800952Y-136786904D01*
X189753333Y-136882142D01*
X189705714Y-136929761D01*
X189610476Y-136977380D01*
X189515238Y-136977380D01*
X189420000Y-136929761D01*
X189372380Y-136882142D01*
X189324761Y-136786904D01*
X189277142Y-136596428D01*
X189277142Y-136358333D01*
X189324761Y-136167857D01*
X189372380Y-136072619D01*
X189420000Y-136025000D01*
X189515238Y-135977380D01*
X246348333Y-143327380D02*
X245872142Y-143327380D01*
X245872142Y-142327380D01*
X246681666Y-143327380D02*
X246681666Y-142327380D01*
X247253095Y-143327380D02*
X246824523Y-142755952D01*
X247253095Y-142327380D02*
X246681666Y-142898809D01*
X248157857Y-142327380D02*
X247681666Y-142327380D01*
X247634047Y-142803571D01*
X247681666Y-142755952D01*
X247776904Y-142708333D01*
X248015000Y-142708333D01*
X248110238Y-142755952D01*
X248157857Y-142803571D01*
X248205476Y-142898809D01*
X248205476Y-143136904D01*
X248157857Y-143232142D01*
X248110238Y-143279761D01*
X248015000Y-143327380D01*
X247776904Y-143327380D01*
X247681666Y-143279761D01*
X247634047Y-143232142D01*
X236882380Y-147986666D02*
X236882380Y-148462857D01*
X235882380Y-148462857D01*
X236882380Y-147653333D02*
X235882380Y-147653333D01*
X236882380Y-147081904D02*
X236310952Y-147510476D01*
X235882380Y-147081904D02*
X236453809Y-147653333D01*
X236215714Y-146224761D02*
X236882380Y-146224761D01*
X235834761Y-146462857D02*
X236549047Y-146700952D01*
X236549047Y-146081904D01*
X179522380Y-121943571D02*
X178522380Y-121943571D01*
X179427142Y-120895952D02*
X179474761Y-120943571D01*
X179522380Y-121086428D01*
X179522380Y-121181666D01*
X179474761Y-121324523D01*
X179379523Y-121419761D01*
X179284285Y-121467380D01*
X179093809Y-121515000D01*
X178950952Y-121515000D01*
X178760476Y-121467380D01*
X178665238Y-121419761D01*
X178570000Y-121324523D01*
X178522380Y-121181666D01*
X178522380Y-121086428D01*
X178570000Y-120943571D01*
X178617619Y-120895952D01*
X179522380Y-119943571D02*
X179522380Y-120515000D01*
X179522380Y-120229285D02*
X178522380Y-120229285D01*
X178665238Y-120324523D01*
X178760476Y-120419761D01*
X178808095Y-120515000D01*
X179522380Y-119467380D02*
X179522380Y-119276904D01*
X179474761Y-119181666D01*
X179427142Y-119134047D01*
X179284285Y-119038809D01*
X179093809Y-118991190D01*
X178712857Y-118991190D01*
X178617619Y-119038809D01*
X178570000Y-119086428D01*
X178522380Y-119181666D01*
X178522380Y-119372142D01*
X178570000Y-119467380D01*
X178617619Y-119515000D01*
X178712857Y-119562619D01*
X178950952Y-119562619D01*
X179046190Y-119515000D01*
X179093809Y-119467380D01*
X179141428Y-119372142D01*
X179141428Y-119181666D01*
X179093809Y-119086428D01*
X179046190Y-119038809D01*
X178950952Y-118991190D01*
X178522380Y-118657857D02*
X178522380Y-118038809D01*
X178903333Y-118372142D01*
X178903333Y-118229285D01*
X178950952Y-118134047D01*
X178998571Y-118086428D01*
X179093809Y-118038809D01*
X179331904Y-118038809D01*
X179427142Y-118086428D01*
X179474761Y-118134047D01*
X179522380Y-118229285D01*
X179522380Y-118515000D01*
X179474761Y-118610238D01*
X179427142Y-118657857D01*
X172172380Y-116307857D02*
X172172380Y-115641190D01*
X173172380Y-116069761D01*
X172505714Y-114831666D02*
X173172380Y-114831666D01*
X172124761Y-115069761D02*
X172839047Y-115307857D01*
X172839047Y-114688809D01*
X173172380Y-113831666D02*
X173172380Y-114307857D01*
X172172380Y-114307857D01*
X173124761Y-113545952D02*
X173172380Y-113403095D01*
X173172380Y-113165000D01*
X173124761Y-113069761D01*
X173077142Y-113022142D01*
X172981904Y-112974523D01*
X172886666Y-112974523D01*
X172791428Y-113022142D01*
X172743809Y-113069761D01*
X172696190Y-113165000D01*
X172648571Y-113355476D01*
X172600952Y-113450714D01*
X172553333Y-113498333D01*
X172458095Y-113545952D01*
X172362857Y-113545952D01*
X172267619Y-113498333D01*
X172220000Y-113450714D01*
X172172380Y-113355476D01*
X172172380Y-113117380D01*
X172220000Y-112974523D01*
X172172380Y-112355476D02*
X172172380Y-112260238D01*
X172220000Y-112165000D01*
X172267619Y-112117380D01*
X172362857Y-112069761D01*
X172553333Y-112022142D01*
X172791428Y-112022142D01*
X172981904Y-112069761D01*
X173077142Y-112117380D01*
X173124761Y-112165000D01*
X173172380Y-112260238D01*
X173172380Y-112355476D01*
X173124761Y-112450714D01*
X173077142Y-112498333D01*
X172981904Y-112545952D01*
X172791428Y-112593571D01*
X172553333Y-112593571D01*
X172362857Y-112545952D01*
X172267619Y-112498333D01*
X172220000Y-112450714D01*
X172172380Y-112355476D01*
X172267619Y-111641190D02*
X172220000Y-111593571D01*
X172172380Y-111498333D01*
X172172380Y-111260238D01*
X172220000Y-111165000D01*
X172267619Y-111117380D01*
X172362857Y-111069761D01*
X172458095Y-111069761D01*
X172600952Y-111117380D01*
X173172380Y-111688809D01*
X173172380Y-111069761D01*
X225242380Y-126849047D02*
X224766190Y-127182380D01*
X225242380Y-127420476D02*
X224242380Y-127420476D01*
X224242380Y-127039523D01*
X224290000Y-126944285D01*
X224337619Y-126896666D01*
X224432857Y-126849047D01*
X224575714Y-126849047D01*
X224670952Y-126896666D01*
X224718571Y-126944285D01*
X224766190Y-127039523D01*
X224766190Y-127420476D01*
X225242380Y-125896666D02*
X225242380Y-126468095D01*
X225242380Y-126182380D02*
X224242380Y-126182380D01*
X224385238Y-126277619D01*
X224480476Y-126372857D01*
X224528095Y-126468095D01*
X225242380Y-125420476D02*
X225242380Y-125230000D01*
X225194761Y-125134761D01*
X225147142Y-125087142D01*
X225004285Y-124991904D01*
X224813809Y-124944285D01*
X224432857Y-124944285D01*
X224337619Y-124991904D01*
X224290000Y-125039523D01*
X224242380Y-125134761D01*
X224242380Y-125325238D01*
X224290000Y-125420476D01*
X224337619Y-125468095D01*
X224432857Y-125515714D01*
X224670952Y-125515714D01*
X224766190Y-125468095D01*
X224813809Y-125420476D01*
X224861428Y-125325238D01*
X224861428Y-125134761D01*
X224813809Y-125039523D01*
X224766190Y-124991904D01*
X224670952Y-124944285D01*
X224575714Y-124087142D02*
X225242380Y-124087142D01*
X224194761Y-124325238D02*
X224909047Y-124563333D01*
X224909047Y-123944285D01*
X224337619Y-133881666D02*
X224290000Y-133834047D01*
X224242380Y-133738809D01*
X224242380Y-133500714D01*
X224290000Y-133405476D01*
X224337619Y-133357857D01*
X224432857Y-133310238D01*
X224528095Y-133310238D01*
X224670952Y-133357857D01*
X225242380Y-133929285D01*
X225242380Y-133310238D01*
X225242380Y-132881666D02*
X224242380Y-132881666D01*
X224861428Y-132786428D02*
X225242380Y-132500714D01*
X224575714Y-132500714D02*
X224956666Y-132881666D01*
X224337619Y-132119761D02*
X224290000Y-132072142D01*
X224242380Y-131976904D01*
X224242380Y-131738809D01*
X224290000Y-131643571D01*
X224337619Y-131595952D01*
X224432857Y-131548333D01*
X224528095Y-131548333D01*
X224670952Y-131595952D01*
X225242380Y-132167380D01*
X225242380Y-131548333D01*
X222067380Y-126849047D02*
X221591190Y-127182380D01*
X222067380Y-127420476D02*
X221067380Y-127420476D01*
X221067380Y-127039523D01*
X221115000Y-126944285D01*
X221162619Y-126896666D01*
X221257857Y-126849047D01*
X221400714Y-126849047D01*
X221495952Y-126896666D01*
X221543571Y-126944285D01*
X221591190Y-127039523D01*
X221591190Y-127420476D01*
X222067380Y-125896666D02*
X222067380Y-126468095D01*
X222067380Y-126182380D02*
X221067380Y-126182380D01*
X221210238Y-126277619D01*
X221305476Y-126372857D01*
X221353095Y-126468095D01*
X222067380Y-125420476D02*
X222067380Y-125230000D01*
X222019761Y-125134761D01*
X221972142Y-125087142D01*
X221829285Y-124991904D01*
X221638809Y-124944285D01*
X221257857Y-124944285D01*
X221162619Y-124991904D01*
X221115000Y-125039523D01*
X221067380Y-125134761D01*
X221067380Y-125325238D01*
X221115000Y-125420476D01*
X221162619Y-125468095D01*
X221257857Y-125515714D01*
X221495952Y-125515714D01*
X221591190Y-125468095D01*
X221638809Y-125420476D01*
X221686428Y-125325238D01*
X221686428Y-125134761D01*
X221638809Y-125039523D01*
X221591190Y-124991904D01*
X221495952Y-124944285D01*
X221067380Y-124610952D02*
X221067380Y-123991904D01*
X221448333Y-124325238D01*
X221448333Y-124182380D01*
X221495952Y-124087142D01*
X221543571Y-124039523D01*
X221638809Y-123991904D01*
X221876904Y-123991904D01*
X221972142Y-124039523D01*
X222019761Y-124087142D01*
X222067380Y-124182380D01*
X222067380Y-124468095D01*
X222019761Y-124563333D01*
X221972142Y-124610952D01*
X221162619Y-133881666D02*
X221115000Y-133834047D01*
X221067380Y-133738809D01*
X221067380Y-133500714D01*
X221115000Y-133405476D01*
X221162619Y-133357857D01*
X221257857Y-133310238D01*
X221353095Y-133310238D01*
X221495952Y-133357857D01*
X222067380Y-133929285D01*
X222067380Y-133310238D01*
X222067380Y-132881666D02*
X221067380Y-132881666D01*
X221686428Y-132786428D02*
X222067380Y-132500714D01*
X221400714Y-132500714D02*
X221781666Y-132881666D01*
X221162619Y-132119761D02*
X221115000Y-132072142D01*
X221067380Y-131976904D01*
X221067380Y-131738809D01*
X221115000Y-131643571D01*
X221162619Y-131595952D01*
X221257857Y-131548333D01*
X221353095Y-131548333D01*
X221495952Y-131595952D01*
X222067380Y-132167380D01*
X222067380Y-131548333D01*
X218892380Y-126849047D02*
X218416190Y-127182380D01*
X218892380Y-127420476D02*
X217892380Y-127420476D01*
X217892380Y-127039523D01*
X217940000Y-126944285D01*
X217987619Y-126896666D01*
X218082857Y-126849047D01*
X218225714Y-126849047D01*
X218320952Y-126896666D01*
X218368571Y-126944285D01*
X218416190Y-127039523D01*
X218416190Y-127420476D01*
X218892380Y-125896666D02*
X218892380Y-126468095D01*
X218892380Y-126182380D02*
X217892380Y-126182380D01*
X218035238Y-126277619D01*
X218130476Y-126372857D01*
X218178095Y-126468095D01*
X218892380Y-125420476D02*
X218892380Y-125230000D01*
X218844761Y-125134761D01*
X218797142Y-125087142D01*
X218654285Y-124991904D01*
X218463809Y-124944285D01*
X218082857Y-124944285D01*
X217987619Y-124991904D01*
X217940000Y-125039523D01*
X217892380Y-125134761D01*
X217892380Y-125325238D01*
X217940000Y-125420476D01*
X217987619Y-125468095D01*
X218082857Y-125515714D01*
X218320952Y-125515714D01*
X218416190Y-125468095D01*
X218463809Y-125420476D01*
X218511428Y-125325238D01*
X218511428Y-125134761D01*
X218463809Y-125039523D01*
X218416190Y-124991904D01*
X218320952Y-124944285D01*
X217987619Y-124563333D02*
X217940000Y-124515714D01*
X217892380Y-124420476D01*
X217892380Y-124182380D01*
X217940000Y-124087142D01*
X217987619Y-124039523D01*
X218082857Y-123991904D01*
X218178095Y-123991904D01*
X218320952Y-124039523D01*
X218892380Y-124610952D01*
X218892380Y-123991904D01*
X217987619Y-133881666D02*
X217940000Y-133834047D01*
X217892380Y-133738809D01*
X217892380Y-133500714D01*
X217940000Y-133405476D01*
X217987619Y-133357857D01*
X218082857Y-133310238D01*
X218178095Y-133310238D01*
X218320952Y-133357857D01*
X218892380Y-133929285D01*
X218892380Y-133310238D01*
X218892380Y-132881666D02*
X217892380Y-132881666D01*
X218511428Y-132786428D02*
X218892380Y-132500714D01*
X218225714Y-132500714D02*
X218606666Y-132881666D01*
X217987619Y-132119761D02*
X217940000Y-132072142D01*
X217892380Y-131976904D01*
X217892380Y-131738809D01*
X217940000Y-131643571D01*
X217987619Y-131595952D01*
X218082857Y-131548333D01*
X218178095Y-131548333D01*
X218320952Y-131595952D01*
X218892380Y-132167380D01*
X218892380Y-131548333D01*
X215717380Y-126849047D02*
X215241190Y-127182380D01*
X215717380Y-127420476D02*
X214717380Y-127420476D01*
X214717380Y-127039523D01*
X214765000Y-126944285D01*
X214812619Y-126896666D01*
X214907857Y-126849047D01*
X215050714Y-126849047D01*
X215145952Y-126896666D01*
X215193571Y-126944285D01*
X215241190Y-127039523D01*
X215241190Y-127420476D01*
X215717380Y-125896666D02*
X215717380Y-126468095D01*
X215717380Y-126182380D02*
X214717380Y-126182380D01*
X214860238Y-126277619D01*
X214955476Y-126372857D01*
X215003095Y-126468095D01*
X215717380Y-125420476D02*
X215717380Y-125230000D01*
X215669761Y-125134761D01*
X215622142Y-125087142D01*
X215479285Y-124991904D01*
X215288809Y-124944285D01*
X214907857Y-124944285D01*
X214812619Y-124991904D01*
X214765000Y-125039523D01*
X214717380Y-125134761D01*
X214717380Y-125325238D01*
X214765000Y-125420476D01*
X214812619Y-125468095D01*
X214907857Y-125515714D01*
X215145952Y-125515714D01*
X215241190Y-125468095D01*
X215288809Y-125420476D01*
X215336428Y-125325238D01*
X215336428Y-125134761D01*
X215288809Y-125039523D01*
X215241190Y-124991904D01*
X215145952Y-124944285D01*
X215717380Y-123991904D02*
X215717380Y-124563333D01*
X215717380Y-124277619D02*
X214717380Y-124277619D01*
X214860238Y-124372857D01*
X214955476Y-124468095D01*
X215003095Y-124563333D01*
X214812619Y-133881666D02*
X214765000Y-133834047D01*
X214717380Y-133738809D01*
X214717380Y-133500714D01*
X214765000Y-133405476D01*
X214812619Y-133357857D01*
X214907857Y-133310238D01*
X215003095Y-133310238D01*
X215145952Y-133357857D01*
X215717380Y-133929285D01*
X215717380Y-133310238D01*
X215717380Y-132881666D02*
X214717380Y-132881666D01*
X215336428Y-132786428D02*
X215717380Y-132500714D01*
X215050714Y-132500714D02*
X215431666Y-132881666D01*
X214812619Y-132119761D02*
X214765000Y-132072142D01*
X214717380Y-131976904D01*
X214717380Y-131738809D01*
X214765000Y-131643571D01*
X214812619Y-131595952D01*
X214907857Y-131548333D01*
X215003095Y-131548333D01*
X215145952Y-131595952D01*
X215717380Y-132167380D01*
X215717380Y-131548333D01*
X212542380Y-126849047D02*
X212066190Y-127182380D01*
X212542380Y-127420476D02*
X211542380Y-127420476D01*
X211542380Y-127039523D01*
X211590000Y-126944285D01*
X211637619Y-126896666D01*
X211732857Y-126849047D01*
X211875714Y-126849047D01*
X211970952Y-126896666D01*
X212018571Y-126944285D01*
X212066190Y-127039523D01*
X212066190Y-127420476D01*
X212542380Y-125896666D02*
X212542380Y-126468095D01*
X212542380Y-126182380D02*
X211542380Y-126182380D01*
X211685238Y-126277619D01*
X211780476Y-126372857D01*
X211828095Y-126468095D01*
X212542380Y-125420476D02*
X212542380Y-125230000D01*
X212494761Y-125134761D01*
X212447142Y-125087142D01*
X212304285Y-124991904D01*
X212113809Y-124944285D01*
X211732857Y-124944285D01*
X211637619Y-124991904D01*
X211590000Y-125039523D01*
X211542380Y-125134761D01*
X211542380Y-125325238D01*
X211590000Y-125420476D01*
X211637619Y-125468095D01*
X211732857Y-125515714D01*
X211970952Y-125515714D01*
X212066190Y-125468095D01*
X212113809Y-125420476D01*
X212161428Y-125325238D01*
X212161428Y-125134761D01*
X212113809Y-125039523D01*
X212066190Y-124991904D01*
X211970952Y-124944285D01*
X211542380Y-124325238D02*
X211542380Y-124230000D01*
X211590000Y-124134761D01*
X211637619Y-124087142D01*
X211732857Y-124039523D01*
X211923333Y-123991904D01*
X212161428Y-123991904D01*
X212351904Y-124039523D01*
X212447142Y-124087142D01*
X212494761Y-124134761D01*
X212542380Y-124230000D01*
X212542380Y-124325238D01*
X212494761Y-124420476D01*
X212447142Y-124468095D01*
X212351904Y-124515714D01*
X212161428Y-124563333D01*
X211923333Y-124563333D01*
X211732857Y-124515714D01*
X211637619Y-124468095D01*
X211590000Y-124420476D01*
X211542380Y-124325238D01*
X211637619Y-133881666D02*
X211590000Y-133834047D01*
X211542380Y-133738809D01*
X211542380Y-133500714D01*
X211590000Y-133405476D01*
X211637619Y-133357857D01*
X211732857Y-133310238D01*
X211828095Y-133310238D01*
X211970952Y-133357857D01*
X212542380Y-133929285D01*
X212542380Y-133310238D01*
X212542380Y-132881666D02*
X211542380Y-132881666D01*
X212161428Y-132786428D02*
X212542380Y-132500714D01*
X211875714Y-132500714D02*
X212256666Y-132881666D01*
X211637619Y-132119761D02*
X211590000Y-132072142D01*
X211542380Y-131976904D01*
X211542380Y-131738809D01*
X211590000Y-131643571D01*
X211637619Y-131595952D01*
X211732857Y-131548333D01*
X211828095Y-131548333D01*
X211970952Y-131595952D01*
X212542380Y-132167380D01*
X212542380Y-131548333D01*
X251277380Y-141454047D02*
X250801190Y-141787380D01*
X251277380Y-142025476D02*
X250277380Y-142025476D01*
X250277380Y-141644523D01*
X250325000Y-141549285D01*
X250372619Y-141501666D01*
X250467857Y-141454047D01*
X250610714Y-141454047D01*
X250705952Y-141501666D01*
X250753571Y-141549285D01*
X250801190Y-141644523D01*
X250801190Y-142025476D01*
X251277380Y-140501666D02*
X251277380Y-141073095D01*
X251277380Y-140787380D02*
X250277380Y-140787380D01*
X250420238Y-140882619D01*
X250515476Y-140977857D01*
X250563095Y-141073095D01*
X251277380Y-139549285D02*
X251277380Y-140120714D01*
X251277380Y-139835000D02*
X250277380Y-139835000D01*
X250420238Y-139930238D01*
X250515476Y-140025476D01*
X250563095Y-140120714D01*
X250372619Y-139168333D02*
X250325000Y-139120714D01*
X250277380Y-139025476D01*
X250277380Y-138787380D01*
X250325000Y-138692142D01*
X250372619Y-138644523D01*
X250467857Y-138596904D01*
X250563095Y-138596904D01*
X250705952Y-138644523D01*
X251277380Y-139215952D01*
X251277380Y-138596904D01*
X243943333Y-139882619D02*
X243990952Y-139835000D01*
X244086190Y-139787380D01*
X244324285Y-139787380D01*
X244419523Y-139835000D01*
X244467142Y-139882619D01*
X244514761Y-139977857D01*
X244514761Y-140073095D01*
X244467142Y-140215952D01*
X243895714Y-140787380D01*
X244514761Y-140787380D01*
X244943333Y-140787380D02*
X244943333Y-139787380D01*
X245038571Y-140406428D02*
X245324285Y-140787380D01*
X245324285Y-140120714D02*
X244943333Y-140501666D01*
X245705238Y-139882619D02*
X245752857Y-139835000D01*
X245848095Y-139787380D01*
X246086190Y-139787380D01*
X246181428Y-139835000D01*
X246229047Y-139882619D01*
X246276666Y-139977857D01*
X246276666Y-140073095D01*
X246229047Y-140215952D01*
X245657619Y-140787380D01*
X246276666Y-140787380D01*
X222853333Y-114117380D02*
X222377142Y-114117380D01*
X222377142Y-113117380D01*
X223186666Y-114117380D02*
X223186666Y-113117380D01*
X223758095Y-114117380D02*
X223329523Y-113545952D01*
X223758095Y-113117380D02*
X223186666Y-113688809D01*
X224091428Y-113117380D02*
X224710476Y-113117380D01*
X224377142Y-113498333D01*
X224520000Y-113498333D01*
X224615238Y-113545952D01*
X224662857Y-113593571D01*
X224710476Y-113688809D01*
X224710476Y-113926904D01*
X224662857Y-114022142D01*
X224615238Y-114069761D01*
X224520000Y-114117380D01*
X224234285Y-114117380D01*
X224139047Y-114069761D01*
X224091428Y-114022142D01*
X218408333Y-109037380D02*
X217932142Y-109037380D01*
X217932142Y-108037380D01*
X218741666Y-109037380D02*
X218741666Y-108037380D01*
X219313095Y-109037380D02*
X218884523Y-108465952D01*
X219313095Y-108037380D02*
X218741666Y-108608809D01*
X219694047Y-108132619D02*
X219741666Y-108085000D01*
X219836904Y-108037380D01*
X220075000Y-108037380D01*
X220170238Y-108085000D01*
X220217857Y-108132619D01*
X220265476Y-108227857D01*
X220265476Y-108323095D01*
X220217857Y-108465952D01*
X219646428Y-109037380D01*
X220265476Y-109037380D01*
X218408333Y-106497380D02*
X217932142Y-106497380D01*
X217932142Y-105497380D01*
X218741666Y-106497380D02*
X218741666Y-105497380D01*
X219313095Y-106497380D02*
X218884523Y-105925952D01*
X219313095Y-105497380D02*
X218741666Y-106068809D01*
X220265476Y-106497380D02*
X219694047Y-106497380D01*
X219979761Y-106497380D02*
X219979761Y-105497380D01*
X219884523Y-105640238D01*
X219789285Y-105735476D01*
X219694047Y-105783095D01*
X152824380Y-152445933D02*
X153538666Y-152445933D01*
X153681523Y-152493552D01*
X153776761Y-152588790D01*
X153824380Y-152731647D01*
X153824380Y-152826885D01*
X153824380Y-151969742D02*
X152824380Y-151969742D01*
X152824380Y-151588790D01*
X152872000Y-151493552D01*
X152919619Y-151445933D01*
X153014857Y-151398314D01*
X153157714Y-151398314D01*
X153252952Y-151445933D01*
X153300571Y-151493552D01*
X153348190Y-151588790D01*
X153348190Y-151969742D01*
X153824380Y-150445933D02*
X153824380Y-151017361D01*
X153824380Y-150731647D02*
X152824380Y-150731647D01*
X152967238Y-150826885D01*
X153062476Y-150922123D01*
X153110095Y-151017361D01*
X231592380Y-118768571D02*
X230592380Y-118768571D01*
X231497142Y-117720952D02*
X231544761Y-117768571D01*
X231592380Y-117911428D01*
X231592380Y-118006666D01*
X231544761Y-118149523D01*
X231449523Y-118244761D01*
X231354285Y-118292380D01*
X231163809Y-118340000D01*
X231020952Y-118340000D01*
X230830476Y-118292380D01*
X230735238Y-118244761D01*
X230640000Y-118149523D01*
X230592380Y-118006666D01*
X230592380Y-117911428D01*
X230640000Y-117768571D01*
X230687619Y-117720952D01*
X231592380Y-116768571D02*
X231592380Y-117340000D01*
X231592380Y-117054285D02*
X230592380Y-117054285D01*
X230735238Y-117149523D01*
X230830476Y-117244761D01*
X230878095Y-117340000D01*
X231592380Y-116292380D02*
X231592380Y-116101904D01*
X231544761Y-116006666D01*
X231497142Y-115959047D01*
X231354285Y-115863809D01*
X231163809Y-115816190D01*
X230782857Y-115816190D01*
X230687619Y-115863809D01*
X230640000Y-115911428D01*
X230592380Y-116006666D01*
X230592380Y-116197142D01*
X230640000Y-116292380D01*
X230687619Y-116340000D01*
X230782857Y-116387619D01*
X231020952Y-116387619D01*
X231116190Y-116340000D01*
X231163809Y-116292380D01*
X231211428Y-116197142D01*
X231211428Y-116006666D01*
X231163809Y-115911428D01*
X231116190Y-115863809D01*
X231020952Y-115816190D01*
X230592380Y-114911428D02*
X230592380Y-115387619D01*
X231068571Y-115435238D01*
X231020952Y-115387619D01*
X230973333Y-115292380D01*
X230973333Y-115054285D01*
X231020952Y-114959047D01*
X231068571Y-114911428D01*
X231163809Y-114863809D01*
X231401904Y-114863809D01*
X231497142Y-114911428D01*
X231544761Y-114959047D01*
X231592380Y-115054285D01*
X231592380Y-115292380D01*
X231544761Y-115387619D01*
X231497142Y-115435238D01*
X238657142Y-120737380D02*
X239323809Y-120737380D01*
X238895238Y-121737380D01*
X240133333Y-121070714D02*
X240133333Y-121737380D01*
X239895238Y-120689761D02*
X239657142Y-121404047D01*
X240276190Y-121404047D01*
X241133333Y-121737380D02*
X240657142Y-121737380D01*
X240657142Y-120737380D01*
X241419047Y-121689761D02*
X241561904Y-121737380D01*
X241800000Y-121737380D01*
X241895238Y-121689761D01*
X241942857Y-121642142D01*
X241990476Y-121546904D01*
X241990476Y-121451666D01*
X241942857Y-121356428D01*
X241895238Y-121308809D01*
X241800000Y-121261190D01*
X241609523Y-121213571D01*
X241514285Y-121165952D01*
X241466666Y-121118333D01*
X241419047Y-121023095D01*
X241419047Y-120927857D01*
X241466666Y-120832619D01*
X241514285Y-120785000D01*
X241609523Y-120737380D01*
X241847619Y-120737380D01*
X241990476Y-120785000D01*
X242323809Y-120737380D02*
X242990476Y-120737380D01*
X242561904Y-121737380D01*
X243800000Y-121070714D02*
X243800000Y-121737380D01*
X243561904Y-120689761D02*
X243323809Y-121404047D01*
X243942857Y-121404047D01*
X231592380Y-107973571D02*
X230592380Y-107973571D01*
X231497142Y-106925952D02*
X231544761Y-106973571D01*
X231592380Y-107116428D01*
X231592380Y-107211666D01*
X231544761Y-107354523D01*
X231449523Y-107449761D01*
X231354285Y-107497380D01*
X231163809Y-107545000D01*
X231020952Y-107545000D01*
X230830476Y-107497380D01*
X230735238Y-107449761D01*
X230640000Y-107354523D01*
X230592380Y-107211666D01*
X230592380Y-107116428D01*
X230640000Y-106973571D01*
X230687619Y-106925952D01*
X231592380Y-105973571D02*
X231592380Y-106545000D01*
X231592380Y-106259285D02*
X230592380Y-106259285D01*
X230735238Y-106354523D01*
X230830476Y-106449761D01*
X230878095Y-106545000D01*
X231592380Y-105497380D02*
X231592380Y-105306904D01*
X231544761Y-105211666D01*
X231497142Y-105164047D01*
X231354285Y-105068809D01*
X231163809Y-105021190D01*
X230782857Y-105021190D01*
X230687619Y-105068809D01*
X230640000Y-105116428D01*
X230592380Y-105211666D01*
X230592380Y-105402142D01*
X230640000Y-105497380D01*
X230687619Y-105545000D01*
X230782857Y-105592619D01*
X231020952Y-105592619D01*
X231116190Y-105545000D01*
X231163809Y-105497380D01*
X231211428Y-105402142D01*
X231211428Y-105211666D01*
X231163809Y-105116428D01*
X231116190Y-105068809D01*
X231020952Y-105021190D01*
X230925714Y-104164047D02*
X231592380Y-104164047D01*
X230544761Y-104402142D02*
X231259047Y-104640238D01*
X231259047Y-104021190D01*
X238657142Y-109307380D02*
X239323809Y-109307380D01*
X238895238Y-110307380D01*
X240133333Y-109640714D02*
X240133333Y-110307380D01*
X239895238Y-109259761D02*
X239657142Y-109974047D01*
X240276190Y-109974047D01*
X241133333Y-110307380D02*
X240657142Y-110307380D01*
X240657142Y-109307380D01*
X241419047Y-110259761D02*
X241561904Y-110307380D01*
X241800000Y-110307380D01*
X241895238Y-110259761D01*
X241942857Y-110212142D01*
X241990476Y-110116904D01*
X241990476Y-110021666D01*
X241942857Y-109926428D01*
X241895238Y-109878809D01*
X241800000Y-109831190D01*
X241609523Y-109783571D01*
X241514285Y-109735952D01*
X241466666Y-109688333D01*
X241419047Y-109593095D01*
X241419047Y-109497857D01*
X241466666Y-109402619D01*
X241514285Y-109355000D01*
X241609523Y-109307380D01*
X241847619Y-109307380D01*
X241990476Y-109355000D01*
X242609523Y-109307380D02*
X242704761Y-109307380D01*
X242800000Y-109355000D01*
X242847619Y-109402619D01*
X242895238Y-109497857D01*
X242942857Y-109688333D01*
X242942857Y-109926428D01*
X242895238Y-110116904D01*
X242847619Y-110212142D01*
X242800000Y-110259761D01*
X242704761Y-110307380D01*
X242609523Y-110307380D01*
X242514285Y-110259761D01*
X242466666Y-110212142D01*
X242419047Y-110116904D01*
X242371428Y-109926428D01*
X242371428Y-109688333D01*
X242419047Y-109497857D01*
X242466666Y-109402619D01*
X242514285Y-109355000D01*
X242609523Y-109307380D01*
X243514285Y-109735952D02*
X243419047Y-109688333D01*
X243371428Y-109640714D01*
X243323809Y-109545476D01*
X243323809Y-109497857D01*
X243371428Y-109402619D01*
X243419047Y-109355000D01*
X243514285Y-109307380D01*
X243704761Y-109307380D01*
X243800000Y-109355000D01*
X243847619Y-109402619D01*
X243895238Y-109497857D01*
X243895238Y-109545476D01*
X243847619Y-109640714D01*
X243800000Y-109688333D01*
X243704761Y-109735952D01*
X243514285Y-109735952D01*
X243419047Y-109783571D01*
X243371428Y-109831190D01*
X243323809Y-109926428D01*
X243323809Y-110116904D01*
X243371428Y-110212142D01*
X243419047Y-110259761D01*
X243514285Y-110307380D01*
X243704761Y-110307380D01*
X243800000Y-110259761D01*
X243847619Y-110212142D01*
X243895238Y-110116904D01*
X243895238Y-109926428D01*
X243847619Y-109831190D01*
X243800000Y-109783571D01*
X243704761Y-109735952D01*
X231802380Y-130198571D02*
X230802380Y-130198571D01*
X231707142Y-129150952D02*
X231754761Y-129198571D01*
X231802380Y-129341428D01*
X231802380Y-129436666D01*
X231754761Y-129579523D01*
X231659523Y-129674761D01*
X231564285Y-129722380D01*
X231373809Y-129770000D01*
X231230952Y-129770000D01*
X231040476Y-129722380D01*
X230945238Y-129674761D01*
X230850000Y-129579523D01*
X230802380Y-129436666D01*
X230802380Y-129341428D01*
X230850000Y-129198571D01*
X230897619Y-129150952D01*
X231802380Y-128198571D02*
X231802380Y-128770000D01*
X231802380Y-128484285D02*
X230802380Y-128484285D01*
X230945238Y-128579523D01*
X231040476Y-128674761D01*
X231088095Y-128770000D01*
X231802380Y-127722380D02*
X231802380Y-127531904D01*
X231754761Y-127436666D01*
X231707142Y-127389047D01*
X231564285Y-127293809D01*
X231373809Y-127246190D01*
X230992857Y-127246190D01*
X230897619Y-127293809D01*
X230850000Y-127341428D01*
X230802380Y-127436666D01*
X230802380Y-127627142D01*
X230850000Y-127722380D01*
X230897619Y-127770000D01*
X230992857Y-127817619D01*
X231230952Y-127817619D01*
X231326190Y-127770000D01*
X231373809Y-127722380D01*
X231421428Y-127627142D01*
X231421428Y-127436666D01*
X231373809Y-127341428D01*
X231326190Y-127293809D01*
X231230952Y-127246190D01*
X230897619Y-126865238D02*
X230850000Y-126817619D01*
X230802380Y-126722380D01*
X230802380Y-126484285D01*
X230850000Y-126389047D01*
X230897619Y-126341428D01*
X230992857Y-126293809D01*
X231088095Y-126293809D01*
X231230952Y-126341428D01*
X231802380Y-126912857D01*
X231802380Y-126293809D01*
X238657142Y-132167380D02*
X239323809Y-132167380D01*
X238895238Y-133167380D01*
X240133333Y-132500714D02*
X240133333Y-133167380D01*
X239895238Y-132119761D02*
X239657142Y-132834047D01*
X240276190Y-132834047D01*
X241133333Y-133167380D02*
X240657142Y-133167380D01*
X240657142Y-132167380D01*
X241419047Y-133119761D02*
X241561904Y-133167380D01*
X241800000Y-133167380D01*
X241895238Y-133119761D01*
X241942857Y-133072142D01*
X241990476Y-132976904D01*
X241990476Y-132881666D01*
X241942857Y-132786428D01*
X241895238Y-132738809D01*
X241800000Y-132691190D01*
X241609523Y-132643571D01*
X241514285Y-132595952D01*
X241466666Y-132548333D01*
X241419047Y-132453095D01*
X241419047Y-132357857D01*
X241466666Y-132262619D01*
X241514285Y-132215000D01*
X241609523Y-132167380D01*
X241847619Y-132167380D01*
X241990476Y-132215000D01*
X242323809Y-132167380D02*
X242942857Y-132167380D01*
X242609523Y-132548333D01*
X242752380Y-132548333D01*
X242847619Y-132595952D01*
X242895238Y-132643571D01*
X242942857Y-132738809D01*
X242942857Y-132976904D01*
X242895238Y-133072142D01*
X242847619Y-133119761D01*
X242752380Y-133167380D01*
X242466666Y-133167380D01*
X242371428Y-133119761D01*
X242323809Y-133072142D01*
X243323809Y-132262619D02*
X243371428Y-132215000D01*
X243466666Y-132167380D01*
X243704761Y-132167380D01*
X243800000Y-132215000D01*
X243847619Y-132262619D01*
X243895238Y-132357857D01*
X243895238Y-132453095D01*
X243847619Y-132595952D01*
X243276190Y-133167380D01*
X243895238Y-133167380D01*
X203811428Y-109672380D02*
X203811428Y-108672380D01*
X204859047Y-109577142D02*
X204811428Y-109624761D01*
X204668571Y-109672380D01*
X204573333Y-109672380D01*
X204430476Y-109624761D01*
X204335238Y-109529523D01*
X204287619Y-109434285D01*
X204240000Y-109243809D01*
X204240000Y-109100952D01*
X204287619Y-108910476D01*
X204335238Y-108815238D01*
X204430476Y-108720000D01*
X204573333Y-108672380D01*
X204668571Y-108672380D01*
X204811428Y-108720000D01*
X204859047Y-108767619D01*
X205811428Y-109672380D02*
X205240000Y-109672380D01*
X205525714Y-109672380D02*
X205525714Y-108672380D01*
X205430476Y-108815238D01*
X205335238Y-108910476D01*
X205240000Y-108958095D01*
X206287619Y-109672380D02*
X206478095Y-109672380D01*
X206573333Y-109624761D01*
X206620952Y-109577142D01*
X206716190Y-109434285D01*
X206763809Y-109243809D01*
X206763809Y-108862857D01*
X206716190Y-108767619D01*
X206668571Y-108720000D01*
X206573333Y-108672380D01*
X206382857Y-108672380D01*
X206287619Y-108720000D01*
X206240000Y-108767619D01*
X206192380Y-108862857D01*
X206192380Y-109100952D01*
X206240000Y-109196190D01*
X206287619Y-109243809D01*
X206382857Y-109291428D01*
X206573333Y-109291428D01*
X206668571Y-109243809D01*
X206716190Y-109196190D01*
X206763809Y-109100952D01*
X207382857Y-108672380D02*
X207478095Y-108672380D01*
X207573333Y-108720000D01*
X207620952Y-108767619D01*
X207668571Y-108862857D01*
X207716190Y-109053333D01*
X207716190Y-109291428D01*
X207668571Y-109481904D01*
X207620952Y-109577142D01*
X207573333Y-109624761D01*
X207478095Y-109672380D01*
X207382857Y-109672380D01*
X207287619Y-109624761D01*
X207240000Y-109577142D01*
X207192380Y-109481904D01*
X207144761Y-109291428D01*
X207144761Y-109053333D01*
X207192380Y-108862857D01*
X207240000Y-108767619D01*
X207287619Y-108720000D01*
X207382857Y-108672380D01*
X202620952Y-115022380D02*
X203287619Y-115022380D01*
X202859047Y-116022380D01*
X204097142Y-115355714D02*
X204097142Y-116022380D01*
X203859047Y-114974761D02*
X203620952Y-115689047D01*
X204240000Y-115689047D01*
X205097142Y-116022380D02*
X204620952Y-116022380D01*
X204620952Y-115022380D01*
X205382857Y-115974761D02*
X205525714Y-116022380D01*
X205763809Y-116022380D01*
X205859047Y-115974761D01*
X205906666Y-115927142D01*
X205954285Y-115831904D01*
X205954285Y-115736666D01*
X205906666Y-115641428D01*
X205859047Y-115593809D01*
X205763809Y-115546190D01*
X205573333Y-115498571D01*
X205478095Y-115450952D01*
X205430476Y-115403333D01*
X205382857Y-115308095D01*
X205382857Y-115212857D01*
X205430476Y-115117619D01*
X205478095Y-115070000D01*
X205573333Y-115022380D01*
X205811428Y-115022380D01*
X205954285Y-115070000D01*
X206287619Y-115022380D02*
X206906666Y-115022380D01*
X206573333Y-115403333D01*
X206716190Y-115403333D01*
X206811428Y-115450952D01*
X206859047Y-115498571D01*
X206906666Y-115593809D01*
X206906666Y-115831904D01*
X206859047Y-115927142D01*
X206811428Y-115974761D01*
X206716190Y-116022380D01*
X206430476Y-116022380D01*
X206335238Y-115974761D01*
X206287619Y-115927142D01*
X207240000Y-115022380D02*
X207906666Y-115022380D01*
X207478095Y-116022380D01*
X208716190Y-115355714D02*
X208716190Y-116022380D01*
X208478095Y-114974761D02*
X208240000Y-115689047D01*
X208859047Y-115689047D01*
X198588333Y-106402142D02*
X198540714Y-106449761D01*
X198397857Y-106497380D01*
X198302619Y-106497380D01*
X198159761Y-106449761D01*
X198064523Y-106354523D01*
X198016904Y-106259285D01*
X197969285Y-106068809D01*
X197969285Y-105925952D01*
X198016904Y-105735476D01*
X198064523Y-105640238D01*
X198159761Y-105545000D01*
X198302619Y-105497380D01*
X198397857Y-105497380D01*
X198540714Y-105545000D01*
X198588333Y-105592619D01*
X199445476Y-105497380D02*
X199255000Y-105497380D01*
X199159761Y-105545000D01*
X199112142Y-105592619D01*
X199016904Y-105735476D01*
X198969285Y-105925952D01*
X198969285Y-106306904D01*
X199016904Y-106402142D01*
X199064523Y-106449761D01*
X199159761Y-106497380D01*
X199350238Y-106497380D01*
X199445476Y-106449761D01*
X199493095Y-106402142D01*
X199540714Y-106306904D01*
X199540714Y-106068809D01*
X199493095Y-105973571D01*
X199445476Y-105925952D01*
X199350238Y-105878333D01*
X199159761Y-105878333D01*
X199064523Y-105925952D01*
X199016904Y-105973571D01*
X198969285Y-106068809D01*
X198588333Y-108942142D02*
X198540714Y-108989761D01*
X198397857Y-109037380D01*
X198302619Y-109037380D01*
X198159761Y-108989761D01*
X198064523Y-108894523D01*
X198016904Y-108799285D01*
X197969285Y-108608809D01*
X197969285Y-108465952D01*
X198016904Y-108275476D01*
X198064523Y-108180238D01*
X198159761Y-108085000D01*
X198302619Y-108037380D01*
X198397857Y-108037380D01*
X198540714Y-108085000D01*
X198588333Y-108132619D01*
X199493095Y-108037380D02*
X199016904Y-108037380D01*
X198969285Y-108513571D01*
X199016904Y-108465952D01*
X199112142Y-108418333D01*
X199350238Y-108418333D01*
X199445476Y-108465952D01*
X199493095Y-108513571D01*
X199540714Y-108608809D01*
X199540714Y-108846904D01*
X199493095Y-108942142D01*
X199445476Y-108989761D01*
X199350238Y-109037380D01*
X199112142Y-109037380D01*
X199016904Y-108989761D01*
X198969285Y-108942142D01*
X229592142Y-106846666D02*
X229639761Y-106894285D01*
X229687380Y-107037142D01*
X229687380Y-107132380D01*
X229639761Y-107275238D01*
X229544523Y-107370476D01*
X229449285Y-107418095D01*
X229258809Y-107465714D01*
X229115952Y-107465714D01*
X228925476Y-107418095D01*
X228830238Y-107370476D01*
X228735000Y-107275238D01*
X228687380Y-107132380D01*
X228687380Y-107037142D01*
X228735000Y-106894285D01*
X228782619Y-106846666D01*
X229020714Y-105989523D02*
X229687380Y-105989523D01*
X228639761Y-106227619D02*
X229354047Y-106465714D01*
X229354047Y-105846666D01*
X229592142Y-118276666D02*
X229639761Y-118324285D01*
X229687380Y-118467142D01*
X229687380Y-118562380D01*
X229639761Y-118705238D01*
X229544523Y-118800476D01*
X229449285Y-118848095D01*
X229258809Y-118895714D01*
X229115952Y-118895714D01*
X228925476Y-118848095D01*
X228830238Y-118800476D01*
X228735000Y-118705238D01*
X228687380Y-118562380D01*
X228687380Y-118467142D01*
X228735000Y-118324285D01*
X228782619Y-118276666D01*
X228687380Y-117943333D02*
X228687380Y-117324285D01*
X229068333Y-117657619D01*
X229068333Y-117514761D01*
X229115952Y-117419523D01*
X229163571Y-117371904D01*
X229258809Y-117324285D01*
X229496904Y-117324285D01*
X229592142Y-117371904D01*
X229639761Y-117419523D01*
X229687380Y-117514761D01*
X229687380Y-117800476D01*
X229639761Y-117895714D01*
X229592142Y-117943333D01*
X180062142Y-110656666D02*
X180109761Y-110704285D01*
X180157380Y-110847142D01*
X180157380Y-110942380D01*
X180109761Y-111085238D01*
X180014523Y-111180476D01*
X179919285Y-111228095D01*
X179728809Y-111275714D01*
X179585952Y-111275714D01*
X179395476Y-111228095D01*
X179300238Y-111180476D01*
X179205000Y-111085238D01*
X179157380Y-110942380D01*
X179157380Y-110847142D01*
X179205000Y-110704285D01*
X179252619Y-110656666D01*
X179252619Y-110275714D02*
X179205000Y-110228095D01*
X179157380Y-110132857D01*
X179157380Y-109894761D01*
X179205000Y-109799523D01*
X179252619Y-109751904D01*
X179347857Y-109704285D01*
X179443095Y-109704285D01*
X179585952Y-109751904D01*
X180157380Y-110323333D01*
X180157380Y-109704285D01*
X229592142Y-129706666D02*
X229639761Y-129754285D01*
X229687380Y-129897142D01*
X229687380Y-129992380D01*
X229639761Y-130135238D01*
X229544523Y-130230476D01*
X229449285Y-130278095D01*
X229258809Y-130325714D01*
X229115952Y-130325714D01*
X228925476Y-130278095D01*
X228830238Y-130230476D01*
X228735000Y-130135238D01*
X228687380Y-129992380D01*
X228687380Y-129897142D01*
X228735000Y-129754285D01*
X228782619Y-129706666D01*
X229687380Y-128754285D02*
X229687380Y-129325714D01*
X229687380Y-129040000D02*
X228687380Y-129040000D01*
X228830238Y-129135238D01*
X228925476Y-129230476D01*
X228973095Y-129325714D01*
M02*
