M48
INCH,TZ
T1C0.0157
T2C0.0315
T3C0.0394
%
G90
G05
T1
X60900Y-55600
X60900Y-58900
X60950Y-50550
X61100Y-46950
X62300Y-49850
X62300Y-52500
X62300Y-55550
X62300Y-58750
X63700Y-54900
X63800Y-59050
X64300Y-57300
X64350Y-56900
X64450Y-43400
X64450Y-46300
X64950Y-57700
X65150Y-54400
X65500Y-54450
X65950Y-57700
X66150Y-54450
X66450Y-49200
X66500Y-54450
X66800Y-41100
X66900Y-54450
X67000Y-57750
X67200Y-46200
X67200Y-51600
X67550Y-51550
X67850Y-51850
X68000Y-49850
X68050Y-57600
X68600Y-42800
X68950Y-57500
X69350Y-53300
X69900Y-58100
X70000Y-55300
X70050Y-51850
X70100Y-49250
X70550Y-58600
X70850Y-58300
X71000Y-47750
X71050Y-49850
X71200Y-46100
X71350Y-41150
X71550Y-58000
X71550Y-58350
X72000Y-49850
X72050Y-51600
X72050Y-53250
X72500Y-54500
X72500Y-54850
X72650Y-58300
X72800Y-44100
X72850Y-54500
X73000Y-50100
X73250Y-52400
X73350Y-49900
X74000Y-53250
X74750Y-58300
X75350Y-51700
X75600Y-41150
X75650Y-55050
X76000Y-55050
X76000Y-55400
X76500Y-51700
X76550Y-53300
X76650Y-55300
X77000Y-55650
X77000Y-55300
X77050Y-57550
X77250Y-49250
X77500Y-49550
X77800Y-55900
X78000Y-55600
X78120Y-58870
X78700Y-43350
X78750Y-56100
X79000Y-55850
X79850Y-47900
X80000Y-56100
X80100Y-47654
X80250Y-51650
X80500Y-54100
X80500Y-43350
X80500Y-51900
X80500Y-54450
X80850Y-54100
X80900Y-41400
X81037Y-47913
X81037Y-50413
X81037Y-52313
X81450Y-58300
X81500Y-46100
X81500Y-53650
X81500Y-54000
X81700Y-43200
X81700Y-59100
X81850Y-50400
X81850Y-53650
X82150Y-49550
X82500Y-49500
X82650Y-50300
X82700Y-47900
X82850Y-54300
X83000Y-50350
X83250Y-56800
X84050Y-47850
X84100Y-58300
X84300Y-58600
X84450Y-52400
X84500Y-48900
X84500Y-49250
X84650Y-41400
X85050Y-45800
X85150Y-54550
X85150Y-58000
X85200Y-47800
X85850Y-57750
X86200Y-56750
X86850Y-42800
X86900Y-44400
X86950Y-58900
X87150Y-46400
X87250Y-56150
X87300Y-58150
X87900Y-52200
X88250Y-54550
X88400Y-58300
X88500Y-48200
X88550Y-49200
X88950Y-48850
X88950Y-49300
X89100Y-57000
X89300Y-42700
X89300Y-44600
X89350Y-56200
X89500Y-46000
X89500Y-52000
X89600Y-44450
X89800Y-53750
X89850Y-55750
X90100Y-53950
X90100Y-59000
X90350Y-49800
X90550Y-53950
X90650Y-49550
X90950Y-56850
X91000Y-53950
X91100Y-59000
X91250Y-54200
X91450Y-48800
X91850Y-54650
X92100Y-59000
X92450Y-50050
X92800Y-51700
X92850Y-49950
X93150Y-59000
X93200Y-54600
X93950Y-48250
X94050Y-44100
X94150Y-57000
X94300Y-48250
X95100Y-53000
X95550Y-52100
X95557Y-51757
X95600Y-44100
X95900Y-51750
X96650Y-55800
X96900Y-45450
X96900Y-58800
X97000Y-50050
X97050Y-47650
X97150Y-53000
X97500Y-41100
X98900Y-42000
X99000Y-44100
X99000Y-46450
X99100Y-50000
X99150Y-52950
X99150Y-56250
X99200Y-58850
T2
X92000Y-41750
X92000Y-44750
X93000Y-41750
X93000Y-44750
X94000Y-41750
X94000Y-44750
X95000Y-41750
X95000Y-44750
X96000Y-41750
X96000Y-44750
X97000Y-41750
X97000Y-44750
X98000Y-41750
X98000Y-44750
X76500Y-42750
X77484Y-42750
X65000Y-47250
X65000Y-48234
X76500Y-44000
X76500Y-47000
X77500Y-44000
X77500Y-47000
X78500Y-44000
X78500Y-47000
X79500Y-44000
X79500Y-47000
X80500Y-44000
X80500Y-47000
X81500Y-44000
X81500Y-47000
X82500Y-44000
X82500Y-47000
X83500Y-44000
X83500Y-47000
X84500Y-44000
X84500Y-47000
X85500Y-44000
X85500Y-47000
X87250Y-50750
X87250Y-53750
X92000Y-46250
X92000Y-49250
X93000Y-46250
X93000Y-49250
X94000Y-46250
X94000Y-49250
X95000Y-46250
X95000Y-49250
X96000Y-46250
X96000Y-49250
X97000Y-46250
X97000Y-49250
X98000Y-46250
X98000Y-49250
X95000Y-55250
X98000Y-55250
X84750Y-50750
X84750Y-53750
X88500Y-50750
X88500Y-53750
X83500Y-50750
X83500Y-53750
X72000Y-41750
X72000Y-42750
X72000Y-43750
X72000Y-44750
X72000Y-45750
X72000Y-46750
X72000Y-47750
X75000Y-41750
X75000Y-42750
X75000Y-43750
X75000Y-44750
X75000Y-45750
X75000Y-46750
X75000Y-47750
X90500Y-42750
X90500Y-43734
X90500Y-47250
X90500Y-48234
X86000Y-50750
X86000Y-53750
X90500Y-51750
X90500Y-52734
X92000Y-50750
X92000Y-53750
X93000Y-50750
X93000Y-53750
X94000Y-50750
X94000Y-53750
X95000Y-50750
X95000Y-53750
X96000Y-50750
X96000Y-53750
X97000Y-50750
X97000Y-53750
X98000Y-50750
X98000Y-53750
X70750Y-41750
X70750Y-42734
X76500Y-41750
X77484Y-41750
X66500Y-41750
X66500Y-42750
X66500Y-43750
X66500Y-44750
X66500Y-45750
X66500Y-46750
X66500Y-47750
X69500Y-41750
X69500Y-42750
X69500Y-43750
X69500Y-44750
X69500Y-45750
X69500Y-46750
X69500Y-47750
T3
X95000Y-57000
X96000Y-57000
X87500Y-41750
X88500Y-41750
X61300Y-59690
X62300Y-59690
X63300Y-59690
X64300Y-59690
X65300Y-59690
X66300Y-59690
X67300Y-59690
X68300Y-59690
X69300Y-59690
X70300Y-59690
X71300Y-59690
X72300Y-59690
X73300Y-59690
X74300Y-59690
X75300Y-59690
X76300Y-59690
X77300Y-59690
X78300Y-59690
X79300Y-59690
X80300Y-59690
X81300Y-59690
X82300Y-59690
X83300Y-59690
X84300Y-59690
X85300Y-59690
X86300Y-59690
X87300Y-59690
X88300Y-59690
X89300Y-59690
X90300Y-59690
X91300Y-59690
X92300Y-59690
X93300Y-59690
X94300Y-59690
X95300Y-59690
X96300Y-59690
X97300Y-59690
X98300Y-59690
X99300Y-59690
X100300Y-59690
X87500Y-42750
X88500Y-42750
X87500Y-43750
X88500Y-43750
X65000Y-50750
X65000Y-56750
X66000Y-50750
X66000Y-56750
X67000Y-50750
X67000Y-56750
X68000Y-50750
X68000Y-56750
X69000Y-50750
X69000Y-56750
X70000Y-50750
X70000Y-56750
X71000Y-50750
X71000Y-56750
X72000Y-50750
X72000Y-56750
X73000Y-50750
X73000Y-56750
X74000Y-50750
X74000Y-56750
X75000Y-50750
X75000Y-56750
X76000Y-50750
X76000Y-56750
X77000Y-50750
X77000Y-56750
X78000Y-50750
X78000Y-56750
X79000Y-50750
X79000Y-56750
X80000Y-50750
X80000Y-56750
X94000Y-58000
X95000Y-58000
T0
M30
