G04 #@! TF.GenerationSoftware,KiCad,Pcbnew,(5.1.12)-1*
G04 #@! TF.CreationDate,2024-06-29T17:03:21+01:00*
G04 #@! TF.ProjectId,CPCROM,43504352-4f4d-42e6-9b69-6361645f7063,rev?*
G04 #@! TF.SameCoordinates,Original*
G04 #@! TF.FileFunction,Profile,NP*
%FSLAX46Y46*%
G04 Gerber Fmt 4.6, Leading zero omitted, Abs format (unit mm)*
G04 Created by KiCad (PCBNEW (5.1.12)-1) date 2024-06-29 17:03:21*
%MOMM*%
%LPD*%
G01*
G04 APERTURE LIST*
G04 #@! TA.AperFunction,Profile*
%ADD10C,0.150000*%
G04 #@! TD*
G04 APERTURE END LIST*
D10*
X252730000Y-163830000D02*
G75*
G02*
X250190000Y-166370000I-2540000J0D01*
G01*
X156210000Y-166370000D02*
G75*
G02*
X153670000Y-163830000I0J2540000D01*
G01*
X153670000Y-102870000D02*
G75*
G02*
X156210000Y-100330000I2540000J0D01*
G01*
X250190000Y-100330000D02*
G75*
G02*
X252730000Y-102870000I0J-2540000D01*
G01*
X160700000Y-103330000D02*
G75*
G02*
X159700000Y-102330000I0J1000000D01*
G01*
X246700000Y-100330000D02*
X246700000Y-102330000D01*
X156210000Y-100330000D02*
X159700000Y-100330000D01*
X239700000Y-103330000D02*
X238700000Y-103330000D01*
X178700000Y-103330000D02*
G75*
G02*
X177700000Y-102330000I0J1000000D01*
G01*
X174700000Y-100330000D02*
X174700000Y-102330000D01*
X168700000Y-102330000D02*
G75*
G02*
X167700000Y-103330000I-1000000J0D01*
G01*
X171700000Y-100330000D02*
X168700000Y-100330000D01*
X172700000Y-103330000D02*
G75*
G02*
X171700000Y-102330000I0J1000000D01*
G01*
X219700000Y-102330000D02*
X219700000Y-100330000D01*
X166700000Y-103330000D02*
G75*
G02*
X165700000Y-102330000I0J1000000D01*
G01*
X243700000Y-100330000D02*
X240700000Y-100330000D01*
X250190000Y-100330000D02*
X246700000Y-100330000D01*
X177700000Y-102330000D02*
X177700000Y-100330000D01*
X173700000Y-103330000D02*
X172700000Y-103330000D01*
X161700000Y-103330000D02*
X160700000Y-103330000D01*
X243700000Y-102330000D02*
X243700000Y-100330000D01*
X174700000Y-102330000D02*
G75*
G02*
X173700000Y-103330000I-1000000J0D01*
G01*
X179700000Y-103330000D02*
X178700000Y-103330000D01*
X159700000Y-100330000D02*
X159700000Y-102330000D01*
X171700000Y-102330000D02*
X171700000Y-100330000D01*
X168700000Y-100330000D02*
X168700000Y-102330000D01*
X177700000Y-100330000D02*
X174700000Y-100330000D01*
X228700000Y-100330000D02*
X228700000Y-102330000D01*
X167700000Y-103330000D02*
X166700000Y-103330000D01*
X165700000Y-102330000D02*
X165700000Y-100330000D01*
X165700000Y-100330000D02*
X162700000Y-100330000D01*
X162700000Y-100330000D02*
X162700000Y-102330000D01*
X162700000Y-102330000D02*
G75*
G02*
X161700000Y-103330000I-1000000J0D01*
G01*
X197700000Y-103330000D02*
X196700000Y-103330000D01*
X238700000Y-103330000D02*
G75*
G02*
X237700000Y-102330000I0J1000000D01*
G01*
X186700000Y-102330000D02*
G75*
G02*
X185700000Y-103330000I-1000000J0D01*
G01*
X226700000Y-103330000D02*
G75*
G02*
X225700000Y-102330000I0J1000000D01*
G01*
X209700000Y-103330000D02*
X208700000Y-103330000D01*
X231700000Y-100330000D02*
X228700000Y-100330000D01*
X245700000Y-103330000D02*
X244700000Y-103330000D01*
X195700000Y-102330000D02*
X195700000Y-100330000D01*
X191700000Y-103330000D02*
X190700000Y-103330000D01*
X198700000Y-100330000D02*
X198700000Y-102330000D01*
X237700000Y-100330000D02*
X234700000Y-100330000D01*
X204700000Y-100330000D02*
X204700000Y-102330000D01*
X185700000Y-103330000D02*
X184700000Y-103330000D01*
X233700000Y-103330000D02*
X232700000Y-103330000D01*
X207700000Y-102330000D02*
X207700000Y-100330000D01*
X220700000Y-103330000D02*
G75*
G02*
X219700000Y-102330000I0J1000000D01*
G01*
X244700000Y-103330000D02*
G75*
G02*
X243700000Y-102330000I0J1000000D01*
G01*
X184700000Y-103330000D02*
G75*
G02*
X183700000Y-102330000I0J1000000D01*
G01*
X221700000Y-103330000D02*
X220700000Y-103330000D01*
X203700000Y-103330000D02*
X202700000Y-103330000D01*
X201700000Y-100330000D02*
X198700000Y-100330000D01*
X183700000Y-100330000D02*
X180700000Y-100330000D01*
X190700000Y-103330000D02*
G75*
G02*
X189700000Y-102330000I0J1000000D01*
G01*
X216700000Y-102330000D02*
G75*
G02*
X215700000Y-103330000I-1000000J0D01*
G01*
X186700000Y-100330000D02*
X186700000Y-102330000D01*
X210700000Y-100330000D02*
X210700000Y-102330000D01*
X231700000Y-102330000D02*
X231700000Y-100330000D01*
X240700000Y-102330000D02*
G75*
G02*
X239700000Y-103330000I-1000000J0D01*
G01*
X246700000Y-102330000D02*
G75*
G02*
X245700000Y-103330000I-1000000J0D01*
G01*
X180700000Y-102330000D02*
G75*
G02*
X179700000Y-103330000I-1000000J0D01*
G01*
X195700000Y-100330000D02*
X192700000Y-100330000D01*
X189700000Y-100330000D02*
X186700000Y-100330000D01*
X189700000Y-102330000D02*
X189700000Y-100330000D01*
X227700000Y-103330000D02*
X226700000Y-103330000D01*
X192700000Y-100330000D02*
X192700000Y-102330000D01*
X219700000Y-100330000D02*
X216700000Y-100330000D01*
X234700000Y-100330000D02*
X234700000Y-102330000D01*
X204700000Y-102330000D02*
G75*
G02*
X203700000Y-103330000I-1000000J0D01*
G01*
X192700000Y-102330000D02*
G75*
G02*
X191700000Y-103330000I-1000000J0D01*
G01*
X228700000Y-102330000D02*
G75*
G02*
X227700000Y-103330000I-1000000J0D01*
G01*
X198700000Y-102330000D02*
G75*
G02*
X197700000Y-103330000I-1000000J0D01*
G01*
X180700000Y-100330000D02*
X180700000Y-102330000D01*
X183700000Y-102330000D02*
X183700000Y-100330000D01*
X222700000Y-100330000D02*
X222700000Y-102330000D01*
X215700000Y-103330000D02*
X214700000Y-103330000D01*
X234700000Y-102330000D02*
G75*
G02*
X233700000Y-103330000I-1000000J0D01*
G01*
X222700000Y-102330000D02*
G75*
G02*
X221700000Y-103330000I-1000000J0D01*
G01*
X237700000Y-102330000D02*
X237700000Y-100330000D01*
X201700000Y-102330000D02*
X201700000Y-100330000D01*
X216700000Y-100330000D02*
X216700000Y-102330000D01*
X202700000Y-103330000D02*
G75*
G02*
X201700000Y-102330000I0J1000000D01*
G01*
X232700000Y-103330000D02*
G75*
G02*
X231700000Y-102330000I0J1000000D01*
G01*
X207700000Y-100330000D02*
X204700000Y-100330000D01*
X213700000Y-102330000D02*
X213700000Y-100330000D01*
X225700000Y-102330000D02*
X225700000Y-100330000D01*
X240700000Y-100330000D02*
X240700000Y-102330000D01*
X214700000Y-103330000D02*
G75*
G02*
X213700000Y-102330000I0J1000000D01*
G01*
X208700000Y-103330000D02*
G75*
G02*
X207700000Y-102330000I0J1000000D01*
G01*
X210700000Y-102330000D02*
G75*
G02*
X209700000Y-103330000I-1000000J0D01*
G01*
X213700000Y-100330000D02*
X210700000Y-100330000D01*
X196700000Y-103330000D02*
G75*
G02*
X195700000Y-102330000I0J1000000D01*
G01*
X225700000Y-100330000D02*
X222700000Y-100330000D01*
X252730000Y-102870000D02*
X252730000Y-163830000D01*
X153670000Y-102870000D02*
X153670000Y-163830000D01*
X156210000Y-166370000D02*
X250190000Y-166370000D01*
M02*
