G04 #@! TF.GenerationSoftware,KiCad,Pcbnew,(5.1.12)-1*
G04 #@! TF.CreationDate,2023-07-18T16:03:23+01:00*
G04 #@! TF.ProjectId,CPCVideo,43504356-6964-4656-9f2e-6b696361645f,rev?*
G04 #@! TF.SameCoordinates,Original*
G04 #@! TF.FileFunction,Soldermask,Top*
G04 #@! TF.FilePolarity,Negative*
%FSLAX46Y46*%
G04 Gerber Fmt 4.6, Leading zero omitted, Abs format (unit mm)*
G04 Created by KiCad (PCBNEW (5.1.12)-1) date 2023-07-18 16:03:23*
%MOMM*%
%LPD*%
G01*
G04 APERTURE LIST*
%ADD10C,1.800000*%
%ADD11C,1.700000*%
%ADD12R,1.800000X1.100000*%
%ADD13O,1.700000X1.700000*%
%ADD14R,1.700000X1.700000*%
%ADD15O,1.200000X1.200000*%
%ADD16O,1.600000X1.200000*%
%ADD17O,1.600000X1.600000*%
%ADD18C,1.600000*%
%ADD19R,1.600000X1.600000*%
%ADD20C,3.200000*%
G04 APERTURE END LIST*
D10*
X251300000Y-125690000D03*
X251300000Y-120690000D03*
D11*
X236300000Y-123190000D03*
X241300000Y-130690000D03*
X238800000Y-128190000D03*
X241300000Y-123190000D03*
X238800000Y-118190000D03*
X241300000Y-115690000D03*
D12*
X230270000Y-113030000D03*
G36*
G01*
X230895000Y-111040000D02*
X229645000Y-111040000D01*
G75*
G02*
X229370000Y-110765000I0J275000D01*
G01*
X229370000Y-110215000D01*
G75*
G02*
X229645000Y-109940000I275000J0D01*
G01*
X230895000Y-109940000D01*
G75*
G02*
X231170000Y-110215000I0J-275000D01*
G01*
X231170000Y-110765000D01*
G75*
G02*
X230895000Y-111040000I-275000J0D01*
G01*
G37*
G36*
G01*
X228825000Y-112310000D02*
X227575000Y-112310000D01*
G75*
G02*
X227300000Y-112035000I0J275000D01*
G01*
X227300000Y-111485000D01*
G75*
G02*
X227575000Y-111210000I275000J0D01*
G01*
X228825000Y-111210000D01*
G75*
G02*
X229100000Y-111485000I0J-275000D01*
G01*
X229100000Y-112035000D01*
G75*
G02*
X228825000Y-112310000I-275000J0D01*
G01*
G37*
D13*
X172085000Y-106045000D03*
X174625000Y-106045000D03*
X177165000Y-106045000D03*
X179705000Y-106045000D03*
X182245000Y-106045000D03*
X184785000Y-106045000D03*
X187325000Y-106045000D03*
X189865000Y-106045000D03*
X192405000Y-106045000D03*
D14*
X194945000Y-106045000D03*
D15*
X187325000Y-145415000D03*
X188595000Y-144145000D03*
D16*
X189865000Y-145415000D03*
D17*
X187960000Y-116205000D03*
D18*
X175260000Y-116205000D03*
D17*
X187960000Y-112395000D03*
D18*
X175260000Y-112395000D03*
D17*
X207645000Y-144780000D03*
D18*
X200025000Y-144780000D03*
D17*
X175895000Y-147320000D03*
D18*
X183515000Y-147320000D03*
D17*
X221615000Y-109220000D03*
D18*
X221615000Y-116840000D03*
D17*
X227965000Y-116840000D03*
D18*
X227965000Y-124460000D03*
D17*
X224790000Y-109220000D03*
D18*
X224790000Y-116840000D03*
D17*
X231140000Y-124460000D03*
D18*
X231140000Y-116840000D03*
D17*
X218440000Y-116840000D03*
D18*
X218440000Y-109220000D03*
D17*
X208915000Y-116840000D03*
D18*
X208915000Y-109220000D03*
D17*
X199390000Y-116840000D03*
D18*
X199390000Y-109220000D03*
D17*
X215265000Y-109220000D03*
D18*
X215265000Y-116840000D03*
D17*
X212090000Y-109220000D03*
D18*
X212090000Y-116840000D03*
D17*
X205740000Y-109220000D03*
D18*
X205740000Y-116840000D03*
D17*
X202565000Y-109220000D03*
D18*
X202565000Y-116840000D03*
D17*
X196215000Y-109220000D03*
D18*
X196215000Y-116840000D03*
D17*
X193040000Y-109220000D03*
D18*
X193040000Y-116840000D03*
X164465000Y-127000000D03*
X156845000Y-127000000D03*
X156845000Y-142240000D03*
D19*
X164465000Y-142240000D03*
D13*
X257175000Y-149072600D03*
X254635000Y-149072600D03*
X252095000Y-149072600D03*
X249555000Y-149072600D03*
X247015000Y-149072600D03*
X244475000Y-149072600D03*
X241935000Y-149072600D03*
X239395000Y-149072600D03*
X236855000Y-149072600D03*
X234315000Y-149072600D03*
X231775000Y-149072600D03*
X229235000Y-149072600D03*
X226695000Y-149072600D03*
X224155000Y-149072600D03*
X221615000Y-149072600D03*
X219075000Y-149072600D03*
X216535000Y-149072600D03*
X213995000Y-149072600D03*
X211455000Y-149072600D03*
X208915000Y-149072600D03*
X206375000Y-149072600D03*
X203835000Y-149072600D03*
X201295000Y-149072600D03*
X198755000Y-149072600D03*
D14*
X196215000Y-149072600D03*
D13*
X254635000Y-151765000D03*
X252095000Y-151765000D03*
X249555000Y-151765000D03*
X247015000Y-151765000D03*
X244475000Y-151765000D03*
X241935000Y-151765000D03*
X239395000Y-151765000D03*
X236855000Y-151765000D03*
X234315000Y-151765000D03*
X231775000Y-151765000D03*
X229235000Y-151765000D03*
X226695000Y-151765000D03*
X224155000Y-151765000D03*
X221615000Y-151765000D03*
X219075000Y-151765000D03*
X216535000Y-151765000D03*
X213995000Y-151765000D03*
X211455000Y-151765000D03*
X208915000Y-151765000D03*
X206375000Y-151765000D03*
X203835000Y-151765000D03*
X201295000Y-151765000D03*
X198755000Y-151765000D03*
X196215000Y-151765000D03*
X193675000Y-151765000D03*
X191135000Y-151765000D03*
X188595000Y-151765000D03*
X186055000Y-151765000D03*
X183515000Y-151765000D03*
X180975000Y-151765000D03*
X178435000Y-151765000D03*
X175895000Y-151765000D03*
X173355000Y-151765000D03*
X170815000Y-151765000D03*
X168275000Y-151765000D03*
X165735000Y-151765000D03*
X163195000Y-151765000D03*
X160655000Y-151765000D03*
X158115000Y-151765000D03*
D14*
X155575000Y-151765000D03*
D17*
X170180000Y-124460000D03*
X218440000Y-139700000D03*
X172720000Y-124460000D03*
X215900000Y-139700000D03*
X175260000Y-124460000D03*
X213360000Y-139700000D03*
X177800000Y-124460000D03*
X210820000Y-139700000D03*
X180340000Y-124460000D03*
X208280000Y-139700000D03*
X182880000Y-124460000D03*
X205740000Y-139700000D03*
X185420000Y-124460000D03*
X203200000Y-139700000D03*
X187960000Y-124460000D03*
X200660000Y-139700000D03*
X190500000Y-124460000D03*
X198120000Y-139700000D03*
X193040000Y-124460000D03*
X195580000Y-139700000D03*
X195580000Y-124460000D03*
X193040000Y-139700000D03*
X198120000Y-124460000D03*
X190500000Y-139700000D03*
X200660000Y-124460000D03*
X187960000Y-139700000D03*
X203200000Y-124460000D03*
X185420000Y-139700000D03*
X205740000Y-124460000D03*
X182880000Y-139700000D03*
X208280000Y-124460000D03*
X180340000Y-139700000D03*
X210820000Y-124460000D03*
X177800000Y-139700000D03*
X213360000Y-124460000D03*
X175260000Y-139700000D03*
X215900000Y-124460000D03*
X172720000Y-139700000D03*
X218440000Y-124460000D03*
D19*
X170180000Y-139700000D03*
D17*
X170180000Y-121285000D03*
X218440000Y-136525000D03*
X172720000Y-121285000D03*
X215900000Y-136525000D03*
X175260000Y-121285000D03*
X213360000Y-136525000D03*
X177800000Y-121285000D03*
X210820000Y-136525000D03*
X180340000Y-121285000D03*
X208280000Y-136525000D03*
X182880000Y-121285000D03*
X205740000Y-136525000D03*
X185420000Y-121285000D03*
X203200000Y-136525000D03*
X187960000Y-121285000D03*
X200660000Y-136525000D03*
X190500000Y-121285000D03*
X198120000Y-136525000D03*
X193040000Y-121285000D03*
X195580000Y-136525000D03*
X195580000Y-121285000D03*
X193040000Y-136525000D03*
X198120000Y-121285000D03*
X190500000Y-136525000D03*
X200660000Y-121285000D03*
X187960000Y-136525000D03*
X203200000Y-121285000D03*
X185420000Y-136525000D03*
X205740000Y-121285000D03*
X182880000Y-136525000D03*
X208280000Y-121285000D03*
X180340000Y-136525000D03*
X210820000Y-121285000D03*
X177800000Y-136525000D03*
X213360000Y-121285000D03*
X175260000Y-136525000D03*
X215900000Y-121285000D03*
X172720000Y-136525000D03*
X218440000Y-121285000D03*
D19*
X170180000Y-136525000D03*
D18*
X222885000Y-121706000D03*
X222885000Y-124206000D03*
X180380000Y-143510000D03*
X182880000Y-143510000D03*
D20*
X158927800Y-120243600D03*
M02*
