M48
INCH,TZ
T1C0.0157
T2C0.0276
T3C0.0295
T4C0.0315
T5C0.0394
T6C0.0433
%
G90
G05
T1
X66100Y-55300
X66100Y-56600
X66150Y-45750
X68500Y-57350
X71550Y-46750
X72250Y-49950
X73469Y-53281
X73750Y-52750
X74000Y-51350
X74750Y-58100
X74800Y-49550
X75500Y-52200
X76000Y-53000
X76150Y-59100
X76450Y-58100
X76500Y-51900
X77050Y-56400
X77250Y-57500
X77500Y-51600
X77550Y-56054
X77900Y-50050
X78500Y-56100
X78546Y-51046
X79000Y-44950
X79500Y-53300
X79500Y-55850
X80000Y-53061
X80250Y-57500
X80500Y-50800
X81250Y-55850
X81500Y-47250
X81500Y-50550
X82500Y-50300
X83000Y-51355
X83500Y-49800
X84000Y-44150
X84000Y-52300
X84000Y-57450
X84500Y-52800
X85000Y-56450
X85500Y-49450
X86750Y-52550
X87200Y-49800
X87650Y-52650
X87650Y-54950
X87650Y-57100
X88200Y-50300
X89200Y-50500
X90200Y-50700
X91200Y-51000
X92200Y-51600
X93200Y-51900
X94200Y-52200
X95700Y-55404
X95700Y-57400
X97775Y-53075
T2
X73750Y-57250
X74250Y-56750
X74750Y-57250
T3
X90000Y-44000
X90500Y-43500
X90500Y-44500
T4
X61750Y-50000
X61750Y-56000
X64750Y-50000
X64750Y-56000
X67000Y-47750
X67000Y-49000
X67000Y-53750
X67000Y-55000
X68000Y-47750
X68000Y-49000
X68000Y-53750
X68000Y-55000
X69000Y-44250
X69000Y-45750
X69000Y-47750
X69000Y-49000
X69000Y-53750
X69000Y-55000
X69250Y-58000
X70000Y-47750
X70000Y-49000
X70000Y-53750
X70000Y-55000
X71000Y-47750
X71000Y-49000
X71000Y-53750
X71000Y-55000
X71016Y-56500
X72000Y-47750
X72000Y-49000
X72000Y-53750
X72000Y-55000
X72000Y-56500
X72250Y-58000
X73000Y-47750
X73000Y-49000
X73000Y-53750
X73000Y-55000
X74000Y-44250
X74000Y-45750
X74000Y-47750
X74000Y-49000
X74000Y-53750
X74000Y-55000
X75000Y-47750
X75000Y-49000
X75000Y-53750
X75000Y-55000
X76000Y-43000
X76000Y-46000
X76000Y-47750
X76000Y-49000
X76000Y-53750
X76000Y-55000
X77000Y-47750
X77000Y-49000
X77000Y-53750
X77000Y-55000
X77250Y-43000
X77250Y-46000
X78000Y-47750
X78000Y-49000
X78000Y-53750
X78000Y-55000
X78500Y-43000
X78500Y-46000
X78750Y-57000
X79000Y-47750
X79000Y-49000
X79000Y-53750
X79000Y-55000
X79750Y-43000
X79750Y-46000
X80000Y-47750
X80000Y-49000
X80000Y-53750
X80000Y-55000
X81000Y-43000
X81000Y-46000
X81000Y-47750
X81000Y-49000
X81000Y-53750
X81000Y-55000
X81750Y-57000
X82000Y-47750
X82000Y-49000
X82000Y-53750
X82000Y-55000
X82250Y-43000
X82250Y-46000
X83000Y-47750
X83000Y-49000
X83000Y-53750
X83000Y-55000
X83500Y-43000
X83500Y-46000
X84000Y-47750
X84000Y-49000
X84000Y-53750
X84000Y-55000
X84750Y-43000
X84750Y-46000
X85000Y-47750
X85000Y-49000
X85000Y-53750
X85000Y-55000
X86000Y-43000
X86000Y-46000
X86000Y-47750
X86000Y-49000
X86000Y-53750
X86000Y-55000
X87250Y-43000
X87250Y-46000
X87750Y-47916
X87750Y-48900
X88500Y-43000
X88500Y-46000
X89750Y-46000
X89750Y-49000
X91000Y-46000
X91000Y-49000
T5
X61250Y-59750
X62250Y-59750
X63250Y-59750
X64250Y-59750
X65250Y-59750
X66250Y-59750
X67250Y-59750
X67750Y-41750
X68250Y-59750
X68750Y-41750
X69250Y-59750
X69750Y-41750
X70250Y-59750
X70750Y-41750
X71250Y-59750
X71750Y-41750
X72250Y-59750
X72750Y-41750
X73250Y-59750
X73750Y-41750
X74250Y-59750
X74750Y-41750
X75250Y-59750
X75750Y-41750
X76250Y-59750
X76750Y-41750
X77250Y-58690
X77250Y-59750
X78250Y-58690
X78250Y-59750
X79250Y-58690
X79250Y-59750
X80250Y-58690
X80250Y-59750
X81250Y-58690
X81250Y-59750
X82250Y-58690
X82250Y-59750
X83250Y-58690
X83250Y-59750
X84250Y-58690
X84250Y-59750
X85250Y-58690
X85250Y-59750
X86250Y-58690
X86250Y-59750
X87250Y-58690
X87250Y-59750
X88250Y-58690
X88250Y-59750
X89250Y-58690
X89250Y-59750
X90250Y-58690
X90250Y-59750
X91250Y-58690
X91250Y-59750
X92250Y-58690
X92250Y-59750
X93031Y-48500
X93250Y-58690
X93250Y-59750
X94016Y-46531
X94016Y-50469
X94250Y-58690
X94250Y-59750
X95000Y-45547
X95000Y-48500
X95000Y-51453
X95250Y-58690
X95250Y-59750
X96250Y-58690
X96250Y-59750
X97250Y-58690
X97250Y-59750
X98250Y-58690
X98250Y-59750
X99250Y-58690
X99250Y-59750
X100250Y-58690
X100250Y-59750
X101250Y-58690
T6
X98937Y-47516
X98937Y-49484
T0
M30
