G04 #@! TF.GenerationSoftware,KiCad,Pcbnew,(5.1.12)-1*
G04 #@! TF.CreationDate,2025-01-21T15:36:47+00:00*
G04 #@! TF.ProjectId,CPCVideo,43504356-6964-4656-9f2e-6b696361645f,rev?*
G04 #@! TF.SameCoordinates,Original*
G04 #@! TF.FileFunction,Soldermask,Top*
G04 #@! TF.FilePolarity,Negative*
%FSLAX46Y46*%
G04 Gerber Fmt 4.6, Leading zero omitted, Abs format (unit mm)*
G04 Created by KiCad (PCBNEW (5.1.12)-1) date 2025-01-21 15:36:47*
%MOMM*%
%LPD*%
G01*
G04 APERTURE LIST*
%ADD10C,0.100000*%
%ADD11R,1.000000X1.000000*%
%ADD12C,1.600000*%
%ADD13R,1.600000X1.600000*%
%ADD14R,1.600000X10.000000*%
%ADD15C,2.200000*%
%ADD16C,1.800000*%
%ADD17R,1.100000X1.800000*%
%ADD18O,1.200000X1.200000*%
%ADD19O,1.200000X1.600000*%
%ADD20O,1.600000X1.600000*%
G04 APERTURE END LIST*
D10*
G36*
X250190000Y-160550000D02*
G01*
X250190000Y-171345000D01*
X156210000Y-171345000D01*
X156210000Y-160550000D01*
X250190000Y-160550000D01*
G37*
X250190000Y-160550000D02*
X250190000Y-171345000D01*
X156210000Y-171345000D01*
X156210000Y-160550000D01*
X250190000Y-160550000D01*
D11*
X162560000Y-130175000D03*
X162560000Y-127675000D03*
X165735000Y-130175000D03*
X165735000Y-127675000D03*
X168910000Y-130155000D03*
X168910000Y-127655000D03*
X172085000Y-130155000D03*
X172085000Y-127655000D03*
X175915000Y-139065000D03*
X178415000Y-139065000D03*
D12*
X185420000Y-142280000D03*
D13*
X185420000Y-144780000D03*
D14*
X247650000Y-165735000D03*
X245110000Y-165735000D03*
X242570000Y-165735000D03*
X240030000Y-165735000D03*
X237490000Y-165735000D03*
X234950000Y-165735000D03*
X232410000Y-165735000D03*
X229870000Y-165735000D03*
X227330000Y-165735000D03*
X224790000Y-165735000D03*
X222250000Y-165735000D03*
X219710000Y-165735000D03*
X217170000Y-165735000D03*
X214630000Y-165735000D03*
X212090000Y-165735000D03*
X209550000Y-165735000D03*
X207010000Y-165735000D03*
X204470000Y-165735000D03*
X201930000Y-165735000D03*
X199390000Y-165735000D03*
X196850000Y-165735000D03*
X194310000Y-165735000D03*
X191770000Y-165735000D03*
X189230000Y-165735000D03*
X186690000Y-165735000D03*
X184150000Y-165735000D03*
X181610000Y-165735000D03*
X179070000Y-165735000D03*
X176530000Y-165735000D03*
X173990000Y-165735000D03*
X171450000Y-165735000D03*
X168910000Y-165735000D03*
X166370000Y-165735000D03*
X163830000Y-165735000D03*
X161290000Y-165735000D03*
X158750000Y-165735000D03*
D15*
X155100000Y-142280000D03*
X155100000Y-147280000D03*
D16*
X170100000Y-144780000D03*
X165100000Y-137280000D03*
X167600000Y-139780000D03*
X165100000Y-144780000D03*
X167600000Y-149780000D03*
X165100000Y-152280000D03*
D12*
X175895000Y-112435000D03*
X175895000Y-114935000D03*
X175895000Y-121960000D03*
X175895000Y-124460000D03*
X175895000Y-131485000D03*
X175895000Y-133985000D03*
D17*
X162560000Y-112795000D03*
G36*
G01*
X164550000Y-113420000D02*
X164550000Y-112170000D01*
G75*
G02*
X164825000Y-111895000I275000J0D01*
G01*
X165375000Y-111895000D01*
G75*
G02*
X165650000Y-112170000I0J-275000D01*
G01*
X165650000Y-113420000D01*
G75*
G02*
X165375000Y-113695000I-275000J0D01*
G01*
X164825000Y-113695000D01*
G75*
G02*
X164550000Y-113420000I0J275000D01*
G01*
G37*
G36*
G01*
X163280000Y-111350000D02*
X163280000Y-110100000D01*
G75*
G02*
X163555000Y-109825000I275000J0D01*
G01*
X164105000Y-109825000D01*
G75*
G02*
X164380000Y-110100000I0J-275000D01*
G01*
X164380000Y-111350000D01*
G75*
G02*
X164105000Y-111625000I-275000J0D01*
G01*
X163555000Y-111625000D01*
G75*
G02*
X163280000Y-111350000I0J275000D01*
G01*
G37*
D18*
X177800000Y-145415000D03*
X179070000Y-146685000D03*
D19*
X177800000Y-147955000D03*
D20*
X248285000Y-131445000D03*
D12*
X248285000Y-144145000D03*
D20*
X244475000Y-131445000D03*
D12*
X244475000Y-144145000D03*
D20*
X186055000Y-155575000D03*
D12*
X178435000Y-155575000D03*
D20*
X186055000Y-152400000D03*
D12*
X178435000Y-152400000D03*
D20*
X167640000Y-123825000D03*
D12*
X167640000Y-116205000D03*
D20*
X158115000Y-116205000D03*
D12*
X158115000Y-123825000D03*
D20*
X164465000Y-123825000D03*
D12*
X164465000Y-116205000D03*
D20*
X161290000Y-123825000D03*
D12*
X161290000Y-116205000D03*
D20*
X186055000Y-108585000D03*
D12*
X178435000Y-108585000D03*
D20*
X186055000Y-118110000D03*
D12*
X178435000Y-118110000D03*
D20*
X186055000Y-127635000D03*
D12*
X178435000Y-127635000D03*
D20*
X178435000Y-114935000D03*
D12*
X186055000Y-114935000D03*
D20*
X178435000Y-111760000D03*
D12*
X186055000Y-111760000D03*
D20*
X178435000Y-124460000D03*
D12*
X186055000Y-124460000D03*
D20*
X178435000Y-121285000D03*
D12*
X186055000Y-121285000D03*
D20*
X178435000Y-133985000D03*
D12*
X186055000Y-133985000D03*
D20*
X178435000Y-130810000D03*
D12*
X186055000Y-130810000D03*
X241300000Y-123190000D03*
X248920000Y-123190000D03*
X248920000Y-107950000D03*
D13*
X241300000Y-107950000D03*
D20*
X210185000Y-106680000D03*
X194945000Y-154940000D03*
X210185000Y-109220000D03*
X194945000Y-152400000D03*
X210185000Y-111760000D03*
X194945000Y-149860000D03*
X210185000Y-114300000D03*
X194945000Y-147320000D03*
X210185000Y-116840000D03*
X194945000Y-144780000D03*
X210185000Y-119380000D03*
X194945000Y-142240000D03*
X210185000Y-121920000D03*
X194945000Y-139700000D03*
X210185000Y-124460000D03*
X194945000Y-137160000D03*
X210185000Y-127000000D03*
X194945000Y-134620000D03*
X210185000Y-129540000D03*
X194945000Y-132080000D03*
X210185000Y-132080000D03*
X194945000Y-129540000D03*
X210185000Y-134620000D03*
X194945000Y-127000000D03*
X210185000Y-137160000D03*
X194945000Y-124460000D03*
X210185000Y-139700000D03*
X194945000Y-121920000D03*
X210185000Y-142240000D03*
X194945000Y-119380000D03*
X210185000Y-144780000D03*
X194945000Y-116840000D03*
X210185000Y-147320000D03*
X194945000Y-114300000D03*
X210185000Y-149860000D03*
X194945000Y-111760000D03*
X210185000Y-152400000D03*
X194945000Y-109220000D03*
X210185000Y-154940000D03*
D13*
X194945000Y-106680000D03*
D20*
X229235000Y-106680000D03*
X213995000Y-154940000D03*
X229235000Y-109220000D03*
X213995000Y-152400000D03*
X229235000Y-111760000D03*
X213995000Y-149860000D03*
X229235000Y-114300000D03*
X213995000Y-147320000D03*
X229235000Y-116840000D03*
X213995000Y-144780000D03*
X229235000Y-119380000D03*
X213995000Y-142240000D03*
X229235000Y-121920000D03*
X213995000Y-139700000D03*
X229235000Y-124460000D03*
X213995000Y-137160000D03*
X229235000Y-127000000D03*
X213995000Y-134620000D03*
X229235000Y-129540000D03*
X213995000Y-132080000D03*
X229235000Y-132080000D03*
X213995000Y-129540000D03*
X229235000Y-134620000D03*
X213995000Y-127000000D03*
X229235000Y-137160000D03*
X213995000Y-124460000D03*
X229235000Y-139700000D03*
X213995000Y-121920000D03*
X229235000Y-142240000D03*
X213995000Y-119380000D03*
X229235000Y-144780000D03*
X213995000Y-116840000D03*
X229235000Y-147320000D03*
X213995000Y-114300000D03*
X229235000Y-149860000D03*
X213995000Y-111760000D03*
X229235000Y-152400000D03*
X213995000Y-109220000D03*
X229235000Y-154940000D03*
D13*
X213995000Y-106680000D03*
D12*
X233045000Y-155090500D03*
X233045000Y-152590500D03*
X191770000Y-142280000D03*
X191770000Y-144780000D03*
M02*
