M48
INCH,TZ
T1C0.0157
T2C0.0276
T3C0.0295
T4C0.0315
T5C0.0433
T6C0.0551
%
G90
G05
T1
X64650Y-62350
X76450Y-62500
X77500Y-61050
X77500Y-62600
X77700Y-48500
X77725Y-60025
X78100Y-52650
X78100Y-57550
X78100Y-59000
X78200Y-47250
X78500Y-55000
X78500Y-62750
X79000Y-53000
X79500Y-62900
X79500Y-50000
X79950Y-60000
X80500Y-48000
X80500Y-51500
X80800Y-44250
X81000Y-45031
X81350Y-57000
X81600Y-44500
X81950Y-45900
X82100Y-61450
X82150Y-60500
X82500Y-62650
X83100Y-62800
X84500Y-62750
X85150Y-42900
X85150Y-43900
X85150Y-45000
X86000Y-56500
X86000Y-62800
X86450Y-55450
X86500Y-56000
X86900Y-62150
X87500Y-55000
X87950Y-48000
X88000Y-62350
X88500Y-46050
X88500Y-62500
X88750Y-52450
X89100Y-51500
X89350Y-42900
X89350Y-43900
X89400Y-44950
X89500Y-50500
X91050Y-51000
X91550Y-52000
X92050Y-53000
X92500Y-54000
X92550Y-42450
X93000Y-43450
X93000Y-55000
X93200Y-62100
X93550Y-44600
X93550Y-56000
X93900Y-45600
X94300Y-57000
X94450Y-47500
X94500Y-62500
X95500Y-62550
X95925Y-57975
X96500Y-62550
T2
X70000Y-57250
X70000Y-58250
X70500Y-57750
T3
X64000Y-44250
X64500Y-43750
X65000Y-44250
T4
X62250Y-45750
X62250Y-48750
X63500Y-45750
X63500Y-48750
X64750Y-45750
X64750Y-48750
X66000Y-45750
X66000Y-48750
X69250Y-44266
X69250Y-45250
X69250Y-48016
X69250Y-49000
X69250Y-51766
X69250Y-52750
X70250Y-42750
X70250Y-44000
X70250Y-45250
X70250Y-46500
X70250Y-47750
X70250Y-49000
X70250Y-50250
X70250Y-51500
X70250Y-52750
X70250Y-60000
X70250Y-61250
X73000Y-56016
X73000Y-57000
X73250Y-42750
X73250Y-44000
X73250Y-45250
X73250Y-46500
X73250Y-47750
X73250Y-49000
X73250Y-50250
X73250Y-51500
X73250Y-52750
X73250Y-60000
X73250Y-61250
X75500Y-56016
X75500Y-57000
X76750Y-42000
X76750Y-43000
X76750Y-44000
X76750Y-45000
X76750Y-46000
X76750Y-47000
X76750Y-48000
X76750Y-49000
X76750Y-50000
X76750Y-51000
X76750Y-52000
X76750Y-53000
X76750Y-54000
X76750Y-55000
X76750Y-56000
X76750Y-57000
X76750Y-58000
X76750Y-59000
X76750Y-60000
X76750Y-61000
X82750Y-42000
X82750Y-43000
X82750Y-44000
X82750Y-45000
X82750Y-46000
X82750Y-47000
X82750Y-48000
X82750Y-49000
X82750Y-50000
X82750Y-51000
X82750Y-52000
X82750Y-53000
X82750Y-54000
X82750Y-55000
X82750Y-56000
X82750Y-57000
X82750Y-58000
X82750Y-59000
X82750Y-60000
X82750Y-61000
X84250Y-42000
X84250Y-43000
X84250Y-44000
X84250Y-45000
X84250Y-46000
X84250Y-47000
X84250Y-48000
X84250Y-49000
X84250Y-50000
X84250Y-51000
X84250Y-52000
X84250Y-53000
X84250Y-54000
X84250Y-55000
X84250Y-56000
X84250Y-57000
X84250Y-58000
X84250Y-59000
X84250Y-60000
X84250Y-61000
X90250Y-42000
X90250Y-43000
X90250Y-44000
X90250Y-45000
X90250Y-46000
X90250Y-47000
X90250Y-48000
X90250Y-49000
X90250Y-50000
X90250Y-51000
X90250Y-52000
X90250Y-53000
X90250Y-54000
X90250Y-55000
X90250Y-56000
X90250Y-57000
X90250Y-58000
X90250Y-59000
X90250Y-60000
X90250Y-61000
X91750Y-60075
X91750Y-61059
X95000Y-42500
X95000Y-48500
X96250Y-51750
X96250Y-56750
X97750Y-51750
X97750Y-56750
X98000Y-42500
X98000Y-48500
T5
X65000Y-54047
X65000Y-57000
X65000Y-59953
X65984Y-55031
X65984Y-58969
X66969Y-57000
T6
X61063Y-56016
X61063Y-57984
T0
M30
