G04 #@! TF.GenerationSoftware,KiCad,Pcbnew,(5.1.12)-1*
G04 #@! TF.CreationDate,2025-01-21T15:36:47+00:00*
G04 #@! TF.ProjectId,CPCVideo,43504356-6964-4656-9f2e-6b696361645f,rev?*
G04 #@! TF.SameCoordinates,Original*
G04 #@! TF.FileFunction,Copper,L1,Top*
G04 #@! TF.FilePolarity,Positive*
%FSLAX46Y46*%
G04 Gerber Fmt 4.6, Leading zero omitted, Abs format (unit mm)*
G04 Created by KiCad (PCBNEW (5.1.12)-1) date 2025-01-21 15:36:47*
%MOMM*%
%LPD*%
G01*
G04 APERTURE LIST*
G04 #@! TA.AperFunction,SMDPad,CuDef*
%ADD10R,1.000000X1.000000*%
G04 #@! TD*
G04 #@! TA.AperFunction,ComponentPad*
%ADD11C,1.600000*%
G04 #@! TD*
G04 #@! TA.AperFunction,ComponentPad*
%ADD12R,1.600000X1.600000*%
G04 #@! TD*
G04 #@! TA.AperFunction,SMDPad,CuDef*
%ADD13R,1.600000X10.000000*%
G04 #@! TD*
G04 #@! TA.AperFunction,ComponentPad*
%ADD14C,2.200000*%
G04 #@! TD*
G04 #@! TA.AperFunction,ComponentPad*
%ADD15C,1.800000*%
G04 #@! TD*
G04 #@! TA.AperFunction,ComponentPad*
%ADD16R,1.100000X1.800000*%
G04 #@! TD*
G04 #@! TA.AperFunction,ComponentPad*
%ADD17O,1.200000X1.200000*%
G04 #@! TD*
G04 #@! TA.AperFunction,ComponentPad*
%ADD18O,1.200000X1.600000*%
G04 #@! TD*
G04 #@! TA.AperFunction,ComponentPad*
%ADD19O,1.600000X1.600000*%
G04 #@! TD*
G04 #@! TA.AperFunction,ViaPad*
%ADD20C,0.600000*%
G04 #@! TD*
G04 #@! TA.AperFunction,Conductor*
%ADD21C,0.350000*%
G04 #@! TD*
G04 #@! TA.AperFunction,Conductor*
%ADD22C,0.250000*%
G04 #@! TD*
G04 #@! TA.AperFunction,Conductor*
%ADD23C,0.254000*%
G04 #@! TD*
G04 #@! TA.AperFunction,Conductor*
%ADD24C,0.100000*%
G04 #@! TD*
G04 APERTURE END LIST*
D10*
X162560000Y-130175000D03*
X162560000Y-127675000D03*
X165735000Y-130175000D03*
X165735000Y-127675000D03*
X168910000Y-130155000D03*
X168910000Y-127655000D03*
X172085000Y-130155000D03*
X172085000Y-127655000D03*
X175915000Y-139065000D03*
X178415000Y-139065000D03*
D11*
X185420000Y-142280000D03*
D12*
X185420000Y-144780000D03*
D13*
X247650000Y-165735000D03*
X245110000Y-165735000D03*
X242570000Y-165735000D03*
X240030000Y-165735000D03*
X237490000Y-165735000D03*
X234950000Y-165735000D03*
X232410000Y-165735000D03*
X229870000Y-165735000D03*
X227330000Y-165735000D03*
X224790000Y-165735000D03*
X222250000Y-165735000D03*
X219710000Y-165735000D03*
X217170000Y-165735000D03*
X214630000Y-165735000D03*
X212090000Y-165735000D03*
X209550000Y-165735000D03*
X207010000Y-165735000D03*
X204470000Y-165735000D03*
X201930000Y-165735000D03*
X199390000Y-165735000D03*
X196850000Y-165735000D03*
X194310000Y-165735000D03*
X191770000Y-165735000D03*
X189230000Y-165735000D03*
X186690000Y-165735000D03*
X184150000Y-165735000D03*
X181610000Y-165735000D03*
X179070000Y-165735000D03*
X176530000Y-165735000D03*
X173990000Y-165735000D03*
X171450000Y-165735000D03*
X168910000Y-165735000D03*
X166370000Y-165735000D03*
X163830000Y-165735000D03*
X161290000Y-165735000D03*
X158750000Y-165735000D03*
D14*
X155100000Y-142280000D03*
X155100000Y-147280000D03*
D15*
X170100000Y-144780000D03*
X165100000Y-137280000D03*
X167600000Y-139780000D03*
X165100000Y-144780000D03*
X167600000Y-149780000D03*
X165100000Y-152280000D03*
D11*
X175895000Y-112435000D03*
X175895000Y-114935000D03*
X175895000Y-121960000D03*
X175895000Y-124460000D03*
X175895000Y-131485000D03*
X175895000Y-133985000D03*
D16*
X162560000Y-112795000D03*
G04 #@! TA.AperFunction,ComponentPad*
G36*
G01*
X164550000Y-113420000D02*
X164550000Y-112170000D01*
G75*
G02*
X164825000Y-111895000I275000J0D01*
G01*
X165375000Y-111895000D01*
G75*
G02*
X165650000Y-112170000I0J-275000D01*
G01*
X165650000Y-113420000D01*
G75*
G02*
X165375000Y-113695000I-275000J0D01*
G01*
X164825000Y-113695000D01*
G75*
G02*
X164550000Y-113420000I0J275000D01*
G01*
G37*
G04 #@! TD.AperFunction*
G04 #@! TA.AperFunction,ComponentPad*
G36*
G01*
X163280000Y-111350000D02*
X163280000Y-110100000D01*
G75*
G02*
X163555000Y-109825000I275000J0D01*
G01*
X164105000Y-109825000D01*
G75*
G02*
X164380000Y-110100000I0J-275000D01*
G01*
X164380000Y-111350000D01*
G75*
G02*
X164105000Y-111625000I-275000J0D01*
G01*
X163555000Y-111625000D01*
G75*
G02*
X163280000Y-111350000I0J275000D01*
G01*
G37*
G04 #@! TD.AperFunction*
D17*
X177800000Y-145415000D03*
X179070000Y-146685000D03*
D18*
X177800000Y-147955000D03*
D19*
X248285000Y-131445000D03*
D11*
X248285000Y-144145000D03*
D19*
X244475000Y-131445000D03*
D11*
X244475000Y-144145000D03*
D19*
X186055000Y-155575000D03*
D11*
X178435000Y-155575000D03*
D19*
X186055000Y-152400000D03*
D11*
X178435000Y-152400000D03*
D19*
X167640000Y-123825000D03*
D11*
X167640000Y-116205000D03*
D19*
X158115000Y-116205000D03*
D11*
X158115000Y-123825000D03*
D19*
X164465000Y-123825000D03*
D11*
X164465000Y-116205000D03*
D19*
X161290000Y-123825000D03*
D11*
X161290000Y-116205000D03*
D19*
X186055000Y-108585000D03*
D11*
X178435000Y-108585000D03*
D19*
X186055000Y-118110000D03*
D11*
X178435000Y-118110000D03*
D19*
X186055000Y-127635000D03*
D11*
X178435000Y-127635000D03*
D19*
X178435000Y-114935000D03*
D11*
X186055000Y-114935000D03*
D19*
X178435000Y-111760000D03*
D11*
X186055000Y-111760000D03*
D19*
X178435000Y-124460000D03*
D11*
X186055000Y-124460000D03*
D19*
X178435000Y-121285000D03*
D11*
X186055000Y-121285000D03*
D19*
X178435000Y-133985000D03*
D11*
X186055000Y-133985000D03*
D19*
X178435000Y-130810000D03*
D11*
X186055000Y-130810000D03*
X241300000Y-123190000D03*
X248920000Y-123190000D03*
X248920000Y-107950000D03*
D12*
X241300000Y-107950000D03*
D19*
X210185000Y-106680000D03*
X194945000Y-154940000D03*
X210185000Y-109220000D03*
X194945000Y-152400000D03*
X210185000Y-111760000D03*
X194945000Y-149860000D03*
X210185000Y-114300000D03*
X194945000Y-147320000D03*
X210185000Y-116840000D03*
X194945000Y-144780000D03*
X210185000Y-119380000D03*
X194945000Y-142240000D03*
X210185000Y-121920000D03*
X194945000Y-139700000D03*
X210185000Y-124460000D03*
X194945000Y-137160000D03*
X210185000Y-127000000D03*
X194945000Y-134620000D03*
X210185000Y-129540000D03*
X194945000Y-132080000D03*
X210185000Y-132080000D03*
X194945000Y-129540000D03*
X210185000Y-134620000D03*
X194945000Y-127000000D03*
X210185000Y-137160000D03*
X194945000Y-124460000D03*
X210185000Y-139700000D03*
X194945000Y-121920000D03*
X210185000Y-142240000D03*
X194945000Y-119380000D03*
X210185000Y-144780000D03*
X194945000Y-116840000D03*
X210185000Y-147320000D03*
X194945000Y-114300000D03*
X210185000Y-149860000D03*
X194945000Y-111760000D03*
X210185000Y-152400000D03*
X194945000Y-109220000D03*
X210185000Y-154940000D03*
D12*
X194945000Y-106680000D03*
D19*
X229235000Y-106680000D03*
X213995000Y-154940000D03*
X229235000Y-109220000D03*
X213995000Y-152400000D03*
X229235000Y-111760000D03*
X213995000Y-149860000D03*
X229235000Y-114300000D03*
X213995000Y-147320000D03*
X229235000Y-116840000D03*
X213995000Y-144780000D03*
X229235000Y-119380000D03*
X213995000Y-142240000D03*
X229235000Y-121920000D03*
X213995000Y-139700000D03*
X229235000Y-124460000D03*
X213995000Y-137160000D03*
X229235000Y-127000000D03*
X213995000Y-134620000D03*
X229235000Y-129540000D03*
X213995000Y-132080000D03*
X229235000Y-132080000D03*
X213995000Y-129540000D03*
X229235000Y-134620000D03*
X213995000Y-127000000D03*
X229235000Y-137160000D03*
X213995000Y-124460000D03*
X229235000Y-139700000D03*
X213995000Y-121920000D03*
X229235000Y-142240000D03*
X213995000Y-119380000D03*
X229235000Y-144780000D03*
X213995000Y-116840000D03*
X229235000Y-147320000D03*
X213995000Y-114300000D03*
X229235000Y-149860000D03*
X213995000Y-111760000D03*
X229235000Y-152400000D03*
X213995000Y-109220000D03*
X229235000Y-154940000D03*
D12*
X213995000Y-106680000D03*
D11*
X233045000Y-155090500D03*
X233045000Y-152590500D03*
X191770000Y-142280000D03*
X191770000Y-144780000D03*
D20*
X219583000Y-140843000D03*
X205232000Y-112395000D03*
X203073000Y-152400000D03*
X220726000Y-157861000D03*
X205740000Y-114379491D03*
X209550000Y-159131000D03*
X164211000Y-158369000D03*
X208661000Y-153670000D03*
X198374000Y-133731000D03*
X225425000Y-133223000D03*
X196850000Y-159004000D03*
X196850000Y-155067000D03*
X194183000Y-158750000D03*
X204470000Y-130810000D03*
X204470000Y-121920000D03*
X226314000Y-130810000D03*
X197421500Y-152463500D03*
X198628000Y-120015000D03*
X198374000Y-149860000D03*
X198374000Y-146177000D03*
X197358000Y-123190000D03*
X222250000Y-139700000D03*
X208153000Y-116586000D03*
X201930000Y-127000000D03*
X224790000Y-158750000D03*
X224790000Y-116967000D03*
X227330000Y-128270000D03*
X211074000Y-159512000D03*
X206629000Y-144780000D03*
X207264000Y-113030000D03*
X208534000Y-156083000D03*
X223520000Y-158369000D03*
X223393000Y-121920000D03*
X214630000Y-159385000D03*
X219709998Y-142240000D03*
X201929998Y-159766000D03*
X200660000Y-134620000D03*
X199390000Y-159384998D03*
X199390000Y-139700000D03*
X216281000Y-114300000D03*
X227076000Y-114173000D03*
X231267000Y-129540000D03*
X216281000Y-111506000D03*
X226949000Y-111506004D03*
X232537000Y-132080002D03*
X236728000Y-157734000D03*
X216281000Y-108966000D03*
X226949000Y-108966004D03*
X233807000Y-134620000D03*
X235077000Y-107823000D03*
X234950000Y-137160000D03*
X240030000Y-158749998D03*
X236220000Y-110363000D03*
X236220000Y-139700000D03*
X237617000Y-113284000D03*
X237617000Y-142239998D03*
X242570000Y-158877000D03*
X238506000Y-115824000D03*
X239522000Y-144780000D03*
X239903000Y-120650000D03*
X243649501Y-147256499D03*
X245110000Y-158876998D03*
X218440000Y-159512000D03*
X218440000Y-143510002D03*
D21*
X250095001Y-157939999D02*
X247650000Y-160385000D01*
X250095001Y-107385999D02*
X250095001Y-157939999D01*
X249484001Y-106774999D02*
X250095001Y-107385999D01*
X248355999Y-106774999D02*
X249484001Y-106774999D01*
X241300000Y-113830998D02*
X248355999Y-106774999D01*
X247650000Y-160385000D02*
X247650000Y-165735000D01*
X241300000Y-123190000D02*
X241300000Y-113830998D01*
X172085000Y-125770000D02*
X175895000Y-121960000D01*
X172085000Y-127655000D02*
X172085000Y-125770000D01*
X168910000Y-119420000D02*
X175895000Y-112435000D01*
X168910000Y-127655000D02*
X168910000Y-119420000D01*
X165735000Y-127675000D02*
X162560000Y-127675000D01*
X162560000Y-120650000D02*
X158115000Y-116205000D01*
X162560000Y-127675000D02*
X162560000Y-120650000D01*
X194310000Y-160655000D02*
X186055000Y-152400000D01*
X194310000Y-165735000D02*
X194310000Y-160655000D01*
X247109999Y-141510001D02*
X244475000Y-144145000D01*
X247109999Y-109760001D02*
X247109999Y-141510001D01*
X248920000Y-107950000D02*
X247109999Y-109760001D01*
X179610001Y-129634999D02*
X178435000Y-130810000D01*
X179610001Y-122460001D02*
X179610001Y-129634999D01*
X178435000Y-121285000D02*
X179610001Y-122460001D01*
X186055000Y-145415000D02*
X185420000Y-144780000D01*
X186055000Y-152400000D02*
X186055000Y-145415000D01*
X185420000Y-144780000D02*
X182372000Y-141732000D01*
X182372000Y-134747000D02*
X178435000Y-130810000D01*
X182372000Y-141732000D02*
X182372000Y-134747000D01*
X177259999Y-120109999D02*
X178435000Y-121285000D01*
X177259999Y-112935001D02*
X177259999Y-120109999D01*
X178435000Y-111760000D02*
X177259999Y-112935001D01*
X177800000Y-111125000D02*
X178435000Y-111760000D01*
X163830000Y-111125000D02*
X177800000Y-111125000D01*
D22*
X207010000Y-165735000D02*
X207010000Y-160403116D01*
X205232000Y-112395000D02*
X203073000Y-114554000D01*
X207010000Y-160403116D02*
X203073000Y-156466116D01*
X203073000Y-156466116D02*
X203073000Y-152400000D01*
X203073000Y-114554000D02*
X203073000Y-152400000D01*
X228103630Y-106680000D02*
X229235000Y-106680000D01*
X220726000Y-114057630D02*
X228103630Y-106680000D01*
X220726000Y-157861000D02*
X220726000Y-114057630D01*
X205740000Y-114379491D02*
X205740000Y-155321000D01*
X205740000Y-155321000D02*
X209550000Y-159131000D01*
X163830000Y-158750000D02*
X163830000Y-165735000D01*
X164211000Y-158369000D02*
X163830000Y-158750000D01*
X210185000Y-137160000D02*
X208661000Y-138684000D01*
X208661000Y-138684000D02*
X208661000Y-153670000D01*
X196070001Y-136034999D02*
X198374000Y-133731000D01*
X196070001Y-151274999D02*
X196070001Y-136034999D01*
X194945000Y-152400000D02*
X196070001Y-151274999D01*
X229235000Y-109220000D02*
X228103630Y-109220000D01*
X228103630Y-109220000D02*
X225425000Y-111898630D01*
X225425000Y-111898630D02*
X225425000Y-133223000D01*
X212725000Y-152400000D02*
X210185000Y-154940000D01*
X213995000Y-152400000D02*
X212725000Y-152400000D01*
X196850000Y-159004000D02*
X196850000Y-155067000D01*
X193819999Y-148445001D02*
X194945000Y-147320000D01*
X193819999Y-158386999D02*
X193819999Y-148445001D01*
X194183000Y-158750000D02*
X193819999Y-158386999D01*
X209550000Y-165735000D02*
X209550000Y-160485000D01*
X209550000Y-160485000D02*
X204470000Y-155405000D01*
X204470000Y-155405000D02*
X204470000Y-130810000D01*
X204470000Y-130810000D02*
X204470000Y-130385736D01*
X204470000Y-130385736D02*
X204470000Y-121920000D01*
X226314000Y-117221000D02*
X226314000Y-130810000D01*
X229235000Y-114300000D02*
X226314000Y-117221000D01*
X194945000Y-154940000D02*
X197421500Y-152463500D01*
X194945000Y-158369000D02*
X196850000Y-160274000D01*
X194945000Y-154940000D02*
X194945000Y-158369000D01*
X196850000Y-165735000D02*
X196850000Y-160274000D01*
X194945000Y-134620000D02*
X198628000Y-130937000D01*
X198628000Y-130937000D02*
X198628000Y-120015000D01*
X186055000Y-133985000D02*
X186055000Y-127635000D01*
X198374000Y-159258000D02*
X199390000Y-160274000D01*
X198374000Y-149860000D02*
X198374000Y-159258000D01*
X199390000Y-165735000D02*
X199390000Y-160274000D01*
X198374000Y-149860000D02*
X198374000Y-146177000D01*
X197358000Y-127127000D02*
X197358000Y-123190000D01*
X194945000Y-129540000D02*
X197358000Y-127127000D01*
X186055000Y-124460000D02*
X186055000Y-118110000D01*
X222250000Y-160485000D02*
X222250000Y-139700000D01*
X222250000Y-165735000D02*
X222250000Y-160485000D01*
X186055000Y-115570000D02*
X186055000Y-114935000D01*
X194945000Y-124460000D02*
X186055000Y-115570000D01*
X186055000Y-108585000D02*
X186055000Y-114935000D01*
X208153000Y-126633002D02*
X208153000Y-116586000D01*
X209644999Y-128125001D02*
X208153000Y-126633002D01*
X210673591Y-128125001D02*
X209644999Y-128125001D01*
X213995000Y-131446410D02*
X210673591Y-128125001D01*
X213995000Y-132080000D02*
X213995000Y-131446410D01*
X212725000Y-129540000D02*
X210185000Y-127000000D01*
X213995000Y-129540000D02*
X212725000Y-129540000D01*
X204470000Y-160485000D02*
X201930000Y-157945000D01*
X204470000Y-165735000D02*
X204470000Y-160485000D01*
X201930000Y-157945000D02*
X201930000Y-127000000D01*
X215900000Y-126365000D02*
X213995000Y-124460000D01*
X215900000Y-144540002D02*
X215900000Y-126365000D01*
X214535001Y-145905001D02*
X215900000Y-144540002D01*
X211599999Y-145905001D02*
X214535001Y-145905001D01*
X210185000Y-147320000D02*
X211599999Y-145905001D01*
X211310001Y-123334999D02*
X210185000Y-124460000D01*
X211310001Y-119524999D02*
X211310001Y-123334999D01*
X213995000Y-116840000D02*
X211310001Y-119524999D01*
X224790000Y-158750000D02*
X224790000Y-116967000D01*
X224790000Y-160274000D02*
X224790000Y-165735000D01*
X227076000Y-152019000D02*
X227076000Y-157988000D01*
X229235000Y-149860000D02*
X227076000Y-152019000D01*
X227076000Y-157988000D02*
X224790000Y-160274000D01*
X229235000Y-149860000D02*
X227330000Y-147955000D01*
X227330000Y-147955000D02*
X227330000Y-128270000D01*
X194945000Y-144780000D02*
X195326000Y-144780000D01*
X206629000Y-155067000D02*
X206629000Y-144780000D01*
X211074000Y-159512000D02*
X206629000Y-155067000D01*
X206629000Y-144780000D02*
X206629000Y-113665000D01*
X206629000Y-113665000D02*
X207264000Y-113030000D01*
X208234001Y-155783001D02*
X208534000Y-156083000D01*
X207726004Y-155275004D02*
X208234001Y-155783001D01*
X210185000Y-132080000D02*
X207726004Y-134538996D01*
X207726004Y-134538996D02*
X207726004Y-155275004D01*
X162560000Y-144053002D02*
X162560000Y-130175000D01*
X164511999Y-146005001D02*
X162560000Y-144053002D01*
X168874999Y-146005001D02*
X164511999Y-146005001D01*
X170100000Y-144780000D02*
X168874999Y-146005001D01*
X161290000Y-128905000D02*
X162560000Y-130175000D01*
X161290000Y-123825000D02*
X161290000Y-128905000D01*
X161290000Y-123825000D02*
X158115000Y-123825000D01*
X165735000Y-132791200D02*
X167600000Y-134656200D01*
X165735000Y-130175000D02*
X165735000Y-132791200D01*
X167600000Y-139780000D02*
X167600000Y-134656200D01*
X165735000Y-129260002D02*
X165735000Y-130175000D01*
X167640000Y-127355002D02*
X165735000Y-129260002D01*
X167640000Y-123825000D02*
X167640000Y-127355002D01*
X165100000Y-144780000D02*
X169799000Y-140081000D01*
X169799000Y-121031000D02*
X175895000Y-114935000D01*
X168910000Y-131470400D02*
X169799000Y-132359400D01*
X168910000Y-130155000D02*
X168910000Y-131470400D01*
X169799000Y-140081000D02*
X169799000Y-132359400D01*
X168910000Y-130155000D02*
X168910000Y-129209800D01*
X168910000Y-129209800D02*
X169799000Y-128320800D01*
X169799000Y-128320800D02*
X169799000Y-121031000D01*
X175895000Y-124460000D02*
X178435000Y-124460000D01*
X175895000Y-126345000D02*
X172085000Y-130155000D01*
X175895000Y-124460000D02*
X175895000Y-126345000D01*
X172085000Y-145295000D02*
X167600000Y-149780000D01*
X172085000Y-130155000D02*
X172085000Y-145295000D01*
X178435000Y-133985000D02*
X175895000Y-133985000D01*
X168522000Y-152280000D02*
X175895000Y-144907000D01*
X165100000Y-152280000D02*
X168522000Y-152280000D01*
X175915000Y-134005000D02*
X175895000Y-133985000D01*
X175915000Y-139065000D02*
X175915000Y-134005000D01*
X175915000Y-141381800D02*
X175895000Y-141401800D01*
X175915000Y-139065000D02*
X175915000Y-141381800D01*
X175895000Y-141401800D02*
X175895000Y-133985000D01*
X175895000Y-144907000D02*
X175895000Y-141401800D01*
X162560000Y-114935000D02*
X161290000Y-116205000D01*
X162560000Y-112395000D02*
X162560000Y-114935000D01*
X178435000Y-152400000D02*
X178435000Y-155575000D01*
X176874990Y-146340010D02*
X177800000Y-145415000D01*
X176874990Y-150839990D02*
X176874990Y-146340010D01*
X178435000Y-152400000D02*
X176874990Y-150839990D01*
X178435000Y-108585000D02*
X179560001Y-109710001D01*
X179560001Y-116984999D02*
X178435000Y-118110000D01*
X179560001Y-109710001D02*
X179560001Y-116984999D01*
X164465000Y-123825000D02*
X165590001Y-122699999D01*
X165100000Y-114427000D02*
X165590001Y-114917001D01*
X165100000Y-112395000D02*
X165100000Y-114427000D01*
X165590001Y-122699999D02*
X165590001Y-114917001D01*
X223520000Y-158369000D02*
X223520000Y-122047000D01*
X223520000Y-122047000D02*
X223393000Y-121920000D01*
X211310001Y-150985001D02*
X210185000Y-149860000D01*
X214245003Y-150985001D02*
X211310001Y-150985001D01*
X215120001Y-151859999D02*
X214245003Y-150985001D01*
X214630000Y-159385000D02*
X215120001Y-158894999D01*
X215120001Y-158894999D02*
X215120001Y-152255001D01*
X215120001Y-152255001D02*
X215120001Y-151859999D01*
X217043000Y-117348000D02*
X213995000Y-114300000D01*
X217043000Y-150332002D02*
X217043000Y-117348000D01*
X215120001Y-152255001D02*
X217043000Y-150332002D01*
X219710000Y-165735000D02*
X219710000Y-142240002D01*
X219710000Y-142240002D02*
X219709998Y-142240000D01*
X200660000Y-158496002D02*
X201929998Y-159766000D01*
X200660000Y-134620000D02*
X200660000Y-158496002D01*
X212869999Y-137015001D02*
X210185000Y-139700000D01*
X212869999Y-135745001D02*
X212869999Y-137015001D01*
X213995000Y-134620000D02*
X212869999Y-135745001D01*
X199390000Y-159384998D02*
X199390000Y-139700000D01*
X208519998Y-111760000D02*
X209644999Y-112885001D01*
X194945000Y-111760000D02*
X208519998Y-111760000D01*
X209644999Y-112885001D02*
X214866001Y-112885001D01*
X214866001Y-112885001D02*
X216281000Y-114300000D01*
X228219000Y-113030000D02*
X229630002Y-113030000D01*
X227076000Y-114173000D02*
X228219000Y-113030000D01*
X229630002Y-113030000D02*
X231267000Y-114666998D01*
X231267000Y-114666998D02*
X231267000Y-129540000D01*
X231267000Y-148082000D02*
X231267000Y-129540000D01*
X235542295Y-152357295D02*
X231267000Y-148082000D01*
X235542295Y-158326295D02*
X235542295Y-152357295D01*
X237490000Y-160274000D02*
X235542295Y-158326295D01*
X237490000Y-165735000D02*
X237490000Y-160274000D01*
X196070001Y-110345001D02*
X215120001Y-110345001D01*
X194945000Y-109220000D02*
X196070001Y-110345001D01*
X215120001Y-110345001D02*
X216281000Y-111506000D01*
X227820005Y-110634999D02*
X229775001Y-110634999D01*
X226949000Y-111506004D02*
X227820005Y-110634999D01*
X229775001Y-110634999D02*
X232537000Y-113396998D01*
X232537000Y-113396998D02*
X232537000Y-132080002D01*
X232537000Y-132080002D02*
X232537000Y-147193000D01*
X232537000Y-147193000D02*
X236728000Y-151384000D01*
X236728000Y-151384000D02*
X236728000Y-157734000D01*
X215120001Y-107805001D02*
X216281000Y-108966000D01*
X194945000Y-106680000D02*
X196070001Y-107805001D01*
X196070001Y-107805001D02*
X215120001Y-107805001D01*
X227820005Y-108094999D02*
X229775001Y-108094999D01*
X226949000Y-108966004D02*
X227820005Y-108094999D01*
X229775001Y-108094999D02*
X233807000Y-112126998D01*
X233807000Y-112126998D02*
X233807000Y-134620000D01*
X233807000Y-146304000D02*
X233807000Y-134620000D01*
X238506000Y-151003000D02*
X233807000Y-146304000D01*
X238506000Y-158922499D02*
X238506000Y-151003000D01*
X240030000Y-160446499D02*
X238506000Y-158922499D01*
X240030000Y-165735000D02*
X240030000Y-160446499D01*
X235077000Y-107823000D02*
X235077000Y-137033000D01*
X235077000Y-137033000D02*
X234950000Y-137160000D01*
X234950000Y-137160000D02*
X234950000Y-145542000D01*
X234950000Y-145542000D02*
X240030000Y-150622000D01*
X240030000Y-150622000D02*
X240030000Y-158749998D01*
X236220000Y-110363000D02*
X236220000Y-139700000D01*
X236220000Y-145034000D02*
X236220000Y-139700000D01*
X241427000Y-159004000D02*
X242570000Y-160147000D01*
X241427000Y-150241000D02*
X241427000Y-159004000D01*
X242570000Y-165735000D02*
X242570000Y-160147000D01*
X241427000Y-150241000D02*
X236220000Y-145034000D01*
X237617000Y-113284000D02*
X237617000Y-142239998D01*
X237617000Y-144526000D02*
X237617000Y-142239998D01*
X242570000Y-158877000D02*
X242570000Y-149479000D01*
X242125500Y-149034500D02*
X237617000Y-144526000D01*
X242570000Y-149479000D02*
X242125500Y-149034500D01*
X238506000Y-143764000D02*
X239522000Y-144780000D01*
X238506000Y-115824000D02*
X238506000Y-143764000D01*
X243967000Y-159131000D02*
X245110000Y-160274000D01*
X243967000Y-149225000D02*
X243967000Y-159131000D01*
X245110000Y-165735000D02*
X245110000Y-160274000D01*
X243967000Y-149225000D02*
X239522000Y-144780000D01*
X239903000Y-120650000D02*
X239903000Y-143509998D01*
X239903000Y-143509998D02*
X243649501Y-147256499D01*
X243649501Y-147256499D02*
X245110000Y-148716998D01*
X245110000Y-148716998D02*
X245110000Y-158876998D01*
X218440000Y-159512000D02*
X218440000Y-143510002D01*
X213995000Y-106680000D02*
X215773000Y-106680000D01*
X215773000Y-106680000D02*
X218440000Y-109347000D01*
X218440000Y-109347000D02*
X218440000Y-143510002D01*
D23*
X252020001Y-158080269D02*
X252005995Y-158223109D01*
X251974599Y-158327099D01*
X251923601Y-158423013D01*
X251854941Y-158507199D01*
X251771243Y-158576439D01*
X251675689Y-158628105D01*
X251571922Y-158660227D01*
X251431359Y-158675000D01*
X251171123Y-158675000D01*
X251140587Y-158678007D01*
X251132786Y-158677953D01*
X251122920Y-158678920D01*
X250876417Y-158704828D01*
X250813399Y-158717764D01*
X250750167Y-158729826D01*
X250740677Y-158732692D01*
X250503901Y-158805987D01*
X250444597Y-158830916D01*
X250384915Y-158855029D01*
X250376163Y-158859683D01*
X250158133Y-158977571D01*
X250104805Y-159013541D01*
X250050935Y-159048793D01*
X250043253Y-159055059D01*
X249852273Y-159213051D01*
X249806936Y-159258706D01*
X249760953Y-159303736D01*
X249754634Y-159311374D01*
X249597979Y-159503452D01*
X249562375Y-159557041D01*
X249526011Y-159610150D01*
X249521296Y-159618870D01*
X249404934Y-159837717D01*
X249380413Y-159897208D01*
X249355062Y-159956357D01*
X249352131Y-159965827D01*
X249280491Y-160203108D01*
X249267997Y-160266205D01*
X249254612Y-160329179D01*
X249253576Y-160339038D01*
X249235048Y-160528000D01*
X249050780Y-160528000D01*
X249039502Y-160490820D01*
X248980537Y-160380506D01*
X248901185Y-160283815D01*
X248804494Y-160204463D01*
X248694180Y-160145498D01*
X248574482Y-160109188D01*
X248450000Y-160096928D01*
X247935750Y-160100000D01*
X247777000Y-160258750D01*
X247777000Y-160528000D01*
X247523000Y-160528000D01*
X247523000Y-160258750D01*
X247364250Y-160100000D01*
X246850000Y-160096928D01*
X246725518Y-160109188D01*
X246605820Y-160145498D01*
X246495506Y-160204463D01*
X246398815Y-160283815D01*
X246380000Y-160306741D01*
X246361185Y-160283815D01*
X246264494Y-160204463D01*
X246154180Y-160145498D01*
X246034482Y-160109188D01*
X245910000Y-160096928D01*
X245850483Y-160096928D01*
X245815546Y-159981753D01*
X245800124Y-159952901D01*
X245744974Y-159849723D01*
X245673799Y-159762997D01*
X245650001Y-159733999D01*
X245621003Y-159710201D01*
X245590953Y-159680151D01*
X245706028Y-159603260D01*
X245836262Y-159473026D01*
X245938586Y-159319887D01*
X246009068Y-159149727D01*
X246045000Y-158969087D01*
X246045000Y-158784909D01*
X246009068Y-158604269D01*
X245938586Y-158434109D01*
X245870000Y-158331463D01*
X245870000Y-148754320D01*
X245873676Y-148716997D01*
X245870000Y-148679674D01*
X245870000Y-148679665D01*
X245859003Y-148568012D01*
X245815546Y-148424751D01*
X245744974Y-148292722D01*
X245694308Y-148230985D01*
X245673799Y-148205994D01*
X245673795Y-148205990D01*
X245650001Y-148176997D01*
X245621009Y-148153204D01*
X244572654Y-147104850D01*
X244548569Y-146983770D01*
X244478087Y-146813610D01*
X244375763Y-146660471D01*
X244245529Y-146530237D01*
X244092390Y-146427913D01*
X243922230Y-146357431D01*
X243801150Y-146333346D01*
X241471469Y-144003665D01*
X243040000Y-144003665D01*
X243040000Y-144286335D01*
X243095147Y-144563574D01*
X243203320Y-144824727D01*
X243360363Y-145059759D01*
X243560241Y-145259637D01*
X243795273Y-145416680D01*
X244056426Y-145524853D01*
X244333665Y-145580000D01*
X244616335Y-145580000D01*
X244893574Y-145524853D01*
X245154727Y-145416680D01*
X245389759Y-145259637D01*
X245589637Y-145059759D01*
X245746680Y-144824727D01*
X245854853Y-144563574D01*
X245910000Y-144286335D01*
X245910000Y-144003665D01*
X246850000Y-144003665D01*
X246850000Y-144286335D01*
X246905147Y-144563574D01*
X247013320Y-144824727D01*
X247170363Y-145059759D01*
X247370241Y-145259637D01*
X247605273Y-145416680D01*
X247866426Y-145524853D01*
X248143665Y-145580000D01*
X248426335Y-145580000D01*
X248703574Y-145524853D01*
X248964727Y-145416680D01*
X249199759Y-145259637D01*
X249399637Y-145059759D01*
X249556680Y-144824727D01*
X249664853Y-144563574D01*
X249720000Y-144286335D01*
X249720000Y-144003665D01*
X249664853Y-143726426D01*
X249556680Y-143465273D01*
X249399637Y-143230241D01*
X249199759Y-143030363D01*
X248964727Y-142873320D01*
X248703574Y-142765147D01*
X248426335Y-142710000D01*
X248143665Y-142710000D01*
X247866426Y-142765147D01*
X247605273Y-142873320D01*
X247370241Y-143030363D01*
X247170363Y-143230241D01*
X247013320Y-143465273D01*
X246905147Y-143726426D01*
X246850000Y-144003665D01*
X245910000Y-144003665D01*
X245885420Y-143880093D01*
X247654617Y-142110896D01*
X247685527Y-142085529D01*
X247741952Y-142016774D01*
X247786748Y-141962191D01*
X247859502Y-141826076D01*
X247861962Y-141821474D01*
X247908279Y-141668789D01*
X247919999Y-141549792D01*
X247919999Y-141549790D01*
X247923918Y-141510002D01*
X247919999Y-141470214D01*
X247919999Y-132835509D01*
X248143665Y-132880000D01*
X248426335Y-132880000D01*
X248703574Y-132824853D01*
X248964727Y-132716680D01*
X249199759Y-132559637D01*
X249399637Y-132359759D01*
X249556680Y-132124727D01*
X249664853Y-131863574D01*
X249720000Y-131586335D01*
X249720000Y-131303665D01*
X249664853Y-131026426D01*
X249556680Y-130765273D01*
X249399637Y-130530241D01*
X249199759Y-130330363D01*
X248964727Y-130173320D01*
X248703574Y-130065147D01*
X248426335Y-130010000D01*
X248143665Y-130010000D01*
X247919999Y-130054491D01*
X247919999Y-124219395D01*
X248005241Y-124304637D01*
X248240273Y-124461680D01*
X248501426Y-124569853D01*
X248778665Y-124625000D01*
X249061335Y-124625000D01*
X249338574Y-124569853D01*
X249599727Y-124461680D01*
X249834759Y-124304637D01*
X250034637Y-124104759D01*
X250191680Y-123869727D01*
X250299853Y-123608574D01*
X250355000Y-123331335D01*
X250355000Y-123048665D01*
X250299853Y-122771426D01*
X250191680Y-122510273D01*
X250034637Y-122275241D01*
X249834759Y-122075363D01*
X249599727Y-121918320D01*
X249338574Y-121810147D01*
X249061335Y-121755000D01*
X248778665Y-121755000D01*
X248501426Y-121810147D01*
X248240273Y-121918320D01*
X248005241Y-122075363D01*
X247919999Y-122160605D01*
X247919999Y-110095513D01*
X248655093Y-109360420D01*
X248778665Y-109385000D01*
X249061335Y-109385000D01*
X249338574Y-109329853D01*
X249599727Y-109221680D01*
X249834759Y-109064637D01*
X250034637Y-108864759D01*
X250191680Y-108629727D01*
X250299853Y-108368574D01*
X250355000Y-108091335D01*
X250355000Y-107808665D01*
X250299853Y-107531426D01*
X250191680Y-107270273D01*
X250034637Y-107035241D01*
X249834759Y-106835363D01*
X249599727Y-106678320D01*
X249338574Y-106570147D01*
X249061335Y-106515000D01*
X248778665Y-106515000D01*
X248501426Y-106570147D01*
X248240273Y-106678320D01*
X248005241Y-106835363D01*
X247805363Y-107035241D01*
X247648320Y-107270273D01*
X247540147Y-107531426D01*
X247485000Y-107808665D01*
X247485000Y-108091335D01*
X247509580Y-108214907D01*
X246565386Y-109159102D01*
X246534471Y-109184473D01*
X246473928Y-109258246D01*
X246433250Y-109307812D01*
X246432258Y-109309668D01*
X246358036Y-109448529D01*
X246311719Y-109601214D01*
X246301005Y-109710001D01*
X246296080Y-109760001D01*
X246299999Y-109799789D01*
X246300000Y-141174487D01*
X244739907Y-142734580D01*
X244616335Y-142710000D01*
X244333665Y-142710000D01*
X244056426Y-142765147D01*
X243795273Y-142873320D01*
X243560241Y-143030363D01*
X243360363Y-143230241D01*
X243203320Y-143465273D01*
X243095147Y-143726426D01*
X243040000Y-144003665D01*
X241471469Y-144003665D01*
X240663000Y-143195197D01*
X240663000Y-131303665D01*
X243040000Y-131303665D01*
X243040000Y-131586335D01*
X243095147Y-131863574D01*
X243203320Y-132124727D01*
X243360363Y-132359759D01*
X243560241Y-132559637D01*
X243795273Y-132716680D01*
X244056426Y-132824853D01*
X244333665Y-132880000D01*
X244616335Y-132880000D01*
X244893574Y-132824853D01*
X245154727Y-132716680D01*
X245389759Y-132559637D01*
X245589637Y-132359759D01*
X245746680Y-132124727D01*
X245854853Y-131863574D01*
X245910000Y-131586335D01*
X245910000Y-131303665D01*
X245854853Y-131026426D01*
X245746680Y-130765273D01*
X245589637Y-130530241D01*
X245389759Y-130330363D01*
X245154727Y-130173320D01*
X244893574Y-130065147D01*
X244616335Y-130010000D01*
X244333665Y-130010000D01*
X244056426Y-130065147D01*
X243795273Y-130173320D01*
X243560241Y-130330363D01*
X243360363Y-130530241D01*
X243203320Y-130765273D01*
X243095147Y-131026426D01*
X243040000Y-131303665D01*
X240663000Y-131303665D01*
X240663000Y-124476124D01*
X240813996Y-124547571D01*
X241088184Y-124616300D01*
X241370512Y-124630217D01*
X241650130Y-124588787D01*
X241916292Y-124493603D01*
X242041514Y-124426671D01*
X242113097Y-124182702D01*
X241300000Y-123369605D01*
X241285858Y-123383748D01*
X241106253Y-123204143D01*
X241120395Y-123190000D01*
X241479605Y-123190000D01*
X242292702Y-124003097D01*
X242536671Y-123931514D01*
X242657571Y-123676004D01*
X242726300Y-123401816D01*
X242740217Y-123119488D01*
X242698787Y-122839870D01*
X242603603Y-122573708D01*
X242536671Y-122448486D01*
X242292702Y-122376903D01*
X241479605Y-123190000D01*
X241120395Y-123190000D01*
X241106253Y-123175858D01*
X241285858Y-122996253D01*
X241300000Y-123010395D01*
X242113097Y-122197298D01*
X242041514Y-121953329D01*
X241786004Y-121832429D01*
X241511816Y-121763700D01*
X241229488Y-121749783D01*
X240949870Y-121791213D01*
X240683708Y-121886397D01*
X240663000Y-121897466D01*
X240663000Y-121195535D01*
X240731586Y-121092889D01*
X240802068Y-120922729D01*
X240838000Y-120742089D01*
X240838000Y-120557911D01*
X240802068Y-120377271D01*
X240731586Y-120207111D01*
X240629262Y-120053972D01*
X240499028Y-119923738D01*
X240345889Y-119821414D01*
X240175729Y-119750932D01*
X239995089Y-119715000D01*
X239810911Y-119715000D01*
X239630271Y-119750932D01*
X239460111Y-119821414D01*
X239306972Y-119923738D01*
X239266000Y-119964710D01*
X239266000Y-116369535D01*
X239334586Y-116266889D01*
X239405068Y-116096729D01*
X239441000Y-115916089D01*
X239441000Y-115731911D01*
X239405068Y-115551271D01*
X239334586Y-115381111D01*
X239232262Y-115227972D01*
X239102028Y-115097738D01*
X238948889Y-114995414D01*
X238778729Y-114924932D01*
X238598089Y-114889000D01*
X238413911Y-114889000D01*
X238377000Y-114896342D01*
X238377000Y-113829535D01*
X238445586Y-113726889D01*
X238516068Y-113556729D01*
X238552000Y-113376089D01*
X238552000Y-113191911D01*
X238516068Y-113011271D01*
X238445586Y-112841111D01*
X238343262Y-112687972D01*
X238213028Y-112557738D01*
X238059889Y-112455414D01*
X237889729Y-112384932D01*
X237709089Y-112349000D01*
X237524911Y-112349000D01*
X237344271Y-112384932D01*
X237174111Y-112455414D01*
X237020972Y-112557738D01*
X236980000Y-112598710D01*
X236980000Y-110908535D01*
X237048586Y-110805889D01*
X237119068Y-110635729D01*
X237155000Y-110455089D01*
X237155000Y-110270911D01*
X237119068Y-110090271D01*
X237048586Y-109920111D01*
X236946262Y-109766972D01*
X236816028Y-109636738D01*
X236662889Y-109534414D01*
X236492729Y-109463932D01*
X236312089Y-109428000D01*
X236127911Y-109428000D01*
X235947271Y-109463932D01*
X235837000Y-109509607D01*
X235837000Y-108368535D01*
X235905586Y-108265889D01*
X235976068Y-108095729D01*
X236012000Y-107915089D01*
X236012000Y-107730911D01*
X235976068Y-107550271D01*
X235905586Y-107380111D01*
X235803262Y-107226972D01*
X235726290Y-107150000D01*
X239861928Y-107150000D01*
X239861928Y-108750000D01*
X239874188Y-108874482D01*
X239910498Y-108994180D01*
X239969463Y-109104494D01*
X240048815Y-109201185D01*
X240145506Y-109280537D01*
X240255820Y-109339502D01*
X240375518Y-109375812D01*
X240500000Y-109388072D01*
X242100000Y-109388072D01*
X242224482Y-109375812D01*
X242344180Y-109339502D01*
X242454494Y-109280537D01*
X242551185Y-109201185D01*
X242630537Y-109104494D01*
X242689502Y-108994180D01*
X242725812Y-108874482D01*
X242738072Y-108750000D01*
X242738072Y-107150000D01*
X242725812Y-107025518D01*
X242689502Y-106905820D01*
X242630537Y-106795506D01*
X242551185Y-106698815D01*
X242454494Y-106619463D01*
X242344180Y-106560498D01*
X242224482Y-106524188D01*
X242100000Y-106511928D01*
X240500000Y-106511928D01*
X240375518Y-106524188D01*
X240255820Y-106560498D01*
X240145506Y-106619463D01*
X240048815Y-106698815D01*
X239969463Y-106795506D01*
X239910498Y-106905820D01*
X239874188Y-107025518D01*
X239861928Y-107150000D01*
X235726290Y-107150000D01*
X235673028Y-107096738D01*
X235519889Y-106994414D01*
X235349729Y-106923932D01*
X235169089Y-106888000D01*
X234984911Y-106888000D01*
X234804271Y-106923932D01*
X234634111Y-106994414D01*
X234480972Y-107096738D01*
X234350738Y-107226972D01*
X234248414Y-107380111D01*
X234177932Y-107550271D01*
X234142000Y-107730911D01*
X234142000Y-107915089D01*
X234177932Y-108095729D01*
X234248414Y-108265889D01*
X234317000Y-108368535D01*
X234317000Y-111562196D01*
X230349600Y-107594796D01*
X230349637Y-107594759D01*
X230506680Y-107359727D01*
X230614853Y-107098574D01*
X230670000Y-106821335D01*
X230670000Y-106538665D01*
X230614853Y-106261426D01*
X230506680Y-106000273D01*
X230349637Y-105765241D01*
X230149759Y-105565363D01*
X229914727Y-105408320D01*
X229653574Y-105300147D01*
X229376335Y-105245000D01*
X229093665Y-105245000D01*
X228816426Y-105300147D01*
X228555273Y-105408320D01*
X228320241Y-105565363D01*
X228120363Y-105765241D01*
X228013481Y-105925202D01*
X227954644Y-105930997D01*
X227811383Y-105974454D01*
X227679354Y-106045026D01*
X227679352Y-106045027D01*
X227679353Y-106045027D01*
X227592626Y-106116201D01*
X227592622Y-106116205D01*
X227563629Y-106139999D01*
X227539835Y-106168992D01*
X220214998Y-113493831D01*
X220186000Y-113517629D01*
X220162202Y-113546627D01*
X220162201Y-113546628D01*
X220091026Y-113633354D01*
X220020454Y-113765384D01*
X220003777Y-113820363D01*
X219976998Y-113908644D01*
X219967236Y-114007754D01*
X219962324Y-114057630D01*
X219966001Y-114094963D01*
X219966000Y-141337605D01*
X219802087Y-141305000D01*
X219617909Y-141305000D01*
X219437269Y-141340932D01*
X219267109Y-141411414D01*
X219200000Y-141456255D01*
X219200000Y-109384333D01*
X219203677Y-109347000D01*
X219189003Y-109198014D01*
X219145546Y-109054753D01*
X219074974Y-108922724D01*
X219035383Y-108874482D01*
X218980001Y-108806999D01*
X218951004Y-108783202D01*
X216336804Y-106169003D01*
X216313001Y-106139999D01*
X216197276Y-106045026D01*
X216065247Y-105974454D01*
X215921986Y-105930997D01*
X215810333Y-105920000D01*
X215810322Y-105920000D01*
X215773000Y-105916324D01*
X215735678Y-105920000D01*
X215433072Y-105920000D01*
X215433072Y-105880000D01*
X215420812Y-105755518D01*
X215384502Y-105635820D01*
X215325537Y-105525506D01*
X215246185Y-105428815D01*
X215149494Y-105349463D01*
X215039180Y-105290498D01*
X214919482Y-105254188D01*
X214795000Y-105241928D01*
X213195000Y-105241928D01*
X213070518Y-105254188D01*
X212950820Y-105290498D01*
X212840506Y-105349463D01*
X212743815Y-105428815D01*
X212664463Y-105525506D01*
X212605498Y-105635820D01*
X212569188Y-105755518D01*
X212556928Y-105880000D01*
X212556928Y-107045001D01*
X211575509Y-107045001D01*
X211620000Y-106821335D01*
X211620000Y-106538665D01*
X211564853Y-106261426D01*
X211456680Y-106000273D01*
X211299637Y-105765241D01*
X211099759Y-105565363D01*
X210864727Y-105408320D01*
X210603574Y-105300147D01*
X210326335Y-105245000D01*
X210043665Y-105245000D01*
X209766426Y-105300147D01*
X209505273Y-105408320D01*
X209270241Y-105565363D01*
X209070363Y-105765241D01*
X208913320Y-106000273D01*
X208805147Y-106261426D01*
X208750000Y-106538665D01*
X208750000Y-106821335D01*
X208794491Y-107045001D01*
X196384803Y-107045001D01*
X196383072Y-107043270D01*
X196383072Y-105880000D01*
X196370812Y-105755518D01*
X196334502Y-105635820D01*
X196275537Y-105525506D01*
X196196185Y-105428815D01*
X196099494Y-105349463D01*
X195989180Y-105290498D01*
X195869482Y-105254188D01*
X195745000Y-105241928D01*
X194145000Y-105241928D01*
X194020518Y-105254188D01*
X193900820Y-105290498D01*
X193790506Y-105349463D01*
X193693815Y-105428815D01*
X193614463Y-105525506D01*
X193555498Y-105635820D01*
X193519188Y-105755518D01*
X193506928Y-105880000D01*
X193506928Y-107480000D01*
X193519188Y-107604482D01*
X193555498Y-107724180D01*
X193614463Y-107834494D01*
X193693815Y-107931185D01*
X193790506Y-108010537D01*
X193900820Y-108069502D01*
X194020518Y-108105812D01*
X194028961Y-108106643D01*
X193830363Y-108305241D01*
X193673320Y-108540273D01*
X193565147Y-108801426D01*
X193510000Y-109078665D01*
X193510000Y-109361335D01*
X193565147Y-109638574D01*
X193673320Y-109899727D01*
X193830363Y-110134759D01*
X194030241Y-110334637D01*
X194262759Y-110490000D01*
X194030241Y-110645363D01*
X193830363Y-110845241D01*
X193673320Y-111080273D01*
X193565147Y-111341426D01*
X193510000Y-111618665D01*
X193510000Y-111901335D01*
X193565147Y-112178574D01*
X193673320Y-112439727D01*
X193830363Y-112674759D01*
X194030241Y-112874637D01*
X194262759Y-113030000D01*
X194030241Y-113185363D01*
X193830363Y-113385241D01*
X193673320Y-113620273D01*
X193565147Y-113881426D01*
X193510000Y-114158665D01*
X193510000Y-114441335D01*
X193565147Y-114718574D01*
X193673320Y-114979727D01*
X193830363Y-115214759D01*
X194030241Y-115414637D01*
X194262759Y-115570000D01*
X194030241Y-115725363D01*
X193830363Y-115925241D01*
X193673320Y-116160273D01*
X193565147Y-116421426D01*
X193510000Y-116698665D01*
X193510000Y-116981335D01*
X193565147Y-117258574D01*
X193673320Y-117519727D01*
X193830363Y-117754759D01*
X194030241Y-117954637D01*
X194262759Y-118110000D01*
X194030241Y-118265363D01*
X193830363Y-118465241D01*
X193673320Y-118700273D01*
X193565147Y-118961426D01*
X193510000Y-119238665D01*
X193510000Y-119521335D01*
X193565147Y-119798574D01*
X193673320Y-120059727D01*
X193830363Y-120294759D01*
X194030241Y-120494637D01*
X194262759Y-120650000D01*
X194030241Y-120805363D01*
X193830363Y-121005241D01*
X193673320Y-121240273D01*
X193565147Y-121501426D01*
X193510000Y-121778665D01*
X193510000Y-121950198D01*
X187265737Y-115705935D01*
X187326680Y-115614727D01*
X187434853Y-115353574D01*
X187490000Y-115076335D01*
X187490000Y-114793665D01*
X187434853Y-114516426D01*
X187326680Y-114255273D01*
X187169637Y-114020241D01*
X186969759Y-113820363D01*
X186815000Y-113716957D01*
X186815000Y-112978043D01*
X186969759Y-112874637D01*
X187169637Y-112674759D01*
X187326680Y-112439727D01*
X187434853Y-112178574D01*
X187490000Y-111901335D01*
X187490000Y-111618665D01*
X187434853Y-111341426D01*
X187326680Y-111080273D01*
X187169637Y-110845241D01*
X186969759Y-110645363D01*
X186815000Y-110541957D01*
X186815000Y-109803043D01*
X186969759Y-109699637D01*
X187169637Y-109499759D01*
X187326680Y-109264727D01*
X187434853Y-109003574D01*
X187490000Y-108726335D01*
X187490000Y-108443665D01*
X187434853Y-108166426D01*
X187326680Y-107905273D01*
X187169637Y-107670241D01*
X186969759Y-107470363D01*
X186734727Y-107313320D01*
X186473574Y-107205147D01*
X186196335Y-107150000D01*
X185913665Y-107150000D01*
X185636426Y-107205147D01*
X185375273Y-107313320D01*
X185140241Y-107470363D01*
X184940363Y-107670241D01*
X184783320Y-107905273D01*
X184675147Y-108166426D01*
X184620000Y-108443665D01*
X184620000Y-108726335D01*
X184675147Y-109003574D01*
X184783320Y-109264727D01*
X184940363Y-109499759D01*
X185140241Y-109699637D01*
X185295000Y-109803044D01*
X185295000Y-110541956D01*
X185140241Y-110645363D01*
X184940363Y-110845241D01*
X184783320Y-111080273D01*
X184675147Y-111341426D01*
X184620000Y-111618665D01*
X184620000Y-111901335D01*
X184675147Y-112178574D01*
X184783320Y-112439727D01*
X184940363Y-112674759D01*
X185140241Y-112874637D01*
X185295001Y-112978044D01*
X185295001Y-113716956D01*
X185140241Y-113820363D01*
X184940363Y-114020241D01*
X184783320Y-114255273D01*
X184675147Y-114516426D01*
X184620000Y-114793665D01*
X184620000Y-115076335D01*
X184675147Y-115353574D01*
X184783320Y-115614727D01*
X184940363Y-115849759D01*
X185140241Y-116049637D01*
X185375273Y-116206680D01*
X185636426Y-116314853D01*
X185747058Y-116336859D01*
X186085199Y-116675000D01*
X185913665Y-116675000D01*
X185636426Y-116730147D01*
X185375273Y-116838320D01*
X185140241Y-116995363D01*
X184940363Y-117195241D01*
X184783320Y-117430273D01*
X184675147Y-117691426D01*
X184620000Y-117968665D01*
X184620000Y-118251335D01*
X184675147Y-118528574D01*
X184783320Y-118789727D01*
X184940363Y-119024759D01*
X185140241Y-119224637D01*
X185295001Y-119328044D01*
X185295001Y-120066956D01*
X185140241Y-120170363D01*
X184940363Y-120370241D01*
X184783320Y-120605273D01*
X184675147Y-120866426D01*
X184620000Y-121143665D01*
X184620000Y-121426335D01*
X184675147Y-121703574D01*
X184783320Y-121964727D01*
X184940363Y-122199759D01*
X185140241Y-122399637D01*
X185295000Y-122503044D01*
X185295000Y-123241956D01*
X185140241Y-123345363D01*
X184940363Y-123545241D01*
X184783320Y-123780273D01*
X184675147Y-124041426D01*
X184620000Y-124318665D01*
X184620000Y-124601335D01*
X184675147Y-124878574D01*
X184783320Y-125139727D01*
X184940363Y-125374759D01*
X185140241Y-125574637D01*
X185375273Y-125731680D01*
X185636426Y-125839853D01*
X185913665Y-125895000D01*
X186196335Y-125895000D01*
X186473574Y-125839853D01*
X186734727Y-125731680D01*
X186969759Y-125574637D01*
X187169637Y-125374759D01*
X187326680Y-125139727D01*
X187434853Y-124878574D01*
X187490000Y-124601335D01*
X187490000Y-124318665D01*
X187434853Y-124041426D01*
X187326680Y-123780273D01*
X187169637Y-123545241D01*
X186969759Y-123345363D01*
X186815000Y-123241957D01*
X186815000Y-122503043D01*
X186969759Y-122399637D01*
X187169637Y-122199759D01*
X187326680Y-121964727D01*
X187434853Y-121703574D01*
X187490000Y-121426335D01*
X187490000Y-121143665D01*
X187434853Y-120866426D01*
X187326680Y-120605273D01*
X187169637Y-120370241D01*
X186969759Y-120170363D01*
X186815000Y-120066957D01*
X186815000Y-119328043D01*
X186969759Y-119224637D01*
X187169637Y-119024759D01*
X187326680Y-118789727D01*
X187434853Y-118528574D01*
X187490000Y-118251335D01*
X187490000Y-118079801D01*
X193546312Y-124136114D01*
X193510000Y-124318665D01*
X193510000Y-124601335D01*
X193565147Y-124878574D01*
X193673320Y-125139727D01*
X193830363Y-125374759D01*
X194030241Y-125574637D01*
X194262759Y-125730000D01*
X194030241Y-125885363D01*
X193830363Y-126085241D01*
X193673320Y-126320273D01*
X193565147Y-126581426D01*
X193510000Y-126858665D01*
X193510000Y-127141335D01*
X193565147Y-127418574D01*
X193673320Y-127679727D01*
X193830363Y-127914759D01*
X194030241Y-128114637D01*
X194262759Y-128270000D01*
X194030241Y-128425363D01*
X193830363Y-128625241D01*
X193673320Y-128860273D01*
X193565147Y-129121426D01*
X193510000Y-129398665D01*
X193510000Y-129681335D01*
X193565147Y-129958574D01*
X193673320Y-130219727D01*
X193830363Y-130454759D01*
X194030241Y-130654637D01*
X194262759Y-130810000D01*
X194030241Y-130965363D01*
X193830363Y-131165241D01*
X193673320Y-131400273D01*
X193565147Y-131661426D01*
X193510000Y-131938665D01*
X193510000Y-132221335D01*
X193565147Y-132498574D01*
X193673320Y-132759727D01*
X193830363Y-132994759D01*
X194030241Y-133194637D01*
X194262759Y-133350000D01*
X194030241Y-133505363D01*
X193830363Y-133705241D01*
X193673320Y-133940273D01*
X193565147Y-134201426D01*
X193510000Y-134478665D01*
X193510000Y-134761335D01*
X193565147Y-135038574D01*
X193673320Y-135299727D01*
X193830363Y-135534759D01*
X194030241Y-135734637D01*
X194262759Y-135890000D01*
X194030241Y-136045363D01*
X193830363Y-136245241D01*
X193673320Y-136480273D01*
X193565147Y-136741426D01*
X193510000Y-137018665D01*
X193510000Y-137301335D01*
X193565147Y-137578574D01*
X193673320Y-137839727D01*
X193830363Y-138074759D01*
X194030241Y-138274637D01*
X194262759Y-138430000D01*
X194030241Y-138585363D01*
X193830363Y-138785241D01*
X193673320Y-139020273D01*
X193565147Y-139281426D01*
X193510000Y-139558665D01*
X193510000Y-139841335D01*
X193565147Y-140118574D01*
X193673320Y-140379727D01*
X193830363Y-140614759D01*
X194030241Y-140814637D01*
X194265273Y-140971680D01*
X194275865Y-140976067D01*
X194089869Y-141087615D01*
X193881481Y-141276586D01*
X193713963Y-141502580D01*
X193593754Y-141756913D01*
X193553096Y-141890961D01*
X193675085Y-142113000D01*
X194818000Y-142113000D01*
X194818000Y-142093000D01*
X195072000Y-142093000D01*
X195072000Y-142113000D01*
X195092000Y-142113000D01*
X195092000Y-142367000D01*
X195072000Y-142367000D01*
X195072000Y-142387000D01*
X194818000Y-142387000D01*
X194818000Y-142367000D01*
X193675085Y-142367000D01*
X193553096Y-142589039D01*
X193593754Y-142723087D01*
X193713963Y-142977420D01*
X193881481Y-143203414D01*
X194089869Y-143392385D01*
X194275865Y-143503933D01*
X194265273Y-143508320D01*
X194030241Y-143665363D01*
X193830363Y-143865241D01*
X193673320Y-144100273D01*
X193565147Y-144361426D01*
X193510000Y-144638665D01*
X193510000Y-144921335D01*
X193565147Y-145198574D01*
X193673320Y-145459727D01*
X193830363Y-145694759D01*
X194030241Y-145894637D01*
X194262759Y-146050000D01*
X194030241Y-146205363D01*
X193830363Y-146405241D01*
X193673320Y-146640273D01*
X193565147Y-146901426D01*
X193510000Y-147178665D01*
X193510000Y-147461335D01*
X193546312Y-147643887D01*
X193308997Y-147881202D01*
X193279999Y-147905000D01*
X193256201Y-147933998D01*
X193256200Y-147933999D01*
X193185025Y-148020725D01*
X193114453Y-148152755D01*
X193098304Y-148205994D01*
X193078639Y-148270824D01*
X193070997Y-148296016D01*
X193056323Y-148445001D01*
X193060000Y-148482333D01*
X193059999Y-158259486D01*
X187465420Y-152664907D01*
X187490000Y-152541335D01*
X187490000Y-152258665D01*
X187434853Y-151981426D01*
X187326680Y-151720273D01*
X187169637Y-151485241D01*
X186969759Y-151285363D01*
X186865000Y-151215365D01*
X186865000Y-145454788D01*
X186868919Y-145415000D01*
X186865000Y-145375209D01*
X186858072Y-145304867D01*
X186858072Y-144638665D01*
X190335000Y-144638665D01*
X190335000Y-144921335D01*
X190390147Y-145198574D01*
X190498320Y-145459727D01*
X190655363Y-145694759D01*
X190855241Y-145894637D01*
X191090273Y-146051680D01*
X191351426Y-146159853D01*
X191628665Y-146215000D01*
X191911335Y-146215000D01*
X192188574Y-146159853D01*
X192449727Y-146051680D01*
X192684759Y-145894637D01*
X192884637Y-145694759D01*
X193041680Y-145459727D01*
X193149853Y-145198574D01*
X193205000Y-144921335D01*
X193205000Y-144638665D01*
X193149853Y-144361426D01*
X193041680Y-144100273D01*
X192884637Y-143865241D01*
X192684759Y-143665363D01*
X192484131Y-143531308D01*
X192511514Y-143516671D01*
X192583097Y-143272702D01*
X191770000Y-142459605D01*
X190956903Y-143272702D01*
X191028486Y-143516671D01*
X191057341Y-143530324D01*
X190855241Y-143665363D01*
X190655363Y-143865241D01*
X190498320Y-144100273D01*
X190390147Y-144361426D01*
X190335000Y-144638665D01*
X186858072Y-144638665D01*
X186858072Y-143980000D01*
X186845812Y-143855518D01*
X186809502Y-143735820D01*
X186750537Y-143625506D01*
X186671185Y-143528815D01*
X186574494Y-143449463D01*
X186464180Y-143390498D01*
X186344482Y-143354188D01*
X186220000Y-143341928D01*
X186212785Y-143341928D01*
X186233097Y-143272702D01*
X185420000Y-142459605D01*
X185405858Y-142473748D01*
X185226253Y-142294143D01*
X185240395Y-142280000D01*
X185599605Y-142280000D01*
X186412702Y-143093097D01*
X186656671Y-143021514D01*
X186777571Y-142766004D01*
X186846300Y-142491816D01*
X186853265Y-142350512D01*
X190329783Y-142350512D01*
X190371213Y-142630130D01*
X190466397Y-142896292D01*
X190533329Y-143021514D01*
X190777298Y-143093097D01*
X191590395Y-142280000D01*
X191949605Y-142280000D01*
X192762702Y-143093097D01*
X193006671Y-143021514D01*
X193127571Y-142766004D01*
X193196300Y-142491816D01*
X193210217Y-142209488D01*
X193168787Y-141929870D01*
X193073603Y-141663708D01*
X193006671Y-141538486D01*
X192762702Y-141466903D01*
X191949605Y-142280000D01*
X191590395Y-142280000D01*
X190777298Y-141466903D01*
X190533329Y-141538486D01*
X190412429Y-141793996D01*
X190343700Y-142068184D01*
X190329783Y-142350512D01*
X186853265Y-142350512D01*
X186860217Y-142209488D01*
X186818787Y-141929870D01*
X186723603Y-141663708D01*
X186656671Y-141538486D01*
X186412702Y-141466903D01*
X185599605Y-142280000D01*
X185240395Y-142280000D01*
X184427298Y-141466903D01*
X184183329Y-141538486D01*
X184062429Y-141793996D01*
X183993700Y-142068184D01*
X183987123Y-142201611D01*
X183182000Y-141396488D01*
X183182000Y-141287298D01*
X184606903Y-141287298D01*
X185420000Y-142100395D01*
X186233097Y-141287298D01*
X190956903Y-141287298D01*
X191770000Y-142100395D01*
X192583097Y-141287298D01*
X192511514Y-141043329D01*
X192256004Y-140922429D01*
X191981816Y-140853700D01*
X191699488Y-140839783D01*
X191419870Y-140881213D01*
X191153708Y-140976397D01*
X191028486Y-141043329D01*
X190956903Y-141287298D01*
X186233097Y-141287298D01*
X186161514Y-141043329D01*
X185906004Y-140922429D01*
X185631816Y-140853700D01*
X185349488Y-140839783D01*
X185069870Y-140881213D01*
X184803708Y-140976397D01*
X184678486Y-141043329D01*
X184606903Y-141287298D01*
X183182000Y-141287298D01*
X183182000Y-134786788D01*
X183185919Y-134747000D01*
X183177941Y-134666000D01*
X183170280Y-134588212D01*
X183123963Y-134435527D01*
X183048749Y-134294811D01*
X182947528Y-134171472D01*
X182916618Y-134146105D01*
X179845420Y-131074907D01*
X179870000Y-130951335D01*
X179870000Y-130668665D01*
X179845420Y-130545093D01*
X180154619Y-130235894D01*
X180185529Y-130210527D01*
X180251391Y-130130273D01*
X180286750Y-130087189D01*
X180330138Y-130006014D01*
X180361964Y-129946472D01*
X180408281Y-129793787D01*
X180420001Y-129674790D01*
X180420001Y-129674788D01*
X180423920Y-129635000D01*
X180420001Y-129595212D01*
X180420001Y-127493665D01*
X184620000Y-127493665D01*
X184620000Y-127776335D01*
X184675147Y-128053574D01*
X184783320Y-128314727D01*
X184940363Y-128549759D01*
X185140241Y-128749637D01*
X185295001Y-128853044D01*
X185295001Y-129591956D01*
X185140241Y-129695363D01*
X184940363Y-129895241D01*
X184783320Y-130130273D01*
X184675147Y-130391426D01*
X184620000Y-130668665D01*
X184620000Y-130951335D01*
X184675147Y-131228574D01*
X184783320Y-131489727D01*
X184940363Y-131724759D01*
X185140241Y-131924637D01*
X185295000Y-132028044D01*
X185295000Y-132766956D01*
X185140241Y-132870363D01*
X184940363Y-133070241D01*
X184783320Y-133305273D01*
X184675147Y-133566426D01*
X184620000Y-133843665D01*
X184620000Y-134126335D01*
X184675147Y-134403574D01*
X184783320Y-134664727D01*
X184940363Y-134899759D01*
X185140241Y-135099637D01*
X185375273Y-135256680D01*
X185636426Y-135364853D01*
X185913665Y-135420000D01*
X186196335Y-135420000D01*
X186473574Y-135364853D01*
X186734727Y-135256680D01*
X186969759Y-135099637D01*
X187169637Y-134899759D01*
X187326680Y-134664727D01*
X187434853Y-134403574D01*
X187490000Y-134126335D01*
X187490000Y-133843665D01*
X187434853Y-133566426D01*
X187326680Y-133305273D01*
X187169637Y-133070241D01*
X186969759Y-132870363D01*
X186815000Y-132766957D01*
X186815000Y-132028043D01*
X186969759Y-131924637D01*
X187169637Y-131724759D01*
X187326680Y-131489727D01*
X187434853Y-131228574D01*
X187490000Y-130951335D01*
X187490000Y-130668665D01*
X187434853Y-130391426D01*
X187326680Y-130130273D01*
X187169637Y-129895241D01*
X186969759Y-129695363D01*
X186815000Y-129591957D01*
X186815000Y-128853043D01*
X186969759Y-128749637D01*
X187169637Y-128549759D01*
X187326680Y-128314727D01*
X187434853Y-128053574D01*
X187490000Y-127776335D01*
X187490000Y-127493665D01*
X187434853Y-127216426D01*
X187326680Y-126955273D01*
X187169637Y-126720241D01*
X186969759Y-126520363D01*
X186734727Y-126363320D01*
X186473574Y-126255147D01*
X186196335Y-126200000D01*
X185913665Y-126200000D01*
X185636426Y-126255147D01*
X185375273Y-126363320D01*
X185140241Y-126520363D01*
X184940363Y-126720241D01*
X184783320Y-126955273D01*
X184675147Y-127216426D01*
X184620000Y-127493665D01*
X180420001Y-127493665D01*
X180420001Y-122499788D01*
X180423920Y-122460000D01*
X180418774Y-122407753D01*
X180408281Y-122301213D01*
X180361964Y-122148528D01*
X180302331Y-122036962D01*
X180286750Y-122007811D01*
X180213306Y-121918320D01*
X180185529Y-121884473D01*
X180154620Y-121859107D01*
X179845420Y-121549907D01*
X179870000Y-121426335D01*
X179870000Y-121143665D01*
X179814853Y-120866426D01*
X179706680Y-120605273D01*
X179549637Y-120370241D01*
X179349759Y-120170363D01*
X179114727Y-120013320D01*
X178853574Y-119905147D01*
X178576335Y-119850000D01*
X178293665Y-119850000D01*
X178170093Y-119874580D01*
X178069999Y-119774487D01*
X178069999Y-119500509D01*
X178293665Y-119545000D01*
X178576335Y-119545000D01*
X178853574Y-119489853D01*
X179114727Y-119381680D01*
X179349759Y-119224637D01*
X179549637Y-119024759D01*
X179706680Y-118789727D01*
X179814853Y-118528574D01*
X179870000Y-118251335D01*
X179870000Y-117968665D01*
X179833688Y-117786114D01*
X180071004Y-117548798D01*
X180100002Y-117525000D01*
X180194975Y-117409275D01*
X180265547Y-117277246D01*
X180309004Y-117133985D01*
X180320001Y-117022332D01*
X180320001Y-117022324D01*
X180323677Y-116984999D01*
X180320001Y-116947674D01*
X180320001Y-109747326D01*
X180323677Y-109710001D01*
X180320001Y-109672676D01*
X180320001Y-109672668D01*
X180309004Y-109561015D01*
X180265547Y-109417754D01*
X180194975Y-109285725D01*
X180100002Y-109170000D01*
X180071005Y-109146203D01*
X179833688Y-108908886D01*
X179870000Y-108726335D01*
X179870000Y-108443665D01*
X179814853Y-108166426D01*
X179706680Y-107905273D01*
X179549637Y-107670241D01*
X179349759Y-107470363D01*
X179114727Y-107313320D01*
X178853574Y-107205147D01*
X178576335Y-107150000D01*
X178293665Y-107150000D01*
X178016426Y-107205147D01*
X177755273Y-107313320D01*
X177520241Y-107470363D01*
X177320363Y-107670241D01*
X177163320Y-107905273D01*
X177055147Y-108166426D01*
X177000000Y-108443665D01*
X177000000Y-108726335D01*
X177055147Y-109003574D01*
X177163320Y-109264727D01*
X177320363Y-109499759D01*
X177520241Y-109699637D01*
X177755273Y-109856680D01*
X178016426Y-109964853D01*
X178293665Y-110020000D01*
X178576335Y-110020000D01*
X178758886Y-109983688D01*
X178800001Y-110024803D01*
X178800001Y-110369491D01*
X178576335Y-110325000D01*
X178293665Y-110325000D01*
X178087987Y-110365912D01*
X177958788Y-110326720D01*
X177839791Y-110315000D01*
X177839788Y-110315000D01*
X177800000Y-110311081D01*
X177760212Y-110315000D01*
X165018072Y-110315000D01*
X165018072Y-110100000D01*
X165000528Y-109921868D01*
X164948569Y-109750582D01*
X164864192Y-109592724D01*
X164750639Y-109454361D01*
X164612276Y-109340808D01*
X164454418Y-109256431D01*
X164283132Y-109204472D01*
X164105000Y-109186928D01*
X163555000Y-109186928D01*
X163376868Y-109204472D01*
X163205582Y-109256431D01*
X163047724Y-109340808D01*
X162909361Y-109454361D01*
X162795808Y-109592724D01*
X162711431Y-109750582D01*
X162659472Y-109921868D01*
X162641928Y-110100000D01*
X162641928Y-111256928D01*
X162010000Y-111256928D01*
X161885518Y-111269188D01*
X161765820Y-111305498D01*
X161655506Y-111364463D01*
X161558815Y-111443815D01*
X161479463Y-111540506D01*
X161420498Y-111650820D01*
X161384188Y-111770518D01*
X161371928Y-111895000D01*
X161371928Y-113695000D01*
X161384188Y-113819482D01*
X161420498Y-113939180D01*
X161479463Y-114049494D01*
X161558815Y-114146185D01*
X161655506Y-114225537D01*
X161765820Y-114284502D01*
X161800001Y-114294871D01*
X161800001Y-114620197D01*
X161613886Y-114806312D01*
X161431335Y-114770000D01*
X161148665Y-114770000D01*
X160871426Y-114825147D01*
X160610273Y-114933320D01*
X160375241Y-115090363D01*
X160175363Y-115290241D01*
X160018320Y-115525273D01*
X159910147Y-115786426D01*
X159855000Y-116063665D01*
X159855000Y-116346335D01*
X159910147Y-116623574D01*
X160018320Y-116884727D01*
X160175363Y-117119759D01*
X160375241Y-117319637D01*
X160610273Y-117476680D01*
X160871426Y-117584853D01*
X161148665Y-117640000D01*
X161431335Y-117640000D01*
X161708574Y-117584853D01*
X161969727Y-117476680D01*
X162204759Y-117319637D01*
X162404637Y-117119759D01*
X162561680Y-116884727D01*
X162669853Y-116623574D01*
X162725000Y-116346335D01*
X162725000Y-116063665D01*
X162688688Y-115881114D01*
X163071003Y-115498799D01*
X163100001Y-115475001D01*
X163194974Y-115359276D01*
X163265546Y-115227247D01*
X163309003Y-115083986D01*
X163320000Y-114972333D01*
X163320000Y-114972324D01*
X163323676Y-114935001D01*
X163320000Y-114897678D01*
X163320000Y-114294870D01*
X163354180Y-114284502D01*
X163464494Y-114225537D01*
X163561185Y-114146185D01*
X163640537Y-114049494D01*
X163699502Y-113939180D01*
X163735812Y-113819482D01*
X163748072Y-113695000D01*
X163748072Y-112263072D01*
X163911928Y-112263072D01*
X163911928Y-113420000D01*
X163929472Y-113598132D01*
X163981431Y-113769418D01*
X164065808Y-113927276D01*
X164179361Y-114065639D01*
X164317724Y-114179192D01*
X164340001Y-114191099D01*
X164340001Y-114389668D01*
X164336324Y-114427000D01*
X164340001Y-114464333D01*
X164350998Y-114575986D01*
X164355931Y-114592247D01*
X164394454Y-114719246D01*
X164421583Y-114770000D01*
X164323665Y-114770000D01*
X164046426Y-114825147D01*
X163785273Y-114933320D01*
X163550241Y-115090363D01*
X163350363Y-115290241D01*
X163193320Y-115525273D01*
X163085147Y-115786426D01*
X163030000Y-116063665D01*
X163030000Y-116346335D01*
X163085147Y-116623574D01*
X163193320Y-116884727D01*
X163350363Y-117119759D01*
X163550241Y-117319637D01*
X163785273Y-117476680D01*
X164046426Y-117584853D01*
X164323665Y-117640000D01*
X164606335Y-117640000D01*
X164830002Y-117595509D01*
X164830001Y-122385197D01*
X164788886Y-122426312D01*
X164606335Y-122390000D01*
X164323665Y-122390000D01*
X164046426Y-122445147D01*
X163785273Y-122553320D01*
X163550241Y-122710363D01*
X163350363Y-122910241D01*
X163193320Y-123145273D01*
X163085147Y-123406426D01*
X163030000Y-123683665D01*
X163030000Y-123966335D01*
X163085147Y-124243574D01*
X163193320Y-124504727D01*
X163350363Y-124739759D01*
X163550241Y-124939637D01*
X163785273Y-125096680D01*
X164046426Y-125204853D01*
X164323665Y-125260000D01*
X164606335Y-125260000D01*
X164883574Y-125204853D01*
X165144727Y-125096680D01*
X165379759Y-124939637D01*
X165579637Y-124739759D01*
X165736680Y-124504727D01*
X165844853Y-124243574D01*
X165900000Y-123966335D01*
X165900000Y-123683665D01*
X165863688Y-123501114D01*
X166101005Y-123263797D01*
X166130002Y-123240000D01*
X166224975Y-123124275D01*
X166295547Y-122992246D01*
X166339004Y-122848985D01*
X166350001Y-122737332D01*
X166350001Y-122737324D01*
X166353677Y-122699999D01*
X166350001Y-122662674D01*
X166350001Y-116840501D01*
X166368320Y-116884727D01*
X166525363Y-117119759D01*
X166725241Y-117319637D01*
X166960273Y-117476680D01*
X167221426Y-117584853D01*
X167498665Y-117640000D01*
X167781335Y-117640000D01*
X168058574Y-117584853D01*
X168319727Y-117476680D01*
X168554759Y-117319637D01*
X168754637Y-117119759D01*
X168911680Y-116884727D01*
X169019853Y-116623574D01*
X169075000Y-116346335D01*
X169075000Y-116063665D01*
X169019853Y-115786426D01*
X168911680Y-115525273D01*
X168754637Y-115290241D01*
X168554759Y-115090363D01*
X168319727Y-114933320D01*
X168058574Y-114825147D01*
X167781335Y-114770000D01*
X167498665Y-114770000D01*
X167221426Y-114825147D01*
X166960273Y-114933320D01*
X166725241Y-115090363D01*
X166525363Y-115290241D01*
X166368320Y-115525273D01*
X166350001Y-115569499D01*
X166350001Y-114954323D01*
X166353677Y-114917000D01*
X166350001Y-114879677D01*
X166350001Y-114879668D01*
X166339004Y-114768015D01*
X166295547Y-114624754D01*
X166293770Y-114621429D01*
X166224975Y-114492724D01*
X166172411Y-114428676D01*
X166130002Y-114377000D01*
X166100998Y-114353197D01*
X165906836Y-114159035D01*
X166020639Y-114065639D01*
X166134192Y-113927276D01*
X166218569Y-113769418D01*
X166270528Y-113598132D01*
X166288072Y-113420000D01*
X166288072Y-112170000D01*
X166270528Y-111991868D01*
X166253277Y-111935000D01*
X174544052Y-111935000D01*
X174537429Y-111948996D01*
X174468700Y-112223184D01*
X174454783Y-112505512D01*
X174496213Y-112785130D01*
X174591397Y-113051292D01*
X174658329Y-113176514D01*
X174902298Y-113248097D01*
X175715395Y-112435000D01*
X175701253Y-112420858D01*
X175880858Y-112241253D01*
X175895000Y-112255395D01*
X175909143Y-112241253D01*
X176088748Y-112420858D01*
X176074605Y-112435000D01*
X176088748Y-112449143D01*
X175909143Y-112628748D01*
X175895000Y-112614605D01*
X175081903Y-113427702D01*
X175153486Y-113671671D01*
X175182341Y-113685324D01*
X174980241Y-113820363D01*
X174780363Y-114020241D01*
X174623320Y-114255273D01*
X174515147Y-114516426D01*
X174460000Y-114793665D01*
X174460000Y-115076335D01*
X174496312Y-115258886D01*
X169287998Y-120467201D01*
X169259000Y-120490999D01*
X169235202Y-120519997D01*
X169235201Y-120519998D01*
X169164026Y-120606724D01*
X169093454Y-120738754D01*
X169087054Y-120759853D01*
X169054727Y-120866426D01*
X169049998Y-120882015D01*
X169035324Y-121031000D01*
X169039001Y-121068332D01*
X169039001Y-123502687D01*
X169019853Y-123406426D01*
X168911680Y-123145273D01*
X168754637Y-122910241D01*
X168554759Y-122710363D01*
X168319727Y-122553320D01*
X168058574Y-122445147D01*
X167781335Y-122390000D01*
X167498665Y-122390000D01*
X167221426Y-122445147D01*
X166960273Y-122553320D01*
X166725241Y-122710363D01*
X166525363Y-122910241D01*
X166368320Y-123145273D01*
X166260147Y-123406426D01*
X166205000Y-123683665D01*
X166205000Y-123966335D01*
X166260147Y-124243574D01*
X166368320Y-124504727D01*
X166525363Y-124739759D01*
X166725241Y-124939637D01*
X166880000Y-125043044D01*
X166880001Y-127040199D01*
X166861607Y-127058593D01*
X166860812Y-127050518D01*
X166824502Y-126930820D01*
X166765537Y-126820506D01*
X166686185Y-126723815D01*
X166589494Y-126644463D01*
X166479180Y-126585498D01*
X166359482Y-126549188D01*
X166235000Y-126536928D01*
X166020750Y-126540000D01*
X165862000Y-126698750D01*
X165862000Y-127548000D01*
X165882000Y-127548000D01*
X165882000Y-127802000D01*
X165862000Y-127802000D01*
X165862000Y-127822000D01*
X165608000Y-127822000D01*
X165608000Y-127802000D01*
X164758750Y-127802000D01*
X164600000Y-127960750D01*
X164596928Y-128175000D01*
X164609188Y-128299482D01*
X164645498Y-128419180D01*
X164704463Y-128529494D01*
X164783815Y-128626185D01*
X164880506Y-128705537D01*
X164990820Y-128764502D01*
X165110518Y-128800812D01*
X165127321Y-128802467D01*
X165100026Y-128835726D01*
X165079566Y-128874004D01*
X165029454Y-128967756D01*
X164994034Y-129084523D01*
X164990820Y-129085498D01*
X164880506Y-129144463D01*
X164783815Y-129223815D01*
X164704463Y-129320506D01*
X164645498Y-129430820D01*
X164609188Y-129550518D01*
X164596928Y-129675000D01*
X164596928Y-130675000D01*
X164609188Y-130799482D01*
X164645498Y-130919180D01*
X164704463Y-131029494D01*
X164783815Y-131126185D01*
X164880506Y-131205537D01*
X164975000Y-131256046D01*
X164975001Y-132753868D01*
X164971324Y-132791200D01*
X164975001Y-132828533D01*
X164975048Y-132829005D01*
X164985998Y-132940185D01*
X165029454Y-133083446D01*
X165100026Y-133215476D01*
X165136840Y-133260333D01*
X165195000Y-133331201D01*
X165223998Y-133354999D01*
X166840001Y-134971003D01*
X166840000Y-138441687D01*
X166621495Y-138587688D01*
X166407688Y-138801495D01*
X166239701Y-139052905D01*
X166123989Y-139332257D01*
X166065000Y-139628816D01*
X166065000Y-139931184D01*
X166123989Y-140227743D01*
X166239701Y-140507095D01*
X166407688Y-140758505D01*
X166621495Y-140972312D01*
X166872905Y-141140299D01*
X167152257Y-141256011D01*
X167448816Y-141315000D01*
X167490198Y-141315000D01*
X165508930Y-143296269D01*
X165251184Y-143245000D01*
X164948816Y-143245000D01*
X164652257Y-143303989D01*
X164372905Y-143419701D01*
X164121495Y-143587688D01*
X163907688Y-143801495D01*
X163739701Y-144052905D01*
X163708948Y-144127149D01*
X163320000Y-143738201D01*
X163320000Y-138344080D01*
X164215525Y-138344080D01*
X164299208Y-138598261D01*
X164571775Y-138729158D01*
X164864642Y-138804365D01*
X165166553Y-138820991D01*
X165465907Y-138778397D01*
X165751199Y-138678222D01*
X165900792Y-138598261D01*
X165984475Y-138344080D01*
X165100000Y-137459605D01*
X164215525Y-138344080D01*
X163320000Y-138344080D01*
X163320000Y-137346553D01*
X163559009Y-137346553D01*
X163601603Y-137645907D01*
X163701778Y-137931199D01*
X163781739Y-138080792D01*
X164035920Y-138164475D01*
X164920395Y-137280000D01*
X165279605Y-137280000D01*
X166164080Y-138164475D01*
X166418261Y-138080792D01*
X166549158Y-137808225D01*
X166624365Y-137515358D01*
X166640991Y-137213447D01*
X166598397Y-136914093D01*
X166498222Y-136628801D01*
X166418261Y-136479208D01*
X166164080Y-136395525D01*
X165279605Y-137280000D01*
X164920395Y-137280000D01*
X164035920Y-136395525D01*
X163781739Y-136479208D01*
X163650842Y-136751775D01*
X163575635Y-137044642D01*
X163559009Y-137346553D01*
X163320000Y-137346553D01*
X163320000Y-136215920D01*
X164215525Y-136215920D01*
X165100000Y-137100395D01*
X165984475Y-136215920D01*
X165900792Y-135961739D01*
X165628225Y-135830842D01*
X165335358Y-135755635D01*
X165033447Y-135739009D01*
X164734093Y-135781603D01*
X164448801Y-135881778D01*
X164299208Y-135961739D01*
X164215525Y-136215920D01*
X163320000Y-136215920D01*
X163320000Y-131256046D01*
X163414494Y-131205537D01*
X163511185Y-131126185D01*
X163590537Y-131029494D01*
X163649502Y-130919180D01*
X163685812Y-130799482D01*
X163698072Y-130675000D01*
X163698072Y-129675000D01*
X163685812Y-129550518D01*
X163649502Y-129430820D01*
X163590537Y-129320506D01*
X163511185Y-129223815D01*
X163414494Y-129144463D01*
X163304180Y-129085498D01*
X163184482Y-129049188D01*
X163060000Y-129036928D01*
X162496730Y-129036928D01*
X162269864Y-128810063D01*
X162274250Y-128810000D01*
X162433000Y-128651250D01*
X162433000Y-127802000D01*
X162687000Y-127802000D01*
X162687000Y-128651250D01*
X162845750Y-128810000D01*
X163060000Y-128813072D01*
X163184482Y-128800812D01*
X163304180Y-128764502D01*
X163414494Y-128705537D01*
X163511185Y-128626185D01*
X163590537Y-128529494D01*
X163649502Y-128419180D01*
X163685812Y-128299482D01*
X163698072Y-128175000D01*
X163695000Y-127960750D01*
X163536250Y-127802000D01*
X162687000Y-127802000D01*
X162433000Y-127802000D01*
X162413000Y-127802000D01*
X162413000Y-127548000D01*
X162433000Y-127548000D01*
X162433000Y-126698750D01*
X162687000Y-126698750D01*
X162687000Y-127548000D01*
X163536250Y-127548000D01*
X163695000Y-127389250D01*
X163698072Y-127175000D01*
X164596928Y-127175000D01*
X164600000Y-127389250D01*
X164758750Y-127548000D01*
X165608000Y-127548000D01*
X165608000Y-126698750D01*
X165449250Y-126540000D01*
X165235000Y-126536928D01*
X165110518Y-126549188D01*
X164990820Y-126585498D01*
X164880506Y-126644463D01*
X164783815Y-126723815D01*
X164704463Y-126820506D01*
X164645498Y-126930820D01*
X164609188Y-127050518D01*
X164596928Y-127175000D01*
X163698072Y-127175000D01*
X163685812Y-127050518D01*
X163649502Y-126930820D01*
X163590537Y-126820506D01*
X163511185Y-126723815D01*
X163414494Y-126644463D01*
X163304180Y-126585498D01*
X163184482Y-126549188D01*
X163060000Y-126536928D01*
X162845750Y-126540000D01*
X162687000Y-126698750D01*
X162433000Y-126698750D01*
X162274250Y-126540000D01*
X162060000Y-126536928D01*
X162050000Y-126537913D01*
X162050000Y-125043043D01*
X162204759Y-124939637D01*
X162404637Y-124739759D01*
X162561680Y-124504727D01*
X162669853Y-124243574D01*
X162725000Y-123966335D01*
X162725000Y-123683665D01*
X162669853Y-123406426D01*
X162561680Y-123145273D01*
X162404637Y-122910241D01*
X162204759Y-122710363D01*
X161969727Y-122553320D01*
X161708574Y-122445147D01*
X161431335Y-122390000D01*
X161148665Y-122390000D01*
X160871426Y-122445147D01*
X160610273Y-122553320D01*
X160375241Y-122710363D01*
X160175363Y-122910241D01*
X160071957Y-123065000D01*
X159333043Y-123065000D01*
X159229637Y-122910241D01*
X159029759Y-122710363D01*
X158794727Y-122553320D01*
X158533574Y-122445147D01*
X158256335Y-122390000D01*
X157973665Y-122390000D01*
X157696426Y-122445147D01*
X157435273Y-122553320D01*
X157200241Y-122710363D01*
X157000363Y-122910241D01*
X156843320Y-123145273D01*
X156735147Y-123406426D01*
X156680000Y-123683665D01*
X156680000Y-123966335D01*
X156735147Y-124243574D01*
X156843320Y-124504727D01*
X157000363Y-124739759D01*
X157200241Y-124939637D01*
X157435273Y-125096680D01*
X157696426Y-125204853D01*
X157973665Y-125260000D01*
X158256335Y-125260000D01*
X158533574Y-125204853D01*
X158794727Y-125096680D01*
X159029759Y-124939637D01*
X159229637Y-124739759D01*
X159333043Y-124585000D01*
X160071957Y-124585000D01*
X160175363Y-124739759D01*
X160375241Y-124939637D01*
X160530000Y-125043044D01*
X160530001Y-128867668D01*
X160526324Y-128905000D01*
X160530001Y-128942333D01*
X160540526Y-129049188D01*
X160540998Y-129053985D01*
X160584454Y-129197246D01*
X160655026Y-129329276D01*
X160711973Y-129398665D01*
X160750000Y-129445001D01*
X160778998Y-129468799D01*
X161421928Y-130111730D01*
X161421928Y-130675000D01*
X161434188Y-130799482D01*
X161470498Y-130919180D01*
X161529463Y-131029494D01*
X161608815Y-131126185D01*
X161705506Y-131205537D01*
X161800001Y-131256046D01*
X161800000Y-144015680D01*
X161796324Y-144053002D01*
X161800000Y-144090324D01*
X161800000Y-144090334D01*
X161810997Y-144201987D01*
X161841877Y-144303787D01*
X161854454Y-144345248D01*
X161925026Y-144477278D01*
X161933623Y-144487753D01*
X162019999Y-144593003D01*
X162049002Y-144616806D01*
X163948204Y-146516009D01*
X163971998Y-146545002D01*
X164000991Y-146568796D01*
X164000995Y-146568800D01*
X164063248Y-146619889D01*
X164087723Y-146639975D01*
X164219752Y-146710547D01*
X164363013Y-146754004D01*
X164474666Y-146765001D01*
X164474675Y-146765001D01*
X164511998Y-146768677D01*
X164549321Y-146765001D01*
X168837677Y-146765001D01*
X168874999Y-146768677D01*
X168912321Y-146765001D01*
X168912332Y-146765001D01*
X169023985Y-146754004D01*
X169167246Y-146710547D01*
X169299275Y-146639975D01*
X169415000Y-146545002D01*
X169438803Y-146515998D01*
X169691070Y-146263731D01*
X169948816Y-146315000D01*
X169990198Y-146315000D01*
X168008930Y-148296269D01*
X167751184Y-148245000D01*
X167448816Y-148245000D01*
X167152257Y-148303989D01*
X166872905Y-148419701D01*
X166621495Y-148587688D01*
X166407688Y-148801495D01*
X166239701Y-149052905D01*
X166123989Y-149332257D01*
X166065000Y-149628816D01*
X166065000Y-149931184D01*
X166123989Y-150227743D01*
X166239701Y-150507095D01*
X166407688Y-150758505D01*
X166621495Y-150972312D01*
X166872905Y-151140299D01*
X167152257Y-151256011D01*
X167448816Y-151315000D01*
X167751184Y-151315000D01*
X168047743Y-151256011D01*
X168327095Y-151140299D01*
X168578505Y-150972312D01*
X168792312Y-150758505D01*
X168960299Y-150507095D01*
X169076011Y-150227743D01*
X169135000Y-149931184D01*
X169135000Y-149628816D01*
X169083731Y-149371070D01*
X172596003Y-145858799D01*
X172625001Y-145835001D01*
X172719974Y-145719276D01*
X172790546Y-145587247D01*
X172834003Y-145443986D01*
X172845000Y-145332333D01*
X172845000Y-145332323D01*
X172848676Y-145295000D01*
X172845000Y-145257677D01*
X172845000Y-131555512D01*
X174454783Y-131555512D01*
X174496213Y-131835130D01*
X174591397Y-132101292D01*
X174658329Y-132226514D01*
X174902298Y-132298097D01*
X175715395Y-131485000D01*
X174902298Y-130671903D01*
X174658329Y-130743486D01*
X174537429Y-130998996D01*
X174468700Y-131273184D01*
X174454783Y-131555512D01*
X172845000Y-131555512D01*
X172845000Y-131236046D01*
X172939494Y-131185537D01*
X173036185Y-131106185D01*
X173115537Y-131009494D01*
X173174502Y-130899180D01*
X173210812Y-130779482D01*
X173223072Y-130655000D01*
X173223072Y-130492298D01*
X175081903Y-130492298D01*
X175895000Y-131305395D01*
X176708097Y-130492298D01*
X176636514Y-130248329D01*
X176381004Y-130127429D01*
X176106816Y-130058700D01*
X175824488Y-130044783D01*
X175544870Y-130086213D01*
X175278708Y-130181397D01*
X175153486Y-130248329D01*
X175081903Y-130492298D01*
X173223072Y-130492298D01*
X173223072Y-130091729D01*
X176406003Y-126908799D01*
X176435001Y-126885001D01*
X176529974Y-126769276D01*
X176600546Y-126637247D01*
X176644003Y-126493986D01*
X176655000Y-126382333D01*
X176655000Y-126382325D01*
X176658676Y-126345000D01*
X176655000Y-126307675D01*
X176655000Y-125678043D01*
X176809759Y-125574637D01*
X177009637Y-125374759D01*
X177113043Y-125220000D01*
X177216957Y-125220000D01*
X177320363Y-125374759D01*
X177520241Y-125574637D01*
X177755273Y-125731680D01*
X178016426Y-125839853D01*
X178293665Y-125895000D01*
X178576335Y-125895000D01*
X178800001Y-125850509D01*
X178800002Y-126244491D01*
X178576335Y-126200000D01*
X178293665Y-126200000D01*
X178016426Y-126255147D01*
X177755273Y-126363320D01*
X177520241Y-126520363D01*
X177320363Y-126720241D01*
X177163320Y-126955273D01*
X177055147Y-127216426D01*
X177000000Y-127493665D01*
X177000000Y-127776335D01*
X177055147Y-128053574D01*
X177163320Y-128314727D01*
X177320363Y-128549759D01*
X177520241Y-128749637D01*
X177755273Y-128906680D01*
X178016426Y-129014853D01*
X178293665Y-129070000D01*
X178576335Y-129070000D01*
X178800002Y-129025509D01*
X178800002Y-129299485D01*
X178699907Y-129399580D01*
X178576335Y-129375000D01*
X178293665Y-129375000D01*
X178016426Y-129430147D01*
X177755273Y-129538320D01*
X177520241Y-129695363D01*
X177320363Y-129895241D01*
X177163320Y-130130273D01*
X177055147Y-130391426D01*
X177000000Y-130668665D01*
X177000000Y-130704852D01*
X176887702Y-130671903D01*
X176074605Y-131485000D01*
X176887702Y-132298097D01*
X177131671Y-132226514D01*
X177252571Y-131971004D01*
X177315951Y-131718156D01*
X177320363Y-131724759D01*
X177520241Y-131924637D01*
X177755273Y-132081680D01*
X178016426Y-132189853D01*
X178293665Y-132245000D01*
X178576335Y-132245000D01*
X178699907Y-132220420D01*
X181562001Y-135082514D01*
X181562000Y-141692212D01*
X181558081Y-141732000D01*
X181562000Y-141771788D01*
X181562000Y-141771790D01*
X181573720Y-141890787D01*
X181620037Y-142043472D01*
X181620038Y-142043473D01*
X181695251Y-142184189D01*
X181716014Y-142209488D01*
X181796472Y-142307528D01*
X181827388Y-142332900D01*
X183981928Y-144487441D01*
X183981928Y-145580000D01*
X183994188Y-145704482D01*
X184030498Y-145824180D01*
X184089463Y-145934494D01*
X184168815Y-146031185D01*
X184265506Y-146110537D01*
X184375820Y-146169502D01*
X184495518Y-146205812D01*
X184620000Y-146218072D01*
X185245001Y-146218072D01*
X185245000Y-151215365D01*
X185140241Y-151285363D01*
X184940363Y-151485241D01*
X184783320Y-151720273D01*
X184675147Y-151981426D01*
X184620000Y-152258665D01*
X184620000Y-152541335D01*
X184675147Y-152818574D01*
X184783320Y-153079727D01*
X184940363Y-153314759D01*
X185140241Y-153514637D01*
X185375273Y-153671680D01*
X185636426Y-153779853D01*
X185913665Y-153835000D01*
X186196335Y-153835000D01*
X186319907Y-153810420D01*
X192610393Y-160100906D01*
X192570000Y-160096928D01*
X190970000Y-160096928D01*
X190845518Y-160109188D01*
X190725820Y-160145498D01*
X190615506Y-160204463D01*
X190518815Y-160283815D01*
X190500000Y-160306741D01*
X190481185Y-160283815D01*
X190384494Y-160204463D01*
X190274180Y-160145498D01*
X190154482Y-160109188D01*
X190030000Y-160096928D01*
X188430000Y-160096928D01*
X188305518Y-160109188D01*
X188185820Y-160145498D01*
X188075506Y-160204463D01*
X187978815Y-160283815D01*
X187960000Y-160306741D01*
X187941185Y-160283815D01*
X187844494Y-160204463D01*
X187734180Y-160145498D01*
X187614482Y-160109188D01*
X187490000Y-160096928D01*
X185890000Y-160096928D01*
X185765518Y-160109188D01*
X185645820Y-160145498D01*
X185535506Y-160204463D01*
X185438815Y-160283815D01*
X185420000Y-160306741D01*
X185401185Y-160283815D01*
X185304494Y-160204463D01*
X185194180Y-160145498D01*
X185074482Y-160109188D01*
X184950000Y-160096928D01*
X183350000Y-160096928D01*
X183225518Y-160109188D01*
X183105820Y-160145498D01*
X182995506Y-160204463D01*
X182898815Y-160283815D01*
X182880000Y-160306741D01*
X182861185Y-160283815D01*
X182764494Y-160204463D01*
X182654180Y-160145498D01*
X182534482Y-160109188D01*
X182410000Y-160096928D01*
X180810000Y-160096928D01*
X180685518Y-160109188D01*
X180565820Y-160145498D01*
X180455506Y-160204463D01*
X180358815Y-160283815D01*
X180340000Y-160306741D01*
X180321185Y-160283815D01*
X180224494Y-160204463D01*
X180114180Y-160145498D01*
X179994482Y-160109188D01*
X179870000Y-160096928D01*
X178270000Y-160096928D01*
X178145518Y-160109188D01*
X178025820Y-160145498D01*
X177915506Y-160204463D01*
X177818815Y-160283815D01*
X177800000Y-160306741D01*
X177781185Y-160283815D01*
X177684494Y-160204463D01*
X177574180Y-160145498D01*
X177454482Y-160109188D01*
X177330000Y-160096928D01*
X175730000Y-160096928D01*
X175605518Y-160109188D01*
X175485820Y-160145498D01*
X175375506Y-160204463D01*
X175278815Y-160283815D01*
X175260000Y-160306741D01*
X175241185Y-160283815D01*
X175144494Y-160204463D01*
X175034180Y-160145498D01*
X174914482Y-160109188D01*
X174790000Y-160096928D01*
X173190000Y-160096928D01*
X173065518Y-160109188D01*
X172945820Y-160145498D01*
X172835506Y-160204463D01*
X172738815Y-160283815D01*
X172720000Y-160306741D01*
X172701185Y-160283815D01*
X172604494Y-160204463D01*
X172494180Y-160145498D01*
X172374482Y-160109188D01*
X172250000Y-160096928D01*
X170650000Y-160096928D01*
X170525518Y-160109188D01*
X170405820Y-160145498D01*
X170295506Y-160204463D01*
X170198815Y-160283815D01*
X170180000Y-160306741D01*
X170161185Y-160283815D01*
X170064494Y-160204463D01*
X169954180Y-160145498D01*
X169834482Y-160109188D01*
X169710000Y-160096928D01*
X168110000Y-160096928D01*
X167985518Y-160109188D01*
X167865820Y-160145498D01*
X167755506Y-160204463D01*
X167658815Y-160283815D01*
X167640000Y-160306741D01*
X167621185Y-160283815D01*
X167524494Y-160204463D01*
X167414180Y-160145498D01*
X167294482Y-160109188D01*
X167170000Y-160096928D01*
X165570000Y-160096928D01*
X165445518Y-160109188D01*
X165325820Y-160145498D01*
X165215506Y-160204463D01*
X165118815Y-160283815D01*
X165100000Y-160306741D01*
X165081185Y-160283815D01*
X164984494Y-160204463D01*
X164874180Y-160145498D01*
X164754482Y-160109188D01*
X164630000Y-160096928D01*
X164590000Y-160096928D01*
X164590000Y-159224049D01*
X164653889Y-159197586D01*
X164807028Y-159095262D01*
X164937262Y-158965028D01*
X165039586Y-158811889D01*
X165110068Y-158641729D01*
X165146000Y-158461089D01*
X165146000Y-158276911D01*
X165110068Y-158096271D01*
X165039586Y-157926111D01*
X164937262Y-157772972D01*
X164807028Y-157642738D01*
X164653889Y-157540414D01*
X164483729Y-157469932D01*
X164303089Y-157434000D01*
X164118911Y-157434000D01*
X163938271Y-157469932D01*
X163768111Y-157540414D01*
X163614972Y-157642738D01*
X163484738Y-157772972D01*
X163382414Y-157926111D01*
X163311932Y-158096271D01*
X163289089Y-158211107D01*
X163241207Y-158269453D01*
X163195026Y-158325724D01*
X163128600Y-158449998D01*
X163124454Y-158457754D01*
X163080997Y-158601015D01*
X163070000Y-158712668D01*
X163070000Y-158712678D01*
X163066324Y-158750000D01*
X163070000Y-158787323D01*
X163070000Y-160096928D01*
X163030000Y-160096928D01*
X162905518Y-160109188D01*
X162785820Y-160145498D01*
X162675506Y-160204463D01*
X162578815Y-160283815D01*
X162560000Y-160306741D01*
X162541185Y-160283815D01*
X162444494Y-160204463D01*
X162334180Y-160145498D01*
X162214482Y-160109188D01*
X162090000Y-160096928D01*
X160490000Y-160096928D01*
X160365518Y-160109188D01*
X160245820Y-160145498D01*
X160135506Y-160204463D01*
X160038815Y-160283815D01*
X160020000Y-160306741D01*
X160001185Y-160283815D01*
X159904494Y-160204463D01*
X159794180Y-160145498D01*
X159674482Y-160109188D01*
X159550000Y-160096928D01*
X157950000Y-160096928D01*
X157825518Y-160109188D01*
X157705820Y-160145498D01*
X157595506Y-160204463D01*
X157498815Y-160283815D01*
X157419463Y-160380506D01*
X157360498Y-160490820D01*
X157349220Y-160528000D01*
X157165464Y-160528000D01*
X157144172Y-160325417D01*
X157131236Y-160262399D01*
X157119174Y-160199167D01*
X157116308Y-160189677D01*
X157043013Y-159952901D01*
X157018084Y-159893597D01*
X156993971Y-159833915D01*
X156989317Y-159825163D01*
X156871429Y-159607133D01*
X156835459Y-159553805D01*
X156800207Y-159499935D01*
X156793941Y-159492253D01*
X156635949Y-159301273D01*
X156590294Y-159255936D01*
X156545264Y-159209953D01*
X156537626Y-159203634D01*
X156345548Y-159046979D01*
X156291959Y-159011375D01*
X156238850Y-158975011D01*
X156230130Y-158970296D01*
X156011283Y-158853934D01*
X155951792Y-158829413D01*
X155892643Y-158804062D01*
X155883173Y-158801131D01*
X155883175Y-158801131D01*
X155883167Y-158801129D01*
X155645892Y-158729491D01*
X155582795Y-158716997D01*
X155519821Y-158703612D01*
X155509966Y-158702576D01*
X155509962Y-158702576D01*
X155264014Y-158678461D01*
X155228877Y-158675000D01*
X154974720Y-158675000D01*
X154831891Y-158660995D01*
X154727901Y-158629599D01*
X154631987Y-158578601D01*
X154547801Y-158509941D01*
X154478561Y-158426243D01*
X154426895Y-158330689D01*
X154394773Y-158226922D01*
X154380000Y-158086359D01*
X154380000Y-152128816D01*
X163565000Y-152128816D01*
X163565000Y-152431184D01*
X163623989Y-152727743D01*
X163739701Y-153007095D01*
X163907688Y-153258505D01*
X164121495Y-153472312D01*
X164372905Y-153640299D01*
X164652257Y-153756011D01*
X164948816Y-153815000D01*
X165251184Y-153815000D01*
X165547743Y-153756011D01*
X165827095Y-153640299D01*
X166078505Y-153472312D01*
X166292312Y-153258505D01*
X166438313Y-153040000D01*
X168484678Y-153040000D01*
X168522000Y-153043676D01*
X168559322Y-153040000D01*
X168559333Y-153040000D01*
X168670986Y-153029003D01*
X168814247Y-152985546D01*
X168946276Y-152914974D01*
X169062001Y-152820001D01*
X169085804Y-152790997D01*
X176406004Y-145470798D01*
X176435001Y-145447001D01*
X176529974Y-145331276D01*
X176573749Y-145249381D01*
X176565000Y-145293363D01*
X176565000Y-145536637D01*
X176571398Y-145568801D01*
X176363988Y-145776211D01*
X176334990Y-145800009D01*
X176311192Y-145829007D01*
X176311191Y-145829008D01*
X176240016Y-145915734D01*
X176169444Y-146047764D01*
X176166134Y-146058677D01*
X176125988Y-146191024D01*
X176123796Y-146213279D01*
X176111314Y-146340010D01*
X176114991Y-146377342D01*
X176114990Y-150802667D01*
X176111314Y-150839990D01*
X176114990Y-150877312D01*
X176114990Y-150877322D01*
X176125987Y-150988975D01*
X176143369Y-151046276D01*
X176169444Y-151132236D01*
X176240016Y-151264266D01*
X176279462Y-151312331D01*
X176334989Y-151379991D01*
X176363993Y-151403794D01*
X177036312Y-152076114D01*
X177000000Y-152258665D01*
X177000000Y-152541335D01*
X177055147Y-152818574D01*
X177163320Y-153079727D01*
X177320363Y-153314759D01*
X177520241Y-153514637D01*
X177675000Y-153618044D01*
X177675001Y-154356956D01*
X177520241Y-154460363D01*
X177320363Y-154660241D01*
X177163320Y-154895273D01*
X177055147Y-155156426D01*
X177000000Y-155433665D01*
X177000000Y-155716335D01*
X177055147Y-155993574D01*
X177163320Y-156254727D01*
X177320363Y-156489759D01*
X177520241Y-156689637D01*
X177755273Y-156846680D01*
X178016426Y-156954853D01*
X178293665Y-157010000D01*
X178576335Y-157010000D01*
X178853574Y-156954853D01*
X179114727Y-156846680D01*
X179349759Y-156689637D01*
X179549637Y-156489759D01*
X179706680Y-156254727D01*
X179814853Y-155993574D01*
X179870000Y-155716335D01*
X179870000Y-155433665D01*
X184620000Y-155433665D01*
X184620000Y-155716335D01*
X184675147Y-155993574D01*
X184783320Y-156254727D01*
X184940363Y-156489759D01*
X185140241Y-156689637D01*
X185375273Y-156846680D01*
X185636426Y-156954853D01*
X185913665Y-157010000D01*
X186196335Y-157010000D01*
X186473574Y-156954853D01*
X186734727Y-156846680D01*
X186969759Y-156689637D01*
X187169637Y-156489759D01*
X187326680Y-156254727D01*
X187434853Y-155993574D01*
X187490000Y-155716335D01*
X187490000Y-155433665D01*
X187434853Y-155156426D01*
X187326680Y-154895273D01*
X187169637Y-154660241D01*
X186969759Y-154460363D01*
X186734727Y-154303320D01*
X186473574Y-154195147D01*
X186196335Y-154140000D01*
X185913665Y-154140000D01*
X185636426Y-154195147D01*
X185375273Y-154303320D01*
X185140241Y-154460363D01*
X184940363Y-154660241D01*
X184783320Y-154895273D01*
X184675147Y-155156426D01*
X184620000Y-155433665D01*
X179870000Y-155433665D01*
X179814853Y-155156426D01*
X179706680Y-154895273D01*
X179549637Y-154660241D01*
X179349759Y-154460363D01*
X179195000Y-154356957D01*
X179195000Y-153618043D01*
X179349759Y-153514637D01*
X179549637Y-153314759D01*
X179706680Y-153079727D01*
X179814853Y-152818574D01*
X179870000Y-152541335D01*
X179870000Y-152258665D01*
X179814853Y-151981426D01*
X179706680Y-151720273D01*
X179549637Y-151485241D01*
X179349759Y-151285363D01*
X179114727Y-151128320D01*
X178853574Y-151020147D01*
X178576335Y-150965000D01*
X178293665Y-150965000D01*
X178111114Y-151001312D01*
X177634990Y-150525189D01*
X177634990Y-149248604D01*
X177673000Y-149223731D01*
X177673000Y-148082000D01*
X177927000Y-148082000D01*
X177927000Y-149223731D01*
X178117609Y-149348462D01*
X178160162Y-149342477D01*
X178384907Y-149249396D01*
X178587174Y-149114258D01*
X178759191Y-148942256D01*
X178894346Y-148740000D01*
X178987446Y-148515263D01*
X179034913Y-148276681D01*
X178879994Y-148082000D01*
X177927000Y-148082000D01*
X177673000Y-148082000D01*
X177653000Y-148082000D01*
X177653000Y-147828000D01*
X177673000Y-147828000D01*
X177673000Y-147808000D01*
X177927000Y-147808000D01*
X177927000Y-147828000D01*
X178602235Y-147828000D01*
X178709764Y-147872540D01*
X178948363Y-147920000D01*
X179191637Y-147920000D01*
X179430236Y-147872540D01*
X179654992Y-147779443D01*
X179857267Y-147644287D01*
X180029287Y-147472267D01*
X180164443Y-147269992D01*
X180257540Y-147045236D01*
X180305000Y-146806637D01*
X180305000Y-146563363D01*
X180257540Y-146324764D01*
X180164443Y-146100008D01*
X180029287Y-145897733D01*
X179857267Y-145725713D01*
X179654992Y-145590557D01*
X179430236Y-145497460D01*
X179191637Y-145450000D01*
X179035000Y-145450000D01*
X179035000Y-145293363D01*
X178987540Y-145054764D01*
X178894443Y-144830008D01*
X178759287Y-144627733D01*
X178587267Y-144455713D01*
X178384992Y-144320557D01*
X178160236Y-144227460D01*
X177921637Y-144180000D01*
X177678363Y-144180000D01*
X177439764Y-144227460D01*
X177215008Y-144320557D01*
X177012733Y-144455713D01*
X176840713Y-144627733D01*
X176705557Y-144830008D01*
X176654001Y-144954475D01*
X176655000Y-144944333D01*
X176655000Y-144944332D01*
X176658677Y-144907000D01*
X176655000Y-144869667D01*
X176655000Y-141560465D01*
X176664003Y-141530786D01*
X176675000Y-141419133D01*
X176675000Y-141419123D01*
X176678676Y-141381801D01*
X176675000Y-141344478D01*
X176675000Y-140146046D01*
X176769494Y-140095537D01*
X176866185Y-140016185D01*
X176945537Y-139919494D01*
X177004502Y-139809180D01*
X177040812Y-139689482D01*
X177053072Y-139565000D01*
X177276928Y-139565000D01*
X177289188Y-139689482D01*
X177325498Y-139809180D01*
X177384463Y-139919494D01*
X177463815Y-140016185D01*
X177560506Y-140095537D01*
X177670820Y-140154502D01*
X177790518Y-140190812D01*
X177915000Y-140203072D01*
X178129250Y-140200000D01*
X178288000Y-140041250D01*
X178288000Y-139192000D01*
X178542000Y-139192000D01*
X178542000Y-140041250D01*
X178700750Y-140200000D01*
X178915000Y-140203072D01*
X179039482Y-140190812D01*
X179159180Y-140154502D01*
X179269494Y-140095537D01*
X179366185Y-140016185D01*
X179445537Y-139919494D01*
X179504502Y-139809180D01*
X179540812Y-139689482D01*
X179553072Y-139565000D01*
X179550000Y-139350750D01*
X179391250Y-139192000D01*
X178542000Y-139192000D01*
X178288000Y-139192000D01*
X177438750Y-139192000D01*
X177280000Y-139350750D01*
X177276928Y-139565000D01*
X177053072Y-139565000D01*
X177053072Y-138565000D01*
X177276928Y-138565000D01*
X177280000Y-138779250D01*
X177438750Y-138938000D01*
X178288000Y-138938000D01*
X178288000Y-138088750D01*
X178542000Y-138088750D01*
X178542000Y-138938000D01*
X179391250Y-138938000D01*
X179550000Y-138779250D01*
X179553072Y-138565000D01*
X179540812Y-138440518D01*
X179504502Y-138320820D01*
X179445537Y-138210506D01*
X179366185Y-138113815D01*
X179269494Y-138034463D01*
X179159180Y-137975498D01*
X179039482Y-137939188D01*
X178915000Y-137926928D01*
X178700750Y-137930000D01*
X178542000Y-138088750D01*
X178288000Y-138088750D01*
X178129250Y-137930000D01*
X177915000Y-137926928D01*
X177790518Y-137939188D01*
X177670820Y-137975498D01*
X177560506Y-138034463D01*
X177463815Y-138113815D01*
X177384463Y-138210506D01*
X177325498Y-138320820D01*
X177289188Y-138440518D01*
X177276928Y-138565000D01*
X177053072Y-138565000D01*
X177040812Y-138440518D01*
X177004502Y-138320820D01*
X176945537Y-138210506D01*
X176866185Y-138113815D01*
X176769494Y-138034463D01*
X176675000Y-137983954D01*
X176675000Y-135189680D01*
X176809759Y-135099637D01*
X177009637Y-134899759D01*
X177113043Y-134745000D01*
X177216957Y-134745000D01*
X177320363Y-134899759D01*
X177520241Y-135099637D01*
X177755273Y-135256680D01*
X178016426Y-135364853D01*
X178293665Y-135420000D01*
X178576335Y-135420000D01*
X178853574Y-135364853D01*
X179114727Y-135256680D01*
X179349759Y-135099637D01*
X179549637Y-134899759D01*
X179706680Y-134664727D01*
X179814853Y-134403574D01*
X179870000Y-134126335D01*
X179870000Y-133843665D01*
X179814853Y-133566426D01*
X179706680Y-133305273D01*
X179549637Y-133070241D01*
X179349759Y-132870363D01*
X179114727Y-132713320D01*
X178853574Y-132605147D01*
X178576335Y-132550000D01*
X178293665Y-132550000D01*
X178016426Y-132605147D01*
X177755273Y-132713320D01*
X177520241Y-132870363D01*
X177320363Y-133070241D01*
X177216957Y-133225000D01*
X177113043Y-133225000D01*
X177009637Y-133070241D01*
X176809759Y-132870363D01*
X176609131Y-132736308D01*
X176636514Y-132721671D01*
X176708097Y-132477702D01*
X175895000Y-131664605D01*
X175081903Y-132477702D01*
X175153486Y-132721671D01*
X175182341Y-132735324D01*
X174980241Y-132870363D01*
X174780363Y-133070241D01*
X174623320Y-133305273D01*
X174515147Y-133566426D01*
X174460000Y-133843665D01*
X174460000Y-134126335D01*
X174515147Y-134403574D01*
X174623320Y-134664727D01*
X174780363Y-134899759D01*
X174980241Y-135099637D01*
X175135001Y-135203044D01*
X175135000Y-137994644D01*
X175060506Y-138034463D01*
X174963815Y-138113815D01*
X174884463Y-138210506D01*
X174825498Y-138320820D01*
X174789188Y-138440518D01*
X174776928Y-138565000D01*
X174776928Y-139565000D01*
X174789188Y-139689482D01*
X174825498Y-139809180D01*
X174884463Y-139919494D01*
X174963815Y-140016185D01*
X175060506Y-140095537D01*
X175135000Y-140135356D01*
X175135000Y-141364478D01*
X175131324Y-141401800D01*
X175135000Y-141439122D01*
X175135000Y-141439132D01*
X175135001Y-141439142D01*
X175135000Y-144592198D01*
X168207199Y-151520000D01*
X166438313Y-151520000D01*
X166292312Y-151301495D01*
X166078505Y-151087688D01*
X165827095Y-150919701D01*
X165547743Y-150803989D01*
X165251184Y-150745000D01*
X164948816Y-150745000D01*
X164652257Y-150803989D01*
X164372905Y-150919701D01*
X164121495Y-151087688D01*
X163907688Y-151301495D01*
X163739701Y-151552905D01*
X163623989Y-151832257D01*
X163565000Y-152128816D01*
X154380000Y-152128816D01*
X154380000Y-148859382D01*
X154487384Y-148912216D01*
X154817585Y-149000369D01*
X155158639Y-149022409D01*
X155497439Y-148977489D01*
X155820966Y-148867336D01*
X156019274Y-148761338D01*
X156127107Y-148486712D01*
X155100000Y-147459605D01*
X155085858Y-147473748D01*
X154906253Y-147294143D01*
X154920395Y-147280000D01*
X155279605Y-147280000D01*
X156306712Y-148307107D01*
X156581338Y-148199274D01*
X156732216Y-147892616D01*
X156820369Y-147562415D01*
X156842409Y-147221361D01*
X156797489Y-146882561D01*
X156687336Y-146559034D01*
X156581338Y-146360726D01*
X156306712Y-146252893D01*
X155279605Y-147280000D01*
X154920395Y-147280000D01*
X154906253Y-147265858D01*
X155085858Y-147086253D01*
X155100000Y-147100395D01*
X156127107Y-146073288D01*
X156019274Y-145798662D01*
X155712616Y-145647784D01*
X155382415Y-145559631D01*
X155041361Y-145537591D01*
X154702561Y-145582511D01*
X154380000Y-145692335D01*
X154380000Y-143859382D01*
X154487384Y-143912216D01*
X154817585Y-144000369D01*
X155158639Y-144022409D01*
X155497439Y-143977489D01*
X155820966Y-143867336D01*
X156019274Y-143761338D01*
X156127107Y-143486712D01*
X155100000Y-142459605D01*
X155085858Y-142473748D01*
X154906253Y-142294143D01*
X154920395Y-142280000D01*
X155279605Y-142280000D01*
X156306712Y-143307107D01*
X156581338Y-143199274D01*
X156732216Y-142892616D01*
X156820369Y-142562415D01*
X156842409Y-142221361D01*
X156797489Y-141882561D01*
X156687336Y-141559034D01*
X156581338Y-141360726D01*
X156306712Y-141252893D01*
X155279605Y-142280000D01*
X154920395Y-142280000D01*
X154906253Y-142265858D01*
X155085858Y-142086253D01*
X155100000Y-142100395D01*
X156127107Y-141073288D01*
X156019274Y-140798662D01*
X155712616Y-140647784D01*
X155382415Y-140559631D01*
X155041361Y-140537591D01*
X154702561Y-140582511D01*
X154380000Y-140692335D01*
X154380000Y-116554040D01*
X156723091Y-116554040D01*
X156817930Y-116818881D01*
X156962615Y-117060131D01*
X157151586Y-117268519D01*
X157377580Y-117436037D01*
X157631913Y-117556246D01*
X157765961Y-117596904D01*
X157988000Y-117474915D01*
X157988000Y-116332000D01*
X158242000Y-116332000D01*
X158242000Y-117474915D01*
X158464039Y-117596904D01*
X158598087Y-117556246D01*
X158852420Y-117436037D01*
X159078414Y-117268519D01*
X159267385Y-117060131D01*
X159412070Y-116818881D01*
X159506909Y-116554040D01*
X159385624Y-116332000D01*
X158242000Y-116332000D01*
X157988000Y-116332000D01*
X156844376Y-116332000D01*
X156723091Y-116554040D01*
X154380000Y-116554040D01*
X154380000Y-115855960D01*
X156723091Y-115855960D01*
X156844376Y-116078000D01*
X157988000Y-116078000D01*
X157988000Y-114935085D01*
X158242000Y-114935085D01*
X158242000Y-116078000D01*
X159385624Y-116078000D01*
X159506909Y-115855960D01*
X159412070Y-115591119D01*
X159267385Y-115349869D01*
X159078414Y-115141481D01*
X158852420Y-114973963D01*
X158598087Y-114853754D01*
X158464039Y-114813096D01*
X158242000Y-114935085D01*
X157988000Y-114935085D01*
X157765961Y-114813096D01*
X157631913Y-114853754D01*
X157377580Y-114973963D01*
X157151586Y-115141481D01*
X156962615Y-115349869D01*
X156817930Y-115591119D01*
X156723091Y-115855960D01*
X154380000Y-115855960D01*
X154380000Y-104267000D01*
X252020000Y-104267000D01*
X252020001Y-158080269D01*
G04 #@! TA.AperFunction,Conductor*
D24*
G36*
X252020001Y-158080269D02*
G01*
X252005995Y-158223109D01*
X251974599Y-158327099D01*
X251923601Y-158423013D01*
X251854941Y-158507199D01*
X251771243Y-158576439D01*
X251675689Y-158628105D01*
X251571922Y-158660227D01*
X251431359Y-158675000D01*
X251171123Y-158675000D01*
X251140587Y-158678007D01*
X251132786Y-158677953D01*
X251122920Y-158678920D01*
X250876417Y-158704828D01*
X250813399Y-158717764D01*
X250750167Y-158729826D01*
X250740677Y-158732692D01*
X250503901Y-158805987D01*
X250444597Y-158830916D01*
X250384915Y-158855029D01*
X250376163Y-158859683D01*
X250158133Y-158977571D01*
X250104805Y-159013541D01*
X250050935Y-159048793D01*
X250043253Y-159055059D01*
X249852273Y-159213051D01*
X249806936Y-159258706D01*
X249760953Y-159303736D01*
X249754634Y-159311374D01*
X249597979Y-159503452D01*
X249562375Y-159557041D01*
X249526011Y-159610150D01*
X249521296Y-159618870D01*
X249404934Y-159837717D01*
X249380413Y-159897208D01*
X249355062Y-159956357D01*
X249352131Y-159965827D01*
X249280491Y-160203108D01*
X249267997Y-160266205D01*
X249254612Y-160329179D01*
X249253576Y-160339038D01*
X249235048Y-160528000D01*
X249050780Y-160528000D01*
X249039502Y-160490820D01*
X248980537Y-160380506D01*
X248901185Y-160283815D01*
X248804494Y-160204463D01*
X248694180Y-160145498D01*
X248574482Y-160109188D01*
X248450000Y-160096928D01*
X247935750Y-160100000D01*
X247777000Y-160258750D01*
X247777000Y-160528000D01*
X247523000Y-160528000D01*
X247523000Y-160258750D01*
X247364250Y-160100000D01*
X246850000Y-160096928D01*
X246725518Y-160109188D01*
X246605820Y-160145498D01*
X246495506Y-160204463D01*
X246398815Y-160283815D01*
X246380000Y-160306741D01*
X246361185Y-160283815D01*
X246264494Y-160204463D01*
X246154180Y-160145498D01*
X246034482Y-160109188D01*
X245910000Y-160096928D01*
X245850483Y-160096928D01*
X245815546Y-159981753D01*
X245800124Y-159952901D01*
X245744974Y-159849723D01*
X245673799Y-159762997D01*
X245650001Y-159733999D01*
X245621003Y-159710201D01*
X245590953Y-159680151D01*
X245706028Y-159603260D01*
X245836262Y-159473026D01*
X245938586Y-159319887D01*
X246009068Y-159149727D01*
X246045000Y-158969087D01*
X246045000Y-158784909D01*
X246009068Y-158604269D01*
X245938586Y-158434109D01*
X245870000Y-158331463D01*
X245870000Y-148754320D01*
X245873676Y-148716997D01*
X245870000Y-148679674D01*
X245870000Y-148679665D01*
X245859003Y-148568012D01*
X245815546Y-148424751D01*
X245744974Y-148292722D01*
X245694308Y-148230985D01*
X245673799Y-148205994D01*
X245673795Y-148205990D01*
X245650001Y-148176997D01*
X245621009Y-148153204D01*
X244572654Y-147104850D01*
X244548569Y-146983770D01*
X244478087Y-146813610D01*
X244375763Y-146660471D01*
X244245529Y-146530237D01*
X244092390Y-146427913D01*
X243922230Y-146357431D01*
X243801150Y-146333346D01*
X241471469Y-144003665D01*
X243040000Y-144003665D01*
X243040000Y-144286335D01*
X243095147Y-144563574D01*
X243203320Y-144824727D01*
X243360363Y-145059759D01*
X243560241Y-145259637D01*
X243795273Y-145416680D01*
X244056426Y-145524853D01*
X244333665Y-145580000D01*
X244616335Y-145580000D01*
X244893574Y-145524853D01*
X245154727Y-145416680D01*
X245389759Y-145259637D01*
X245589637Y-145059759D01*
X245746680Y-144824727D01*
X245854853Y-144563574D01*
X245910000Y-144286335D01*
X245910000Y-144003665D01*
X246850000Y-144003665D01*
X246850000Y-144286335D01*
X246905147Y-144563574D01*
X247013320Y-144824727D01*
X247170363Y-145059759D01*
X247370241Y-145259637D01*
X247605273Y-145416680D01*
X247866426Y-145524853D01*
X248143665Y-145580000D01*
X248426335Y-145580000D01*
X248703574Y-145524853D01*
X248964727Y-145416680D01*
X249199759Y-145259637D01*
X249399637Y-145059759D01*
X249556680Y-144824727D01*
X249664853Y-144563574D01*
X249720000Y-144286335D01*
X249720000Y-144003665D01*
X249664853Y-143726426D01*
X249556680Y-143465273D01*
X249399637Y-143230241D01*
X249199759Y-143030363D01*
X248964727Y-142873320D01*
X248703574Y-142765147D01*
X248426335Y-142710000D01*
X248143665Y-142710000D01*
X247866426Y-142765147D01*
X247605273Y-142873320D01*
X247370241Y-143030363D01*
X247170363Y-143230241D01*
X247013320Y-143465273D01*
X246905147Y-143726426D01*
X246850000Y-144003665D01*
X245910000Y-144003665D01*
X245885420Y-143880093D01*
X247654617Y-142110896D01*
X247685527Y-142085529D01*
X247741952Y-142016774D01*
X247786748Y-141962191D01*
X247859502Y-141826076D01*
X247861962Y-141821474D01*
X247908279Y-141668789D01*
X247919999Y-141549792D01*
X247919999Y-141549790D01*
X247923918Y-141510002D01*
X247919999Y-141470214D01*
X247919999Y-132835509D01*
X248143665Y-132880000D01*
X248426335Y-132880000D01*
X248703574Y-132824853D01*
X248964727Y-132716680D01*
X249199759Y-132559637D01*
X249399637Y-132359759D01*
X249556680Y-132124727D01*
X249664853Y-131863574D01*
X249720000Y-131586335D01*
X249720000Y-131303665D01*
X249664853Y-131026426D01*
X249556680Y-130765273D01*
X249399637Y-130530241D01*
X249199759Y-130330363D01*
X248964727Y-130173320D01*
X248703574Y-130065147D01*
X248426335Y-130010000D01*
X248143665Y-130010000D01*
X247919999Y-130054491D01*
X247919999Y-124219395D01*
X248005241Y-124304637D01*
X248240273Y-124461680D01*
X248501426Y-124569853D01*
X248778665Y-124625000D01*
X249061335Y-124625000D01*
X249338574Y-124569853D01*
X249599727Y-124461680D01*
X249834759Y-124304637D01*
X250034637Y-124104759D01*
X250191680Y-123869727D01*
X250299853Y-123608574D01*
X250355000Y-123331335D01*
X250355000Y-123048665D01*
X250299853Y-122771426D01*
X250191680Y-122510273D01*
X250034637Y-122275241D01*
X249834759Y-122075363D01*
X249599727Y-121918320D01*
X249338574Y-121810147D01*
X249061335Y-121755000D01*
X248778665Y-121755000D01*
X248501426Y-121810147D01*
X248240273Y-121918320D01*
X248005241Y-122075363D01*
X247919999Y-122160605D01*
X247919999Y-110095513D01*
X248655093Y-109360420D01*
X248778665Y-109385000D01*
X249061335Y-109385000D01*
X249338574Y-109329853D01*
X249599727Y-109221680D01*
X249834759Y-109064637D01*
X250034637Y-108864759D01*
X250191680Y-108629727D01*
X250299853Y-108368574D01*
X250355000Y-108091335D01*
X250355000Y-107808665D01*
X250299853Y-107531426D01*
X250191680Y-107270273D01*
X250034637Y-107035241D01*
X249834759Y-106835363D01*
X249599727Y-106678320D01*
X249338574Y-106570147D01*
X249061335Y-106515000D01*
X248778665Y-106515000D01*
X248501426Y-106570147D01*
X248240273Y-106678320D01*
X248005241Y-106835363D01*
X247805363Y-107035241D01*
X247648320Y-107270273D01*
X247540147Y-107531426D01*
X247485000Y-107808665D01*
X247485000Y-108091335D01*
X247509580Y-108214907D01*
X246565386Y-109159102D01*
X246534471Y-109184473D01*
X246473928Y-109258246D01*
X246433250Y-109307812D01*
X246432258Y-109309668D01*
X246358036Y-109448529D01*
X246311719Y-109601214D01*
X246301005Y-109710001D01*
X246296080Y-109760001D01*
X246299999Y-109799789D01*
X246300000Y-141174487D01*
X244739907Y-142734580D01*
X244616335Y-142710000D01*
X244333665Y-142710000D01*
X244056426Y-142765147D01*
X243795273Y-142873320D01*
X243560241Y-143030363D01*
X243360363Y-143230241D01*
X243203320Y-143465273D01*
X243095147Y-143726426D01*
X243040000Y-144003665D01*
X241471469Y-144003665D01*
X240663000Y-143195197D01*
X240663000Y-131303665D01*
X243040000Y-131303665D01*
X243040000Y-131586335D01*
X243095147Y-131863574D01*
X243203320Y-132124727D01*
X243360363Y-132359759D01*
X243560241Y-132559637D01*
X243795273Y-132716680D01*
X244056426Y-132824853D01*
X244333665Y-132880000D01*
X244616335Y-132880000D01*
X244893574Y-132824853D01*
X245154727Y-132716680D01*
X245389759Y-132559637D01*
X245589637Y-132359759D01*
X245746680Y-132124727D01*
X245854853Y-131863574D01*
X245910000Y-131586335D01*
X245910000Y-131303665D01*
X245854853Y-131026426D01*
X245746680Y-130765273D01*
X245589637Y-130530241D01*
X245389759Y-130330363D01*
X245154727Y-130173320D01*
X244893574Y-130065147D01*
X244616335Y-130010000D01*
X244333665Y-130010000D01*
X244056426Y-130065147D01*
X243795273Y-130173320D01*
X243560241Y-130330363D01*
X243360363Y-130530241D01*
X243203320Y-130765273D01*
X243095147Y-131026426D01*
X243040000Y-131303665D01*
X240663000Y-131303665D01*
X240663000Y-124476124D01*
X240813996Y-124547571D01*
X241088184Y-124616300D01*
X241370512Y-124630217D01*
X241650130Y-124588787D01*
X241916292Y-124493603D01*
X242041514Y-124426671D01*
X242113097Y-124182702D01*
X241300000Y-123369605D01*
X241285858Y-123383748D01*
X241106253Y-123204143D01*
X241120395Y-123190000D01*
X241479605Y-123190000D01*
X242292702Y-124003097D01*
X242536671Y-123931514D01*
X242657571Y-123676004D01*
X242726300Y-123401816D01*
X242740217Y-123119488D01*
X242698787Y-122839870D01*
X242603603Y-122573708D01*
X242536671Y-122448486D01*
X242292702Y-122376903D01*
X241479605Y-123190000D01*
X241120395Y-123190000D01*
X241106253Y-123175858D01*
X241285858Y-122996253D01*
X241300000Y-123010395D01*
X242113097Y-122197298D01*
X242041514Y-121953329D01*
X241786004Y-121832429D01*
X241511816Y-121763700D01*
X241229488Y-121749783D01*
X240949870Y-121791213D01*
X240683708Y-121886397D01*
X240663000Y-121897466D01*
X240663000Y-121195535D01*
X240731586Y-121092889D01*
X240802068Y-120922729D01*
X240838000Y-120742089D01*
X240838000Y-120557911D01*
X240802068Y-120377271D01*
X240731586Y-120207111D01*
X240629262Y-120053972D01*
X240499028Y-119923738D01*
X240345889Y-119821414D01*
X240175729Y-119750932D01*
X239995089Y-119715000D01*
X239810911Y-119715000D01*
X239630271Y-119750932D01*
X239460111Y-119821414D01*
X239306972Y-119923738D01*
X239266000Y-119964710D01*
X239266000Y-116369535D01*
X239334586Y-116266889D01*
X239405068Y-116096729D01*
X239441000Y-115916089D01*
X239441000Y-115731911D01*
X239405068Y-115551271D01*
X239334586Y-115381111D01*
X239232262Y-115227972D01*
X239102028Y-115097738D01*
X238948889Y-114995414D01*
X238778729Y-114924932D01*
X238598089Y-114889000D01*
X238413911Y-114889000D01*
X238377000Y-114896342D01*
X238377000Y-113829535D01*
X238445586Y-113726889D01*
X238516068Y-113556729D01*
X238552000Y-113376089D01*
X238552000Y-113191911D01*
X238516068Y-113011271D01*
X238445586Y-112841111D01*
X238343262Y-112687972D01*
X238213028Y-112557738D01*
X238059889Y-112455414D01*
X237889729Y-112384932D01*
X237709089Y-112349000D01*
X237524911Y-112349000D01*
X237344271Y-112384932D01*
X237174111Y-112455414D01*
X237020972Y-112557738D01*
X236980000Y-112598710D01*
X236980000Y-110908535D01*
X237048586Y-110805889D01*
X237119068Y-110635729D01*
X237155000Y-110455089D01*
X237155000Y-110270911D01*
X237119068Y-110090271D01*
X237048586Y-109920111D01*
X236946262Y-109766972D01*
X236816028Y-109636738D01*
X236662889Y-109534414D01*
X236492729Y-109463932D01*
X236312089Y-109428000D01*
X236127911Y-109428000D01*
X235947271Y-109463932D01*
X235837000Y-109509607D01*
X235837000Y-108368535D01*
X235905586Y-108265889D01*
X235976068Y-108095729D01*
X236012000Y-107915089D01*
X236012000Y-107730911D01*
X235976068Y-107550271D01*
X235905586Y-107380111D01*
X235803262Y-107226972D01*
X235726290Y-107150000D01*
X239861928Y-107150000D01*
X239861928Y-108750000D01*
X239874188Y-108874482D01*
X239910498Y-108994180D01*
X239969463Y-109104494D01*
X240048815Y-109201185D01*
X240145506Y-109280537D01*
X240255820Y-109339502D01*
X240375518Y-109375812D01*
X240500000Y-109388072D01*
X242100000Y-109388072D01*
X242224482Y-109375812D01*
X242344180Y-109339502D01*
X242454494Y-109280537D01*
X242551185Y-109201185D01*
X242630537Y-109104494D01*
X242689502Y-108994180D01*
X242725812Y-108874482D01*
X242738072Y-108750000D01*
X242738072Y-107150000D01*
X242725812Y-107025518D01*
X242689502Y-106905820D01*
X242630537Y-106795506D01*
X242551185Y-106698815D01*
X242454494Y-106619463D01*
X242344180Y-106560498D01*
X242224482Y-106524188D01*
X242100000Y-106511928D01*
X240500000Y-106511928D01*
X240375518Y-106524188D01*
X240255820Y-106560498D01*
X240145506Y-106619463D01*
X240048815Y-106698815D01*
X239969463Y-106795506D01*
X239910498Y-106905820D01*
X239874188Y-107025518D01*
X239861928Y-107150000D01*
X235726290Y-107150000D01*
X235673028Y-107096738D01*
X235519889Y-106994414D01*
X235349729Y-106923932D01*
X235169089Y-106888000D01*
X234984911Y-106888000D01*
X234804271Y-106923932D01*
X234634111Y-106994414D01*
X234480972Y-107096738D01*
X234350738Y-107226972D01*
X234248414Y-107380111D01*
X234177932Y-107550271D01*
X234142000Y-107730911D01*
X234142000Y-107915089D01*
X234177932Y-108095729D01*
X234248414Y-108265889D01*
X234317000Y-108368535D01*
X234317000Y-111562196D01*
X230349600Y-107594796D01*
X230349637Y-107594759D01*
X230506680Y-107359727D01*
X230614853Y-107098574D01*
X230670000Y-106821335D01*
X230670000Y-106538665D01*
X230614853Y-106261426D01*
X230506680Y-106000273D01*
X230349637Y-105765241D01*
X230149759Y-105565363D01*
X229914727Y-105408320D01*
X229653574Y-105300147D01*
X229376335Y-105245000D01*
X229093665Y-105245000D01*
X228816426Y-105300147D01*
X228555273Y-105408320D01*
X228320241Y-105565363D01*
X228120363Y-105765241D01*
X228013481Y-105925202D01*
X227954644Y-105930997D01*
X227811383Y-105974454D01*
X227679354Y-106045026D01*
X227679352Y-106045027D01*
X227679353Y-106045027D01*
X227592626Y-106116201D01*
X227592622Y-106116205D01*
X227563629Y-106139999D01*
X227539835Y-106168992D01*
X220214998Y-113493831D01*
X220186000Y-113517629D01*
X220162202Y-113546627D01*
X220162201Y-113546628D01*
X220091026Y-113633354D01*
X220020454Y-113765384D01*
X220003777Y-113820363D01*
X219976998Y-113908644D01*
X219967236Y-114007754D01*
X219962324Y-114057630D01*
X219966001Y-114094963D01*
X219966000Y-141337605D01*
X219802087Y-141305000D01*
X219617909Y-141305000D01*
X219437269Y-141340932D01*
X219267109Y-141411414D01*
X219200000Y-141456255D01*
X219200000Y-109384333D01*
X219203677Y-109347000D01*
X219189003Y-109198014D01*
X219145546Y-109054753D01*
X219074974Y-108922724D01*
X219035383Y-108874482D01*
X218980001Y-108806999D01*
X218951004Y-108783202D01*
X216336804Y-106169003D01*
X216313001Y-106139999D01*
X216197276Y-106045026D01*
X216065247Y-105974454D01*
X215921986Y-105930997D01*
X215810333Y-105920000D01*
X215810322Y-105920000D01*
X215773000Y-105916324D01*
X215735678Y-105920000D01*
X215433072Y-105920000D01*
X215433072Y-105880000D01*
X215420812Y-105755518D01*
X215384502Y-105635820D01*
X215325537Y-105525506D01*
X215246185Y-105428815D01*
X215149494Y-105349463D01*
X215039180Y-105290498D01*
X214919482Y-105254188D01*
X214795000Y-105241928D01*
X213195000Y-105241928D01*
X213070518Y-105254188D01*
X212950820Y-105290498D01*
X212840506Y-105349463D01*
X212743815Y-105428815D01*
X212664463Y-105525506D01*
X212605498Y-105635820D01*
X212569188Y-105755518D01*
X212556928Y-105880000D01*
X212556928Y-107045001D01*
X211575509Y-107045001D01*
X211620000Y-106821335D01*
X211620000Y-106538665D01*
X211564853Y-106261426D01*
X211456680Y-106000273D01*
X211299637Y-105765241D01*
X211099759Y-105565363D01*
X210864727Y-105408320D01*
X210603574Y-105300147D01*
X210326335Y-105245000D01*
X210043665Y-105245000D01*
X209766426Y-105300147D01*
X209505273Y-105408320D01*
X209270241Y-105565363D01*
X209070363Y-105765241D01*
X208913320Y-106000273D01*
X208805147Y-106261426D01*
X208750000Y-106538665D01*
X208750000Y-106821335D01*
X208794491Y-107045001D01*
X196384803Y-107045001D01*
X196383072Y-107043270D01*
X196383072Y-105880000D01*
X196370812Y-105755518D01*
X196334502Y-105635820D01*
X196275537Y-105525506D01*
X196196185Y-105428815D01*
X196099494Y-105349463D01*
X195989180Y-105290498D01*
X195869482Y-105254188D01*
X195745000Y-105241928D01*
X194145000Y-105241928D01*
X194020518Y-105254188D01*
X193900820Y-105290498D01*
X193790506Y-105349463D01*
X193693815Y-105428815D01*
X193614463Y-105525506D01*
X193555498Y-105635820D01*
X193519188Y-105755518D01*
X193506928Y-105880000D01*
X193506928Y-107480000D01*
X193519188Y-107604482D01*
X193555498Y-107724180D01*
X193614463Y-107834494D01*
X193693815Y-107931185D01*
X193790506Y-108010537D01*
X193900820Y-108069502D01*
X194020518Y-108105812D01*
X194028961Y-108106643D01*
X193830363Y-108305241D01*
X193673320Y-108540273D01*
X193565147Y-108801426D01*
X193510000Y-109078665D01*
X193510000Y-109361335D01*
X193565147Y-109638574D01*
X193673320Y-109899727D01*
X193830363Y-110134759D01*
X194030241Y-110334637D01*
X194262759Y-110490000D01*
X194030241Y-110645363D01*
X193830363Y-110845241D01*
X193673320Y-111080273D01*
X193565147Y-111341426D01*
X193510000Y-111618665D01*
X193510000Y-111901335D01*
X193565147Y-112178574D01*
X193673320Y-112439727D01*
X193830363Y-112674759D01*
X194030241Y-112874637D01*
X194262759Y-113030000D01*
X194030241Y-113185363D01*
X193830363Y-113385241D01*
X193673320Y-113620273D01*
X193565147Y-113881426D01*
X193510000Y-114158665D01*
X193510000Y-114441335D01*
X193565147Y-114718574D01*
X193673320Y-114979727D01*
X193830363Y-115214759D01*
X194030241Y-115414637D01*
X194262759Y-115570000D01*
X194030241Y-115725363D01*
X193830363Y-115925241D01*
X193673320Y-116160273D01*
X193565147Y-116421426D01*
X193510000Y-116698665D01*
X193510000Y-116981335D01*
X193565147Y-117258574D01*
X193673320Y-117519727D01*
X193830363Y-117754759D01*
X194030241Y-117954637D01*
X194262759Y-118110000D01*
X194030241Y-118265363D01*
X193830363Y-118465241D01*
X193673320Y-118700273D01*
X193565147Y-118961426D01*
X193510000Y-119238665D01*
X193510000Y-119521335D01*
X193565147Y-119798574D01*
X193673320Y-120059727D01*
X193830363Y-120294759D01*
X194030241Y-120494637D01*
X194262759Y-120650000D01*
X194030241Y-120805363D01*
X193830363Y-121005241D01*
X193673320Y-121240273D01*
X193565147Y-121501426D01*
X193510000Y-121778665D01*
X193510000Y-121950198D01*
X187265737Y-115705935D01*
X187326680Y-115614727D01*
X187434853Y-115353574D01*
X187490000Y-115076335D01*
X187490000Y-114793665D01*
X187434853Y-114516426D01*
X187326680Y-114255273D01*
X187169637Y-114020241D01*
X186969759Y-113820363D01*
X186815000Y-113716957D01*
X186815000Y-112978043D01*
X186969759Y-112874637D01*
X187169637Y-112674759D01*
X187326680Y-112439727D01*
X187434853Y-112178574D01*
X187490000Y-111901335D01*
X187490000Y-111618665D01*
X187434853Y-111341426D01*
X187326680Y-111080273D01*
X187169637Y-110845241D01*
X186969759Y-110645363D01*
X186815000Y-110541957D01*
X186815000Y-109803043D01*
X186969759Y-109699637D01*
X187169637Y-109499759D01*
X187326680Y-109264727D01*
X187434853Y-109003574D01*
X187490000Y-108726335D01*
X187490000Y-108443665D01*
X187434853Y-108166426D01*
X187326680Y-107905273D01*
X187169637Y-107670241D01*
X186969759Y-107470363D01*
X186734727Y-107313320D01*
X186473574Y-107205147D01*
X186196335Y-107150000D01*
X185913665Y-107150000D01*
X185636426Y-107205147D01*
X185375273Y-107313320D01*
X185140241Y-107470363D01*
X184940363Y-107670241D01*
X184783320Y-107905273D01*
X184675147Y-108166426D01*
X184620000Y-108443665D01*
X184620000Y-108726335D01*
X184675147Y-109003574D01*
X184783320Y-109264727D01*
X184940363Y-109499759D01*
X185140241Y-109699637D01*
X185295000Y-109803044D01*
X185295000Y-110541956D01*
X185140241Y-110645363D01*
X184940363Y-110845241D01*
X184783320Y-111080273D01*
X184675147Y-111341426D01*
X184620000Y-111618665D01*
X184620000Y-111901335D01*
X184675147Y-112178574D01*
X184783320Y-112439727D01*
X184940363Y-112674759D01*
X185140241Y-112874637D01*
X185295001Y-112978044D01*
X185295001Y-113716956D01*
X185140241Y-113820363D01*
X184940363Y-114020241D01*
X184783320Y-114255273D01*
X184675147Y-114516426D01*
X184620000Y-114793665D01*
X184620000Y-115076335D01*
X184675147Y-115353574D01*
X184783320Y-115614727D01*
X184940363Y-115849759D01*
X185140241Y-116049637D01*
X185375273Y-116206680D01*
X185636426Y-116314853D01*
X185747058Y-116336859D01*
X186085199Y-116675000D01*
X185913665Y-116675000D01*
X185636426Y-116730147D01*
X185375273Y-116838320D01*
X185140241Y-116995363D01*
X184940363Y-117195241D01*
X184783320Y-117430273D01*
X184675147Y-117691426D01*
X184620000Y-117968665D01*
X184620000Y-118251335D01*
X184675147Y-118528574D01*
X184783320Y-118789727D01*
X184940363Y-119024759D01*
X185140241Y-119224637D01*
X185295001Y-119328044D01*
X185295001Y-120066956D01*
X185140241Y-120170363D01*
X184940363Y-120370241D01*
X184783320Y-120605273D01*
X184675147Y-120866426D01*
X184620000Y-121143665D01*
X184620000Y-121426335D01*
X184675147Y-121703574D01*
X184783320Y-121964727D01*
X184940363Y-122199759D01*
X185140241Y-122399637D01*
X185295000Y-122503044D01*
X185295000Y-123241956D01*
X185140241Y-123345363D01*
X184940363Y-123545241D01*
X184783320Y-123780273D01*
X184675147Y-124041426D01*
X184620000Y-124318665D01*
X184620000Y-124601335D01*
X184675147Y-124878574D01*
X184783320Y-125139727D01*
X184940363Y-125374759D01*
X185140241Y-125574637D01*
X185375273Y-125731680D01*
X185636426Y-125839853D01*
X185913665Y-125895000D01*
X186196335Y-125895000D01*
X186473574Y-125839853D01*
X186734727Y-125731680D01*
X186969759Y-125574637D01*
X187169637Y-125374759D01*
X187326680Y-125139727D01*
X187434853Y-124878574D01*
X187490000Y-124601335D01*
X187490000Y-124318665D01*
X187434853Y-124041426D01*
X187326680Y-123780273D01*
X187169637Y-123545241D01*
X186969759Y-123345363D01*
X186815000Y-123241957D01*
X186815000Y-122503043D01*
X186969759Y-122399637D01*
X187169637Y-122199759D01*
X187326680Y-121964727D01*
X187434853Y-121703574D01*
X187490000Y-121426335D01*
X187490000Y-121143665D01*
X187434853Y-120866426D01*
X187326680Y-120605273D01*
X187169637Y-120370241D01*
X186969759Y-120170363D01*
X186815000Y-120066957D01*
X186815000Y-119328043D01*
X186969759Y-119224637D01*
X187169637Y-119024759D01*
X187326680Y-118789727D01*
X187434853Y-118528574D01*
X187490000Y-118251335D01*
X187490000Y-118079801D01*
X193546312Y-124136114D01*
X193510000Y-124318665D01*
X193510000Y-124601335D01*
X193565147Y-124878574D01*
X193673320Y-125139727D01*
X193830363Y-125374759D01*
X194030241Y-125574637D01*
X194262759Y-125730000D01*
X194030241Y-125885363D01*
X193830363Y-126085241D01*
X193673320Y-126320273D01*
X193565147Y-126581426D01*
X193510000Y-126858665D01*
X193510000Y-127141335D01*
X193565147Y-127418574D01*
X193673320Y-127679727D01*
X193830363Y-127914759D01*
X194030241Y-128114637D01*
X194262759Y-128270000D01*
X194030241Y-128425363D01*
X193830363Y-128625241D01*
X193673320Y-128860273D01*
X193565147Y-129121426D01*
X193510000Y-129398665D01*
X193510000Y-129681335D01*
X193565147Y-129958574D01*
X193673320Y-130219727D01*
X193830363Y-130454759D01*
X194030241Y-130654637D01*
X194262759Y-130810000D01*
X194030241Y-130965363D01*
X193830363Y-131165241D01*
X193673320Y-131400273D01*
X193565147Y-131661426D01*
X193510000Y-131938665D01*
X193510000Y-132221335D01*
X193565147Y-132498574D01*
X193673320Y-132759727D01*
X193830363Y-132994759D01*
X194030241Y-133194637D01*
X194262759Y-133350000D01*
X194030241Y-133505363D01*
X193830363Y-133705241D01*
X193673320Y-133940273D01*
X193565147Y-134201426D01*
X193510000Y-134478665D01*
X193510000Y-134761335D01*
X193565147Y-135038574D01*
X193673320Y-135299727D01*
X193830363Y-135534759D01*
X194030241Y-135734637D01*
X194262759Y-135890000D01*
X194030241Y-136045363D01*
X193830363Y-136245241D01*
X193673320Y-136480273D01*
X193565147Y-136741426D01*
X193510000Y-137018665D01*
X193510000Y-137301335D01*
X193565147Y-137578574D01*
X193673320Y-137839727D01*
X193830363Y-138074759D01*
X194030241Y-138274637D01*
X194262759Y-138430000D01*
X194030241Y-138585363D01*
X193830363Y-138785241D01*
X193673320Y-139020273D01*
X193565147Y-139281426D01*
X193510000Y-139558665D01*
X193510000Y-139841335D01*
X193565147Y-140118574D01*
X193673320Y-140379727D01*
X193830363Y-140614759D01*
X194030241Y-140814637D01*
X194265273Y-140971680D01*
X194275865Y-140976067D01*
X194089869Y-141087615D01*
X193881481Y-141276586D01*
X193713963Y-141502580D01*
X193593754Y-141756913D01*
X193553096Y-141890961D01*
X193675085Y-142113000D01*
X194818000Y-142113000D01*
X194818000Y-142093000D01*
X195072000Y-142093000D01*
X195072000Y-142113000D01*
X195092000Y-142113000D01*
X195092000Y-142367000D01*
X195072000Y-142367000D01*
X195072000Y-142387000D01*
X194818000Y-142387000D01*
X194818000Y-142367000D01*
X193675085Y-142367000D01*
X193553096Y-142589039D01*
X193593754Y-142723087D01*
X193713963Y-142977420D01*
X193881481Y-143203414D01*
X194089869Y-143392385D01*
X194275865Y-143503933D01*
X194265273Y-143508320D01*
X194030241Y-143665363D01*
X193830363Y-143865241D01*
X193673320Y-144100273D01*
X193565147Y-144361426D01*
X193510000Y-144638665D01*
X193510000Y-144921335D01*
X193565147Y-145198574D01*
X193673320Y-145459727D01*
X193830363Y-145694759D01*
X194030241Y-145894637D01*
X194262759Y-146050000D01*
X194030241Y-146205363D01*
X193830363Y-146405241D01*
X193673320Y-146640273D01*
X193565147Y-146901426D01*
X193510000Y-147178665D01*
X193510000Y-147461335D01*
X193546312Y-147643887D01*
X193308997Y-147881202D01*
X193279999Y-147905000D01*
X193256201Y-147933998D01*
X193256200Y-147933999D01*
X193185025Y-148020725D01*
X193114453Y-148152755D01*
X193098304Y-148205994D01*
X193078639Y-148270824D01*
X193070997Y-148296016D01*
X193056323Y-148445001D01*
X193060000Y-148482333D01*
X193059999Y-158259486D01*
X187465420Y-152664907D01*
X187490000Y-152541335D01*
X187490000Y-152258665D01*
X187434853Y-151981426D01*
X187326680Y-151720273D01*
X187169637Y-151485241D01*
X186969759Y-151285363D01*
X186865000Y-151215365D01*
X186865000Y-145454788D01*
X186868919Y-145415000D01*
X186865000Y-145375209D01*
X186858072Y-145304867D01*
X186858072Y-144638665D01*
X190335000Y-144638665D01*
X190335000Y-144921335D01*
X190390147Y-145198574D01*
X190498320Y-145459727D01*
X190655363Y-145694759D01*
X190855241Y-145894637D01*
X191090273Y-146051680D01*
X191351426Y-146159853D01*
X191628665Y-146215000D01*
X191911335Y-146215000D01*
X192188574Y-146159853D01*
X192449727Y-146051680D01*
X192684759Y-145894637D01*
X192884637Y-145694759D01*
X193041680Y-145459727D01*
X193149853Y-145198574D01*
X193205000Y-144921335D01*
X193205000Y-144638665D01*
X193149853Y-144361426D01*
X193041680Y-144100273D01*
X192884637Y-143865241D01*
X192684759Y-143665363D01*
X192484131Y-143531308D01*
X192511514Y-143516671D01*
X192583097Y-143272702D01*
X191770000Y-142459605D01*
X190956903Y-143272702D01*
X191028486Y-143516671D01*
X191057341Y-143530324D01*
X190855241Y-143665363D01*
X190655363Y-143865241D01*
X190498320Y-144100273D01*
X190390147Y-144361426D01*
X190335000Y-144638665D01*
X186858072Y-144638665D01*
X186858072Y-143980000D01*
X186845812Y-143855518D01*
X186809502Y-143735820D01*
X186750537Y-143625506D01*
X186671185Y-143528815D01*
X186574494Y-143449463D01*
X186464180Y-143390498D01*
X186344482Y-143354188D01*
X186220000Y-143341928D01*
X186212785Y-143341928D01*
X186233097Y-143272702D01*
X185420000Y-142459605D01*
X185405858Y-142473748D01*
X185226253Y-142294143D01*
X185240395Y-142280000D01*
X185599605Y-142280000D01*
X186412702Y-143093097D01*
X186656671Y-143021514D01*
X186777571Y-142766004D01*
X186846300Y-142491816D01*
X186853265Y-142350512D01*
X190329783Y-142350512D01*
X190371213Y-142630130D01*
X190466397Y-142896292D01*
X190533329Y-143021514D01*
X190777298Y-143093097D01*
X191590395Y-142280000D01*
X191949605Y-142280000D01*
X192762702Y-143093097D01*
X193006671Y-143021514D01*
X193127571Y-142766004D01*
X193196300Y-142491816D01*
X193210217Y-142209488D01*
X193168787Y-141929870D01*
X193073603Y-141663708D01*
X193006671Y-141538486D01*
X192762702Y-141466903D01*
X191949605Y-142280000D01*
X191590395Y-142280000D01*
X190777298Y-141466903D01*
X190533329Y-141538486D01*
X190412429Y-141793996D01*
X190343700Y-142068184D01*
X190329783Y-142350512D01*
X186853265Y-142350512D01*
X186860217Y-142209488D01*
X186818787Y-141929870D01*
X186723603Y-141663708D01*
X186656671Y-141538486D01*
X186412702Y-141466903D01*
X185599605Y-142280000D01*
X185240395Y-142280000D01*
X184427298Y-141466903D01*
X184183329Y-141538486D01*
X184062429Y-141793996D01*
X183993700Y-142068184D01*
X183987123Y-142201611D01*
X183182000Y-141396488D01*
X183182000Y-141287298D01*
X184606903Y-141287298D01*
X185420000Y-142100395D01*
X186233097Y-141287298D01*
X190956903Y-141287298D01*
X191770000Y-142100395D01*
X192583097Y-141287298D01*
X192511514Y-141043329D01*
X192256004Y-140922429D01*
X191981816Y-140853700D01*
X191699488Y-140839783D01*
X191419870Y-140881213D01*
X191153708Y-140976397D01*
X191028486Y-141043329D01*
X190956903Y-141287298D01*
X186233097Y-141287298D01*
X186161514Y-141043329D01*
X185906004Y-140922429D01*
X185631816Y-140853700D01*
X185349488Y-140839783D01*
X185069870Y-140881213D01*
X184803708Y-140976397D01*
X184678486Y-141043329D01*
X184606903Y-141287298D01*
X183182000Y-141287298D01*
X183182000Y-134786788D01*
X183185919Y-134747000D01*
X183177941Y-134666000D01*
X183170280Y-134588212D01*
X183123963Y-134435527D01*
X183048749Y-134294811D01*
X182947528Y-134171472D01*
X182916618Y-134146105D01*
X179845420Y-131074907D01*
X179870000Y-130951335D01*
X179870000Y-130668665D01*
X179845420Y-130545093D01*
X180154619Y-130235894D01*
X180185529Y-130210527D01*
X180251391Y-130130273D01*
X180286750Y-130087189D01*
X180330138Y-130006014D01*
X180361964Y-129946472D01*
X180408281Y-129793787D01*
X180420001Y-129674790D01*
X180420001Y-129674788D01*
X180423920Y-129635000D01*
X180420001Y-129595212D01*
X180420001Y-127493665D01*
X184620000Y-127493665D01*
X184620000Y-127776335D01*
X184675147Y-128053574D01*
X184783320Y-128314727D01*
X184940363Y-128549759D01*
X185140241Y-128749637D01*
X185295001Y-128853044D01*
X185295001Y-129591956D01*
X185140241Y-129695363D01*
X184940363Y-129895241D01*
X184783320Y-130130273D01*
X184675147Y-130391426D01*
X184620000Y-130668665D01*
X184620000Y-130951335D01*
X184675147Y-131228574D01*
X184783320Y-131489727D01*
X184940363Y-131724759D01*
X185140241Y-131924637D01*
X185295000Y-132028044D01*
X185295000Y-132766956D01*
X185140241Y-132870363D01*
X184940363Y-133070241D01*
X184783320Y-133305273D01*
X184675147Y-133566426D01*
X184620000Y-133843665D01*
X184620000Y-134126335D01*
X184675147Y-134403574D01*
X184783320Y-134664727D01*
X184940363Y-134899759D01*
X185140241Y-135099637D01*
X185375273Y-135256680D01*
X185636426Y-135364853D01*
X185913665Y-135420000D01*
X186196335Y-135420000D01*
X186473574Y-135364853D01*
X186734727Y-135256680D01*
X186969759Y-135099637D01*
X187169637Y-134899759D01*
X187326680Y-134664727D01*
X187434853Y-134403574D01*
X187490000Y-134126335D01*
X187490000Y-133843665D01*
X187434853Y-133566426D01*
X187326680Y-133305273D01*
X187169637Y-133070241D01*
X186969759Y-132870363D01*
X186815000Y-132766957D01*
X186815000Y-132028043D01*
X186969759Y-131924637D01*
X187169637Y-131724759D01*
X187326680Y-131489727D01*
X187434853Y-131228574D01*
X187490000Y-130951335D01*
X187490000Y-130668665D01*
X187434853Y-130391426D01*
X187326680Y-130130273D01*
X187169637Y-129895241D01*
X186969759Y-129695363D01*
X186815000Y-129591957D01*
X186815000Y-128853043D01*
X186969759Y-128749637D01*
X187169637Y-128549759D01*
X187326680Y-128314727D01*
X187434853Y-128053574D01*
X187490000Y-127776335D01*
X187490000Y-127493665D01*
X187434853Y-127216426D01*
X187326680Y-126955273D01*
X187169637Y-126720241D01*
X186969759Y-126520363D01*
X186734727Y-126363320D01*
X186473574Y-126255147D01*
X186196335Y-126200000D01*
X185913665Y-126200000D01*
X185636426Y-126255147D01*
X185375273Y-126363320D01*
X185140241Y-126520363D01*
X184940363Y-126720241D01*
X184783320Y-126955273D01*
X184675147Y-127216426D01*
X184620000Y-127493665D01*
X180420001Y-127493665D01*
X180420001Y-122499788D01*
X180423920Y-122460000D01*
X180418774Y-122407753D01*
X180408281Y-122301213D01*
X180361964Y-122148528D01*
X180302331Y-122036962D01*
X180286750Y-122007811D01*
X180213306Y-121918320D01*
X180185529Y-121884473D01*
X180154620Y-121859107D01*
X179845420Y-121549907D01*
X179870000Y-121426335D01*
X179870000Y-121143665D01*
X179814853Y-120866426D01*
X179706680Y-120605273D01*
X179549637Y-120370241D01*
X179349759Y-120170363D01*
X179114727Y-120013320D01*
X178853574Y-119905147D01*
X178576335Y-119850000D01*
X178293665Y-119850000D01*
X178170093Y-119874580D01*
X178069999Y-119774487D01*
X178069999Y-119500509D01*
X178293665Y-119545000D01*
X178576335Y-119545000D01*
X178853574Y-119489853D01*
X179114727Y-119381680D01*
X179349759Y-119224637D01*
X179549637Y-119024759D01*
X179706680Y-118789727D01*
X179814853Y-118528574D01*
X179870000Y-118251335D01*
X179870000Y-117968665D01*
X179833688Y-117786114D01*
X180071004Y-117548798D01*
X180100002Y-117525000D01*
X180194975Y-117409275D01*
X180265547Y-117277246D01*
X180309004Y-117133985D01*
X180320001Y-117022332D01*
X180320001Y-117022324D01*
X180323677Y-116984999D01*
X180320001Y-116947674D01*
X180320001Y-109747326D01*
X180323677Y-109710001D01*
X180320001Y-109672676D01*
X180320001Y-109672668D01*
X180309004Y-109561015D01*
X180265547Y-109417754D01*
X180194975Y-109285725D01*
X180100002Y-109170000D01*
X180071005Y-109146203D01*
X179833688Y-108908886D01*
X179870000Y-108726335D01*
X179870000Y-108443665D01*
X179814853Y-108166426D01*
X179706680Y-107905273D01*
X179549637Y-107670241D01*
X179349759Y-107470363D01*
X179114727Y-107313320D01*
X178853574Y-107205147D01*
X178576335Y-107150000D01*
X178293665Y-107150000D01*
X178016426Y-107205147D01*
X177755273Y-107313320D01*
X177520241Y-107470363D01*
X177320363Y-107670241D01*
X177163320Y-107905273D01*
X177055147Y-108166426D01*
X177000000Y-108443665D01*
X177000000Y-108726335D01*
X177055147Y-109003574D01*
X177163320Y-109264727D01*
X177320363Y-109499759D01*
X177520241Y-109699637D01*
X177755273Y-109856680D01*
X178016426Y-109964853D01*
X178293665Y-110020000D01*
X178576335Y-110020000D01*
X178758886Y-109983688D01*
X178800001Y-110024803D01*
X178800001Y-110369491D01*
X178576335Y-110325000D01*
X178293665Y-110325000D01*
X178087987Y-110365912D01*
X177958788Y-110326720D01*
X177839791Y-110315000D01*
X177839788Y-110315000D01*
X177800000Y-110311081D01*
X177760212Y-110315000D01*
X165018072Y-110315000D01*
X165018072Y-110100000D01*
X165000528Y-109921868D01*
X164948569Y-109750582D01*
X164864192Y-109592724D01*
X164750639Y-109454361D01*
X164612276Y-109340808D01*
X164454418Y-109256431D01*
X164283132Y-109204472D01*
X164105000Y-109186928D01*
X163555000Y-109186928D01*
X163376868Y-109204472D01*
X163205582Y-109256431D01*
X163047724Y-109340808D01*
X162909361Y-109454361D01*
X162795808Y-109592724D01*
X162711431Y-109750582D01*
X162659472Y-109921868D01*
X162641928Y-110100000D01*
X162641928Y-111256928D01*
X162010000Y-111256928D01*
X161885518Y-111269188D01*
X161765820Y-111305498D01*
X161655506Y-111364463D01*
X161558815Y-111443815D01*
X161479463Y-111540506D01*
X161420498Y-111650820D01*
X161384188Y-111770518D01*
X161371928Y-111895000D01*
X161371928Y-113695000D01*
X161384188Y-113819482D01*
X161420498Y-113939180D01*
X161479463Y-114049494D01*
X161558815Y-114146185D01*
X161655506Y-114225537D01*
X161765820Y-114284502D01*
X161800001Y-114294871D01*
X161800001Y-114620197D01*
X161613886Y-114806312D01*
X161431335Y-114770000D01*
X161148665Y-114770000D01*
X160871426Y-114825147D01*
X160610273Y-114933320D01*
X160375241Y-115090363D01*
X160175363Y-115290241D01*
X160018320Y-115525273D01*
X159910147Y-115786426D01*
X159855000Y-116063665D01*
X159855000Y-116346335D01*
X159910147Y-116623574D01*
X160018320Y-116884727D01*
X160175363Y-117119759D01*
X160375241Y-117319637D01*
X160610273Y-117476680D01*
X160871426Y-117584853D01*
X161148665Y-117640000D01*
X161431335Y-117640000D01*
X161708574Y-117584853D01*
X161969727Y-117476680D01*
X162204759Y-117319637D01*
X162404637Y-117119759D01*
X162561680Y-116884727D01*
X162669853Y-116623574D01*
X162725000Y-116346335D01*
X162725000Y-116063665D01*
X162688688Y-115881114D01*
X163071003Y-115498799D01*
X163100001Y-115475001D01*
X163194974Y-115359276D01*
X163265546Y-115227247D01*
X163309003Y-115083986D01*
X163320000Y-114972333D01*
X163320000Y-114972324D01*
X163323676Y-114935001D01*
X163320000Y-114897678D01*
X163320000Y-114294870D01*
X163354180Y-114284502D01*
X163464494Y-114225537D01*
X163561185Y-114146185D01*
X163640537Y-114049494D01*
X163699502Y-113939180D01*
X163735812Y-113819482D01*
X163748072Y-113695000D01*
X163748072Y-112263072D01*
X163911928Y-112263072D01*
X163911928Y-113420000D01*
X163929472Y-113598132D01*
X163981431Y-113769418D01*
X164065808Y-113927276D01*
X164179361Y-114065639D01*
X164317724Y-114179192D01*
X164340001Y-114191099D01*
X164340001Y-114389668D01*
X164336324Y-114427000D01*
X164340001Y-114464333D01*
X164350998Y-114575986D01*
X164355931Y-114592247D01*
X164394454Y-114719246D01*
X164421583Y-114770000D01*
X164323665Y-114770000D01*
X164046426Y-114825147D01*
X163785273Y-114933320D01*
X163550241Y-115090363D01*
X163350363Y-115290241D01*
X163193320Y-115525273D01*
X163085147Y-115786426D01*
X163030000Y-116063665D01*
X163030000Y-116346335D01*
X163085147Y-116623574D01*
X163193320Y-116884727D01*
X163350363Y-117119759D01*
X163550241Y-117319637D01*
X163785273Y-117476680D01*
X164046426Y-117584853D01*
X164323665Y-117640000D01*
X164606335Y-117640000D01*
X164830002Y-117595509D01*
X164830001Y-122385197D01*
X164788886Y-122426312D01*
X164606335Y-122390000D01*
X164323665Y-122390000D01*
X164046426Y-122445147D01*
X163785273Y-122553320D01*
X163550241Y-122710363D01*
X163350363Y-122910241D01*
X163193320Y-123145273D01*
X163085147Y-123406426D01*
X163030000Y-123683665D01*
X163030000Y-123966335D01*
X163085147Y-124243574D01*
X163193320Y-124504727D01*
X163350363Y-124739759D01*
X163550241Y-124939637D01*
X163785273Y-125096680D01*
X164046426Y-125204853D01*
X164323665Y-125260000D01*
X164606335Y-125260000D01*
X164883574Y-125204853D01*
X165144727Y-125096680D01*
X165379759Y-124939637D01*
X165579637Y-124739759D01*
X165736680Y-124504727D01*
X165844853Y-124243574D01*
X165900000Y-123966335D01*
X165900000Y-123683665D01*
X165863688Y-123501114D01*
X166101005Y-123263797D01*
X166130002Y-123240000D01*
X166224975Y-123124275D01*
X166295547Y-122992246D01*
X166339004Y-122848985D01*
X166350001Y-122737332D01*
X166350001Y-122737324D01*
X166353677Y-122699999D01*
X166350001Y-122662674D01*
X166350001Y-116840501D01*
X166368320Y-116884727D01*
X166525363Y-117119759D01*
X166725241Y-117319637D01*
X166960273Y-117476680D01*
X167221426Y-117584853D01*
X167498665Y-117640000D01*
X167781335Y-117640000D01*
X168058574Y-117584853D01*
X168319727Y-117476680D01*
X168554759Y-117319637D01*
X168754637Y-117119759D01*
X168911680Y-116884727D01*
X169019853Y-116623574D01*
X169075000Y-116346335D01*
X169075000Y-116063665D01*
X169019853Y-115786426D01*
X168911680Y-115525273D01*
X168754637Y-115290241D01*
X168554759Y-115090363D01*
X168319727Y-114933320D01*
X168058574Y-114825147D01*
X167781335Y-114770000D01*
X167498665Y-114770000D01*
X167221426Y-114825147D01*
X166960273Y-114933320D01*
X166725241Y-115090363D01*
X166525363Y-115290241D01*
X166368320Y-115525273D01*
X166350001Y-115569499D01*
X166350001Y-114954323D01*
X166353677Y-114917000D01*
X166350001Y-114879677D01*
X166350001Y-114879668D01*
X166339004Y-114768015D01*
X166295547Y-114624754D01*
X166293770Y-114621429D01*
X166224975Y-114492724D01*
X166172411Y-114428676D01*
X166130002Y-114377000D01*
X166100998Y-114353197D01*
X165906836Y-114159035D01*
X166020639Y-114065639D01*
X166134192Y-113927276D01*
X166218569Y-113769418D01*
X166270528Y-113598132D01*
X166288072Y-113420000D01*
X166288072Y-112170000D01*
X166270528Y-111991868D01*
X166253277Y-111935000D01*
X174544052Y-111935000D01*
X174537429Y-111948996D01*
X174468700Y-112223184D01*
X174454783Y-112505512D01*
X174496213Y-112785130D01*
X174591397Y-113051292D01*
X174658329Y-113176514D01*
X174902298Y-113248097D01*
X175715395Y-112435000D01*
X175701253Y-112420858D01*
X175880858Y-112241253D01*
X175895000Y-112255395D01*
X175909143Y-112241253D01*
X176088748Y-112420858D01*
X176074605Y-112435000D01*
X176088748Y-112449143D01*
X175909143Y-112628748D01*
X175895000Y-112614605D01*
X175081903Y-113427702D01*
X175153486Y-113671671D01*
X175182341Y-113685324D01*
X174980241Y-113820363D01*
X174780363Y-114020241D01*
X174623320Y-114255273D01*
X174515147Y-114516426D01*
X174460000Y-114793665D01*
X174460000Y-115076335D01*
X174496312Y-115258886D01*
X169287998Y-120467201D01*
X169259000Y-120490999D01*
X169235202Y-120519997D01*
X169235201Y-120519998D01*
X169164026Y-120606724D01*
X169093454Y-120738754D01*
X169087054Y-120759853D01*
X169054727Y-120866426D01*
X169049998Y-120882015D01*
X169035324Y-121031000D01*
X169039001Y-121068332D01*
X169039001Y-123502687D01*
X169019853Y-123406426D01*
X168911680Y-123145273D01*
X168754637Y-122910241D01*
X168554759Y-122710363D01*
X168319727Y-122553320D01*
X168058574Y-122445147D01*
X167781335Y-122390000D01*
X167498665Y-122390000D01*
X167221426Y-122445147D01*
X166960273Y-122553320D01*
X166725241Y-122710363D01*
X166525363Y-122910241D01*
X166368320Y-123145273D01*
X166260147Y-123406426D01*
X166205000Y-123683665D01*
X166205000Y-123966335D01*
X166260147Y-124243574D01*
X166368320Y-124504727D01*
X166525363Y-124739759D01*
X166725241Y-124939637D01*
X166880000Y-125043044D01*
X166880001Y-127040199D01*
X166861607Y-127058593D01*
X166860812Y-127050518D01*
X166824502Y-126930820D01*
X166765537Y-126820506D01*
X166686185Y-126723815D01*
X166589494Y-126644463D01*
X166479180Y-126585498D01*
X166359482Y-126549188D01*
X166235000Y-126536928D01*
X166020750Y-126540000D01*
X165862000Y-126698750D01*
X165862000Y-127548000D01*
X165882000Y-127548000D01*
X165882000Y-127802000D01*
X165862000Y-127802000D01*
X165862000Y-127822000D01*
X165608000Y-127822000D01*
X165608000Y-127802000D01*
X164758750Y-127802000D01*
X164600000Y-127960750D01*
X164596928Y-128175000D01*
X164609188Y-128299482D01*
X164645498Y-128419180D01*
X164704463Y-128529494D01*
X164783815Y-128626185D01*
X164880506Y-128705537D01*
X164990820Y-128764502D01*
X165110518Y-128800812D01*
X165127321Y-128802467D01*
X165100026Y-128835726D01*
X165079566Y-128874004D01*
X165029454Y-128967756D01*
X164994034Y-129084523D01*
X164990820Y-129085498D01*
X164880506Y-129144463D01*
X164783815Y-129223815D01*
X164704463Y-129320506D01*
X164645498Y-129430820D01*
X164609188Y-129550518D01*
X164596928Y-129675000D01*
X164596928Y-130675000D01*
X164609188Y-130799482D01*
X164645498Y-130919180D01*
X164704463Y-131029494D01*
X164783815Y-131126185D01*
X164880506Y-131205537D01*
X164975000Y-131256046D01*
X164975001Y-132753868D01*
X164971324Y-132791200D01*
X164975001Y-132828533D01*
X164975048Y-132829005D01*
X164985998Y-132940185D01*
X165029454Y-133083446D01*
X165100026Y-133215476D01*
X165136840Y-133260333D01*
X165195000Y-133331201D01*
X165223998Y-133354999D01*
X166840001Y-134971003D01*
X166840000Y-138441687D01*
X166621495Y-138587688D01*
X166407688Y-138801495D01*
X166239701Y-139052905D01*
X166123989Y-139332257D01*
X166065000Y-139628816D01*
X166065000Y-139931184D01*
X166123989Y-140227743D01*
X166239701Y-140507095D01*
X166407688Y-140758505D01*
X166621495Y-140972312D01*
X166872905Y-141140299D01*
X167152257Y-141256011D01*
X167448816Y-141315000D01*
X167490198Y-141315000D01*
X165508930Y-143296269D01*
X165251184Y-143245000D01*
X164948816Y-143245000D01*
X164652257Y-143303989D01*
X164372905Y-143419701D01*
X164121495Y-143587688D01*
X163907688Y-143801495D01*
X163739701Y-144052905D01*
X163708948Y-144127149D01*
X163320000Y-143738201D01*
X163320000Y-138344080D01*
X164215525Y-138344080D01*
X164299208Y-138598261D01*
X164571775Y-138729158D01*
X164864642Y-138804365D01*
X165166553Y-138820991D01*
X165465907Y-138778397D01*
X165751199Y-138678222D01*
X165900792Y-138598261D01*
X165984475Y-138344080D01*
X165100000Y-137459605D01*
X164215525Y-138344080D01*
X163320000Y-138344080D01*
X163320000Y-137346553D01*
X163559009Y-137346553D01*
X163601603Y-137645907D01*
X163701778Y-137931199D01*
X163781739Y-138080792D01*
X164035920Y-138164475D01*
X164920395Y-137280000D01*
X165279605Y-137280000D01*
X166164080Y-138164475D01*
X166418261Y-138080792D01*
X166549158Y-137808225D01*
X166624365Y-137515358D01*
X166640991Y-137213447D01*
X166598397Y-136914093D01*
X166498222Y-136628801D01*
X166418261Y-136479208D01*
X166164080Y-136395525D01*
X165279605Y-137280000D01*
X164920395Y-137280000D01*
X164035920Y-136395525D01*
X163781739Y-136479208D01*
X163650842Y-136751775D01*
X163575635Y-137044642D01*
X163559009Y-137346553D01*
X163320000Y-137346553D01*
X163320000Y-136215920D01*
X164215525Y-136215920D01*
X165100000Y-137100395D01*
X165984475Y-136215920D01*
X165900792Y-135961739D01*
X165628225Y-135830842D01*
X165335358Y-135755635D01*
X165033447Y-135739009D01*
X164734093Y-135781603D01*
X164448801Y-135881778D01*
X164299208Y-135961739D01*
X164215525Y-136215920D01*
X163320000Y-136215920D01*
X163320000Y-131256046D01*
X163414494Y-131205537D01*
X163511185Y-131126185D01*
X163590537Y-131029494D01*
X163649502Y-130919180D01*
X163685812Y-130799482D01*
X163698072Y-130675000D01*
X163698072Y-129675000D01*
X163685812Y-129550518D01*
X163649502Y-129430820D01*
X163590537Y-129320506D01*
X163511185Y-129223815D01*
X163414494Y-129144463D01*
X163304180Y-129085498D01*
X163184482Y-129049188D01*
X163060000Y-129036928D01*
X162496730Y-129036928D01*
X162269864Y-128810063D01*
X162274250Y-128810000D01*
X162433000Y-128651250D01*
X162433000Y-127802000D01*
X162687000Y-127802000D01*
X162687000Y-128651250D01*
X162845750Y-128810000D01*
X163060000Y-128813072D01*
X163184482Y-128800812D01*
X163304180Y-128764502D01*
X163414494Y-128705537D01*
X163511185Y-128626185D01*
X163590537Y-128529494D01*
X163649502Y-128419180D01*
X163685812Y-128299482D01*
X163698072Y-128175000D01*
X163695000Y-127960750D01*
X163536250Y-127802000D01*
X162687000Y-127802000D01*
X162433000Y-127802000D01*
X162413000Y-127802000D01*
X162413000Y-127548000D01*
X162433000Y-127548000D01*
X162433000Y-126698750D01*
X162687000Y-126698750D01*
X162687000Y-127548000D01*
X163536250Y-127548000D01*
X163695000Y-127389250D01*
X163698072Y-127175000D01*
X164596928Y-127175000D01*
X164600000Y-127389250D01*
X164758750Y-127548000D01*
X165608000Y-127548000D01*
X165608000Y-126698750D01*
X165449250Y-126540000D01*
X165235000Y-126536928D01*
X165110518Y-126549188D01*
X164990820Y-126585498D01*
X164880506Y-126644463D01*
X164783815Y-126723815D01*
X164704463Y-126820506D01*
X164645498Y-126930820D01*
X164609188Y-127050518D01*
X164596928Y-127175000D01*
X163698072Y-127175000D01*
X163685812Y-127050518D01*
X163649502Y-126930820D01*
X163590537Y-126820506D01*
X163511185Y-126723815D01*
X163414494Y-126644463D01*
X163304180Y-126585498D01*
X163184482Y-126549188D01*
X163060000Y-126536928D01*
X162845750Y-126540000D01*
X162687000Y-126698750D01*
X162433000Y-126698750D01*
X162274250Y-126540000D01*
X162060000Y-126536928D01*
X162050000Y-126537913D01*
X162050000Y-125043043D01*
X162204759Y-124939637D01*
X162404637Y-124739759D01*
X162561680Y-124504727D01*
X162669853Y-124243574D01*
X162725000Y-123966335D01*
X162725000Y-123683665D01*
X162669853Y-123406426D01*
X162561680Y-123145273D01*
X162404637Y-122910241D01*
X162204759Y-122710363D01*
X161969727Y-122553320D01*
X161708574Y-122445147D01*
X161431335Y-122390000D01*
X161148665Y-122390000D01*
X160871426Y-122445147D01*
X160610273Y-122553320D01*
X160375241Y-122710363D01*
X160175363Y-122910241D01*
X160071957Y-123065000D01*
X159333043Y-123065000D01*
X159229637Y-122910241D01*
X159029759Y-122710363D01*
X158794727Y-122553320D01*
X158533574Y-122445147D01*
X158256335Y-122390000D01*
X157973665Y-122390000D01*
X157696426Y-122445147D01*
X157435273Y-122553320D01*
X157200241Y-122710363D01*
X157000363Y-122910241D01*
X156843320Y-123145273D01*
X156735147Y-123406426D01*
X156680000Y-123683665D01*
X156680000Y-123966335D01*
X156735147Y-124243574D01*
X156843320Y-124504727D01*
X157000363Y-124739759D01*
X157200241Y-124939637D01*
X157435273Y-125096680D01*
X157696426Y-125204853D01*
X157973665Y-125260000D01*
X158256335Y-125260000D01*
X158533574Y-125204853D01*
X158794727Y-125096680D01*
X159029759Y-124939637D01*
X159229637Y-124739759D01*
X159333043Y-124585000D01*
X160071957Y-124585000D01*
X160175363Y-124739759D01*
X160375241Y-124939637D01*
X160530000Y-125043044D01*
X160530001Y-128867668D01*
X160526324Y-128905000D01*
X160530001Y-128942333D01*
X160540526Y-129049188D01*
X160540998Y-129053985D01*
X160584454Y-129197246D01*
X160655026Y-129329276D01*
X160711973Y-129398665D01*
X160750000Y-129445001D01*
X160778998Y-129468799D01*
X161421928Y-130111730D01*
X161421928Y-130675000D01*
X161434188Y-130799482D01*
X161470498Y-130919180D01*
X161529463Y-131029494D01*
X161608815Y-131126185D01*
X161705506Y-131205537D01*
X161800001Y-131256046D01*
X161800000Y-144015680D01*
X161796324Y-144053002D01*
X161800000Y-144090324D01*
X161800000Y-144090334D01*
X161810997Y-144201987D01*
X161841877Y-144303787D01*
X161854454Y-144345248D01*
X161925026Y-144477278D01*
X161933623Y-144487753D01*
X162019999Y-144593003D01*
X162049002Y-144616806D01*
X163948204Y-146516009D01*
X163971998Y-146545002D01*
X164000991Y-146568796D01*
X164000995Y-146568800D01*
X164063248Y-146619889D01*
X164087723Y-146639975D01*
X164219752Y-146710547D01*
X164363013Y-146754004D01*
X164474666Y-146765001D01*
X164474675Y-146765001D01*
X164511998Y-146768677D01*
X164549321Y-146765001D01*
X168837677Y-146765001D01*
X168874999Y-146768677D01*
X168912321Y-146765001D01*
X168912332Y-146765001D01*
X169023985Y-146754004D01*
X169167246Y-146710547D01*
X169299275Y-146639975D01*
X169415000Y-146545002D01*
X169438803Y-146515998D01*
X169691070Y-146263731D01*
X169948816Y-146315000D01*
X169990198Y-146315000D01*
X168008930Y-148296269D01*
X167751184Y-148245000D01*
X167448816Y-148245000D01*
X167152257Y-148303989D01*
X166872905Y-148419701D01*
X166621495Y-148587688D01*
X166407688Y-148801495D01*
X166239701Y-149052905D01*
X166123989Y-149332257D01*
X166065000Y-149628816D01*
X166065000Y-149931184D01*
X166123989Y-150227743D01*
X166239701Y-150507095D01*
X166407688Y-150758505D01*
X166621495Y-150972312D01*
X166872905Y-151140299D01*
X167152257Y-151256011D01*
X167448816Y-151315000D01*
X167751184Y-151315000D01*
X168047743Y-151256011D01*
X168327095Y-151140299D01*
X168578505Y-150972312D01*
X168792312Y-150758505D01*
X168960299Y-150507095D01*
X169076011Y-150227743D01*
X169135000Y-149931184D01*
X169135000Y-149628816D01*
X169083731Y-149371070D01*
X172596003Y-145858799D01*
X172625001Y-145835001D01*
X172719974Y-145719276D01*
X172790546Y-145587247D01*
X172834003Y-145443986D01*
X172845000Y-145332333D01*
X172845000Y-145332323D01*
X172848676Y-145295000D01*
X172845000Y-145257677D01*
X172845000Y-131555512D01*
X174454783Y-131555512D01*
X174496213Y-131835130D01*
X174591397Y-132101292D01*
X174658329Y-132226514D01*
X174902298Y-132298097D01*
X175715395Y-131485000D01*
X174902298Y-130671903D01*
X174658329Y-130743486D01*
X174537429Y-130998996D01*
X174468700Y-131273184D01*
X174454783Y-131555512D01*
X172845000Y-131555512D01*
X172845000Y-131236046D01*
X172939494Y-131185537D01*
X173036185Y-131106185D01*
X173115537Y-131009494D01*
X173174502Y-130899180D01*
X173210812Y-130779482D01*
X173223072Y-130655000D01*
X173223072Y-130492298D01*
X175081903Y-130492298D01*
X175895000Y-131305395D01*
X176708097Y-130492298D01*
X176636514Y-130248329D01*
X176381004Y-130127429D01*
X176106816Y-130058700D01*
X175824488Y-130044783D01*
X175544870Y-130086213D01*
X175278708Y-130181397D01*
X175153486Y-130248329D01*
X175081903Y-130492298D01*
X173223072Y-130492298D01*
X173223072Y-130091729D01*
X176406003Y-126908799D01*
X176435001Y-126885001D01*
X176529974Y-126769276D01*
X176600546Y-126637247D01*
X176644003Y-126493986D01*
X176655000Y-126382333D01*
X176655000Y-126382325D01*
X176658676Y-126345000D01*
X176655000Y-126307675D01*
X176655000Y-125678043D01*
X176809759Y-125574637D01*
X177009637Y-125374759D01*
X177113043Y-125220000D01*
X177216957Y-125220000D01*
X177320363Y-125374759D01*
X177520241Y-125574637D01*
X177755273Y-125731680D01*
X178016426Y-125839853D01*
X178293665Y-125895000D01*
X178576335Y-125895000D01*
X178800001Y-125850509D01*
X178800002Y-126244491D01*
X178576335Y-126200000D01*
X178293665Y-126200000D01*
X178016426Y-126255147D01*
X177755273Y-126363320D01*
X177520241Y-126520363D01*
X177320363Y-126720241D01*
X177163320Y-126955273D01*
X177055147Y-127216426D01*
X177000000Y-127493665D01*
X177000000Y-127776335D01*
X177055147Y-128053574D01*
X177163320Y-128314727D01*
X177320363Y-128549759D01*
X177520241Y-128749637D01*
X177755273Y-128906680D01*
X178016426Y-129014853D01*
X178293665Y-129070000D01*
X178576335Y-129070000D01*
X178800002Y-129025509D01*
X178800002Y-129299485D01*
X178699907Y-129399580D01*
X178576335Y-129375000D01*
X178293665Y-129375000D01*
X178016426Y-129430147D01*
X177755273Y-129538320D01*
X177520241Y-129695363D01*
X177320363Y-129895241D01*
X177163320Y-130130273D01*
X177055147Y-130391426D01*
X177000000Y-130668665D01*
X177000000Y-130704852D01*
X176887702Y-130671903D01*
X176074605Y-131485000D01*
X176887702Y-132298097D01*
X177131671Y-132226514D01*
X177252571Y-131971004D01*
X177315951Y-131718156D01*
X177320363Y-131724759D01*
X177520241Y-131924637D01*
X177755273Y-132081680D01*
X178016426Y-132189853D01*
X178293665Y-132245000D01*
X178576335Y-132245000D01*
X178699907Y-132220420D01*
X181562001Y-135082514D01*
X181562000Y-141692212D01*
X181558081Y-141732000D01*
X181562000Y-141771788D01*
X181562000Y-141771790D01*
X181573720Y-141890787D01*
X181620037Y-142043472D01*
X181620038Y-142043473D01*
X181695251Y-142184189D01*
X181716014Y-142209488D01*
X181796472Y-142307528D01*
X181827388Y-142332900D01*
X183981928Y-144487441D01*
X183981928Y-145580000D01*
X183994188Y-145704482D01*
X184030498Y-145824180D01*
X184089463Y-145934494D01*
X184168815Y-146031185D01*
X184265506Y-146110537D01*
X184375820Y-146169502D01*
X184495518Y-146205812D01*
X184620000Y-146218072D01*
X185245001Y-146218072D01*
X185245000Y-151215365D01*
X185140241Y-151285363D01*
X184940363Y-151485241D01*
X184783320Y-151720273D01*
X184675147Y-151981426D01*
X184620000Y-152258665D01*
X184620000Y-152541335D01*
X184675147Y-152818574D01*
X184783320Y-153079727D01*
X184940363Y-153314759D01*
X185140241Y-153514637D01*
X185375273Y-153671680D01*
X185636426Y-153779853D01*
X185913665Y-153835000D01*
X186196335Y-153835000D01*
X186319907Y-153810420D01*
X192610393Y-160100906D01*
X192570000Y-160096928D01*
X190970000Y-160096928D01*
X190845518Y-160109188D01*
X190725820Y-160145498D01*
X190615506Y-160204463D01*
X190518815Y-160283815D01*
X190500000Y-160306741D01*
X190481185Y-160283815D01*
X190384494Y-160204463D01*
X190274180Y-160145498D01*
X190154482Y-160109188D01*
X190030000Y-160096928D01*
X188430000Y-160096928D01*
X188305518Y-160109188D01*
X188185820Y-160145498D01*
X188075506Y-160204463D01*
X187978815Y-160283815D01*
X187960000Y-160306741D01*
X187941185Y-160283815D01*
X187844494Y-160204463D01*
X187734180Y-160145498D01*
X187614482Y-160109188D01*
X187490000Y-160096928D01*
X185890000Y-160096928D01*
X185765518Y-160109188D01*
X185645820Y-160145498D01*
X185535506Y-160204463D01*
X185438815Y-160283815D01*
X185420000Y-160306741D01*
X185401185Y-160283815D01*
X185304494Y-160204463D01*
X185194180Y-160145498D01*
X185074482Y-160109188D01*
X184950000Y-160096928D01*
X183350000Y-160096928D01*
X183225518Y-160109188D01*
X183105820Y-160145498D01*
X182995506Y-160204463D01*
X182898815Y-160283815D01*
X182880000Y-160306741D01*
X182861185Y-160283815D01*
X182764494Y-160204463D01*
X182654180Y-160145498D01*
X182534482Y-160109188D01*
X182410000Y-160096928D01*
X180810000Y-160096928D01*
X180685518Y-160109188D01*
X180565820Y-160145498D01*
X180455506Y-160204463D01*
X180358815Y-160283815D01*
X180340000Y-160306741D01*
X180321185Y-160283815D01*
X180224494Y-160204463D01*
X180114180Y-160145498D01*
X179994482Y-160109188D01*
X179870000Y-160096928D01*
X178270000Y-160096928D01*
X178145518Y-160109188D01*
X178025820Y-160145498D01*
X177915506Y-160204463D01*
X177818815Y-160283815D01*
X177800000Y-160306741D01*
X177781185Y-160283815D01*
X177684494Y-160204463D01*
X177574180Y-160145498D01*
X177454482Y-160109188D01*
X177330000Y-160096928D01*
X175730000Y-160096928D01*
X175605518Y-160109188D01*
X175485820Y-160145498D01*
X175375506Y-160204463D01*
X175278815Y-160283815D01*
X175260000Y-160306741D01*
X175241185Y-160283815D01*
X175144494Y-160204463D01*
X175034180Y-160145498D01*
X174914482Y-160109188D01*
X174790000Y-160096928D01*
X173190000Y-160096928D01*
X173065518Y-160109188D01*
X172945820Y-160145498D01*
X172835506Y-160204463D01*
X172738815Y-160283815D01*
X172720000Y-160306741D01*
X172701185Y-160283815D01*
X172604494Y-160204463D01*
X172494180Y-160145498D01*
X172374482Y-160109188D01*
X172250000Y-160096928D01*
X170650000Y-160096928D01*
X170525518Y-160109188D01*
X170405820Y-160145498D01*
X170295506Y-160204463D01*
X170198815Y-160283815D01*
X170180000Y-160306741D01*
X170161185Y-160283815D01*
X170064494Y-160204463D01*
X169954180Y-160145498D01*
X169834482Y-160109188D01*
X169710000Y-160096928D01*
X168110000Y-160096928D01*
X167985518Y-160109188D01*
X167865820Y-160145498D01*
X167755506Y-160204463D01*
X167658815Y-160283815D01*
X167640000Y-160306741D01*
X167621185Y-160283815D01*
X167524494Y-160204463D01*
X167414180Y-160145498D01*
X167294482Y-160109188D01*
X167170000Y-160096928D01*
X165570000Y-160096928D01*
X165445518Y-160109188D01*
X165325820Y-160145498D01*
X165215506Y-160204463D01*
X165118815Y-160283815D01*
X165100000Y-160306741D01*
X165081185Y-160283815D01*
X164984494Y-160204463D01*
X164874180Y-160145498D01*
X164754482Y-160109188D01*
X164630000Y-160096928D01*
X164590000Y-160096928D01*
X164590000Y-159224049D01*
X164653889Y-159197586D01*
X164807028Y-159095262D01*
X164937262Y-158965028D01*
X165039586Y-158811889D01*
X165110068Y-158641729D01*
X165146000Y-158461089D01*
X165146000Y-158276911D01*
X165110068Y-158096271D01*
X165039586Y-157926111D01*
X164937262Y-157772972D01*
X164807028Y-157642738D01*
X164653889Y-157540414D01*
X164483729Y-157469932D01*
X164303089Y-157434000D01*
X164118911Y-157434000D01*
X163938271Y-157469932D01*
X163768111Y-157540414D01*
X163614972Y-157642738D01*
X163484738Y-157772972D01*
X163382414Y-157926111D01*
X163311932Y-158096271D01*
X163289089Y-158211107D01*
X163241207Y-158269453D01*
X163195026Y-158325724D01*
X163128600Y-158449998D01*
X163124454Y-158457754D01*
X163080997Y-158601015D01*
X163070000Y-158712668D01*
X163070000Y-158712678D01*
X163066324Y-158750000D01*
X163070000Y-158787323D01*
X163070000Y-160096928D01*
X163030000Y-160096928D01*
X162905518Y-160109188D01*
X162785820Y-160145498D01*
X162675506Y-160204463D01*
X162578815Y-160283815D01*
X162560000Y-160306741D01*
X162541185Y-160283815D01*
X162444494Y-160204463D01*
X162334180Y-160145498D01*
X162214482Y-160109188D01*
X162090000Y-160096928D01*
X160490000Y-160096928D01*
X160365518Y-160109188D01*
X160245820Y-160145498D01*
X160135506Y-160204463D01*
X160038815Y-160283815D01*
X160020000Y-160306741D01*
X160001185Y-160283815D01*
X159904494Y-160204463D01*
X159794180Y-160145498D01*
X159674482Y-160109188D01*
X159550000Y-160096928D01*
X157950000Y-160096928D01*
X157825518Y-160109188D01*
X157705820Y-160145498D01*
X157595506Y-160204463D01*
X157498815Y-160283815D01*
X157419463Y-160380506D01*
X157360498Y-160490820D01*
X157349220Y-160528000D01*
X157165464Y-160528000D01*
X157144172Y-160325417D01*
X157131236Y-160262399D01*
X157119174Y-160199167D01*
X157116308Y-160189677D01*
X157043013Y-159952901D01*
X157018084Y-159893597D01*
X156993971Y-159833915D01*
X156989317Y-159825163D01*
X156871429Y-159607133D01*
X156835459Y-159553805D01*
X156800207Y-159499935D01*
X156793941Y-159492253D01*
X156635949Y-159301273D01*
X156590294Y-159255936D01*
X156545264Y-159209953D01*
X156537626Y-159203634D01*
X156345548Y-159046979D01*
X156291959Y-159011375D01*
X156238850Y-158975011D01*
X156230130Y-158970296D01*
X156011283Y-158853934D01*
X155951792Y-158829413D01*
X155892643Y-158804062D01*
X155883173Y-158801131D01*
X155883175Y-158801131D01*
X155883167Y-158801129D01*
X155645892Y-158729491D01*
X155582795Y-158716997D01*
X155519821Y-158703612D01*
X155509966Y-158702576D01*
X155509962Y-158702576D01*
X155264014Y-158678461D01*
X155228877Y-158675000D01*
X154974720Y-158675000D01*
X154831891Y-158660995D01*
X154727901Y-158629599D01*
X154631987Y-158578601D01*
X154547801Y-158509941D01*
X154478561Y-158426243D01*
X154426895Y-158330689D01*
X154394773Y-158226922D01*
X154380000Y-158086359D01*
X154380000Y-152128816D01*
X163565000Y-152128816D01*
X163565000Y-152431184D01*
X163623989Y-152727743D01*
X163739701Y-153007095D01*
X163907688Y-153258505D01*
X164121495Y-153472312D01*
X164372905Y-153640299D01*
X164652257Y-153756011D01*
X164948816Y-153815000D01*
X165251184Y-153815000D01*
X165547743Y-153756011D01*
X165827095Y-153640299D01*
X166078505Y-153472312D01*
X166292312Y-153258505D01*
X166438313Y-153040000D01*
X168484678Y-153040000D01*
X168522000Y-153043676D01*
X168559322Y-153040000D01*
X168559333Y-153040000D01*
X168670986Y-153029003D01*
X168814247Y-152985546D01*
X168946276Y-152914974D01*
X169062001Y-152820001D01*
X169085804Y-152790997D01*
X176406004Y-145470798D01*
X176435001Y-145447001D01*
X176529974Y-145331276D01*
X176573749Y-145249381D01*
X176565000Y-145293363D01*
X176565000Y-145536637D01*
X176571398Y-145568801D01*
X176363988Y-145776211D01*
X176334990Y-145800009D01*
X176311192Y-145829007D01*
X176311191Y-145829008D01*
X176240016Y-145915734D01*
X176169444Y-146047764D01*
X176166134Y-146058677D01*
X176125988Y-146191024D01*
X176123796Y-146213279D01*
X176111314Y-146340010D01*
X176114991Y-146377342D01*
X176114990Y-150802667D01*
X176111314Y-150839990D01*
X176114990Y-150877312D01*
X176114990Y-150877322D01*
X176125987Y-150988975D01*
X176143369Y-151046276D01*
X176169444Y-151132236D01*
X176240016Y-151264266D01*
X176279462Y-151312331D01*
X176334989Y-151379991D01*
X176363993Y-151403794D01*
X177036312Y-152076114D01*
X177000000Y-152258665D01*
X177000000Y-152541335D01*
X177055147Y-152818574D01*
X177163320Y-153079727D01*
X177320363Y-153314759D01*
X177520241Y-153514637D01*
X177675000Y-153618044D01*
X177675001Y-154356956D01*
X177520241Y-154460363D01*
X177320363Y-154660241D01*
X177163320Y-154895273D01*
X177055147Y-155156426D01*
X177000000Y-155433665D01*
X177000000Y-155716335D01*
X177055147Y-155993574D01*
X177163320Y-156254727D01*
X177320363Y-156489759D01*
X177520241Y-156689637D01*
X177755273Y-156846680D01*
X178016426Y-156954853D01*
X178293665Y-157010000D01*
X178576335Y-157010000D01*
X178853574Y-156954853D01*
X179114727Y-156846680D01*
X179349759Y-156689637D01*
X179549637Y-156489759D01*
X179706680Y-156254727D01*
X179814853Y-155993574D01*
X179870000Y-155716335D01*
X179870000Y-155433665D01*
X184620000Y-155433665D01*
X184620000Y-155716335D01*
X184675147Y-155993574D01*
X184783320Y-156254727D01*
X184940363Y-156489759D01*
X185140241Y-156689637D01*
X185375273Y-156846680D01*
X185636426Y-156954853D01*
X185913665Y-157010000D01*
X186196335Y-157010000D01*
X186473574Y-156954853D01*
X186734727Y-156846680D01*
X186969759Y-156689637D01*
X187169637Y-156489759D01*
X187326680Y-156254727D01*
X187434853Y-155993574D01*
X187490000Y-155716335D01*
X187490000Y-155433665D01*
X187434853Y-155156426D01*
X187326680Y-154895273D01*
X187169637Y-154660241D01*
X186969759Y-154460363D01*
X186734727Y-154303320D01*
X186473574Y-154195147D01*
X186196335Y-154140000D01*
X185913665Y-154140000D01*
X185636426Y-154195147D01*
X185375273Y-154303320D01*
X185140241Y-154460363D01*
X184940363Y-154660241D01*
X184783320Y-154895273D01*
X184675147Y-155156426D01*
X184620000Y-155433665D01*
X179870000Y-155433665D01*
X179814853Y-155156426D01*
X179706680Y-154895273D01*
X179549637Y-154660241D01*
X179349759Y-154460363D01*
X179195000Y-154356957D01*
X179195000Y-153618043D01*
X179349759Y-153514637D01*
X179549637Y-153314759D01*
X179706680Y-153079727D01*
X179814853Y-152818574D01*
X179870000Y-152541335D01*
X179870000Y-152258665D01*
X179814853Y-151981426D01*
X179706680Y-151720273D01*
X179549637Y-151485241D01*
X179349759Y-151285363D01*
X179114727Y-151128320D01*
X178853574Y-151020147D01*
X178576335Y-150965000D01*
X178293665Y-150965000D01*
X178111114Y-151001312D01*
X177634990Y-150525189D01*
X177634990Y-149248604D01*
X177673000Y-149223731D01*
X177673000Y-148082000D01*
X177927000Y-148082000D01*
X177927000Y-149223731D01*
X178117609Y-149348462D01*
X178160162Y-149342477D01*
X178384907Y-149249396D01*
X178587174Y-149114258D01*
X178759191Y-148942256D01*
X178894346Y-148740000D01*
X178987446Y-148515263D01*
X179034913Y-148276681D01*
X178879994Y-148082000D01*
X177927000Y-148082000D01*
X177673000Y-148082000D01*
X177653000Y-148082000D01*
X177653000Y-147828000D01*
X177673000Y-147828000D01*
X177673000Y-147808000D01*
X177927000Y-147808000D01*
X177927000Y-147828000D01*
X178602235Y-147828000D01*
X178709764Y-147872540D01*
X178948363Y-147920000D01*
X179191637Y-147920000D01*
X179430236Y-147872540D01*
X179654992Y-147779443D01*
X179857267Y-147644287D01*
X180029287Y-147472267D01*
X180164443Y-147269992D01*
X180257540Y-147045236D01*
X180305000Y-146806637D01*
X180305000Y-146563363D01*
X180257540Y-146324764D01*
X180164443Y-146100008D01*
X180029287Y-145897733D01*
X179857267Y-145725713D01*
X179654992Y-145590557D01*
X179430236Y-145497460D01*
X179191637Y-145450000D01*
X179035000Y-145450000D01*
X179035000Y-145293363D01*
X178987540Y-145054764D01*
X178894443Y-144830008D01*
X178759287Y-144627733D01*
X178587267Y-144455713D01*
X178384992Y-144320557D01*
X178160236Y-144227460D01*
X177921637Y-144180000D01*
X177678363Y-144180000D01*
X177439764Y-144227460D01*
X177215008Y-144320557D01*
X177012733Y-144455713D01*
X176840713Y-144627733D01*
X176705557Y-144830008D01*
X176654001Y-144954475D01*
X176655000Y-144944333D01*
X176655000Y-144944332D01*
X176658677Y-144907000D01*
X176655000Y-144869667D01*
X176655000Y-141560465D01*
X176664003Y-141530786D01*
X176675000Y-141419133D01*
X176675000Y-141419123D01*
X176678676Y-141381801D01*
X176675000Y-141344478D01*
X176675000Y-140146046D01*
X176769494Y-140095537D01*
X176866185Y-140016185D01*
X176945537Y-139919494D01*
X177004502Y-139809180D01*
X177040812Y-139689482D01*
X177053072Y-139565000D01*
X177276928Y-139565000D01*
X177289188Y-139689482D01*
X177325498Y-139809180D01*
X177384463Y-139919494D01*
X177463815Y-140016185D01*
X177560506Y-140095537D01*
X177670820Y-140154502D01*
X177790518Y-140190812D01*
X177915000Y-140203072D01*
X178129250Y-140200000D01*
X178288000Y-140041250D01*
X178288000Y-139192000D01*
X178542000Y-139192000D01*
X178542000Y-140041250D01*
X178700750Y-140200000D01*
X178915000Y-140203072D01*
X179039482Y-140190812D01*
X179159180Y-140154502D01*
X179269494Y-140095537D01*
X179366185Y-140016185D01*
X179445537Y-139919494D01*
X179504502Y-139809180D01*
X179540812Y-139689482D01*
X179553072Y-139565000D01*
X179550000Y-139350750D01*
X179391250Y-139192000D01*
X178542000Y-139192000D01*
X178288000Y-139192000D01*
X177438750Y-139192000D01*
X177280000Y-139350750D01*
X177276928Y-139565000D01*
X177053072Y-139565000D01*
X177053072Y-138565000D01*
X177276928Y-138565000D01*
X177280000Y-138779250D01*
X177438750Y-138938000D01*
X178288000Y-138938000D01*
X178288000Y-138088750D01*
X178542000Y-138088750D01*
X178542000Y-138938000D01*
X179391250Y-138938000D01*
X179550000Y-138779250D01*
X179553072Y-138565000D01*
X179540812Y-138440518D01*
X179504502Y-138320820D01*
X179445537Y-138210506D01*
X179366185Y-138113815D01*
X179269494Y-138034463D01*
X179159180Y-137975498D01*
X179039482Y-137939188D01*
X178915000Y-137926928D01*
X178700750Y-137930000D01*
X178542000Y-138088750D01*
X178288000Y-138088750D01*
X178129250Y-137930000D01*
X177915000Y-137926928D01*
X177790518Y-137939188D01*
X177670820Y-137975498D01*
X177560506Y-138034463D01*
X177463815Y-138113815D01*
X177384463Y-138210506D01*
X177325498Y-138320820D01*
X177289188Y-138440518D01*
X177276928Y-138565000D01*
X177053072Y-138565000D01*
X177040812Y-138440518D01*
X177004502Y-138320820D01*
X176945537Y-138210506D01*
X176866185Y-138113815D01*
X176769494Y-138034463D01*
X176675000Y-137983954D01*
X176675000Y-135189680D01*
X176809759Y-135099637D01*
X177009637Y-134899759D01*
X177113043Y-134745000D01*
X177216957Y-134745000D01*
X177320363Y-134899759D01*
X177520241Y-135099637D01*
X177755273Y-135256680D01*
X178016426Y-135364853D01*
X178293665Y-135420000D01*
X178576335Y-135420000D01*
X178853574Y-135364853D01*
X179114727Y-135256680D01*
X179349759Y-135099637D01*
X179549637Y-134899759D01*
X179706680Y-134664727D01*
X179814853Y-134403574D01*
X179870000Y-134126335D01*
X179870000Y-133843665D01*
X179814853Y-133566426D01*
X179706680Y-133305273D01*
X179549637Y-133070241D01*
X179349759Y-132870363D01*
X179114727Y-132713320D01*
X178853574Y-132605147D01*
X178576335Y-132550000D01*
X178293665Y-132550000D01*
X178016426Y-132605147D01*
X177755273Y-132713320D01*
X177520241Y-132870363D01*
X177320363Y-133070241D01*
X177216957Y-133225000D01*
X177113043Y-133225000D01*
X177009637Y-133070241D01*
X176809759Y-132870363D01*
X176609131Y-132736308D01*
X176636514Y-132721671D01*
X176708097Y-132477702D01*
X175895000Y-131664605D01*
X175081903Y-132477702D01*
X175153486Y-132721671D01*
X175182341Y-132735324D01*
X174980241Y-132870363D01*
X174780363Y-133070241D01*
X174623320Y-133305273D01*
X174515147Y-133566426D01*
X174460000Y-133843665D01*
X174460000Y-134126335D01*
X174515147Y-134403574D01*
X174623320Y-134664727D01*
X174780363Y-134899759D01*
X174980241Y-135099637D01*
X175135001Y-135203044D01*
X175135000Y-137994644D01*
X175060506Y-138034463D01*
X174963815Y-138113815D01*
X174884463Y-138210506D01*
X174825498Y-138320820D01*
X174789188Y-138440518D01*
X174776928Y-138565000D01*
X174776928Y-139565000D01*
X174789188Y-139689482D01*
X174825498Y-139809180D01*
X174884463Y-139919494D01*
X174963815Y-140016185D01*
X175060506Y-140095537D01*
X175135000Y-140135356D01*
X175135000Y-141364478D01*
X175131324Y-141401800D01*
X175135000Y-141439122D01*
X175135000Y-141439132D01*
X175135001Y-141439142D01*
X175135000Y-144592198D01*
X168207199Y-151520000D01*
X166438313Y-151520000D01*
X166292312Y-151301495D01*
X166078505Y-151087688D01*
X165827095Y-150919701D01*
X165547743Y-150803989D01*
X165251184Y-150745000D01*
X164948816Y-150745000D01*
X164652257Y-150803989D01*
X164372905Y-150919701D01*
X164121495Y-151087688D01*
X163907688Y-151301495D01*
X163739701Y-151552905D01*
X163623989Y-151832257D01*
X163565000Y-152128816D01*
X154380000Y-152128816D01*
X154380000Y-148859382D01*
X154487384Y-148912216D01*
X154817585Y-149000369D01*
X155158639Y-149022409D01*
X155497439Y-148977489D01*
X155820966Y-148867336D01*
X156019274Y-148761338D01*
X156127107Y-148486712D01*
X155100000Y-147459605D01*
X155085858Y-147473748D01*
X154906253Y-147294143D01*
X154920395Y-147280000D01*
X155279605Y-147280000D01*
X156306712Y-148307107D01*
X156581338Y-148199274D01*
X156732216Y-147892616D01*
X156820369Y-147562415D01*
X156842409Y-147221361D01*
X156797489Y-146882561D01*
X156687336Y-146559034D01*
X156581338Y-146360726D01*
X156306712Y-146252893D01*
X155279605Y-147280000D01*
X154920395Y-147280000D01*
X154906253Y-147265858D01*
X155085858Y-147086253D01*
X155100000Y-147100395D01*
X156127107Y-146073288D01*
X156019274Y-145798662D01*
X155712616Y-145647784D01*
X155382415Y-145559631D01*
X155041361Y-145537591D01*
X154702561Y-145582511D01*
X154380000Y-145692335D01*
X154380000Y-143859382D01*
X154487384Y-143912216D01*
X154817585Y-144000369D01*
X155158639Y-144022409D01*
X155497439Y-143977489D01*
X155820966Y-143867336D01*
X156019274Y-143761338D01*
X156127107Y-143486712D01*
X155100000Y-142459605D01*
X155085858Y-142473748D01*
X154906253Y-142294143D01*
X154920395Y-142280000D01*
X155279605Y-142280000D01*
X156306712Y-143307107D01*
X156581338Y-143199274D01*
X156732216Y-142892616D01*
X156820369Y-142562415D01*
X156842409Y-142221361D01*
X156797489Y-141882561D01*
X156687336Y-141559034D01*
X156581338Y-141360726D01*
X156306712Y-141252893D01*
X155279605Y-142280000D01*
X154920395Y-142280000D01*
X154906253Y-142265858D01*
X155085858Y-142086253D01*
X155100000Y-142100395D01*
X156127107Y-141073288D01*
X156019274Y-140798662D01*
X155712616Y-140647784D01*
X155382415Y-140559631D01*
X155041361Y-140537591D01*
X154702561Y-140582511D01*
X154380000Y-140692335D01*
X154380000Y-116554040D01*
X156723091Y-116554040D01*
X156817930Y-116818881D01*
X156962615Y-117060131D01*
X157151586Y-117268519D01*
X157377580Y-117436037D01*
X157631913Y-117556246D01*
X157765961Y-117596904D01*
X157988000Y-117474915D01*
X157988000Y-116332000D01*
X158242000Y-116332000D01*
X158242000Y-117474915D01*
X158464039Y-117596904D01*
X158598087Y-117556246D01*
X158852420Y-117436037D01*
X159078414Y-117268519D01*
X159267385Y-117060131D01*
X159412070Y-116818881D01*
X159506909Y-116554040D01*
X159385624Y-116332000D01*
X158242000Y-116332000D01*
X157988000Y-116332000D01*
X156844376Y-116332000D01*
X156723091Y-116554040D01*
X154380000Y-116554040D01*
X154380000Y-115855960D01*
X156723091Y-115855960D01*
X156844376Y-116078000D01*
X157988000Y-116078000D01*
X157988000Y-114935085D01*
X158242000Y-114935085D01*
X158242000Y-116078000D01*
X159385624Y-116078000D01*
X159506909Y-115855960D01*
X159412070Y-115591119D01*
X159267385Y-115349869D01*
X159078414Y-115141481D01*
X158852420Y-114973963D01*
X158598087Y-114853754D01*
X158464039Y-114813096D01*
X158242000Y-114935085D01*
X157988000Y-114935085D01*
X157765961Y-114813096D01*
X157631913Y-114853754D01*
X157377580Y-114973963D01*
X157151586Y-115141481D01*
X156962615Y-115349869D01*
X156817930Y-115591119D01*
X156723091Y-115855960D01*
X154380000Y-115855960D01*
X154380000Y-104267000D01*
X252020000Y-104267000D01*
X252020001Y-158080269D01*
G37*
G04 #@! TD.AperFunction*
D23*
X230507000Y-148044678D02*
X230503324Y-148082000D01*
X230507000Y-148119322D01*
X230507000Y-148119332D01*
X230517997Y-148230985D01*
X230541088Y-148307107D01*
X230561454Y-148374246D01*
X230632026Y-148506276D01*
X230671871Y-148554826D01*
X230726999Y-148622001D01*
X230756003Y-148645804D01*
X233285405Y-151175206D01*
X233186335Y-151155500D01*
X232903665Y-151155500D01*
X232626426Y-151210647D01*
X232365273Y-151318820D01*
X232130241Y-151475863D01*
X231930363Y-151675741D01*
X231773320Y-151910773D01*
X231665147Y-152171926D01*
X231610000Y-152449165D01*
X231610000Y-152731835D01*
X231665147Y-153009074D01*
X231773320Y-153270227D01*
X231930363Y-153505259D01*
X232130241Y-153705137D01*
X232330869Y-153839192D01*
X232303486Y-153853829D01*
X232231903Y-154097798D01*
X233045000Y-154910895D01*
X233858097Y-154097798D01*
X233786514Y-153853829D01*
X233757659Y-153840176D01*
X233959759Y-153705137D01*
X234159637Y-153505259D01*
X234316680Y-153270227D01*
X234424853Y-153009074D01*
X234480000Y-152731835D01*
X234480000Y-152449165D01*
X234460294Y-152350095D01*
X234782296Y-152672098D01*
X234782295Y-158288972D01*
X234778619Y-158326295D01*
X234782295Y-158363617D01*
X234782295Y-158363627D01*
X234793292Y-158475280D01*
X234831432Y-158601014D01*
X234836749Y-158618541D01*
X234907321Y-158750571D01*
X234943786Y-158795003D01*
X235002294Y-158866296D01*
X235031298Y-158890099D01*
X236342124Y-160200926D01*
X236335506Y-160204463D01*
X236238815Y-160283815D01*
X236220000Y-160306741D01*
X236201185Y-160283815D01*
X236104494Y-160204463D01*
X235994180Y-160145498D01*
X235874482Y-160109188D01*
X235750000Y-160096928D01*
X234150000Y-160096928D01*
X234025518Y-160109188D01*
X233905820Y-160145498D01*
X233795506Y-160204463D01*
X233698815Y-160283815D01*
X233680000Y-160306741D01*
X233661185Y-160283815D01*
X233564494Y-160204463D01*
X233454180Y-160145498D01*
X233334482Y-160109188D01*
X233210000Y-160096928D01*
X231610000Y-160096928D01*
X231485518Y-160109188D01*
X231365820Y-160145498D01*
X231255506Y-160204463D01*
X231158815Y-160283815D01*
X231140000Y-160306741D01*
X231121185Y-160283815D01*
X231024494Y-160204463D01*
X230914180Y-160145498D01*
X230794482Y-160109188D01*
X230670000Y-160096928D01*
X229070000Y-160096928D01*
X228945518Y-160109188D01*
X228825820Y-160145498D01*
X228715506Y-160204463D01*
X228618815Y-160283815D01*
X228600000Y-160306741D01*
X228581185Y-160283815D01*
X228484494Y-160204463D01*
X228374180Y-160145498D01*
X228254482Y-160109188D01*
X228130000Y-160096928D01*
X226530000Y-160096928D01*
X226405518Y-160109188D01*
X226285820Y-160145498D01*
X226175506Y-160204463D01*
X226078815Y-160283815D01*
X226060000Y-160306741D01*
X226041185Y-160283815D01*
X225944494Y-160204463D01*
X225937876Y-160200925D01*
X227587003Y-158551799D01*
X227616001Y-158528001D01*
X227710974Y-158412276D01*
X227781546Y-158280247D01*
X227825003Y-158136986D01*
X227836000Y-158025333D01*
X227836000Y-158025324D01*
X227839676Y-157988001D01*
X227836000Y-157950678D01*
X227836000Y-155262317D01*
X227855147Y-155358574D01*
X227963320Y-155619727D01*
X228120363Y-155854759D01*
X228320241Y-156054637D01*
X228555273Y-156211680D01*
X228816426Y-156319853D01*
X229093665Y-156375000D01*
X229376335Y-156375000D01*
X229653574Y-156319853D01*
X229914727Y-156211680D01*
X230107008Y-156083202D01*
X232231903Y-156083202D01*
X232303486Y-156327171D01*
X232558996Y-156448071D01*
X232833184Y-156516800D01*
X233115512Y-156530717D01*
X233395130Y-156489287D01*
X233661292Y-156394103D01*
X233786514Y-156327171D01*
X233858097Y-156083202D01*
X233045000Y-155270105D01*
X232231903Y-156083202D01*
X230107008Y-156083202D01*
X230149759Y-156054637D01*
X230349637Y-155854759D01*
X230506680Y-155619727D01*
X230614853Y-155358574D01*
X230654151Y-155161012D01*
X231604783Y-155161012D01*
X231646213Y-155440630D01*
X231741397Y-155706792D01*
X231808329Y-155832014D01*
X232052298Y-155903597D01*
X232865395Y-155090500D01*
X233224605Y-155090500D01*
X234037702Y-155903597D01*
X234281671Y-155832014D01*
X234402571Y-155576504D01*
X234471300Y-155302316D01*
X234485217Y-155019988D01*
X234443787Y-154740370D01*
X234348603Y-154474208D01*
X234281671Y-154348986D01*
X234037702Y-154277403D01*
X233224605Y-155090500D01*
X232865395Y-155090500D01*
X232052298Y-154277403D01*
X231808329Y-154348986D01*
X231687429Y-154604496D01*
X231618700Y-154878684D01*
X231604783Y-155161012D01*
X230654151Y-155161012D01*
X230670000Y-155081335D01*
X230670000Y-154798665D01*
X230614853Y-154521426D01*
X230506680Y-154260273D01*
X230349637Y-154025241D01*
X230149759Y-153825363D01*
X229917241Y-153670000D01*
X230149759Y-153514637D01*
X230349637Y-153314759D01*
X230506680Y-153079727D01*
X230614853Y-152818574D01*
X230670000Y-152541335D01*
X230670000Y-152258665D01*
X230614853Y-151981426D01*
X230506680Y-151720273D01*
X230349637Y-151485241D01*
X230149759Y-151285363D01*
X229917241Y-151130000D01*
X230149759Y-150974637D01*
X230349637Y-150774759D01*
X230506680Y-150539727D01*
X230614853Y-150278574D01*
X230670000Y-150001335D01*
X230670000Y-149718665D01*
X230614853Y-149441426D01*
X230506680Y-149180273D01*
X230349637Y-148945241D01*
X230149759Y-148745363D01*
X229917241Y-148590000D01*
X230149759Y-148434637D01*
X230349637Y-148234759D01*
X230506680Y-147999727D01*
X230507000Y-147998954D01*
X230507000Y-148044678D01*
G04 #@! TA.AperFunction,Conductor*
D24*
G36*
X230507000Y-148044678D02*
G01*
X230503324Y-148082000D01*
X230507000Y-148119322D01*
X230507000Y-148119332D01*
X230517997Y-148230985D01*
X230541088Y-148307107D01*
X230561454Y-148374246D01*
X230632026Y-148506276D01*
X230671871Y-148554826D01*
X230726999Y-148622001D01*
X230756003Y-148645804D01*
X233285405Y-151175206D01*
X233186335Y-151155500D01*
X232903665Y-151155500D01*
X232626426Y-151210647D01*
X232365273Y-151318820D01*
X232130241Y-151475863D01*
X231930363Y-151675741D01*
X231773320Y-151910773D01*
X231665147Y-152171926D01*
X231610000Y-152449165D01*
X231610000Y-152731835D01*
X231665147Y-153009074D01*
X231773320Y-153270227D01*
X231930363Y-153505259D01*
X232130241Y-153705137D01*
X232330869Y-153839192D01*
X232303486Y-153853829D01*
X232231903Y-154097798D01*
X233045000Y-154910895D01*
X233858097Y-154097798D01*
X233786514Y-153853829D01*
X233757659Y-153840176D01*
X233959759Y-153705137D01*
X234159637Y-153505259D01*
X234316680Y-153270227D01*
X234424853Y-153009074D01*
X234480000Y-152731835D01*
X234480000Y-152449165D01*
X234460294Y-152350095D01*
X234782296Y-152672098D01*
X234782295Y-158288972D01*
X234778619Y-158326295D01*
X234782295Y-158363617D01*
X234782295Y-158363627D01*
X234793292Y-158475280D01*
X234831432Y-158601014D01*
X234836749Y-158618541D01*
X234907321Y-158750571D01*
X234943786Y-158795003D01*
X235002294Y-158866296D01*
X235031298Y-158890099D01*
X236342124Y-160200926D01*
X236335506Y-160204463D01*
X236238815Y-160283815D01*
X236220000Y-160306741D01*
X236201185Y-160283815D01*
X236104494Y-160204463D01*
X235994180Y-160145498D01*
X235874482Y-160109188D01*
X235750000Y-160096928D01*
X234150000Y-160096928D01*
X234025518Y-160109188D01*
X233905820Y-160145498D01*
X233795506Y-160204463D01*
X233698815Y-160283815D01*
X233680000Y-160306741D01*
X233661185Y-160283815D01*
X233564494Y-160204463D01*
X233454180Y-160145498D01*
X233334482Y-160109188D01*
X233210000Y-160096928D01*
X231610000Y-160096928D01*
X231485518Y-160109188D01*
X231365820Y-160145498D01*
X231255506Y-160204463D01*
X231158815Y-160283815D01*
X231140000Y-160306741D01*
X231121185Y-160283815D01*
X231024494Y-160204463D01*
X230914180Y-160145498D01*
X230794482Y-160109188D01*
X230670000Y-160096928D01*
X229070000Y-160096928D01*
X228945518Y-160109188D01*
X228825820Y-160145498D01*
X228715506Y-160204463D01*
X228618815Y-160283815D01*
X228600000Y-160306741D01*
X228581185Y-160283815D01*
X228484494Y-160204463D01*
X228374180Y-160145498D01*
X228254482Y-160109188D01*
X228130000Y-160096928D01*
X226530000Y-160096928D01*
X226405518Y-160109188D01*
X226285820Y-160145498D01*
X226175506Y-160204463D01*
X226078815Y-160283815D01*
X226060000Y-160306741D01*
X226041185Y-160283815D01*
X225944494Y-160204463D01*
X225937876Y-160200925D01*
X227587003Y-158551799D01*
X227616001Y-158528001D01*
X227710974Y-158412276D01*
X227781546Y-158280247D01*
X227825003Y-158136986D01*
X227836000Y-158025333D01*
X227836000Y-158025324D01*
X227839676Y-157988001D01*
X227836000Y-157950678D01*
X227836000Y-155262317D01*
X227855147Y-155358574D01*
X227963320Y-155619727D01*
X228120363Y-155854759D01*
X228320241Y-156054637D01*
X228555273Y-156211680D01*
X228816426Y-156319853D01*
X229093665Y-156375000D01*
X229376335Y-156375000D01*
X229653574Y-156319853D01*
X229914727Y-156211680D01*
X230107008Y-156083202D01*
X232231903Y-156083202D01*
X232303486Y-156327171D01*
X232558996Y-156448071D01*
X232833184Y-156516800D01*
X233115512Y-156530717D01*
X233395130Y-156489287D01*
X233661292Y-156394103D01*
X233786514Y-156327171D01*
X233858097Y-156083202D01*
X233045000Y-155270105D01*
X232231903Y-156083202D01*
X230107008Y-156083202D01*
X230149759Y-156054637D01*
X230349637Y-155854759D01*
X230506680Y-155619727D01*
X230614853Y-155358574D01*
X230654151Y-155161012D01*
X231604783Y-155161012D01*
X231646213Y-155440630D01*
X231741397Y-155706792D01*
X231808329Y-155832014D01*
X232052298Y-155903597D01*
X232865395Y-155090500D01*
X233224605Y-155090500D01*
X234037702Y-155903597D01*
X234281671Y-155832014D01*
X234402571Y-155576504D01*
X234471300Y-155302316D01*
X234485217Y-155019988D01*
X234443787Y-154740370D01*
X234348603Y-154474208D01*
X234281671Y-154348986D01*
X234037702Y-154277403D01*
X233224605Y-155090500D01*
X232865395Y-155090500D01*
X232052298Y-154277403D01*
X231808329Y-154348986D01*
X231687429Y-154604496D01*
X231618700Y-154878684D01*
X231604783Y-155161012D01*
X230654151Y-155161012D01*
X230670000Y-155081335D01*
X230670000Y-154798665D01*
X230614853Y-154521426D01*
X230506680Y-154260273D01*
X230349637Y-154025241D01*
X230149759Y-153825363D01*
X229917241Y-153670000D01*
X230149759Y-153514637D01*
X230349637Y-153314759D01*
X230506680Y-153079727D01*
X230614853Y-152818574D01*
X230670000Y-152541335D01*
X230670000Y-152258665D01*
X230614853Y-151981426D01*
X230506680Y-151720273D01*
X230349637Y-151485241D01*
X230149759Y-151285363D01*
X229917241Y-151130000D01*
X230149759Y-150974637D01*
X230349637Y-150774759D01*
X230506680Y-150539727D01*
X230614853Y-150278574D01*
X230670000Y-150001335D01*
X230670000Y-149718665D01*
X230614853Y-149441426D01*
X230506680Y-149180273D01*
X230349637Y-148945241D01*
X230149759Y-148745363D01*
X229917241Y-148590000D01*
X230149759Y-148434637D01*
X230349637Y-148234759D01*
X230506680Y-147999727D01*
X230507000Y-147998954D01*
X230507000Y-148044678D01*
G37*
G04 #@! TD.AperFunction*
D23*
X176450000Y-120070201D02*
X176446080Y-120109999D01*
X176460304Y-120254409D01*
X176461720Y-120268787D01*
X176467466Y-120287729D01*
X176508037Y-120421472D01*
X176583250Y-120562188D01*
X176638851Y-120629938D01*
X176684472Y-120685527D01*
X176715382Y-120710894D01*
X177024580Y-121020093D01*
X177000000Y-121143665D01*
X177000000Y-121179852D01*
X176887702Y-121146903D01*
X176074605Y-121960000D01*
X176887702Y-122773097D01*
X177131671Y-122701514D01*
X177252571Y-122446004D01*
X177315951Y-122193156D01*
X177320363Y-122199759D01*
X177520241Y-122399637D01*
X177755273Y-122556680D01*
X178016426Y-122664853D01*
X178293665Y-122720000D01*
X178576335Y-122720000D01*
X178699907Y-122695420D01*
X178800001Y-122795514D01*
X178800001Y-123069491D01*
X178576335Y-123025000D01*
X178293665Y-123025000D01*
X178016426Y-123080147D01*
X177755273Y-123188320D01*
X177520241Y-123345363D01*
X177320363Y-123545241D01*
X177216957Y-123700000D01*
X177113043Y-123700000D01*
X177009637Y-123545241D01*
X176809759Y-123345363D01*
X176609131Y-123211308D01*
X176636514Y-123196671D01*
X176708097Y-122952702D01*
X175895000Y-122139605D01*
X175081903Y-122952702D01*
X175153486Y-123196671D01*
X175182341Y-123210324D01*
X174980241Y-123345363D01*
X174780363Y-123545241D01*
X174623320Y-123780273D01*
X174515147Y-124041426D01*
X174460000Y-124318665D01*
X174460000Y-124601335D01*
X174515147Y-124878574D01*
X174623320Y-125139727D01*
X174780363Y-125374759D01*
X174980241Y-125574637D01*
X175135001Y-125678044D01*
X175135001Y-126030197D01*
X173220063Y-127945136D01*
X173220000Y-127940750D01*
X173061250Y-127782000D01*
X172212000Y-127782000D01*
X172212000Y-128631250D01*
X172370750Y-128790000D01*
X172375136Y-128790063D01*
X172148271Y-129016928D01*
X171585000Y-129016928D01*
X171460518Y-129029188D01*
X171340820Y-129065498D01*
X171230506Y-129124463D01*
X171133815Y-129203815D01*
X171054463Y-129300506D01*
X170995498Y-129410820D01*
X170959188Y-129530518D01*
X170946928Y-129655000D01*
X170946928Y-130655000D01*
X170959188Y-130779482D01*
X170995498Y-130899180D01*
X171054463Y-131009494D01*
X171133815Y-131106185D01*
X171230506Y-131185537D01*
X171325000Y-131236046D01*
X171325001Y-143850417D01*
X171292312Y-143801495D01*
X171078505Y-143587688D01*
X170827095Y-143419701D01*
X170547743Y-143303989D01*
X170251184Y-143245000D01*
X169948816Y-143245000D01*
X169652257Y-143303989D01*
X169372905Y-143419701D01*
X169121495Y-143587688D01*
X168907688Y-143801495D01*
X168739701Y-144052905D01*
X168623989Y-144332257D01*
X168565000Y-144628816D01*
X168565000Y-144931184D01*
X168616269Y-145188930D01*
X168560198Y-145245001D01*
X166568862Y-145245001D01*
X166576011Y-145227743D01*
X166635000Y-144931184D01*
X166635000Y-144628816D01*
X166583731Y-144371070D01*
X170310004Y-140644798D01*
X170339001Y-140621001D01*
X170433974Y-140505276D01*
X170504546Y-140373247D01*
X170548003Y-140229986D01*
X170559000Y-140118333D01*
X170559000Y-140118332D01*
X170562677Y-140081000D01*
X170559000Y-140043667D01*
X170559000Y-132396723D01*
X170562676Y-132359400D01*
X170559000Y-132322077D01*
X170559000Y-132322067D01*
X170548003Y-132210414D01*
X170504546Y-132067153D01*
X170433974Y-131935124D01*
X170339001Y-131819399D01*
X170310003Y-131795601D01*
X169722425Y-131208024D01*
X169764494Y-131185537D01*
X169861185Y-131106185D01*
X169940537Y-131009494D01*
X169999502Y-130899180D01*
X170035812Y-130779482D01*
X170048072Y-130655000D01*
X170048072Y-129655000D01*
X170035812Y-129530518D01*
X169999502Y-129410820D01*
X169940537Y-129300506D01*
X169919603Y-129274998D01*
X170310004Y-128884598D01*
X170339001Y-128860801D01*
X170433974Y-128745076D01*
X170504546Y-128613047D01*
X170548003Y-128469786D01*
X170559000Y-128358133D01*
X170559000Y-128358123D01*
X170562676Y-128320800D01*
X170559000Y-128283477D01*
X170559000Y-128155000D01*
X170946928Y-128155000D01*
X170959188Y-128279482D01*
X170995498Y-128399180D01*
X171054463Y-128509494D01*
X171133815Y-128606185D01*
X171230506Y-128685537D01*
X171340820Y-128744502D01*
X171460518Y-128780812D01*
X171585000Y-128793072D01*
X171799250Y-128790000D01*
X171958000Y-128631250D01*
X171958000Y-127782000D01*
X171108750Y-127782000D01*
X170950000Y-127940750D01*
X170946928Y-128155000D01*
X170559000Y-128155000D01*
X170559000Y-127155000D01*
X170946928Y-127155000D01*
X170950000Y-127369250D01*
X171108750Y-127528000D01*
X171958000Y-127528000D01*
X171958000Y-126678750D01*
X172212000Y-126678750D01*
X172212000Y-127528000D01*
X173061250Y-127528000D01*
X173220000Y-127369250D01*
X173223072Y-127155000D01*
X173210812Y-127030518D01*
X173174502Y-126910820D01*
X173115537Y-126800506D01*
X173036185Y-126703815D01*
X172939494Y-126624463D01*
X172829180Y-126565498D01*
X172709482Y-126529188D01*
X172585000Y-126516928D01*
X172370750Y-126520000D01*
X172212000Y-126678750D01*
X171958000Y-126678750D01*
X171799250Y-126520000D01*
X171585000Y-126516928D01*
X171460518Y-126529188D01*
X171340820Y-126565498D01*
X171230506Y-126624463D01*
X171133815Y-126703815D01*
X171054463Y-126800506D01*
X170995498Y-126910820D01*
X170959188Y-127030518D01*
X170946928Y-127155000D01*
X170559000Y-127155000D01*
X170559000Y-122030512D01*
X174454783Y-122030512D01*
X174496213Y-122310130D01*
X174591397Y-122576292D01*
X174658329Y-122701514D01*
X174902298Y-122773097D01*
X175715395Y-121960000D01*
X174902298Y-121146903D01*
X174658329Y-121218486D01*
X174537429Y-121473996D01*
X174468700Y-121748184D01*
X174454783Y-122030512D01*
X170559000Y-122030512D01*
X170559000Y-121345801D01*
X170937503Y-120967298D01*
X175081903Y-120967298D01*
X175895000Y-121780395D01*
X176708097Y-120967298D01*
X176636514Y-120723329D01*
X176381004Y-120602429D01*
X176106816Y-120533700D01*
X175824488Y-120519783D01*
X175544870Y-120561213D01*
X175278708Y-120656397D01*
X175153486Y-120723329D01*
X175081903Y-120967298D01*
X170937503Y-120967298D01*
X175571114Y-116333688D01*
X175753665Y-116370000D01*
X176036335Y-116370000D01*
X176313574Y-116314853D01*
X176449999Y-116258344D01*
X176450000Y-120070201D01*
G04 #@! TA.AperFunction,Conductor*
D24*
G36*
X176450000Y-120070201D02*
G01*
X176446080Y-120109999D01*
X176460304Y-120254409D01*
X176461720Y-120268787D01*
X176467466Y-120287729D01*
X176508037Y-120421472D01*
X176583250Y-120562188D01*
X176638851Y-120629938D01*
X176684472Y-120685527D01*
X176715382Y-120710894D01*
X177024580Y-121020093D01*
X177000000Y-121143665D01*
X177000000Y-121179852D01*
X176887702Y-121146903D01*
X176074605Y-121960000D01*
X176887702Y-122773097D01*
X177131671Y-122701514D01*
X177252571Y-122446004D01*
X177315951Y-122193156D01*
X177320363Y-122199759D01*
X177520241Y-122399637D01*
X177755273Y-122556680D01*
X178016426Y-122664853D01*
X178293665Y-122720000D01*
X178576335Y-122720000D01*
X178699907Y-122695420D01*
X178800001Y-122795514D01*
X178800001Y-123069491D01*
X178576335Y-123025000D01*
X178293665Y-123025000D01*
X178016426Y-123080147D01*
X177755273Y-123188320D01*
X177520241Y-123345363D01*
X177320363Y-123545241D01*
X177216957Y-123700000D01*
X177113043Y-123700000D01*
X177009637Y-123545241D01*
X176809759Y-123345363D01*
X176609131Y-123211308D01*
X176636514Y-123196671D01*
X176708097Y-122952702D01*
X175895000Y-122139605D01*
X175081903Y-122952702D01*
X175153486Y-123196671D01*
X175182341Y-123210324D01*
X174980241Y-123345363D01*
X174780363Y-123545241D01*
X174623320Y-123780273D01*
X174515147Y-124041426D01*
X174460000Y-124318665D01*
X174460000Y-124601335D01*
X174515147Y-124878574D01*
X174623320Y-125139727D01*
X174780363Y-125374759D01*
X174980241Y-125574637D01*
X175135001Y-125678044D01*
X175135001Y-126030197D01*
X173220063Y-127945136D01*
X173220000Y-127940750D01*
X173061250Y-127782000D01*
X172212000Y-127782000D01*
X172212000Y-128631250D01*
X172370750Y-128790000D01*
X172375136Y-128790063D01*
X172148271Y-129016928D01*
X171585000Y-129016928D01*
X171460518Y-129029188D01*
X171340820Y-129065498D01*
X171230506Y-129124463D01*
X171133815Y-129203815D01*
X171054463Y-129300506D01*
X170995498Y-129410820D01*
X170959188Y-129530518D01*
X170946928Y-129655000D01*
X170946928Y-130655000D01*
X170959188Y-130779482D01*
X170995498Y-130899180D01*
X171054463Y-131009494D01*
X171133815Y-131106185D01*
X171230506Y-131185537D01*
X171325000Y-131236046D01*
X171325001Y-143850417D01*
X171292312Y-143801495D01*
X171078505Y-143587688D01*
X170827095Y-143419701D01*
X170547743Y-143303989D01*
X170251184Y-143245000D01*
X169948816Y-143245000D01*
X169652257Y-143303989D01*
X169372905Y-143419701D01*
X169121495Y-143587688D01*
X168907688Y-143801495D01*
X168739701Y-144052905D01*
X168623989Y-144332257D01*
X168565000Y-144628816D01*
X168565000Y-144931184D01*
X168616269Y-145188930D01*
X168560198Y-145245001D01*
X166568862Y-145245001D01*
X166576011Y-145227743D01*
X166635000Y-144931184D01*
X166635000Y-144628816D01*
X166583731Y-144371070D01*
X170310004Y-140644798D01*
X170339001Y-140621001D01*
X170433974Y-140505276D01*
X170504546Y-140373247D01*
X170548003Y-140229986D01*
X170559000Y-140118333D01*
X170559000Y-140118332D01*
X170562677Y-140081000D01*
X170559000Y-140043667D01*
X170559000Y-132396723D01*
X170562676Y-132359400D01*
X170559000Y-132322077D01*
X170559000Y-132322067D01*
X170548003Y-132210414D01*
X170504546Y-132067153D01*
X170433974Y-131935124D01*
X170339001Y-131819399D01*
X170310003Y-131795601D01*
X169722425Y-131208024D01*
X169764494Y-131185537D01*
X169861185Y-131106185D01*
X169940537Y-131009494D01*
X169999502Y-130899180D01*
X170035812Y-130779482D01*
X170048072Y-130655000D01*
X170048072Y-129655000D01*
X170035812Y-129530518D01*
X169999502Y-129410820D01*
X169940537Y-129300506D01*
X169919603Y-129274998D01*
X170310004Y-128884598D01*
X170339001Y-128860801D01*
X170433974Y-128745076D01*
X170504546Y-128613047D01*
X170548003Y-128469786D01*
X170559000Y-128358133D01*
X170559000Y-128358123D01*
X170562676Y-128320800D01*
X170559000Y-128283477D01*
X170559000Y-128155000D01*
X170946928Y-128155000D01*
X170959188Y-128279482D01*
X170995498Y-128399180D01*
X171054463Y-128509494D01*
X171133815Y-128606185D01*
X171230506Y-128685537D01*
X171340820Y-128744502D01*
X171460518Y-128780812D01*
X171585000Y-128793072D01*
X171799250Y-128790000D01*
X171958000Y-128631250D01*
X171958000Y-127782000D01*
X171108750Y-127782000D01*
X170950000Y-127940750D01*
X170946928Y-128155000D01*
X170559000Y-128155000D01*
X170559000Y-127155000D01*
X170946928Y-127155000D01*
X170950000Y-127369250D01*
X171108750Y-127528000D01*
X171958000Y-127528000D01*
X171958000Y-126678750D01*
X172212000Y-126678750D01*
X172212000Y-127528000D01*
X173061250Y-127528000D01*
X173220000Y-127369250D01*
X173223072Y-127155000D01*
X173210812Y-127030518D01*
X173174502Y-126910820D01*
X173115537Y-126800506D01*
X173036185Y-126703815D01*
X172939494Y-126624463D01*
X172829180Y-126565498D01*
X172709482Y-126529188D01*
X172585000Y-126516928D01*
X172370750Y-126520000D01*
X172212000Y-126678750D01*
X171958000Y-126678750D01*
X171799250Y-126520000D01*
X171585000Y-126516928D01*
X171460518Y-126529188D01*
X171340820Y-126565498D01*
X171230506Y-126624463D01*
X171133815Y-126703815D01*
X171054463Y-126800506D01*
X170995498Y-126910820D01*
X170959188Y-127030518D01*
X170946928Y-127155000D01*
X170559000Y-127155000D01*
X170559000Y-122030512D01*
X174454783Y-122030512D01*
X174496213Y-122310130D01*
X174591397Y-122576292D01*
X174658329Y-122701514D01*
X174902298Y-122773097D01*
X175715395Y-121960000D01*
X174902298Y-121146903D01*
X174658329Y-121218486D01*
X174537429Y-121473996D01*
X174468700Y-121748184D01*
X174454783Y-122030512D01*
X170559000Y-122030512D01*
X170559000Y-121345801D01*
X170937503Y-120967298D01*
X175081903Y-120967298D01*
X175895000Y-121780395D01*
X176708097Y-120967298D01*
X176636514Y-120723329D01*
X176381004Y-120602429D01*
X176106816Y-120533700D01*
X175824488Y-120519783D01*
X175544870Y-120561213D01*
X175278708Y-120656397D01*
X175153486Y-120723329D01*
X175081903Y-120967298D01*
X170937503Y-120967298D01*
X175571114Y-116333688D01*
X175753665Y-116370000D01*
X176036335Y-116370000D01*
X176313574Y-116314853D01*
X176449999Y-116258344D01*
X176450000Y-120070201D01*
G37*
G04 #@! TD.AperFunction*
D23*
X213080241Y-138274637D02*
X213312759Y-138430000D01*
X213080241Y-138585363D01*
X212880363Y-138785241D01*
X212723320Y-139020273D01*
X212615147Y-139281426D01*
X212560000Y-139558665D01*
X212560000Y-139841335D01*
X212615147Y-140118574D01*
X212723320Y-140379727D01*
X212880363Y-140614759D01*
X213080241Y-140814637D01*
X213312759Y-140970000D01*
X213080241Y-141125363D01*
X212880363Y-141325241D01*
X212723320Y-141560273D01*
X212615147Y-141821426D01*
X212560000Y-142098665D01*
X212560000Y-142381335D01*
X212615147Y-142658574D01*
X212723320Y-142919727D01*
X212880363Y-143154759D01*
X213080241Y-143354637D01*
X213312759Y-143510000D01*
X213080241Y-143665363D01*
X212880363Y-143865241D01*
X212723320Y-144100273D01*
X212615147Y-144361426D01*
X212560000Y-144638665D01*
X212560000Y-144921335D01*
X212604491Y-145145001D01*
X211637324Y-145145001D01*
X211599999Y-145141325D01*
X211575766Y-145143712D01*
X211620000Y-144921335D01*
X211620000Y-144638665D01*
X211564853Y-144361426D01*
X211456680Y-144100273D01*
X211299637Y-143865241D01*
X211099759Y-143665363D01*
X210864727Y-143508320D01*
X210854135Y-143503933D01*
X211040131Y-143392385D01*
X211248519Y-143203414D01*
X211416037Y-142977420D01*
X211536246Y-142723087D01*
X211576904Y-142589039D01*
X211454915Y-142367000D01*
X210312000Y-142367000D01*
X210312000Y-142387000D01*
X210058000Y-142387000D01*
X210058000Y-142367000D01*
X210038000Y-142367000D01*
X210038000Y-142113000D01*
X210058000Y-142113000D01*
X210058000Y-142093000D01*
X210312000Y-142093000D01*
X210312000Y-142113000D01*
X211454915Y-142113000D01*
X211576904Y-141890961D01*
X211536246Y-141756913D01*
X211416037Y-141502580D01*
X211248519Y-141276586D01*
X211040131Y-141087615D01*
X210854135Y-140976067D01*
X210864727Y-140971680D01*
X211099759Y-140814637D01*
X211299637Y-140614759D01*
X211456680Y-140379727D01*
X211564853Y-140118574D01*
X211620000Y-139841335D01*
X211620000Y-139558665D01*
X211583688Y-139376114D01*
X212882703Y-138077099D01*
X213080241Y-138274637D01*
G04 #@! TA.AperFunction,Conductor*
D24*
G36*
X213080241Y-138274637D02*
G01*
X213312759Y-138430000D01*
X213080241Y-138585363D01*
X212880363Y-138785241D01*
X212723320Y-139020273D01*
X212615147Y-139281426D01*
X212560000Y-139558665D01*
X212560000Y-139841335D01*
X212615147Y-140118574D01*
X212723320Y-140379727D01*
X212880363Y-140614759D01*
X213080241Y-140814637D01*
X213312759Y-140970000D01*
X213080241Y-141125363D01*
X212880363Y-141325241D01*
X212723320Y-141560273D01*
X212615147Y-141821426D01*
X212560000Y-142098665D01*
X212560000Y-142381335D01*
X212615147Y-142658574D01*
X212723320Y-142919727D01*
X212880363Y-143154759D01*
X213080241Y-143354637D01*
X213312759Y-143510000D01*
X213080241Y-143665363D01*
X212880363Y-143865241D01*
X212723320Y-144100273D01*
X212615147Y-144361426D01*
X212560000Y-144638665D01*
X212560000Y-144921335D01*
X212604491Y-145145001D01*
X211637324Y-145145001D01*
X211599999Y-145141325D01*
X211575766Y-145143712D01*
X211620000Y-144921335D01*
X211620000Y-144638665D01*
X211564853Y-144361426D01*
X211456680Y-144100273D01*
X211299637Y-143865241D01*
X211099759Y-143665363D01*
X210864727Y-143508320D01*
X210854135Y-143503933D01*
X211040131Y-143392385D01*
X211248519Y-143203414D01*
X211416037Y-142977420D01*
X211536246Y-142723087D01*
X211576904Y-142589039D01*
X211454915Y-142367000D01*
X210312000Y-142367000D01*
X210312000Y-142387000D01*
X210058000Y-142387000D01*
X210058000Y-142367000D01*
X210038000Y-142367000D01*
X210038000Y-142113000D01*
X210058000Y-142113000D01*
X210058000Y-142093000D01*
X210312000Y-142093000D01*
X210312000Y-142113000D01*
X211454915Y-142113000D01*
X211576904Y-141890961D01*
X211536246Y-141756913D01*
X211416037Y-141502580D01*
X211248519Y-141276586D01*
X211040131Y-141087615D01*
X210854135Y-140976067D01*
X210864727Y-140971680D01*
X211099759Y-140814637D01*
X211299637Y-140614759D01*
X211456680Y-140379727D01*
X211564853Y-140118574D01*
X211620000Y-139841335D01*
X211620000Y-139558665D01*
X211583688Y-139376114D01*
X212882703Y-138077099D01*
X213080241Y-138274637D01*
G37*
G04 #@! TD.AperFunction*
D23*
X169039000Y-126676750D02*
X169037000Y-126678750D01*
X169037000Y-127528000D01*
X169039000Y-127528000D01*
X169039000Y-127782000D01*
X169037000Y-127782000D01*
X169037000Y-127802000D01*
X168783000Y-127802000D01*
X168783000Y-127782000D01*
X168763000Y-127782000D01*
X168763000Y-127528000D01*
X168783000Y-127528000D01*
X168783000Y-126678750D01*
X168624250Y-126520000D01*
X168410000Y-126516928D01*
X168400000Y-126517913D01*
X168400000Y-125043043D01*
X168554759Y-124939637D01*
X168754637Y-124739759D01*
X168911680Y-124504727D01*
X169019853Y-124243574D01*
X169039001Y-124147314D01*
X169039000Y-126676750D01*
G04 #@! TA.AperFunction,Conductor*
D24*
G36*
X169039000Y-126676750D02*
G01*
X169037000Y-126678750D01*
X169037000Y-127528000D01*
X169039000Y-127528000D01*
X169039000Y-127782000D01*
X169037000Y-127782000D01*
X169037000Y-127802000D01*
X168783000Y-127802000D01*
X168783000Y-127782000D01*
X168763000Y-127782000D01*
X168763000Y-127528000D01*
X168783000Y-127528000D01*
X168783000Y-126678750D01*
X168624250Y-126520000D01*
X168410000Y-126516928D01*
X168400000Y-126517913D01*
X168400000Y-125043043D01*
X168554759Y-124939637D01*
X168754637Y-124739759D01*
X168911680Y-124504727D01*
X169019853Y-124243574D01*
X169039001Y-124147314D01*
X169039000Y-126676750D01*
G37*
G04 #@! TD.AperFunction*
D23*
X227800000Y-116981335D02*
X227855147Y-117258574D01*
X227963320Y-117519727D01*
X228120363Y-117754759D01*
X228320241Y-117954637D01*
X228555273Y-118111680D01*
X228565865Y-118116067D01*
X228379869Y-118227615D01*
X228171481Y-118416586D01*
X228003963Y-118642580D01*
X227883754Y-118896913D01*
X227843096Y-119030961D01*
X227965085Y-119253000D01*
X229108000Y-119253000D01*
X229108000Y-119233000D01*
X229362000Y-119233000D01*
X229362000Y-119253000D01*
X229382000Y-119253000D01*
X229382000Y-119507000D01*
X229362000Y-119507000D01*
X229362000Y-119527000D01*
X229108000Y-119527000D01*
X229108000Y-119507000D01*
X227965085Y-119507000D01*
X227843096Y-119729039D01*
X227883754Y-119863087D01*
X228003963Y-120117420D01*
X228171481Y-120343414D01*
X228379869Y-120532385D01*
X228565865Y-120643933D01*
X228555273Y-120648320D01*
X228320241Y-120805363D01*
X228120363Y-121005241D01*
X227963320Y-121240273D01*
X227855147Y-121501426D01*
X227800000Y-121778665D01*
X227800000Y-122061335D01*
X227855147Y-122338574D01*
X227963320Y-122599727D01*
X228120363Y-122834759D01*
X228320241Y-123034637D01*
X228552759Y-123190000D01*
X228320241Y-123345363D01*
X228120363Y-123545241D01*
X227963320Y-123780273D01*
X227855147Y-124041426D01*
X227800000Y-124318665D01*
X227800000Y-124601335D01*
X227855147Y-124878574D01*
X227963320Y-125139727D01*
X228120363Y-125374759D01*
X228320241Y-125574637D01*
X228552759Y-125730000D01*
X228320241Y-125885363D01*
X228120363Y-126085241D01*
X227963320Y-126320273D01*
X227855147Y-126581426D01*
X227800000Y-126858665D01*
X227800000Y-127141335D01*
X227855147Y-127418574D01*
X227899707Y-127526151D01*
X227772889Y-127441414D01*
X227602729Y-127370932D01*
X227422089Y-127335000D01*
X227237911Y-127335000D01*
X227074000Y-127367604D01*
X227074000Y-117535801D01*
X227800000Y-116809801D01*
X227800000Y-116981335D01*
G04 #@! TA.AperFunction,Conductor*
D24*
G36*
X227800000Y-116981335D02*
G01*
X227855147Y-117258574D01*
X227963320Y-117519727D01*
X228120363Y-117754759D01*
X228320241Y-117954637D01*
X228555273Y-118111680D01*
X228565865Y-118116067D01*
X228379869Y-118227615D01*
X228171481Y-118416586D01*
X228003963Y-118642580D01*
X227883754Y-118896913D01*
X227843096Y-119030961D01*
X227965085Y-119253000D01*
X229108000Y-119253000D01*
X229108000Y-119233000D01*
X229362000Y-119233000D01*
X229362000Y-119253000D01*
X229382000Y-119253000D01*
X229382000Y-119507000D01*
X229362000Y-119507000D01*
X229362000Y-119527000D01*
X229108000Y-119527000D01*
X229108000Y-119507000D01*
X227965085Y-119507000D01*
X227843096Y-119729039D01*
X227883754Y-119863087D01*
X228003963Y-120117420D01*
X228171481Y-120343414D01*
X228379869Y-120532385D01*
X228565865Y-120643933D01*
X228555273Y-120648320D01*
X228320241Y-120805363D01*
X228120363Y-121005241D01*
X227963320Y-121240273D01*
X227855147Y-121501426D01*
X227800000Y-121778665D01*
X227800000Y-122061335D01*
X227855147Y-122338574D01*
X227963320Y-122599727D01*
X228120363Y-122834759D01*
X228320241Y-123034637D01*
X228552759Y-123190000D01*
X228320241Y-123345363D01*
X228120363Y-123545241D01*
X227963320Y-123780273D01*
X227855147Y-124041426D01*
X227800000Y-124318665D01*
X227800000Y-124601335D01*
X227855147Y-124878574D01*
X227963320Y-125139727D01*
X228120363Y-125374759D01*
X228320241Y-125574637D01*
X228552759Y-125730000D01*
X228320241Y-125885363D01*
X228120363Y-126085241D01*
X227963320Y-126320273D01*
X227855147Y-126581426D01*
X227800000Y-126858665D01*
X227800000Y-127141335D01*
X227855147Y-127418574D01*
X227899707Y-127526151D01*
X227772889Y-127441414D01*
X227602729Y-127370932D01*
X227422089Y-127335000D01*
X227237911Y-127335000D01*
X227074000Y-127367604D01*
X227074000Y-117535801D01*
X227800000Y-116809801D01*
X227800000Y-116981335D01*
G37*
G04 #@! TD.AperFunction*
D23*
X212615147Y-113881426D02*
X212560000Y-114158665D01*
X212560000Y-114441335D01*
X212615147Y-114718574D01*
X212723320Y-114979727D01*
X212880363Y-115214759D01*
X213080241Y-115414637D01*
X213312759Y-115570000D01*
X213080241Y-115725363D01*
X212880363Y-115925241D01*
X212723320Y-116160273D01*
X212615147Y-116421426D01*
X212560000Y-116698665D01*
X212560000Y-116981335D01*
X212596312Y-117163886D01*
X211297297Y-118462901D01*
X211099759Y-118265363D01*
X210864727Y-118108320D01*
X210854135Y-118103933D01*
X211040131Y-117992385D01*
X211248519Y-117803414D01*
X211416037Y-117577420D01*
X211536246Y-117323087D01*
X211576904Y-117189039D01*
X211454915Y-116967000D01*
X210312000Y-116967000D01*
X210312000Y-116987000D01*
X210058000Y-116987000D01*
X210058000Y-116967000D01*
X210038000Y-116967000D01*
X210038000Y-116713000D01*
X210058000Y-116713000D01*
X210058000Y-116693000D01*
X210312000Y-116693000D01*
X210312000Y-116713000D01*
X211454915Y-116713000D01*
X211576904Y-116490961D01*
X211536246Y-116356913D01*
X211416037Y-116102580D01*
X211248519Y-115876586D01*
X211040131Y-115687615D01*
X210854135Y-115576067D01*
X210864727Y-115571680D01*
X211099759Y-115414637D01*
X211299637Y-115214759D01*
X211456680Y-114979727D01*
X211564853Y-114718574D01*
X211620000Y-114441335D01*
X211620000Y-114158665D01*
X211564853Y-113881426D01*
X211466923Y-113645001D01*
X212713077Y-113645001D01*
X212615147Y-113881426D01*
G04 #@! TA.AperFunction,Conductor*
D24*
G36*
X212615147Y-113881426D02*
G01*
X212560000Y-114158665D01*
X212560000Y-114441335D01*
X212615147Y-114718574D01*
X212723320Y-114979727D01*
X212880363Y-115214759D01*
X213080241Y-115414637D01*
X213312759Y-115570000D01*
X213080241Y-115725363D01*
X212880363Y-115925241D01*
X212723320Y-116160273D01*
X212615147Y-116421426D01*
X212560000Y-116698665D01*
X212560000Y-116981335D01*
X212596312Y-117163886D01*
X211297297Y-118462901D01*
X211099759Y-118265363D01*
X210864727Y-118108320D01*
X210854135Y-118103933D01*
X211040131Y-117992385D01*
X211248519Y-117803414D01*
X211416037Y-117577420D01*
X211536246Y-117323087D01*
X211576904Y-117189039D01*
X211454915Y-116967000D01*
X210312000Y-116967000D01*
X210312000Y-116987000D01*
X210058000Y-116987000D01*
X210058000Y-116967000D01*
X210038000Y-116967000D01*
X210038000Y-116713000D01*
X210058000Y-116713000D01*
X210058000Y-116693000D01*
X210312000Y-116693000D01*
X210312000Y-116713000D01*
X211454915Y-116713000D01*
X211576904Y-116490961D01*
X211536246Y-116356913D01*
X211416037Y-116102580D01*
X211248519Y-115876586D01*
X211040131Y-115687615D01*
X210854135Y-115576067D01*
X210864727Y-115571680D01*
X211099759Y-115414637D01*
X211299637Y-115214759D01*
X211456680Y-114979727D01*
X211564853Y-114718574D01*
X211620000Y-114441335D01*
X211620000Y-114158665D01*
X211564853Y-113881426D01*
X211466923Y-113645001D01*
X212713077Y-113645001D01*
X212615147Y-113881426D01*
G37*
G04 #@! TD.AperFunction*
M02*
