G04 #@! TF.GenerationSoftware,KiCad,Pcbnew,(5.1.12)-1*
G04 #@! TF.CreationDate,2025-01-21T15:36:47+00:00*
G04 #@! TF.ProjectId,CPCVideo,43504356-6964-4656-9f2e-6b696361645f,rev?*
G04 #@! TF.SameCoordinates,Original*
G04 #@! TF.FileFunction,Legend,Bot*
G04 #@! TF.FilePolarity,Positive*
%FSLAX46Y46*%
G04 Gerber Fmt 4.6, Leading zero omitted, Abs format (unit mm)*
G04 Created by KiCad (PCBNEW (5.1.12)-1) date 2025-01-21 15:36:47*
%MOMM*%
%LPD*%
G01*
G04 APERTURE LIST*
%ADD10C,0.150000*%
%ADD11C,0.300000*%
G04 APERTURE END LIST*
D10*
X217117380Y-108285595D02*
X216117380Y-108285595D01*
X216450714Y-108761785D02*
X217117380Y-108761785D01*
X216545952Y-108761785D02*
X216498333Y-108809404D01*
X216450714Y-108904642D01*
X216450714Y-109047500D01*
X216498333Y-109142738D01*
X216593571Y-109190357D01*
X217117380Y-109190357D01*
X217069761Y-109618928D02*
X217117380Y-109714166D01*
X217117380Y-109904642D01*
X217069761Y-109999880D01*
X216974523Y-110047500D01*
X216926904Y-110047500D01*
X216831666Y-109999880D01*
X216784047Y-109904642D01*
X216784047Y-109761785D01*
X216736428Y-109666547D01*
X216641190Y-109618928D01*
X216593571Y-109618928D01*
X216498333Y-109666547D01*
X216450714Y-109761785D01*
X216450714Y-109904642D01*
X216498333Y-109999880D01*
X216450714Y-110333214D02*
X216450714Y-110714166D01*
X216117380Y-110476071D02*
X216974523Y-110476071D01*
X217069761Y-110523690D01*
X217117380Y-110618928D01*
X217117380Y-110714166D01*
X217117380Y-111476071D02*
X216593571Y-111476071D01*
X216498333Y-111428452D01*
X216450714Y-111333214D01*
X216450714Y-111142738D01*
X216498333Y-111047500D01*
X217069761Y-111476071D02*
X217117380Y-111380833D01*
X217117380Y-111142738D01*
X217069761Y-111047500D01*
X216974523Y-110999880D01*
X216879285Y-110999880D01*
X216784047Y-111047500D01*
X216736428Y-111142738D01*
X216736428Y-111380833D01*
X216688809Y-111476071D01*
X217117380Y-112095119D02*
X217069761Y-111999880D01*
X216974523Y-111952261D01*
X216117380Y-111952261D01*
X217117380Y-112618928D02*
X217069761Y-112523690D01*
X216974523Y-112476071D01*
X216117380Y-112476071D01*
X217498333Y-114047500D02*
X217450714Y-113999880D01*
X217307857Y-113904642D01*
X217212619Y-113857023D01*
X217069761Y-113809404D01*
X216831666Y-113761785D01*
X216641190Y-113761785D01*
X216403095Y-113809404D01*
X216260238Y-113857023D01*
X216165000Y-113904642D01*
X216022142Y-113999880D01*
X215974523Y-114047500D01*
X216450714Y-114857023D02*
X217117380Y-114857023D01*
X216069761Y-114618928D02*
X216784047Y-114380833D01*
X216784047Y-114999880D01*
X216117380Y-115571309D02*
X216117380Y-115666547D01*
X216165000Y-115761785D01*
X216212619Y-115809404D01*
X216307857Y-115857023D01*
X216498333Y-115904642D01*
X216736428Y-115904642D01*
X216926904Y-115857023D01*
X217022142Y-115809404D01*
X217069761Y-115761785D01*
X217117380Y-115666547D01*
X217117380Y-115571309D01*
X217069761Y-115476071D01*
X217022142Y-115428452D01*
X216926904Y-115380833D01*
X216736428Y-115333214D01*
X216498333Y-115333214D01*
X216307857Y-115380833D01*
X216212619Y-115428452D01*
X216165000Y-115476071D01*
X216117380Y-115571309D01*
X216117380Y-116523690D02*
X216117380Y-116618928D01*
X216165000Y-116714166D01*
X216212619Y-116761785D01*
X216307857Y-116809404D01*
X216498333Y-116857023D01*
X216736428Y-116857023D01*
X216926904Y-116809404D01*
X217022142Y-116761785D01*
X217069761Y-116714166D01*
X217117380Y-116618928D01*
X217117380Y-116523690D01*
X217069761Y-116428452D01*
X217022142Y-116380833D01*
X216926904Y-116333214D01*
X216736428Y-116285595D01*
X216498333Y-116285595D01*
X216307857Y-116333214D01*
X216212619Y-116380833D01*
X216165000Y-116428452D01*
X216117380Y-116523690D01*
X216117380Y-117476071D02*
X216117380Y-117571309D01*
X216165000Y-117666547D01*
X216212619Y-117714166D01*
X216307857Y-117761785D01*
X216498333Y-117809404D01*
X216736428Y-117809404D01*
X216926904Y-117761785D01*
X217022142Y-117714166D01*
X217069761Y-117666547D01*
X217117380Y-117571309D01*
X217117380Y-117476071D01*
X217069761Y-117380833D01*
X217022142Y-117333214D01*
X216926904Y-117285595D01*
X216736428Y-117237976D01*
X216498333Y-117237976D01*
X216307857Y-117285595D01*
X216212619Y-117333214D01*
X216165000Y-117380833D01*
X216117380Y-117476071D01*
X216117380Y-118142738D02*
X216117380Y-118809404D01*
X217117380Y-118380833D01*
X217117380Y-120095119D02*
X217069761Y-119999880D01*
X217022142Y-119952261D01*
X216926904Y-119904642D01*
X216641190Y-119904642D01*
X216545952Y-119952261D01*
X216498333Y-119999880D01*
X216450714Y-120095119D01*
X216450714Y-120237976D01*
X216498333Y-120333214D01*
X216545952Y-120380833D01*
X216641190Y-120428452D01*
X216926904Y-120428452D01*
X217022142Y-120380833D01*
X217069761Y-120333214D01*
X217117380Y-120237976D01*
X217117380Y-120095119D01*
X217117380Y-120857023D02*
X216450714Y-120857023D01*
X216641190Y-120857023D02*
X216545952Y-120904642D01*
X216498333Y-120952261D01*
X216450714Y-121047500D01*
X216450714Y-121142738D01*
X216450714Y-122666547D02*
X217117380Y-122666547D01*
X216069761Y-122428452D02*
X216784047Y-122190357D01*
X216784047Y-122809404D01*
X216117380Y-123380833D02*
X216117380Y-123476071D01*
X216165000Y-123571309D01*
X216212619Y-123618928D01*
X216307857Y-123666547D01*
X216498333Y-123714166D01*
X216736428Y-123714166D01*
X216926904Y-123666547D01*
X217022142Y-123618928D01*
X217069761Y-123571309D01*
X217117380Y-123476071D01*
X217117380Y-123380833D01*
X217069761Y-123285595D01*
X217022142Y-123237976D01*
X216926904Y-123190357D01*
X216736428Y-123142738D01*
X216498333Y-123142738D01*
X216307857Y-123190357D01*
X216212619Y-123237976D01*
X216165000Y-123285595D01*
X216117380Y-123380833D01*
X216117380Y-124333214D02*
X216117380Y-124428452D01*
X216165000Y-124523690D01*
X216212619Y-124571309D01*
X216307857Y-124618928D01*
X216498333Y-124666547D01*
X216736428Y-124666547D01*
X216926904Y-124618928D01*
X217022142Y-124571309D01*
X217069761Y-124523690D01*
X217117380Y-124428452D01*
X217117380Y-124333214D01*
X217069761Y-124237976D01*
X217022142Y-124190357D01*
X216926904Y-124142738D01*
X216736428Y-124095119D01*
X216498333Y-124095119D01*
X216307857Y-124142738D01*
X216212619Y-124190357D01*
X216165000Y-124237976D01*
X216117380Y-124333214D01*
X216117380Y-125285595D02*
X216117380Y-125380833D01*
X216165000Y-125476071D01*
X216212619Y-125523690D01*
X216307857Y-125571309D01*
X216498333Y-125618928D01*
X216736428Y-125618928D01*
X216926904Y-125571309D01*
X217022142Y-125523690D01*
X217069761Y-125476071D01*
X217117380Y-125380833D01*
X217117380Y-125285595D01*
X217069761Y-125190357D01*
X217022142Y-125142738D01*
X216926904Y-125095119D01*
X216736428Y-125047500D01*
X216498333Y-125047500D01*
X216307857Y-125095119D01*
X216212619Y-125142738D01*
X216165000Y-125190357D01*
X216117380Y-125285595D01*
X216545952Y-126190357D02*
X216498333Y-126095119D01*
X216450714Y-126047500D01*
X216355476Y-125999880D01*
X216307857Y-125999880D01*
X216212619Y-126047500D01*
X216165000Y-126095119D01*
X216117380Y-126190357D01*
X216117380Y-126380833D01*
X216165000Y-126476071D01*
X216212619Y-126523690D01*
X216307857Y-126571309D01*
X216355476Y-126571309D01*
X216450714Y-126523690D01*
X216498333Y-126476071D01*
X216545952Y-126380833D01*
X216545952Y-126190357D01*
X216593571Y-126095119D01*
X216641190Y-126047500D01*
X216736428Y-125999880D01*
X216926904Y-125999880D01*
X217022142Y-126047500D01*
X217069761Y-126095119D01*
X217117380Y-126190357D01*
X217117380Y-126380833D01*
X217069761Y-126476071D01*
X217022142Y-126523690D01*
X216926904Y-126571309D01*
X216736428Y-126571309D01*
X216641190Y-126523690D01*
X216593571Y-126476071D01*
X216545952Y-126380833D01*
X217498333Y-126904642D02*
X217450714Y-126952261D01*
X217307857Y-127047500D01*
X217212619Y-127095119D01*
X217069761Y-127142738D01*
X216831666Y-127190357D01*
X216641190Y-127190357D01*
X216403095Y-127142738D01*
X216260238Y-127095119D01*
X216165000Y-127047500D01*
X216022142Y-126952261D01*
X215974523Y-126904642D01*
X217117380Y-128571309D02*
X217069761Y-128476071D01*
X217022142Y-128428452D01*
X216926904Y-128380833D01*
X216641190Y-128380833D01*
X216545952Y-128428452D01*
X216498333Y-128476071D01*
X216450714Y-128571309D01*
X216450714Y-128714166D01*
X216498333Y-128809404D01*
X216545952Y-128857023D01*
X216641190Y-128904642D01*
X216926904Y-128904642D01*
X217022142Y-128857023D01*
X217069761Y-128809404D01*
X217117380Y-128714166D01*
X217117380Y-128571309D01*
X217117380Y-129333214D02*
X216450714Y-129333214D01*
X216641190Y-129333214D02*
X216545952Y-129380833D01*
X216498333Y-129428452D01*
X216450714Y-129523690D01*
X216450714Y-129618928D01*
X216450714Y-131142738D02*
X217117380Y-131142738D01*
X216069761Y-130904642D02*
X216784047Y-130666547D01*
X216784047Y-131285595D01*
X216117380Y-131857023D02*
X216117380Y-131952261D01*
X216165000Y-132047499D01*
X216212619Y-132095119D01*
X216307857Y-132142738D01*
X216498333Y-132190357D01*
X216736428Y-132190357D01*
X216926904Y-132142738D01*
X217022142Y-132095119D01*
X217069761Y-132047499D01*
X217117380Y-131952261D01*
X217117380Y-131857023D01*
X217069761Y-131761785D01*
X217022142Y-131714166D01*
X216926904Y-131666547D01*
X216736428Y-131618928D01*
X216498333Y-131618928D01*
X216307857Y-131666547D01*
X216212619Y-131714166D01*
X216165000Y-131761785D01*
X216117380Y-131857023D01*
X216117380Y-132809404D02*
X216117380Y-132904642D01*
X216165000Y-132999880D01*
X216212619Y-133047499D01*
X216307857Y-133095119D01*
X216498333Y-133142738D01*
X216736428Y-133142738D01*
X216926904Y-133095119D01*
X217022142Y-133047499D01*
X217069761Y-132999880D01*
X217117380Y-132904642D01*
X217117380Y-132809404D01*
X217069761Y-132714166D01*
X217022142Y-132666547D01*
X216926904Y-132618928D01*
X216736428Y-132571309D01*
X216498333Y-132571309D01*
X216307857Y-132618928D01*
X216212619Y-132666547D01*
X216165000Y-132714166D01*
X216117380Y-132809404D01*
X217117380Y-134095119D02*
X217117380Y-133523690D01*
X217117380Y-133809404D02*
X216117380Y-133809404D01*
X216260238Y-133714166D01*
X216355476Y-133618928D01*
X216403095Y-133523690D01*
X216117380Y-134714166D02*
X216117380Y-134809404D01*
X216165000Y-134904642D01*
X216212619Y-134952261D01*
X216307857Y-134999880D01*
X216498333Y-135047499D01*
X216736428Y-135047499D01*
X216926904Y-134999880D01*
X217022142Y-134952261D01*
X217069761Y-134904642D01*
X217117380Y-134809404D01*
X217117380Y-134714166D01*
X217069761Y-134618928D01*
X217022142Y-134571309D01*
X216926904Y-134523690D01*
X216736428Y-134476071D01*
X216498333Y-134476071D01*
X216307857Y-134523690D01*
X216212619Y-134571309D01*
X216165000Y-134618928D01*
X216117380Y-134714166D01*
X217117380Y-136237976D02*
X216117380Y-136237976D01*
X216498333Y-136237976D02*
X216450714Y-136333214D01*
X216450714Y-136523690D01*
X216498333Y-136618928D01*
X216545952Y-136666547D01*
X216641190Y-136714166D01*
X216926904Y-136714166D01*
X217022142Y-136666547D01*
X217069761Y-136618928D01*
X217117380Y-136523690D01*
X217117380Y-136333214D01*
X217069761Y-136237976D01*
X216450714Y-137571309D02*
X217117380Y-137571309D01*
X216450714Y-137142738D02*
X216974523Y-137142738D01*
X217069761Y-137190357D01*
X217117380Y-137285595D01*
X217117380Y-137428452D01*
X217069761Y-137523690D01*
X217022142Y-137571309D01*
X216450714Y-137904642D02*
X216450714Y-138285595D01*
X216117380Y-138047499D02*
X216974523Y-138047499D01*
X217069761Y-138095119D01*
X217117380Y-138190357D01*
X217117380Y-138285595D01*
X216450714Y-139380833D02*
X217117380Y-139380833D01*
X216545952Y-139380833D02*
X216498333Y-139428452D01*
X216450714Y-139523690D01*
X216450714Y-139666547D01*
X216498333Y-139761785D01*
X216593571Y-139809404D01*
X217117380Y-139809404D01*
X217117380Y-140428452D02*
X217069761Y-140333214D01*
X217022142Y-140285595D01*
X216926904Y-140237976D01*
X216641190Y-140237976D01*
X216545952Y-140285595D01*
X216498333Y-140333214D01*
X216450714Y-140428452D01*
X216450714Y-140571309D01*
X216498333Y-140666547D01*
X216545952Y-140714166D01*
X216641190Y-140761785D01*
X216926904Y-140761785D01*
X217022142Y-140714166D01*
X217069761Y-140666547D01*
X217117380Y-140571309D01*
X217117380Y-140428452D01*
X216450714Y-141047499D02*
X216450714Y-141428452D01*
X216117380Y-141190357D02*
X216974523Y-141190357D01*
X217069761Y-141237976D01*
X217117380Y-141333214D01*
X217117380Y-141428452D01*
X217117380Y-142523690D02*
X216117380Y-142523690D01*
X216498333Y-142523690D02*
X216450714Y-142618928D01*
X216450714Y-142809404D01*
X216498333Y-142904642D01*
X216545952Y-142952261D01*
X216641190Y-142999880D01*
X216926904Y-142999880D01*
X217022142Y-142952261D01*
X217069761Y-142904642D01*
X217117380Y-142809404D01*
X217117380Y-142618928D01*
X217069761Y-142523690D01*
X217117380Y-143571309D02*
X217069761Y-143476071D01*
X217022142Y-143428452D01*
X216926904Y-143380833D01*
X216641190Y-143380833D01*
X216545952Y-143428452D01*
X216498333Y-143476071D01*
X216450714Y-143571309D01*
X216450714Y-143714166D01*
X216498333Y-143809404D01*
X216545952Y-143857023D01*
X216641190Y-143904642D01*
X216926904Y-143904642D01*
X217022142Y-143857023D01*
X217069761Y-143809404D01*
X217117380Y-143714166D01*
X217117380Y-143571309D01*
X216450714Y-144190357D02*
X216450714Y-144571309D01*
X216117380Y-144333214D02*
X216974523Y-144333214D01*
X217069761Y-144380833D01*
X217117380Y-144476071D01*
X217117380Y-144571309D01*
X217117380Y-144904642D02*
X216117380Y-144904642D01*
X217117380Y-145333214D02*
X216593571Y-145333214D01*
X216498333Y-145285595D01*
X216450714Y-145190357D01*
X216450714Y-145047499D01*
X216498333Y-144952261D01*
X216545952Y-144904642D01*
X217022142Y-145809404D02*
X217069761Y-145857023D01*
X217117380Y-145809404D01*
X217069761Y-145761785D01*
X217022142Y-145809404D01*
X217117380Y-145809404D01*
X218767380Y-108857023D02*
X218291190Y-108523690D01*
X218767380Y-108285595D02*
X217767380Y-108285595D01*
X217767380Y-108666547D01*
X217815000Y-108761785D01*
X217862619Y-108809404D01*
X217957857Y-108857023D01*
X218100714Y-108857023D01*
X218195952Y-108809404D01*
X218243571Y-108761785D01*
X218291190Y-108666547D01*
X218291190Y-108285595D01*
X218767380Y-109809404D02*
X218767380Y-109237976D01*
X218767380Y-109523690D02*
X217767380Y-109523690D01*
X217910238Y-109428452D01*
X218005476Y-109333214D01*
X218053095Y-109237976D01*
X217767380Y-110142738D02*
X217767380Y-110761785D01*
X218148333Y-110428452D01*
X218148333Y-110571309D01*
X218195952Y-110666547D01*
X218243571Y-110714166D01*
X218338809Y-110761785D01*
X218576904Y-110761785D01*
X218672142Y-110714166D01*
X218719761Y-110666547D01*
X218767380Y-110571309D01*
X218767380Y-110285595D01*
X218719761Y-110190357D01*
X218672142Y-110142738D01*
X218195952Y-111333214D02*
X218148333Y-111237976D01*
X218100714Y-111190357D01*
X218005476Y-111142738D01*
X217957857Y-111142738D01*
X217862619Y-111190357D01*
X217815000Y-111237976D01*
X217767380Y-111333214D01*
X217767380Y-111523690D01*
X217815000Y-111618928D01*
X217862619Y-111666547D01*
X217957857Y-111714166D01*
X218005476Y-111714166D01*
X218100714Y-111666547D01*
X218148333Y-111618928D01*
X218195952Y-111523690D01*
X218195952Y-111333214D01*
X218243571Y-111237976D01*
X218291190Y-111190357D01*
X218386428Y-111142738D01*
X218576904Y-111142738D01*
X218672142Y-111190357D01*
X218719761Y-111237976D01*
X218767380Y-111333214D01*
X218767380Y-111523690D01*
X218719761Y-111618928D01*
X218672142Y-111666547D01*
X218576904Y-111714166D01*
X218386428Y-111714166D01*
X218291190Y-111666547D01*
X218243571Y-111618928D01*
X218195952Y-111523690D01*
X218719761Y-112190357D02*
X218767380Y-112190357D01*
X218862619Y-112142738D01*
X218910238Y-112095119D01*
X218767380Y-113952261D02*
X218291190Y-113618928D01*
X218767380Y-113380833D02*
X217767380Y-113380833D01*
X217767380Y-113761785D01*
X217815000Y-113857023D01*
X217862619Y-113904642D01*
X217957857Y-113952261D01*
X218100714Y-113952261D01*
X218195952Y-113904642D01*
X218243571Y-113857023D01*
X218291190Y-113761785D01*
X218291190Y-113380833D01*
X218767380Y-114904642D02*
X218767380Y-114333214D01*
X218767380Y-114618928D02*
X217767380Y-114618928D01*
X217910238Y-114523690D01*
X218005476Y-114428452D01*
X218053095Y-114333214D01*
X217767380Y-115237976D02*
X217767380Y-115857023D01*
X218148333Y-115523690D01*
X218148333Y-115666547D01*
X218195952Y-115761785D01*
X218243571Y-115809404D01*
X218338809Y-115857023D01*
X218576904Y-115857023D01*
X218672142Y-115809404D01*
X218719761Y-115761785D01*
X218767380Y-115666547D01*
X218767380Y-115380833D01*
X218719761Y-115285595D01*
X218672142Y-115237976D01*
X218767380Y-116333214D02*
X218767380Y-116523690D01*
X218719761Y-116618928D01*
X218672142Y-116666547D01*
X218529285Y-116761785D01*
X218338809Y-116809404D01*
X217957857Y-116809404D01*
X217862619Y-116761785D01*
X217815000Y-116714166D01*
X217767380Y-116618928D01*
X217767380Y-116428452D01*
X217815000Y-116333214D01*
X217862619Y-116285595D01*
X217957857Y-116237976D01*
X218195952Y-116237976D01*
X218291190Y-116285595D01*
X218338809Y-116333214D01*
X218386428Y-116428452D01*
X218386428Y-116618928D01*
X218338809Y-116714166D01*
X218291190Y-116761785D01*
X218195952Y-116809404D01*
X218767380Y-118142738D02*
X218719761Y-118047500D01*
X218672142Y-117999880D01*
X218576904Y-117952261D01*
X218291190Y-117952261D01*
X218195952Y-117999880D01*
X218148333Y-118047500D01*
X218100714Y-118142738D01*
X218100714Y-118285595D01*
X218148333Y-118380833D01*
X218195952Y-118428452D01*
X218291190Y-118476071D01*
X218576904Y-118476071D01*
X218672142Y-118428452D01*
X218719761Y-118380833D01*
X218767380Y-118285595D01*
X218767380Y-118142738D01*
X218100714Y-118904642D02*
X218767380Y-118904642D01*
X218195952Y-118904642D02*
X218148333Y-118952261D01*
X218100714Y-119047500D01*
X218100714Y-119190357D01*
X218148333Y-119285595D01*
X218243571Y-119333214D01*
X218767380Y-119333214D01*
X218767380Y-119952261D02*
X218719761Y-119857023D01*
X218624523Y-119809404D01*
X217767380Y-119809404D01*
X218100714Y-120237976D02*
X218767380Y-120476071D01*
X218100714Y-120714166D02*
X218767380Y-120476071D01*
X219005476Y-120380833D01*
X219053095Y-120333214D01*
X219100714Y-120237976D01*
X218100714Y-121857023D02*
X218767380Y-121857023D01*
X218195952Y-121857023D02*
X218148333Y-121904642D01*
X218100714Y-121999880D01*
X218100714Y-122142738D01*
X218148333Y-122237976D01*
X218243571Y-122285595D01*
X218767380Y-122285595D01*
X218719761Y-123142738D02*
X218767380Y-123047500D01*
X218767380Y-122857023D01*
X218719761Y-122761785D01*
X218624523Y-122714166D01*
X218243571Y-122714166D01*
X218148333Y-122761785D01*
X218100714Y-122857023D01*
X218100714Y-123047500D01*
X218148333Y-123142738D01*
X218243571Y-123190357D01*
X218338809Y-123190357D01*
X218434047Y-122714166D01*
X218719761Y-123999880D02*
X218767380Y-123904642D01*
X218767380Y-123714166D01*
X218719761Y-123618928D01*
X218624523Y-123571309D01*
X218243571Y-123571309D01*
X218148333Y-123618928D01*
X218100714Y-123714166D01*
X218100714Y-123904642D01*
X218148333Y-123999880D01*
X218243571Y-124047500D01*
X218338809Y-124047500D01*
X218434047Y-123571309D01*
X218767380Y-124904642D02*
X217767380Y-124904642D01*
X218719761Y-124904642D02*
X218767380Y-124809404D01*
X218767380Y-124618928D01*
X218719761Y-124523690D01*
X218672142Y-124476071D01*
X218576904Y-124428452D01*
X218291190Y-124428452D01*
X218195952Y-124476071D01*
X218148333Y-124523690D01*
X218100714Y-124618928D01*
X218100714Y-124809404D01*
X218148333Y-124904642D01*
X218719761Y-125761785D02*
X218767380Y-125666547D01*
X218767380Y-125476071D01*
X218719761Y-125380833D01*
X218624523Y-125333214D01*
X218243571Y-125333214D01*
X218148333Y-125380833D01*
X218100714Y-125476071D01*
X218100714Y-125666547D01*
X218148333Y-125761785D01*
X218243571Y-125809404D01*
X218338809Y-125809404D01*
X218434047Y-125333214D01*
X218767380Y-126666547D02*
X217767380Y-126666547D01*
X218719761Y-126666547D02*
X218767380Y-126571309D01*
X218767380Y-126380833D01*
X218719761Y-126285595D01*
X218672142Y-126237976D01*
X218576904Y-126190357D01*
X218291190Y-126190357D01*
X218195952Y-126237976D01*
X218148333Y-126285595D01*
X218100714Y-126380833D01*
X218100714Y-126571309D01*
X218148333Y-126666547D01*
X218100714Y-127761785D02*
X218100714Y-128142738D01*
X218767380Y-127904642D02*
X217910238Y-127904642D01*
X217815000Y-127952261D01*
X217767380Y-128047500D01*
X217767380Y-128142738D01*
X218767380Y-128618928D02*
X218719761Y-128523690D01*
X218672142Y-128476071D01*
X218576904Y-128428452D01*
X218291190Y-128428452D01*
X218195952Y-128476071D01*
X218148333Y-128523690D01*
X218100714Y-128618928D01*
X218100714Y-128761785D01*
X218148333Y-128857023D01*
X218195952Y-128904642D01*
X218291190Y-128952261D01*
X218576904Y-128952261D01*
X218672142Y-128904642D01*
X218719761Y-128857023D01*
X218767380Y-128761785D01*
X218767380Y-128618928D01*
X218767380Y-129380833D02*
X218100714Y-129380833D01*
X218291190Y-129380833D02*
X218195952Y-129428452D01*
X218148333Y-129476071D01*
X218100714Y-129571309D01*
X218100714Y-129666547D01*
X218100714Y-131190357D02*
X218767380Y-131190357D01*
X217719761Y-130952261D02*
X218434047Y-130714166D01*
X218434047Y-131333214D01*
X217767380Y-131904642D02*
X217767380Y-131999880D01*
X217815000Y-132095119D01*
X217862619Y-132142738D01*
X217957857Y-132190357D01*
X218148333Y-132237976D01*
X218386428Y-132237976D01*
X218576904Y-132190357D01*
X218672142Y-132142738D01*
X218719761Y-132095119D01*
X218767380Y-131999880D01*
X218767380Y-131904642D01*
X218719761Y-131809404D01*
X218672142Y-131761785D01*
X218576904Y-131714166D01*
X218386428Y-131666547D01*
X218148333Y-131666547D01*
X217957857Y-131714166D01*
X217862619Y-131761785D01*
X217815000Y-131809404D01*
X217767380Y-131904642D01*
X217767380Y-132857023D02*
X217767380Y-132952261D01*
X217815000Y-133047500D01*
X217862619Y-133095119D01*
X217957857Y-133142738D01*
X218148333Y-133190357D01*
X218386428Y-133190357D01*
X218576904Y-133142738D01*
X218672142Y-133095119D01*
X218719761Y-133047500D01*
X218767380Y-132952261D01*
X218767380Y-132857023D01*
X218719761Y-132761785D01*
X218672142Y-132714166D01*
X218576904Y-132666547D01*
X218386428Y-132618928D01*
X218148333Y-132618928D01*
X217957857Y-132666547D01*
X217862619Y-132714166D01*
X217815000Y-132761785D01*
X217767380Y-132857023D01*
X217767380Y-133809404D02*
X217767380Y-133904642D01*
X217815000Y-133999880D01*
X217862619Y-134047500D01*
X217957857Y-134095119D01*
X218148333Y-134142738D01*
X218386428Y-134142738D01*
X218576904Y-134095119D01*
X218672142Y-134047500D01*
X218719761Y-133999880D01*
X218767380Y-133904642D01*
X218767380Y-133809404D01*
X218719761Y-133714166D01*
X218672142Y-133666547D01*
X218576904Y-133618928D01*
X218386428Y-133571309D01*
X218148333Y-133571309D01*
X217957857Y-133618928D01*
X217862619Y-133666547D01*
X217815000Y-133714166D01*
X217767380Y-133809404D01*
X217767380Y-134476071D02*
X217767380Y-135142738D01*
X218767380Y-134714166D01*
X218672142Y-135523690D02*
X218719761Y-135571309D01*
X218767380Y-135523690D01*
X218719761Y-135476071D01*
X218672142Y-135523690D01*
X218767380Y-135523690D01*
X220322142Y-108857023D02*
X220369761Y-108809404D01*
X220417380Y-108666547D01*
X220417380Y-108571309D01*
X220369761Y-108428452D01*
X220274523Y-108333214D01*
X220179285Y-108285595D01*
X219988809Y-108237976D01*
X219845952Y-108237976D01*
X219655476Y-108285595D01*
X219560238Y-108333214D01*
X219465000Y-108428452D01*
X219417380Y-108571309D01*
X219417380Y-108666547D01*
X219465000Y-108809404D01*
X219512619Y-108857023D01*
X220417380Y-109714166D02*
X219893571Y-109714166D01*
X219798333Y-109666547D01*
X219750714Y-109571309D01*
X219750714Y-109380833D01*
X219798333Y-109285595D01*
X220369761Y-109714166D02*
X220417380Y-109618928D01*
X220417380Y-109380833D01*
X220369761Y-109285595D01*
X220274523Y-109237976D01*
X220179285Y-109237976D01*
X220084047Y-109285595D01*
X220036428Y-109380833D01*
X220036428Y-109618928D01*
X219988809Y-109714166D01*
X219750714Y-110190357D02*
X220750714Y-110190357D01*
X219798333Y-110190357D02*
X219750714Y-110285595D01*
X219750714Y-110476071D01*
X219798333Y-110571309D01*
X219845952Y-110618928D01*
X219941190Y-110666547D01*
X220226904Y-110666547D01*
X220322142Y-110618928D01*
X220369761Y-110571309D01*
X220417380Y-110476071D01*
X220417380Y-110285595D01*
X220369761Y-110190357D01*
X220417380Y-111523690D02*
X219893571Y-111523690D01*
X219798333Y-111476071D01*
X219750714Y-111380833D01*
X219750714Y-111190357D01*
X219798333Y-111095119D01*
X220369761Y-111523690D02*
X220417380Y-111428452D01*
X220417380Y-111190357D01*
X220369761Y-111095119D01*
X220274523Y-111047500D01*
X220179285Y-111047500D01*
X220084047Y-111095119D01*
X220036428Y-111190357D01*
X220036428Y-111428452D01*
X219988809Y-111523690D01*
X220369761Y-112428452D02*
X220417380Y-112333214D01*
X220417380Y-112142738D01*
X220369761Y-112047500D01*
X220322142Y-111999880D01*
X220226904Y-111952261D01*
X219941190Y-111952261D01*
X219845952Y-111999880D01*
X219798333Y-112047500D01*
X219750714Y-112142738D01*
X219750714Y-112333214D01*
X219798333Y-112428452D01*
X220417380Y-112857023D02*
X219750714Y-112857023D01*
X219417380Y-112857023D02*
X219465000Y-112809404D01*
X219512619Y-112857023D01*
X219465000Y-112904642D01*
X219417380Y-112857023D01*
X219512619Y-112857023D01*
X219750714Y-113190357D02*
X219750714Y-113571309D01*
X219417380Y-113333214D02*
X220274523Y-113333214D01*
X220369761Y-113380833D01*
X220417380Y-113476071D01*
X220417380Y-113571309D01*
X220417380Y-114047500D02*
X220369761Y-113952261D01*
X220322142Y-113904642D01*
X220226904Y-113857023D01*
X219941190Y-113857023D01*
X219845952Y-113904642D01*
X219798333Y-113952261D01*
X219750714Y-114047500D01*
X219750714Y-114190357D01*
X219798333Y-114285595D01*
X219845952Y-114333214D01*
X219941190Y-114380833D01*
X220226904Y-114380833D01*
X220322142Y-114333214D01*
X220369761Y-114285595D01*
X220417380Y-114190357D01*
X220417380Y-114047500D01*
X220417380Y-114809404D02*
X219750714Y-114809404D01*
X219941190Y-114809404D02*
X219845952Y-114857023D01*
X219798333Y-114904642D01*
X219750714Y-114999880D01*
X219750714Y-115095119D01*
X220369761Y-115380833D02*
X220417380Y-115476071D01*
X220417380Y-115666547D01*
X220369761Y-115761785D01*
X220274523Y-115809404D01*
X220226904Y-115809404D01*
X220131666Y-115761785D01*
X220084047Y-115666547D01*
X220084047Y-115523690D01*
X220036428Y-115428452D01*
X219941190Y-115380833D01*
X219893571Y-115380833D01*
X219798333Y-115428452D01*
X219750714Y-115523690D01*
X219750714Y-115666547D01*
X219798333Y-115761785D01*
X220417380Y-117428452D02*
X219893571Y-117428452D01*
X219798333Y-117380833D01*
X219750714Y-117285595D01*
X219750714Y-117095119D01*
X219798333Y-116999880D01*
X220369761Y-117428452D02*
X220417380Y-117333214D01*
X220417380Y-117095119D01*
X220369761Y-116999880D01*
X220274523Y-116952261D01*
X220179285Y-116952261D01*
X220084047Y-116999880D01*
X220036428Y-117095119D01*
X220036428Y-117333214D01*
X219988809Y-117428452D01*
X220417380Y-117904642D02*
X219750714Y-117904642D01*
X219941190Y-117904642D02*
X219845952Y-117952261D01*
X219798333Y-117999880D01*
X219750714Y-118095119D01*
X219750714Y-118190357D01*
X220369761Y-118904642D02*
X220417380Y-118809404D01*
X220417380Y-118618928D01*
X220369761Y-118523690D01*
X220274523Y-118476071D01*
X219893571Y-118476071D01*
X219798333Y-118523690D01*
X219750714Y-118618928D01*
X219750714Y-118809404D01*
X219798333Y-118904642D01*
X219893571Y-118952261D01*
X219988809Y-118952261D01*
X220084047Y-118476071D01*
X219417380Y-120333214D02*
X219417380Y-120428452D01*
X219465000Y-120523690D01*
X219512619Y-120571309D01*
X219607857Y-120618928D01*
X219798333Y-120666547D01*
X220036428Y-120666547D01*
X220226904Y-120618928D01*
X220322142Y-120571309D01*
X220369761Y-120523690D01*
X220417380Y-120428452D01*
X220417380Y-120333214D01*
X220369761Y-120237976D01*
X220322142Y-120190357D01*
X220226904Y-120142738D01*
X220036428Y-120095119D01*
X219798333Y-120095119D01*
X219607857Y-120142738D01*
X219512619Y-120190357D01*
X219465000Y-120237976D01*
X219417380Y-120333214D01*
X220322142Y-121095119D02*
X220369761Y-121142738D01*
X220417380Y-121095119D01*
X220369761Y-121047500D01*
X220322142Y-121095119D01*
X220417380Y-121095119D01*
X220417380Y-122095119D02*
X220417380Y-121523690D01*
X220417380Y-121809404D02*
X219417380Y-121809404D01*
X219560238Y-121714166D01*
X219655476Y-121618928D01*
X219703095Y-121523690D01*
X219750714Y-122952261D02*
X220417380Y-122952261D01*
X219750714Y-122523690D02*
X220274523Y-122523690D01*
X220369761Y-122571309D01*
X220417380Y-122666547D01*
X220417380Y-122809404D01*
X220369761Y-122904642D01*
X220322142Y-122952261D01*
X219893571Y-123761785D02*
X219893571Y-123428452D01*
X220417380Y-123428452D02*
X219417380Y-123428452D01*
X219417380Y-123904642D01*
X219750714Y-125476071D02*
X220417380Y-125476071D01*
X219750714Y-125047500D02*
X220274523Y-125047500D01*
X220369761Y-125095119D01*
X220417380Y-125190357D01*
X220417380Y-125333214D01*
X220369761Y-125428452D01*
X220322142Y-125476071D01*
X219750714Y-125952261D02*
X220417380Y-125952261D01*
X219845952Y-125952261D02*
X219798333Y-125999880D01*
X219750714Y-126095119D01*
X219750714Y-126237976D01*
X219798333Y-126333214D01*
X219893571Y-126380833D01*
X220417380Y-126380833D01*
X220417380Y-126999880D02*
X220369761Y-126904642D01*
X220274523Y-126857023D01*
X219417380Y-126857023D01*
X220369761Y-127761785D02*
X220417380Y-127666547D01*
X220417380Y-127476071D01*
X220369761Y-127380833D01*
X220274523Y-127333214D01*
X219893571Y-127333214D01*
X219798333Y-127380833D01*
X219750714Y-127476071D01*
X219750714Y-127666547D01*
X219798333Y-127761785D01*
X219893571Y-127809404D01*
X219988809Y-127809404D01*
X220084047Y-127333214D01*
X220369761Y-128190357D02*
X220417380Y-128285595D01*
X220417380Y-128476071D01*
X220369761Y-128571309D01*
X220274523Y-128618928D01*
X220226904Y-128618928D01*
X220131666Y-128571309D01*
X220084047Y-128476071D01*
X220084047Y-128333214D01*
X220036428Y-128237976D01*
X219941190Y-128190357D01*
X219893571Y-128190357D01*
X219798333Y-128237976D01*
X219750714Y-128333214D01*
X219750714Y-128476071D01*
X219798333Y-128571309D01*
X220369761Y-128999880D02*
X220417380Y-129095119D01*
X220417380Y-129285595D01*
X220369761Y-129380833D01*
X220274523Y-129428452D01*
X220226904Y-129428452D01*
X220131666Y-129380833D01*
X220084047Y-129285595D01*
X220084047Y-129142738D01*
X220036428Y-129047500D01*
X219941190Y-128999880D01*
X219893571Y-128999880D01*
X219798333Y-129047500D01*
X219750714Y-129142738D01*
X219750714Y-129285595D01*
X219798333Y-129380833D01*
X219750714Y-130618928D02*
X220417380Y-130618928D01*
X219845952Y-130618928D02*
X219798333Y-130666547D01*
X219750714Y-130761785D01*
X219750714Y-130904642D01*
X219798333Y-130999880D01*
X219893571Y-131047500D01*
X220417380Y-131047500D01*
X220417380Y-131666547D02*
X220369761Y-131571309D01*
X220322142Y-131523690D01*
X220226904Y-131476071D01*
X219941190Y-131476071D01*
X219845952Y-131523690D01*
X219798333Y-131571309D01*
X219750714Y-131666547D01*
X219750714Y-131809404D01*
X219798333Y-131904642D01*
X219845952Y-131952261D01*
X219941190Y-131999880D01*
X220226904Y-131999880D01*
X220322142Y-131952261D01*
X220369761Y-131904642D01*
X220417380Y-131809404D01*
X220417380Y-131666547D01*
X219750714Y-132285595D02*
X219750714Y-132666547D01*
X219417380Y-132428452D02*
X220274523Y-132428452D01*
X220369761Y-132476071D01*
X220417380Y-132571309D01*
X220417380Y-132666547D01*
X220369761Y-133380833D02*
X220417380Y-133285595D01*
X220417380Y-133095119D01*
X220369761Y-132999880D01*
X220274523Y-132952261D01*
X219893571Y-132952261D01*
X219798333Y-132999880D01*
X219750714Y-133095119D01*
X219750714Y-133285595D01*
X219798333Y-133380833D01*
X219893571Y-133428452D01*
X219988809Y-133428452D01*
X220084047Y-132952261D01*
X220417380Y-134285595D02*
X219417380Y-134285595D01*
X220369761Y-134285595D02*
X220417380Y-134190357D01*
X220417380Y-133999880D01*
X220369761Y-133904642D01*
X220322142Y-133857023D01*
X220226904Y-133809404D01*
X219941190Y-133809404D01*
X219845952Y-133857023D01*
X219798333Y-133904642D01*
X219750714Y-133999880D01*
X219750714Y-134190357D01*
X219798333Y-134285595D01*
X220417380Y-135666547D02*
X220369761Y-135571309D01*
X220322142Y-135523690D01*
X220226904Y-135476071D01*
X219941190Y-135476071D01*
X219845952Y-135523690D01*
X219798333Y-135571309D01*
X219750714Y-135666547D01*
X219750714Y-135809404D01*
X219798333Y-135904642D01*
X219845952Y-135952261D01*
X219941190Y-135999880D01*
X220226904Y-135999880D01*
X220322142Y-135952261D01*
X220369761Y-135904642D01*
X220417380Y-135809404D01*
X220417380Y-135666547D01*
X219750714Y-136285595D02*
X219750714Y-136666547D01*
X219417380Y-136428452D02*
X220274523Y-136428452D01*
X220369761Y-136476071D01*
X220417380Y-136571309D01*
X220417380Y-136666547D01*
X220417380Y-136999880D02*
X219417380Y-136999880D01*
X220417380Y-137428452D02*
X219893571Y-137428452D01*
X219798333Y-137380833D01*
X219750714Y-137285595D01*
X219750714Y-137142738D01*
X219798333Y-137047500D01*
X219845952Y-136999880D01*
X220369761Y-138285595D02*
X220417380Y-138190357D01*
X220417380Y-137999880D01*
X220369761Y-137904642D01*
X220274523Y-137857023D01*
X219893571Y-137857023D01*
X219798333Y-137904642D01*
X219750714Y-137999880D01*
X219750714Y-138190357D01*
X219798333Y-138285595D01*
X219893571Y-138333214D01*
X219988809Y-138333214D01*
X220084047Y-137857023D01*
X220417380Y-138761785D02*
X219750714Y-138761785D01*
X219941190Y-138761785D02*
X219845952Y-138809404D01*
X219798333Y-138857023D01*
X219750714Y-138952261D01*
X219750714Y-139047500D01*
X219750714Y-139285595D02*
X220417380Y-139476071D01*
X219941190Y-139666547D01*
X220417380Y-139857023D01*
X219750714Y-140047500D01*
X220417380Y-140428452D02*
X219750714Y-140428452D01*
X219417380Y-140428452D02*
X219465000Y-140380833D01*
X219512619Y-140428452D01*
X219465000Y-140476071D01*
X219417380Y-140428452D01*
X219512619Y-140428452D01*
X220369761Y-140857023D02*
X220417380Y-140952261D01*
X220417380Y-141142738D01*
X220369761Y-141237976D01*
X220274523Y-141285595D01*
X220226904Y-141285595D01*
X220131666Y-141237976D01*
X220084047Y-141142738D01*
X220084047Y-140999880D01*
X220036428Y-140904642D01*
X219941190Y-140857023D01*
X219893571Y-140857023D01*
X219798333Y-140904642D01*
X219750714Y-140999880D01*
X219750714Y-141142738D01*
X219798333Y-141237976D01*
X220369761Y-142095119D02*
X220417380Y-141999880D01*
X220417380Y-141809404D01*
X220369761Y-141714166D01*
X220274523Y-141666547D01*
X219893571Y-141666547D01*
X219798333Y-141714166D01*
X219750714Y-141809404D01*
X219750714Y-141999880D01*
X219798333Y-142095119D01*
X219893571Y-142142738D01*
X219988809Y-142142738D01*
X220084047Y-141666547D01*
X220322142Y-142571309D02*
X220369761Y-142618928D01*
X220417380Y-142571309D01*
X220369761Y-142523690D01*
X220322142Y-142571309D01*
X220417380Y-142571309D01*
X222067380Y-108285595D02*
X221067380Y-108285595D01*
X221067380Y-108523690D01*
X221115000Y-108666547D01*
X221210238Y-108761785D01*
X221305476Y-108809404D01*
X221495952Y-108857023D01*
X221638809Y-108857023D01*
X221829285Y-108809404D01*
X221924523Y-108761785D01*
X222019761Y-108666547D01*
X222067380Y-108523690D01*
X222067380Y-108285595D01*
X222067380Y-109285595D02*
X221400714Y-109285595D01*
X221067380Y-109285595D02*
X221115000Y-109237976D01*
X221162619Y-109285595D01*
X221115000Y-109333214D01*
X221067380Y-109285595D01*
X221162619Y-109285595D01*
X222067380Y-109904642D02*
X222019761Y-109809404D01*
X221972142Y-109761785D01*
X221876904Y-109714166D01*
X221591190Y-109714166D01*
X221495952Y-109761785D01*
X221448333Y-109809404D01*
X221400714Y-109904642D01*
X221400714Y-110047500D01*
X221448333Y-110142738D01*
X221495952Y-110190357D01*
X221591190Y-110237976D01*
X221876904Y-110237976D01*
X221972142Y-110190357D01*
X222019761Y-110142738D01*
X222067380Y-110047500D01*
X222067380Y-109904642D01*
X222067380Y-111095119D02*
X221067380Y-111095119D01*
X222019761Y-111095119D02*
X222067380Y-110999880D01*
X222067380Y-110809404D01*
X222019761Y-110714166D01*
X221972142Y-110666547D01*
X221876904Y-110618928D01*
X221591190Y-110618928D01*
X221495952Y-110666547D01*
X221448333Y-110714166D01*
X221400714Y-110809404D01*
X221400714Y-110999880D01*
X221448333Y-111095119D01*
X222019761Y-111952261D02*
X222067380Y-111857023D01*
X222067380Y-111666547D01*
X222019761Y-111571309D01*
X221924523Y-111523690D01*
X221543571Y-111523690D01*
X221448333Y-111571309D01*
X221400714Y-111666547D01*
X221400714Y-111857023D01*
X221448333Y-111952261D01*
X221543571Y-111999880D01*
X221638809Y-111999880D01*
X221734047Y-111523690D01*
X222019761Y-112380833D02*
X222067380Y-112476071D01*
X222067380Y-112666547D01*
X222019761Y-112761785D01*
X221924523Y-112809404D01*
X221876904Y-112809404D01*
X221781666Y-112761785D01*
X221734047Y-112666547D01*
X221734047Y-112523690D01*
X221686428Y-112428452D01*
X221591190Y-112380833D01*
X221543571Y-112380833D01*
X221448333Y-112428452D01*
X221400714Y-112523690D01*
X221400714Y-112666547D01*
X221448333Y-112761785D01*
X222448333Y-114285595D02*
X222400714Y-114237976D01*
X222257857Y-114142738D01*
X222162619Y-114095119D01*
X222019761Y-114047500D01*
X221781666Y-113999880D01*
X221591190Y-113999880D01*
X221353095Y-114047500D01*
X221210238Y-114095119D01*
X221115000Y-114142738D01*
X220972142Y-114237976D01*
X220924523Y-114285595D01*
X222067380Y-114666547D02*
X221067380Y-114666547D01*
X221067380Y-114904642D01*
X221115000Y-115047500D01*
X221210238Y-115142738D01*
X221305476Y-115190357D01*
X221495952Y-115237976D01*
X221638809Y-115237976D01*
X221829285Y-115190357D01*
X221924523Y-115142738D01*
X222019761Y-115047500D01*
X222067380Y-114904642D01*
X222067380Y-114666547D01*
X222067380Y-115714166D02*
X222067380Y-115904642D01*
X222019761Y-115999880D01*
X221972142Y-116047500D01*
X221829285Y-116142738D01*
X221638809Y-116190357D01*
X221257857Y-116190357D01*
X221162619Y-116142738D01*
X221115000Y-116095119D01*
X221067380Y-115999880D01*
X221067380Y-115809404D01*
X221115000Y-115714166D01*
X221162619Y-115666547D01*
X221257857Y-115618928D01*
X221495952Y-115618928D01*
X221591190Y-115666547D01*
X221638809Y-115714166D01*
X221686428Y-115809404D01*
X221686428Y-115999880D01*
X221638809Y-116095119D01*
X221591190Y-116142738D01*
X221495952Y-116190357D01*
X221067380Y-116809404D02*
X221067380Y-116904642D01*
X221115000Y-116999880D01*
X221162619Y-117047500D01*
X221257857Y-117095119D01*
X221448333Y-117142738D01*
X221686428Y-117142738D01*
X221876904Y-117095119D01*
X221972142Y-117047500D01*
X222019761Y-116999880D01*
X222067380Y-116904642D01*
X222067380Y-116809404D01*
X222019761Y-116714166D01*
X221972142Y-116666547D01*
X221876904Y-116618928D01*
X221686428Y-116571309D01*
X221448333Y-116571309D01*
X221257857Y-116618928D01*
X221162619Y-116666547D01*
X221115000Y-116714166D01*
X221067380Y-116809404D01*
X222067380Y-118095119D02*
X222067380Y-117523690D01*
X222067380Y-117809404D02*
X221067380Y-117809404D01*
X221210238Y-117714166D01*
X221305476Y-117618928D01*
X221353095Y-117523690D01*
X221972142Y-118523690D02*
X222019761Y-118571309D01*
X222067380Y-118523690D01*
X222019761Y-118476071D01*
X221972142Y-118523690D01*
X222067380Y-118523690D01*
X221972142Y-118999880D02*
X222019761Y-119047500D01*
X222067380Y-118999880D01*
X222019761Y-118952261D01*
X221972142Y-118999880D01*
X222067380Y-118999880D01*
X222067380Y-119476071D02*
X221067380Y-119476071D01*
X221067380Y-119714166D01*
X221115000Y-119857023D01*
X221210238Y-119952261D01*
X221305476Y-119999880D01*
X221495952Y-120047500D01*
X221638809Y-120047500D01*
X221829285Y-119999880D01*
X221924523Y-119952261D01*
X222019761Y-119857023D01*
X222067380Y-119714166D01*
X222067380Y-119476071D01*
X222067380Y-120523690D02*
X222067380Y-120714166D01*
X222019761Y-120809404D01*
X221972142Y-120857023D01*
X221829285Y-120952261D01*
X221638809Y-120999880D01*
X221257857Y-120999880D01*
X221162619Y-120952261D01*
X221115000Y-120904642D01*
X221067380Y-120809404D01*
X221067380Y-120618928D01*
X221115000Y-120523690D01*
X221162619Y-120476071D01*
X221257857Y-120428452D01*
X221495952Y-120428452D01*
X221591190Y-120476071D01*
X221638809Y-120523690D01*
X221686428Y-120618928D01*
X221686428Y-120809404D01*
X221638809Y-120904642D01*
X221591190Y-120952261D01*
X221495952Y-120999880D01*
X221067380Y-121618928D02*
X221067380Y-121714166D01*
X221115000Y-121809404D01*
X221162619Y-121857023D01*
X221257857Y-121904642D01*
X221448333Y-121952261D01*
X221686428Y-121952261D01*
X221876904Y-121904642D01*
X221972142Y-121857023D01*
X222019761Y-121809404D01*
X222067380Y-121714166D01*
X222067380Y-121618928D01*
X222019761Y-121523690D01*
X221972142Y-121476071D01*
X221876904Y-121428452D01*
X221686428Y-121380833D01*
X221448333Y-121380833D01*
X221257857Y-121428452D01*
X221162619Y-121476071D01*
X221115000Y-121523690D01*
X221067380Y-121618928D01*
X221067380Y-122857023D02*
X221067380Y-122380833D01*
X221543571Y-122333214D01*
X221495952Y-122380833D01*
X221448333Y-122476071D01*
X221448333Y-122714166D01*
X221495952Y-122809404D01*
X221543571Y-122857023D01*
X221638809Y-122904642D01*
X221876904Y-122904642D01*
X221972142Y-122857023D01*
X222019761Y-122809404D01*
X222067380Y-122714166D01*
X222067380Y-122476071D01*
X222019761Y-122380833D01*
X221972142Y-122333214D01*
X222448333Y-123237976D02*
X222400714Y-123285595D01*
X222257857Y-123380833D01*
X222162619Y-123428452D01*
X222019761Y-123476071D01*
X221781666Y-123523690D01*
X221591190Y-123523690D01*
X221353095Y-123476071D01*
X221210238Y-123428452D01*
X221115000Y-123380833D01*
X220972142Y-123285595D01*
X220924523Y-123237976D01*
X222067380Y-125190357D02*
X221543571Y-125190357D01*
X221448333Y-125142738D01*
X221400714Y-125047500D01*
X221400714Y-124857023D01*
X221448333Y-124761785D01*
X222019761Y-125190357D02*
X222067380Y-125095119D01*
X222067380Y-124857023D01*
X222019761Y-124761785D01*
X221924523Y-124714166D01*
X221829285Y-124714166D01*
X221734047Y-124761785D01*
X221686428Y-124857023D01*
X221686428Y-125095119D01*
X221638809Y-125190357D01*
X222067380Y-125666547D02*
X221400714Y-125666547D01*
X221591190Y-125666547D02*
X221495952Y-125714166D01*
X221448333Y-125761785D01*
X221400714Y-125857023D01*
X221400714Y-125952261D01*
X222019761Y-126666547D02*
X222067380Y-126571309D01*
X222067380Y-126380833D01*
X222019761Y-126285595D01*
X221924523Y-126237976D01*
X221543571Y-126237976D01*
X221448333Y-126285595D01*
X221400714Y-126380833D01*
X221400714Y-126571309D01*
X221448333Y-126666547D01*
X221543571Y-126714166D01*
X221638809Y-126714166D01*
X221734047Y-126237976D01*
X222067380Y-127904642D02*
X221067380Y-127904642D01*
X221067380Y-128285595D01*
X221115000Y-128380833D01*
X221162619Y-128428452D01*
X221257857Y-128476071D01*
X221400714Y-128476071D01*
X221495952Y-128428452D01*
X221543571Y-128380833D01*
X221591190Y-128285595D01*
X221591190Y-127904642D01*
X221543571Y-128904642D02*
X221543571Y-129237976D01*
X222067380Y-129380833D02*
X222067380Y-128904642D01*
X221067380Y-128904642D01*
X221067380Y-129380833D01*
X222019761Y-129761785D02*
X222067380Y-129904642D01*
X222067380Y-130142738D01*
X222019761Y-130237976D01*
X221972142Y-130285595D01*
X221876904Y-130333214D01*
X221781666Y-130333214D01*
X221686428Y-130285595D01*
X221638809Y-130237976D01*
X221591190Y-130142738D01*
X221543571Y-129952261D01*
X221495952Y-129857023D01*
X221448333Y-129809404D01*
X221353095Y-129761785D01*
X221257857Y-129761785D01*
X221162619Y-129809404D01*
X221115000Y-129857023D01*
X221067380Y-129952261D01*
X221067380Y-130190357D01*
X221115000Y-130333214D01*
X222067380Y-130761785D02*
X221067380Y-130761785D01*
X221067380Y-130999880D01*
X221115000Y-131142738D01*
X221210238Y-131237976D01*
X221305476Y-131285595D01*
X221495952Y-131333214D01*
X221638809Y-131333214D01*
X221829285Y-131285595D01*
X221924523Y-131237976D01*
X222019761Y-131142738D01*
X222067380Y-130999880D01*
X222067380Y-130761785D01*
X221067380Y-132237976D02*
X221067380Y-131761785D01*
X221543571Y-131714166D01*
X221495952Y-131761785D01*
X221448333Y-131857023D01*
X221448333Y-132095119D01*
X221495952Y-132190357D01*
X221543571Y-132237976D01*
X221638809Y-132285595D01*
X221876904Y-132285595D01*
X221972142Y-132237976D01*
X222019761Y-132190357D01*
X222067380Y-132095119D01*
X222067380Y-131857023D01*
X222019761Y-131761785D01*
X221972142Y-131714166D01*
X221067380Y-132571309D02*
X222067380Y-132904642D01*
X221067380Y-133237976D01*
X221067380Y-133761785D02*
X221067380Y-133857023D01*
X221115000Y-133952261D01*
X221162619Y-133999880D01*
X221257857Y-134047500D01*
X221448333Y-134095119D01*
X221686428Y-134095119D01*
X221876904Y-134047500D01*
X221972142Y-133999880D01*
X222019761Y-133952261D01*
X222067380Y-133857023D01*
X222067380Y-133761785D01*
X222019761Y-133666547D01*
X221972142Y-133618928D01*
X221876904Y-133571309D01*
X221686428Y-133523690D01*
X221448333Y-133523690D01*
X221257857Y-133571309D01*
X221162619Y-133618928D01*
X221115000Y-133666547D01*
X221067380Y-133761785D01*
X221067380Y-134380833D02*
X222067380Y-134714166D01*
X221067380Y-135047500D01*
X222067380Y-135904642D02*
X222067380Y-135333214D01*
X222067380Y-135618928D02*
X221067380Y-135618928D01*
X221210238Y-135523690D01*
X221305476Y-135428452D01*
X221353095Y-135333214D01*
X221543571Y-136666547D02*
X221591190Y-136809404D01*
X221638809Y-136857023D01*
X221734047Y-136904642D01*
X221876904Y-136904642D01*
X221972142Y-136857023D01*
X222019761Y-136809404D01*
X222067380Y-136714166D01*
X222067380Y-136333214D01*
X221067380Y-136333214D01*
X221067380Y-136666547D01*
X221115000Y-136761785D01*
X221162619Y-136809404D01*
X221257857Y-136857023D01*
X221353095Y-136857023D01*
X221448333Y-136809404D01*
X221495952Y-136761785D01*
X221543571Y-136666547D01*
X221543571Y-136333214D01*
X221781666Y-137285595D02*
X221781666Y-137761785D01*
X222067380Y-137190357D02*
X221067380Y-137523690D01*
X222067380Y-137857023D01*
X221019761Y-138904642D02*
X222305476Y-138047499D01*
X222019761Y-139190357D02*
X222067380Y-139333214D01*
X222067380Y-139571309D01*
X222019761Y-139666547D01*
X221972142Y-139714166D01*
X221876904Y-139761785D01*
X221781666Y-139761785D01*
X221686428Y-139714166D01*
X221638809Y-139666547D01*
X221591190Y-139571309D01*
X221543571Y-139380833D01*
X221495952Y-139285595D01*
X221448333Y-139237976D01*
X221353095Y-139190357D01*
X221257857Y-139190357D01*
X221162619Y-139237976D01*
X221115000Y-139285595D01*
X221067380Y-139380833D01*
X221067380Y-139618928D01*
X221115000Y-139761785D01*
X221067380Y-140380833D02*
X221067380Y-140571309D01*
X221115000Y-140666547D01*
X221210238Y-140761785D01*
X221400714Y-140809404D01*
X221734047Y-140809404D01*
X221924523Y-140761785D01*
X222019761Y-140666547D01*
X222067380Y-140571309D01*
X222067380Y-140380833D01*
X222019761Y-140285595D01*
X221924523Y-140190357D01*
X221734047Y-140142738D01*
X221400714Y-140142738D01*
X221210238Y-140190357D01*
X221115000Y-140285595D01*
X221067380Y-140380833D01*
X222067380Y-141237976D02*
X221067380Y-141237976D01*
X221067380Y-141476071D01*
X221115000Y-141618928D01*
X221210238Y-141714166D01*
X221305476Y-141761785D01*
X221495952Y-141809404D01*
X221638809Y-141809404D01*
X221829285Y-141761785D01*
X221924523Y-141714166D01*
X222019761Y-141618928D01*
X222067380Y-141476071D01*
X222067380Y-141237976D01*
X221067380Y-142142738D02*
X221067380Y-142761785D01*
X221448333Y-142428452D01*
X221448333Y-142571309D01*
X221495952Y-142666547D01*
X221543571Y-142714166D01*
X221638809Y-142761785D01*
X221876904Y-142761785D01*
X221972142Y-142714166D01*
X222019761Y-142666547D01*
X222067380Y-142571309D01*
X222067380Y-142285595D01*
X222019761Y-142190357D01*
X221972142Y-142142738D01*
X221162619Y-143142738D02*
X221115000Y-143190357D01*
X221067380Y-143285595D01*
X221067380Y-143523690D01*
X221115000Y-143618928D01*
X221162619Y-143666547D01*
X221257857Y-143714166D01*
X221353095Y-143714166D01*
X221495952Y-143666547D01*
X222067380Y-143095119D01*
X222067380Y-143714166D01*
X221067380Y-144047499D02*
X221067380Y-144666547D01*
X221448333Y-144333214D01*
X221448333Y-144476071D01*
X221495952Y-144571309D01*
X221543571Y-144618928D01*
X221638809Y-144666547D01*
X221876904Y-144666547D01*
X221972142Y-144618928D01*
X222019761Y-144571309D01*
X222067380Y-144476071D01*
X222067380Y-144190357D01*
X222019761Y-144095119D01*
X221972142Y-144047499D01*
X222019761Y-145142738D02*
X222067380Y-145142738D01*
X222162619Y-145095119D01*
X222210238Y-145047499D01*
X223050714Y-108142738D02*
X223050714Y-108523690D01*
X222717380Y-108285595D02*
X223574523Y-108285595D01*
X223669761Y-108333214D01*
X223717380Y-108428452D01*
X223717380Y-108523690D01*
X223717380Y-108857023D02*
X222717380Y-108857023D01*
X223717380Y-109285595D02*
X223193571Y-109285595D01*
X223098333Y-109237976D01*
X223050714Y-109142738D01*
X223050714Y-108999880D01*
X223098333Y-108904642D01*
X223145952Y-108857023D01*
X223669761Y-110142738D02*
X223717380Y-110047500D01*
X223717380Y-109857023D01*
X223669761Y-109761785D01*
X223574523Y-109714166D01*
X223193571Y-109714166D01*
X223098333Y-109761785D01*
X223050714Y-109857023D01*
X223050714Y-110047500D01*
X223098333Y-110142738D01*
X223193571Y-110190357D01*
X223288809Y-110190357D01*
X223384047Y-109714166D01*
X223050714Y-110523690D02*
X223717380Y-110761785D01*
X223050714Y-110999880D02*
X223717380Y-110761785D01*
X223955476Y-110666547D01*
X224003095Y-110618928D01*
X224050714Y-110523690D01*
X223717380Y-112571309D02*
X223193571Y-112571309D01*
X223098333Y-112523690D01*
X223050714Y-112428452D01*
X223050714Y-112237976D01*
X223098333Y-112142738D01*
X223669761Y-112571309D02*
X223717380Y-112476071D01*
X223717380Y-112237976D01*
X223669761Y-112142738D01*
X223574523Y-112095119D01*
X223479285Y-112095119D01*
X223384047Y-112142738D01*
X223336428Y-112237976D01*
X223336428Y-112476071D01*
X223288809Y-112571309D01*
X223717380Y-113047500D02*
X223050714Y-113047500D01*
X223241190Y-113047500D02*
X223145952Y-113095119D01*
X223098333Y-113142738D01*
X223050714Y-113237976D01*
X223050714Y-113333214D01*
X223669761Y-114047500D02*
X223717380Y-113952261D01*
X223717380Y-113761785D01*
X223669761Y-113666547D01*
X223574523Y-113618928D01*
X223193571Y-113618928D01*
X223098333Y-113666547D01*
X223050714Y-113761785D01*
X223050714Y-113952261D01*
X223098333Y-114047500D01*
X223193571Y-114095119D01*
X223288809Y-114095119D01*
X223384047Y-113618928D01*
X223717380Y-115285595D02*
X222717380Y-115285595D01*
X223098333Y-115285595D02*
X223050714Y-115380833D01*
X223050714Y-115571309D01*
X223098333Y-115666547D01*
X223145952Y-115714166D01*
X223241190Y-115761785D01*
X223526904Y-115761785D01*
X223622142Y-115714166D01*
X223669761Y-115666547D01*
X223717380Y-115571309D01*
X223717380Y-115380833D01*
X223669761Y-115285595D01*
X223717380Y-116190357D02*
X223050714Y-116190357D01*
X222717380Y-116190357D02*
X222765000Y-116142738D01*
X222812619Y-116190357D01*
X222765000Y-116237976D01*
X222717380Y-116190357D01*
X222812619Y-116190357D01*
X223717380Y-117095119D02*
X222717380Y-117095119D01*
X223669761Y-117095119D02*
X223717380Y-116999880D01*
X223717380Y-116809404D01*
X223669761Y-116714166D01*
X223622142Y-116666547D01*
X223526904Y-116618928D01*
X223241190Y-116618928D01*
X223145952Y-116666547D01*
X223098333Y-116714166D01*
X223050714Y-116809404D01*
X223050714Y-116999880D01*
X223098333Y-117095119D01*
X223717380Y-117571309D02*
X223050714Y-117571309D01*
X222717380Y-117571309D02*
X222765000Y-117523690D01*
X222812619Y-117571309D01*
X222765000Y-117618928D01*
X222717380Y-117571309D01*
X222812619Y-117571309D01*
X223717380Y-118047500D02*
X223050714Y-118047500D01*
X223241190Y-118047500D02*
X223145952Y-118095119D01*
X223098333Y-118142738D01*
X223050714Y-118237976D01*
X223050714Y-118333214D01*
X223669761Y-119047500D02*
X223717380Y-118952261D01*
X223717380Y-118761785D01*
X223669761Y-118666547D01*
X223574523Y-118618928D01*
X223193571Y-118618928D01*
X223098333Y-118666547D01*
X223050714Y-118761785D01*
X223050714Y-118952261D01*
X223098333Y-119047500D01*
X223193571Y-119095119D01*
X223288809Y-119095119D01*
X223384047Y-118618928D01*
X223669761Y-119952261D02*
X223717380Y-119857023D01*
X223717380Y-119666547D01*
X223669761Y-119571309D01*
X223622142Y-119523690D01*
X223526904Y-119476071D01*
X223241190Y-119476071D01*
X223145952Y-119523690D01*
X223098333Y-119571309D01*
X223050714Y-119666547D01*
X223050714Y-119857023D01*
X223098333Y-119952261D01*
X223050714Y-120237976D02*
X223050714Y-120618928D01*
X222717380Y-120380833D02*
X223574523Y-120380833D01*
X223669761Y-120428452D01*
X223717380Y-120523690D01*
X223717380Y-120618928D01*
X223717380Y-120952261D02*
X223050714Y-120952261D01*
X222717380Y-120952261D02*
X222765000Y-120904642D01*
X222812619Y-120952261D01*
X222765000Y-120999880D01*
X222717380Y-120952261D01*
X222812619Y-120952261D01*
X223717380Y-121571309D02*
X223669761Y-121476071D01*
X223622142Y-121428452D01*
X223526904Y-121380833D01*
X223241190Y-121380833D01*
X223145952Y-121428452D01*
X223098333Y-121476071D01*
X223050714Y-121571309D01*
X223050714Y-121714166D01*
X223098333Y-121809404D01*
X223145952Y-121857023D01*
X223241190Y-121904642D01*
X223526904Y-121904642D01*
X223622142Y-121857023D01*
X223669761Y-121809404D01*
X223717380Y-121714166D01*
X223717380Y-121571309D01*
X223050714Y-122333214D02*
X223717380Y-122333214D01*
X223145952Y-122333214D02*
X223098333Y-122380833D01*
X223050714Y-122476071D01*
X223050714Y-122618928D01*
X223098333Y-122714166D01*
X223193571Y-122761785D01*
X223717380Y-122761785D01*
X223717380Y-123666547D02*
X223193571Y-123666547D01*
X223098333Y-123618928D01*
X223050714Y-123523690D01*
X223050714Y-123333214D01*
X223098333Y-123237976D01*
X223669761Y-123666547D02*
X223717380Y-123571309D01*
X223717380Y-123333214D01*
X223669761Y-123237976D01*
X223574523Y-123190357D01*
X223479285Y-123190357D01*
X223384047Y-123237976D01*
X223336428Y-123333214D01*
X223336428Y-123571309D01*
X223288809Y-123666547D01*
X223717380Y-124285595D02*
X223669761Y-124190357D01*
X223574523Y-124142738D01*
X222717380Y-124142738D01*
X223669761Y-125380833D02*
X223717380Y-125476071D01*
X223717380Y-125666547D01*
X223669761Y-125761785D01*
X223574523Y-125809404D01*
X223526904Y-125809404D01*
X223431666Y-125761785D01*
X223384047Y-125666547D01*
X223384047Y-125523690D01*
X223336428Y-125428452D01*
X223241190Y-125380833D01*
X223193571Y-125380833D01*
X223098333Y-125428452D01*
X223050714Y-125523690D01*
X223050714Y-125666547D01*
X223098333Y-125761785D01*
X223717380Y-126380833D02*
X223669761Y-126285595D01*
X223622142Y-126237976D01*
X223526904Y-126190357D01*
X223241190Y-126190357D01*
X223145952Y-126237976D01*
X223098333Y-126285595D01*
X223050714Y-126380833D01*
X223050714Y-126523690D01*
X223098333Y-126618928D01*
X223145952Y-126666547D01*
X223241190Y-126714166D01*
X223526904Y-126714166D01*
X223622142Y-126666547D01*
X223669761Y-126618928D01*
X223717380Y-126523690D01*
X223717380Y-126380833D01*
X223717380Y-128047500D02*
X223669761Y-127952261D01*
X223622142Y-127904642D01*
X223526904Y-127857023D01*
X223241190Y-127857023D01*
X223145952Y-127904642D01*
X223098333Y-127952261D01*
X223050714Y-128047500D01*
X223050714Y-128190357D01*
X223098333Y-128285595D01*
X223145952Y-128333214D01*
X223241190Y-128380833D01*
X223526904Y-128380833D01*
X223622142Y-128333214D01*
X223669761Y-128285595D01*
X223717380Y-128190357D01*
X223717380Y-128047500D01*
X223717380Y-128809404D02*
X223050714Y-128809404D01*
X223241190Y-128809404D02*
X223145952Y-128857023D01*
X223098333Y-128904642D01*
X223050714Y-128999880D01*
X223050714Y-129095119D01*
X223717380Y-129428452D02*
X223050714Y-129428452D01*
X222717380Y-129428452D02*
X222765000Y-129380833D01*
X222812619Y-129428452D01*
X222765000Y-129476071D01*
X222717380Y-129428452D01*
X222812619Y-129428452D01*
X223050714Y-129761785D02*
X223050714Y-130142738D01*
X222717380Y-129904642D02*
X223574523Y-129904642D01*
X223669761Y-129952261D01*
X223717380Y-130047500D01*
X223717380Y-130142738D01*
X223669761Y-130857023D02*
X223717380Y-130761785D01*
X223717380Y-130571309D01*
X223669761Y-130476071D01*
X223574523Y-130428452D01*
X223193571Y-130428452D01*
X223098333Y-130476071D01*
X223050714Y-130571309D01*
X223050714Y-130761785D01*
X223098333Y-130857023D01*
X223193571Y-130904642D01*
X223288809Y-130904642D01*
X223384047Y-130428452D01*
X223050714Y-131333214D02*
X223717380Y-131333214D01*
X223145952Y-131333214D02*
X223098333Y-131380833D01*
X223050714Y-131476071D01*
X223050714Y-131618928D01*
X223098333Y-131714166D01*
X223193571Y-131761785D01*
X223717380Y-131761785D01*
X223050714Y-132095119D02*
X223050714Y-132476071D01*
X222717380Y-132237976D02*
X223574523Y-132237976D01*
X223669761Y-132285595D01*
X223717380Y-132380833D01*
X223717380Y-132476071D01*
X223717380Y-133237976D02*
X223193571Y-133237976D01*
X223098333Y-133190357D01*
X223050714Y-133095119D01*
X223050714Y-132904642D01*
X223098333Y-132809404D01*
X223669761Y-133237976D02*
X223717380Y-133142738D01*
X223717380Y-132904642D01*
X223669761Y-132809404D01*
X223574523Y-132761785D01*
X223479285Y-132761785D01*
X223384047Y-132809404D01*
X223336428Y-132904642D01*
X223336428Y-133142738D01*
X223288809Y-133237976D01*
X223050714Y-133571309D02*
X223050714Y-133952261D01*
X222717380Y-133714166D02*
X223574523Y-133714166D01*
X223669761Y-133761785D01*
X223717380Y-133857023D01*
X223717380Y-133952261D01*
X223717380Y-134285595D02*
X223050714Y-134285595D01*
X222717380Y-134285595D02*
X222765000Y-134237976D01*
X222812619Y-134285595D01*
X222765000Y-134333214D01*
X222717380Y-134285595D01*
X222812619Y-134285595D01*
X223717380Y-134904642D02*
X223669761Y-134809404D01*
X223622142Y-134761785D01*
X223526904Y-134714166D01*
X223241190Y-134714166D01*
X223145952Y-134761785D01*
X223098333Y-134809404D01*
X223050714Y-134904642D01*
X223050714Y-135047499D01*
X223098333Y-135142738D01*
X223145952Y-135190357D01*
X223241190Y-135237976D01*
X223526904Y-135237976D01*
X223622142Y-135190357D01*
X223669761Y-135142738D01*
X223717380Y-135047499D01*
X223717380Y-134904642D01*
X223050714Y-135666547D02*
X223717380Y-135666547D01*
X223145952Y-135666547D02*
X223098333Y-135714166D01*
X223050714Y-135809404D01*
X223050714Y-135952261D01*
X223098333Y-136047499D01*
X223193571Y-136095119D01*
X223717380Y-136095119D01*
X223717380Y-137333214D02*
X223050714Y-137333214D01*
X222717380Y-137333214D02*
X222765000Y-137285595D01*
X222812619Y-137333214D01*
X222765000Y-137380833D01*
X222717380Y-137333214D01*
X222812619Y-137333214D01*
X223669761Y-137761785D02*
X223717380Y-137857023D01*
X223717380Y-138047499D01*
X223669761Y-138142738D01*
X223574523Y-138190357D01*
X223526904Y-138190357D01*
X223431666Y-138142738D01*
X223384047Y-138047499D01*
X223384047Y-137904642D01*
X223336428Y-137809404D01*
X223241190Y-137761785D01*
X223193571Y-137761785D01*
X223098333Y-137809404D01*
X223050714Y-137904642D01*
X223050714Y-138047499D01*
X223098333Y-138142738D01*
X223717380Y-139380833D02*
X223050714Y-139380833D01*
X222717380Y-139380833D02*
X222765000Y-139333214D01*
X222812619Y-139380833D01*
X222765000Y-139428452D01*
X222717380Y-139380833D01*
X222812619Y-139380833D01*
X223717380Y-139857023D02*
X223050714Y-139857023D01*
X223241190Y-139857023D02*
X223145952Y-139904642D01*
X223098333Y-139952261D01*
X223050714Y-140047499D01*
X223050714Y-140142738D01*
X223717380Y-140476071D02*
X223050714Y-140476071D01*
X223241190Y-140476071D02*
X223145952Y-140523690D01*
X223098333Y-140571309D01*
X223050714Y-140666547D01*
X223050714Y-140761785D01*
X223669761Y-141476071D02*
X223717380Y-141380833D01*
X223717380Y-141190357D01*
X223669761Y-141095119D01*
X223574523Y-141047499D01*
X223193571Y-141047499D01*
X223098333Y-141095119D01*
X223050714Y-141190357D01*
X223050714Y-141380833D01*
X223098333Y-141476071D01*
X223193571Y-141523690D01*
X223288809Y-141523690D01*
X223384047Y-141047499D01*
X223717380Y-142095119D02*
X223669761Y-141999880D01*
X223574523Y-141952261D01*
X222717380Y-141952261D01*
X223669761Y-142857023D02*
X223717380Y-142761785D01*
X223717380Y-142571309D01*
X223669761Y-142476071D01*
X223574523Y-142428452D01*
X223193571Y-142428452D01*
X223098333Y-142476071D01*
X223050714Y-142571309D01*
X223050714Y-142761785D01*
X223098333Y-142857023D01*
X223193571Y-142904642D01*
X223288809Y-142904642D01*
X223384047Y-142428452D01*
X223050714Y-143237976D02*
X223717380Y-143476071D01*
X223050714Y-143714166D01*
X223717380Y-144523690D02*
X223193571Y-144523690D01*
X223098333Y-144476071D01*
X223050714Y-144380833D01*
X223050714Y-144190357D01*
X223098333Y-144095119D01*
X223669761Y-144523690D02*
X223717380Y-144428452D01*
X223717380Y-144190357D01*
X223669761Y-144095119D01*
X223574523Y-144047499D01*
X223479285Y-144047499D01*
X223384047Y-144095119D01*
X223336428Y-144190357D01*
X223336428Y-144428452D01*
X223288809Y-144523690D01*
X223050714Y-144999880D02*
X223717380Y-144999880D01*
X223145952Y-144999880D02*
X223098333Y-145047499D01*
X223050714Y-145142738D01*
X223050714Y-145285595D01*
X223098333Y-145380833D01*
X223193571Y-145428452D01*
X223717380Y-145428452D01*
X223050714Y-145761785D02*
X223050714Y-146142738D01*
X222717380Y-145904642D02*
X223574523Y-145904642D01*
X223669761Y-145952261D01*
X223717380Y-146047499D01*
X223717380Y-146142738D01*
X223622142Y-146476071D02*
X223669761Y-146523690D01*
X223717380Y-146476071D01*
X223669761Y-146428452D01*
X223622142Y-146476071D01*
X223717380Y-146476071D01*
X224367380Y-108142738D02*
X224367380Y-108714166D01*
X225367380Y-108428452D02*
X224367380Y-108428452D01*
X225367380Y-109047500D02*
X224367380Y-109047500D01*
X225367380Y-109476071D02*
X224843571Y-109476071D01*
X224748333Y-109428452D01*
X224700714Y-109333214D01*
X224700714Y-109190357D01*
X224748333Y-109095119D01*
X224795952Y-109047500D01*
X225319761Y-110333214D02*
X225367380Y-110237976D01*
X225367380Y-110047500D01*
X225319761Y-109952261D01*
X225224523Y-109904642D01*
X224843571Y-109904642D01*
X224748333Y-109952261D01*
X224700714Y-110047500D01*
X224700714Y-110237976D01*
X224748333Y-110333214D01*
X224843571Y-110380833D01*
X224938809Y-110380833D01*
X225034047Y-109904642D01*
X225367380Y-111999880D02*
X224367380Y-111999880D01*
X225319761Y-111999880D02*
X225367380Y-111904642D01*
X225367380Y-111714166D01*
X225319761Y-111618928D01*
X225272142Y-111571309D01*
X225176904Y-111523690D01*
X224891190Y-111523690D01*
X224795952Y-111571309D01*
X224748333Y-111618928D01*
X224700714Y-111714166D01*
X224700714Y-111904642D01*
X224748333Y-111999880D01*
X225367380Y-112476071D02*
X224700714Y-112476071D01*
X224367380Y-112476071D02*
X224415000Y-112428452D01*
X224462619Y-112476071D01*
X224415000Y-112523690D01*
X224367380Y-112476071D01*
X224462619Y-112476071D01*
X225367380Y-113095119D02*
X225319761Y-112999880D01*
X225272142Y-112952261D01*
X225176904Y-112904642D01*
X224891190Y-112904642D01*
X224795952Y-112952261D01*
X224748333Y-112999880D01*
X224700714Y-113095119D01*
X224700714Y-113237976D01*
X224748333Y-113333214D01*
X224795952Y-113380833D01*
X224891190Y-113428452D01*
X225176904Y-113428452D01*
X225272142Y-113380833D01*
X225319761Y-113333214D01*
X225367380Y-113237976D01*
X225367380Y-113095119D01*
X225367380Y-114285595D02*
X224367380Y-114285595D01*
X225319761Y-114285595D02*
X225367380Y-114190357D01*
X225367380Y-113999880D01*
X225319761Y-113904642D01*
X225272142Y-113857023D01*
X225176904Y-113809404D01*
X224891190Y-113809404D01*
X224795952Y-113857023D01*
X224748333Y-113904642D01*
X224700714Y-113999880D01*
X224700714Y-114190357D01*
X224748333Y-114285595D01*
X225319761Y-115142738D02*
X225367380Y-115047500D01*
X225367380Y-114857023D01*
X225319761Y-114761785D01*
X225224523Y-114714166D01*
X224843571Y-114714166D01*
X224748333Y-114761785D01*
X224700714Y-114857023D01*
X224700714Y-115047500D01*
X224748333Y-115142738D01*
X224843571Y-115190357D01*
X224938809Y-115190357D01*
X225034047Y-114714166D01*
X225319761Y-115571309D02*
X225367380Y-115666547D01*
X225367380Y-115857023D01*
X225319761Y-115952261D01*
X225224523Y-115999880D01*
X225176904Y-115999880D01*
X225081666Y-115952261D01*
X225034047Y-115857023D01*
X225034047Y-115714166D01*
X224986428Y-115618928D01*
X224891190Y-115571309D01*
X224843571Y-115571309D01*
X224748333Y-115618928D01*
X224700714Y-115714166D01*
X224700714Y-115857023D01*
X224748333Y-115952261D01*
X225367380Y-117618928D02*
X224843571Y-117618928D01*
X224748333Y-117571309D01*
X224700714Y-117476071D01*
X224700714Y-117285595D01*
X224748333Y-117190357D01*
X225319761Y-117618928D02*
X225367380Y-117523690D01*
X225367380Y-117285595D01*
X225319761Y-117190357D01*
X225224523Y-117142738D01*
X225129285Y-117142738D01*
X225034047Y-117190357D01*
X224986428Y-117285595D01*
X224986428Y-117523690D01*
X224938809Y-117618928D01*
X225367380Y-118095119D02*
X224700714Y-118095119D01*
X224891190Y-118095119D02*
X224795952Y-118142738D01*
X224748333Y-118190357D01*
X224700714Y-118285595D01*
X224700714Y-118380833D01*
X225319761Y-119095119D02*
X225367380Y-118999880D01*
X225367380Y-118809404D01*
X225319761Y-118714166D01*
X225224523Y-118666547D01*
X224843571Y-118666547D01*
X224748333Y-118714166D01*
X224700714Y-118809404D01*
X224700714Y-118999880D01*
X224748333Y-119095119D01*
X224843571Y-119142738D01*
X224938809Y-119142738D01*
X225034047Y-118666547D01*
X225367380Y-120333214D02*
X224700714Y-120333214D01*
X224891190Y-120333214D02*
X224795952Y-120380833D01*
X224748333Y-120428452D01*
X224700714Y-120523690D01*
X224700714Y-120618928D01*
X225319761Y-121333214D02*
X225367380Y-121237976D01*
X225367380Y-121047500D01*
X225319761Y-120952261D01*
X225224523Y-120904642D01*
X224843571Y-120904642D01*
X224748333Y-120952261D01*
X224700714Y-121047500D01*
X224700714Y-121237976D01*
X224748333Y-121333214D01*
X224843571Y-121380833D01*
X224938809Y-121380833D01*
X225034047Y-120904642D01*
X225319761Y-122237976D02*
X225367380Y-122142738D01*
X225367380Y-121952261D01*
X225319761Y-121857023D01*
X225272142Y-121809404D01*
X225176904Y-121761785D01*
X224891190Y-121761785D01*
X224795952Y-121809404D01*
X224748333Y-121857023D01*
X224700714Y-121952261D01*
X224700714Y-122142738D01*
X224748333Y-122237976D01*
X225367380Y-122809404D02*
X225319761Y-122714166D01*
X225272142Y-122666547D01*
X225176904Y-122618928D01*
X224891190Y-122618928D01*
X224795952Y-122666547D01*
X224748333Y-122714166D01*
X224700714Y-122809404D01*
X224700714Y-122952261D01*
X224748333Y-123047500D01*
X224795952Y-123095119D01*
X224891190Y-123142738D01*
X225176904Y-123142738D01*
X225272142Y-123095119D01*
X225319761Y-123047500D01*
X225367380Y-122952261D01*
X225367380Y-122809404D01*
X225367380Y-123571309D02*
X224700714Y-123571309D01*
X224795952Y-123571309D02*
X224748333Y-123618928D01*
X224700714Y-123714166D01*
X224700714Y-123857023D01*
X224748333Y-123952261D01*
X224843571Y-123999880D01*
X225367380Y-123999880D01*
X224843571Y-123999880D02*
X224748333Y-124047500D01*
X224700714Y-124142738D01*
X224700714Y-124285595D01*
X224748333Y-124380833D01*
X224843571Y-124428452D01*
X225367380Y-124428452D01*
X225367380Y-124904642D02*
X224700714Y-124904642D01*
X224795952Y-124904642D02*
X224748333Y-124952261D01*
X224700714Y-125047500D01*
X224700714Y-125190357D01*
X224748333Y-125285595D01*
X224843571Y-125333214D01*
X225367380Y-125333214D01*
X224843571Y-125333214D02*
X224748333Y-125380833D01*
X224700714Y-125476071D01*
X224700714Y-125618928D01*
X224748333Y-125714166D01*
X224843571Y-125761785D01*
X225367380Y-125761785D01*
X225319761Y-126618928D02*
X225367380Y-126523690D01*
X225367380Y-126333214D01*
X225319761Y-126237976D01*
X225224523Y-126190357D01*
X224843571Y-126190357D01*
X224748333Y-126237976D01*
X224700714Y-126333214D01*
X224700714Y-126523690D01*
X224748333Y-126618928D01*
X224843571Y-126666547D01*
X224938809Y-126666547D01*
X225034047Y-126190357D01*
X224700714Y-127095119D02*
X225367380Y-127095119D01*
X224795952Y-127095119D02*
X224748333Y-127142738D01*
X224700714Y-127237976D01*
X224700714Y-127380833D01*
X224748333Y-127476071D01*
X224843571Y-127523690D01*
X225367380Y-127523690D01*
X225367380Y-128428452D02*
X224367380Y-128428452D01*
X225319761Y-128428452D02*
X225367380Y-128333214D01*
X225367380Y-128142738D01*
X225319761Y-128047500D01*
X225272142Y-127999880D01*
X225176904Y-127952261D01*
X224891190Y-127952261D01*
X224795952Y-127999880D01*
X224748333Y-128047500D01*
X224700714Y-128142738D01*
X224700714Y-128333214D01*
X224748333Y-128428452D01*
X225319761Y-129285595D02*
X225367380Y-129190357D01*
X225367380Y-128999880D01*
X225319761Y-128904642D01*
X225224523Y-128857023D01*
X224843571Y-128857023D01*
X224748333Y-128904642D01*
X224700714Y-128999880D01*
X224700714Y-129190357D01*
X224748333Y-129285595D01*
X224843571Y-129333214D01*
X224938809Y-129333214D01*
X225034047Y-128857023D01*
X225367380Y-130190357D02*
X224367380Y-130190357D01*
X225319761Y-130190357D02*
X225367380Y-130095119D01*
X225367380Y-129904642D01*
X225319761Y-129809404D01*
X225272142Y-129761785D01*
X225176904Y-129714166D01*
X224891190Y-129714166D01*
X224795952Y-129761785D01*
X224748333Y-129809404D01*
X224700714Y-129904642D01*
X224700714Y-130095119D01*
X224748333Y-130190357D01*
X224700714Y-131285595D02*
X224700714Y-131666547D01*
X225367380Y-131428452D02*
X224510238Y-131428452D01*
X224415000Y-131476071D01*
X224367380Y-131571309D01*
X224367380Y-131666547D01*
X225367380Y-132142738D02*
X225319761Y-132047500D01*
X225272142Y-131999880D01*
X225176904Y-131952261D01*
X224891190Y-131952261D01*
X224795952Y-131999880D01*
X224748333Y-132047500D01*
X224700714Y-132142738D01*
X224700714Y-132285595D01*
X224748333Y-132380833D01*
X224795952Y-132428452D01*
X224891190Y-132476071D01*
X225176904Y-132476071D01*
X225272142Y-132428452D01*
X225319761Y-132380833D01*
X225367380Y-132285595D01*
X225367380Y-132142738D01*
X225367380Y-132904642D02*
X224700714Y-132904642D01*
X224891190Y-132904642D02*
X224795952Y-132952261D01*
X224748333Y-132999880D01*
X224700714Y-133095119D01*
X224700714Y-133190357D01*
X224843571Y-134285595D02*
X224843571Y-134618928D01*
X225367380Y-134761785D02*
X225367380Y-134285595D01*
X224367380Y-134285595D01*
X224367380Y-134761785D01*
X225319761Y-135142738D02*
X225367380Y-135285595D01*
X225367380Y-135523690D01*
X225319761Y-135618928D01*
X225272142Y-135666547D01*
X225176904Y-135714166D01*
X225081666Y-135714166D01*
X224986428Y-135666547D01*
X224938809Y-135618928D01*
X224891190Y-135523690D01*
X224843571Y-135333214D01*
X224795952Y-135237976D01*
X224748333Y-135190357D01*
X224653095Y-135142738D01*
X224557857Y-135142738D01*
X224462619Y-135190357D01*
X224415000Y-135237976D01*
X224367380Y-135333214D01*
X224367380Y-135571309D01*
X224415000Y-135714166D01*
X225367380Y-136142738D02*
X224367380Y-136142738D01*
X224367380Y-136380833D01*
X224415000Y-136523690D01*
X224510238Y-136618928D01*
X224605476Y-136666547D01*
X224795952Y-136714166D01*
X224938809Y-136714166D01*
X225129285Y-136666547D01*
X225224523Y-136618928D01*
X225319761Y-136523690D01*
X225367380Y-136380833D01*
X225367380Y-136142738D01*
X224700714Y-137904642D02*
X225700714Y-137904642D01*
X224748333Y-137904642D02*
X224700714Y-137999880D01*
X224700714Y-138190357D01*
X224748333Y-138285595D01*
X224795952Y-138333214D01*
X224891190Y-138380833D01*
X225176904Y-138380833D01*
X225272142Y-138333214D01*
X225319761Y-138285595D01*
X225367380Y-138190357D01*
X225367380Y-137999880D01*
X225319761Y-137904642D01*
X225367380Y-138809404D02*
X224700714Y-138809404D01*
X224891190Y-138809404D02*
X224795952Y-138857023D01*
X224748333Y-138904642D01*
X224700714Y-138999880D01*
X224700714Y-139095119D01*
X225367380Y-139571309D02*
X225319761Y-139476071D01*
X225272142Y-139428452D01*
X225176904Y-139380833D01*
X224891190Y-139380833D01*
X224795952Y-139428452D01*
X224748333Y-139476071D01*
X224700714Y-139571309D01*
X224700714Y-139714166D01*
X224748333Y-139809404D01*
X224795952Y-139857023D01*
X224891190Y-139904642D01*
X225176904Y-139904642D01*
X225272142Y-139857023D01*
X225319761Y-139809404D01*
X225367380Y-139714166D01*
X225367380Y-139571309D01*
X224700714Y-140190357D02*
X224700714Y-140571309D01*
X224367380Y-140333214D02*
X225224523Y-140333214D01*
X225319761Y-140380833D01*
X225367380Y-140476071D01*
X225367380Y-140571309D01*
X225319761Y-141285595D02*
X225367380Y-141190357D01*
X225367380Y-140999880D01*
X225319761Y-140904642D01*
X225224523Y-140857023D01*
X224843571Y-140857023D01*
X224748333Y-140904642D01*
X224700714Y-140999880D01*
X224700714Y-141190357D01*
X224748333Y-141285595D01*
X224843571Y-141333214D01*
X224938809Y-141333214D01*
X225034047Y-140857023D01*
X225319761Y-142190357D02*
X225367380Y-142095119D01*
X225367380Y-141904642D01*
X225319761Y-141809404D01*
X225272142Y-141761785D01*
X225176904Y-141714166D01*
X224891190Y-141714166D01*
X224795952Y-141761785D01*
X224748333Y-141809404D01*
X224700714Y-141904642D01*
X224700714Y-142095119D01*
X224748333Y-142190357D01*
X224700714Y-142476071D02*
X224700714Y-142857023D01*
X224367380Y-142618928D02*
X225224523Y-142618928D01*
X225319761Y-142666547D01*
X225367380Y-142761785D01*
X225367380Y-142857023D01*
X225367380Y-143190357D02*
X224700714Y-143190357D01*
X224367380Y-143190357D02*
X224415000Y-143142738D01*
X224462619Y-143190357D01*
X224415000Y-143237976D01*
X224367380Y-143190357D01*
X224462619Y-143190357D01*
X225367380Y-143809404D02*
X225319761Y-143714166D01*
X225272142Y-143666547D01*
X225176904Y-143618928D01*
X224891190Y-143618928D01*
X224795952Y-143666547D01*
X224748333Y-143714166D01*
X224700714Y-143809404D01*
X224700714Y-143952261D01*
X224748333Y-144047500D01*
X224795952Y-144095119D01*
X224891190Y-144142738D01*
X225176904Y-144142738D01*
X225272142Y-144095119D01*
X225319761Y-144047500D01*
X225367380Y-143952261D01*
X225367380Y-143809404D01*
X224700714Y-144571309D02*
X225367380Y-144571309D01*
X224795952Y-144571309D02*
X224748333Y-144618928D01*
X224700714Y-144714166D01*
X224700714Y-144857023D01*
X224748333Y-144952261D01*
X224843571Y-144999880D01*
X225367380Y-144999880D01*
X227017380Y-108285595D02*
X226017380Y-108285595D01*
X226398333Y-108285595D02*
X226350714Y-108380833D01*
X226350714Y-108571309D01*
X226398333Y-108666547D01*
X226445952Y-108714166D01*
X226541190Y-108761785D01*
X226826904Y-108761785D01*
X226922142Y-108714166D01*
X226969761Y-108666547D01*
X227017380Y-108571309D01*
X227017380Y-108380833D01*
X226969761Y-108285595D01*
X226350714Y-109618928D02*
X227017380Y-109618928D01*
X226350714Y-109190357D02*
X226874523Y-109190357D01*
X226969761Y-109237976D01*
X227017380Y-109333214D01*
X227017380Y-109476071D01*
X226969761Y-109571309D01*
X226922142Y-109618928D01*
X226350714Y-109952261D02*
X226350714Y-110333214D01*
X226017380Y-110095119D02*
X226874523Y-110095119D01*
X226969761Y-110142738D01*
X227017380Y-110237976D01*
X227017380Y-110333214D01*
X226350714Y-111285595D02*
X226350714Y-111666547D01*
X226017380Y-111428452D02*
X226874523Y-111428452D01*
X226969761Y-111476071D01*
X227017380Y-111571309D01*
X227017380Y-111666547D01*
X227017380Y-111999880D02*
X226017380Y-111999880D01*
X227017380Y-112428452D02*
X226493571Y-112428452D01*
X226398333Y-112380833D01*
X226350714Y-112285595D01*
X226350714Y-112142738D01*
X226398333Y-112047500D01*
X226445952Y-111999880D01*
X226969761Y-113285595D02*
X227017380Y-113190357D01*
X227017380Y-112999880D01*
X226969761Y-112904642D01*
X226874523Y-112857023D01*
X226493571Y-112857023D01*
X226398333Y-112904642D01*
X226350714Y-112999880D01*
X226350714Y-113190357D01*
X226398333Y-113285595D01*
X226493571Y-113333214D01*
X226588809Y-113333214D01*
X226684047Y-112857023D01*
X227017380Y-114523690D02*
X226017380Y-114523690D01*
X226398333Y-114523690D02*
X226350714Y-114618928D01*
X226350714Y-114809404D01*
X226398333Y-114904642D01*
X226445952Y-114952261D01*
X226541190Y-114999880D01*
X226826904Y-114999880D01*
X226922142Y-114952261D01*
X226969761Y-114904642D01*
X227017380Y-114809404D01*
X227017380Y-114618928D01*
X226969761Y-114523690D01*
X227017380Y-115571309D02*
X226969761Y-115476071D01*
X226922142Y-115428452D01*
X226826904Y-115380833D01*
X226541190Y-115380833D01*
X226445952Y-115428452D01*
X226398333Y-115476071D01*
X226350714Y-115571309D01*
X226350714Y-115714166D01*
X226398333Y-115809404D01*
X226445952Y-115857023D01*
X226541190Y-115904642D01*
X226826904Y-115904642D01*
X226922142Y-115857023D01*
X226969761Y-115809404D01*
X227017380Y-115714166D01*
X227017380Y-115571309D01*
X227017380Y-116761785D02*
X226493571Y-116761785D01*
X226398333Y-116714166D01*
X226350714Y-116618928D01*
X226350714Y-116428452D01*
X226398333Y-116333214D01*
X226969761Y-116761785D02*
X227017380Y-116666547D01*
X227017380Y-116428452D01*
X226969761Y-116333214D01*
X226874523Y-116285595D01*
X226779285Y-116285595D01*
X226684047Y-116333214D01*
X226636428Y-116428452D01*
X226636428Y-116666547D01*
X226588809Y-116761785D01*
X227017380Y-117237976D02*
X226350714Y-117237976D01*
X226541190Y-117237976D02*
X226445952Y-117285595D01*
X226398333Y-117333214D01*
X226350714Y-117428452D01*
X226350714Y-117523690D01*
X227017380Y-118285595D02*
X226017380Y-118285595D01*
X226969761Y-118285595D02*
X227017380Y-118190357D01*
X227017380Y-117999880D01*
X226969761Y-117904642D01*
X226922142Y-117857023D01*
X226826904Y-117809404D01*
X226541190Y-117809404D01*
X226445952Y-117857023D01*
X226398333Y-117904642D01*
X226350714Y-117999880D01*
X226350714Y-118190357D01*
X226398333Y-118285595D01*
X226350714Y-119428452D02*
X227017380Y-119618928D01*
X226541190Y-119809404D01*
X227017380Y-119999880D01*
X226350714Y-120190357D01*
X227017380Y-120571309D02*
X226350714Y-120571309D01*
X226017380Y-120571309D02*
X226065000Y-120523690D01*
X226112619Y-120571309D01*
X226065000Y-120618928D01*
X226017380Y-120571309D01*
X226112619Y-120571309D01*
X227017380Y-121190357D02*
X226969761Y-121095119D01*
X226874523Y-121047499D01*
X226017380Y-121047499D01*
X227017380Y-121714166D02*
X226969761Y-121618928D01*
X226874523Y-121571309D01*
X226017380Y-121571309D01*
X226350714Y-122761785D02*
X227017380Y-122952261D01*
X226541190Y-123142738D01*
X227017380Y-123333214D01*
X226350714Y-123523690D01*
X227017380Y-124047499D02*
X226969761Y-123952261D01*
X226922142Y-123904642D01*
X226826904Y-123857023D01*
X226541190Y-123857023D01*
X226445952Y-123904642D01*
X226398333Y-123952261D01*
X226350714Y-124047499D01*
X226350714Y-124190357D01*
X226398333Y-124285595D01*
X226445952Y-124333214D01*
X226541190Y-124380833D01*
X226826904Y-124380833D01*
X226922142Y-124333214D01*
X226969761Y-124285595D01*
X227017380Y-124190357D01*
X227017380Y-124047499D01*
X227017380Y-124809404D02*
X226350714Y-124809404D01*
X226541190Y-124809404D02*
X226445952Y-124857023D01*
X226398333Y-124904642D01*
X226350714Y-124999880D01*
X226350714Y-125095119D01*
X227017380Y-125428452D02*
X226017380Y-125428452D01*
X226636428Y-125523690D02*
X227017380Y-125809404D01*
X226350714Y-125809404D02*
X226731666Y-125428452D01*
X226350714Y-126857023D02*
X226350714Y-127237976D01*
X227017380Y-126999880D02*
X226160238Y-126999880D01*
X226065000Y-127047499D01*
X226017380Y-127142738D01*
X226017380Y-127237976D01*
X227017380Y-127571309D02*
X226350714Y-127571309D01*
X226017380Y-127571309D02*
X226065000Y-127523690D01*
X226112619Y-127571309D01*
X226065000Y-127618928D01*
X226017380Y-127571309D01*
X226112619Y-127571309D01*
X226350714Y-128047499D02*
X227017380Y-128047499D01*
X226445952Y-128047499D02*
X226398333Y-128095119D01*
X226350714Y-128190357D01*
X226350714Y-128333214D01*
X226398333Y-128428452D01*
X226493571Y-128476071D01*
X227017380Y-128476071D01*
X226969761Y-129333214D02*
X227017380Y-129237976D01*
X227017380Y-129047499D01*
X226969761Y-128952261D01*
X226874523Y-128904642D01*
X226493571Y-128904642D01*
X226398333Y-128952261D01*
X226350714Y-129047499D01*
X226350714Y-129237976D01*
X226398333Y-129333214D01*
X226493571Y-129380833D01*
X226588809Y-129380833D01*
X226684047Y-128904642D01*
X226350714Y-130476071D02*
X227017380Y-130666547D01*
X226541190Y-130857023D01*
X227017380Y-131047499D01*
X226350714Y-131237976D01*
X227017380Y-131618928D02*
X226350714Y-131618928D01*
X226017380Y-131618928D02*
X226065000Y-131571309D01*
X226112619Y-131618928D01*
X226065000Y-131666547D01*
X226017380Y-131618928D01*
X226112619Y-131618928D01*
X226350714Y-131952261D02*
X226350714Y-132333214D01*
X226017380Y-132095119D02*
X226874523Y-132095119D01*
X226969761Y-132142738D01*
X227017380Y-132237976D01*
X227017380Y-132333214D01*
X227017380Y-132666547D02*
X226017380Y-132666547D01*
X227017380Y-133095119D02*
X226493571Y-133095119D01*
X226398333Y-133047499D01*
X226350714Y-132952261D01*
X226350714Y-132809404D01*
X226398333Y-132714166D01*
X226445952Y-132666547D01*
X227017380Y-133714166D02*
X226969761Y-133618928D01*
X226922142Y-133571309D01*
X226826904Y-133523690D01*
X226541190Y-133523690D01*
X226445952Y-133571309D01*
X226398333Y-133618928D01*
X226350714Y-133714166D01*
X226350714Y-133857023D01*
X226398333Y-133952261D01*
X226445952Y-133999880D01*
X226541190Y-134047499D01*
X226826904Y-134047499D01*
X226922142Y-133999880D01*
X226969761Y-133952261D01*
X227017380Y-133857023D01*
X227017380Y-133714166D01*
X226350714Y-134904642D02*
X227017380Y-134904642D01*
X226350714Y-134476071D02*
X226874523Y-134476071D01*
X226969761Y-134523690D01*
X227017380Y-134618928D01*
X227017380Y-134761785D01*
X226969761Y-134857023D01*
X226922142Y-134904642D01*
X226350714Y-135237976D02*
X226350714Y-135618928D01*
X226017380Y-135380833D02*
X226874523Y-135380833D01*
X226969761Y-135428452D01*
X227017380Y-135523690D01*
X227017380Y-135618928D01*
X226350714Y-136571309D02*
X226350714Y-136952261D01*
X226017380Y-136714166D02*
X226874523Y-136714166D01*
X226969761Y-136761785D01*
X227017380Y-136857023D01*
X227017380Y-136952261D01*
X227017380Y-137285595D02*
X226017380Y-137285595D01*
X227017380Y-137714166D02*
X226493571Y-137714166D01*
X226398333Y-137666547D01*
X226350714Y-137571309D01*
X226350714Y-137428452D01*
X226398333Y-137333214D01*
X226445952Y-137285595D01*
X226969761Y-138571309D02*
X227017380Y-138476071D01*
X227017380Y-138285595D01*
X226969761Y-138190357D01*
X226874523Y-138142738D01*
X226493571Y-138142738D01*
X226398333Y-138190357D01*
X226350714Y-138285595D01*
X226350714Y-138476071D01*
X226398333Y-138571309D01*
X226493571Y-138618928D01*
X226588809Y-138618928D01*
X226684047Y-138142738D01*
X227017380Y-139047499D02*
X226350714Y-139047499D01*
X226445952Y-139047499D02*
X226398333Y-139095119D01*
X226350714Y-139190357D01*
X226350714Y-139333214D01*
X226398333Y-139428452D01*
X226493571Y-139476071D01*
X227017380Y-139476071D01*
X226493571Y-139476071D02*
X226398333Y-139523690D01*
X226350714Y-139618928D01*
X226350714Y-139761785D01*
X226398333Y-139857023D01*
X226493571Y-139904642D01*
X227017380Y-139904642D01*
X226922142Y-140380833D02*
X226969761Y-140428452D01*
X227017380Y-140380833D01*
X226969761Y-140333214D01*
X226922142Y-140380833D01*
X227017380Y-140380833D01*
X201367380Y-108285595D02*
X200367380Y-108285595D01*
X200748333Y-108285595D02*
X200700714Y-108380833D01*
X200700714Y-108571309D01*
X200748333Y-108666547D01*
X200795952Y-108714166D01*
X200891190Y-108761785D01*
X201176904Y-108761785D01*
X201272142Y-108714166D01*
X201319761Y-108666547D01*
X201367380Y-108571309D01*
X201367380Y-108380833D01*
X201319761Y-108285595D01*
X201367380Y-109190357D02*
X200700714Y-109190357D01*
X200891190Y-109190357D02*
X200795952Y-109237976D01*
X200748333Y-109285595D01*
X200700714Y-109380833D01*
X200700714Y-109476071D01*
X201319761Y-110190357D02*
X201367380Y-110095119D01*
X201367380Y-109904642D01*
X201319761Y-109809404D01*
X201224523Y-109761785D01*
X200843571Y-109761785D01*
X200748333Y-109809404D01*
X200700714Y-109904642D01*
X200700714Y-110095119D01*
X200748333Y-110190357D01*
X200843571Y-110237976D01*
X200938809Y-110237976D01*
X201034047Y-109761785D01*
X201367380Y-111095119D02*
X200843571Y-111095119D01*
X200748333Y-111047500D01*
X200700714Y-110952261D01*
X200700714Y-110761785D01*
X200748333Y-110666547D01*
X201319761Y-111095119D02*
X201367380Y-110999880D01*
X201367380Y-110761785D01*
X201319761Y-110666547D01*
X201224523Y-110618928D01*
X201129285Y-110618928D01*
X201034047Y-110666547D01*
X200986428Y-110761785D01*
X200986428Y-110999880D01*
X200938809Y-111095119D01*
X201367380Y-111999880D02*
X200367380Y-111999880D01*
X201319761Y-111999880D02*
X201367380Y-111904642D01*
X201367380Y-111714166D01*
X201319761Y-111618928D01*
X201272142Y-111571309D01*
X201176904Y-111523690D01*
X200891190Y-111523690D01*
X200795952Y-111571309D01*
X200748333Y-111618928D01*
X200700714Y-111714166D01*
X200700714Y-111904642D01*
X200748333Y-111999880D01*
X200795952Y-112618928D02*
X200748333Y-112523690D01*
X200700714Y-112476071D01*
X200605476Y-112428452D01*
X200557857Y-112428452D01*
X200462619Y-112476071D01*
X200415000Y-112523690D01*
X200367380Y-112618928D01*
X200367380Y-112809404D01*
X200415000Y-112904642D01*
X200462619Y-112952261D01*
X200557857Y-112999880D01*
X200605476Y-112999880D01*
X200700714Y-112952261D01*
X200748333Y-112904642D01*
X200795952Y-112809404D01*
X200795952Y-112618928D01*
X200843571Y-112523690D01*
X200891190Y-112476071D01*
X200986428Y-112428452D01*
X201176904Y-112428452D01*
X201272142Y-112476071D01*
X201319761Y-112523690D01*
X201367380Y-112618928D01*
X201367380Y-112809404D01*
X201319761Y-112904642D01*
X201272142Y-112952261D01*
X201176904Y-112999880D01*
X200986428Y-112999880D01*
X200891190Y-112952261D01*
X200843571Y-112904642D01*
X200795952Y-112809404D01*
X200367380Y-113618928D02*
X200367380Y-113714166D01*
X200415000Y-113809404D01*
X200462619Y-113857023D01*
X200557857Y-113904642D01*
X200748333Y-113952261D01*
X200986428Y-113952261D01*
X201176904Y-113904642D01*
X201272142Y-113857023D01*
X201319761Y-113809404D01*
X201367380Y-113714166D01*
X201367380Y-113618928D01*
X201319761Y-113523690D01*
X201272142Y-113476071D01*
X201176904Y-113428452D01*
X200986428Y-113380833D01*
X200748333Y-113380833D01*
X200557857Y-113428452D01*
X200462619Y-113476071D01*
X200415000Y-113523690D01*
X200367380Y-113618928D01*
X201272142Y-114380833D02*
X201319761Y-114428452D01*
X201367380Y-114380833D01*
X201319761Y-114333214D01*
X201272142Y-114380833D01*
X201367380Y-114380833D01*
X201319761Y-115285595D02*
X201367380Y-115190357D01*
X201367380Y-114999880D01*
X201319761Y-114904642D01*
X201272142Y-114857023D01*
X201176904Y-114809404D01*
X200891190Y-114809404D01*
X200795952Y-114857023D01*
X200748333Y-114904642D01*
X200700714Y-114999880D01*
X200700714Y-115190357D01*
X200748333Y-115285595D01*
X201367380Y-115857023D02*
X201319761Y-115761785D01*
X201272142Y-115714166D01*
X201176904Y-115666547D01*
X200891190Y-115666547D01*
X200795952Y-115714166D01*
X200748333Y-115761785D01*
X200700714Y-115857023D01*
X200700714Y-115999880D01*
X200748333Y-116095119D01*
X200795952Y-116142738D01*
X200891190Y-116190357D01*
X201176904Y-116190357D01*
X201272142Y-116142738D01*
X201319761Y-116095119D01*
X201367380Y-115999880D01*
X201367380Y-115857023D01*
X201367380Y-116618928D02*
X200700714Y-116618928D01*
X200795952Y-116618928D02*
X200748333Y-116666547D01*
X200700714Y-116761785D01*
X200700714Y-116904642D01*
X200748333Y-116999880D01*
X200843571Y-117047500D01*
X201367380Y-117047500D01*
X200843571Y-117047500D02*
X200748333Y-117095119D01*
X200700714Y-117190357D01*
X200700714Y-117333214D01*
X200748333Y-117428452D01*
X200843571Y-117476071D01*
X201367380Y-117476071D01*
X202350714Y-108714166D02*
X203160238Y-108714166D01*
X203255476Y-108666547D01*
X203303095Y-108618928D01*
X203350714Y-108523690D01*
X203350714Y-108380833D01*
X203303095Y-108285595D01*
X202969761Y-108714166D02*
X203017380Y-108618928D01*
X203017380Y-108428452D01*
X202969761Y-108333214D01*
X202922142Y-108285595D01*
X202826904Y-108237976D01*
X202541190Y-108237976D01*
X202445952Y-108285595D01*
X202398333Y-108333214D01*
X202350714Y-108428452D01*
X202350714Y-108618928D01*
X202398333Y-108714166D01*
X203017380Y-109190357D02*
X202350714Y-109190357D01*
X202017380Y-109190357D02*
X202065000Y-109142738D01*
X202112619Y-109190357D01*
X202065000Y-109237976D01*
X202017380Y-109190357D01*
X202112619Y-109190357D01*
X202350714Y-109523690D02*
X202350714Y-109904642D01*
X202017380Y-109666547D02*
X202874523Y-109666547D01*
X202969761Y-109714166D01*
X203017380Y-109809404D01*
X203017380Y-109904642D01*
X203017380Y-110237976D02*
X202017380Y-110237976D01*
X203017380Y-110666547D02*
X202493571Y-110666547D01*
X202398333Y-110618928D01*
X202350714Y-110523690D01*
X202350714Y-110380833D01*
X202398333Y-110285595D01*
X202445952Y-110237976D01*
X202350714Y-111571309D02*
X203017380Y-111571309D01*
X202350714Y-111142738D02*
X202874523Y-111142738D01*
X202969761Y-111190357D01*
X203017380Y-111285595D01*
X203017380Y-111428452D01*
X202969761Y-111523690D01*
X202922142Y-111571309D01*
X203017380Y-112047500D02*
X202017380Y-112047500D01*
X202398333Y-112047500D02*
X202350714Y-112142738D01*
X202350714Y-112333214D01*
X202398333Y-112428452D01*
X202445952Y-112476071D01*
X202541190Y-112523690D01*
X202826904Y-112523690D01*
X202922142Y-112476071D01*
X202969761Y-112428452D01*
X203017380Y-112333214D01*
X203017380Y-112142738D01*
X202969761Y-112047500D01*
X202922142Y-112952261D02*
X202969761Y-112999880D01*
X203017380Y-112952261D01*
X202969761Y-112904642D01*
X202922142Y-112952261D01*
X203017380Y-112952261D01*
X202969761Y-113857023D02*
X203017380Y-113761785D01*
X203017380Y-113571309D01*
X202969761Y-113476071D01*
X202922142Y-113428452D01*
X202826904Y-113380833D01*
X202541190Y-113380833D01*
X202445952Y-113428452D01*
X202398333Y-113476071D01*
X202350714Y-113571309D01*
X202350714Y-113761785D01*
X202398333Y-113857023D01*
X203017380Y-114428452D02*
X202969761Y-114333214D01*
X202922142Y-114285595D01*
X202826904Y-114237976D01*
X202541190Y-114237976D01*
X202445952Y-114285595D01*
X202398333Y-114333214D01*
X202350714Y-114428452D01*
X202350714Y-114571309D01*
X202398333Y-114666547D01*
X202445952Y-114714166D01*
X202541190Y-114761785D01*
X202826904Y-114761785D01*
X202922142Y-114714166D01*
X202969761Y-114666547D01*
X203017380Y-114571309D01*
X203017380Y-114428452D01*
X203017380Y-115190357D02*
X202350714Y-115190357D01*
X202445952Y-115190357D02*
X202398333Y-115237976D01*
X202350714Y-115333214D01*
X202350714Y-115476071D01*
X202398333Y-115571309D01*
X202493571Y-115618928D01*
X203017380Y-115618928D01*
X202493571Y-115618928D02*
X202398333Y-115666547D01*
X202350714Y-115761785D01*
X202350714Y-115904642D01*
X202398333Y-115999880D01*
X202493571Y-116047500D01*
X203017380Y-116047500D01*
X201969761Y-117237976D02*
X203255476Y-116380833D01*
X202493571Y-117904642D02*
X202541190Y-118047500D01*
X202588809Y-118095119D01*
X202684047Y-118142738D01*
X202826904Y-118142738D01*
X202922142Y-118095119D01*
X202969761Y-118047500D01*
X203017380Y-117952261D01*
X203017380Y-117571309D01*
X202017380Y-117571309D01*
X202017380Y-117904642D01*
X202065000Y-117999880D01*
X202112619Y-118047500D01*
X202207857Y-118095119D01*
X202303095Y-118095119D01*
X202398333Y-118047500D01*
X202445952Y-117999880D01*
X202493571Y-117904642D01*
X202493571Y-117571309D01*
X203017380Y-118571309D02*
X202350714Y-118571309D01*
X202541190Y-118571309D02*
X202445952Y-118618928D01*
X202398333Y-118666547D01*
X202350714Y-118761785D01*
X202350714Y-118857023D01*
X202969761Y-119571309D02*
X203017380Y-119476071D01*
X203017380Y-119285595D01*
X202969761Y-119190357D01*
X202874523Y-119142738D01*
X202493571Y-119142738D01*
X202398333Y-119190357D01*
X202350714Y-119285595D01*
X202350714Y-119476071D01*
X202398333Y-119571309D01*
X202493571Y-119618928D01*
X202588809Y-119618928D01*
X202684047Y-119142738D01*
X203017380Y-120476071D02*
X202493571Y-120476071D01*
X202398333Y-120428452D01*
X202350714Y-120333214D01*
X202350714Y-120142738D01*
X202398333Y-120047500D01*
X202969761Y-120476071D02*
X203017380Y-120380833D01*
X203017380Y-120142738D01*
X202969761Y-120047500D01*
X202874523Y-119999880D01*
X202779285Y-119999880D01*
X202684047Y-120047500D01*
X202636428Y-120142738D01*
X202636428Y-120380833D01*
X202588809Y-120476071D01*
X203017380Y-121380833D02*
X202017380Y-121380833D01*
X202969761Y-121380833D02*
X203017380Y-121285595D01*
X203017380Y-121095119D01*
X202969761Y-120999880D01*
X202922142Y-120952261D01*
X202826904Y-120904642D01*
X202541190Y-120904642D01*
X202445952Y-120952261D01*
X202398333Y-120999880D01*
X202350714Y-121095119D01*
X202350714Y-121285595D01*
X202398333Y-121380833D01*
X202445952Y-121999880D02*
X202398333Y-121904642D01*
X202350714Y-121857023D01*
X202255476Y-121809404D01*
X202207857Y-121809404D01*
X202112619Y-121857023D01*
X202065000Y-121904642D01*
X202017380Y-121999880D01*
X202017380Y-122190357D01*
X202065000Y-122285595D01*
X202112619Y-122333214D01*
X202207857Y-122380833D01*
X202255476Y-122380833D01*
X202350714Y-122333214D01*
X202398333Y-122285595D01*
X202445952Y-122190357D01*
X202445952Y-121999880D01*
X202493571Y-121904642D01*
X202541190Y-121857023D01*
X202636428Y-121809404D01*
X202826904Y-121809404D01*
X202922142Y-121857023D01*
X202969761Y-121904642D01*
X203017380Y-121999880D01*
X203017380Y-122190357D01*
X202969761Y-122285595D01*
X202922142Y-122333214D01*
X202826904Y-122380833D01*
X202636428Y-122380833D01*
X202541190Y-122333214D01*
X202493571Y-122285595D01*
X202445952Y-122190357D01*
X202017380Y-122999880D02*
X202017380Y-123095119D01*
X202065000Y-123190357D01*
X202112619Y-123237976D01*
X202207857Y-123285595D01*
X202398333Y-123333214D01*
X202636428Y-123333214D01*
X202826904Y-123285595D01*
X202922142Y-123237976D01*
X202969761Y-123190357D01*
X203017380Y-123095119D01*
X203017380Y-122999880D01*
X202969761Y-122904642D01*
X202922142Y-122857023D01*
X202826904Y-122809404D01*
X202636428Y-122761785D01*
X202398333Y-122761785D01*
X202207857Y-122809404D01*
X202112619Y-122857023D01*
X202065000Y-122904642D01*
X202017380Y-122999880D01*
X204667380Y-108285595D02*
X204000714Y-108285595D01*
X204095952Y-108285595D02*
X204048333Y-108333214D01*
X204000714Y-108428452D01*
X204000714Y-108571309D01*
X204048333Y-108666547D01*
X204143571Y-108714166D01*
X204667380Y-108714166D01*
X204143571Y-108714166D02*
X204048333Y-108761785D01*
X204000714Y-108857023D01*
X204000714Y-108999880D01*
X204048333Y-109095119D01*
X204143571Y-109142738D01*
X204667380Y-109142738D01*
X204619761Y-109571309D02*
X204667380Y-109666547D01*
X204667380Y-109857023D01*
X204619761Y-109952261D01*
X204524523Y-109999880D01*
X204476904Y-109999880D01*
X204381666Y-109952261D01*
X204334047Y-109857023D01*
X204334047Y-109714166D01*
X204286428Y-109618928D01*
X204191190Y-109571309D01*
X204143571Y-109571309D01*
X204048333Y-109618928D01*
X204000714Y-109714166D01*
X204000714Y-109857023D01*
X204048333Y-109952261D01*
X204000714Y-110285595D02*
X204000714Y-110666547D01*
X203667380Y-110428452D02*
X204524523Y-110428452D01*
X204619761Y-110476071D01*
X204667380Y-110571309D01*
X204667380Y-110666547D01*
X204667380Y-111428452D02*
X203667380Y-111428452D01*
X204619761Y-111428452D02*
X204667380Y-111333214D01*
X204667380Y-111142738D01*
X204619761Y-111047500D01*
X204572142Y-110999880D01*
X204476904Y-110952261D01*
X204191190Y-110952261D01*
X204095952Y-110999880D01*
X204048333Y-111047500D01*
X204000714Y-111142738D01*
X204000714Y-111333214D01*
X204048333Y-111428452D01*
X204000714Y-111904642D02*
X204667380Y-111904642D01*
X204095952Y-111904642D02*
X204048333Y-111952261D01*
X204000714Y-112047500D01*
X204000714Y-112190357D01*
X204048333Y-112285595D01*
X204143571Y-112333214D01*
X204667380Y-112333214D01*
X204572142Y-112809404D02*
X204619761Y-112857023D01*
X204667380Y-112809404D01*
X204619761Y-112761785D01*
X204572142Y-112809404D01*
X204667380Y-112809404D01*
X204619761Y-113237976D02*
X204667380Y-113333214D01*
X204667380Y-113523690D01*
X204619761Y-113618928D01*
X204524523Y-113666547D01*
X204476904Y-113666547D01*
X204381666Y-113618928D01*
X204334047Y-113523690D01*
X204334047Y-113380833D01*
X204286428Y-113285595D01*
X204191190Y-113237976D01*
X204143571Y-113237976D01*
X204048333Y-113285595D01*
X204000714Y-113380833D01*
X204000714Y-113523690D01*
X204048333Y-113618928D01*
X204667380Y-114237976D02*
X204619761Y-114142738D01*
X204572142Y-114095119D01*
X204476904Y-114047500D01*
X204191190Y-114047500D01*
X204095952Y-114095119D01*
X204048333Y-114142738D01*
X204000714Y-114237976D01*
X204000714Y-114380833D01*
X204048333Y-114476071D01*
X204095952Y-114523690D01*
X204191190Y-114571309D01*
X204476904Y-114571309D01*
X204572142Y-114523690D01*
X204619761Y-114476071D01*
X204667380Y-114380833D01*
X204667380Y-114237976D01*
X204619761Y-115428452D02*
X204667380Y-115333214D01*
X204667380Y-115142738D01*
X204619761Y-115047500D01*
X204572142Y-114999880D01*
X204476904Y-114952261D01*
X204191190Y-114952261D01*
X204095952Y-114999880D01*
X204048333Y-115047500D01*
X204000714Y-115142738D01*
X204000714Y-115333214D01*
X204048333Y-115428452D01*
X204667380Y-115857023D02*
X204000714Y-115857023D01*
X203667380Y-115857023D02*
X203715000Y-115809404D01*
X203762619Y-115857023D01*
X203715000Y-115904642D01*
X203667380Y-115857023D01*
X203762619Y-115857023D01*
X204667380Y-116761785D02*
X204143571Y-116761785D01*
X204048333Y-116714166D01*
X204000714Y-116618928D01*
X204000714Y-116428452D01*
X204048333Y-116333214D01*
X204619761Y-116761785D02*
X204667380Y-116666547D01*
X204667380Y-116428452D01*
X204619761Y-116333214D01*
X204524523Y-116285595D01*
X204429285Y-116285595D01*
X204334047Y-116333214D01*
X204286428Y-116428452D01*
X204286428Y-116666547D01*
X204238809Y-116761785D01*
X204667380Y-117380833D02*
X204619761Y-117285595D01*
X204524523Y-117237976D01*
X203667380Y-117237976D01*
X203619761Y-118476071D02*
X204905476Y-117618928D01*
X204191190Y-119428452D02*
X204143571Y-119380833D01*
X204095952Y-119285595D01*
X204095952Y-119190357D01*
X204143571Y-119095119D01*
X204191190Y-119047500D01*
X204286428Y-118999880D01*
X204381666Y-118999880D01*
X204476904Y-119047500D01*
X204524523Y-119095119D01*
X204572142Y-119190357D01*
X204572142Y-119285595D01*
X204524523Y-119380833D01*
X204476904Y-119428452D01*
X204095952Y-119428452D02*
X204476904Y-119428452D01*
X204524523Y-119476071D01*
X204524523Y-119523690D01*
X204476904Y-119618928D01*
X204381666Y-119666547D01*
X204143571Y-119666547D01*
X204000714Y-119571309D01*
X203905476Y-119428452D01*
X203857857Y-119237976D01*
X203905476Y-119047500D01*
X204000714Y-118904642D01*
X204143571Y-118809404D01*
X204334047Y-118761785D01*
X204524523Y-118809404D01*
X204667380Y-118904642D01*
X204762619Y-119047500D01*
X204810238Y-119237976D01*
X204762619Y-119428452D01*
X204667380Y-119571309D01*
X204667380Y-120095119D02*
X203667380Y-120095119D01*
X204048333Y-120095119D02*
X204000714Y-120190357D01*
X204000714Y-120380833D01*
X204048333Y-120476071D01*
X204095952Y-120523690D01*
X204191190Y-120571309D01*
X204476904Y-120571309D01*
X204572142Y-120523690D01*
X204619761Y-120476071D01*
X204667380Y-120380833D01*
X204667380Y-120190357D01*
X204619761Y-120095119D01*
X204667380Y-120999880D02*
X204000714Y-120999880D01*
X204191190Y-120999880D02*
X204095952Y-121047500D01*
X204048333Y-121095119D01*
X204000714Y-121190357D01*
X204000714Y-121285595D01*
X204619761Y-121999880D02*
X204667380Y-121904642D01*
X204667380Y-121714166D01*
X204619761Y-121618928D01*
X204524523Y-121571309D01*
X204143571Y-121571309D01*
X204048333Y-121618928D01*
X204000714Y-121714166D01*
X204000714Y-121904642D01*
X204048333Y-121999880D01*
X204143571Y-122047500D01*
X204238809Y-122047500D01*
X204334047Y-121571309D01*
X204667380Y-122904642D02*
X204143571Y-122904642D01*
X204048333Y-122857023D01*
X204000714Y-122761785D01*
X204000714Y-122571309D01*
X204048333Y-122476071D01*
X204619761Y-122904642D02*
X204667380Y-122809404D01*
X204667380Y-122571309D01*
X204619761Y-122476071D01*
X204524523Y-122428452D01*
X204429285Y-122428452D01*
X204334047Y-122476071D01*
X204286428Y-122571309D01*
X204286428Y-122809404D01*
X204238809Y-122904642D01*
X204667380Y-123809404D02*
X203667380Y-123809404D01*
X204619761Y-123809404D02*
X204667380Y-123714166D01*
X204667380Y-123523690D01*
X204619761Y-123428452D01*
X204572142Y-123380833D01*
X204476904Y-123333214D01*
X204191190Y-123333214D01*
X204095952Y-123380833D01*
X204048333Y-123428452D01*
X204000714Y-123523690D01*
X204000714Y-123714166D01*
X204048333Y-123809404D01*
X204095952Y-124428452D02*
X204048333Y-124333214D01*
X204000714Y-124285595D01*
X203905476Y-124237976D01*
X203857857Y-124237976D01*
X203762619Y-124285595D01*
X203715000Y-124333214D01*
X203667380Y-124428452D01*
X203667380Y-124618928D01*
X203715000Y-124714166D01*
X203762619Y-124761785D01*
X203857857Y-124809404D01*
X203905476Y-124809404D01*
X204000714Y-124761785D01*
X204048333Y-124714166D01*
X204095952Y-124618928D01*
X204095952Y-124428452D01*
X204143571Y-124333214D01*
X204191190Y-124285595D01*
X204286428Y-124237976D01*
X204476904Y-124237976D01*
X204572142Y-124285595D01*
X204619761Y-124333214D01*
X204667380Y-124428452D01*
X204667380Y-124618928D01*
X204619761Y-124714166D01*
X204572142Y-124761785D01*
X204476904Y-124809404D01*
X204286428Y-124809404D01*
X204191190Y-124761785D01*
X204143571Y-124714166D01*
X204095952Y-124618928D01*
X203667380Y-125428452D02*
X203667380Y-125523690D01*
X203715000Y-125618928D01*
X203762619Y-125666547D01*
X203857857Y-125714166D01*
X204048333Y-125761785D01*
X204286428Y-125761785D01*
X204476904Y-125714166D01*
X204572142Y-125666547D01*
X204619761Y-125618928D01*
X204667380Y-125523690D01*
X204667380Y-125428452D01*
X204619761Y-125333214D01*
X204572142Y-125285595D01*
X204476904Y-125237976D01*
X204286428Y-125190357D01*
X204048333Y-125190357D01*
X203857857Y-125237976D01*
X203762619Y-125285595D01*
X203715000Y-125333214D01*
X203667380Y-125428452D01*
X140682023Y-113196666D02*
X140205833Y-113196666D01*
X140777261Y-113482380D02*
X140443928Y-112482380D01*
X140110595Y-113482380D01*
X139777261Y-112815714D02*
X139777261Y-113482380D01*
X139777261Y-112910952D02*
X139729642Y-112863333D01*
X139634404Y-112815714D01*
X139491547Y-112815714D01*
X139396309Y-112863333D01*
X139348690Y-112958571D01*
X139348690Y-113482380D01*
X138158214Y-113196666D02*
X137682023Y-113196666D01*
X138253452Y-113482380D02*
X137920119Y-112482380D01*
X137586785Y-113482380D01*
X137253452Y-113482380D02*
X137253452Y-112815714D01*
X137253452Y-112910952D02*
X137205833Y-112863333D01*
X137110595Y-112815714D01*
X136967738Y-112815714D01*
X136872500Y-112863333D01*
X136824880Y-112958571D01*
X136824880Y-113482380D01*
X136824880Y-112958571D02*
X136777261Y-112863333D01*
X136682023Y-112815714D01*
X136539166Y-112815714D01*
X136443928Y-112863333D01*
X136396309Y-112958571D01*
X136396309Y-113482380D01*
X135967738Y-113434761D02*
X135872500Y-113482380D01*
X135682023Y-113482380D01*
X135586785Y-113434761D01*
X135539166Y-113339523D01*
X135539166Y-113291904D01*
X135586785Y-113196666D01*
X135682023Y-113149047D01*
X135824880Y-113149047D01*
X135920119Y-113101428D01*
X135967738Y-113006190D01*
X135967738Y-112958571D01*
X135920119Y-112863333D01*
X135824880Y-112815714D01*
X135682023Y-112815714D01*
X135586785Y-112863333D01*
X135253452Y-112815714D02*
X134872500Y-112815714D01*
X135110595Y-112482380D02*
X135110595Y-113339523D01*
X135062976Y-113434761D01*
X134967738Y-113482380D01*
X134872500Y-113482380D01*
X134539166Y-113482380D02*
X134539166Y-112815714D01*
X134539166Y-113006190D02*
X134491547Y-112910952D01*
X134443928Y-112863333D01*
X134348690Y-112815714D01*
X134253452Y-112815714D01*
X133491547Y-113482380D02*
X133491547Y-112958571D01*
X133539166Y-112863333D01*
X133634404Y-112815714D01*
X133824880Y-112815714D01*
X133920119Y-112863333D01*
X133491547Y-113434761D02*
X133586785Y-113482380D01*
X133824880Y-113482380D01*
X133920119Y-113434761D01*
X133967738Y-113339523D01*
X133967738Y-113244285D01*
X133920119Y-113149047D01*
X133824880Y-113101428D01*
X133586785Y-113101428D01*
X133491547Y-113053809D01*
X132586785Y-113482380D02*
X132586785Y-112482380D01*
X132586785Y-113434761D02*
X132682023Y-113482380D01*
X132872500Y-113482380D01*
X132967738Y-113434761D01*
X133015357Y-113387142D01*
X133062976Y-113291904D01*
X133062976Y-113006190D01*
X133015357Y-112910952D01*
X132967738Y-112863333D01*
X132872500Y-112815714D01*
X132682023Y-112815714D01*
X132586785Y-112863333D01*
X130777261Y-113387142D02*
X130824880Y-113434761D01*
X130967738Y-113482380D01*
X131062976Y-113482380D01*
X131205833Y-113434761D01*
X131301071Y-113339523D01*
X131348690Y-113244285D01*
X131396309Y-113053809D01*
X131396309Y-112910952D01*
X131348690Y-112720476D01*
X131301071Y-112625238D01*
X131205833Y-112530000D01*
X131062976Y-112482380D01*
X130967738Y-112482380D01*
X130824880Y-112530000D01*
X130777261Y-112577619D01*
X130348690Y-113482380D02*
X130348690Y-112482380D01*
X129967738Y-112482380D01*
X129872500Y-112530000D01*
X129824880Y-112577619D01*
X129777261Y-112672857D01*
X129777261Y-112815714D01*
X129824880Y-112910952D01*
X129872500Y-112958571D01*
X129967738Y-113006190D01*
X130348690Y-113006190D01*
X128777261Y-113387142D02*
X128824880Y-113434761D01*
X128967738Y-113482380D01*
X129062976Y-113482380D01*
X129205833Y-113434761D01*
X129301071Y-113339523D01*
X129348690Y-113244285D01*
X129396309Y-113053809D01*
X129396309Y-112910952D01*
X129348690Y-112720476D01*
X129301071Y-112625238D01*
X129205833Y-112530000D01*
X129062976Y-112482380D01*
X128967738Y-112482380D01*
X128824880Y-112530000D01*
X128777261Y-112577619D01*
X127158214Y-113434761D02*
X127253452Y-113482380D01*
X127443928Y-113482380D01*
X127539166Y-113434761D01*
X127586785Y-113387142D01*
X127634404Y-113291904D01*
X127634404Y-113006190D01*
X127586785Y-112910952D01*
X127539166Y-112863333D01*
X127443928Y-112815714D01*
X127253452Y-112815714D01*
X127158214Y-112863333D01*
X126586785Y-113482380D02*
X126682023Y-113434761D01*
X126729642Y-113387142D01*
X126777261Y-113291904D01*
X126777261Y-113006190D01*
X126729642Y-112910952D01*
X126682023Y-112863333D01*
X126586785Y-112815714D01*
X126443928Y-112815714D01*
X126348690Y-112863333D01*
X126301071Y-112910952D01*
X126253452Y-113006190D01*
X126253452Y-113291904D01*
X126301071Y-113387142D01*
X126348690Y-113434761D01*
X126443928Y-113482380D01*
X126586785Y-113482380D01*
X125824880Y-113482380D02*
X125824880Y-112815714D01*
X125824880Y-112910952D02*
X125777261Y-112863333D01*
X125682023Y-112815714D01*
X125539166Y-112815714D01*
X125443928Y-112863333D01*
X125396309Y-112958571D01*
X125396309Y-113482380D01*
X125396309Y-112958571D02*
X125348690Y-112863333D01*
X125253452Y-112815714D01*
X125110595Y-112815714D01*
X125015357Y-112863333D01*
X124967738Y-112958571D01*
X124967738Y-113482380D01*
X124491547Y-112815714D02*
X124491547Y-113815714D01*
X124491547Y-112863333D02*
X124396309Y-112815714D01*
X124205833Y-112815714D01*
X124110595Y-112863333D01*
X124062976Y-112910952D01*
X124015357Y-113006190D01*
X124015357Y-113291904D01*
X124062976Y-113387142D01*
X124110595Y-113434761D01*
X124205833Y-113482380D01*
X124396309Y-113482380D01*
X124491547Y-113434761D01*
X123158214Y-113482380D02*
X123158214Y-112958571D01*
X123205833Y-112863333D01*
X123301071Y-112815714D01*
X123491547Y-112815714D01*
X123586785Y-112863333D01*
X123158214Y-113434761D02*
X123253452Y-113482380D01*
X123491547Y-113482380D01*
X123586785Y-113434761D01*
X123634404Y-113339523D01*
X123634404Y-113244285D01*
X123586785Y-113149047D01*
X123491547Y-113101428D01*
X123253452Y-113101428D01*
X123158214Y-113053809D01*
X122824880Y-112815714D02*
X122443928Y-112815714D01*
X122682023Y-112482380D02*
X122682023Y-113339523D01*
X122634404Y-113434761D01*
X122539166Y-113482380D01*
X122443928Y-113482380D01*
X122110595Y-113482380D02*
X122110595Y-112815714D01*
X122110595Y-112482380D02*
X122158214Y-112530000D01*
X122110595Y-112577619D01*
X122062976Y-112530000D01*
X122110595Y-112482380D01*
X122110595Y-112577619D01*
X121634404Y-113482380D02*
X121634404Y-112482380D01*
X121634404Y-112863333D02*
X121539166Y-112815714D01*
X121348690Y-112815714D01*
X121253452Y-112863333D01*
X121205833Y-112910952D01*
X121158214Y-113006190D01*
X121158214Y-113291904D01*
X121205833Y-113387142D01*
X121253452Y-113434761D01*
X121348690Y-113482380D01*
X121539166Y-113482380D01*
X121634404Y-113434761D01*
X120586785Y-113482380D02*
X120682023Y-113434761D01*
X120729642Y-113339523D01*
X120729642Y-112482380D01*
X119824880Y-113434761D02*
X119920119Y-113482380D01*
X120110595Y-113482380D01*
X120205833Y-113434761D01*
X120253452Y-113339523D01*
X120253452Y-112958571D01*
X120205833Y-112863333D01*
X120110595Y-112815714D01*
X119920119Y-112815714D01*
X119824880Y-112863333D01*
X119777261Y-112958571D01*
X119777261Y-113053809D01*
X120253452Y-113149047D01*
X118158214Y-113434761D02*
X118253452Y-113482380D01*
X118443928Y-113482380D01*
X118539166Y-113434761D01*
X118586785Y-113387142D01*
X118634404Y-113291904D01*
X118634404Y-113006190D01*
X118586785Y-112910952D01*
X118539166Y-112863333D01*
X118443928Y-112815714D01*
X118253452Y-112815714D01*
X118158214Y-112863333D01*
X117586785Y-113482380D02*
X117682023Y-113434761D01*
X117729642Y-113387142D01*
X117777261Y-113291904D01*
X117777261Y-113006190D01*
X117729642Y-112910952D01*
X117682023Y-112863333D01*
X117586785Y-112815714D01*
X117443928Y-112815714D01*
X117348690Y-112863333D01*
X117301071Y-112910952D01*
X117253452Y-113006190D01*
X117253452Y-113291904D01*
X117301071Y-113387142D01*
X117348690Y-113434761D01*
X117443928Y-113482380D01*
X117586785Y-113482380D01*
X116824880Y-113482380D02*
X116824880Y-112815714D01*
X116824880Y-112910952D02*
X116777261Y-112863333D01*
X116682023Y-112815714D01*
X116539166Y-112815714D01*
X116443928Y-112863333D01*
X116396309Y-112958571D01*
X116396309Y-113482380D01*
X116396309Y-112958571D02*
X116348690Y-112863333D01*
X116253452Y-112815714D01*
X116110595Y-112815714D01*
X116015357Y-112863333D01*
X115967738Y-112958571D01*
X115967738Y-113482380D01*
X115491547Y-112815714D02*
X115491547Y-113815714D01*
X115491547Y-112863333D02*
X115396309Y-112815714D01*
X115205833Y-112815714D01*
X115110595Y-112863333D01*
X115062976Y-112910952D01*
X115015357Y-113006190D01*
X115015357Y-113291904D01*
X115062976Y-113387142D01*
X115110595Y-113434761D01*
X115205833Y-113482380D01*
X115396309Y-113482380D01*
X115491547Y-113434761D01*
X114158214Y-112815714D02*
X114158214Y-113482380D01*
X114586785Y-112815714D02*
X114586785Y-113339523D01*
X114539166Y-113434761D01*
X114443928Y-113482380D01*
X114301071Y-113482380D01*
X114205833Y-113434761D01*
X114158214Y-113387142D01*
X113824880Y-112815714D02*
X113443928Y-112815714D01*
X113682023Y-112482380D02*
X113682023Y-113339523D01*
X113634404Y-113434761D01*
X113539166Y-113482380D01*
X113443928Y-113482380D01*
X112729642Y-113434761D02*
X112824880Y-113482380D01*
X113015357Y-113482380D01*
X113110595Y-113434761D01*
X113158214Y-113339523D01*
X113158214Y-112958571D01*
X113110595Y-112863333D01*
X113015357Y-112815714D01*
X112824880Y-112815714D01*
X112729642Y-112863333D01*
X112682023Y-112958571D01*
X112682023Y-113053809D01*
X113158214Y-113149047D01*
X112253452Y-113482380D02*
X112253452Y-112815714D01*
X112253452Y-113006190D02*
X112205833Y-112910952D01*
X112158214Y-112863333D01*
X112062976Y-112815714D01*
X111967738Y-112815714D01*
X111634404Y-113387142D02*
X111586785Y-113434761D01*
X111634404Y-113482380D01*
X111682023Y-113434761D01*
X111634404Y-113387142D01*
X111634404Y-113482380D01*
X158948333Y-174182380D02*
X158948333Y-174896666D01*
X158995952Y-175039523D01*
X159091190Y-175134761D01*
X159234047Y-175182380D01*
X159329285Y-175182380D01*
X158472142Y-175182380D02*
X158472142Y-174182380D01*
X158091190Y-174182380D01*
X157995952Y-174230000D01*
X157948333Y-174277619D01*
X157900714Y-174372857D01*
X157900714Y-174515714D01*
X157948333Y-174610952D01*
X157995952Y-174658571D01*
X158091190Y-174706190D01*
X158472142Y-174706190D01*
X156948333Y-175182380D02*
X157519761Y-175182380D01*
X157234047Y-175182380D02*
X157234047Y-174182380D01*
X157329285Y-174325238D01*
X157424523Y-174420476D01*
X157519761Y-174468095D01*
D11*
X170274285Y-131619761D02*
X169607619Y-133619761D01*
X168940952Y-131619761D01*
X168274285Y-133619761D02*
X168274285Y-131619761D01*
X167321904Y-133619761D02*
X167321904Y-131619761D01*
X166845714Y-131619761D01*
X166560000Y-131715000D01*
X166369523Y-131905476D01*
X166274285Y-132095952D01*
X166179047Y-132476904D01*
X166179047Y-132762619D01*
X166274285Y-133143571D01*
X166369523Y-133334047D01*
X166560000Y-133524523D01*
X166845714Y-133619761D01*
X167321904Y-133619761D01*
X165321904Y-132572142D02*
X164655238Y-132572142D01*
X164369523Y-133619761D02*
X165321904Y-133619761D01*
X165321904Y-131619761D01*
X164369523Y-131619761D01*
X163131428Y-131619761D02*
X162750476Y-131619761D01*
X162560000Y-131715000D01*
X162369523Y-131905476D01*
X162274285Y-132286428D01*
X162274285Y-132953095D01*
X162369523Y-133334047D01*
X162560000Y-133524523D01*
X162750476Y-133619761D01*
X163131428Y-133619761D01*
X163321904Y-133524523D01*
X163512380Y-133334047D01*
X163607619Y-132953095D01*
X163607619Y-132286428D01*
X163512380Y-131905476D01*
X163321904Y-131715000D01*
X163131428Y-131619761D01*
X159512380Y-131619761D02*
X159131428Y-131619761D01*
X158940952Y-131715000D01*
X158750476Y-131905476D01*
X158655238Y-132286428D01*
X158655238Y-132953095D01*
X158750476Y-133334047D01*
X158940952Y-133524523D01*
X159131428Y-133619761D01*
X159512380Y-133619761D01*
X159702857Y-133524523D01*
X159893333Y-133334047D01*
X159988571Y-132953095D01*
X159988571Y-132286428D01*
X159893333Y-131905476D01*
X159702857Y-131715000D01*
X159512380Y-131619761D01*
X157798095Y-131619761D02*
X157798095Y-133238809D01*
X157702857Y-133429285D01*
X157607619Y-133524523D01*
X157417142Y-133619761D01*
X157036190Y-133619761D01*
X156845714Y-133524523D01*
X156750476Y-133429285D01*
X156655238Y-133238809D01*
X156655238Y-131619761D01*
X155988571Y-131619761D02*
X154845714Y-131619761D01*
X155417142Y-133619761D02*
X155417142Y-131619761D01*
M02*
