G04 #@! TF.GenerationSoftware,KiCad,Pcbnew,(5.1.12)-1*
G04 #@! TF.CreationDate,2024-01-30T17:24:50+00:00*
G04 #@! TF.ProjectId,CPC-DDI20,4350432d-4444-4493-9230-2e6b69636164,rev?*
G04 #@! TF.SameCoordinates,Original*
G04 #@! TF.FileFunction,Legend,Top*
G04 #@! TF.FilePolarity,Positive*
%FSLAX46Y46*%
G04 Gerber Fmt 4.6, Leading zero omitted, Abs format (unit mm)*
G04 Created by KiCad (PCBNEW (5.1.12)-1) date 2024-01-30 17:24:50*
%MOMM*%
%LPD*%
G01*
G04 APERTURE LIST*
%ADD10C,0.150000*%
%ADD11C,0.300000*%
%ADD12C,0.120000*%
G04 APERTURE END LIST*
D10*
X247419761Y-108465714D02*
X247467380Y-108322857D01*
X247467380Y-108084761D01*
X247419761Y-107989523D01*
X247372142Y-107941904D01*
X247276904Y-107894285D01*
X247181666Y-107894285D01*
X247086428Y-107941904D01*
X247038809Y-107989523D01*
X246991190Y-108084761D01*
X246943571Y-108275238D01*
X246895952Y-108370476D01*
X246848333Y-108418095D01*
X246753095Y-108465714D01*
X246657857Y-108465714D01*
X246562619Y-108418095D01*
X246515000Y-108370476D01*
X246467380Y-108275238D01*
X246467380Y-108037142D01*
X246515000Y-107894285D01*
X246467380Y-107560952D02*
X247467380Y-107322857D01*
X246753095Y-107132380D01*
X247467380Y-106941904D01*
X246467380Y-106703809D01*
X247181666Y-106370476D02*
X247181666Y-105894285D01*
X247467380Y-106465714D02*
X246467380Y-106132380D01*
X247467380Y-105799047D01*
X247467380Y-105465714D02*
X246467380Y-105465714D01*
X246467380Y-105084761D01*
X246515000Y-104989523D01*
X246562619Y-104941904D01*
X246657857Y-104894285D01*
X246800714Y-104894285D01*
X246895952Y-104941904D01*
X246943571Y-104989523D01*
X246991190Y-105084761D01*
X246991190Y-105465714D01*
X234767380Y-109394285D02*
X233767380Y-109394285D01*
X234767380Y-108822857D01*
X233767380Y-108822857D01*
X233767380Y-108156190D02*
X233767380Y-107965714D01*
X233815000Y-107870476D01*
X233910238Y-107775238D01*
X234100714Y-107727619D01*
X234434047Y-107727619D01*
X234624523Y-107775238D01*
X234719761Y-107870476D01*
X234767380Y-107965714D01*
X234767380Y-108156190D01*
X234719761Y-108251428D01*
X234624523Y-108346666D01*
X234434047Y-108394285D01*
X234100714Y-108394285D01*
X233910238Y-108346666D01*
X233815000Y-108251428D01*
X233767380Y-108156190D01*
X234767380Y-106727619D02*
X234291190Y-107060952D01*
X234767380Y-107299047D02*
X233767380Y-107299047D01*
X233767380Y-106918095D01*
X233815000Y-106822857D01*
X233862619Y-106775238D01*
X233957857Y-106727619D01*
X234100714Y-106727619D01*
X234195952Y-106775238D01*
X234243571Y-106822857D01*
X234291190Y-106918095D01*
X234291190Y-107299047D01*
X234767380Y-106299047D02*
X233767380Y-106299047D01*
X234481666Y-105965714D01*
X233767380Y-105632380D01*
X234767380Y-105632380D01*
X234481666Y-105203809D02*
X234481666Y-104727619D01*
X234767380Y-105299047D02*
X233767380Y-104965714D01*
X234767380Y-104632380D01*
X234767380Y-103822857D02*
X234767380Y-104299047D01*
X233767380Y-104299047D01*
X226512380Y-165115714D02*
X225512380Y-165115714D01*
X226226666Y-164782380D01*
X225512380Y-164449047D01*
X226512380Y-164449047D01*
X225512380Y-164068095D02*
X226512380Y-163401428D01*
X225512380Y-163401428D02*
X226512380Y-164068095D01*
X225845714Y-162591904D02*
X226512380Y-162591904D01*
X225464761Y-162830000D02*
X226179047Y-163068095D01*
X226179047Y-162449047D01*
X248126428Y-165552380D02*
X247793095Y-165076190D01*
X247555000Y-165552380D02*
X247555000Y-164552380D01*
X247935952Y-164552380D01*
X248031190Y-164600000D01*
X248078809Y-164647619D01*
X248126428Y-164742857D01*
X248126428Y-164885714D01*
X248078809Y-164980952D01*
X248031190Y-165028571D01*
X247935952Y-165076190D01*
X247555000Y-165076190D01*
X248555000Y-165028571D02*
X248888333Y-165028571D01*
X249031190Y-165552380D02*
X248555000Y-165552380D01*
X248555000Y-164552380D01*
X249031190Y-164552380D01*
X249316904Y-164552380D02*
X249650238Y-165552380D01*
X249983571Y-164552380D01*
X251602619Y-165552380D02*
X251031190Y-165552380D01*
X251316904Y-165552380D02*
X251316904Y-164552380D01*
X251221666Y-164695238D01*
X251126428Y-164790476D01*
X251031190Y-164838095D01*
D11*
X174039523Y-159464285D02*
X173944285Y-159559523D01*
X173658571Y-159654761D01*
X173468095Y-159654761D01*
X173182380Y-159559523D01*
X172991904Y-159369047D01*
X172896666Y-159178571D01*
X172801428Y-158797619D01*
X172801428Y-158511904D01*
X172896666Y-158130952D01*
X172991904Y-157940476D01*
X173182380Y-157750000D01*
X173468095Y-157654761D01*
X173658571Y-157654761D01*
X173944285Y-157750000D01*
X174039523Y-157845238D01*
X174896666Y-159654761D02*
X174896666Y-157654761D01*
X175658571Y-157654761D01*
X175849047Y-157750000D01*
X175944285Y-157845238D01*
X176039523Y-158035714D01*
X176039523Y-158321428D01*
X175944285Y-158511904D01*
X175849047Y-158607142D01*
X175658571Y-158702380D01*
X174896666Y-158702380D01*
X178039523Y-159464285D02*
X177944285Y-159559523D01*
X177658571Y-159654761D01*
X177468095Y-159654761D01*
X177182380Y-159559523D01*
X176991904Y-159369047D01*
X176896666Y-159178571D01*
X176801428Y-158797619D01*
X176801428Y-158511904D01*
X176896666Y-158130952D01*
X176991904Y-157940476D01*
X177182380Y-157750000D01*
X177468095Y-157654761D01*
X177658571Y-157654761D01*
X177944285Y-157750000D01*
X178039523Y-157845238D01*
X181087142Y-158607142D02*
X180420476Y-158607142D01*
X180420476Y-159654761D02*
X180420476Y-157654761D01*
X181372857Y-157654761D01*
X182420476Y-159654761D02*
X182230000Y-159559523D01*
X182134761Y-159369047D01*
X182134761Y-157654761D01*
X183468095Y-159654761D02*
X183277619Y-159559523D01*
X183182380Y-159464285D01*
X183087142Y-159273809D01*
X183087142Y-158702380D01*
X183182380Y-158511904D01*
X183277619Y-158416666D01*
X183468095Y-158321428D01*
X183753809Y-158321428D01*
X183944285Y-158416666D01*
X184039523Y-158511904D01*
X184134761Y-158702380D01*
X184134761Y-159273809D01*
X184039523Y-159464285D01*
X183944285Y-159559523D01*
X183753809Y-159654761D01*
X183468095Y-159654761D01*
X184991904Y-158321428D02*
X184991904Y-160321428D01*
X184991904Y-158416666D02*
X185182380Y-158321428D01*
X185563333Y-158321428D01*
X185753809Y-158416666D01*
X185849047Y-158511904D01*
X185944285Y-158702380D01*
X185944285Y-159273809D01*
X185849047Y-159464285D01*
X185753809Y-159559523D01*
X185563333Y-159654761D01*
X185182380Y-159654761D01*
X184991904Y-159559523D01*
X186801428Y-158321428D02*
X186801428Y-160321428D01*
X186801428Y-158416666D02*
X186991904Y-158321428D01*
X187372857Y-158321428D01*
X187563333Y-158416666D01*
X187658571Y-158511904D01*
X187753809Y-158702380D01*
X187753809Y-159273809D01*
X187658571Y-159464285D01*
X187563333Y-159559523D01*
X187372857Y-159654761D01*
X186991904Y-159654761D01*
X186801428Y-159559523D01*
X188420476Y-158321428D02*
X188896666Y-159654761D01*
X189372857Y-158321428D02*
X188896666Y-159654761D01*
X188706190Y-160130952D01*
X188610952Y-160226190D01*
X188420476Y-160321428D01*
X192801428Y-159464285D02*
X192706190Y-159559523D01*
X192420476Y-159654761D01*
X192230000Y-159654761D01*
X191944285Y-159559523D01*
X191753809Y-159369047D01*
X191658571Y-159178571D01*
X191563333Y-158797619D01*
X191563333Y-158511904D01*
X191658571Y-158130952D01*
X191753809Y-157940476D01*
X191944285Y-157750000D01*
X192230000Y-157654761D01*
X192420476Y-157654761D01*
X192706190Y-157750000D01*
X192801428Y-157845238D01*
X193944285Y-159654761D02*
X193753809Y-159559523D01*
X193658571Y-159464285D01*
X193563333Y-159273809D01*
X193563333Y-158702380D01*
X193658571Y-158511904D01*
X193753809Y-158416666D01*
X193944285Y-158321428D01*
X194230000Y-158321428D01*
X194420476Y-158416666D01*
X194515714Y-158511904D01*
X194610952Y-158702380D01*
X194610952Y-159273809D01*
X194515714Y-159464285D01*
X194420476Y-159559523D01*
X194230000Y-159654761D01*
X193944285Y-159654761D01*
X195468095Y-158321428D02*
X195468095Y-159654761D01*
X195468095Y-158511904D02*
X195563333Y-158416666D01*
X195753809Y-158321428D01*
X196039523Y-158321428D01*
X196230000Y-158416666D01*
X196325238Y-158607142D01*
X196325238Y-159654761D01*
X196991904Y-158321428D02*
X197753809Y-158321428D01*
X197277619Y-157654761D02*
X197277619Y-159369047D01*
X197372857Y-159559523D01*
X197563333Y-159654761D01*
X197753809Y-159654761D01*
X198420476Y-159654761D02*
X198420476Y-158321428D01*
X198420476Y-158702380D02*
X198515714Y-158511904D01*
X198610952Y-158416666D01*
X198801428Y-158321428D01*
X198991904Y-158321428D01*
X199944285Y-159654761D02*
X199753809Y-159559523D01*
X199658571Y-159464285D01*
X199563333Y-159273809D01*
X199563333Y-158702380D01*
X199658571Y-158511904D01*
X199753809Y-158416666D01*
X199944285Y-158321428D01*
X200230000Y-158321428D01*
X200420476Y-158416666D01*
X200515714Y-158511904D01*
X200610952Y-158702380D01*
X200610952Y-159273809D01*
X200515714Y-159464285D01*
X200420476Y-159559523D01*
X200230000Y-159654761D01*
X199944285Y-159654761D01*
X201753809Y-159654761D02*
X201563333Y-159559523D01*
X201468095Y-159369047D01*
X201468095Y-157654761D01*
X202801428Y-159654761D02*
X202610952Y-159559523D01*
X202515714Y-159369047D01*
X202515714Y-157654761D01*
X204325238Y-159559523D02*
X204134761Y-159654761D01*
X203753809Y-159654761D01*
X203563333Y-159559523D01*
X203468095Y-159369047D01*
X203468095Y-158607142D01*
X203563333Y-158416666D01*
X203753809Y-158321428D01*
X204134761Y-158321428D01*
X204325238Y-158416666D01*
X204420476Y-158607142D01*
X204420476Y-158797619D01*
X203468095Y-158988095D01*
X205277619Y-159654761D02*
X205277619Y-158321428D01*
X205277619Y-158702380D02*
X205372857Y-158511904D01*
X205468095Y-158416666D01*
X205658571Y-158321428D01*
X205849047Y-158321428D01*
D12*
X207585000Y-122285000D02*
X207585000Y-123935000D01*
X207585000Y-123935000D02*
X225485000Y-123935000D01*
X225485000Y-123935000D02*
X225485000Y-118635000D01*
X225485000Y-118635000D02*
X207585000Y-118635000D01*
X207585000Y-118635000D02*
X207585000Y-120285000D01*
X207525000Y-126425000D02*
X225545000Y-126425000D01*
X225545000Y-126425000D02*
X225545000Y-116145000D01*
X225545000Y-116145000D02*
X207525000Y-116145000D01*
X207525000Y-116145000D02*
X207525000Y-126425000D01*
X207585000Y-120285000D02*
G75*
G02*
X207585000Y-122285000I0J-1000000D01*
G01*
X159325000Y-131810000D02*
X159325000Y-133460000D01*
X159325000Y-133460000D02*
X177225000Y-133460000D01*
X177225000Y-133460000D02*
X177225000Y-128160000D01*
X177225000Y-128160000D02*
X159325000Y-128160000D01*
X159325000Y-128160000D02*
X159325000Y-129810000D01*
X159265000Y-135950000D02*
X177285000Y-135950000D01*
X177285000Y-135950000D02*
X177285000Y-125670000D01*
X177285000Y-125670000D02*
X159265000Y-125670000D01*
X159265000Y-125670000D02*
X159265000Y-135950000D01*
X159325000Y-129810000D02*
G75*
G02*
X159325000Y-131810000I0J-1000000D01*
G01*
D10*
X244870000Y-108980000D02*
X236270000Y-108980000D01*
X244870000Y-104380000D02*
X242670000Y-104380000D01*
X238570000Y-104380000D02*
X236270000Y-104380000D01*
D12*
X158485000Y-146535000D02*
X155245000Y-146535000D01*
X158485000Y-144295000D02*
X155245000Y-144295000D01*
X158485000Y-146535000D02*
X158485000Y-146470000D01*
X158485000Y-144360000D02*
X158485000Y-144295000D01*
X155245000Y-146535000D02*
X155245000Y-146470000D01*
X155245000Y-144360000D02*
X155245000Y-144295000D01*
X230000000Y-113030000D02*
X227200000Y-113030000D01*
X230000000Y-125900000D02*
X230000000Y-110320000D01*
X227200000Y-125900000D02*
X230000000Y-125900000D01*
X227200000Y-110320000D02*
X227200000Y-125900000D01*
X230000000Y-110320000D02*
X227200000Y-110320000D01*
X159325000Y-142605000D02*
X159325000Y-144255000D01*
X159325000Y-144255000D02*
X177225000Y-144255000D01*
X177225000Y-144255000D02*
X177225000Y-138955000D01*
X177225000Y-138955000D02*
X159325000Y-138955000D01*
X159325000Y-138955000D02*
X159325000Y-140605000D01*
X159265000Y-146745000D02*
X177285000Y-146745000D01*
X177285000Y-146745000D02*
X177285000Y-136465000D01*
X177285000Y-136465000D02*
X159265000Y-136465000D01*
X159265000Y-136465000D02*
X159265000Y-146745000D01*
X159325000Y-140605000D02*
G75*
G02*
X159325000Y-142605000I0J-1000000D01*
G01*
X191280000Y-166195000D02*
X191280000Y-175315000D01*
X187180000Y-166195000D02*
X187180000Y-175315000D01*
X224920000Y-166195000D02*
X224920000Y-175315000D01*
X224920000Y-175315000D02*
X153540000Y-175315000D01*
X153540000Y-175315000D02*
X153540000Y-166195000D01*
X153540000Y-166195000D02*
X224920000Y-166195000D01*
X219710000Y-160575000D02*
X220210000Y-159575000D01*
X220210000Y-159575000D02*
X219210000Y-159575000D01*
X219210000Y-159575000D02*
X219710000Y-160575000D01*
X220290000Y-149120000D02*
X220290000Y-145520000D01*
X220267684Y-145511555D02*
G75*
G03*
X215990000Y-146540000I-1827684J-1808445D01*
G01*
X220281741Y-149131875D02*
G75*
G02*
X215990000Y-148140000I-1841741J1811875D01*
G01*
X220290000Y-154835000D02*
X220290000Y-151235000D01*
X220267684Y-151226555D02*
G75*
G03*
X215990000Y-152255000I-1827684J-1808445D01*
G01*
X220281741Y-154846875D02*
G75*
G02*
X215990000Y-153855000I-1841741J1811875D01*
G01*
X243090000Y-112900000D02*
X252210000Y-112900000D01*
X252210000Y-112900000D02*
X252210000Y-163960000D01*
X252210000Y-163960000D02*
X243090000Y-163960000D01*
X243090000Y-163960000D02*
X243090000Y-112900000D01*
X243090000Y-136380000D02*
X244400000Y-136380000D01*
X244400000Y-136380000D02*
X244400000Y-114200000D01*
X244400000Y-114200000D02*
X250900000Y-114200000D01*
X250900000Y-114200000D02*
X250900000Y-162660000D01*
X250900000Y-162660000D02*
X244400000Y-162660000D01*
X244400000Y-162660000D02*
X244400000Y-140480000D01*
X244400000Y-140480000D02*
X244400000Y-140480000D01*
X244400000Y-140480000D02*
X243090000Y-140480000D01*
X242700000Y-118110000D02*
X241700000Y-117610000D01*
X241700000Y-117610000D02*
X241700000Y-118610000D01*
X241700000Y-118610000D02*
X242700000Y-118110000D01*
X232930000Y-112900000D02*
X242050000Y-112900000D01*
X242050000Y-112900000D02*
X242050000Y-163960000D01*
X242050000Y-163960000D02*
X232930000Y-163960000D01*
X232930000Y-163960000D02*
X232930000Y-112900000D01*
X232930000Y-136380000D02*
X234240000Y-136380000D01*
X234240000Y-136380000D02*
X234240000Y-114200000D01*
X234240000Y-114200000D02*
X240740000Y-114200000D01*
X240740000Y-114200000D02*
X240740000Y-162660000D01*
X240740000Y-162660000D02*
X234240000Y-162660000D01*
X234240000Y-162660000D02*
X234240000Y-140480000D01*
X234240000Y-140480000D02*
X234240000Y-140480000D01*
X234240000Y-140480000D02*
X232930000Y-140480000D01*
X232540000Y-118110000D02*
X231540000Y-117610000D01*
X231540000Y-117610000D02*
X231540000Y-118610000D01*
X231540000Y-118610000D02*
X232540000Y-118110000D01*
X155805000Y-123285000D02*
X155475000Y-123285000D01*
X155475000Y-123285000D02*
X155475000Y-116745000D01*
X155475000Y-116745000D02*
X155805000Y-116745000D01*
X157885000Y-123285000D02*
X158215000Y-123285000D01*
X158215000Y-123285000D02*
X158215000Y-116745000D01*
X158215000Y-116745000D02*
X157885000Y-116745000D01*
X209245000Y-129430000D02*
X206005000Y-129430000D01*
X209245000Y-127190000D02*
X206005000Y-127190000D01*
X209245000Y-129430000D02*
X209245000Y-129365000D01*
X209245000Y-127255000D02*
X209245000Y-127190000D01*
X206005000Y-129430000D02*
X206005000Y-129365000D01*
X206005000Y-127255000D02*
X206005000Y-127190000D01*
X158445000Y-127445000D02*
X155205000Y-127445000D01*
X158445000Y-125205000D02*
X155205000Y-125205000D01*
X158445000Y-127445000D02*
X158445000Y-127380000D01*
X158445000Y-125270000D02*
X158445000Y-125205000D01*
X155205000Y-127445000D02*
X155205000Y-127380000D01*
X155205000Y-125270000D02*
X155205000Y-125205000D01*
X206225000Y-106310000D02*
X206225000Y-109550000D01*
X203985000Y-106310000D02*
X203985000Y-109550000D01*
X206225000Y-106310000D02*
X206160000Y-106310000D01*
X204050000Y-106310000D02*
X203985000Y-106310000D01*
X206225000Y-109550000D02*
X206160000Y-109550000D01*
X204050000Y-109550000D02*
X203985000Y-109550000D01*
X206860000Y-117145000D02*
X206860000Y-120385000D01*
X204620000Y-117145000D02*
X204620000Y-120385000D01*
X206860000Y-117145000D02*
X206795000Y-117145000D01*
X204685000Y-117145000D02*
X204620000Y-117145000D01*
X206860000Y-120385000D02*
X206795000Y-120385000D01*
X204685000Y-120385000D02*
X204620000Y-120385000D01*
X159325000Y-121015000D02*
X159325000Y-122665000D01*
X159325000Y-122665000D02*
X177225000Y-122665000D01*
X177225000Y-122665000D02*
X177225000Y-117365000D01*
X177225000Y-117365000D02*
X159325000Y-117365000D01*
X159325000Y-117365000D02*
X159325000Y-119015000D01*
X159265000Y-125155000D02*
X177285000Y-125155000D01*
X177285000Y-125155000D02*
X177285000Y-114875000D01*
X177285000Y-114875000D02*
X159265000Y-114875000D01*
X159265000Y-114875000D02*
X159265000Y-125155000D01*
X159325000Y-119015000D02*
G75*
G02*
X159325000Y-121015000I0J-1000000D01*
G01*
X159325000Y-110220000D02*
X159325000Y-111870000D01*
X159325000Y-111870000D02*
X177225000Y-111870000D01*
X177225000Y-111870000D02*
X177225000Y-106570000D01*
X177225000Y-106570000D02*
X159325000Y-106570000D01*
X159325000Y-106570000D02*
X159325000Y-108220000D01*
X159265000Y-114360000D02*
X177285000Y-114360000D01*
X177285000Y-114360000D02*
X177285000Y-104080000D01*
X177285000Y-104080000D02*
X159265000Y-104080000D01*
X159265000Y-104080000D02*
X159265000Y-114360000D01*
X159325000Y-108220000D02*
G75*
G02*
X159325000Y-110220000I0J-1000000D01*
G01*
X202970000Y-107220000D02*
X203300000Y-107220000D01*
X203300000Y-107220000D02*
X203300000Y-113760000D01*
X203300000Y-113760000D02*
X202970000Y-113760000D01*
X200890000Y-107220000D02*
X200560000Y-107220000D01*
X200560000Y-107220000D02*
X200560000Y-113760000D01*
X200560000Y-113760000D02*
X200890000Y-113760000D01*
X180745000Y-142145000D02*
X181075000Y-142145000D01*
X181075000Y-142145000D02*
X181075000Y-148685000D01*
X181075000Y-148685000D02*
X180745000Y-148685000D01*
X178665000Y-142145000D02*
X178335000Y-142145000D01*
X178335000Y-142145000D02*
X178335000Y-148685000D01*
X178335000Y-148685000D02*
X178665000Y-148685000D01*
X223425000Y-146915000D02*
X223425000Y-146585000D01*
X223425000Y-146585000D02*
X229965000Y-146585000D01*
X229965000Y-146585000D02*
X229965000Y-146915000D01*
X223425000Y-148995000D02*
X223425000Y-149325000D01*
X223425000Y-149325000D02*
X229965000Y-149325000D01*
X229965000Y-149325000D02*
X229965000Y-148995000D01*
X229965000Y-152170000D02*
X229965000Y-152500000D01*
X229965000Y-152500000D02*
X223425000Y-152500000D01*
X223425000Y-152500000D02*
X223425000Y-152170000D01*
X229965000Y-150090000D02*
X229965000Y-149760000D01*
X229965000Y-149760000D02*
X223425000Y-149760000D01*
X223425000Y-149760000D02*
X223425000Y-150090000D01*
X229965000Y-155345000D02*
X229965000Y-155675000D01*
X229965000Y-155675000D02*
X223425000Y-155675000D01*
X223425000Y-155675000D02*
X223425000Y-155345000D01*
X229965000Y-153265000D02*
X229965000Y-152935000D01*
X229965000Y-152935000D02*
X223425000Y-152935000D01*
X223425000Y-152935000D02*
X223425000Y-153265000D01*
X212630000Y-156440000D02*
X212630000Y-156110000D01*
X212630000Y-156110000D02*
X219170000Y-156110000D01*
X219170000Y-156110000D02*
X219170000Y-156440000D01*
X212630000Y-158520000D02*
X212630000Y-158850000D01*
X212630000Y-158850000D02*
X219170000Y-158850000D01*
X219170000Y-158850000D02*
X219170000Y-158520000D01*
X229965000Y-158520000D02*
X229965000Y-158850000D01*
X229965000Y-158850000D02*
X223425000Y-158850000D01*
X223425000Y-158850000D02*
X223425000Y-158520000D01*
X229965000Y-156440000D02*
X229965000Y-156110000D01*
X229965000Y-156110000D02*
X223425000Y-156110000D01*
X223425000Y-156110000D02*
X223425000Y-156440000D01*
X157885000Y-151035000D02*
X158215000Y-151035000D01*
X158215000Y-151035000D02*
X158215000Y-157575000D01*
X158215000Y-157575000D02*
X157885000Y-157575000D01*
X155805000Y-151035000D02*
X155475000Y-151035000D01*
X155475000Y-151035000D02*
X155475000Y-157575000D01*
X155475000Y-157575000D02*
X155805000Y-157575000D01*
X219805000Y-140105000D02*
X219805000Y-140435000D01*
X219805000Y-140435000D02*
X213265000Y-140435000D01*
X213265000Y-140435000D02*
X213265000Y-140105000D01*
X219805000Y-138025000D02*
X219805000Y-137695000D01*
X219805000Y-137695000D02*
X213265000Y-137695000D01*
X213265000Y-137695000D02*
X213265000Y-138025000D01*
X219805000Y-143280000D02*
X219805000Y-143610000D01*
X219805000Y-143610000D02*
X213265000Y-143610000D01*
X213265000Y-143610000D02*
X213265000Y-143280000D01*
X219805000Y-141200000D02*
X219805000Y-140870000D01*
X219805000Y-140870000D02*
X213265000Y-140870000D01*
X213265000Y-140870000D02*
X213265000Y-141200000D01*
X155805000Y-135985000D02*
X155475000Y-135985000D01*
X155475000Y-135985000D02*
X155475000Y-129445000D01*
X155475000Y-129445000D02*
X155805000Y-129445000D01*
X157885000Y-135985000D02*
X158215000Y-135985000D01*
X158215000Y-135985000D02*
X158215000Y-129445000D01*
X158215000Y-129445000D02*
X157885000Y-129445000D01*
X222770000Y-143175000D02*
X222770000Y-142575000D01*
X224870000Y-143875000D02*
X223470000Y-143875000D01*
X225570000Y-142575000D02*
X225570000Y-143175000D01*
X223470000Y-141875000D02*
X224870000Y-141875000D01*
X222770000Y-142575000D02*
G75*
G02*
X223470000Y-141875000I700000J0D01*
G01*
X223470000Y-143875000D02*
G75*
G02*
X222770000Y-143175000I0J700000D01*
G01*
X225570000Y-143175000D02*
G75*
G02*
X224870000Y-143875000I-700000J0D01*
G01*
X224870000Y-141875000D02*
G75*
G02*
X225570000Y-142575000I0J-700000D01*
G01*
X222770000Y-139365000D02*
X222770000Y-138765000D01*
X224870000Y-140065000D02*
X223470000Y-140065000D01*
X225570000Y-138765000D02*
X225570000Y-139365000D01*
X223470000Y-138065000D02*
X224870000Y-138065000D01*
X222770000Y-138765000D02*
G75*
G02*
X223470000Y-138065000I700000J0D01*
G01*
X223470000Y-140065000D02*
G75*
G02*
X222770000Y-139365000I0J700000D01*
G01*
X225570000Y-139365000D02*
G75*
G02*
X224870000Y-140065000I-700000J0D01*
G01*
X224870000Y-138065000D02*
G75*
G02*
X225570000Y-138765000I0J-700000D01*
G01*
X212030000Y-133080000D02*
X212030000Y-134730000D01*
X212030000Y-134730000D02*
X229930000Y-134730000D01*
X229930000Y-134730000D02*
X229930000Y-129430000D01*
X229930000Y-129430000D02*
X212030000Y-129430000D01*
X212030000Y-129430000D02*
X212030000Y-131080000D01*
X211970000Y-137220000D02*
X229990000Y-137220000D01*
X229990000Y-137220000D02*
X229990000Y-126940000D01*
X229990000Y-126940000D02*
X211970000Y-126940000D01*
X211970000Y-126940000D02*
X211970000Y-137220000D01*
X212030000Y-131080000D02*
G75*
G02*
X212030000Y-133080000I0J-1000000D01*
G01*
X159325000Y-153400000D02*
X159325000Y-155050000D01*
X159325000Y-155050000D02*
X177225000Y-155050000D01*
X177225000Y-155050000D02*
X177225000Y-149750000D01*
X177225000Y-149750000D02*
X159325000Y-149750000D01*
X159325000Y-149750000D02*
X159325000Y-151400000D01*
X159265000Y-157540000D02*
X177285000Y-157540000D01*
X177285000Y-157540000D02*
X177285000Y-147260000D01*
X177285000Y-147260000D02*
X159265000Y-147260000D01*
X159265000Y-147260000D02*
X159265000Y-157540000D01*
X159325000Y-151400000D02*
G75*
G02*
X159325000Y-153400000I0J-1000000D01*
G01*
X207585000Y-111490000D02*
X207585000Y-113140000D01*
X207585000Y-113140000D02*
X225485000Y-113140000D01*
X225485000Y-113140000D02*
X225485000Y-107840000D01*
X225485000Y-107840000D02*
X207585000Y-107840000D01*
X207585000Y-107840000D02*
X207585000Y-109490000D01*
X207525000Y-115630000D02*
X225545000Y-115630000D01*
X225545000Y-115630000D02*
X225545000Y-105350000D01*
X225545000Y-105350000D02*
X207525000Y-105350000D01*
X207525000Y-105350000D02*
X207525000Y-115630000D01*
X207585000Y-109490000D02*
G75*
G02*
X207585000Y-111490000I0J-1000000D01*
G01*
X204105000Y-130115000D02*
X202455000Y-130115000D01*
X202455000Y-130115000D02*
X202455000Y-155635000D01*
X202455000Y-155635000D02*
X207755000Y-155635000D01*
X207755000Y-155635000D02*
X207755000Y-130115000D01*
X207755000Y-130115000D02*
X206105000Y-130115000D01*
X199965000Y-130055000D02*
X199965000Y-155695000D01*
X199965000Y-155695000D02*
X210245000Y-155695000D01*
X210245000Y-155695000D02*
X210245000Y-130055000D01*
X210245000Y-130055000D02*
X199965000Y-130055000D01*
X206105000Y-130115000D02*
G75*
G02*
X204105000Y-130115000I-1000000J0D01*
G01*
X189500000Y-104715000D02*
X184040000Y-104715000D01*
X184040000Y-104715000D02*
X184040000Y-155635000D01*
X184040000Y-155635000D02*
X196960000Y-155635000D01*
X196960000Y-155635000D02*
X196960000Y-104715000D01*
X196960000Y-104715000D02*
X191500000Y-104715000D01*
X181550000Y-104655000D02*
X181550000Y-155695000D01*
X181550000Y-155695000D02*
X199450000Y-155695000D01*
X199450000Y-155695000D02*
X199450000Y-104655000D01*
X199450000Y-104655000D02*
X181550000Y-104655000D01*
X191500000Y-104715000D02*
G75*
G02*
X189500000Y-104715000I-1000000J0D01*
G01*
X158600000Y-105040000D02*
X158600000Y-108280000D01*
X156360000Y-105040000D02*
X156360000Y-108280000D01*
X158600000Y-105040000D02*
X158535000Y-105040000D01*
X156425000Y-105040000D02*
X156360000Y-105040000D01*
X158600000Y-108280000D02*
X158535000Y-108280000D01*
X156425000Y-108280000D02*
X156360000Y-108280000D01*
X158445000Y-114785000D02*
X155205000Y-114785000D01*
X158445000Y-112545000D02*
X155205000Y-112545000D01*
X158445000Y-114785000D02*
X158445000Y-114720000D01*
X158445000Y-112610000D02*
X158445000Y-112545000D01*
X155205000Y-114785000D02*
X155205000Y-114720000D01*
X155205000Y-112610000D02*
X155205000Y-112545000D01*
X158485000Y-140185000D02*
X155245000Y-140185000D01*
X158485000Y-137945000D02*
X155245000Y-137945000D01*
X158485000Y-140185000D02*
X158485000Y-140120000D01*
X158485000Y-138010000D02*
X158485000Y-137945000D01*
X155245000Y-140185000D02*
X155245000Y-140120000D01*
X155245000Y-138010000D02*
X155245000Y-137945000D01*
X158485000Y-149075000D02*
X155245000Y-149075000D01*
X158485000Y-146835000D02*
X155245000Y-146835000D01*
X158485000Y-149075000D02*
X158485000Y-149010000D01*
X158485000Y-146900000D02*
X158485000Y-146835000D01*
X155245000Y-149075000D02*
X155245000Y-149010000D01*
X155245000Y-146900000D02*
X155245000Y-146835000D01*
D10*
X207037380Y-125753571D02*
X206037380Y-125753571D01*
X206942142Y-124705952D02*
X206989761Y-124753571D01*
X207037380Y-124896428D01*
X207037380Y-124991666D01*
X206989761Y-125134523D01*
X206894523Y-125229761D01*
X206799285Y-125277380D01*
X206608809Y-125325000D01*
X206465952Y-125325000D01*
X206275476Y-125277380D01*
X206180238Y-125229761D01*
X206085000Y-125134523D01*
X206037380Y-124991666D01*
X206037380Y-124896428D01*
X206085000Y-124753571D01*
X206132619Y-124705952D01*
X206132619Y-124325000D02*
X206085000Y-124277380D01*
X206037380Y-124182142D01*
X206037380Y-123944047D01*
X206085000Y-123848809D01*
X206132619Y-123801190D01*
X206227857Y-123753571D01*
X206323095Y-123753571D01*
X206465952Y-123801190D01*
X207037380Y-124372619D01*
X207037380Y-123753571D01*
X206037380Y-123134523D02*
X206037380Y-123039285D01*
X206085000Y-122944047D01*
X206132619Y-122896428D01*
X206227857Y-122848809D01*
X206418333Y-122801190D01*
X206656428Y-122801190D01*
X206846904Y-122848809D01*
X206942142Y-122896428D01*
X206989761Y-122944047D01*
X207037380Y-123039285D01*
X207037380Y-123134523D01*
X206989761Y-123229761D01*
X206942142Y-123277380D01*
X206846904Y-123325000D01*
X206656428Y-123372619D01*
X206418333Y-123372619D01*
X206227857Y-123325000D01*
X206132619Y-123277380D01*
X206085000Y-123229761D01*
X206037380Y-123134523D01*
X206037380Y-122467857D02*
X206037380Y-121848809D01*
X206418333Y-122182142D01*
X206418333Y-122039285D01*
X206465952Y-121944047D01*
X206513571Y-121896428D01*
X206608809Y-121848809D01*
X206846904Y-121848809D01*
X206942142Y-121896428D01*
X206989761Y-121944047D01*
X207037380Y-122039285D01*
X207037380Y-122325000D01*
X206989761Y-122420238D01*
X206942142Y-122467857D01*
X213892142Y-120737380D02*
X214558809Y-120737380D01*
X214130238Y-121737380D01*
X215368333Y-121070714D02*
X215368333Y-121737380D01*
X215130238Y-120689761D02*
X214892142Y-121404047D01*
X215511190Y-121404047D01*
X216368333Y-121737380D02*
X215892142Y-121737380D01*
X215892142Y-120737380D01*
X216654047Y-121689761D02*
X216796904Y-121737380D01*
X217035000Y-121737380D01*
X217130238Y-121689761D01*
X217177857Y-121642142D01*
X217225476Y-121546904D01*
X217225476Y-121451666D01*
X217177857Y-121356428D01*
X217130238Y-121308809D01*
X217035000Y-121261190D01*
X216844523Y-121213571D01*
X216749285Y-121165952D01*
X216701666Y-121118333D01*
X216654047Y-121023095D01*
X216654047Y-120927857D01*
X216701666Y-120832619D01*
X216749285Y-120785000D01*
X216844523Y-120737380D01*
X217082619Y-120737380D01*
X217225476Y-120785000D01*
X217844523Y-120737380D02*
X217939761Y-120737380D01*
X218035000Y-120785000D01*
X218082619Y-120832619D01*
X218130238Y-120927857D01*
X218177857Y-121118333D01*
X218177857Y-121356428D01*
X218130238Y-121546904D01*
X218082619Y-121642142D01*
X218035000Y-121689761D01*
X217939761Y-121737380D01*
X217844523Y-121737380D01*
X217749285Y-121689761D01*
X217701666Y-121642142D01*
X217654047Y-121546904D01*
X217606428Y-121356428D01*
X217606428Y-121118333D01*
X217654047Y-120927857D01*
X217701666Y-120832619D01*
X217749285Y-120785000D01*
X217844523Y-120737380D01*
X219035000Y-121070714D02*
X219035000Y-121737380D01*
X218796904Y-120689761D02*
X218558809Y-121404047D01*
X219177857Y-121404047D01*
X178887380Y-132738571D02*
X177887380Y-132738571D01*
X178792142Y-131690952D02*
X178839761Y-131738571D01*
X178887380Y-131881428D01*
X178887380Y-131976666D01*
X178839761Y-132119523D01*
X178744523Y-132214761D01*
X178649285Y-132262380D01*
X178458809Y-132310000D01*
X178315952Y-132310000D01*
X178125476Y-132262380D01*
X178030238Y-132214761D01*
X177935000Y-132119523D01*
X177887380Y-131976666D01*
X177887380Y-131881428D01*
X177935000Y-131738571D01*
X177982619Y-131690952D01*
X177982619Y-131310000D02*
X177935000Y-131262380D01*
X177887380Y-131167142D01*
X177887380Y-130929047D01*
X177935000Y-130833809D01*
X177982619Y-130786190D01*
X178077857Y-130738571D01*
X178173095Y-130738571D01*
X178315952Y-130786190D01*
X178887380Y-131357619D01*
X178887380Y-130738571D01*
X177887380Y-130119523D02*
X177887380Y-130024285D01*
X177935000Y-129929047D01*
X177982619Y-129881428D01*
X178077857Y-129833809D01*
X178268333Y-129786190D01*
X178506428Y-129786190D01*
X178696904Y-129833809D01*
X178792142Y-129881428D01*
X178839761Y-129929047D01*
X178887380Y-130024285D01*
X178887380Y-130119523D01*
X178839761Y-130214761D01*
X178792142Y-130262380D01*
X178696904Y-130310000D01*
X178506428Y-130357619D01*
X178268333Y-130357619D01*
X178077857Y-130310000D01*
X177982619Y-130262380D01*
X177935000Y-130214761D01*
X177887380Y-130119523D01*
X178887380Y-129310000D02*
X178887380Y-129119523D01*
X178839761Y-129024285D01*
X178792142Y-128976666D01*
X178649285Y-128881428D01*
X178458809Y-128833809D01*
X178077857Y-128833809D01*
X177982619Y-128881428D01*
X177935000Y-128929047D01*
X177887380Y-129024285D01*
X177887380Y-129214761D01*
X177935000Y-129310000D01*
X177982619Y-129357619D01*
X178077857Y-129405238D01*
X178315952Y-129405238D01*
X178411190Y-129357619D01*
X178458809Y-129310000D01*
X178506428Y-129214761D01*
X178506428Y-129024285D01*
X178458809Y-128929047D01*
X178411190Y-128881428D01*
X178315952Y-128833809D01*
X165632142Y-130262380D02*
X166298809Y-130262380D01*
X165870238Y-131262380D01*
X167108333Y-130595714D02*
X167108333Y-131262380D01*
X166870238Y-130214761D02*
X166632142Y-130929047D01*
X167251190Y-130929047D01*
X168108333Y-131262380D02*
X167632142Y-131262380D01*
X167632142Y-130262380D01*
X168394047Y-131214761D02*
X168536904Y-131262380D01*
X168775000Y-131262380D01*
X168870238Y-131214761D01*
X168917857Y-131167142D01*
X168965476Y-131071904D01*
X168965476Y-130976666D01*
X168917857Y-130881428D01*
X168870238Y-130833809D01*
X168775000Y-130786190D01*
X168584523Y-130738571D01*
X168489285Y-130690952D01*
X168441666Y-130643333D01*
X168394047Y-130548095D01*
X168394047Y-130452857D01*
X168441666Y-130357619D01*
X168489285Y-130310000D01*
X168584523Y-130262380D01*
X168822619Y-130262380D01*
X168965476Y-130310000D01*
X169536904Y-130690952D02*
X169441666Y-130643333D01*
X169394047Y-130595714D01*
X169346428Y-130500476D01*
X169346428Y-130452857D01*
X169394047Y-130357619D01*
X169441666Y-130310000D01*
X169536904Y-130262380D01*
X169727380Y-130262380D01*
X169822619Y-130310000D01*
X169870238Y-130357619D01*
X169917857Y-130452857D01*
X169917857Y-130500476D01*
X169870238Y-130595714D01*
X169822619Y-130643333D01*
X169727380Y-130690952D01*
X169536904Y-130690952D01*
X169441666Y-130738571D01*
X169394047Y-130786190D01*
X169346428Y-130881428D01*
X169346428Y-131071904D01*
X169394047Y-131167142D01*
X169441666Y-131214761D01*
X169536904Y-131262380D01*
X169727380Y-131262380D01*
X169822619Y-131214761D01*
X169870238Y-131167142D01*
X169917857Y-131071904D01*
X169917857Y-130881428D01*
X169870238Y-130786190D01*
X169822619Y-130738571D01*
X169727380Y-130690952D01*
X170775000Y-130262380D02*
X170584523Y-130262380D01*
X170489285Y-130310000D01*
X170441666Y-130357619D01*
X170346428Y-130500476D01*
X170298809Y-130690952D01*
X170298809Y-131071904D01*
X170346428Y-131167142D01*
X170394047Y-131214761D01*
X170489285Y-131262380D01*
X170679761Y-131262380D01*
X170775000Y-131214761D01*
X170822619Y-131167142D01*
X170870238Y-131071904D01*
X170870238Y-130833809D01*
X170822619Y-130738571D01*
X170775000Y-130690952D01*
X170679761Y-130643333D01*
X170489285Y-130643333D01*
X170394047Y-130690952D01*
X170346428Y-130738571D01*
X170298809Y-130833809D01*
X235136666Y-110894761D02*
X235279523Y-110942380D01*
X235517619Y-110942380D01*
X235612857Y-110894761D01*
X235660476Y-110847142D01*
X235708095Y-110751904D01*
X235708095Y-110656666D01*
X235660476Y-110561428D01*
X235612857Y-110513809D01*
X235517619Y-110466190D01*
X235327142Y-110418571D01*
X235231904Y-110370952D01*
X235184285Y-110323333D01*
X235136666Y-110228095D01*
X235136666Y-110132857D01*
X235184285Y-110037619D01*
X235231904Y-109990000D01*
X235327142Y-109942380D01*
X235565238Y-109942380D01*
X235708095Y-109990000D01*
X236041428Y-109942380D02*
X236279523Y-110942380D01*
X236470000Y-110228095D01*
X236660476Y-110942380D01*
X236898571Y-109942380D01*
X237803333Y-110942380D02*
X237231904Y-110942380D01*
X237517619Y-110942380D02*
X237517619Y-109942380D01*
X237422380Y-110085238D01*
X237327142Y-110180476D01*
X237231904Y-110228095D01*
X239883333Y-110656666D02*
X240359523Y-110656666D01*
X239788095Y-110942380D02*
X240121428Y-109942380D01*
X240454761Y-110942380D01*
X241121428Y-110418571D02*
X241264285Y-110466190D01*
X241311904Y-110513809D01*
X241359523Y-110609047D01*
X241359523Y-110751904D01*
X241311904Y-110847142D01*
X241264285Y-110894761D01*
X241169047Y-110942380D01*
X240788095Y-110942380D01*
X240788095Y-109942380D01*
X241121428Y-109942380D01*
X241216666Y-109990000D01*
X241264285Y-110037619D01*
X241311904Y-110132857D01*
X241311904Y-110228095D01*
X241264285Y-110323333D01*
X241216666Y-110370952D01*
X241121428Y-110418571D01*
X240788095Y-110418571D01*
X242121428Y-110418571D02*
X242264285Y-110466190D01*
X242311904Y-110513809D01*
X242359523Y-110609047D01*
X242359523Y-110751904D01*
X242311904Y-110847142D01*
X242264285Y-110894761D01*
X242169047Y-110942380D01*
X241788095Y-110942380D01*
X241788095Y-109942380D01*
X242121428Y-109942380D01*
X242216666Y-109990000D01*
X242264285Y-110037619D01*
X242311904Y-110132857D01*
X242311904Y-110228095D01*
X242264285Y-110323333D01*
X242216666Y-110370952D01*
X242121428Y-110418571D01*
X241788095Y-110418571D01*
X242740476Y-110656666D02*
X243216666Y-110656666D01*
X242645238Y-110942380D02*
X242978571Y-109942380D01*
X243311904Y-110942380D01*
X155297142Y-143994047D02*
X155344761Y-144041666D01*
X155392380Y-144184523D01*
X155392380Y-144279761D01*
X155344761Y-144422619D01*
X155249523Y-144517857D01*
X155154285Y-144565476D01*
X154963809Y-144613095D01*
X154820952Y-144613095D01*
X154630476Y-144565476D01*
X154535238Y-144517857D01*
X154440000Y-144422619D01*
X154392380Y-144279761D01*
X154392380Y-144184523D01*
X154440000Y-144041666D01*
X154487619Y-143994047D01*
X155392380Y-143041666D02*
X155392380Y-143613095D01*
X155392380Y-143327380D02*
X154392380Y-143327380D01*
X154535238Y-143422619D01*
X154630476Y-143517857D01*
X154678095Y-143613095D01*
X154392380Y-142422619D02*
X154392380Y-142327380D01*
X154440000Y-142232142D01*
X154487619Y-142184523D01*
X154582857Y-142136904D01*
X154773333Y-142089285D01*
X155011428Y-142089285D01*
X155201904Y-142136904D01*
X155297142Y-142184523D01*
X155344761Y-142232142D01*
X155392380Y-142327380D01*
X155392380Y-142422619D01*
X155344761Y-142517857D01*
X155297142Y-142565476D01*
X155201904Y-142613095D01*
X155011428Y-142660714D01*
X154773333Y-142660714D01*
X154582857Y-142613095D01*
X154487619Y-142565476D01*
X154440000Y-142517857D01*
X154392380Y-142422619D01*
X154487619Y-141708333D02*
X154440000Y-141660714D01*
X154392380Y-141565476D01*
X154392380Y-141327380D01*
X154440000Y-141232142D01*
X154487619Y-141184523D01*
X154582857Y-141136904D01*
X154678095Y-141136904D01*
X154820952Y-141184523D01*
X155392380Y-141755952D01*
X155392380Y-141136904D01*
X156686666Y-142660714D02*
X156686666Y-143327380D01*
X156448571Y-142279761D02*
X156210476Y-142994047D01*
X156829523Y-142994047D01*
X157115238Y-142327380D02*
X157781904Y-142327380D01*
X157353333Y-143327380D01*
X158162857Y-142660714D02*
X158162857Y-143660714D01*
X158162857Y-142708333D02*
X158258095Y-142660714D01*
X158448571Y-142660714D01*
X158543809Y-142708333D01*
X158591428Y-142755952D01*
X158639047Y-142851190D01*
X158639047Y-143136904D01*
X158591428Y-143232142D01*
X158543809Y-143279761D01*
X158448571Y-143327380D01*
X158258095Y-143327380D01*
X158162857Y-143279761D01*
X160115238Y-143708333D02*
X160067619Y-143660714D01*
X159972380Y-143517857D01*
X159924761Y-143422619D01*
X159877142Y-143279761D01*
X159829523Y-143041666D01*
X159829523Y-142851190D01*
X159877142Y-142613095D01*
X159924761Y-142470238D01*
X159972380Y-142375000D01*
X160067619Y-142232142D01*
X160115238Y-142184523D01*
X160496190Y-143327380D02*
X160496190Y-142327380D01*
X161067619Y-143327380D01*
X161067619Y-142327380D01*
X161543809Y-143327380D02*
X161543809Y-142327380D01*
X161924761Y-142327380D01*
X162020000Y-142375000D01*
X162067619Y-142422619D01*
X162115238Y-142517857D01*
X162115238Y-142660714D01*
X162067619Y-142755952D01*
X162020000Y-142803571D01*
X161924761Y-142851190D01*
X161543809Y-142851190D01*
X162734285Y-142327380D02*
X162924761Y-142327380D01*
X163020000Y-142375000D01*
X163115238Y-142470238D01*
X163162857Y-142660714D01*
X163162857Y-142994047D01*
X163115238Y-143184523D01*
X163020000Y-143279761D01*
X162924761Y-143327380D01*
X162734285Y-143327380D01*
X162639047Y-143279761D01*
X162543809Y-143184523D01*
X162496190Y-142994047D01*
X162496190Y-142660714D01*
X162543809Y-142470238D01*
X162639047Y-142375000D01*
X162734285Y-142327380D01*
X163496190Y-143708333D02*
X163543809Y-143660714D01*
X163639047Y-143517857D01*
X163686666Y-143422619D01*
X163734285Y-143279761D01*
X163781904Y-143041666D01*
X163781904Y-142851190D01*
X163734285Y-142613095D01*
X163686666Y-142470238D01*
X163639047Y-142375000D01*
X163543809Y-142232142D01*
X163496190Y-142184523D01*
X231452380Y-121022857D02*
X230976190Y-121356190D01*
X231452380Y-121594285D02*
X230452380Y-121594285D01*
X230452380Y-121213333D01*
X230500000Y-121118095D01*
X230547619Y-121070476D01*
X230642857Y-121022857D01*
X230785714Y-121022857D01*
X230880952Y-121070476D01*
X230928571Y-121118095D01*
X230976190Y-121213333D01*
X230976190Y-121594285D01*
X231452380Y-120594285D02*
X230452380Y-120594285D01*
X231452380Y-120022857D01*
X230452380Y-120022857D01*
X230547619Y-119594285D02*
X230500000Y-119546666D01*
X230452380Y-119451428D01*
X230452380Y-119213333D01*
X230500000Y-119118095D01*
X230547619Y-119070476D01*
X230642857Y-119022857D01*
X230738095Y-119022857D01*
X230880952Y-119070476D01*
X231452380Y-119641904D01*
X231452380Y-119022857D01*
X230452380Y-118403809D02*
X230452380Y-118308571D01*
X230500000Y-118213333D01*
X230547619Y-118165714D01*
X230642857Y-118118095D01*
X230833333Y-118070476D01*
X231071428Y-118070476D01*
X231261904Y-118118095D01*
X231357142Y-118165714D01*
X231404761Y-118213333D01*
X231452380Y-118308571D01*
X231452380Y-118403809D01*
X231404761Y-118499047D01*
X231357142Y-118546666D01*
X231261904Y-118594285D01*
X231071428Y-118641904D01*
X230833333Y-118641904D01*
X230642857Y-118594285D01*
X230547619Y-118546666D01*
X230500000Y-118499047D01*
X230452380Y-118403809D01*
X231452380Y-117118095D02*
X231452380Y-117689523D01*
X231452380Y-117403809D02*
X230452380Y-117403809D01*
X230595238Y-117499047D01*
X230690476Y-117594285D01*
X230738095Y-117689523D01*
X230592380Y-115696904D02*
X230592380Y-115887380D01*
X230640000Y-115982619D01*
X230687619Y-116030238D01*
X230830476Y-116125476D01*
X231020952Y-116173095D01*
X231401904Y-116173095D01*
X231497142Y-116125476D01*
X231544761Y-116077857D01*
X231592380Y-115982619D01*
X231592380Y-115792142D01*
X231544761Y-115696904D01*
X231497142Y-115649285D01*
X231401904Y-115601666D01*
X231163809Y-115601666D01*
X231068571Y-115649285D01*
X231020952Y-115696904D01*
X230973333Y-115792142D01*
X230973333Y-115982619D01*
X231020952Y-116077857D01*
X231068571Y-116125476D01*
X231163809Y-116173095D01*
X231020952Y-115030238D02*
X230973333Y-115125476D01*
X230925714Y-115173095D01*
X230830476Y-115220714D01*
X230782857Y-115220714D01*
X230687619Y-115173095D01*
X230640000Y-115125476D01*
X230592380Y-115030238D01*
X230592380Y-114839761D01*
X230640000Y-114744523D01*
X230687619Y-114696904D01*
X230782857Y-114649285D01*
X230830476Y-114649285D01*
X230925714Y-114696904D01*
X230973333Y-114744523D01*
X231020952Y-114839761D01*
X231020952Y-115030238D01*
X231068571Y-115125476D01*
X231116190Y-115173095D01*
X231211428Y-115220714D01*
X231401904Y-115220714D01*
X231497142Y-115173095D01*
X231544761Y-115125476D01*
X231592380Y-115030238D01*
X231592380Y-114839761D01*
X231544761Y-114744523D01*
X231497142Y-114696904D01*
X231401904Y-114649285D01*
X231211428Y-114649285D01*
X231116190Y-114696904D01*
X231068571Y-114744523D01*
X231020952Y-114839761D01*
X230592380Y-114030238D02*
X230592380Y-113935000D01*
X230640000Y-113839761D01*
X230687619Y-113792142D01*
X230782857Y-113744523D01*
X230973333Y-113696904D01*
X231211428Y-113696904D01*
X231401904Y-113744523D01*
X231497142Y-113792142D01*
X231544761Y-113839761D01*
X231592380Y-113935000D01*
X231592380Y-114030238D01*
X231544761Y-114125476D01*
X231497142Y-114173095D01*
X231401904Y-114220714D01*
X231211428Y-114268333D01*
X230973333Y-114268333D01*
X230782857Y-114220714D01*
X230687619Y-114173095D01*
X230640000Y-114125476D01*
X230592380Y-114030238D01*
X178887380Y-139723571D02*
X177887380Y-139723571D01*
X178792142Y-138675952D02*
X178839761Y-138723571D01*
X178887380Y-138866428D01*
X178887380Y-138961666D01*
X178839761Y-139104523D01*
X178744523Y-139199761D01*
X178649285Y-139247380D01*
X178458809Y-139295000D01*
X178315952Y-139295000D01*
X178125476Y-139247380D01*
X178030238Y-139199761D01*
X177935000Y-139104523D01*
X177887380Y-138961666D01*
X177887380Y-138866428D01*
X177935000Y-138723571D01*
X177982619Y-138675952D01*
X177982619Y-138295000D02*
X177935000Y-138247380D01*
X177887380Y-138152142D01*
X177887380Y-137914047D01*
X177935000Y-137818809D01*
X177982619Y-137771190D01*
X178077857Y-137723571D01*
X178173095Y-137723571D01*
X178315952Y-137771190D01*
X178887380Y-138342619D01*
X178887380Y-137723571D01*
X178887380Y-136771190D02*
X178887380Y-137342619D01*
X178887380Y-137056904D02*
X177887380Y-137056904D01*
X178030238Y-137152142D01*
X178125476Y-137247380D01*
X178173095Y-137342619D01*
X177887380Y-136152142D02*
X177887380Y-136056904D01*
X177935000Y-135961666D01*
X177982619Y-135914047D01*
X178077857Y-135866428D01*
X178268333Y-135818809D01*
X178506428Y-135818809D01*
X178696904Y-135866428D01*
X178792142Y-135914047D01*
X178839761Y-135961666D01*
X178887380Y-136056904D01*
X178887380Y-136152142D01*
X178839761Y-136247380D01*
X178792142Y-136295000D01*
X178696904Y-136342619D01*
X178506428Y-136390238D01*
X178268333Y-136390238D01*
X178077857Y-136342619D01*
X177982619Y-136295000D01*
X177935000Y-136247380D01*
X177887380Y-136152142D01*
X165155952Y-141057380D02*
X165822619Y-141057380D01*
X165394047Y-142057380D01*
X166632142Y-141390714D02*
X166632142Y-142057380D01*
X166394047Y-141009761D02*
X166155952Y-141724047D01*
X166775000Y-141724047D01*
X167632142Y-142057380D02*
X167155952Y-142057380D01*
X167155952Y-141057380D01*
X167917857Y-142009761D02*
X168060714Y-142057380D01*
X168298809Y-142057380D01*
X168394047Y-142009761D01*
X168441666Y-141962142D01*
X168489285Y-141866904D01*
X168489285Y-141771666D01*
X168441666Y-141676428D01*
X168394047Y-141628809D01*
X168298809Y-141581190D01*
X168108333Y-141533571D01*
X168013095Y-141485952D01*
X167965476Y-141438333D01*
X167917857Y-141343095D01*
X167917857Y-141247857D01*
X167965476Y-141152619D01*
X168013095Y-141105000D01*
X168108333Y-141057380D01*
X168346428Y-141057380D01*
X168489285Y-141105000D01*
X169441666Y-142057380D02*
X168870238Y-142057380D01*
X169155952Y-142057380D02*
X169155952Y-141057380D01*
X169060714Y-141200238D01*
X168965476Y-141295476D01*
X168870238Y-141343095D01*
X169775000Y-141057380D02*
X170394047Y-141057380D01*
X170060714Y-141438333D01*
X170203571Y-141438333D01*
X170298809Y-141485952D01*
X170346428Y-141533571D01*
X170394047Y-141628809D01*
X170394047Y-141866904D01*
X170346428Y-141962142D01*
X170298809Y-142009761D01*
X170203571Y-142057380D01*
X169917857Y-142057380D01*
X169822619Y-142009761D01*
X169775000Y-141962142D01*
X170775000Y-141152619D02*
X170822619Y-141105000D01*
X170917857Y-141057380D01*
X171155952Y-141057380D01*
X171251190Y-141105000D01*
X171298809Y-141152619D01*
X171346428Y-141247857D01*
X171346428Y-141343095D01*
X171298809Y-141485952D01*
X170727380Y-142057380D01*
X171346428Y-142057380D01*
X225262380Y-168473333D02*
X225976666Y-168473333D01*
X226119523Y-168520952D01*
X226214761Y-168616190D01*
X226262380Y-168759047D01*
X226262380Y-168854285D01*
X225357619Y-168044761D02*
X225310000Y-167997142D01*
X225262380Y-167901904D01*
X225262380Y-167663809D01*
X225310000Y-167568571D01*
X225357619Y-167520952D01*
X225452857Y-167473333D01*
X225548095Y-167473333D01*
X225690952Y-167520952D01*
X226262380Y-168092380D01*
X226262380Y-167473333D01*
X214587619Y-148367619D02*
X214540000Y-148462857D01*
X214444761Y-148558095D01*
X214301904Y-148700952D01*
X214254285Y-148796190D01*
X214254285Y-148891428D01*
X214492380Y-148843809D02*
X214444761Y-148939047D01*
X214349523Y-149034285D01*
X214159047Y-149081904D01*
X213825714Y-149081904D01*
X213635238Y-149034285D01*
X213540000Y-148939047D01*
X213492380Y-148843809D01*
X213492380Y-148653333D01*
X213540000Y-148558095D01*
X213635238Y-148462857D01*
X213825714Y-148415238D01*
X214159047Y-148415238D01*
X214349523Y-148462857D01*
X214444761Y-148558095D01*
X214492380Y-148653333D01*
X214492380Y-148843809D01*
X214492380Y-147462857D02*
X214492380Y-148034285D01*
X214492380Y-147748571D02*
X213492380Y-147748571D01*
X213635238Y-147843809D01*
X213730476Y-147939047D01*
X213778095Y-148034285D01*
X213492380Y-146843809D02*
X213492380Y-146748571D01*
X213540000Y-146653333D01*
X213587619Y-146605714D01*
X213682857Y-146558095D01*
X213873333Y-146510476D01*
X214111428Y-146510476D01*
X214301904Y-146558095D01*
X214397142Y-146605714D01*
X214444761Y-146653333D01*
X214492380Y-146748571D01*
X214492380Y-146843809D01*
X214444761Y-146939047D01*
X214397142Y-146986666D01*
X214301904Y-147034285D01*
X214111428Y-147081904D01*
X213873333Y-147081904D01*
X213682857Y-147034285D01*
X213587619Y-146986666D01*
X213540000Y-146939047D01*
X213492380Y-146843809D01*
X213587619Y-146129523D02*
X213540000Y-146081904D01*
X213492380Y-145986666D01*
X213492380Y-145748571D01*
X213540000Y-145653333D01*
X213587619Y-145605714D01*
X213682857Y-145558095D01*
X213778095Y-145558095D01*
X213920952Y-145605714D01*
X214492380Y-146177142D01*
X214492380Y-145558095D01*
X212272619Y-153026666D02*
X212225000Y-152979047D01*
X212177380Y-152883809D01*
X212177380Y-152645714D01*
X212225000Y-152550476D01*
X212272619Y-152502857D01*
X212367857Y-152455238D01*
X212463095Y-152455238D01*
X212605952Y-152502857D01*
X213177380Y-153074285D01*
X213177380Y-152455238D01*
X213129761Y-152074285D02*
X213177380Y-151931428D01*
X213177380Y-151693333D01*
X213129761Y-151598095D01*
X213082142Y-151550476D01*
X212986904Y-151502857D01*
X212891666Y-151502857D01*
X212796428Y-151550476D01*
X212748809Y-151598095D01*
X212701190Y-151693333D01*
X212653571Y-151883809D01*
X212605952Y-151979047D01*
X212558333Y-152026666D01*
X212463095Y-152074285D01*
X212367857Y-152074285D01*
X212272619Y-152026666D01*
X212225000Y-151979047D01*
X212177380Y-151883809D01*
X212177380Y-151645714D01*
X212225000Y-151502857D01*
X213082142Y-150502857D02*
X213129761Y-150550476D01*
X213177380Y-150693333D01*
X213177380Y-150788571D01*
X213129761Y-150931428D01*
X213034523Y-151026666D01*
X212939285Y-151074285D01*
X212748809Y-151121904D01*
X212605952Y-151121904D01*
X212415476Y-151074285D01*
X212320238Y-151026666D01*
X212225000Y-150931428D01*
X212177380Y-150788571D01*
X212177380Y-150693333D01*
X212225000Y-150550476D01*
X212272619Y-150502857D01*
X213177380Y-149550476D02*
X213177380Y-150121904D01*
X213177380Y-149836190D02*
X212177380Y-149836190D01*
X212320238Y-149931428D01*
X212415476Y-150026666D01*
X212463095Y-150121904D01*
X212605952Y-148979047D02*
X212558333Y-149074285D01*
X212510714Y-149121904D01*
X212415476Y-149169523D01*
X212367857Y-149169523D01*
X212272619Y-149121904D01*
X212225000Y-149074285D01*
X212177380Y-148979047D01*
X212177380Y-148788571D01*
X212225000Y-148693333D01*
X212272619Y-148645714D01*
X212367857Y-148598095D01*
X212415476Y-148598095D01*
X212510714Y-148645714D01*
X212558333Y-148693333D01*
X212605952Y-148788571D01*
X212605952Y-148979047D01*
X212653571Y-149074285D01*
X212701190Y-149121904D01*
X212796428Y-149169523D01*
X212986904Y-149169523D01*
X213082142Y-149121904D01*
X213129761Y-149074285D01*
X213177380Y-148979047D01*
X213177380Y-148788571D01*
X213129761Y-148693333D01*
X213082142Y-148645714D01*
X212986904Y-148598095D01*
X212796428Y-148598095D01*
X212701190Y-148645714D01*
X212653571Y-148693333D01*
X212605952Y-148788571D01*
X213177380Y-147645714D02*
X213177380Y-148217142D01*
X213177380Y-147931428D02*
X212177380Y-147931428D01*
X212320238Y-148026666D01*
X212415476Y-148121904D01*
X212463095Y-148217142D01*
X212177380Y-146740952D02*
X212177380Y-147217142D01*
X212653571Y-147264761D01*
X212605952Y-147217142D01*
X212558333Y-147121904D01*
X212558333Y-146883809D01*
X212605952Y-146788571D01*
X212653571Y-146740952D01*
X212748809Y-146693333D01*
X212986904Y-146693333D01*
X213082142Y-146740952D01*
X213129761Y-146788571D01*
X213177380Y-146883809D01*
X213177380Y-147121904D01*
X213129761Y-147217142D01*
X213082142Y-147264761D01*
X214587619Y-154082619D02*
X214540000Y-154177857D01*
X214444761Y-154273095D01*
X214301904Y-154415952D01*
X214254285Y-154511190D01*
X214254285Y-154606428D01*
X214492380Y-154558809D02*
X214444761Y-154654047D01*
X214349523Y-154749285D01*
X214159047Y-154796904D01*
X213825714Y-154796904D01*
X213635238Y-154749285D01*
X213540000Y-154654047D01*
X213492380Y-154558809D01*
X213492380Y-154368333D01*
X213540000Y-154273095D01*
X213635238Y-154177857D01*
X213825714Y-154130238D01*
X214159047Y-154130238D01*
X214349523Y-154177857D01*
X214444761Y-154273095D01*
X214492380Y-154368333D01*
X214492380Y-154558809D01*
X214492380Y-153177857D02*
X214492380Y-153749285D01*
X214492380Y-153463571D02*
X213492380Y-153463571D01*
X213635238Y-153558809D01*
X213730476Y-153654047D01*
X213778095Y-153749285D01*
X213492380Y-152558809D02*
X213492380Y-152463571D01*
X213540000Y-152368333D01*
X213587619Y-152320714D01*
X213682857Y-152273095D01*
X213873333Y-152225476D01*
X214111428Y-152225476D01*
X214301904Y-152273095D01*
X214397142Y-152320714D01*
X214444761Y-152368333D01*
X214492380Y-152463571D01*
X214492380Y-152558809D01*
X214444761Y-152654047D01*
X214397142Y-152701666D01*
X214301904Y-152749285D01*
X214111428Y-152796904D01*
X213873333Y-152796904D01*
X213682857Y-152749285D01*
X213587619Y-152701666D01*
X213540000Y-152654047D01*
X213492380Y-152558809D01*
X214492380Y-151273095D02*
X214492380Y-151844523D01*
X214492380Y-151558809D02*
X213492380Y-151558809D01*
X213635238Y-151654047D01*
X213730476Y-151749285D01*
X213778095Y-151844523D01*
X243506666Y-164552380D02*
X243506666Y-165266666D01*
X243459047Y-165409523D01*
X243363809Y-165504761D01*
X243220952Y-165552380D01*
X243125714Y-165552380D01*
X244411428Y-164885714D02*
X244411428Y-165552380D01*
X244173333Y-164504761D02*
X243935238Y-165219047D01*
X244554285Y-165219047D01*
X244602380Y-112117142D02*
X244554761Y-112164761D01*
X244411904Y-112212380D01*
X244316666Y-112212380D01*
X244173809Y-112164761D01*
X244078571Y-112069523D01*
X244030952Y-111974285D01*
X243983333Y-111783809D01*
X243983333Y-111640952D01*
X244030952Y-111450476D01*
X244078571Y-111355238D01*
X244173809Y-111260000D01*
X244316666Y-111212380D01*
X244411904Y-111212380D01*
X244554761Y-111260000D01*
X244602380Y-111307619D01*
X245030952Y-112212380D02*
X245030952Y-111212380D01*
X245459523Y-112212380D02*
X245459523Y-111688571D01*
X245411904Y-111593333D01*
X245316666Y-111545714D01*
X245173809Y-111545714D01*
X245078571Y-111593333D01*
X245030952Y-111640952D01*
X246364285Y-112212380D02*
X246364285Y-111688571D01*
X246316666Y-111593333D01*
X246221428Y-111545714D01*
X246030952Y-111545714D01*
X245935714Y-111593333D01*
X246364285Y-112164761D02*
X246269047Y-112212380D01*
X246030952Y-112212380D01*
X245935714Y-112164761D01*
X245888095Y-112069523D01*
X245888095Y-111974285D01*
X245935714Y-111879047D01*
X246030952Y-111831428D01*
X246269047Y-111831428D01*
X246364285Y-111783809D01*
X246840476Y-111545714D02*
X246840476Y-112212380D01*
X246840476Y-111640952D02*
X246888095Y-111593333D01*
X246983333Y-111545714D01*
X247126190Y-111545714D01*
X247221428Y-111593333D01*
X247269047Y-111688571D01*
X247269047Y-112212380D01*
X247745238Y-111545714D02*
X247745238Y-112212380D01*
X247745238Y-111640952D02*
X247792857Y-111593333D01*
X247888095Y-111545714D01*
X248030952Y-111545714D01*
X248126190Y-111593333D01*
X248173809Y-111688571D01*
X248173809Y-112212380D01*
X249030952Y-112164761D02*
X248935714Y-112212380D01*
X248745238Y-112212380D01*
X248650000Y-112164761D01*
X248602380Y-112069523D01*
X248602380Y-111688571D01*
X248650000Y-111593333D01*
X248745238Y-111545714D01*
X248935714Y-111545714D01*
X249030952Y-111593333D01*
X249078571Y-111688571D01*
X249078571Y-111783809D01*
X248602380Y-111879047D01*
X249650000Y-112212380D02*
X249554761Y-112164761D01*
X249507142Y-112069523D01*
X249507142Y-111212380D01*
X250745238Y-111307619D02*
X250792857Y-111260000D01*
X250888095Y-111212380D01*
X251126190Y-111212380D01*
X251221428Y-111260000D01*
X251269047Y-111307619D01*
X251316666Y-111402857D01*
X251316666Y-111498095D01*
X251269047Y-111640952D01*
X250697619Y-112212380D01*
X251316666Y-112212380D01*
X232711666Y-164552380D02*
X232711666Y-165266666D01*
X232664047Y-165409523D01*
X232568809Y-165504761D01*
X232425952Y-165552380D01*
X232330714Y-165552380D01*
X233092619Y-164552380D02*
X233711666Y-164552380D01*
X233378333Y-164933333D01*
X233521190Y-164933333D01*
X233616428Y-164980952D01*
X233664047Y-165028571D01*
X233711666Y-165123809D01*
X233711666Y-165361904D01*
X233664047Y-165457142D01*
X233616428Y-165504761D01*
X233521190Y-165552380D01*
X233235476Y-165552380D01*
X233140238Y-165504761D01*
X233092619Y-165457142D01*
X234442380Y-112117142D02*
X234394761Y-112164761D01*
X234251904Y-112212380D01*
X234156666Y-112212380D01*
X234013809Y-112164761D01*
X233918571Y-112069523D01*
X233870952Y-111974285D01*
X233823333Y-111783809D01*
X233823333Y-111640952D01*
X233870952Y-111450476D01*
X233918571Y-111355238D01*
X234013809Y-111260000D01*
X234156666Y-111212380D01*
X234251904Y-111212380D01*
X234394761Y-111260000D01*
X234442380Y-111307619D01*
X234870952Y-112212380D02*
X234870952Y-111212380D01*
X235299523Y-112212380D02*
X235299523Y-111688571D01*
X235251904Y-111593333D01*
X235156666Y-111545714D01*
X235013809Y-111545714D01*
X234918571Y-111593333D01*
X234870952Y-111640952D01*
X236204285Y-112212380D02*
X236204285Y-111688571D01*
X236156666Y-111593333D01*
X236061428Y-111545714D01*
X235870952Y-111545714D01*
X235775714Y-111593333D01*
X236204285Y-112164761D02*
X236109047Y-112212380D01*
X235870952Y-112212380D01*
X235775714Y-112164761D01*
X235728095Y-112069523D01*
X235728095Y-111974285D01*
X235775714Y-111879047D01*
X235870952Y-111831428D01*
X236109047Y-111831428D01*
X236204285Y-111783809D01*
X236680476Y-111545714D02*
X236680476Y-112212380D01*
X236680476Y-111640952D02*
X236728095Y-111593333D01*
X236823333Y-111545714D01*
X236966190Y-111545714D01*
X237061428Y-111593333D01*
X237109047Y-111688571D01*
X237109047Y-112212380D01*
X237585238Y-111545714D02*
X237585238Y-112212380D01*
X237585238Y-111640952D02*
X237632857Y-111593333D01*
X237728095Y-111545714D01*
X237870952Y-111545714D01*
X237966190Y-111593333D01*
X238013809Y-111688571D01*
X238013809Y-112212380D01*
X238870952Y-112164761D02*
X238775714Y-112212380D01*
X238585238Y-112212380D01*
X238490000Y-112164761D01*
X238442380Y-112069523D01*
X238442380Y-111688571D01*
X238490000Y-111593333D01*
X238585238Y-111545714D01*
X238775714Y-111545714D01*
X238870952Y-111593333D01*
X238918571Y-111688571D01*
X238918571Y-111783809D01*
X238442380Y-111879047D01*
X239490000Y-112212380D02*
X239394761Y-112164761D01*
X239347142Y-112069523D01*
X239347142Y-111212380D01*
X241156666Y-112212380D02*
X240585238Y-112212380D01*
X240870952Y-112212380D02*
X240870952Y-111212380D01*
X240775714Y-111355238D01*
X240680476Y-111450476D01*
X240585238Y-111498095D01*
X155392380Y-122054523D02*
X154392380Y-122054523D01*
X155392380Y-121483095D01*
X154392380Y-121483095D01*
X155392380Y-120435476D02*
X154916190Y-120768809D01*
X155392380Y-121006904D02*
X154392380Y-121006904D01*
X154392380Y-120625952D01*
X154440000Y-120530714D01*
X154487619Y-120483095D01*
X154582857Y-120435476D01*
X154725714Y-120435476D01*
X154820952Y-120483095D01*
X154868571Y-120530714D01*
X154916190Y-120625952D01*
X154916190Y-121006904D01*
X154487619Y-120054523D02*
X154440000Y-120006904D01*
X154392380Y-119911666D01*
X154392380Y-119673571D01*
X154440000Y-119578333D01*
X154487619Y-119530714D01*
X154582857Y-119483095D01*
X154678095Y-119483095D01*
X154820952Y-119530714D01*
X155392380Y-120102142D01*
X155392380Y-119483095D01*
X154392380Y-118864047D02*
X154392380Y-118768809D01*
X154440000Y-118673571D01*
X154487619Y-118625952D01*
X154582857Y-118578333D01*
X154773333Y-118530714D01*
X155011428Y-118530714D01*
X155201904Y-118578333D01*
X155297142Y-118625952D01*
X155344761Y-118673571D01*
X155392380Y-118768809D01*
X155392380Y-118864047D01*
X155344761Y-118959285D01*
X155297142Y-119006904D01*
X155201904Y-119054523D01*
X155011428Y-119102142D01*
X154773333Y-119102142D01*
X154582857Y-119054523D01*
X154487619Y-119006904D01*
X154440000Y-118959285D01*
X154392380Y-118864047D01*
X155392380Y-117578333D02*
X155392380Y-118149761D01*
X155392380Y-117864047D02*
X154392380Y-117864047D01*
X154535238Y-117959285D01*
X154630476Y-118054523D01*
X154678095Y-118149761D01*
X155011428Y-117149761D02*
X155011428Y-116387857D01*
X154392380Y-115483095D02*
X154392380Y-115673571D01*
X154440000Y-115768809D01*
X154487619Y-115816428D01*
X154630476Y-115911666D01*
X154820952Y-115959285D01*
X155201904Y-115959285D01*
X155297142Y-115911666D01*
X155344761Y-115864047D01*
X155392380Y-115768809D01*
X155392380Y-115578333D01*
X155344761Y-115483095D01*
X155297142Y-115435476D01*
X155201904Y-115387857D01*
X154963809Y-115387857D01*
X154868571Y-115435476D01*
X154820952Y-115483095D01*
X154773333Y-115578333D01*
X154773333Y-115768809D01*
X154820952Y-115864047D01*
X154868571Y-115911666D01*
X154963809Y-115959285D01*
X156297380Y-121276904D02*
X156297380Y-121467380D01*
X156345000Y-121562619D01*
X156392619Y-121610238D01*
X156535476Y-121705476D01*
X156725952Y-121753095D01*
X157106904Y-121753095D01*
X157202142Y-121705476D01*
X157249761Y-121657857D01*
X157297380Y-121562619D01*
X157297380Y-121372142D01*
X157249761Y-121276904D01*
X157202142Y-121229285D01*
X157106904Y-121181666D01*
X156868809Y-121181666D01*
X156773571Y-121229285D01*
X156725952Y-121276904D01*
X156678333Y-121372142D01*
X156678333Y-121562619D01*
X156725952Y-121657857D01*
X156773571Y-121705476D01*
X156868809Y-121753095D01*
X156725952Y-120610238D02*
X156678333Y-120705476D01*
X156630714Y-120753095D01*
X156535476Y-120800714D01*
X156487857Y-120800714D01*
X156392619Y-120753095D01*
X156345000Y-120705476D01*
X156297380Y-120610238D01*
X156297380Y-120419761D01*
X156345000Y-120324523D01*
X156392619Y-120276904D01*
X156487857Y-120229285D01*
X156535476Y-120229285D01*
X156630714Y-120276904D01*
X156678333Y-120324523D01*
X156725952Y-120419761D01*
X156725952Y-120610238D01*
X156773571Y-120705476D01*
X156821190Y-120753095D01*
X156916428Y-120800714D01*
X157106904Y-120800714D01*
X157202142Y-120753095D01*
X157249761Y-120705476D01*
X157297380Y-120610238D01*
X157297380Y-120419761D01*
X157249761Y-120324523D01*
X157202142Y-120276904D01*
X157106904Y-120229285D01*
X156916428Y-120229285D01*
X156821190Y-120276904D01*
X156773571Y-120324523D01*
X156725952Y-120419761D01*
X156297380Y-119610238D02*
X156297380Y-119515000D01*
X156345000Y-119419761D01*
X156392619Y-119372142D01*
X156487857Y-119324523D01*
X156678333Y-119276904D01*
X156916428Y-119276904D01*
X157106904Y-119324523D01*
X157202142Y-119372142D01*
X157249761Y-119419761D01*
X157297380Y-119515000D01*
X157297380Y-119610238D01*
X157249761Y-119705476D01*
X157202142Y-119753095D01*
X157106904Y-119800714D01*
X156916428Y-119848333D01*
X156678333Y-119848333D01*
X156487857Y-119800714D01*
X156392619Y-119753095D01*
X156345000Y-119705476D01*
X156297380Y-119610238D01*
X157297380Y-118276904D02*
X156821190Y-118610238D01*
X157297380Y-118848333D02*
X156297380Y-118848333D01*
X156297380Y-118467380D01*
X156345000Y-118372142D01*
X156392619Y-118324523D01*
X156487857Y-118276904D01*
X156630714Y-118276904D01*
X156725952Y-118324523D01*
X156773571Y-118372142D01*
X156821190Y-118467380D01*
X156821190Y-118848333D01*
X204303333Y-127992142D02*
X204255714Y-128039761D01*
X204112857Y-128087380D01*
X204017619Y-128087380D01*
X203874761Y-128039761D01*
X203779523Y-127944523D01*
X203731904Y-127849285D01*
X203684285Y-127658809D01*
X203684285Y-127515952D01*
X203731904Y-127325476D01*
X203779523Y-127230238D01*
X203874761Y-127135000D01*
X204017619Y-127087380D01*
X204112857Y-127087380D01*
X204255714Y-127135000D01*
X204303333Y-127182619D01*
X204874761Y-127515952D02*
X204779523Y-127468333D01*
X204731904Y-127420714D01*
X204684285Y-127325476D01*
X204684285Y-127277857D01*
X204731904Y-127182619D01*
X204779523Y-127135000D01*
X204874761Y-127087380D01*
X205065238Y-127087380D01*
X205160476Y-127135000D01*
X205208095Y-127182619D01*
X205255714Y-127277857D01*
X205255714Y-127325476D01*
X205208095Y-127420714D01*
X205160476Y-127468333D01*
X205065238Y-127515952D01*
X204874761Y-127515952D01*
X204779523Y-127563571D01*
X204731904Y-127611190D01*
X204684285Y-127706428D01*
X204684285Y-127896904D01*
X204731904Y-127992142D01*
X204779523Y-128039761D01*
X204874761Y-128087380D01*
X205065238Y-128087380D01*
X205160476Y-128039761D01*
X205208095Y-127992142D01*
X205255714Y-127896904D01*
X205255714Y-127706428D01*
X205208095Y-127611190D01*
X205160476Y-127563571D01*
X205065238Y-127515952D01*
X155297142Y-123991666D02*
X155344761Y-124039285D01*
X155392380Y-124182142D01*
X155392380Y-124277380D01*
X155344761Y-124420238D01*
X155249523Y-124515476D01*
X155154285Y-124563095D01*
X154963809Y-124610714D01*
X154820952Y-124610714D01*
X154630476Y-124563095D01*
X154535238Y-124515476D01*
X154440000Y-124420238D01*
X154392380Y-124277380D01*
X154392380Y-124182142D01*
X154440000Y-124039285D01*
X154487619Y-123991666D01*
X154392380Y-123658333D02*
X154392380Y-122991666D01*
X155392380Y-123420238D01*
X207712142Y-108096666D02*
X207759761Y-108144285D01*
X207807380Y-108287142D01*
X207807380Y-108382380D01*
X207759761Y-108525238D01*
X207664523Y-108620476D01*
X207569285Y-108668095D01*
X207378809Y-108715714D01*
X207235952Y-108715714D01*
X207045476Y-108668095D01*
X206950238Y-108620476D01*
X206855000Y-108525238D01*
X206807380Y-108382380D01*
X206807380Y-108287142D01*
X206855000Y-108144285D01*
X206902619Y-108096666D01*
X206807380Y-107239523D02*
X206807380Y-107430000D01*
X206855000Y-107525238D01*
X206902619Y-107572857D01*
X207045476Y-107668095D01*
X207235952Y-107715714D01*
X207616904Y-107715714D01*
X207712142Y-107668095D01*
X207759761Y-107620476D01*
X207807380Y-107525238D01*
X207807380Y-107334761D01*
X207759761Y-107239523D01*
X207712142Y-107191904D01*
X207616904Y-107144285D01*
X207378809Y-107144285D01*
X207283571Y-107191904D01*
X207235952Y-107239523D01*
X207188333Y-107334761D01*
X207188333Y-107525238D01*
X207235952Y-107620476D01*
X207283571Y-107668095D01*
X207378809Y-107715714D01*
X208347142Y-118931666D02*
X208394761Y-118979285D01*
X208442380Y-119122142D01*
X208442380Y-119217380D01*
X208394761Y-119360238D01*
X208299523Y-119455476D01*
X208204285Y-119503095D01*
X208013809Y-119550714D01*
X207870952Y-119550714D01*
X207680476Y-119503095D01*
X207585238Y-119455476D01*
X207490000Y-119360238D01*
X207442380Y-119217380D01*
X207442380Y-119122142D01*
X207490000Y-118979285D01*
X207537619Y-118931666D01*
X207442380Y-118026904D02*
X207442380Y-118503095D01*
X207918571Y-118550714D01*
X207870952Y-118503095D01*
X207823333Y-118407857D01*
X207823333Y-118169761D01*
X207870952Y-118074523D01*
X207918571Y-118026904D01*
X208013809Y-117979285D01*
X208251904Y-117979285D01*
X208347142Y-118026904D01*
X208394761Y-118074523D01*
X208442380Y-118169761D01*
X208442380Y-118407857D01*
X208394761Y-118503095D01*
X208347142Y-118550714D01*
X178887380Y-121943571D02*
X177887380Y-121943571D01*
X178792142Y-120895952D02*
X178839761Y-120943571D01*
X178887380Y-121086428D01*
X178887380Y-121181666D01*
X178839761Y-121324523D01*
X178744523Y-121419761D01*
X178649285Y-121467380D01*
X178458809Y-121515000D01*
X178315952Y-121515000D01*
X178125476Y-121467380D01*
X178030238Y-121419761D01*
X177935000Y-121324523D01*
X177887380Y-121181666D01*
X177887380Y-121086428D01*
X177935000Y-120943571D01*
X177982619Y-120895952D01*
X177982619Y-120515000D02*
X177935000Y-120467380D01*
X177887380Y-120372142D01*
X177887380Y-120134047D01*
X177935000Y-120038809D01*
X177982619Y-119991190D01*
X178077857Y-119943571D01*
X178173095Y-119943571D01*
X178315952Y-119991190D01*
X178887380Y-120562619D01*
X178887380Y-119943571D01*
X177887380Y-119324523D02*
X177887380Y-119229285D01*
X177935000Y-119134047D01*
X177982619Y-119086428D01*
X178077857Y-119038809D01*
X178268333Y-118991190D01*
X178506428Y-118991190D01*
X178696904Y-119038809D01*
X178792142Y-119086428D01*
X178839761Y-119134047D01*
X178887380Y-119229285D01*
X178887380Y-119324523D01*
X178839761Y-119419761D01*
X178792142Y-119467380D01*
X178696904Y-119515000D01*
X178506428Y-119562619D01*
X178268333Y-119562619D01*
X178077857Y-119515000D01*
X177982619Y-119467380D01*
X177935000Y-119419761D01*
X177887380Y-119324523D01*
X177887380Y-118086428D02*
X177887380Y-118562619D01*
X178363571Y-118610238D01*
X178315952Y-118562619D01*
X178268333Y-118467380D01*
X178268333Y-118229285D01*
X178315952Y-118134047D01*
X178363571Y-118086428D01*
X178458809Y-118038809D01*
X178696904Y-118038809D01*
X178792142Y-118086428D01*
X178839761Y-118134047D01*
X178887380Y-118229285D01*
X178887380Y-118467380D01*
X178839761Y-118562619D01*
X178792142Y-118610238D01*
X165632142Y-119467380D02*
X166298809Y-119467380D01*
X165870238Y-120467380D01*
X167108333Y-119800714D02*
X167108333Y-120467380D01*
X166870238Y-119419761D02*
X166632142Y-120134047D01*
X167251190Y-120134047D01*
X168108333Y-120467380D02*
X167632142Y-120467380D01*
X167632142Y-119467380D01*
X168394047Y-120419761D02*
X168536904Y-120467380D01*
X168775000Y-120467380D01*
X168870238Y-120419761D01*
X168917857Y-120372142D01*
X168965476Y-120276904D01*
X168965476Y-120181666D01*
X168917857Y-120086428D01*
X168870238Y-120038809D01*
X168775000Y-119991190D01*
X168584523Y-119943571D01*
X168489285Y-119895952D01*
X168441666Y-119848333D01*
X168394047Y-119753095D01*
X168394047Y-119657857D01*
X168441666Y-119562619D01*
X168489285Y-119515000D01*
X168584523Y-119467380D01*
X168822619Y-119467380D01*
X168965476Y-119515000D01*
X169584523Y-119467380D02*
X169679761Y-119467380D01*
X169775000Y-119515000D01*
X169822619Y-119562619D01*
X169870238Y-119657857D01*
X169917857Y-119848333D01*
X169917857Y-120086428D01*
X169870238Y-120276904D01*
X169822619Y-120372142D01*
X169775000Y-120419761D01*
X169679761Y-120467380D01*
X169584523Y-120467380D01*
X169489285Y-120419761D01*
X169441666Y-120372142D01*
X169394047Y-120276904D01*
X169346428Y-120086428D01*
X169346428Y-119848333D01*
X169394047Y-119657857D01*
X169441666Y-119562619D01*
X169489285Y-119515000D01*
X169584523Y-119467380D01*
X170489285Y-119895952D02*
X170394047Y-119848333D01*
X170346428Y-119800714D01*
X170298809Y-119705476D01*
X170298809Y-119657857D01*
X170346428Y-119562619D01*
X170394047Y-119515000D01*
X170489285Y-119467380D01*
X170679761Y-119467380D01*
X170775000Y-119515000D01*
X170822619Y-119562619D01*
X170870238Y-119657857D01*
X170870238Y-119705476D01*
X170822619Y-119800714D01*
X170775000Y-119848333D01*
X170679761Y-119895952D01*
X170489285Y-119895952D01*
X170394047Y-119943571D01*
X170346428Y-119991190D01*
X170298809Y-120086428D01*
X170298809Y-120276904D01*
X170346428Y-120372142D01*
X170394047Y-120419761D01*
X170489285Y-120467380D01*
X170679761Y-120467380D01*
X170775000Y-120419761D01*
X170822619Y-120372142D01*
X170870238Y-120276904D01*
X170870238Y-120086428D01*
X170822619Y-119991190D01*
X170775000Y-119943571D01*
X170679761Y-119895952D01*
X178887380Y-111148571D02*
X177887380Y-111148571D01*
X178792142Y-110100952D02*
X178839761Y-110148571D01*
X178887380Y-110291428D01*
X178887380Y-110386666D01*
X178839761Y-110529523D01*
X178744523Y-110624761D01*
X178649285Y-110672380D01*
X178458809Y-110720000D01*
X178315952Y-110720000D01*
X178125476Y-110672380D01*
X178030238Y-110624761D01*
X177935000Y-110529523D01*
X177887380Y-110386666D01*
X177887380Y-110291428D01*
X177935000Y-110148571D01*
X177982619Y-110100952D01*
X177982619Y-109720000D02*
X177935000Y-109672380D01*
X177887380Y-109577142D01*
X177887380Y-109339047D01*
X177935000Y-109243809D01*
X177982619Y-109196190D01*
X178077857Y-109148571D01*
X178173095Y-109148571D01*
X178315952Y-109196190D01*
X178887380Y-109767619D01*
X178887380Y-109148571D01*
X178887380Y-108196190D02*
X178887380Y-108767619D01*
X178887380Y-108481904D02*
X177887380Y-108481904D01*
X178030238Y-108577142D01*
X178125476Y-108672380D01*
X178173095Y-108767619D01*
X177982619Y-107815238D02*
X177935000Y-107767619D01*
X177887380Y-107672380D01*
X177887380Y-107434285D01*
X177935000Y-107339047D01*
X177982619Y-107291428D01*
X178077857Y-107243809D01*
X178173095Y-107243809D01*
X178315952Y-107291428D01*
X178887380Y-107862857D01*
X178887380Y-107243809D01*
X165632142Y-108672380D02*
X166298809Y-108672380D01*
X165870238Y-109672380D01*
X167108333Y-109005714D02*
X167108333Y-109672380D01*
X166870238Y-108624761D02*
X166632142Y-109339047D01*
X167251190Y-109339047D01*
X168108333Y-109672380D02*
X167632142Y-109672380D01*
X167632142Y-108672380D01*
X168394047Y-109624761D02*
X168536904Y-109672380D01*
X168775000Y-109672380D01*
X168870238Y-109624761D01*
X168917857Y-109577142D01*
X168965476Y-109481904D01*
X168965476Y-109386666D01*
X168917857Y-109291428D01*
X168870238Y-109243809D01*
X168775000Y-109196190D01*
X168584523Y-109148571D01*
X168489285Y-109100952D01*
X168441666Y-109053333D01*
X168394047Y-108958095D01*
X168394047Y-108862857D01*
X168441666Y-108767619D01*
X168489285Y-108720000D01*
X168584523Y-108672380D01*
X168822619Y-108672380D01*
X168965476Y-108720000D01*
X169298809Y-108672380D02*
X169965476Y-108672380D01*
X169536904Y-109672380D01*
X170775000Y-109005714D02*
X170775000Y-109672380D01*
X170536904Y-108624761D02*
X170298809Y-109339047D01*
X170917857Y-109339047D01*
X200175952Y-116657380D02*
X199842619Y-116181190D01*
X199604523Y-116657380D02*
X199604523Y-115657380D01*
X199985476Y-115657380D01*
X200080714Y-115705000D01*
X200128333Y-115752619D01*
X200175952Y-115847857D01*
X200175952Y-115990714D01*
X200128333Y-116085952D01*
X200080714Y-116133571D01*
X199985476Y-116181190D01*
X199604523Y-116181190D01*
X200556904Y-115752619D02*
X200604523Y-115705000D01*
X200699761Y-115657380D01*
X200937857Y-115657380D01*
X201033095Y-115705000D01*
X201080714Y-115752619D01*
X201128333Y-115847857D01*
X201128333Y-115943095D01*
X201080714Y-116085952D01*
X200509285Y-116657380D01*
X201128333Y-116657380D01*
X202080714Y-116657380D02*
X201509285Y-116657380D01*
X201795000Y-116657380D02*
X201795000Y-115657380D01*
X201699761Y-115800238D01*
X201604523Y-115895476D01*
X201509285Y-115943095D01*
X202937857Y-115990714D02*
X202937857Y-116657380D01*
X202699761Y-115609761D02*
X202461666Y-116324047D01*
X203080714Y-116324047D01*
X201477619Y-111751904D02*
X201430000Y-111704285D01*
X201382380Y-111609047D01*
X201382380Y-111370952D01*
X201430000Y-111275714D01*
X201477619Y-111228095D01*
X201572857Y-111180476D01*
X201668095Y-111180476D01*
X201810952Y-111228095D01*
X202382380Y-111799523D01*
X202382380Y-111180476D01*
X202382380Y-110751904D02*
X201382380Y-110751904D01*
X202382380Y-110180476D02*
X201810952Y-110609047D01*
X201382380Y-110180476D02*
X201953809Y-110751904D01*
X201477619Y-109799523D02*
X201430000Y-109751904D01*
X201382380Y-109656666D01*
X201382380Y-109418571D01*
X201430000Y-109323333D01*
X201477619Y-109275714D01*
X201572857Y-109228095D01*
X201668095Y-109228095D01*
X201810952Y-109275714D01*
X202382380Y-109847142D01*
X202382380Y-109228095D01*
X180157380Y-153519047D02*
X179681190Y-153852380D01*
X180157380Y-154090476D02*
X179157380Y-154090476D01*
X179157380Y-153709523D01*
X179205000Y-153614285D01*
X179252619Y-153566666D01*
X179347857Y-153519047D01*
X179490714Y-153519047D01*
X179585952Y-153566666D01*
X179633571Y-153614285D01*
X179681190Y-153709523D01*
X179681190Y-154090476D01*
X179252619Y-153138095D02*
X179205000Y-153090476D01*
X179157380Y-152995238D01*
X179157380Y-152757142D01*
X179205000Y-152661904D01*
X179252619Y-152614285D01*
X179347857Y-152566666D01*
X179443095Y-152566666D01*
X179585952Y-152614285D01*
X180157380Y-153185714D01*
X180157380Y-152566666D01*
X180157380Y-151614285D02*
X180157380Y-152185714D01*
X180157380Y-151900000D02*
X179157380Y-151900000D01*
X179300238Y-151995238D01*
X179395476Y-152090476D01*
X179443095Y-152185714D01*
X179252619Y-151233333D02*
X179205000Y-151185714D01*
X179157380Y-151090476D01*
X179157380Y-150852380D01*
X179205000Y-150757142D01*
X179252619Y-150709523D01*
X179347857Y-150661904D01*
X179443095Y-150661904D01*
X179585952Y-150709523D01*
X180157380Y-151280952D01*
X180157380Y-150661904D01*
X180157380Y-145534047D02*
X180157380Y-146105476D01*
X180157380Y-145819761D02*
X179157380Y-145819761D01*
X179300238Y-145915000D01*
X179395476Y-146010238D01*
X179443095Y-146105476D01*
X180157380Y-145105476D02*
X179157380Y-145105476D01*
X179776428Y-145010238D02*
X180157380Y-144724523D01*
X179490714Y-144724523D02*
X179871666Y-145105476D01*
X225575952Y-146037380D02*
X225242619Y-145561190D01*
X225004523Y-146037380D02*
X225004523Y-145037380D01*
X225385476Y-145037380D01*
X225480714Y-145085000D01*
X225528333Y-145132619D01*
X225575952Y-145227857D01*
X225575952Y-145370714D01*
X225528333Y-145465952D01*
X225480714Y-145513571D01*
X225385476Y-145561190D01*
X225004523Y-145561190D01*
X226528333Y-146037380D02*
X225956904Y-146037380D01*
X226242619Y-146037380D02*
X226242619Y-145037380D01*
X226147380Y-145180238D01*
X226052142Y-145275476D01*
X225956904Y-145323095D01*
X226909285Y-145132619D02*
X226956904Y-145085000D01*
X227052142Y-145037380D01*
X227290238Y-145037380D01*
X227385476Y-145085000D01*
X227433095Y-145132619D01*
X227480714Y-145227857D01*
X227480714Y-145323095D01*
X227433095Y-145465952D01*
X226861666Y-146037380D01*
X227480714Y-146037380D01*
X228433095Y-146037380D02*
X227861666Y-146037380D01*
X228147380Y-146037380D02*
X228147380Y-145037380D01*
X228052142Y-145180238D01*
X227956904Y-145275476D01*
X227861666Y-145323095D01*
X225480714Y-147407380D02*
X225004523Y-147407380D01*
X224956904Y-147883571D01*
X225004523Y-147835952D01*
X225099761Y-147788333D01*
X225337857Y-147788333D01*
X225433095Y-147835952D01*
X225480714Y-147883571D01*
X225528333Y-147978809D01*
X225528333Y-148216904D01*
X225480714Y-148312142D01*
X225433095Y-148359761D01*
X225337857Y-148407380D01*
X225099761Y-148407380D01*
X225004523Y-148359761D01*
X224956904Y-148312142D01*
X226385476Y-147407380D02*
X226195000Y-147407380D01*
X226099761Y-147455000D01*
X226052142Y-147502619D01*
X225956904Y-147645476D01*
X225909285Y-147835952D01*
X225909285Y-148216904D01*
X225956904Y-148312142D01*
X226004523Y-148359761D01*
X226099761Y-148407380D01*
X226290238Y-148407380D01*
X226385476Y-148359761D01*
X226433095Y-148312142D01*
X226480714Y-148216904D01*
X226480714Y-147978809D01*
X226433095Y-147883571D01*
X226385476Y-147835952D01*
X226290238Y-147788333D01*
X226099761Y-147788333D01*
X226004523Y-147835952D01*
X225956904Y-147883571D01*
X225909285Y-147978809D01*
X227099761Y-147407380D02*
X227195000Y-147407380D01*
X227290238Y-147455000D01*
X227337857Y-147502619D01*
X227385476Y-147597857D01*
X227433095Y-147788333D01*
X227433095Y-148026428D01*
X227385476Y-148216904D01*
X227337857Y-148312142D01*
X227290238Y-148359761D01*
X227195000Y-148407380D01*
X227099761Y-148407380D01*
X227004523Y-148359761D01*
X226956904Y-148312142D01*
X226909285Y-148216904D01*
X226861666Y-148026428D01*
X226861666Y-147788333D01*
X226909285Y-147597857D01*
X226956904Y-147502619D01*
X227004523Y-147455000D01*
X227099761Y-147407380D01*
X228433095Y-148407380D02*
X228099761Y-147931190D01*
X227861666Y-148407380D02*
X227861666Y-147407380D01*
X228242619Y-147407380D01*
X228337857Y-147455000D01*
X228385476Y-147502619D01*
X228433095Y-147597857D01*
X228433095Y-147740714D01*
X228385476Y-147835952D01*
X228337857Y-147883571D01*
X228242619Y-147931190D01*
X227861666Y-147931190D01*
X221432380Y-151614047D02*
X220956190Y-151947380D01*
X221432380Y-152185476D02*
X220432380Y-152185476D01*
X220432380Y-151804523D01*
X220480000Y-151709285D01*
X220527619Y-151661666D01*
X220622857Y-151614047D01*
X220765714Y-151614047D01*
X220860952Y-151661666D01*
X220908571Y-151709285D01*
X220956190Y-151804523D01*
X220956190Y-152185476D01*
X221432380Y-150661666D02*
X221432380Y-151233095D01*
X221432380Y-150947380D02*
X220432380Y-150947380D01*
X220575238Y-151042619D01*
X220670476Y-151137857D01*
X220718095Y-151233095D01*
X220527619Y-150280714D02*
X220480000Y-150233095D01*
X220432380Y-150137857D01*
X220432380Y-149899761D01*
X220480000Y-149804523D01*
X220527619Y-149756904D01*
X220622857Y-149709285D01*
X220718095Y-149709285D01*
X220860952Y-149756904D01*
X221432380Y-150328333D01*
X221432380Y-149709285D01*
X220432380Y-149090238D02*
X220432380Y-148995000D01*
X220480000Y-148899761D01*
X220527619Y-148852142D01*
X220622857Y-148804523D01*
X220813333Y-148756904D01*
X221051428Y-148756904D01*
X221241904Y-148804523D01*
X221337142Y-148852142D01*
X221384761Y-148899761D01*
X221432380Y-148995000D01*
X221432380Y-149090238D01*
X221384761Y-149185476D01*
X221337142Y-149233095D01*
X221241904Y-149280714D01*
X221051428Y-149328333D01*
X220813333Y-149328333D01*
X220622857Y-149280714D01*
X220527619Y-149233095D01*
X220480000Y-149185476D01*
X220432380Y-149090238D01*
X225528333Y-150677619D02*
X225575952Y-150630000D01*
X225671190Y-150582380D01*
X225909285Y-150582380D01*
X226004523Y-150630000D01*
X226052142Y-150677619D01*
X226099761Y-150772857D01*
X226099761Y-150868095D01*
X226052142Y-151010952D01*
X225480714Y-151582380D01*
X226099761Y-151582380D01*
X226528333Y-151582380D02*
X226528333Y-150582380D01*
X226623571Y-151201428D02*
X226909285Y-151582380D01*
X226909285Y-150915714D02*
X226528333Y-151296666D01*
X227290238Y-150677619D02*
X227337857Y-150630000D01*
X227433095Y-150582380D01*
X227671190Y-150582380D01*
X227766428Y-150630000D01*
X227814047Y-150677619D01*
X227861666Y-150772857D01*
X227861666Y-150868095D01*
X227814047Y-151010952D01*
X227242619Y-151582380D01*
X227861666Y-151582380D01*
X221432380Y-155424047D02*
X220956190Y-155757380D01*
X221432380Y-155995476D02*
X220432380Y-155995476D01*
X220432380Y-155614523D01*
X220480000Y-155519285D01*
X220527619Y-155471666D01*
X220622857Y-155424047D01*
X220765714Y-155424047D01*
X220860952Y-155471666D01*
X220908571Y-155519285D01*
X220956190Y-155614523D01*
X220956190Y-155995476D01*
X221432380Y-154471666D02*
X221432380Y-155043095D01*
X221432380Y-154757380D02*
X220432380Y-154757380D01*
X220575238Y-154852619D01*
X220670476Y-154947857D01*
X220718095Y-155043095D01*
X221432380Y-153519285D02*
X221432380Y-154090714D01*
X221432380Y-153805000D02*
X220432380Y-153805000D01*
X220575238Y-153900238D01*
X220670476Y-153995476D01*
X220718095Y-154090714D01*
X221432380Y-153043095D02*
X221432380Y-152852619D01*
X221384761Y-152757380D01*
X221337142Y-152709761D01*
X221194285Y-152614523D01*
X221003809Y-152566904D01*
X220622857Y-152566904D01*
X220527619Y-152614523D01*
X220480000Y-152662142D01*
X220432380Y-152757380D01*
X220432380Y-152947857D01*
X220480000Y-153043095D01*
X220527619Y-153090714D01*
X220622857Y-153138333D01*
X220860952Y-153138333D01*
X220956190Y-153090714D01*
X221003809Y-153043095D01*
X221051428Y-152947857D01*
X221051428Y-152757380D01*
X221003809Y-152662142D01*
X220956190Y-152614523D01*
X220860952Y-152566904D01*
X225480714Y-153757380D02*
X225004523Y-153757380D01*
X224956904Y-154233571D01*
X225004523Y-154185952D01*
X225099761Y-154138333D01*
X225337857Y-154138333D01*
X225433095Y-154185952D01*
X225480714Y-154233571D01*
X225528333Y-154328809D01*
X225528333Y-154566904D01*
X225480714Y-154662142D01*
X225433095Y-154709761D01*
X225337857Y-154757380D01*
X225099761Y-154757380D01*
X225004523Y-154709761D01*
X224956904Y-154662142D01*
X226385476Y-153757380D02*
X226195000Y-153757380D01*
X226099761Y-153805000D01*
X226052142Y-153852619D01*
X225956904Y-153995476D01*
X225909285Y-154185952D01*
X225909285Y-154566904D01*
X225956904Y-154662142D01*
X226004523Y-154709761D01*
X226099761Y-154757380D01*
X226290238Y-154757380D01*
X226385476Y-154709761D01*
X226433095Y-154662142D01*
X226480714Y-154566904D01*
X226480714Y-154328809D01*
X226433095Y-154233571D01*
X226385476Y-154185952D01*
X226290238Y-154138333D01*
X226099761Y-154138333D01*
X226004523Y-154185952D01*
X225956904Y-154233571D01*
X225909285Y-154328809D01*
X227099761Y-153757380D02*
X227195000Y-153757380D01*
X227290238Y-153805000D01*
X227337857Y-153852619D01*
X227385476Y-153947857D01*
X227433095Y-154138333D01*
X227433095Y-154376428D01*
X227385476Y-154566904D01*
X227337857Y-154662142D01*
X227290238Y-154709761D01*
X227195000Y-154757380D01*
X227099761Y-154757380D01*
X227004523Y-154709761D01*
X226956904Y-154662142D01*
X226909285Y-154566904D01*
X226861666Y-154376428D01*
X226861666Y-154138333D01*
X226909285Y-153947857D01*
X226956904Y-153852619D01*
X227004523Y-153805000D01*
X227099761Y-153757380D01*
X228433095Y-154757380D02*
X228099761Y-154281190D01*
X227861666Y-154757380D02*
X227861666Y-153757380D01*
X228242619Y-153757380D01*
X228337857Y-153805000D01*
X228385476Y-153852619D01*
X228433095Y-153947857D01*
X228433095Y-154090714D01*
X228385476Y-154185952D01*
X228337857Y-154233571D01*
X228242619Y-154281190D01*
X227861666Y-154281190D01*
X207795952Y-157932380D02*
X207462619Y-157456190D01*
X207224523Y-157932380D02*
X207224523Y-156932380D01*
X207605476Y-156932380D01*
X207700714Y-156980000D01*
X207748333Y-157027619D01*
X207795952Y-157122857D01*
X207795952Y-157265714D01*
X207748333Y-157360952D01*
X207700714Y-157408571D01*
X207605476Y-157456190D01*
X207224523Y-157456190D01*
X208748333Y-157932380D02*
X208176904Y-157932380D01*
X208462619Y-157932380D02*
X208462619Y-156932380D01*
X208367380Y-157075238D01*
X208272142Y-157170476D01*
X208176904Y-157218095D01*
X209700714Y-157932380D02*
X209129285Y-157932380D01*
X209415000Y-157932380D02*
X209415000Y-156932380D01*
X209319761Y-157075238D01*
X209224523Y-157170476D01*
X209129285Y-157218095D01*
X210272142Y-157360952D02*
X210176904Y-157313333D01*
X210129285Y-157265714D01*
X210081666Y-157170476D01*
X210081666Y-157122857D01*
X210129285Y-157027619D01*
X210176904Y-156980000D01*
X210272142Y-156932380D01*
X210462619Y-156932380D01*
X210557857Y-156980000D01*
X210605476Y-157027619D01*
X210653095Y-157122857D01*
X210653095Y-157170476D01*
X210605476Y-157265714D01*
X210557857Y-157313333D01*
X210462619Y-157360952D01*
X210272142Y-157360952D01*
X210176904Y-157408571D01*
X210129285Y-157456190D01*
X210081666Y-157551428D01*
X210081666Y-157741904D01*
X210129285Y-157837142D01*
X210176904Y-157884761D01*
X210272142Y-157932380D01*
X210462619Y-157932380D01*
X210557857Y-157884761D01*
X210605476Y-157837142D01*
X210653095Y-157741904D01*
X210653095Y-157551428D01*
X210605476Y-157456190D01*
X210557857Y-157408571D01*
X210462619Y-157360952D01*
X214733333Y-157932380D02*
X214161904Y-157932380D01*
X214447619Y-157932380D02*
X214447619Y-156932380D01*
X214352380Y-157075238D01*
X214257142Y-157170476D01*
X214161904Y-157218095D01*
X215590476Y-156932380D02*
X215400000Y-156932380D01*
X215304761Y-156980000D01*
X215257142Y-157027619D01*
X215161904Y-157170476D01*
X215114285Y-157360952D01*
X215114285Y-157741904D01*
X215161904Y-157837142D01*
X215209523Y-157884761D01*
X215304761Y-157932380D01*
X215495238Y-157932380D01*
X215590476Y-157884761D01*
X215638095Y-157837142D01*
X215685714Y-157741904D01*
X215685714Y-157503809D01*
X215638095Y-157408571D01*
X215590476Y-157360952D01*
X215495238Y-157313333D01*
X215304761Y-157313333D01*
X215209523Y-157360952D01*
X215161904Y-157408571D01*
X215114285Y-157503809D01*
X216304761Y-156932380D02*
X216400000Y-156932380D01*
X216495238Y-156980000D01*
X216542857Y-157027619D01*
X216590476Y-157122857D01*
X216638095Y-157313333D01*
X216638095Y-157551428D01*
X216590476Y-157741904D01*
X216542857Y-157837142D01*
X216495238Y-157884761D01*
X216400000Y-157932380D01*
X216304761Y-157932380D01*
X216209523Y-157884761D01*
X216161904Y-157837142D01*
X216114285Y-157741904D01*
X216066666Y-157551428D01*
X216066666Y-157313333D01*
X216114285Y-157122857D01*
X216161904Y-157027619D01*
X216209523Y-156980000D01*
X216304761Y-156932380D01*
X217638095Y-157932380D02*
X217304761Y-157456190D01*
X217066666Y-157932380D02*
X217066666Y-156932380D01*
X217447619Y-156932380D01*
X217542857Y-156980000D01*
X217590476Y-157027619D01*
X217638095Y-157122857D01*
X217638095Y-157265714D01*
X217590476Y-157360952D01*
X217542857Y-157408571D01*
X217447619Y-157456190D01*
X217066666Y-157456190D01*
X225575952Y-160302380D02*
X225242619Y-159826190D01*
X225004523Y-160302380D02*
X225004523Y-159302380D01*
X225385476Y-159302380D01*
X225480714Y-159350000D01*
X225528333Y-159397619D01*
X225575952Y-159492857D01*
X225575952Y-159635714D01*
X225528333Y-159730952D01*
X225480714Y-159778571D01*
X225385476Y-159826190D01*
X225004523Y-159826190D01*
X226528333Y-160302380D02*
X225956904Y-160302380D01*
X226242619Y-160302380D02*
X226242619Y-159302380D01*
X226147380Y-159445238D01*
X226052142Y-159540476D01*
X225956904Y-159588095D01*
X227480714Y-160302380D02*
X226909285Y-160302380D01*
X227195000Y-160302380D02*
X227195000Y-159302380D01*
X227099761Y-159445238D01*
X227004523Y-159540476D01*
X226909285Y-159588095D01*
X227814047Y-159302380D02*
X228480714Y-159302380D01*
X228052142Y-160302380D01*
X226099761Y-157932380D02*
X225528333Y-157932380D01*
X225814047Y-157932380D02*
X225814047Y-156932380D01*
X225718809Y-157075238D01*
X225623571Y-157170476D01*
X225528333Y-157218095D01*
X226718809Y-156932380D02*
X226814047Y-156932380D01*
X226909285Y-156980000D01*
X226956904Y-157027619D01*
X227004523Y-157122857D01*
X227052142Y-157313333D01*
X227052142Y-157551428D01*
X227004523Y-157741904D01*
X226956904Y-157837142D01*
X226909285Y-157884761D01*
X226814047Y-157932380D01*
X226718809Y-157932380D01*
X226623571Y-157884761D01*
X226575952Y-157837142D01*
X226528333Y-157741904D01*
X226480714Y-157551428D01*
X226480714Y-157313333D01*
X226528333Y-157122857D01*
X226575952Y-157027619D01*
X226623571Y-156980000D01*
X226718809Y-156932380D01*
X227480714Y-157932380D02*
X227480714Y-156932380D01*
X227575952Y-157551428D02*
X227861666Y-157932380D01*
X227861666Y-157265714D02*
X227480714Y-157646666D01*
X155392380Y-155424047D02*
X154916190Y-155757380D01*
X155392380Y-155995476D02*
X154392380Y-155995476D01*
X154392380Y-155614523D01*
X154440000Y-155519285D01*
X154487619Y-155471666D01*
X154582857Y-155424047D01*
X154725714Y-155424047D01*
X154820952Y-155471666D01*
X154868571Y-155519285D01*
X154916190Y-155614523D01*
X154916190Y-155995476D01*
X155392380Y-154471666D02*
X155392380Y-155043095D01*
X155392380Y-154757380D02*
X154392380Y-154757380D01*
X154535238Y-154852619D01*
X154630476Y-154947857D01*
X154678095Y-155043095D01*
X155392380Y-153519285D02*
X155392380Y-154090714D01*
X155392380Y-153805000D02*
X154392380Y-153805000D01*
X154535238Y-153900238D01*
X154630476Y-153995476D01*
X154678095Y-154090714D01*
X154392380Y-153185952D02*
X154392380Y-152566904D01*
X154773333Y-152900238D01*
X154773333Y-152757380D01*
X154820952Y-152662142D01*
X154868571Y-152614523D01*
X154963809Y-152566904D01*
X155201904Y-152566904D01*
X155297142Y-152614523D01*
X155344761Y-152662142D01*
X155392380Y-152757380D01*
X155392380Y-153043095D01*
X155344761Y-153138333D01*
X155297142Y-153185952D01*
X157297380Y-154424047D02*
X157297380Y-154995476D01*
X157297380Y-154709761D02*
X156297380Y-154709761D01*
X156440238Y-154805000D01*
X156535476Y-154900238D01*
X156583095Y-154995476D01*
X157297380Y-153995476D02*
X156297380Y-153995476D01*
X156916428Y-153900238D02*
X157297380Y-153614523D01*
X156630714Y-153614523D02*
X157011666Y-153995476D01*
X211272380Y-140184047D02*
X210796190Y-140517380D01*
X211272380Y-140755476D02*
X210272380Y-140755476D01*
X210272380Y-140374523D01*
X210320000Y-140279285D01*
X210367619Y-140231666D01*
X210462857Y-140184047D01*
X210605714Y-140184047D01*
X210700952Y-140231666D01*
X210748571Y-140279285D01*
X210796190Y-140374523D01*
X210796190Y-140755476D01*
X211272380Y-139231666D02*
X211272380Y-139803095D01*
X211272380Y-139517380D02*
X210272380Y-139517380D01*
X210415238Y-139612619D01*
X210510476Y-139707857D01*
X210558095Y-139803095D01*
X211272380Y-138279285D02*
X211272380Y-138850714D01*
X211272380Y-138565000D02*
X210272380Y-138565000D01*
X210415238Y-138660238D01*
X210510476Y-138755476D01*
X210558095Y-138850714D01*
X210272380Y-137660238D02*
X210272380Y-137565000D01*
X210320000Y-137469761D01*
X210367619Y-137422142D01*
X210462857Y-137374523D01*
X210653333Y-137326904D01*
X210891428Y-137326904D01*
X211081904Y-137374523D01*
X211177142Y-137422142D01*
X211224761Y-137469761D01*
X211272380Y-137565000D01*
X211272380Y-137660238D01*
X211224761Y-137755476D01*
X211177142Y-137803095D01*
X211081904Y-137850714D01*
X210891428Y-137898333D01*
X210653333Y-137898333D01*
X210462857Y-137850714D01*
X210367619Y-137803095D01*
X210320000Y-137755476D01*
X210272380Y-137660238D01*
X216415952Y-139517380D02*
X215844523Y-139517380D01*
X216130238Y-139517380D02*
X216130238Y-138517380D01*
X216035000Y-138660238D01*
X215939761Y-138755476D01*
X215844523Y-138803095D01*
X216844523Y-139517380D02*
X216844523Y-138517380D01*
X216939761Y-139136428D02*
X217225476Y-139517380D01*
X217225476Y-138850714D02*
X216844523Y-139231666D01*
X212240952Y-145062380D02*
X211907619Y-144586190D01*
X211669523Y-145062380D02*
X211669523Y-144062380D01*
X212050476Y-144062380D01*
X212145714Y-144110000D01*
X212193333Y-144157619D01*
X212240952Y-144252857D01*
X212240952Y-144395714D01*
X212193333Y-144490952D01*
X212145714Y-144538571D01*
X212050476Y-144586190D01*
X211669523Y-144586190D01*
X213193333Y-145062380D02*
X212621904Y-145062380D01*
X212907619Y-145062380D02*
X212907619Y-144062380D01*
X212812380Y-144205238D01*
X212717142Y-144300476D01*
X212621904Y-144348095D01*
X213812380Y-144062380D02*
X213907619Y-144062380D01*
X214002857Y-144110000D01*
X214050476Y-144157619D01*
X214098095Y-144252857D01*
X214145714Y-144443333D01*
X214145714Y-144681428D01*
X214098095Y-144871904D01*
X214050476Y-144967142D01*
X214002857Y-145014761D01*
X213907619Y-145062380D01*
X213812380Y-145062380D01*
X213717142Y-145014761D01*
X213669523Y-144967142D01*
X213621904Y-144871904D01*
X213574285Y-144681428D01*
X213574285Y-144443333D01*
X213621904Y-144252857D01*
X213669523Y-144157619D01*
X213717142Y-144110000D01*
X213812380Y-144062380D01*
X214621904Y-145062380D02*
X214812380Y-145062380D01*
X214907619Y-145014761D01*
X214955238Y-144967142D01*
X215050476Y-144824285D01*
X215098095Y-144633809D01*
X215098095Y-144252857D01*
X215050476Y-144157619D01*
X215002857Y-144110000D01*
X214907619Y-144062380D01*
X214717142Y-144062380D01*
X214621904Y-144110000D01*
X214574285Y-144157619D01*
X214526666Y-144252857D01*
X214526666Y-144490952D01*
X214574285Y-144586190D01*
X214621904Y-144633809D01*
X214717142Y-144681428D01*
X214907619Y-144681428D01*
X215002857Y-144633809D01*
X215050476Y-144586190D01*
X215098095Y-144490952D01*
X216415952Y-142692380D02*
X215844523Y-142692380D01*
X216130238Y-142692380D02*
X216130238Y-141692380D01*
X216035000Y-141835238D01*
X215939761Y-141930476D01*
X215844523Y-141978095D01*
X216844523Y-142692380D02*
X216844523Y-141692380D01*
X216939761Y-142311428D02*
X217225476Y-142692380D01*
X217225476Y-142025714D02*
X216844523Y-142406666D01*
X155392380Y-133834047D02*
X154916190Y-134167380D01*
X155392380Y-134405476D02*
X154392380Y-134405476D01*
X154392380Y-134024523D01*
X154440000Y-133929285D01*
X154487619Y-133881666D01*
X154582857Y-133834047D01*
X154725714Y-133834047D01*
X154820952Y-133881666D01*
X154868571Y-133929285D01*
X154916190Y-134024523D01*
X154916190Y-134405476D01*
X155392380Y-132881666D02*
X155392380Y-133453095D01*
X155392380Y-133167380D02*
X154392380Y-133167380D01*
X154535238Y-133262619D01*
X154630476Y-133357857D01*
X154678095Y-133453095D01*
X154392380Y-132262619D02*
X154392380Y-132167380D01*
X154440000Y-132072142D01*
X154487619Y-132024523D01*
X154582857Y-131976904D01*
X154773333Y-131929285D01*
X155011428Y-131929285D01*
X155201904Y-131976904D01*
X155297142Y-132024523D01*
X155344761Y-132072142D01*
X155392380Y-132167380D01*
X155392380Y-132262619D01*
X155344761Y-132357857D01*
X155297142Y-132405476D01*
X155201904Y-132453095D01*
X155011428Y-132500714D01*
X154773333Y-132500714D01*
X154582857Y-132453095D01*
X154487619Y-132405476D01*
X154440000Y-132357857D01*
X154392380Y-132262619D01*
X154392380Y-131595952D02*
X154392380Y-130929285D01*
X155392380Y-131357857D01*
X156297380Y-133976904D02*
X156297380Y-134167380D01*
X156345000Y-134262619D01*
X156392619Y-134310238D01*
X156535476Y-134405476D01*
X156725952Y-134453095D01*
X157106904Y-134453095D01*
X157202142Y-134405476D01*
X157249761Y-134357857D01*
X157297380Y-134262619D01*
X157297380Y-134072142D01*
X157249761Y-133976904D01*
X157202142Y-133929285D01*
X157106904Y-133881666D01*
X156868809Y-133881666D01*
X156773571Y-133929285D01*
X156725952Y-133976904D01*
X156678333Y-134072142D01*
X156678333Y-134262619D01*
X156725952Y-134357857D01*
X156773571Y-134405476D01*
X156868809Y-134453095D01*
X156725952Y-133310238D02*
X156678333Y-133405476D01*
X156630714Y-133453095D01*
X156535476Y-133500714D01*
X156487857Y-133500714D01*
X156392619Y-133453095D01*
X156345000Y-133405476D01*
X156297380Y-133310238D01*
X156297380Y-133119761D01*
X156345000Y-133024523D01*
X156392619Y-132976904D01*
X156487857Y-132929285D01*
X156535476Y-132929285D01*
X156630714Y-132976904D01*
X156678333Y-133024523D01*
X156725952Y-133119761D01*
X156725952Y-133310238D01*
X156773571Y-133405476D01*
X156821190Y-133453095D01*
X156916428Y-133500714D01*
X157106904Y-133500714D01*
X157202142Y-133453095D01*
X157249761Y-133405476D01*
X157297380Y-133310238D01*
X157297380Y-133119761D01*
X157249761Y-133024523D01*
X157202142Y-132976904D01*
X157106904Y-132929285D01*
X156916428Y-132929285D01*
X156821190Y-132976904D01*
X156773571Y-133024523D01*
X156725952Y-133119761D01*
X156297380Y-132310238D02*
X156297380Y-132215000D01*
X156345000Y-132119761D01*
X156392619Y-132072142D01*
X156487857Y-132024523D01*
X156678333Y-131976904D01*
X156916428Y-131976904D01*
X157106904Y-132024523D01*
X157202142Y-132072142D01*
X157249761Y-132119761D01*
X157297380Y-132215000D01*
X157297380Y-132310238D01*
X157249761Y-132405476D01*
X157202142Y-132453095D01*
X157106904Y-132500714D01*
X156916428Y-132548333D01*
X156678333Y-132548333D01*
X156487857Y-132500714D01*
X156392619Y-132453095D01*
X156345000Y-132405476D01*
X156297380Y-132310238D01*
X157297380Y-130976904D02*
X156821190Y-131310238D01*
X157297380Y-131548333D02*
X156297380Y-131548333D01*
X156297380Y-131167380D01*
X156345000Y-131072142D01*
X156392619Y-131024523D01*
X156487857Y-130976904D01*
X156630714Y-130976904D01*
X156725952Y-131024523D01*
X156773571Y-131072142D01*
X156821190Y-131167380D01*
X156821190Y-131548333D01*
X226663333Y-143327380D02*
X226187142Y-143327380D01*
X226187142Y-142327380D01*
X226996666Y-143327380D02*
X226996666Y-142327380D01*
X227568095Y-143327380D02*
X227139523Y-142755952D01*
X227568095Y-142327380D02*
X226996666Y-142898809D01*
X227901428Y-142327380D02*
X228520476Y-142327380D01*
X228187142Y-142708333D01*
X228330000Y-142708333D01*
X228425238Y-142755952D01*
X228472857Y-142803571D01*
X228520476Y-142898809D01*
X228520476Y-143136904D01*
X228472857Y-143232142D01*
X228425238Y-143279761D01*
X228330000Y-143327380D01*
X228044285Y-143327380D01*
X227949047Y-143279761D01*
X227901428Y-143232142D01*
X226663333Y-139517380D02*
X226187142Y-139517380D01*
X226187142Y-138517380D01*
X226996666Y-139517380D02*
X226996666Y-138517380D01*
X227568095Y-139517380D02*
X227139523Y-138945952D01*
X227568095Y-138517380D02*
X226996666Y-139088809D01*
X227949047Y-138612619D02*
X227996666Y-138565000D01*
X228091904Y-138517380D01*
X228330000Y-138517380D01*
X228425238Y-138565000D01*
X228472857Y-138612619D01*
X228520476Y-138707857D01*
X228520476Y-138803095D01*
X228472857Y-138945952D01*
X227901428Y-139517380D01*
X228520476Y-139517380D01*
X231592380Y-134008571D02*
X230592380Y-134008571D01*
X231497142Y-132960952D02*
X231544761Y-133008571D01*
X231592380Y-133151428D01*
X231592380Y-133246666D01*
X231544761Y-133389523D01*
X231449523Y-133484761D01*
X231354285Y-133532380D01*
X231163809Y-133580000D01*
X231020952Y-133580000D01*
X230830476Y-133532380D01*
X230735238Y-133484761D01*
X230640000Y-133389523D01*
X230592380Y-133246666D01*
X230592380Y-133151428D01*
X230640000Y-133008571D01*
X230687619Y-132960952D01*
X230687619Y-132580000D02*
X230640000Y-132532380D01*
X230592380Y-132437142D01*
X230592380Y-132199047D01*
X230640000Y-132103809D01*
X230687619Y-132056190D01*
X230782857Y-132008571D01*
X230878095Y-132008571D01*
X231020952Y-132056190D01*
X231592380Y-132627619D01*
X231592380Y-132008571D01*
X230592380Y-131389523D02*
X230592380Y-131294285D01*
X230640000Y-131199047D01*
X230687619Y-131151428D01*
X230782857Y-131103809D01*
X230973333Y-131056190D01*
X231211428Y-131056190D01*
X231401904Y-131103809D01*
X231497142Y-131151428D01*
X231544761Y-131199047D01*
X231592380Y-131294285D01*
X231592380Y-131389523D01*
X231544761Y-131484761D01*
X231497142Y-131532380D01*
X231401904Y-131580000D01*
X231211428Y-131627619D01*
X230973333Y-131627619D01*
X230782857Y-131580000D01*
X230687619Y-131532380D01*
X230640000Y-131484761D01*
X230592380Y-131389523D01*
X231020952Y-130484761D02*
X230973333Y-130580000D01*
X230925714Y-130627619D01*
X230830476Y-130675238D01*
X230782857Y-130675238D01*
X230687619Y-130627619D01*
X230640000Y-130580000D01*
X230592380Y-130484761D01*
X230592380Y-130294285D01*
X230640000Y-130199047D01*
X230687619Y-130151428D01*
X230782857Y-130103809D01*
X230830476Y-130103809D01*
X230925714Y-130151428D01*
X230973333Y-130199047D01*
X231020952Y-130294285D01*
X231020952Y-130484761D01*
X231068571Y-130580000D01*
X231116190Y-130627619D01*
X231211428Y-130675238D01*
X231401904Y-130675238D01*
X231497142Y-130627619D01*
X231544761Y-130580000D01*
X231592380Y-130484761D01*
X231592380Y-130294285D01*
X231544761Y-130199047D01*
X231497142Y-130151428D01*
X231401904Y-130103809D01*
X231211428Y-130103809D01*
X231116190Y-130151428D01*
X231068571Y-130199047D01*
X231020952Y-130294285D01*
X218337142Y-131532380D02*
X219003809Y-131532380D01*
X218575238Y-132532380D01*
X219813333Y-131865714D02*
X219813333Y-132532380D01*
X219575238Y-131484761D02*
X219337142Y-132199047D01*
X219956190Y-132199047D01*
X220813333Y-132532380D02*
X220337142Y-132532380D01*
X220337142Y-131532380D01*
X221099047Y-132484761D02*
X221241904Y-132532380D01*
X221480000Y-132532380D01*
X221575238Y-132484761D01*
X221622857Y-132437142D01*
X221670476Y-132341904D01*
X221670476Y-132246666D01*
X221622857Y-132151428D01*
X221575238Y-132103809D01*
X221480000Y-132056190D01*
X221289523Y-132008571D01*
X221194285Y-131960952D01*
X221146666Y-131913333D01*
X221099047Y-131818095D01*
X221099047Y-131722857D01*
X221146666Y-131627619D01*
X221194285Y-131580000D01*
X221289523Y-131532380D01*
X221527619Y-131532380D01*
X221670476Y-131580000D01*
X222003809Y-131532380D02*
X222622857Y-131532380D01*
X222289523Y-131913333D01*
X222432380Y-131913333D01*
X222527619Y-131960952D01*
X222575238Y-132008571D01*
X222622857Y-132103809D01*
X222622857Y-132341904D01*
X222575238Y-132437142D01*
X222527619Y-132484761D01*
X222432380Y-132532380D01*
X222146666Y-132532380D01*
X222051428Y-132484761D01*
X222003809Y-132437142D01*
X223194285Y-131960952D02*
X223099047Y-131913333D01*
X223051428Y-131865714D01*
X223003809Y-131770476D01*
X223003809Y-131722857D01*
X223051428Y-131627619D01*
X223099047Y-131580000D01*
X223194285Y-131532380D01*
X223384761Y-131532380D01*
X223480000Y-131580000D01*
X223527619Y-131627619D01*
X223575238Y-131722857D01*
X223575238Y-131770476D01*
X223527619Y-131865714D01*
X223480000Y-131913333D01*
X223384761Y-131960952D01*
X223194285Y-131960952D01*
X223099047Y-132008571D01*
X223051428Y-132056190D01*
X223003809Y-132151428D01*
X223003809Y-132341904D01*
X223051428Y-132437142D01*
X223099047Y-132484761D01*
X223194285Y-132532380D01*
X223384761Y-132532380D01*
X223480000Y-132484761D01*
X223527619Y-132437142D01*
X223575238Y-132341904D01*
X223575238Y-132151428D01*
X223527619Y-132056190D01*
X223480000Y-132008571D01*
X223384761Y-131960952D01*
X159361428Y-159202380D02*
X159361428Y-158202380D01*
X160409047Y-159107142D02*
X160361428Y-159154761D01*
X160218571Y-159202380D01*
X160123333Y-159202380D01*
X159980476Y-159154761D01*
X159885238Y-159059523D01*
X159837619Y-158964285D01*
X159790000Y-158773809D01*
X159790000Y-158630952D01*
X159837619Y-158440476D01*
X159885238Y-158345238D01*
X159980476Y-158250000D01*
X160123333Y-158202380D01*
X160218571Y-158202380D01*
X160361428Y-158250000D01*
X160409047Y-158297619D01*
X160790000Y-158297619D02*
X160837619Y-158250000D01*
X160932857Y-158202380D01*
X161170952Y-158202380D01*
X161266190Y-158250000D01*
X161313809Y-158297619D01*
X161361428Y-158392857D01*
X161361428Y-158488095D01*
X161313809Y-158630952D01*
X160742380Y-159202380D01*
X161361428Y-159202380D01*
X161980476Y-158202380D02*
X162075714Y-158202380D01*
X162170952Y-158250000D01*
X162218571Y-158297619D01*
X162266190Y-158392857D01*
X162313809Y-158583333D01*
X162313809Y-158821428D01*
X162266190Y-159011904D01*
X162218571Y-159107142D01*
X162170952Y-159154761D01*
X162075714Y-159202380D01*
X161980476Y-159202380D01*
X161885238Y-159154761D01*
X161837619Y-159107142D01*
X161790000Y-159011904D01*
X161742380Y-158821428D01*
X161742380Y-158583333D01*
X161790000Y-158392857D01*
X161837619Y-158297619D01*
X161885238Y-158250000D01*
X161980476Y-158202380D01*
X162647142Y-158202380D02*
X163313809Y-158202380D01*
X162885238Y-159202380D01*
X165632142Y-151852380D02*
X166298809Y-151852380D01*
X165870238Y-152852380D01*
X167108333Y-152185714D02*
X167108333Y-152852380D01*
X166870238Y-151804761D02*
X166632142Y-152519047D01*
X167251190Y-152519047D01*
X168108333Y-152852380D02*
X167632142Y-152852380D01*
X167632142Y-151852380D01*
X168394047Y-152804761D02*
X168536904Y-152852380D01*
X168775000Y-152852380D01*
X168870238Y-152804761D01*
X168917857Y-152757142D01*
X168965476Y-152661904D01*
X168965476Y-152566666D01*
X168917857Y-152471428D01*
X168870238Y-152423809D01*
X168775000Y-152376190D01*
X168584523Y-152328571D01*
X168489285Y-152280952D01*
X168441666Y-152233333D01*
X168394047Y-152138095D01*
X168394047Y-152042857D01*
X168441666Y-151947619D01*
X168489285Y-151900000D01*
X168584523Y-151852380D01*
X168822619Y-151852380D01*
X168965476Y-151900000D01*
X169298809Y-151852380D02*
X169917857Y-151852380D01*
X169584523Y-152233333D01*
X169727380Y-152233333D01*
X169822619Y-152280952D01*
X169870238Y-152328571D01*
X169917857Y-152423809D01*
X169917857Y-152661904D01*
X169870238Y-152757142D01*
X169822619Y-152804761D01*
X169727380Y-152852380D01*
X169441666Y-152852380D01*
X169346428Y-152804761D01*
X169298809Y-152757142D01*
X170298809Y-151947619D02*
X170346428Y-151900000D01*
X170441666Y-151852380D01*
X170679761Y-151852380D01*
X170775000Y-151900000D01*
X170822619Y-151947619D01*
X170870238Y-152042857D01*
X170870238Y-152138095D01*
X170822619Y-152280952D01*
X170251190Y-152852380D01*
X170870238Y-152852380D01*
X207037380Y-114958571D02*
X206037380Y-114958571D01*
X206942142Y-113910952D02*
X206989761Y-113958571D01*
X207037380Y-114101428D01*
X207037380Y-114196666D01*
X206989761Y-114339523D01*
X206894523Y-114434761D01*
X206799285Y-114482380D01*
X206608809Y-114530000D01*
X206465952Y-114530000D01*
X206275476Y-114482380D01*
X206180238Y-114434761D01*
X206085000Y-114339523D01*
X206037380Y-114196666D01*
X206037380Y-114101428D01*
X206085000Y-113958571D01*
X206132619Y-113910952D01*
X206132619Y-113530000D02*
X206085000Y-113482380D01*
X206037380Y-113387142D01*
X206037380Y-113149047D01*
X206085000Y-113053809D01*
X206132619Y-113006190D01*
X206227857Y-112958571D01*
X206323095Y-112958571D01*
X206465952Y-113006190D01*
X207037380Y-113577619D01*
X207037380Y-112958571D01*
X206037380Y-112339523D02*
X206037380Y-112244285D01*
X206085000Y-112149047D01*
X206132619Y-112101428D01*
X206227857Y-112053809D01*
X206418333Y-112006190D01*
X206656428Y-112006190D01*
X206846904Y-112053809D01*
X206942142Y-112101428D01*
X206989761Y-112149047D01*
X207037380Y-112244285D01*
X207037380Y-112339523D01*
X206989761Y-112434761D01*
X206942142Y-112482380D01*
X206846904Y-112530000D01*
X206656428Y-112577619D01*
X206418333Y-112577619D01*
X206227857Y-112530000D01*
X206132619Y-112482380D01*
X206085000Y-112434761D01*
X206037380Y-112339523D01*
X206037380Y-111149047D02*
X206037380Y-111339523D01*
X206085000Y-111434761D01*
X206132619Y-111482380D01*
X206275476Y-111577619D01*
X206465952Y-111625238D01*
X206846904Y-111625238D01*
X206942142Y-111577619D01*
X206989761Y-111530000D01*
X207037380Y-111434761D01*
X207037380Y-111244285D01*
X206989761Y-111149047D01*
X206942142Y-111101428D01*
X206846904Y-111053809D01*
X206608809Y-111053809D01*
X206513571Y-111101428D01*
X206465952Y-111149047D01*
X206418333Y-111244285D01*
X206418333Y-111434761D01*
X206465952Y-111530000D01*
X206513571Y-111577619D01*
X206608809Y-111625238D01*
X213892142Y-109942380D02*
X214558809Y-109942380D01*
X214130238Y-110942380D01*
X215368333Y-110275714D02*
X215368333Y-110942380D01*
X215130238Y-109894761D02*
X214892142Y-110609047D01*
X215511190Y-110609047D01*
X216368333Y-110942380D02*
X215892142Y-110942380D01*
X215892142Y-109942380D01*
X216654047Y-110894761D02*
X216796904Y-110942380D01*
X217035000Y-110942380D01*
X217130238Y-110894761D01*
X217177857Y-110847142D01*
X217225476Y-110751904D01*
X217225476Y-110656666D01*
X217177857Y-110561428D01*
X217130238Y-110513809D01*
X217035000Y-110466190D01*
X216844523Y-110418571D01*
X216749285Y-110370952D01*
X216701666Y-110323333D01*
X216654047Y-110228095D01*
X216654047Y-110132857D01*
X216701666Y-110037619D01*
X216749285Y-109990000D01*
X216844523Y-109942380D01*
X217082619Y-109942380D01*
X217225476Y-109990000D01*
X217558809Y-109942380D02*
X218177857Y-109942380D01*
X217844523Y-110323333D01*
X217987380Y-110323333D01*
X218082619Y-110370952D01*
X218130238Y-110418571D01*
X218177857Y-110513809D01*
X218177857Y-110751904D01*
X218130238Y-110847142D01*
X218082619Y-110894761D01*
X217987380Y-110942380D01*
X217701666Y-110942380D01*
X217606428Y-110894761D01*
X217558809Y-110847142D01*
X218749285Y-110370952D02*
X218654047Y-110323333D01*
X218606428Y-110275714D01*
X218558809Y-110180476D01*
X218558809Y-110132857D01*
X218606428Y-110037619D01*
X218654047Y-109990000D01*
X218749285Y-109942380D01*
X218939761Y-109942380D01*
X219035000Y-109990000D01*
X219082619Y-110037619D01*
X219130238Y-110132857D01*
X219130238Y-110180476D01*
X219082619Y-110275714D01*
X219035000Y-110323333D01*
X218939761Y-110370952D01*
X218749285Y-110370952D01*
X218654047Y-110418571D01*
X218606428Y-110466190D01*
X218558809Y-110561428D01*
X218558809Y-110751904D01*
X218606428Y-110847142D01*
X218654047Y-110894761D01*
X218749285Y-110942380D01*
X218939761Y-110942380D01*
X219035000Y-110894761D01*
X219082619Y-110847142D01*
X219130238Y-110751904D01*
X219130238Y-110561428D01*
X219082619Y-110466190D01*
X219035000Y-110418571D01*
X218939761Y-110370952D01*
X200636428Y-129567380D02*
X200636428Y-128567380D01*
X201684047Y-129472142D02*
X201636428Y-129519761D01*
X201493571Y-129567380D01*
X201398333Y-129567380D01*
X201255476Y-129519761D01*
X201160238Y-129424523D01*
X201112619Y-129329285D01*
X201065000Y-129138809D01*
X201065000Y-128995952D01*
X201112619Y-128805476D01*
X201160238Y-128710238D01*
X201255476Y-128615000D01*
X201398333Y-128567380D01*
X201493571Y-128567380D01*
X201636428Y-128615000D01*
X201684047Y-128662619D01*
X202065000Y-128662619D02*
X202112619Y-128615000D01*
X202207857Y-128567380D01*
X202445952Y-128567380D01*
X202541190Y-128615000D01*
X202588809Y-128662619D01*
X202636428Y-128757857D01*
X202636428Y-128853095D01*
X202588809Y-128995952D01*
X202017380Y-129567380D01*
X202636428Y-129567380D01*
X203255476Y-128567380D02*
X203350714Y-128567380D01*
X203445952Y-128615000D01*
X203493571Y-128662619D01*
X203541190Y-128757857D01*
X203588809Y-128948333D01*
X203588809Y-129186428D01*
X203541190Y-129376904D01*
X203493571Y-129472142D01*
X203445952Y-129519761D01*
X203350714Y-129567380D01*
X203255476Y-129567380D01*
X203160238Y-129519761D01*
X203112619Y-129472142D01*
X203065000Y-129376904D01*
X203017380Y-129186428D01*
X203017380Y-128948333D01*
X203065000Y-128757857D01*
X203112619Y-128662619D01*
X203160238Y-128615000D01*
X203255476Y-128567380D01*
X203969761Y-128662619D02*
X204017380Y-128615000D01*
X204112619Y-128567380D01*
X204350714Y-128567380D01*
X204445952Y-128615000D01*
X204493571Y-128662619D01*
X204541190Y-128757857D01*
X204541190Y-128853095D01*
X204493571Y-128995952D01*
X203922142Y-129567380D01*
X204541190Y-129567380D01*
X205033571Y-145636904D02*
X205033571Y-145970238D01*
X205557380Y-145970238D02*
X204557380Y-145970238D01*
X204557380Y-145494047D01*
X205557380Y-145113095D02*
X204557380Y-145113095D01*
X204557380Y-144875000D01*
X204605000Y-144732142D01*
X204700238Y-144636904D01*
X204795476Y-144589285D01*
X204985952Y-144541666D01*
X205128809Y-144541666D01*
X205319285Y-144589285D01*
X205414523Y-144636904D01*
X205509761Y-144732142D01*
X205557380Y-144875000D01*
X205557380Y-145113095D01*
X205462142Y-143541666D02*
X205509761Y-143589285D01*
X205557380Y-143732142D01*
X205557380Y-143827380D01*
X205509761Y-143970238D01*
X205414523Y-144065476D01*
X205319285Y-144113095D01*
X205128809Y-144160714D01*
X204985952Y-144160714D01*
X204795476Y-144113095D01*
X204700238Y-144065476D01*
X204605000Y-143970238D01*
X204557380Y-143827380D01*
X204557380Y-143732142D01*
X204605000Y-143589285D01*
X204652619Y-143541666D01*
X205557380Y-143065476D02*
X205557380Y-142875000D01*
X205509761Y-142779761D01*
X205462142Y-142732142D01*
X205319285Y-142636904D01*
X205128809Y-142589285D01*
X204747857Y-142589285D01*
X204652619Y-142636904D01*
X204605000Y-142684523D01*
X204557380Y-142779761D01*
X204557380Y-142970238D01*
X204605000Y-143065476D01*
X204652619Y-143113095D01*
X204747857Y-143160714D01*
X204985952Y-143160714D01*
X205081190Y-143113095D01*
X205128809Y-143065476D01*
X205176428Y-142970238D01*
X205176428Y-142779761D01*
X205128809Y-142684523D01*
X205081190Y-142636904D01*
X204985952Y-142589285D01*
X204652619Y-142208333D02*
X204605000Y-142160714D01*
X204557380Y-142065476D01*
X204557380Y-141827380D01*
X204605000Y-141732142D01*
X204652619Y-141684523D01*
X204747857Y-141636904D01*
X204843095Y-141636904D01*
X204985952Y-141684523D01*
X205557380Y-142255952D01*
X205557380Y-141636904D01*
X204652619Y-141255952D02*
X204605000Y-141208333D01*
X204557380Y-141113095D01*
X204557380Y-140875000D01*
X204605000Y-140779761D01*
X204652619Y-140732142D01*
X204747857Y-140684523D01*
X204843095Y-140684523D01*
X204985952Y-140732142D01*
X205557380Y-141303571D01*
X205557380Y-140684523D01*
X205557380Y-140208333D02*
X205557380Y-140017857D01*
X205509761Y-139922619D01*
X205462142Y-139875000D01*
X205319285Y-139779761D01*
X205128809Y-139732142D01*
X204747857Y-139732142D01*
X204652619Y-139779761D01*
X204605000Y-139827380D01*
X204557380Y-139922619D01*
X204557380Y-140113095D01*
X204605000Y-140208333D01*
X204652619Y-140255952D01*
X204747857Y-140303571D01*
X204985952Y-140303571D01*
X205081190Y-140255952D01*
X205128809Y-140208333D01*
X205176428Y-140113095D01*
X205176428Y-139922619D01*
X205128809Y-139827380D01*
X205081190Y-139779761D01*
X204985952Y-139732142D01*
X180792380Y-108608571D02*
X179792380Y-108608571D01*
X180697142Y-107560952D02*
X180744761Y-107608571D01*
X180792380Y-107751428D01*
X180792380Y-107846666D01*
X180744761Y-107989523D01*
X180649523Y-108084761D01*
X180554285Y-108132380D01*
X180363809Y-108180000D01*
X180220952Y-108180000D01*
X180030476Y-108132380D01*
X179935238Y-108084761D01*
X179840000Y-107989523D01*
X179792380Y-107846666D01*
X179792380Y-107751428D01*
X179840000Y-107608571D01*
X179887619Y-107560952D01*
X179887619Y-107180000D02*
X179840000Y-107132380D01*
X179792380Y-107037142D01*
X179792380Y-106799047D01*
X179840000Y-106703809D01*
X179887619Y-106656190D01*
X179982857Y-106608571D01*
X180078095Y-106608571D01*
X180220952Y-106656190D01*
X180792380Y-107227619D01*
X180792380Y-106608571D01*
X179792380Y-105989523D02*
X179792380Y-105894285D01*
X179840000Y-105799047D01*
X179887619Y-105751428D01*
X179982857Y-105703809D01*
X180173333Y-105656190D01*
X180411428Y-105656190D01*
X180601904Y-105703809D01*
X180697142Y-105751428D01*
X180744761Y-105799047D01*
X180792380Y-105894285D01*
X180792380Y-105989523D01*
X180744761Y-106084761D01*
X180697142Y-106132380D01*
X180601904Y-106180000D01*
X180411428Y-106227619D01*
X180173333Y-106227619D01*
X179982857Y-106180000D01*
X179887619Y-106132380D01*
X179840000Y-106084761D01*
X179792380Y-105989523D01*
X180792380Y-104703809D02*
X180792380Y-105275238D01*
X180792380Y-104989523D02*
X179792380Y-104989523D01*
X179935238Y-105084761D01*
X180030476Y-105180000D01*
X180078095Y-105275238D01*
X189952380Y-133817857D02*
X190761904Y-133817857D01*
X190857142Y-133770238D01*
X190904761Y-133722619D01*
X190952380Y-133627380D01*
X190952380Y-133436904D01*
X190904761Y-133341666D01*
X190857142Y-133294047D01*
X190761904Y-133246428D01*
X189952380Y-133246428D01*
X190952380Y-132770238D02*
X189952380Y-132770238D01*
X189952380Y-132389285D01*
X190000000Y-132294047D01*
X190047619Y-132246428D01*
X190142857Y-132198809D01*
X190285714Y-132198809D01*
X190380952Y-132246428D01*
X190428571Y-132294047D01*
X190476190Y-132389285D01*
X190476190Y-132770238D01*
X190952380Y-131770238D02*
X189952380Y-131770238D01*
X189952380Y-131532142D01*
X190000000Y-131389285D01*
X190095238Y-131294047D01*
X190190476Y-131246428D01*
X190380952Y-131198809D01*
X190523809Y-131198809D01*
X190714285Y-131246428D01*
X190809523Y-131294047D01*
X190904761Y-131389285D01*
X190952380Y-131532142D01*
X190952380Y-131770238D01*
X189952380Y-130865476D02*
X189952380Y-130198809D01*
X190952380Y-130627380D01*
X189952380Y-129389285D02*
X189952380Y-129579761D01*
X190000000Y-129675000D01*
X190047619Y-129722619D01*
X190190476Y-129817857D01*
X190380952Y-129865476D01*
X190761904Y-129865476D01*
X190857142Y-129817857D01*
X190904761Y-129770238D01*
X190952380Y-129675000D01*
X190952380Y-129484523D01*
X190904761Y-129389285D01*
X190857142Y-129341666D01*
X190761904Y-129294047D01*
X190523809Y-129294047D01*
X190428571Y-129341666D01*
X190380952Y-129389285D01*
X190333333Y-129484523D01*
X190333333Y-129675000D01*
X190380952Y-129770238D01*
X190428571Y-129817857D01*
X190523809Y-129865476D01*
X189952380Y-128389285D02*
X189952380Y-128865476D01*
X190428571Y-128913095D01*
X190380952Y-128865476D01*
X190333333Y-128770238D01*
X190333333Y-128532142D01*
X190380952Y-128436904D01*
X190428571Y-128389285D01*
X190523809Y-128341666D01*
X190761904Y-128341666D01*
X190857142Y-128389285D01*
X190904761Y-128436904D01*
X190952380Y-128532142D01*
X190952380Y-128770238D01*
X190904761Y-128865476D01*
X190857142Y-128913095D01*
X190666666Y-127960714D02*
X190666666Y-127484523D01*
X190952380Y-128055952D02*
X189952380Y-127722619D01*
X190952380Y-127389285D01*
X190857142Y-126484523D02*
X190904761Y-126532142D01*
X190952380Y-126675000D01*
X190952380Y-126770238D01*
X190904761Y-126913095D01*
X190809523Y-127008333D01*
X190714285Y-127055952D01*
X190523809Y-127103571D01*
X190380952Y-127103571D01*
X190190476Y-127055952D01*
X190095238Y-127008333D01*
X190000000Y-126913095D01*
X189952380Y-126770238D01*
X189952380Y-126675000D01*
X190000000Y-126532142D01*
X190047619Y-126484523D01*
X155932142Y-106826666D02*
X155979761Y-106874285D01*
X156027380Y-107017142D01*
X156027380Y-107112380D01*
X155979761Y-107255238D01*
X155884523Y-107350476D01*
X155789285Y-107398095D01*
X155598809Y-107445714D01*
X155455952Y-107445714D01*
X155265476Y-107398095D01*
X155170238Y-107350476D01*
X155075000Y-107255238D01*
X155027380Y-107112380D01*
X155027380Y-107017142D01*
X155075000Y-106874285D01*
X155122619Y-106826666D01*
X155360714Y-105969523D02*
X156027380Y-105969523D01*
X154979761Y-106207619D02*
X155694047Y-106445714D01*
X155694047Y-105826666D01*
X155408333Y-112117142D02*
X155360714Y-112164761D01*
X155217857Y-112212380D01*
X155122619Y-112212380D01*
X154979761Y-112164761D01*
X154884523Y-112069523D01*
X154836904Y-111974285D01*
X154789285Y-111783809D01*
X154789285Y-111640952D01*
X154836904Y-111450476D01*
X154884523Y-111355238D01*
X154979761Y-111260000D01*
X155122619Y-111212380D01*
X155217857Y-111212380D01*
X155360714Y-111260000D01*
X155408333Y-111307619D01*
X155741666Y-111212380D02*
X156360714Y-111212380D01*
X156027380Y-111593333D01*
X156170238Y-111593333D01*
X156265476Y-111640952D01*
X156313095Y-111688571D01*
X156360714Y-111783809D01*
X156360714Y-112021904D01*
X156313095Y-112117142D01*
X156265476Y-112164761D01*
X156170238Y-112212380D01*
X155884523Y-112212380D01*
X155789285Y-112164761D01*
X155741666Y-112117142D01*
X156678333Y-141327142D02*
X156630714Y-141374761D01*
X156487857Y-141422380D01*
X156392619Y-141422380D01*
X156249761Y-141374761D01*
X156154523Y-141279523D01*
X156106904Y-141184285D01*
X156059285Y-140993809D01*
X156059285Y-140850952D01*
X156106904Y-140660476D01*
X156154523Y-140565238D01*
X156249761Y-140470000D01*
X156392619Y-140422380D01*
X156487857Y-140422380D01*
X156630714Y-140470000D01*
X156678333Y-140517619D01*
X157059285Y-140517619D02*
X157106904Y-140470000D01*
X157202142Y-140422380D01*
X157440238Y-140422380D01*
X157535476Y-140470000D01*
X157583095Y-140517619D01*
X157630714Y-140612857D01*
X157630714Y-140708095D01*
X157583095Y-140850952D01*
X157011666Y-141422380D01*
X157630714Y-141422380D01*
X155297142Y-150371666D02*
X155344761Y-150419285D01*
X155392380Y-150562142D01*
X155392380Y-150657380D01*
X155344761Y-150800238D01*
X155249523Y-150895476D01*
X155154285Y-150943095D01*
X154963809Y-150990714D01*
X154820952Y-150990714D01*
X154630476Y-150943095D01*
X154535238Y-150895476D01*
X154440000Y-150800238D01*
X154392380Y-150657380D01*
X154392380Y-150562142D01*
X154440000Y-150419285D01*
X154487619Y-150371666D01*
X155392380Y-149419285D02*
X155392380Y-149990714D01*
X155392380Y-149705000D02*
X154392380Y-149705000D01*
X154535238Y-149800238D01*
X154630476Y-149895476D01*
X154678095Y-149990714D01*
M02*
