M48
INCH,TZ
T1C0.0157
T2C0.0295
T3C0.0315
T4C0.0354
T5C0.0394
T6C0.0591
%
G90
G05
T1
X66350Y-60250
X66800Y-42250
X67250Y-62750
X67750Y-50550
X68750Y-62000
X70250Y-41250
X77150Y-50300
X77150Y-61700
X78700Y-45900
X80050Y-54250
X80600Y-52550
X81100Y-51100
X81550Y-51500
X84558Y-48193
X84600Y-55450
X85900Y-56450
X86450Y-51600
X89150Y-56850
X95537Y-57037
T2
X85500Y-58000
X85500Y-60250
X86000Y-57500
X86000Y-58500
X86000Y-59750
X86000Y-60750
T3
X61250Y-44750
X61250Y-49734
X61266Y-54750
X61266Y-57250
X61266Y-58250
X61750Y-45750
X61750Y-48750
X61750Y-50750
X61750Y-53750
X61750Y-59250
X61750Y-62250
X62000Y-41500
X62000Y-42484
X62234Y-44750
X62234Y-49734
X62250Y-54750
X62250Y-57250
X62250Y-58250
X63250Y-41500
X63250Y-44500
X63250Y-45750
X63250Y-48750
X63250Y-50000
X63250Y-53000
X63250Y-54250
X63250Y-57250
X63250Y-58500
X63250Y-61500
X64250Y-41500
X64250Y-44500
X64250Y-45750
X64250Y-48750
X64250Y-50000
X64250Y-53000
X64250Y-54250
X64250Y-57250
X64250Y-58500
X64250Y-61500
X65250Y-41500
X65250Y-44500
X65250Y-45750
X65250Y-48750
X65250Y-50000
X65250Y-53000
X65250Y-54250
X65250Y-57250
X65250Y-58500
X65250Y-61500
X66250Y-41500
X66250Y-44500
X66250Y-45750
X66250Y-48750
X66250Y-50000
X66250Y-53000
X66250Y-54250
X66250Y-57250
X66250Y-58500
X66250Y-61500
X67250Y-41500
X67250Y-44500
X67250Y-45750
X67250Y-48750
X67250Y-50000
X67250Y-53000
X67250Y-54250
X67250Y-57250
X67250Y-58500
X67250Y-61500
X68250Y-41500
X68250Y-44500
X68250Y-45750
X68250Y-48750
X68250Y-50000
X68250Y-53000
X68250Y-54250
X68250Y-57250
X68250Y-58500
X68250Y-61500
X69250Y-41500
X69250Y-44500
X69250Y-45750
X69250Y-48750
X69250Y-50000
X69250Y-53000
X69250Y-54250
X69250Y-57250
X69250Y-58500
X69250Y-61500
X70750Y-55750
X70750Y-58750
X72000Y-41750
X72000Y-42750
X72000Y-43750
X72000Y-44750
X72000Y-45750
X72000Y-46750
X72000Y-47750
X72000Y-48750
X72000Y-49750
X72000Y-50750
X72000Y-51750
X72000Y-52750
X72000Y-53750
X72000Y-54750
X72000Y-55750
X72000Y-56750
X72000Y-57750
X72000Y-58750
X72000Y-59750
X72000Y-60750
X78000Y-41750
X78000Y-42750
X78000Y-43750
X78000Y-44750
X78000Y-45750
X78000Y-46750
X78000Y-47750
X78000Y-48750
X78000Y-49750
X78000Y-50750
X78000Y-51750
X78000Y-52750
X78000Y-53750
X78000Y-54750
X78000Y-55750
X78000Y-56750
X78000Y-57750
X78000Y-58750
X78000Y-59750
X78000Y-60750
X79250Y-51750
X79250Y-52750
X79250Y-53750
X79250Y-54750
X79250Y-55750
X79250Y-56750
X79250Y-57750
X79250Y-58750
X79250Y-59750
X79250Y-60750
X79500Y-42000
X79500Y-45000
X80750Y-42000
X80750Y-42984
X81000Y-46266
X81000Y-47250
X81250Y-50516
X82234Y-50516
X82250Y-42000
X82250Y-45000
X82250Y-46250
X82250Y-49250
X82250Y-51750
X82250Y-52750
X82250Y-53750
X82250Y-54750
X82250Y-55750
X82250Y-56750
X82250Y-57750
X82250Y-58750
X82250Y-59750
X82250Y-60750
X83250Y-42000
X83250Y-45000
X83250Y-46250
X83250Y-49250
X83500Y-62000
X83750Y-54750
X83750Y-56000
X84000Y-50500
X84000Y-53500
X84250Y-42000
X84250Y-45000
X84250Y-46250
X84250Y-49250
X85000Y-50500
X85000Y-53500
X85250Y-42000
X85250Y-45000
X85250Y-46250
X85250Y-49250
X86000Y-50500
X86000Y-53500
X86250Y-42000
X86250Y-45000
X86250Y-46250
X86250Y-49250
X86500Y-62000
X86750Y-54750
X86750Y-56000
X87000Y-50500
X87000Y-53500
X87250Y-42000
X87250Y-45000
X87250Y-46250
X87250Y-49250
X87750Y-58250
X87750Y-59500
X87750Y-60750
X87750Y-62000
X88000Y-50500
X88000Y-53500
X88250Y-42000
X88250Y-45000
X88250Y-46250
X88250Y-49250
X89000Y-50500
X89000Y-53500
X90000Y-44000
X90000Y-45000
X90000Y-46000
X90000Y-47000
X90000Y-48000
X90000Y-49000
X90000Y-50500
X90000Y-53500
X90750Y-58250
X90750Y-59500
X90750Y-60750
X90750Y-62000
T4
X93925Y-42000
X94713Y-42000
X95500Y-42000
T5
X62500Y-63750
X62500Y-64750
X63500Y-63750
X63500Y-64750
X64500Y-63750
X64500Y-64750
X65500Y-63750
X65500Y-64750
X66500Y-63750
X66500Y-64750
X67500Y-63750
X67500Y-64750
X68500Y-63750
X68500Y-64750
X69500Y-63750
X69500Y-64750
X70500Y-63750
X70500Y-64750
X71500Y-63750
X71500Y-64750
X72500Y-63750
X72500Y-64750
X73500Y-63750
X73500Y-64750
X74500Y-63750
X74500Y-64750
X75500Y-63750
X75500Y-64750
X76500Y-63750
X76500Y-64750
X77500Y-63750
X77500Y-64750
X78500Y-63750
X78500Y-64750
X79500Y-63750
X79500Y-64750
X80500Y-63750
X80500Y-64750
X81500Y-63750
X81500Y-64750
X82500Y-63750
X82500Y-64750
X83500Y-63750
X83500Y-64750
X84500Y-63750
X84500Y-64750
X85500Y-63750
X85500Y-64750
X86500Y-63750
X86500Y-64750
X93000Y-46500
X93000Y-47500
X93000Y-48500
X93000Y-49500
X93000Y-50500
X93000Y-51500
X93000Y-52500
X93000Y-53500
X93000Y-54500
X93000Y-55500
X93000Y-56500
X93000Y-57500
X93000Y-58500
X93000Y-59500
X93000Y-60500
X93000Y-61500
X93000Y-62500
X94000Y-46500
X94000Y-47500
X94000Y-48500
X94000Y-49500
X94000Y-50500
X94000Y-51500
X94000Y-52500
X94000Y-53500
X94000Y-54500
X94000Y-55500
X94000Y-56500
X94000Y-57500
X94000Y-58500
X94000Y-59500
X94000Y-60500
X94000Y-61500
X94000Y-62500
X97000Y-46500
X97000Y-47500
X97000Y-48500
X97000Y-49500
X97000Y-50500
X97000Y-51500
X97000Y-52500
X97000Y-53500
X97000Y-54500
X97000Y-55500
X97000Y-56500
X97000Y-57500
X97000Y-58500
X97000Y-59500
X97000Y-60500
X97000Y-61500
X97000Y-62500
X98000Y-46500
X98000Y-47500
X98000Y-48500
X98000Y-49500
X98000Y-50500
X98000Y-51500
X98000Y-52500
X98000Y-53500
X98000Y-54500
X98000Y-55500
X98000Y-56500
X98000Y-57500
X98000Y-58500
X98000Y-59500
X98000Y-60500
X98000Y-61500
X98000Y-62500
T6
X93098Y-42000
X96327Y-42000
T0
M30
