G04 #@! TF.GenerationSoftware,KiCad,Pcbnew,(5.1.12)-1*
G04 #@! TF.CreationDate,2024-01-30T17:24:50+00:00*
G04 #@! TF.ProjectId,CPC-DDI20,4350432d-4444-4493-9230-2e6b69636164,rev?*
G04 #@! TF.SameCoordinates,Original*
G04 #@! TF.FileFunction,Soldermask,Bot*
G04 #@! TF.FilePolarity,Negative*
%FSLAX46Y46*%
G04 Gerber Fmt 4.6, Leading zero omitted, Abs format (unit mm)*
G04 Created by KiCad (PCBNEW (5.1.12)-1) date 2024-01-30 17:24:50*
%MOMM*%
%LPD*%
G01*
G04 APERTURE LIST*
%ADD10O,1.600000X1.600000*%
%ADD11R,1.600000X1.600000*%
%ADD12O,2.200000X3.500000*%
%ADD13O,1.500000X2.500000*%
%ADD14R,1.500000X2.500000*%
%ADD15C,1.600000*%
%ADD16C,1.700000*%
%ADD17R,1.800000X1.100000*%
G04 APERTURE END LIST*
D10*
X208915000Y-117475000D03*
X224155000Y-125095000D03*
X211455000Y-117475000D03*
X221615000Y-125095000D03*
X213995000Y-117475000D03*
X219075000Y-125095000D03*
X216535000Y-117475000D03*
X216535000Y-125095000D03*
X219075000Y-117475000D03*
X213995000Y-125095000D03*
X221615000Y-117475000D03*
X211455000Y-125095000D03*
X224155000Y-117475000D03*
D11*
X208915000Y-125095000D03*
D10*
X160655000Y-127000000D03*
X175895000Y-134620000D03*
X163195000Y-127000000D03*
X173355000Y-134620000D03*
X165735000Y-127000000D03*
X170815000Y-134620000D03*
X168275000Y-127000000D03*
X168275000Y-134620000D03*
X170815000Y-127000000D03*
X165735000Y-134620000D03*
X173355000Y-127000000D03*
X163195000Y-134620000D03*
X175895000Y-127000000D03*
D11*
X160655000Y-134620000D03*
D12*
X236470000Y-106680000D03*
X244670000Y-106680000D03*
D13*
X238570000Y-106680000D03*
X240570000Y-106680000D03*
D14*
X242570000Y-106680000D03*
D15*
X155615000Y-145415000D03*
X158115000Y-145415000D03*
D10*
X228600000Y-124460000D03*
X228600000Y-121920000D03*
X228600000Y-119380000D03*
X228600000Y-116840000D03*
X228600000Y-114300000D03*
D11*
X228600000Y-111760000D03*
D10*
X160655000Y-137795000D03*
X175895000Y-145415000D03*
X163195000Y-137795000D03*
X173355000Y-145415000D03*
X165735000Y-137795000D03*
X170815000Y-145415000D03*
X168275000Y-137795000D03*
X168275000Y-145415000D03*
X170815000Y-137795000D03*
X165735000Y-145415000D03*
X173355000Y-137795000D03*
X163195000Y-145415000D03*
X175895000Y-137795000D03*
D11*
X160655000Y-145415000D03*
D16*
X158750000Y-164465000D03*
X161290000Y-164465000D03*
X163830000Y-164465000D03*
X166370000Y-164465000D03*
X168910000Y-164465000D03*
X171450000Y-164465000D03*
X173990000Y-164465000D03*
X176530000Y-164465000D03*
X179070000Y-164465000D03*
X181610000Y-164465000D03*
X184150000Y-164465000D03*
X186690000Y-164465000D03*
X189230000Y-164465000D03*
X191770000Y-164465000D03*
X194310000Y-164465000D03*
X196850000Y-164465000D03*
X199390000Y-164465000D03*
X201930000Y-164465000D03*
X204470000Y-164465000D03*
X207010000Y-164465000D03*
X209550000Y-164465000D03*
X212090000Y-164465000D03*
X214630000Y-164465000D03*
X217170000Y-164465000D03*
X219710000Y-164465000D03*
X158750000Y-161925000D03*
X161290000Y-161925000D03*
X163830000Y-161925000D03*
X166370000Y-161925000D03*
X168910000Y-161925000D03*
X171450000Y-161925000D03*
X173990000Y-161925000D03*
X176530000Y-161925000D03*
X179070000Y-161925000D03*
X181610000Y-161925000D03*
X184150000Y-161925000D03*
X186690000Y-161925000D03*
X189230000Y-161925000D03*
X191770000Y-161925000D03*
X194310000Y-161925000D03*
X196850000Y-161925000D03*
X199390000Y-161925000D03*
X201930000Y-161925000D03*
X204470000Y-161925000D03*
X207010000Y-161925000D03*
X209550000Y-161925000D03*
X212090000Y-161925000D03*
X214630000Y-161925000D03*
X217170000Y-161925000D03*
G36*
G01*
X219110000Y-161075000D02*
X220310000Y-161075000D01*
G75*
G02*
X220560000Y-161325000I0J-250000D01*
G01*
X220560000Y-162525000D01*
G75*
G02*
X220310000Y-162775000I-250000J0D01*
G01*
X219110000Y-162775000D01*
G75*
G02*
X218860000Y-162525000I0J250000D01*
G01*
X218860000Y-161325000D01*
G75*
G02*
X219110000Y-161075000I250000J0D01*
G01*
G37*
D17*
X218840000Y-148590000D03*
G36*
G01*
X219465000Y-146600000D02*
X218215000Y-146600000D01*
G75*
G02*
X217940000Y-146325000I0J275000D01*
G01*
X217940000Y-145775000D01*
G75*
G02*
X218215000Y-145500000I275000J0D01*
G01*
X219465000Y-145500000D01*
G75*
G02*
X219740000Y-145775000I0J-275000D01*
G01*
X219740000Y-146325000D01*
G75*
G02*
X219465000Y-146600000I-275000J0D01*
G01*
G37*
G36*
G01*
X217395000Y-147870000D02*
X216145000Y-147870000D01*
G75*
G02*
X215870000Y-147595000I0J275000D01*
G01*
X215870000Y-147045000D01*
G75*
G02*
X216145000Y-146770000I275000J0D01*
G01*
X217395000Y-146770000D01*
G75*
G02*
X217670000Y-147045000I0J-275000D01*
G01*
X217670000Y-147595000D01*
G75*
G02*
X217395000Y-147870000I-275000J0D01*
G01*
G37*
X218840000Y-154305000D03*
G36*
G01*
X219465000Y-152315000D02*
X218215000Y-152315000D01*
G75*
G02*
X217940000Y-152040000I0J275000D01*
G01*
X217940000Y-151490000D01*
G75*
G02*
X218215000Y-151215000I275000J0D01*
G01*
X219465000Y-151215000D01*
G75*
G02*
X219740000Y-151490000I0J-275000D01*
G01*
X219740000Y-152040000D01*
G75*
G02*
X219465000Y-152315000I-275000J0D01*
G01*
G37*
G36*
G01*
X217395000Y-153585000D02*
X216145000Y-153585000D01*
G75*
G02*
X215870000Y-153310000I0J275000D01*
G01*
X215870000Y-152760000D01*
G75*
G02*
X216145000Y-152485000I275000J0D01*
G01*
X217395000Y-152485000D01*
G75*
G02*
X217670000Y-152760000I0J-275000D01*
G01*
X217670000Y-153310000D01*
G75*
G02*
X217395000Y-153585000I-275000J0D01*
G01*
G37*
D16*
X248920000Y-158750000D03*
X248920000Y-156210000D03*
X248920000Y-153670000D03*
X248920000Y-151130000D03*
X248920000Y-148590000D03*
X248920000Y-146050000D03*
X248920000Y-143510000D03*
X248920000Y-140970000D03*
X248920000Y-138430000D03*
X248920000Y-135890000D03*
X248920000Y-133350000D03*
X248920000Y-130810000D03*
X248920000Y-128270000D03*
X248920000Y-125730000D03*
X248920000Y-123190000D03*
X248920000Y-120650000D03*
X248920000Y-118110000D03*
X246380000Y-158750000D03*
X246380000Y-156210000D03*
X246380000Y-153670000D03*
X246380000Y-151130000D03*
X246380000Y-148590000D03*
X246380000Y-146050000D03*
X246380000Y-143510000D03*
X246380000Y-140970000D03*
X246380000Y-138430000D03*
X246380000Y-135890000D03*
X246380000Y-133350000D03*
X246380000Y-130810000D03*
X246380000Y-128270000D03*
X246380000Y-125730000D03*
X246380000Y-123190000D03*
X246380000Y-120650000D03*
G36*
G01*
X245530000Y-118710000D02*
X245530000Y-117510000D01*
G75*
G02*
X245780000Y-117260000I250000J0D01*
G01*
X246980000Y-117260000D01*
G75*
G02*
X247230000Y-117510000I0J-250000D01*
G01*
X247230000Y-118710000D01*
G75*
G02*
X246980000Y-118960000I-250000J0D01*
G01*
X245780000Y-118960000D01*
G75*
G02*
X245530000Y-118710000I0J250000D01*
G01*
G37*
X238760000Y-158750000D03*
X238760000Y-156210000D03*
X238760000Y-153670000D03*
X238760000Y-151130000D03*
X238760000Y-148590000D03*
X238760000Y-146050000D03*
X238760000Y-143510000D03*
X238760000Y-140970000D03*
X238760000Y-138430000D03*
X238760000Y-135890000D03*
X238760000Y-133350000D03*
X238760000Y-130810000D03*
X238760000Y-128270000D03*
X238760000Y-125730000D03*
X238760000Y-123190000D03*
X238760000Y-120650000D03*
X238760000Y-118110000D03*
X236220000Y-158750000D03*
X236220000Y-156210000D03*
X236220000Y-153670000D03*
X236220000Y-151130000D03*
X236220000Y-148590000D03*
X236220000Y-146050000D03*
X236220000Y-143510000D03*
X236220000Y-140970000D03*
X236220000Y-138430000D03*
X236220000Y-135890000D03*
X236220000Y-133350000D03*
X236220000Y-130810000D03*
X236220000Y-128270000D03*
X236220000Y-125730000D03*
X236220000Y-123190000D03*
X236220000Y-120650000D03*
G36*
G01*
X235370000Y-118710000D02*
X235370000Y-117510000D01*
G75*
G02*
X235620000Y-117260000I250000J0D01*
G01*
X236820000Y-117260000D01*
G75*
G02*
X237070000Y-117510000I0J-250000D01*
G01*
X237070000Y-118710000D01*
G75*
G02*
X236820000Y-118960000I-250000J0D01*
G01*
X235620000Y-118960000D01*
G75*
G02*
X235370000Y-118710000I0J250000D01*
G01*
G37*
D10*
X156845000Y-116205000D03*
D15*
X156845000Y-123825000D03*
X206375000Y-128310000D03*
X208875000Y-128310000D03*
X155575000Y-126325000D03*
X158075000Y-126325000D03*
X205105000Y-109180000D03*
X205105000Y-106680000D03*
X205740000Y-120015000D03*
X205740000Y-117515000D03*
D10*
X160655000Y-116205000D03*
X175895000Y-123825000D03*
X163195000Y-116205000D03*
X173355000Y-123825000D03*
X165735000Y-116205000D03*
X170815000Y-123825000D03*
X168275000Y-116205000D03*
X168275000Y-123825000D03*
X170815000Y-116205000D03*
X165735000Y-123825000D03*
X173355000Y-116205000D03*
X163195000Y-123825000D03*
X175895000Y-116205000D03*
D11*
X160655000Y-123825000D03*
D10*
X160655000Y-105410000D03*
X175895000Y-113030000D03*
X163195000Y-105410000D03*
X173355000Y-113030000D03*
X165735000Y-105410000D03*
X170815000Y-113030000D03*
X168275000Y-105410000D03*
X168275000Y-113030000D03*
X170815000Y-105410000D03*
X165735000Y-113030000D03*
X173355000Y-105410000D03*
X163195000Y-113030000D03*
X175895000Y-105410000D03*
D11*
X160655000Y-113030000D03*
D10*
X201930000Y-114300000D03*
D15*
X201930000Y-106680000D03*
D10*
X179705000Y-149225000D03*
D15*
X179705000Y-141605000D03*
D10*
X230505000Y-147955000D03*
D15*
X222885000Y-147955000D03*
D10*
X222885000Y-151130000D03*
D15*
X230505000Y-151130000D03*
D10*
X222885000Y-154305000D03*
D15*
X230505000Y-154305000D03*
D10*
X219710000Y-157480000D03*
D15*
X212090000Y-157480000D03*
D10*
X222885000Y-157480000D03*
D15*
X230505000Y-157480000D03*
D10*
X156845000Y-158115000D03*
D15*
X156845000Y-150495000D03*
D10*
X212725000Y-139065000D03*
D15*
X220345000Y-139065000D03*
D10*
X212725000Y-142240000D03*
D15*
X220345000Y-142240000D03*
D10*
X156845000Y-128905000D03*
D15*
X156845000Y-136525000D03*
D10*
X213360000Y-128270000D03*
X228600000Y-135890000D03*
X215900000Y-128270000D03*
X226060000Y-135890000D03*
X218440000Y-128270000D03*
X223520000Y-135890000D03*
X220980000Y-128270000D03*
X220980000Y-135890000D03*
X223520000Y-128270000D03*
X218440000Y-135890000D03*
X226060000Y-128270000D03*
X215900000Y-135890000D03*
X228600000Y-128270000D03*
D11*
X213360000Y-135890000D03*
D10*
X160655000Y-148590000D03*
X175895000Y-156210000D03*
X163195000Y-148590000D03*
X173355000Y-156210000D03*
X165735000Y-148590000D03*
X170815000Y-156210000D03*
X168275000Y-148590000D03*
X168275000Y-156210000D03*
X170815000Y-148590000D03*
X165735000Y-156210000D03*
X173355000Y-148590000D03*
X163195000Y-156210000D03*
X175895000Y-148590000D03*
D11*
X160655000Y-156210000D03*
D10*
X208915000Y-106680000D03*
X224155000Y-114300000D03*
X211455000Y-106680000D03*
X221615000Y-114300000D03*
X213995000Y-106680000D03*
X219075000Y-114300000D03*
X216535000Y-106680000D03*
X216535000Y-114300000D03*
X219075000Y-106680000D03*
X213995000Y-114300000D03*
X221615000Y-106680000D03*
X211455000Y-114300000D03*
X224155000Y-106680000D03*
D11*
X208915000Y-114300000D03*
D10*
X208915000Y-131445000D03*
X201295000Y-154305000D03*
X208915000Y-133985000D03*
X201295000Y-151765000D03*
X208915000Y-136525000D03*
X201295000Y-149225000D03*
X208915000Y-139065000D03*
X201295000Y-146685000D03*
X208915000Y-141605000D03*
X201295000Y-144145000D03*
X208915000Y-144145000D03*
X201295000Y-141605000D03*
X208915000Y-146685000D03*
X201295000Y-139065000D03*
X208915000Y-149225000D03*
X201295000Y-136525000D03*
X208915000Y-151765000D03*
X201295000Y-133985000D03*
X208915000Y-154305000D03*
D11*
X201295000Y-131445000D03*
D10*
X198120000Y-106045000D03*
X182880000Y-154305000D03*
X198120000Y-108585000D03*
X182880000Y-151765000D03*
X198120000Y-111125000D03*
X182880000Y-149225000D03*
X198120000Y-113665000D03*
X182880000Y-146685000D03*
X198120000Y-116205000D03*
X182880000Y-144145000D03*
X198120000Y-118745000D03*
X182880000Y-141605000D03*
X198120000Y-121285000D03*
X182880000Y-139065000D03*
X198120000Y-123825000D03*
X182880000Y-136525000D03*
X198120000Y-126365000D03*
X182880000Y-133985000D03*
X198120000Y-128905000D03*
X182880000Y-131445000D03*
X198120000Y-131445000D03*
X182880000Y-128905000D03*
X198120000Y-133985000D03*
X182880000Y-126365000D03*
X198120000Y-136525000D03*
X182880000Y-123825000D03*
X198120000Y-139065000D03*
X182880000Y-121285000D03*
X198120000Y-141605000D03*
X182880000Y-118745000D03*
X198120000Y-144145000D03*
X182880000Y-116205000D03*
X198120000Y-146685000D03*
X182880000Y-113665000D03*
X198120000Y-149225000D03*
X182880000Y-111125000D03*
X198120000Y-151765000D03*
X182880000Y-108585000D03*
X198120000Y-154305000D03*
D11*
X182880000Y-106045000D03*
D15*
X157480000Y-107910000D03*
X157480000Y-105410000D03*
X155575000Y-113665000D03*
X158075000Y-113665000D03*
X155615000Y-139065000D03*
X158115000Y-139065000D03*
X155615000Y-147955000D03*
X158115000Y-147955000D03*
M02*
