G04 #@! TF.GenerationSoftware,KiCad,Pcbnew,(5.1.12)-1*
G04 #@! TF.CreationDate,2024-01-30T16:28:47+00:00*
G04 #@! TF.ProjectId,CPCRAM,43504352-414d-42e6-9b69-6361645f7063,rev?*
G04 #@! TF.SameCoordinates,Original*
G04 #@! TF.FileFunction,Profile,NP*
%FSLAX46Y46*%
G04 Gerber Fmt 4.6, Leading zero omitted, Abs format (unit mm)*
G04 Created by KiCad (PCBNEW (5.1.12)-1) date 2024-01-30 16:28:47*
%MOMM*%
%LPD*%
G01*
G04 APERTURE LIST*
G04 #@! TA.AperFunction,Profile*
%ADD10C,0.150000*%
G04 #@! TD*
G04 APERTURE END LIST*
D10*
X153670000Y-100500000D02*
X156700000Y-100500000D01*
X251206000Y-159385000D02*
X251460000Y-159385000D01*
X249936000Y-169545000D02*
X248666000Y-170815000D01*
X249936000Y-160655000D02*
X249936000Y-169545000D01*
X156464000Y-169545000D02*
X157734000Y-170815000D01*
X156464000Y-160655000D02*
X156464000Y-169545000D01*
X252730000Y-158115000D02*
G75*
G02*
X251460000Y-159385000I-1270000J0D01*
G01*
X249936000Y-160655000D02*
G75*
G02*
X251206000Y-159385000I1270000J0D01*
G01*
X155194000Y-159385000D02*
X154940000Y-159385000D01*
X155194000Y-159385000D02*
G75*
G02*
X156464000Y-160655000I0J-1270000D01*
G01*
X154940000Y-159385000D02*
G75*
G02*
X153670000Y-158115000I0J1270000D01*
G01*
X156700000Y-100500000D02*
X156700000Y-102500000D01*
X157700000Y-103500000D02*
G75*
G02*
X156700000Y-102500000I0J1000000D01*
G01*
X158700000Y-103500000D02*
X157700000Y-103500000D01*
X159700000Y-102500000D02*
G75*
G02*
X158700000Y-103500000I-1000000J0D01*
G01*
X159700000Y-100500000D02*
X159700000Y-102500000D01*
X162700000Y-100500000D02*
X159700000Y-100500000D01*
X162700000Y-102500000D02*
X162700000Y-100500000D01*
X163700000Y-103500000D02*
G75*
G02*
X162700000Y-102500000I0J1000000D01*
G01*
X164700000Y-103500000D02*
X163700000Y-103500000D01*
X165700000Y-102500000D02*
G75*
G02*
X164700000Y-103500000I-1000000J0D01*
G01*
X165700000Y-100500000D02*
X165700000Y-102500000D01*
X168700000Y-100500000D02*
X165700000Y-100500000D01*
X168700000Y-102500000D02*
X168700000Y-100500000D01*
X169700000Y-103500000D02*
G75*
G02*
X168700000Y-102500000I0J1000000D01*
G01*
X170700000Y-103500000D02*
X169700000Y-103500000D01*
X171700000Y-102500000D02*
G75*
G02*
X170700000Y-103500000I-1000000J0D01*
G01*
X171700000Y-100500000D02*
X171700000Y-102500000D01*
X174700000Y-100500000D02*
X171700000Y-100500000D01*
X174700000Y-102500000D02*
X174700000Y-100500000D01*
X175700000Y-103500000D02*
G75*
G02*
X174700000Y-102500000I0J1000000D01*
G01*
X176700000Y-103500000D02*
X175700000Y-103500000D01*
X246700000Y-102500000D02*
X246700000Y-100500000D01*
X249700000Y-100500000D02*
X249700000Y-102500000D01*
X248700000Y-103500000D02*
X247700000Y-103500000D01*
X252730000Y-100500000D02*
X249700000Y-100500000D01*
X246700000Y-100500000D02*
X243700000Y-100500000D01*
X243700000Y-100500000D02*
X243700000Y-102500000D01*
X225700000Y-100500000D02*
X225700000Y-102500000D01*
X236700000Y-103500000D02*
X235700000Y-103500000D01*
X240700000Y-102500000D02*
X240700000Y-100500000D01*
X240700000Y-100500000D02*
X237700000Y-100500000D01*
X216700000Y-102500000D02*
X216700000Y-100500000D01*
X228700000Y-102500000D02*
X228700000Y-100500000D01*
X216700000Y-100500000D02*
X213700000Y-100500000D01*
X237700000Y-100500000D02*
X237700000Y-102500000D01*
X212700000Y-103500000D02*
X211700000Y-103500000D01*
X213700000Y-100500000D02*
X213700000Y-102500000D01*
X228700000Y-100500000D02*
X225700000Y-100500000D01*
X218700000Y-103500000D02*
X217700000Y-103500000D01*
X234700000Y-100500000D02*
X231700000Y-100500000D01*
X210700000Y-100500000D02*
X207700000Y-100500000D01*
X231700000Y-100500000D02*
X231700000Y-102500000D01*
X222700000Y-102500000D02*
X222700000Y-100500000D01*
X222700000Y-100500000D02*
X219700000Y-100500000D01*
X210700000Y-102500000D02*
X210700000Y-100500000D01*
X219700000Y-100500000D02*
X219700000Y-102500000D01*
X242700000Y-103500000D02*
X241700000Y-103500000D01*
X224700000Y-103500000D02*
X223700000Y-103500000D01*
X234700000Y-102500000D02*
X234700000Y-100500000D01*
X230700000Y-103500000D02*
X229700000Y-103500000D01*
X198700000Y-102500000D02*
X198700000Y-100500000D01*
X192700000Y-102500000D02*
X192700000Y-100500000D01*
X186700000Y-102500000D02*
X186700000Y-100500000D01*
X195700000Y-100500000D02*
X195700000Y-102500000D01*
X249700000Y-102500000D02*
G75*
G02*
X248700000Y-103500000I-1000000J0D01*
G01*
X198700000Y-100500000D02*
X195700000Y-100500000D01*
X194700000Y-103500000D02*
X193700000Y-103500000D01*
X192700000Y-100500000D02*
X189700000Y-100500000D01*
X189700000Y-100500000D02*
X189700000Y-102500000D01*
X186700000Y-100500000D02*
X183700000Y-100500000D01*
X188700000Y-103500000D02*
X187700000Y-103500000D01*
X204700000Y-102500000D02*
X204700000Y-100500000D01*
X182700000Y-103500000D02*
X181700000Y-103500000D01*
X200700000Y-103500000D02*
X199700000Y-103500000D01*
X183700000Y-100500000D02*
X183700000Y-102500000D01*
X207700000Y-100500000D02*
X207700000Y-102500000D01*
X201700000Y-100500000D02*
X201700000Y-102500000D01*
X180700000Y-100500000D02*
X177700000Y-100500000D01*
X180700000Y-102500000D02*
X180700000Y-100500000D01*
X206700000Y-103500000D02*
X205700000Y-103500000D01*
X204700000Y-100500000D02*
X201700000Y-100500000D01*
X177700000Y-100500000D02*
X177700000Y-102500000D01*
X231700000Y-102500000D02*
G75*
G02*
X230700000Y-103500000I-1000000J0D01*
G01*
X195700000Y-102500000D02*
G75*
G02*
X194700000Y-103500000I-1000000J0D01*
G01*
X181700000Y-103500000D02*
G75*
G02*
X180700000Y-102500000I0J1000000D01*
G01*
X241700000Y-103500000D02*
G75*
G02*
X240700000Y-102500000I0J1000000D01*
G01*
X225700000Y-102500000D02*
G75*
G02*
X224700000Y-103500000I-1000000J0D01*
G01*
X223700000Y-103500000D02*
G75*
G02*
X222700000Y-102500000I0J1000000D01*
G01*
X219700000Y-102500000D02*
G75*
G02*
X218700000Y-103500000I-1000000J0D01*
G01*
X213700000Y-102500000D02*
G75*
G02*
X212700000Y-103500000I-1000000J0D01*
G01*
X207700000Y-102500000D02*
G75*
G02*
X206700000Y-103500000I-1000000J0D01*
G01*
X183700000Y-102500000D02*
G75*
G02*
X182700000Y-103500000I-1000000J0D01*
G01*
X193700000Y-103500000D02*
G75*
G02*
X192700000Y-102500000I0J1000000D01*
G01*
X217700000Y-103500000D02*
G75*
G02*
X216700000Y-102500000I0J1000000D01*
G01*
X229700000Y-103500000D02*
G75*
G02*
X228700000Y-102500000I0J1000000D01*
G01*
X235700000Y-103500000D02*
G75*
G02*
X234700000Y-102500000I0J1000000D01*
G01*
X189700000Y-102500000D02*
G75*
G02*
X188700000Y-103500000I-1000000J0D01*
G01*
X205700000Y-103500000D02*
G75*
G02*
X204700000Y-102500000I0J1000000D01*
G01*
X211700000Y-103500000D02*
G75*
G02*
X210700000Y-102500000I0J1000000D01*
G01*
X187700000Y-103500000D02*
G75*
G02*
X186700000Y-102500000I0J1000000D01*
G01*
X201700000Y-102500000D02*
G75*
G02*
X200700000Y-103500000I-1000000J0D01*
G01*
X199700000Y-103500000D02*
G75*
G02*
X198700000Y-102500000I0J1000000D01*
G01*
X177700000Y-102500000D02*
G75*
G02*
X176700000Y-103500000I-1000000J0D01*
G01*
X243700000Y-102500000D02*
G75*
G02*
X242700000Y-103500000I-1000000J0D01*
G01*
X237700000Y-102500000D02*
G75*
G02*
X236700000Y-103500000I-1000000J0D01*
G01*
X247700000Y-103500000D02*
G75*
G02*
X246700000Y-102500000I0J1000000D01*
G01*
X252730000Y-100500000D02*
X252730000Y-158115000D01*
X153670000Y-100505000D02*
X153670000Y-158115000D01*
X157734000Y-170815000D02*
X248666000Y-170815000D01*
M02*
