M48
INCH,TZ
T1C0.0157
T2C0.0315
%
G90
G05
T1
X62950Y-59900
X63300Y-61050
X65200Y-46350
X65400Y-42900
X65500Y-61100
X66000Y-42200
X66300Y-42550
X66500Y-61100
X67300Y-43700
X68250Y-61050
X68700Y-44150
X69000Y-55450
X69150Y-61050
X69250Y-43300
X69250Y-56250
X69750Y-44750
X70050Y-61050
X70100Y-48400
X70275Y-45975
X71200Y-61050
X71250Y-46900
X71750Y-56550
X72100Y-61050
X72500Y-61200
X73500Y-49050
X73500Y-61300
X73900Y-56800
X74200Y-48208
X74200Y-50550
X74500Y-61450
X75968Y-50518
X76400Y-61050
X77050Y-48454
X77250Y-47250
X78377Y-60227
X78458Y-61058
X79350Y-59800
X80600Y-59800
X81250Y-60150
X81400Y-48450
X82800Y-59400
X83250Y-49061
X83250Y-57550
X83750Y-59000
X84173Y-57877
X84800Y-43550
X84800Y-61450
X84800Y-58600
X85800Y-58250
X85850Y-60800
X86300Y-60800
X86750Y-53800
X86750Y-59450
X87700Y-59800
X88000Y-58800
X88400Y-60150
X88750Y-58300
X90750Y-50200
X91250Y-61150
X91750Y-60800
X93200Y-43550
X93200Y-60400
X93807Y-60957
X94800Y-60950
X95750Y-60950
X96750Y-60950
X97700Y-44150
X97700Y-57550
X97750Y-61450
X98000Y-58300
X98050Y-46900
X98350Y-42750
X98400Y-58800
X98650Y-41950
X98650Y-59450
X98900Y-60100
X98950Y-47800
X98950Y-59650
X99250Y-44650
T2
X61500Y-50000
X61500Y-50984
X61500Y-54250
X61500Y-55234
X62750Y-50000
X62750Y-53000
X62750Y-54250
X62750Y-57250
X63750Y-50000
X63750Y-53000
X63750Y-54250
X63750Y-57250
X64750Y-44750
X64750Y-47750
X64750Y-50000
X64750Y-53000
X64750Y-54250
X64750Y-57250
X65750Y-50000
X65750Y-53000
X65750Y-54250
X65750Y-57250
X66750Y-50000
X66750Y-53000
X66750Y-54250
X66750Y-57250
X67750Y-41750
X67750Y-47750
X67750Y-50000
X67750Y-53000
X67750Y-54250
X67750Y-57250
X68750Y-41750
X68750Y-47750
X68750Y-50000
X68750Y-53000
X68750Y-54250
X68750Y-57250
X69750Y-41750
X69750Y-47750
X69750Y-50000
X69750Y-53000
X69750Y-54250
X69750Y-57250
X70750Y-41750
X70750Y-47750
X71250Y-49031
X71250Y-50016
X71250Y-53266
X71250Y-54250
X71750Y-41750
X71750Y-47750
X72500Y-50000
X72500Y-53000
X72500Y-54250
X72500Y-57250
X72750Y-41750
X72750Y-47750
X73500Y-50000
X73500Y-53000
X73500Y-54250
X73500Y-57250
X73750Y-41750
X73750Y-47750
X74500Y-50000
X74500Y-53000
X74500Y-54250
X74500Y-57250
X74750Y-41750
X74750Y-47750
X75500Y-50000
X75500Y-53000
X75500Y-54250
X75500Y-57250
X75750Y-41750
X75750Y-47750
X76500Y-50000
X76500Y-53000
X76500Y-54250
X76500Y-57250
X76750Y-41750
X76750Y-47750
X77500Y-50000
X77500Y-53000
X77500Y-54250
X77500Y-57250
X77750Y-41750
X77750Y-47750
X78500Y-50000
X78500Y-53000
X78500Y-54250
X78500Y-57250
X78750Y-41750
X78750Y-47750
X79500Y-50000
X79500Y-53000
X79500Y-54250
X79500Y-57250
X79750Y-41750
X79750Y-47750
X80750Y-41750
X80750Y-47750
X81750Y-41750
X81750Y-47750
X82250Y-50750
X82250Y-56750
X82266Y-49750
X82750Y-41750
X82750Y-47750
X83250Y-49750
X83250Y-50750
X83250Y-56750
X83750Y-41750
X83750Y-47750
X84250Y-50750
X84250Y-56750
X84750Y-41750
X84750Y-47750
X85250Y-50750
X85250Y-56750
X85750Y-41750
X85750Y-47750
X85766Y-49000
X86250Y-50750
X86250Y-56750
X86750Y-41750
X86750Y-47750
X86750Y-49000
X87250Y-50750
X87250Y-56750
X88250Y-50750
X88250Y-56750
X89000Y-45516
X89000Y-46500
X89250Y-50750
X89250Y-56750
X90250Y-45500
X90250Y-48500
X90250Y-50750
X90250Y-56750
X91250Y-45500
X91250Y-48500
X91250Y-50750
X91250Y-56750
X92250Y-45500
X92250Y-48500
X92250Y-50750
X92250Y-56750
X93250Y-45500
X93250Y-48500
X93250Y-50750
X93250Y-56750
X94250Y-45500
X94250Y-48500
X94250Y-50750
X94250Y-56750
X95250Y-45500
X95250Y-48500
X95250Y-50750
X95250Y-56750
X96250Y-45500
X96250Y-48500
X96250Y-50750
X96250Y-56750
X97250Y-50750
X97250Y-56750
T0
M30
