G04 #@! TF.GenerationSoftware,KiCad,Pcbnew,(5.1.12)-1*
G04 #@! TF.CreationDate,2024-01-30T16:28:47+00:00*
G04 #@! TF.ProjectId,CPCRAM,43504352-414d-42e6-9b69-6361645f7063,rev?*
G04 #@! TF.SameCoordinates,Original*
G04 #@! TF.FileFunction,Legend,Bot*
G04 #@! TF.FilePolarity,Positive*
%FSLAX46Y46*%
G04 Gerber Fmt 4.6, Leading zero omitted, Abs format (unit mm)*
G04 Created by KiCad (PCBNEW (5.1.12)-1) date 2024-01-30 16:28:47*
%MOMM*%
%LPD*%
G01*
G04 APERTURE LIST*
%ADD10C,0.150000*%
G04 APERTURE END LIST*
D10*
X220692023Y-109706666D02*
X220215833Y-109706666D01*
X220787261Y-109992380D02*
X220453928Y-108992380D01*
X220120595Y-109992380D01*
X219025357Y-109992380D02*
X219025357Y-109325714D01*
X219025357Y-109420952D02*
X218977738Y-109373333D01*
X218882500Y-109325714D01*
X218739642Y-109325714D01*
X218644404Y-109373333D01*
X218596785Y-109468571D01*
X218596785Y-109992380D01*
X218596785Y-109468571D02*
X218549166Y-109373333D01*
X218453928Y-109325714D01*
X218311071Y-109325714D01*
X218215833Y-109373333D01*
X218168214Y-109468571D01*
X218168214Y-109992380D01*
X217549166Y-109992380D02*
X217644404Y-109944761D01*
X217692023Y-109897142D01*
X217739642Y-109801904D01*
X217739642Y-109516190D01*
X217692023Y-109420952D01*
X217644404Y-109373333D01*
X217549166Y-109325714D01*
X217406309Y-109325714D01*
X217311071Y-109373333D01*
X217263452Y-109420952D01*
X217215833Y-109516190D01*
X217215833Y-109801904D01*
X217263452Y-109897142D01*
X217311071Y-109944761D01*
X217406309Y-109992380D01*
X217549166Y-109992380D01*
X216358690Y-109992380D02*
X216358690Y-108992380D01*
X216358690Y-109944761D02*
X216453928Y-109992380D01*
X216644404Y-109992380D01*
X216739642Y-109944761D01*
X216787261Y-109897142D01*
X216834880Y-109801904D01*
X216834880Y-109516190D01*
X216787261Y-109420952D01*
X216739642Y-109373333D01*
X216644404Y-109325714D01*
X216453928Y-109325714D01*
X216358690Y-109373333D01*
X215453928Y-109325714D02*
X215453928Y-109992380D01*
X215882500Y-109325714D02*
X215882500Y-109849523D01*
X215834880Y-109944761D01*
X215739642Y-109992380D01*
X215596785Y-109992380D01*
X215501547Y-109944761D01*
X215453928Y-109897142D01*
X214834880Y-109992380D02*
X214930119Y-109944761D01*
X214977738Y-109849523D01*
X214977738Y-108992380D01*
X214025357Y-109992380D02*
X214025357Y-109468571D01*
X214072976Y-109373333D01*
X214168214Y-109325714D01*
X214358690Y-109325714D01*
X214453928Y-109373333D01*
X214025357Y-109944761D02*
X214120595Y-109992380D01*
X214358690Y-109992380D01*
X214453928Y-109944761D01*
X214501547Y-109849523D01*
X214501547Y-109754285D01*
X214453928Y-109659047D01*
X214358690Y-109611428D01*
X214120595Y-109611428D01*
X214025357Y-109563809D01*
X213549166Y-109992380D02*
X213549166Y-109325714D01*
X213549166Y-109516190D02*
X213501547Y-109420952D01*
X213453928Y-109373333D01*
X213358690Y-109325714D01*
X213263452Y-109325714D01*
X212215833Y-109706666D02*
X211739642Y-109706666D01*
X212311071Y-109992380D02*
X211977738Y-108992380D01*
X211644404Y-109992380D01*
X211311071Y-109992380D02*
X211311071Y-109325714D01*
X211311071Y-109420952D02*
X211263452Y-109373333D01*
X211168214Y-109325714D01*
X211025357Y-109325714D01*
X210930119Y-109373333D01*
X210882500Y-109468571D01*
X210882500Y-109992380D01*
X210882500Y-109468571D02*
X210834880Y-109373333D01*
X210739642Y-109325714D01*
X210596785Y-109325714D01*
X210501547Y-109373333D01*
X210453928Y-109468571D01*
X210453928Y-109992380D01*
X210025357Y-109944761D02*
X209930119Y-109992380D01*
X209739642Y-109992380D01*
X209644404Y-109944761D01*
X209596785Y-109849523D01*
X209596785Y-109801904D01*
X209644404Y-109706666D01*
X209739642Y-109659047D01*
X209882500Y-109659047D01*
X209977738Y-109611428D01*
X210025357Y-109516190D01*
X210025357Y-109468571D01*
X209977738Y-109373333D01*
X209882500Y-109325714D01*
X209739642Y-109325714D01*
X209644404Y-109373333D01*
X209311071Y-109325714D02*
X208930119Y-109325714D01*
X209168214Y-108992380D02*
X209168214Y-109849523D01*
X209120595Y-109944761D01*
X209025357Y-109992380D01*
X208930119Y-109992380D01*
X208596785Y-109992380D02*
X208596785Y-109325714D01*
X208596785Y-109516190D02*
X208549166Y-109420952D01*
X208501547Y-109373333D01*
X208406309Y-109325714D01*
X208311071Y-109325714D01*
X207549166Y-109992380D02*
X207549166Y-109468571D01*
X207596785Y-109373333D01*
X207692023Y-109325714D01*
X207882500Y-109325714D01*
X207977738Y-109373333D01*
X207549166Y-109944761D02*
X207644404Y-109992380D01*
X207882500Y-109992380D01*
X207977738Y-109944761D01*
X208025357Y-109849523D01*
X208025357Y-109754285D01*
X207977738Y-109659047D01*
X207882500Y-109611428D01*
X207644404Y-109611428D01*
X207549166Y-109563809D01*
X206644404Y-109992380D02*
X206644404Y-108992380D01*
X206644404Y-109944761D02*
X206739642Y-109992380D01*
X206930119Y-109992380D01*
X207025357Y-109944761D01*
X207072976Y-109897142D01*
X207120595Y-109801904D01*
X207120595Y-109516190D01*
X207072976Y-109420952D01*
X207025357Y-109373333D01*
X206930119Y-109325714D01*
X206739642Y-109325714D01*
X206644404Y-109373333D01*
X204834880Y-109897142D02*
X204882500Y-109944761D01*
X205025357Y-109992380D01*
X205120595Y-109992380D01*
X205263452Y-109944761D01*
X205358690Y-109849523D01*
X205406309Y-109754285D01*
X205453928Y-109563809D01*
X205453928Y-109420952D01*
X205406309Y-109230476D01*
X205358690Y-109135238D01*
X205263452Y-109040000D01*
X205120595Y-108992380D01*
X205025357Y-108992380D01*
X204882500Y-109040000D01*
X204834880Y-109087619D01*
X204406309Y-109992380D02*
X204406309Y-108992380D01*
X204025357Y-108992380D01*
X203930119Y-109040000D01*
X203882500Y-109087619D01*
X203834880Y-109182857D01*
X203834880Y-109325714D01*
X203882500Y-109420952D01*
X203930119Y-109468571D01*
X204025357Y-109516190D01*
X204406309Y-109516190D01*
X202834880Y-109897142D02*
X202882500Y-109944761D01*
X203025357Y-109992380D01*
X203120595Y-109992380D01*
X203263452Y-109944761D01*
X203358690Y-109849523D01*
X203406309Y-109754285D01*
X203453928Y-109563809D01*
X203453928Y-109420952D01*
X203406309Y-109230476D01*
X203358690Y-109135238D01*
X203263452Y-109040000D01*
X203120595Y-108992380D01*
X203025357Y-108992380D01*
X202882500Y-109040000D01*
X202834880Y-109087619D01*
X201215833Y-109944761D02*
X201311071Y-109992380D01*
X201501547Y-109992380D01*
X201596785Y-109944761D01*
X201644404Y-109897142D01*
X201692023Y-109801904D01*
X201692023Y-109516190D01*
X201644404Y-109420952D01*
X201596785Y-109373333D01*
X201501547Y-109325714D01*
X201311071Y-109325714D01*
X201215833Y-109373333D01*
X200644404Y-109992380D02*
X200739642Y-109944761D01*
X200787261Y-109897142D01*
X200834880Y-109801904D01*
X200834880Y-109516190D01*
X200787261Y-109420952D01*
X200739642Y-109373333D01*
X200644404Y-109325714D01*
X200501547Y-109325714D01*
X200406309Y-109373333D01*
X200358690Y-109420952D01*
X200311071Y-109516190D01*
X200311071Y-109801904D01*
X200358690Y-109897142D01*
X200406309Y-109944761D01*
X200501547Y-109992380D01*
X200644404Y-109992380D01*
X199882500Y-109992380D02*
X199882500Y-109325714D01*
X199882500Y-109420952D02*
X199834880Y-109373333D01*
X199739642Y-109325714D01*
X199596785Y-109325714D01*
X199501547Y-109373333D01*
X199453928Y-109468571D01*
X199453928Y-109992380D01*
X199453928Y-109468571D02*
X199406309Y-109373333D01*
X199311071Y-109325714D01*
X199168214Y-109325714D01*
X199072976Y-109373333D01*
X199025357Y-109468571D01*
X199025357Y-109992380D01*
X198549166Y-109325714D02*
X198549166Y-110325714D01*
X198549166Y-109373333D02*
X198453928Y-109325714D01*
X198263452Y-109325714D01*
X198168214Y-109373333D01*
X198120595Y-109420952D01*
X198072976Y-109516190D01*
X198072976Y-109801904D01*
X198120595Y-109897142D01*
X198168214Y-109944761D01*
X198263452Y-109992380D01*
X198453928Y-109992380D01*
X198549166Y-109944761D01*
X197215833Y-109992380D02*
X197215833Y-109468571D01*
X197263452Y-109373333D01*
X197358690Y-109325714D01*
X197549166Y-109325714D01*
X197644404Y-109373333D01*
X197215833Y-109944761D02*
X197311071Y-109992380D01*
X197549166Y-109992380D01*
X197644404Y-109944761D01*
X197692023Y-109849523D01*
X197692023Y-109754285D01*
X197644404Y-109659047D01*
X197549166Y-109611428D01*
X197311071Y-109611428D01*
X197215833Y-109563809D01*
X196882500Y-109325714D02*
X196501547Y-109325714D01*
X196739642Y-108992380D02*
X196739642Y-109849523D01*
X196692023Y-109944761D01*
X196596785Y-109992380D01*
X196501547Y-109992380D01*
X196168214Y-109992380D02*
X196168214Y-109325714D01*
X196168214Y-108992380D02*
X196215833Y-109040000D01*
X196168214Y-109087619D01*
X196120595Y-109040000D01*
X196168214Y-108992380D01*
X196168214Y-109087619D01*
X195692023Y-109992380D02*
X195692023Y-108992380D01*
X195692023Y-109373333D02*
X195596785Y-109325714D01*
X195406309Y-109325714D01*
X195311071Y-109373333D01*
X195263452Y-109420952D01*
X195215833Y-109516190D01*
X195215833Y-109801904D01*
X195263452Y-109897142D01*
X195311071Y-109944761D01*
X195406309Y-109992380D01*
X195596785Y-109992380D01*
X195692023Y-109944761D01*
X194644404Y-109992380D02*
X194739642Y-109944761D01*
X194787261Y-109849523D01*
X194787261Y-108992380D01*
X193882500Y-109944761D02*
X193977738Y-109992380D01*
X194168214Y-109992380D01*
X194263452Y-109944761D01*
X194311071Y-109849523D01*
X194311071Y-109468571D01*
X194263452Y-109373333D01*
X194168214Y-109325714D01*
X193977738Y-109325714D01*
X193882500Y-109373333D01*
X193834880Y-109468571D01*
X193834880Y-109563809D01*
X194311071Y-109659047D01*
X192215833Y-109944761D02*
X192311071Y-109992380D01*
X192501547Y-109992380D01*
X192596785Y-109944761D01*
X192644404Y-109897142D01*
X192692023Y-109801904D01*
X192692023Y-109516190D01*
X192644404Y-109420952D01*
X192596785Y-109373333D01*
X192501547Y-109325714D01*
X192311071Y-109325714D01*
X192215833Y-109373333D01*
X191644404Y-109992380D02*
X191739642Y-109944761D01*
X191787261Y-109897142D01*
X191834880Y-109801904D01*
X191834880Y-109516190D01*
X191787261Y-109420952D01*
X191739642Y-109373333D01*
X191644404Y-109325714D01*
X191501547Y-109325714D01*
X191406309Y-109373333D01*
X191358690Y-109420952D01*
X191311071Y-109516190D01*
X191311071Y-109801904D01*
X191358690Y-109897142D01*
X191406309Y-109944761D01*
X191501547Y-109992380D01*
X191644404Y-109992380D01*
X190882500Y-109992380D02*
X190882500Y-109325714D01*
X190882500Y-109420952D02*
X190834880Y-109373333D01*
X190739642Y-109325714D01*
X190596785Y-109325714D01*
X190501547Y-109373333D01*
X190453928Y-109468571D01*
X190453928Y-109992380D01*
X190453928Y-109468571D02*
X190406309Y-109373333D01*
X190311071Y-109325714D01*
X190168214Y-109325714D01*
X190072976Y-109373333D01*
X190025357Y-109468571D01*
X190025357Y-109992380D01*
X189549166Y-109325714D02*
X189549166Y-110325714D01*
X189549166Y-109373333D02*
X189453928Y-109325714D01*
X189263452Y-109325714D01*
X189168214Y-109373333D01*
X189120595Y-109420952D01*
X189072976Y-109516190D01*
X189072976Y-109801904D01*
X189120595Y-109897142D01*
X189168214Y-109944761D01*
X189263452Y-109992380D01*
X189453928Y-109992380D01*
X189549166Y-109944761D01*
X188215833Y-109325714D02*
X188215833Y-109992380D01*
X188644404Y-109325714D02*
X188644404Y-109849523D01*
X188596785Y-109944761D01*
X188501547Y-109992380D01*
X188358690Y-109992380D01*
X188263452Y-109944761D01*
X188215833Y-109897142D01*
X187882500Y-109325714D02*
X187501547Y-109325714D01*
X187739642Y-108992380D02*
X187739642Y-109849523D01*
X187692023Y-109944761D01*
X187596785Y-109992380D01*
X187501547Y-109992380D01*
X186787261Y-109944761D02*
X186882500Y-109992380D01*
X187072976Y-109992380D01*
X187168214Y-109944761D01*
X187215833Y-109849523D01*
X187215833Y-109468571D01*
X187168214Y-109373333D01*
X187072976Y-109325714D01*
X186882500Y-109325714D01*
X186787261Y-109373333D01*
X186739642Y-109468571D01*
X186739642Y-109563809D01*
X187215833Y-109659047D01*
X186311071Y-109992380D02*
X186311071Y-109325714D01*
X186311071Y-109516190D02*
X186263452Y-109420952D01*
X186215833Y-109373333D01*
X186120595Y-109325714D01*
X186025357Y-109325714D01*
X220692023Y-113006666D02*
X220215833Y-113006666D01*
X220787261Y-113292380D02*
X220453928Y-112292380D01*
X220120595Y-113292380D01*
X219644404Y-113292380D02*
X219739642Y-113244761D01*
X219787261Y-113149523D01*
X219787261Y-112292380D01*
X219120595Y-113292380D02*
X219215833Y-113244761D01*
X219263452Y-113149523D01*
X219263452Y-112292380D01*
X217549166Y-113244761D02*
X217644404Y-113292380D01*
X217834880Y-113292380D01*
X217930119Y-113244761D01*
X217977738Y-113197142D01*
X218025357Y-113101904D01*
X218025357Y-112816190D01*
X217977738Y-112720952D01*
X217930119Y-112673333D01*
X217834880Y-112625714D01*
X217644404Y-112625714D01*
X217549166Y-112673333D01*
X216692023Y-113292380D02*
X216692023Y-112768571D01*
X216739642Y-112673333D01*
X216834880Y-112625714D01*
X217025357Y-112625714D01*
X217120595Y-112673333D01*
X216692023Y-113244761D02*
X216787261Y-113292380D01*
X217025357Y-113292380D01*
X217120595Y-113244761D01*
X217168214Y-113149523D01*
X217168214Y-113054285D01*
X217120595Y-112959047D01*
X217025357Y-112911428D01*
X216787261Y-112911428D01*
X216692023Y-112863809D01*
X216215833Y-112625714D02*
X216215833Y-113625714D01*
X216215833Y-112673333D02*
X216120595Y-112625714D01*
X215930119Y-112625714D01*
X215834880Y-112673333D01*
X215787261Y-112720952D01*
X215739642Y-112816190D01*
X215739642Y-113101904D01*
X215787261Y-113197142D01*
X215834880Y-113244761D01*
X215930119Y-113292380D01*
X216120595Y-113292380D01*
X216215833Y-113244761D01*
X214882500Y-113292380D02*
X214882500Y-112768571D01*
X214930119Y-112673333D01*
X215025357Y-112625714D01*
X215215833Y-112625714D01*
X215311071Y-112673333D01*
X214882500Y-113244761D02*
X214977738Y-113292380D01*
X215215833Y-113292380D01*
X215311071Y-113244761D01*
X215358690Y-113149523D01*
X215358690Y-113054285D01*
X215311071Y-112959047D01*
X215215833Y-112911428D01*
X214977738Y-112911428D01*
X214882500Y-112863809D01*
X213977738Y-113244761D02*
X214072976Y-113292380D01*
X214263452Y-113292380D01*
X214358690Y-113244761D01*
X214406309Y-113197142D01*
X214453928Y-113101904D01*
X214453928Y-112816190D01*
X214406309Y-112720952D01*
X214358690Y-112673333D01*
X214263452Y-112625714D01*
X214072976Y-112625714D01*
X213977738Y-112673333D01*
X213549166Y-113292380D02*
X213549166Y-112625714D01*
X213549166Y-112292380D02*
X213596785Y-112340000D01*
X213549166Y-112387619D01*
X213501547Y-112340000D01*
X213549166Y-112292380D01*
X213549166Y-112387619D01*
X213215833Y-112625714D02*
X212834880Y-112625714D01*
X213072976Y-112292380D02*
X213072976Y-113149523D01*
X213025357Y-113244761D01*
X212930119Y-113292380D01*
X212834880Y-113292380D01*
X212358690Y-113292380D02*
X212453928Y-113244761D01*
X212501547Y-113197142D01*
X212549166Y-113101904D01*
X212549166Y-112816190D01*
X212501547Y-112720952D01*
X212453928Y-112673333D01*
X212358690Y-112625714D01*
X212215833Y-112625714D01*
X212120595Y-112673333D01*
X212072976Y-112720952D01*
X212025357Y-112816190D01*
X212025357Y-113101904D01*
X212072976Y-113197142D01*
X212120595Y-113244761D01*
X212215833Y-113292380D01*
X212358690Y-113292380D01*
X211596785Y-113292380D02*
X211596785Y-112625714D01*
X211596785Y-112816190D02*
X211549166Y-112720952D01*
X211501547Y-112673333D01*
X211406309Y-112625714D01*
X211311071Y-112625714D01*
X211025357Y-113244761D02*
X210930119Y-113292380D01*
X210739642Y-113292380D01*
X210644404Y-113244761D01*
X210596785Y-113149523D01*
X210596785Y-113101904D01*
X210644404Y-113006666D01*
X210739642Y-112959047D01*
X210882500Y-112959047D01*
X210977738Y-112911428D01*
X211025357Y-112816190D01*
X211025357Y-112768571D01*
X210977738Y-112673333D01*
X210882500Y-112625714D01*
X210739642Y-112625714D01*
X210644404Y-112673333D01*
X208977738Y-113292380D02*
X208977738Y-112768571D01*
X209025357Y-112673333D01*
X209120595Y-112625714D01*
X209311071Y-112625714D01*
X209406309Y-112673333D01*
X208977738Y-113244761D02*
X209072976Y-113292380D01*
X209311071Y-113292380D01*
X209406309Y-113244761D01*
X209453928Y-113149523D01*
X209453928Y-113054285D01*
X209406309Y-112959047D01*
X209311071Y-112911428D01*
X209072976Y-112911428D01*
X208977738Y-112863809D01*
X208501547Y-113292380D02*
X208501547Y-112625714D01*
X208501547Y-112816190D02*
X208453928Y-112720952D01*
X208406309Y-112673333D01*
X208311071Y-112625714D01*
X208215833Y-112625714D01*
X207501547Y-113244761D02*
X207596785Y-113292380D01*
X207787261Y-113292380D01*
X207882500Y-113244761D01*
X207930119Y-113149523D01*
X207930119Y-112768571D01*
X207882500Y-112673333D01*
X207787261Y-112625714D01*
X207596785Y-112625714D01*
X207501547Y-112673333D01*
X207453928Y-112768571D01*
X207453928Y-112863809D01*
X207930119Y-112959047D01*
X206072976Y-112292380D02*
X205977738Y-112292380D01*
X205882500Y-112340000D01*
X205834880Y-112387619D01*
X205787261Y-112482857D01*
X205739642Y-112673333D01*
X205739642Y-112911428D01*
X205787261Y-113101904D01*
X205834880Y-113197142D01*
X205882500Y-113244761D01*
X205977738Y-113292380D01*
X206072976Y-113292380D01*
X206168214Y-113244761D01*
X206215833Y-113197142D01*
X206263452Y-113101904D01*
X206311071Y-112911428D01*
X206311071Y-112673333D01*
X206263452Y-112482857D01*
X206215833Y-112387619D01*
X206168214Y-112340000D01*
X206072976Y-112292380D01*
X205311071Y-113197142D02*
X205263452Y-113244761D01*
X205311071Y-113292380D01*
X205358690Y-113244761D01*
X205311071Y-113197142D01*
X205311071Y-113292380D01*
X204311071Y-113292380D02*
X204882500Y-113292380D01*
X204596785Y-113292380D02*
X204596785Y-112292380D01*
X204692023Y-112435238D01*
X204787261Y-112530476D01*
X204882500Y-112578095D01*
X203453928Y-112625714D02*
X203453928Y-113292380D01*
X203882500Y-112625714D02*
X203882500Y-113149523D01*
X203834880Y-113244761D01*
X203739642Y-113292380D01*
X203596785Y-113292380D01*
X203501547Y-113244761D01*
X203453928Y-113197142D01*
X202644404Y-112768571D02*
X202977738Y-112768571D01*
X202977738Y-113292380D02*
X202977738Y-112292380D01*
X202501547Y-112292380D01*
X201406309Y-112244761D02*
X202263452Y-113530476D01*
X200549166Y-113292380D02*
X201120595Y-113292380D01*
X200834880Y-113292380D02*
X200834880Y-112292380D01*
X200930119Y-112435238D01*
X201025357Y-112530476D01*
X201120595Y-112578095D01*
X199930119Y-112292380D02*
X199834880Y-112292380D01*
X199739642Y-112340000D01*
X199692023Y-112387619D01*
X199644404Y-112482857D01*
X199596785Y-112673333D01*
X199596785Y-112911428D01*
X199644404Y-113101904D01*
X199692023Y-113197142D01*
X199739642Y-113244761D01*
X199834880Y-113292380D01*
X199930119Y-113292380D01*
X200025357Y-113244761D01*
X200072976Y-113197142D01*
X200120595Y-113101904D01*
X200168214Y-112911428D01*
X200168214Y-112673333D01*
X200120595Y-112482857D01*
X200072976Y-112387619D01*
X200025357Y-112340000D01*
X199930119Y-112292380D01*
X198977738Y-112292380D02*
X198882500Y-112292380D01*
X198787261Y-112340000D01*
X198739642Y-112387619D01*
X198692023Y-112482857D01*
X198644404Y-112673333D01*
X198644404Y-112911428D01*
X198692023Y-113101904D01*
X198739642Y-113197142D01*
X198787261Y-113244761D01*
X198882500Y-113292380D01*
X198977738Y-113292380D01*
X199072976Y-113244761D01*
X199120595Y-113197142D01*
X199168214Y-113101904D01*
X199215833Y-112911428D01*
X199215833Y-112673333D01*
X199168214Y-112482857D01*
X199120595Y-112387619D01*
X199072976Y-112340000D01*
X198977738Y-112292380D01*
X198215833Y-112625714D02*
X198215833Y-113292380D01*
X198215833Y-112720952D02*
X198168214Y-112673333D01*
X198072976Y-112625714D01*
X197930119Y-112625714D01*
X197834880Y-112673333D01*
X197787261Y-112768571D01*
X197787261Y-113292380D01*
X196977738Y-112768571D02*
X197311071Y-112768571D01*
X197311071Y-113292380D02*
X197311071Y-112292380D01*
X196834880Y-112292380D01*
X196453928Y-113197142D02*
X196406309Y-113244761D01*
X196453928Y-113292380D01*
X196501547Y-113244761D01*
X196453928Y-113197142D01*
X196453928Y-113292380D01*
X195025357Y-112292380D02*
X194834880Y-112292380D01*
X194739642Y-112340000D01*
X194644404Y-112435238D01*
X194596785Y-112625714D01*
X194596785Y-112959047D01*
X194644404Y-113149523D01*
X194739642Y-113244761D01*
X194834880Y-113292380D01*
X195025357Y-113292380D01*
X195120595Y-113244761D01*
X195215833Y-113149523D01*
X195263452Y-112959047D01*
X195263452Y-112625714D01*
X195215833Y-112435238D01*
X195120595Y-112340000D01*
X195025357Y-112292380D01*
X194311071Y-112625714D02*
X193930119Y-112625714D01*
X194168214Y-112292380D02*
X194168214Y-113149523D01*
X194120595Y-113244761D01*
X194025357Y-113292380D01*
X193930119Y-113292380D01*
X193596785Y-113292380D02*
X193596785Y-112292380D01*
X193168214Y-113292380D02*
X193168214Y-112768571D01*
X193215833Y-112673333D01*
X193311071Y-112625714D01*
X193453928Y-112625714D01*
X193549166Y-112673333D01*
X193596785Y-112720952D01*
X192311071Y-113244761D02*
X192406309Y-113292380D01*
X192596785Y-113292380D01*
X192692023Y-113244761D01*
X192739642Y-113149523D01*
X192739642Y-112768571D01*
X192692023Y-112673333D01*
X192596785Y-112625714D01*
X192406309Y-112625714D01*
X192311071Y-112673333D01*
X192263452Y-112768571D01*
X192263452Y-112863809D01*
X192739642Y-112959047D01*
X191834880Y-113292380D02*
X191834880Y-112625714D01*
X191834880Y-112816190D02*
X191787261Y-112720952D01*
X191739642Y-112673333D01*
X191644404Y-112625714D01*
X191549166Y-112625714D01*
X190549166Y-112625714D02*
X190311071Y-113292380D01*
X190072976Y-112625714D01*
X189263452Y-113292380D02*
X189263452Y-112768571D01*
X189311071Y-112673333D01*
X189406309Y-112625714D01*
X189596785Y-112625714D01*
X189692023Y-112673333D01*
X189263452Y-113244761D02*
X189358690Y-113292380D01*
X189596785Y-113292380D01*
X189692023Y-113244761D01*
X189739642Y-113149523D01*
X189739642Y-113054285D01*
X189692023Y-112959047D01*
X189596785Y-112911428D01*
X189358690Y-112911428D01*
X189263452Y-112863809D01*
X188644404Y-113292380D02*
X188739642Y-113244761D01*
X188787261Y-113149523D01*
X188787261Y-112292380D01*
X187834880Y-112625714D02*
X187834880Y-113292380D01*
X188263452Y-112625714D02*
X188263452Y-113149523D01*
X188215833Y-113244761D01*
X188120595Y-113292380D01*
X187977738Y-113292380D01*
X187882500Y-113244761D01*
X187834880Y-113197142D01*
X186977738Y-113244761D02*
X187072976Y-113292380D01*
X187263452Y-113292380D01*
X187358690Y-113244761D01*
X187406309Y-113149523D01*
X187406309Y-112768571D01*
X187358690Y-112673333D01*
X187263452Y-112625714D01*
X187072976Y-112625714D01*
X186977738Y-112673333D01*
X186930119Y-112768571D01*
X186930119Y-112863809D01*
X187406309Y-112959047D01*
X186549166Y-113244761D02*
X186453928Y-113292380D01*
X186263452Y-113292380D01*
X186168214Y-113244761D01*
X186120595Y-113149523D01*
X186120595Y-113101904D01*
X186168214Y-113006666D01*
X186263452Y-112959047D01*
X186406309Y-112959047D01*
X186501547Y-112911428D01*
X186549166Y-112816190D01*
X186549166Y-112768571D01*
X186501547Y-112673333D01*
X186406309Y-112625714D01*
X186263452Y-112625714D01*
X186168214Y-112673333D01*
X184501547Y-113292380D02*
X184501547Y-112768571D01*
X184549166Y-112673333D01*
X184644404Y-112625714D01*
X184834880Y-112625714D01*
X184930119Y-112673333D01*
X184501547Y-113244761D02*
X184596785Y-113292380D01*
X184834880Y-113292380D01*
X184930119Y-113244761D01*
X184977738Y-113149523D01*
X184977738Y-113054285D01*
X184930119Y-112959047D01*
X184834880Y-112911428D01*
X184596785Y-112911428D01*
X184501547Y-112863809D01*
X184072976Y-113244761D02*
X183977738Y-113292380D01*
X183787261Y-113292380D01*
X183692023Y-113244761D01*
X183644404Y-113149523D01*
X183644404Y-113101904D01*
X183692023Y-113006666D01*
X183787261Y-112959047D01*
X183930119Y-112959047D01*
X184025357Y-112911428D01*
X184072976Y-112816190D01*
X184072976Y-112768571D01*
X184025357Y-112673333D01*
X183930119Y-112625714D01*
X183787261Y-112625714D01*
X183692023Y-112673333D01*
X182453928Y-113292380D02*
X182453928Y-112625714D01*
X182453928Y-112720952D02*
X182406309Y-112673333D01*
X182311071Y-112625714D01*
X182168214Y-112625714D01*
X182072976Y-112673333D01*
X182025357Y-112768571D01*
X182025357Y-113292380D01*
X182025357Y-112768571D02*
X181977738Y-112673333D01*
X181882500Y-112625714D01*
X181739642Y-112625714D01*
X181644404Y-112673333D01*
X181596785Y-112768571D01*
X181596785Y-113292380D01*
X180692023Y-113292380D02*
X180692023Y-112768571D01*
X180739642Y-112673333D01*
X180834880Y-112625714D01*
X181025357Y-112625714D01*
X181120595Y-112673333D01*
X180692023Y-113244761D02*
X180787261Y-113292380D01*
X181025357Y-113292380D01*
X181120595Y-113244761D01*
X181168214Y-113149523D01*
X181168214Y-113054285D01*
X181120595Y-112959047D01*
X181025357Y-112911428D01*
X180787261Y-112911428D01*
X180692023Y-112863809D01*
X180215833Y-113292380D02*
X180215833Y-112625714D01*
X180215833Y-112816190D02*
X180168214Y-112720952D01*
X180120595Y-112673333D01*
X180025357Y-112625714D01*
X179930119Y-112625714D01*
X179596785Y-113292380D02*
X179596785Y-112292380D01*
X179501547Y-112911428D02*
X179215833Y-113292380D01*
X179215833Y-112625714D02*
X179596785Y-113006666D01*
X178406309Y-113244761D02*
X178501547Y-113292380D01*
X178692023Y-113292380D01*
X178787261Y-113244761D01*
X178834880Y-113149523D01*
X178834880Y-112768571D01*
X178787261Y-112673333D01*
X178692023Y-112625714D01*
X178501547Y-112625714D01*
X178406309Y-112673333D01*
X178358690Y-112768571D01*
X178358690Y-112863809D01*
X178834880Y-112959047D01*
X177501547Y-113292380D02*
X177501547Y-112292380D01*
X177501547Y-113244761D02*
X177596785Y-113292380D01*
X177787261Y-113292380D01*
X177882500Y-113244761D01*
X177930119Y-113197142D01*
X177977738Y-113101904D01*
X177977738Y-112816190D01*
X177930119Y-112720952D01*
X177882500Y-112673333D01*
X177787261Y-112625714D01*
X177596785Y-112625714D01*
X177501547Y-112673333D01*
X177025357Y-113197142D02*
X176977738Y-113244761D01*
X177025357Y-113292380D01*
X177072976Y-113244761D01*
X177025357Y-113197142D01*
X177025357Y-113292380D01*
X220644404Y-116592380D02*
X220644404Y-115592380D01*
X220644404Y-115973333D02*
X220549166Y-115925714D01*
X220358690Y-115925714D01*
X220263452Y-115973333D01*
X220215833Y-116020952D01*
X220168214Y-116116190D01*
X220168214Y-116401904D01*
X220215833Y-116497142D01*
X220263452Y-116544761D01*
X220358690Y-116592380D01*
X220549166Y-116592380D01*
X220644404Y-116544761D01*
X219739642Y-116592380D02*
X219739642Y-115925714D01*
X219739642Y-116116190D02*
X219692023Y-116020952D01*
X219644404Y-115973333D01*
X219549166Y-115925714D01*
X219453928Y-115925714D01*
X218739642Y-116544761D02*
X218834880Y-116592380D01*
X219025357Y-116592380D01*
X219120595Y-116544761D01*
X219168214Y-116449523D01*
X219168214Y-116068571D01*
X219120595Y-115973333D01*
X219025357Y-115925714D01*
X218834880Y-115925714D01*
X218739642Y-115973333D01*
X218692023Y-116068571D01*
X218692023Y-116163809D01*
X219168214Y-116259047D01*
X217834880Y-116592380D02*
X217834880Y-116068571D01*
X217882500Y-115973333D01*
X217977738Y-115925714D01*
X218168214Y-115925714D01*
X218263452Y-115973333D01*
X217834880Y-116544761D02*
X217930119Y-116592380D01*
X218168214Y-116592380D01*
X218263452Y-116544761D01*
X218311071Y-116449523D01*
X218311071Y-116354285D01*
X218263452Y-116259047D01*
X218168214Y-116211428D01*
X217930119Y-116211428D01*
X217834880Y-116163809D01*
X216930119Y-116592380D02*
X216930119Y-115592380D01*
X216930119Y-116544761D02*
X217025357Y-116592380D01*
X217215833Y-116592380D01*
X217311071Y-116544761D01*
X217358690Y-116497142D01*
X217406309Y-116401904D01*
X217406309Y-116116190D01*
X217358690Y-116020952D01*
X217311071Y-115973333D01*
X217215833Y-115925714D01*
X217025357Y-115925714D01*
X216930119Y-115973333D01*
X216311071Y-116020952D02*
X216406309Y-115973333D01*
X216453928Y-115925714D01*
X216501547Y-115830476D01*
X216501547Y-115782857D01*
X216453928Y-115687619D01*
X216406309Y-115640000D01*
X216311071Y-115592380D01*
X216120595Y-115592380D01*
X216025357Y-115640000D01*
X215977738Y-115687619D01*
X215930119Y-115782857D01*
X215930119Y-115830476D01*
X215977738Y-115925714D01*
X216025357Y-115973333D01*
X216120595Y-116020952D01*
X216311071Y-116020952D01*
X216406309Y-116068571D01*
X216453928Y-116116190D01*
X216501547Y-116211428D01*
X216501547Y-116401904D01*
X216453928Y-116497142D01*
X216406309Y-116544761D01*
X216311071Y-116592380D01*
X216120595Y-116592380D01*
X216025357Y-116544761D01*
X215977738Y-116497142D01*
X215930119Y-116401904D01*
X215930119Y-116211428D01*
X215977738Y-116116190D01*
X216025357Y-116068571D01*
X216120595Y-116020952D01*
X215311071Y-115592380D02*
X215215833Y-115592380D01*
X215120595Y-115640000D01*
X215072976Y-115687619D01*
X215025357Y-115782857D01*
X214977738Y-115973333D01*
X214977738Y-116211428D01*
X215025357Y-116401904D01*
X215072976Y-116497142D01*
X215120595Y-116544761D01*
X215215833Y-116592380D01*
X215311071Y-116592380D01*
X215406309Y-116544761D01*
X215453928Y-116497142D01*
X215501547Y-116401904D01*
X215549166Y-116211428D01*
X215549166Y-115973333D01*
X215501547Y-115782857D01*
X215453928Y-115687619D01*
X215406309Y-115640000D01*
X215311071Y-115592380D01*
X214549166Y-116497142D02*
X214501547Y-116544761D01*
X214549166Y-116592380D01*
X214596785Y-116544761D01*
X214549166Y-116497142D01*
X214549166Y-116592380D01*
X213644404Y-116544761D02*
X213739642Y-116592380D01*
X213930119Y-116592380D01*
X214025357Y-116544761D01*
X214072976Y-116497142D01*
X214120595Y-116401904D01*
X214120595Y-116116190D01*
X214072976Y-116020952D01*
X214025357Y-115973333D01*
X213930119Y-115925714D01*
X213739642Y-115925714D01*
X213644404Y-115973333D01*
X213072976Y-116592380D02*
X213168214Y-116544761D01*
X213215833Y-116497142D01*
X213263452Y-116401904D01*
X213263452Y-116116190D01*
X213215833Y-116020952D01*
X213168214Y-115973333D01*
X213072976Y-115925714D01*
X212930119Y-115925714D01*
X212834880Y-115973333D01*
X212787261Y-116020952D01*
X212739642Y-116116190D01*
X212739642Y-116401904D01*
X212787261Y-116497142D01*
X212834880Y-116544761D01*
X212930119Y-116592380D01*
X213072976Y-116592380D01*
X212311071Y-116592380D02*
X212311071Y-115925714D01*
X212311071Y-116020952D02*
X212263452Y-115973333D01*
X212168214Y-115925714D01*
X212025357Y-115925714D01*
X211930119Y-115973333D01*
X211882500Y-116068571D01*
X211882500Y-116592380D01*
X211882500Y-116068571D02*
X211834880Y-115973333D01*
X211739642Y-115925714D01*
X211596785Y-115925714D01*
X211501547Y-115973333D01*
X211453928Y-116068571D01*
X211453928Y-116592380D01*
X207930119Y-116211428D02*
X207168214Y-116211428D01*
X203644404Y-116592380D02*
X203644404Y-115592380D01*
X203644404Y-115973333D02*
X203549166Y-115925714D01*
X203358690Y-115925714D01*
X203263452Y-115973333D01*
X203215833Y-116020952D01*
X203168214Y-116116190D01*
X203168214Y-116401904D01*
X203215833Y-116497142D01*
X203263452Y-116544761D01*
X203358690Y-116592380D01*
X203549166Y-116592380D01*
X203644404Y-116544761D01*
X202739642Y-116592380D02*
X202739642Y-115925714D01*
X202739642Y-116116190D02*
X202692023Y-116020952D01*
X202644404Y-115973333D01*
X202549166Y-115925714D01*
X202453928Y-115925714D01*
X201739642Y-116544761D02*
X201834880Y-116592380D01*
X202025357Y-116592380D01*
X202120595Y-116544761D01*
X202168214Y-116449523D01*
X202168214Y-116068571D01*
X202120595Y-115973333D01*
X202025357Y-115925714D01*
X201834880Y-115925714D01*
X201739642Y-115973333D01*
X201692023Y-116068571D01*
X201692023Y-116163809D01*
X202168214Y-116259047D01*
X200834880Y-116592380D02*
X200834880Y-116068571D01*
X200882500Y-115973333D01*
X200977738Y-115925714D01*
X201168214Y-115925714D01*
X201263452Y-115973333D01*
X200834880Y-116544761D02*
X200930119Y-116592380D01*
X201168214Y-116592380D01*
X201263452Y-116544761D01*
X201311071Y-116449523D01*
X201311071Y-116354285D01*
X201263452Y-116259047D01*
X201168214Y-116211428D01*
X200930119Y-116211428D01*
X200834880Y-116163809D01*
X199930119Y-116592380D02*
X199930119Y-115592380D01*
X199930119Y-116544761D02*
X200025357Y-116592380D01*
X200215833Y-116592380D01*
X200311071Y-116544761D01*
X200358690Y-116497142D01*
X200406309Y-116401904D01*
X200406309Y-116116190D01*
X200358690Y-116020952D01*
X200311071Y-115973333D01*
X200215833Y-115925714D01*
X200025357Y-115925714D01*
X199930119Y-115973333D01*
X199311071Y-116020952D02*
X199406309Y-115973333D01*
X199453928Y-115925714D01*
X199501547Y-115830476D01*
X199501547Y-115782857D01*
X199453928Y-115687619D01*
X199406309Y-115640000D01*
X199311071Y-115592380D01*
X199120595Y-115592380D01*
X199025357Y-115640000D01*
X198977738Y-115687619D01*
X198930119Y-115782857D01*
X198930119Y-115830476D01*
X198977738Y-115925714D01*
X199025357Y-115973333D01*
X199120595Y-116020952D01*
X199311071Y-116020952D01*
X199406309Y-116068571D01*
X199453928Y-116116190D01*
X199501547Y-116211428D01*
X199501547Y-116401904D01*
X199453928Y-116497142D01*
X199406309Y-116544761D01*
X199311071Y-116592380D01*
X199120595Y-116592380D01*
X199025357Y-116544761D01*
X198977738Y-116497142D01*
X198930119Y-116401904D01*
X198930119Y-116211428D01*
X198977738Y-116116190D01*
X199025357Y-116068571D01*
X199120595Y-116020952D01*
X198311071Y-115592380D02*
X198215833Y-115592380D01*
X198120595Y-115640000D01*
X198072976Y-115687619D01*
X198025357Y-115782857D01*
X197977738Y-115973333D01*
X197977738Y-116211428D01*
X198025357Y-116401904D01*
X198072976Y-116497142D01*
X198120595Y-116544761D01*
X198215833Y-116592380D01*
X198311071Y-116592380D01*
X198406309Y-116544761D01*
X198453928Y-116497142D01*
X198501547Y-116401904D01*
X198549166Y-116211428D01*
X198549166Y-115973333D01*
X198501547Y-115782857D01*
X198453928Y-115687619D01*
X198406309Y-115640000D01*
X198311071Y-115592380D01*
X196930119Y-116116190D02*
X196977738Y-116068571D01*
X197072976Y-116020952D01*
X197168214Y-116020952D01*
X197263452Y-116068571D01*
X197311071Y-116116190D01*
X197358690Y-116211428D01*
X197358690Y-116306666D01*
X197311071Y-116401904D01*
X197263452Y-116449523D01*
X197168214Y-116497142D01*
X197072976Y-116497142D01*
X196977738Y-116449523D01*
X196930119Y-116401904D01*
X196930119Y-116020952D02*
X196930119Y-116401904D01*
X196882500Y-116449523D01*
X196834880Y-116449523D01*
X196739642Y-116401904D01*
X196692023Y-116306666D01*
X196692023Y-116068571D01*
X196787261Y-115925714D01*
X196930119Y-115830476D01*
X197120595Y-115782857D01*
X197311071Y-115830476D01*
X197453928Y-115925714D01*
X197549166Y-116068571D01*
X197596785Y-116259047D01*
X197549166Y-116449523D01*
X197453928Y-116592380D01*
X197311071Y-116687619D01*
X197120595Y-116735238D01*
X196930119Y-116687619D01*
X196787261Y-116592380D01*
X196263452Y-116592380D02*
X196263452Y-115925714D01*
X196263452Y-116020952D02*
X196215833Y-115973333D01*
X196120595Y-115925714D01*
X195977738Y-115925714D01*
X195882500Y-115973333D01*
X195834880Y-116068571D01*
X195834880Y-116592380D01*
X195834880Y-116068571D02*
X195787261Y-115973333D01*
X195692023Y-115925714D01*
X195549166Y-115925714D01*
X195453928Y-115973333D01*
X195406309Y-116068571D01*
X195406309Y-116592380D01*
X194977738Y-116544761D02*
X194882500Y-116592380D01*
X194692023Y-116592380D01*
X194596785Y-116544761D01*
X194549166Y-116449523D01*
X194549166Y-116401904D01*
X194596785Y-116306666D01*
X194692023Y-116259047D01*
X194834880Y-116259047D01*
X194930119Y-116211428D01*
X194977738Y-116116190D01*
X194977738Y-116068571D01*
X194930119Y-115973333D01*
X194834880Y-115925714D01*
X194692023Y-115925714D01*
X194596785Y-115973333D01*
X194263452Y-115925714D02*
X193882500Y-115925714D01*
X194120595Y-115592380D02*
X194120595Y-116449523D01*
X194072976Y-116544761D01*
X193977738Y-116592380D01*
X193882500Y-116592380D01*
X193120595Y-116592380D02*
X193120595Y-115592380D01*
X193120595Y-116544761D02*
X193215833Y-116592380D01*
X193406309Y-116592380D01*
X193501547Y-116544761D01*
X193549166Y-116497142D01*
X193596785Y-116401904D01*
X193596785Y-116116190D01*
X193549166Y-116020952D01*
X193501547Y-115973333D01*
X193406309Y-115925714D01*
X193215833Y-115925714D01*
X193120595Y-115973333D01*
X192644404Y-115925714D02*
X192644404Y-116592380D01*
X192644404Y-116020952D02*
X192596785Y-115973333D01*
X192501547Y-115925714D01*
X192358690Y-115925714D01*
X192263452Y-115973333D01*
X192215833Y-116068571D01*
X192215833Y-116592380D01*
X191739642Y-116497142D02*
X191692023Y-116544761D01*
X191739642Y-116592380D01*
X191787261Y-116544761D01*
X191739642Y-116497142D01*
X191739642Y-116592380D01*
X191311071Y-116544761D02*
X191215833Y-116592380D01*
X191025357Y-116592380D01*
X190930119Y-116544761D01*
X190882500Y-116449523D01*
X190882500Y-116401904D01*
X190930119Y-116306666D01*
X191025357Y-116259047D01*
X191168214Y-116259047D01*
X191263452Y-116211428D01*
X191311071Y-116116190D01*
X191311071Y-116068571D01*
X191263452Y-115973333D01*
X191168214Y-115925714D01*
X191025357Y-115925714D01*
X190930119Y-115973333D01*
X190311071Y-116592380D02*
X190406309Y-116544761D01*
X190453928Y-116497142D01*
X190501547Y-116401904D01*
X190501547Y-116116190D01*
X190453928Y-116020952D01*
X190406309Y-115973333D01*
X190311071Y-115925714D01*
X190168214Y-115925714D01*
X190072976Y-115973333D01*
X190025357Y-116020952D01*
X189977738Y-116116190D01*
X189977738Y-116401904D01*
X190025357Y-116497142D01*
X190072976Y-116544761D01*
X190168214Y-116592380D01*
X190311071Y-116592380D01*
X189120595Y-116544761D02*
X189215833Y-116592380D01*
X189406309Y-116592380D01*
X189501547Y-116544761D01*
X189549166Y-116497142D01*
X189596785Y-116401904D01*
X189596785Y-116116190D01*
X189549166Y-116020952D01*
X189501547Y-115973333D01*
X189406309Y-115925714D01*
X189215833Y-115925714D01*
X189120595Y-115973333D01*
X188692023Y-116592380D02*
X188692023Y-115925714D01*
X188692023Y-115592380D02*
X188739642Y-115640000D01*
X188692023Y-115687619D01*
X188644404Y-115640000D01*
X188692023Y-115592380D01*
X188692023Y-115687619D01*
X187787261Y-116592380D02*
X187787261Y-116068571D01*
X187834880Y-115973333D01*
X187930119Y-115925714D01*
X188120595Y-115925714D01*
X188215833Y-115973333D01*
X187787261Y-116544761D02*
X187882500Y-116592380D01*
X188120595Y-116592380D01*
X188215833Y-116544761D01*
X188263452Y-116449523D01*
X188263452Y-116354285D01*
X188215833Y-116259047D01*
X188120595Y-116211428D01*
X187882500Y-116211428D01*
X187787261Y-116163809D01*
X187168214Y-116592380D02*
X187263452Y-116544761D01*
X187311071Y-116449523D01*
X187311071Y-115592380D01*
X220215833Y-117575714D02*
X220215833Y-118385238D01*
X220263452Y-118480476D01*
X220311071Y-118528095D01*
X220406309Y-118575714D01*
X220549166Y-118575714D01*
X220644404Y-118528095D01*
X220215833Y-118194761D02*
X220311071Y-118242380D01*
X220501547Y-118242380D01*
X220596785Y-118194761D01*
X220644404Y-118147142D01*
X220692023Y-118051904D01*
X220692023Y-117766190D01*
X220644404Y-117670952D01*
X220596785Y-117623333D01*
X220501547Y-117575714D01*
X220311071Y-117575714D01*
X220215833Y-117623333D01*
X219739642Y-118242380D02*
X219739642Y-117575714D01*
X219739642Y-117242380D02*
X219787261Y-117290000D01*
X219739642Y-117337619D01*
X219692023Y-117290000D01*
X219739642Y-117242380D01*
X219739642Y-117337619D01*
X219406309Y-117575714D02*
X219025357Y-117575714D01*
X219263452Y-117242380D02*
X219263452Y-118099523D01*
X219215833Y-118194761D01*
X219120595Y-118242380D01*
X219025357Y-118242380D01*
X218692023Y-118242380D02*
X218692023Y-117242380D01*
X218263452Y-118242380D02*
X218263452Y-117718571D01*
X218311071Y-117623333D01*
X218406309Y-117575714D01*
X218549166Y-117575714D01*
X218644404Y-117623333D01*
X218692023Y-117670952D01*
X217358690Y-117575714D02*
X217358690Y-118242380D01*
X217787261Y-117575714D02*
X217787261Y-118099523D01*
X217739642Y-118194761D01*
X217644404Y-118242380D01*
X217501547Y-118242380D01*
X217406309Y-118194761D01*
X217358690Y-118147142D01*
X216882500Y-118242380D02*
X216882500Y-117242380D01*
X216882500Y-117623333D02*
X216787261Y-117575714D01*
X216596785Y-117575714D01*
X216501547Y-117623333D01*
X216453928Y-117670952D01*
X216406309Y-117766190D01*
X216406309Y-118051904D01*
X216453928Y-118147142D01*
X216501547Y-118194761D01*
X216596785Y-118242380D01*
X216787261Y-118242380D01*
X216882500Y-118194761D01*
X215977738Y-118147142D02*
X215930119Y-118194761D01*
X215977738Y-118242380D01*
X216025357Y-118194761D01*
X215977738Y-118147142D01*
X215977738Y-118242380D01*
X215072976Y-118194761D02*
X215168214Y-118242380D01*
X215358690Y-118242380D01*
X215453928Y-118194761D01*
X215501547Y-118147142D01*
X215549166Y-118051904D01*
X215549166Y-117766190D01*
X215501547Y-117670952D01*
X215453928Y-117623333D01*
X215358690Y-117575714D01*
X215168214Y-117575714D01*
X215072976Y-117623333D01*
X214501547Y-118242380D02*
X214596785Y-118194761D01*
X214644404Y-118147142D01*
X214692023Y-118051904D01*
X214692023Y-117766190D01*
X214644404Y-117670952D01*
X214596785Y-117623333D01*
X214501547Y-117575714D01*
X214358690Y-117575714D01*
X214263452Y-117623333D01*
X214215833Y-117670952D01*
X214168214Y-117766190D01*
X214168214Y-118051904D01*
X214215833Y-118147142D01*
X214263452Y-118194761D01*
X214358690Y-118242380D01*
X214501547Y-118242380D01*
X213739642Y-118242380D02*
X213739642Y-117575714D01*
X213739642Y-117670952D02*
X213692023Y-117623333D01*
X213596785Y-117575714D01*
X213453928Y-117575714D01*
X213358690Y-117623333D01*
X213311071Y-117718571D01*
X213311071Y-118242380D01*
X213311071Y-117718571D02*
X213263452Y-117623333D01*
X213168214Y-117575714D01*
X213025357Y-117575714D01*
X212930119Y-117623333D01*
X212882500Y-117718571D01*
X212882500Y-118242380D01*
X211692023Y-117194761D02*
X212549166Y-118480476D01*
X211358690Y-118242380D02*
X211358690Y-117242380D01*
X211358690Y-117623333D02*
X211263452Y-117575714D01*
X211072976Y-117575714D01*
X210977738Y-117623333D01*
X210930119Y-117670952D01*
X210882500Y-117766190D01*
X210882500Y-118051904D01*
X210930119Y-118147142D01*
X210977738Y-118194761D01*
X211072976Y-118242380D01*
X211263452Y-118242380D01*
X211358690Y-118194761D01*
X210453928Y-118242380D02*
X210453928Y-117575714D01*
X210453928Y-117766190D02*
X210406309Y-117670952D01*
X210358690Y-117623333D01*
X210263452Y-117575714D01*
X210168214Y-117575714D01*
X209453928Y-118194761D02*
X209549166Y-118242380D01*
X209739642Y-118242380D01*
X209834880Y-118194761D01*
X209882500Y-118099523D01*
X209882500Y-117718571D01*
X209834880Y-117623333D01*
X209739642Y-117575714D01*
X209549166Y-117575714D01*
X209453928Y-117623333D01*
X209406309Y-117718571D01*
X209406309Y-117813809D01*
X209882500Y-117909047D01*
X208549166Y-118242380D02*
X208549166Y-117718571D01*
X208596785Y-117623333D01*
X208692023Y-117575714D01*
X208882500Y-117575714D01*
X208977738Y-117623333D01*
X208549166Y-118194761D02*
X208644404Y-118242380D01*
X208882500Y-118242380D01*
X208977738Y-118194761D01*
X209025357Y-118099523D01*
X209025357Y-118004285D01*
X208977738Y-117909047D01*
X208882500Y-117861428D01*
X208644404Y-117861428D01*
X208549166Y-117813809D01*
X207644404Y-118242380D02*
X207644404Y-117242380D01*
X207644404Y-118194761D02*
X207739642Y-118242380D01*
X207930119Y-118242380D01*
X208025357Y-118194761D01*
X208072976Y-118147142D01*
X208120595Y-118051904D01*
X208120595Y-117766190D01*
X208072976Y-117670952D01*
X208025357Y-117623333D01*
X207930119Y-117575714D01*
X207739642Y-117575714D01*
X207644404Y-117623333D01*
X207025357Y-117670952D02*
X207120595Y-117623333D01*
X207168214Y-117575714D01*
X207215833Y-117480476D01*
X207215833Y-117432857D01*
X207168214Y-117337619D01*
X207120595Y-117290000D01*
X207025357Y-117242380D01*
X206834880Y-117242380D01*
X206739642Y-117290000D01*
X206692023Y-117337619D01*
X206644404Y-117432857D01*
X206644404Y-117480476D01*
X206692023Y-117575714D01*
X206739642Y-117623333D01*
X206834880Y-117670952D01*
X207025357Y-117670952D01*
X207120595Y-117718571D01*
X207168214Y-117766190D01*
X207215833Y-117861428D01*
X207215833Y-118051904D01*
X207168214Y-118147142D01*
X207120595Y-118194761D01*
X207025357Y-118242380D01*
X206834880Y-118242380D01*
X206739642Y-118194761D01*
X206692023Y-118147142D01*
X206644404Y-118051904D01*
X206644404Y-117861428D01*
X206692023Y-117766190D01*
X206739642Y-117718571D01*
X206834880Y-117670952D01*
X206025357Y-117242380D02*
X205930119Y-117242380D01*
X205834880Y-117290000D01*
X205787261Y-117337619D01*
X205739642Y-117432857D01*
X205692023Y-117623333D01*
X205692023Y-117861428D01*
X205739642Y-118051904D01*
X205787261Y-118147142D01*
X205834880Y-118194761D01*
X205930119Y-118242380D01*
X206025357Y-118242380D01*
X206120595Y-118194761D01*
X206168214Y-118147142D01*
X206215833Y-118051904D01*
X206263452Y-117861428D01*
X206263452Y-117623333D01*
X206215833Y-117432857D01*
X206168214Y-117337619D01*
X206120595Y-117290000D01*
X206025357Y-117242380D01*
X158948333Y-174182380D02*
X158948333Y-174896666D01*
X158995952Y-175039523D01*
X159091190Y-175134761D01*
X159234047Y-175182380D01*
X159329285Y-175182380D01*
X158472142Y-175182380D02*
X158472142Y-174182380D01*
X158091190Y-174182380D01*
X157995952Y-174230000D01*
X157948333Y-174277619D01*
X157900714Y-174372857D01*
X157900714Y-174515714D01*
X157948333Y-174610952D01*
X157995952Y-174658571D01*
X158091190Y-174706190D01*
X158472142Y-174706190D01*
X157519761Y-174277619D02*
X157472142Y-174230000D01*
X157376904Y-174182380D01*
X157138809Y-174182380D01*
X157043571Y-174230000D01*
X156995952Y-174277619D01*
X156948333Y-174372857D01*
X156948333Y-174468095D01*
X156995952Y-174610952D01*
X157567380Y-175182380D01*
X156948333Y-175182380D01*
M02*
