G04 #@! TF.GenerationSoftware,KiCad,Pcbnew,(5.1.12)-1*
G04 #@! TF.CreationDate,2023-07-18T15:57:14+01:00*
G04 #@! TF.ProjectId,CPCRAM,43504352-414d-42e6-9b69-6361645f7063,rev?*
G04 #@! TF.SameCoordinates,Original*
G04 #@! TF.FileFunction,Legend,Top*
G04 #@! TF.FilePolarity,Positive*
%FSLAX46Y46*%
G04 Gerber Fmt 4.6, Leading zero omitted, Abs format (unit mm)*
G04 Created by KiCad (PCBNEW (5.1.12)-1) date 2023-07-18 15:57:14*
%MOMM*%
%LPD*%
G01*
G04 APERTURE LIST*
%ADD10C,0.150000*%
%ADD11C,0.250000*%
%ADD12C,0.200000*%
%ADD13C,0.300000*%
%ADD14C,0.120000*%
G04 APERTURE END LIST*
D10*
X228688333Y-110577380D02*
X229259761Y-110577380D01*
X228974047Y-111577380D02*
X228974047Y-110577380D01*
X229735952Y-111577380D02*
X229640714Y-111529761D01*
X229593095Y-111482142D01*
X229545476Y-111386904D01*
X229545476Y-111101190D01*
X229593095Y-111005952D01*
X229640714Y-110958333D01*
X229735952Y-110910714D01*
X229878809Y-110910714D01*
X229974047Y-110958333D01*
X230021666Y-111005952D01*
X230069285Y-111101190D01*
X230069285Y-111386904D01*
X230021666Y-111482142D01*
X229974047Y-111529761D01*
X229878809Y-111577380D01*
X229735952Y-111577380D01*
X231831190Y-111577380D02*
X231497857Y-111101190D01*
X231259761Y-111577380D02*
X231259761Y-110577380D01*
X231640714Y-110577380D01*
X231735952Y-110625000D01*
X231783571Y-110672619D01*
X231831190Y-110767857D01*
X231831190Y-110910714D01*
X231783571Y-111005952D01*
X231735952Y-111053571D01*
X231640714Y-111101190D01*
X231259761Y-111101190D01*
X232212142Y-111291666D02*
X232688333Y-111291666D01*
X232116904Y-111577380D02*
X232450238Y-110577380D01*
X232783571Y-111577380D01*
X233116904Y-111577380D02*
X233116904Y-110577380D01*
X233450238Y-111291666D01*
X233783571Y-110577380D01*
X233783571Y-111577380D01*
X235021666Y-111577380D02*
X235021666Y-110577380D01*
X235021666Y-110958333D02*
X235116904Y-110910714D01*
X235307380Y-110910714D01*
X235402619Y-110958333D01*
X235450238Y-111005952D01*
X235497857Y-111101190D01*
X235497857Y-111386904D01*
X235450238Y-111482142D01*
X235402619Y-111529761D01*
X235307380Y-111577380D01*
X235116904Y-111577380D01*
X235021666Y-111529761D01*
X236069285Y-111577380D02*
X235974047Y-111529761D01*
X235926428Y-111482142D01*
X235878809Y-111386904D01*
X235878809Y-111101190D01*
X235926428Y-111005952D01*
X235974047Y-110958333D01*
X236069285Y-110910714D01*
X236212142Y-110910714D01*
X236307380Y-110958333D01*
X236355000Y-111005952D01*
X236402619Y-111101190D01*
X236402619Y-111386904D01*
X236355000Y-111482142D01*
X236307380Y-111529761D01*
X236212142Y-111577380D01*
X236069285Y-111577380D01*
X236831190Y-110910714D02*
X236831190Y-111577380D01*
X236831190Y-111005952D02*
X236878809Y-110958333D01*
X236974047Y-110910714D01*
X237116904Y-110910714D01*
X237212142Y-110958333D01*
X237259761Y-111053571D01*
X237259761Y-111577380D01*
X237593095Y-110910714D02*
X237974047Y-110910714D01*
X237735952Y-110577380D02*
X237735952Y-111434523D01*
X237783571Y-111529761D01*
X237878809Y-111577380D01*
X237974047Y-111577380D01*
X238307380Y-111577380D02*
X238307380Y-110910714D01*
X238307380Y-111101190D02*
X238355000Y-111005952D01*
X238402619Y-110958333D01*
X238497857Y-110910714D01*
X238593095Y-110910714D01*
X239069285Y-111577380D02*
X238974047Y-111529761D01*
X238926428Y-111482142D01*
X238878809Y-111386904D01*
X238878809Y-111101190D01*
X238926428Y-111005952D01*
X238974047Y-110958333D01*
X239069285Y-110910714D01*
X239212142Y-110910714D01*
X239307380Y-110958333D01*
X239355000Y-111005952D01*
X239402619Y-111101190D01*
X239402619Y-111386904D01*
X239355000Y-111482142D01*
X239307380Y-111529761D01*
X239212142Y-111577380D01*
X239069285Y-111577380D01*
X239974047Y-111577380D02*
X239878809Y-111529761D01*
X239831190Y-111434523D01*
X239831190Y-110577380D01*
X241116904Y-111577380D02*
X241116904Y-110577380D01*
X241116904Y-110958333D02*
X241212142Y-110910714D01*
X241402619Y-110910714D01*
X241497857Y-110958333D01*
X241545476Y-111005952D01*
X241593095Y-111101190D01*
X241593095Y-111386904D01*
X241545476Y-111482142D01*
X241497857Y-111529761D01*
X241402619Y-111577380D01*
X241212142Y-111577380D01*
X241116904Y-111529761D01*
X242164523Y-111577380D02*
X242069285Y-111529761D01*
X242021666Y-111482142D01*
X241974047Y-111386904D01*
X241974047Y-111101190D01*
X242021666Y-111005952D01*
X242069285Y-110958333D01*
X242164523Y-110910714D01*
X242307380Y-110910714D01*
X242402619Y-110958333D01*
X242450238Y-111005952D01*
X242497857Y-111101190D01*
X242497857Y-111386904D01*
X242450238Y-111482142D01*
X242402619Y-111529761D01*
X242307380Y-111577380D01*
X242164523Y-111577380D01*
X243355000Y-111577380D02*
X243355000Y-111053571D01*
X243307380Y-110958333D01*
X243212142Y-110910714D01*
X243021666Y-110910714D01*
X242926428Y-110958333D01*
X243355000Y-111529761D02*
X243259761Y-111577380D01*
X243021666Y-111577380D01*
X242926428Y-111529761D01*
X242878809Y-111434523D01*
X242878809Y-111339285D01*
X242926428Y-111244047D01*
X243021666Y-111196428D01*
X243259761Y-111196428D01*
X243355000Y-111148809D01*
X243831190Y-111577380D02*
X243831190Y-110910714D01*
X243831190Y-111101190D02*
X243878809Y-111005952D01*
X243926428Y-110958333D01*
X244021666Y-110910714D01*
X244116904Y-110910714D01*
X244878809Y-111577380D02*
X244878809Y-110577380D01*
X244878809Y-111529761D02*
X244783571Y-111577380D01*
X244593095Y-111577380D01*
X244497857Y-111529761D01*
X244450238Y-111482142D01*
X244402619Y-111386904D01*
X244402619Y-111101190D01*
X244450238Y-111005952D01*
X244497857Y-110958333D01*
X244593095Y-110910714D01*
X244783571Y-110910714D01*
X244878809Y-110958333D01*
X246515476Y-125887857D02*
X246467857Y-125983095D01*
X246467857Y-126173571D01*
X246515476Y-126268809D01*
X246610714Y-126364047D01*
X246705952Y-126411666D01*
X246896428Y-126411666D01*
X246991666Y-126364047D01*
X247086904Y-126268809D01*
X247134523Y-126173571D01*
X247134523Y-125983095D01*
X247086904Y-125887857D01*
X246134523Y-126078333D02*
X246182142Y-126316428D01*
X246325000Y-126554523D01*
X246563095Y-126697380D01*
X246801190Y-126745000D01*
X247039285Y-126697380D01*
X247277380Y-126554523D01*
X247420238Y-126316428D01*
X247467857Y-126078333D01*
X247420238Y-125840238D01*
X247277380Y-125602142D01*
X247039285Y-125459285D01*
X246801190Y-125411666D01*
X246563095Y-125459285D01*
X246325000Y-125602142D01*
X246182142Y-125840238D01*
X246134523Y-126078333D01*
X247277380Y-124221190D02*
X246277380Y-124221190D01*
X246991666Y-123887857D01*
X246277380Y-123554523D01*
X247277380Y-123554523D01*
X247277380Y-123078333D02*
X246610714Y-123078333D01*
X246277380Y-123078333D02*
X246325000Y-123125952D01*
X246372619Y-123078333D01*
X246325000Y-123030714D01*
X246277380Y-123078333D01*
X246372619Y-123078333D01*
X247277380Y-122602142D02*
X246277380Y-122602142D01*
X246896428Y-122506904D02*
X247277380Y-122221190D01*
X246610714Y-122221190D02*
X246991666Y-122602142D01*
X247229761Y-121411666D02*
X247277380Y-121506904D01*
X247277380Y-121697380D01*
X247229761Y-121792619D01*
X247134523Y-121840238D01*
X246753571Y-121840238D01*
X246658333Y-121792619D01*
X246610714Y-121697380D01*
X246610714Y-121506904D01*
X246658333Y-121411666D01*
X246753571Y-121364047D01*
X246848809Y-121364047D01*
X246944047Y-121840238D01*
X247229761Y-120221190D02*
X247277380Y-120078333D01*
X247277380Y-119840238D01*
X247229761Y-119745000D01*
X247182142Y-119697380D01*
X247086904Y-119649761D01*
X246991666Y-119649761D01*
X246896428Y-119697380D01*
X246848809Y-119745000D01*
X246801190Y-119840238D01*
X246753571Y-120030714D01*
X246705952Y-120125952D01*
X246658333Y-120173571D01*
X246563095Y-120221190D01*
X246467857Y-120221190D01*
X246372619Y-120173571D01*
X246325000Y-120125952D01*
X246277380Y-120030714D01*
X246277380Y-119792619D01*
X246325000Y-119649761D01*
X246610714Y-118792619D02*
X247277380Y-118792619D01*
X246610714Y-119221190D02*
X247134523Y-119221190D01*
X247229761Y-119173571D01*
X247277380Y-119078333D01*
X247277380Y-118935476D01*
X247229761Y-118840238D01*
X247182142Y-118792619D01*
X246610714Y-118459285D02*
X246610714Y-118078333D01*
X246277380Y-118316428D02*
X247134523Y-118316428D01*
X247229761Y-118268809D01*
X247277380Y-118173571D01*
X247277380Y-118078333D01*
X246610714Y-117887857D02*
X246610714Y-117506904D01*
X246277380Y-117745000D02*
X247134523Y-117745000D01*
X247229761Y-117697380D01*
X247277380Y-117602142D01*
X247277380Y-117506904D01*
X247277380Y-117030714D02*
X247229761Y-117125952D01*
X247182142Y-117173571D01*
X247086904Y-117221190D01*
X246801190Y-117221190D01*
X246705952Y-117173571D01*
X246658333Y-117125952D01*
X246610714Y-117030714D01*
X246610714Y-116887857D01*
X246658333Y-116792619D01*
X246705952Y-116745000D01*
X246801190Y-116697380D01*
X247086904Y-116697380D01*
X247182142Y-116745000D01*
X247229761Y-116792619D01*
X247277380Y-116887857D01*
X247277380Y-117030714D01*
X246610714Y-116268809D02*
X247277380Y-116268809D01*
X246705952Y-116268809D02*
X246658333Y-116221190D01*
X246610714Y-116125952D01*
X246610714Y-115983095D01*
X246658333Y-115887857D01*
X246753571Y-115840238D01*
X247277380Y-115840238D01*
X247229761Y-115316428D02*
X247277380Y-115316428D01*
X247372619Y-115364047D01*
X247420238Y-115411666D01*
X246372619Y-114173571D02*
X246325000Y-114125952D01*
X246277380Y-114030714D01*
X246277380Y-113792619D01*
X246325000Y-113697380D01*
X246372619Y-113649761D01*
X246467857Y-113602142D01*
X246563095Y-113602142D01*
X246705952Y-113649761D01*
X247277380Y-114221190D01*
X247277380Y-113602142D01*
X246277380Y-112983095D02*
X246277380Y-112887857D01*
X246325000Y-112792619D01*
X246372619Y-112745000D01*
X246467857Y-112697380D01*
X246658333Y-112649761D01*
X246896428Y-112649761D01*
X247086904Y-112697380D01*
X247182142Y-112745000D01*
X247229761Y-112792619D01*
X247277380Y-112887857D01*
X247277380Y-112983095D01*
X247229761Y-113078333D01*
X247182142Y-113125952D01*
X247086904Y-113173571D01*
X246896428Y-113221190D01*
X246658333Y-113221190D01*
X246467857Y-113173571D01*
X246372619Y-113125952D01*
X246325000Y-113078333D01*
X246277380Y-112983095D01*
X246372619Y-112268809D02*
X246325000Y-112221190D01*
X246277380Y-112125952D01*
X246277380Y-111887857D01*
X246325000Y-111792619D01*
X246372619Y-111745000D01*
X246467857Y-111697380D01*
X246563095Y-111697380D01*
X246705952Y-111745000D01*
X247277380Y-112316428D01*
X247277380Y-111697380D01*
X246277380Y-111364047D02*
X246277380Y-110745000D01*
X246658333Y-111078333D01*
X246658333Y-110935476D01*
X246705952Y-110840238D01*
X246753571Y-110792619D01*
X246848809Y-110745000D01*
X247086904Y-110745000D01*
X247182142Y-110792619D01*
X247229761Y-110840238D01*
X247277380Y-110935476D01*
X247277380Y-111221190D01*
X247229761Y-111316428D01*
X247182142Y-111364047D01*
X248403571Y-123054523D02*
X248451190Y-122911666D01*
X248498809Y-122864047D01*
X248594047Y-122816428D01*
X248736904Y-122816428D01*
X248832142Y-122864047D01*
X248879761Y-122911666D01*
X248927380Y-123006904D01*
X248927380Y-123387857D01*
X247927380Y-123387857D01*
X247927380Y-123054523D01*
X247975000Y-122959285D01*
X248022619Y-122911666D01*
X248117857Y-122864047D01*
X248213095Y-122864047D01*
X248308333Y-122911666D01*
X248355952Y-122959285D01*
X248403571Y-123054523D01*
X248403571Y-123387857D01*
X248927380Y-122387857D02*
X248260714Y-122387857D01*
X248451190Y-122387857D02*
X248355952Y-122340238D01*
X248308333Y-122292619D01*
X248260714Y-122197380D01*
X248260714Y-122102142D01*
X248879761Y-121387857D02*
X248927380Y-121483095D01*
X248927380Y-121673571D01*
X248879761Y-121768809D01*
X248784523Y-121816428D01*
X248403571Y-121816428D01*
X248308333Y-121768809D01*
X248260714Y-121673571D01*
X248260714Y-121483095D01*
X248308333Y-121387857D01*
X248403571Y-121340238D01*
X248498809Y-121340238D01*
X248594047Y-121816428D01*
X248927380Y-120483095D02*
X248403571Y-120483095D01*
X248308333Y-120530714D01*
X248260714Y-120625952D01*
X248260714Y-120816428D01*
X248308333Y-120911666D01*
X248879761Y-120483095D02*
X248927380Y-120578333D01*
X248927380Y-120816428D01*
X248879761Y-120911666D01*
X248784523Y-120959285D01*
X248689285Y-120959285D01*
X248594047Y-120911666D01*
X248546428Y-120816428D01*
X248546428Y-120578333D01*
X248498809Y-120483095D01*
X248927380Y-119578333D02*
X247927380Y-119578333D01*
X248879761Y-119578333D02*
X248927380Y-119673571D01*
X248927380Y-119864047D01*
X248879761Y-119959285D01*
X248832142Y-120006904D01*
X248736904Y-120054523D01*
X248451190Y-120054523D01*
X248355952Y-120006904D01*
X248308333Y-119959285D01*
X248260714Y-119864047D01*
X248260714Y-119673571D01*
X248308333Y-119578333D01*
X248355952Y-118959285D02*
X248308333Y-119054523D01*
X248260714Y-119102142D01*
X248165476Y-119149761D01*
X248117857Y-119149761D01*
X248022619Y-119102142D01*
X247975000Y-119054523D01*
X247927380Y-118959285D01*
X247927380Y-118768809D01*
X247975000Y-118673571D01*
X248022619Y-118625952D01*
X248117857Y-118578333D01*
X248165476Y-118578333D01*
X248260714Y-118625952D01*
X248308333Y-118673571D01*
X248355952Y-118768809D01*
X248355952Y-118959285D01*
X248403571Y-119054523D01*
X248451190Y-119102142D01*
X248546428Y-119149761D01*
X248736904Y-119149761D01*
X248832142Y-119102142D01*
X248879761Y-119054523D01*
X248927380Y-118959285D01*
X248927380Y-118768809D01*
X248879761Y-118673571D01*
X248832142Y-118625952D01*
X248736904Y-118578333D01*
X248546428Y-118578333D01*
X248451190Y-118625952D01*
X248403571Y-118673571D01*
X248355952Y-118768809D01*
X247927380Y-117959285D02*
X247927380Y-117864047D01*
X247975000Y-117768809D01*
X248022619Y-117721190D01*
X248117857Y-117673571D01*
X248308333Y-117625952D01*
X248546428Y-117625952D01*
X248736904Y-117673571D01*
X248832142Y-117721190D01*
X248879761Y-117768809D01*
X248927380Y-117864047D01*
X248927380Y-117959285D01*
X248879761Y-118054523D01*
X248832142Y-118102142D01*
X248736904Y-118149761D01*
X248546428Y-118197380D01*
X248308333Y-118197380D01*
X248117857Y-118149761D01*
X248022619Y-118102142D01*
X247975000Y-118054523D01*
X247927380Y-117959285D01*
X248832142Y-117197380D02*
X248879761Y-117149761D01*
X248927380Y-117197380D01*
X248879761Y-117245000D01*
X248832142Y-117197380D01*
X248927380Y-117197380D01*
X248879761Y-116292619D02*
X248927380Y-116387857D01*
X248927380Y-116578333D01*
X248879761Y-116673571D01*
X248832142Y-116721190D01*
X248736904Y-116768809D01*
X248451190Y-116768809D01*
X248355952Y-116721190D01*
X248308333Y-116673571D01*
X248260714Y-116578333D01*
X248260714Y-116387857D01*
X248308333Y-116292619D01*
X248927380Y-115721190D02*
X248879761Y-115816428D01*
X248832142Y-115864047D01*
X248736904Y-115911666D01*
X248451190Y-115911666D01*
X248355952Y-115864047D01*
X248308333Y-115816428D01*
X248260714Y-115721190D01*
X248260714Y-115578333D01*
X248308333Y-115483095D01*
X248355952Y-115435476D01*
X248451190Y-115387857D01*
X248736904Y-115387857D01*
X248832142Y-115435476D01*
X248879761Y-115483095D01*
X248927380Y-115578333D01*
X248927380Y-115721190D01*
X248927380Y-114959285D02*
X248260714Y-114959285D01*
X248355952Y-114959285D02*
X248308333Y-114911666D01*
X248260714Y-114816428D01*
X248260714Y-114673571D01*
X248308333Y-114578333D01*
X248403571Y-114530714D01*
X248927380Y-114530714D01*
X248403571Y-114530714D02*
X248308333Y-114483095D01*
X248260714Y-114387857D01*
X248260714Y-114245000D01*
X248308333Y-114149761D01*
X248403571Y-114102142D01*
X248927380Y-114102142D01*
D11*
X251503571Y-132285000D02*
X250789285Y-132785000D01*
X251503571Y-133142142D02*
X250003571Y-133142142D01*
X250003571Y-132570714D01*
X250075000Y-132427857D01*
X250146428Y-132356428D01*
X250289285Y-132285000D01*
X250503571Y-132285000D01*
X250646428Y-132356428D01*
X250717857Y-132427857D01*
X250789285Y-132570714D01*
X250789285Y-133142142D01*
X251075000Y-131713571D02*
X251075000Y-130999285D01*
X251503571Y-131856428D02*
X250003571Y-131356428D01*
X251503571Y-130856428D01*
X251503571Y-130356428D02*
X250003571Y-130356428D01*
X251075000Y-129856428D01*
X250003571Y-129356428D01*
X251503571Y-129356428D01*
X250503571Y-127713571D02*
X250503571Y-127142142D01*
X251503571Y-127499285D02*
X250217857Y-127499285D01*
X250075000Y-127427857D01*
X250003571Y-127285000D01*
X250003571Y-127142142D01*
X251503571Y-126427857D02*
X251432142Y-126570714D01*
X251360714Y-126642142D01*
X251217857Y-126713571D01*
X250789285Y-126713571D01*
X250646428Y-126642142D01*
X250575000Y-126570714D01*
X250503571Y-126427857D01*
X250503571Y-126213571D01*
X250575000Y-126070714D01*
X250646428Y-125999285D01*
X250789285Y-125927857D01*
X251217857Y-125927857D01*
X251360714Y-125999285D01*
X251432142Y-126070714D01*
X251503571Y-126213571D01*
X251503571Y-126427857D01*
X251503571Y-125285000D02*
X250503571Y-125285000D01*
X250789285Y-125285000D02*
X250646428Y-125213571D01*
X250575000Y-125142142D01*
X250503571Y-124999285D01*
X250503571Y-124856428D01*
X251360714Y-122356428D02*
X251432142Y-122427857D01*
X251503571Y-122642142D01*
X251503571Y-122785000D01*
X251432142Y-122999285D01*
X251289285Y-123142142D01*
X251146428Y-123213571D01*
X250860714Y-123285000D01*
X250646428Y-123285000D01*
X250360714Y-123213571D01*
X250217857Y-123142142D01*
X250075000Y-122999285D01*
X250003571Y-122785000D01*
X250003571Y-122642142D01*
X250075000Y-122427857D01*
X250146428Y-122356428D01*
X251503571Y-121713571D02*
X250003571Y-121713571D01*
X250003571Y-121142142D01*
X250075000Y-120999285D01*
X250146428Y-120927857D01*
X250289285Y-120856428D01*
X250503571Y-120856428D01*
X250646428Y-120927857D01*
X250717857Y-120999285D01*
X250789285Y-121142142D01*
X250789285Y-121713571D01*
X251360714Y-119356428D02*
X251432142Y-119427857D01*
X251503571Y-119642142D01*
X251503571Y-119785000D01*
X251432142Y-119999285D01*
X251289285Y-120142142D01*
X251146428Y-120213571D01*
X250860714Y-120285000D01*
X250646428Y-120285000D01*
X250360714Y-120213571D01*
X250217857Y-120142142D01*
X250075000Y-119999285D01*
X250003571Y-119785000D01*
X250003571Y-119642142D01*
X250075000Y-119427857D01*
X250146428Y-119356428D01*
X251503571Y-117570714D02*
X250003571Y-117570714D01*
X251075000Y-117070714D01*
X250003571Y-116570714D01*
X251503571Y-116570714D01*
X251503571Y-115642142D02*
X251432142Y-115785000D01*
X251360714Y-115856428D01*
X251217857Y-115927857D01*
X250789285Y-115927857D01*
X250646428Y-115856428D01*
X250575000Y-115785000D01*
X250503571Y-115642142D01*
X250503571Y-115427857D01*
X250575000Y-115285000D01*
X250646428Y-115213571D01*
X250789285Y-115142142D01*
X251217857Y-115142142D01*
X251360714Y-115213571D01*
X251432142Y-115285000D01*
X251503571Y-115427857D01*
X251503571Y-115642142D01*
X251503571Y-113856428D02*
X250003571Y-113856428D01*
X251432142Y-113856428D02*
X251503571Y-113999285D01*
X251503571Y-114285000D01*
X251432142Y-114427857D01*
X251360714Y-114499285D01*
X251217857Y-114570714D01*
X250789285Y-114570714D01*
X250646428Y-114499285D01*
X250575000Y-114427857D01*
X250503571Y-114285000D01*
X250503571Y-113999285D01*
X250575000Y-113856428D01*
X250503571Y-112499285D02*
X251503571Y-112499285D01*
X250503571Y-113142142D02*
X251289285Y-113142142D01*
X251432142Y-113070714D01*
X251503571Y-112927857D01*
X251503571Y-112713571D01*
X251432142Y-112570714D01*
X251360714Y-112499285D01*
X251503571Y-111570714D02*
X251432142Y-111713571D01*
X251289285Y-111785000D01*
X250003571Y-111785000D01*
X251503571Y-110356428D02*
X250717857Y-110356428D01*
X250575000Y-110427857D01*
X250503571Y-110570714D01*
X250503571Y-110856428D01*
X250575000Y-110999285D01*
X251432142Y-110356428D02*
X251503571Y-110499285D01*
X251503571Y-110856428D01*
X251432142Y-110999285D01*
X251289285Y-111070714D01*
X251146428Y-111070714D01*
X251003571Y-110999285D01*
X250932142Y-110856428D01*
X250932142Y-110499285D01*
X250860714Y-110356428D01*
X251503571Y-109642142D02*
X250503571Y-109642142D01*
X250789285Y-109642142D02*
X250646428Y-109570714D01*
X250575000Y-109499285D01*
X250503571Y-109356428D01*
X250503571Y-109213571D01*
D10*
X251912380Y-143747857D02*
X251436190Y-144081190D01*
X251912380Y-144319285D02*
X250912380Y-144319285D01*
X250912380Y-143938333D01*
X250960000Y-143843095D01*
X251007619Y-143795476D01*
X251102857Y-143747857D01*
X251245714Y-143747857D01*
X251340952Y-143795476D01*
X251388571Y-143843095D01*
X251436190Y-143938333D01*
X251436190Y-144319285D01*
X251388571Y-143319285D02*
X251388571Y-142985952D01*
X251912380Y-142843095D02*
X251912380Y-143319285D01*
X250912380Y-143319285D01*
X250912380Y-142843095D01*
X250912380Y-142557380D02*
X251912380Y-142224047D01*
X250912380Y-141890714D01*
X250912380Y-140605000D02*
X250912380Y-140509761D01*
X250960000Y-140414523D01*
X251007619Y-140366904D01*
X251102857Y-140319285D01*
X251293333Y-140271666D01*
X251531428Y-140271666D01*
X251721904Y-140319285D01*
X251817142Y-140366904D01*
X251864761Y-140414523D01*
X251912380Y-140509761D01*
X251912380Y-140605000D01*
X251864761Y-140700238D01*
X251817142Y-140747857D01*
X251721904Y-140795476D01*
X251531428Y-140843095D01*
X251293333Y-140843095D01*
X251102857Y-140795476D01*
X251007619Y-140747857D01*
X250960000Y-140700238D01*
X250912380Y-140605000D01*
X251817142Y-139843095D02*
X251864761Y-139795476D01*
X251912380Y-139843095D01*
X251864761Y-139890714D01*
X251817142Y-139843095D01*
X251912380Y-139843095D01*
X251912380Y-138843095D02*
X251912380Y-139414523D01*
X251912380Y-139128809D02*
X250912380Y-139128809D01*
X251055238Y-139224047D01*
X251150476Y-139319285D01*
X251198095Y-139414523D01*
X161785549Y-115714213D02*
X161448832Y-116050931D01*
X160741725Y-115343824D01*
X161920236Y-115714213D02*
X162458984Y-115175465D01*
X162560000Y-114939763D02*
X161852893Y-114232656D01*
X162122267Y-113963282D01*
X162223282Y-113929610D01*
X162290625Y-113929610D01*
X162391641Y-113963282D01*
X162492656Y-114064297D01*
X162526328Y-114165312D01*
X162526328Y-114232656D01*
X162492656Y-114333671D01*
X162223282Y-114603045D01*
X162896717Y-113862267D02*
X163132419Y-113626564D01*
X163603824Y-113895938D02*
X163267106Y-114232656D01*
X162560000Y-113525549D01*
X162896717Y-113188832D01*
X163906870Y-113592893D02*
X163199763Y-112885786D01*
X164310931Y-113188832D01*
X163603824Y-112481725D01*
X160611801Y-114213274D02*
X160611801Y-114280618D01*
X160544458Y-114415305D01*
X160477114Y-114482648D01*
X160342427Y-114549992D01*
X160207740Y-114549992D01*
X160106725Y-114516320D01*
X159938366Y-114415305D01*
X159837351Y-114314289D01*
X159736336Y-114145931D01*
X159702664Y-114044915D01*
X159702664Y-113910228D01*
X159770007Y-113775541D01*
X159837351Y-113708198D01*
X159972038Y-113640854D01*
X160039381Y-113640854D01*
X160275084Y-113270465D02*
X160847503Y-113842885D01*
X160948519Y-113876557D01*
X161015862Y-113876557D01*
X161116877Y-113842885D01*
X161251564Y-113708198D01*
X161285236Y-113607183D01*
X161285236Y-113539839D01*
X161251564Y-113438824D01*
X160679145Y-112866404D01*
X162127030Y-112832732D02*
X161554610Y-112731717D01*
X161722969Y-113236793D02*
X161015862Y-112529687D01*
X161285236Y-112260312D01*
X161386251Y-112226641D01*
X161453595Y-112226641D01*
X161554610Y-112260312D01*
X161655625Y-112361328D01*
X161689297Y-112462343D01*
X161689297Y-112529687D01*
X161655625Y-112630702D01*
X161386251Y-112900076D01*
X162362732Y-112529687D02*
X162497419Y-112462343D01*
X162665778Y-112293984D01*
X162699450Y-112192969D01*
X162699450Y-112125625D01*
X162665778Y-112024610D01*
X162598435Y-111957267D01*
X162497419Y-111923595D01*
X162430076Y-111923595D01*
X162329061Y-111957267D01*
X162160702Y-112058282D01*
X162059687Y-112091954D01*
X161992343Y-112091954D01*
X161891328Y-112058282D01*
X161823984Y-111990938D01*
X161790312Y-111889923D01*
X161790312Y-111822580D01*
X161823984Y-111721564D01*
X161992343Y-111553206D01*
X162127030Y-111485862D01*
X162531091Y-111014458D02*
X162665778Y-110879771D01*
X162766793Y-110846099D01*
X162901480Y-110846099D01*
X163069839Y-110947114D01*
X163305541Y-111182816D01*
X163406557Y-111351175D01*
X163406557Y-111485862D01*
X163372885Y-111586877D01*
X163238198Y-111721564D01*
X163137183Y-111755236D01*
X163002496Y-111755236D01*
X162834137Y-111654221D01*
X162598435Y-111418519D01*
X162497419Y-111250160D01*
X162497419Y-111115473D01*
X162531091Y-111014458D01*
X164248350Y-110711412D02*
X163675931Y-110610397D01*
X163844289Y-111115473D02*
X163137183Y-110408366D01*
X163406557Y-110138992D01*
X163507572Y-110105320D01*
X163574915Y-110105320D01*
X163675931Y-110138992D01*
X163776946Y-110240007D01*
X163810618Y-110341023D01*
X163810618Y-110408366D01*
X163776946Y-110509381D01*
X163507572Y-110778755D01*
D12*
X156895800Y-153131520D02*
X156931360Y-153131520D01*
X156895800Y-143019780D02*
X156895800Y-153131520D01*
X155326080Y-143019780D02*
X156895800Y-143019780D01*
X154144980Y-144200880D02*
X155326080Y-143019780D01*
X154144980Y-153131520D02*
X154144980Y-144200880D01*
D13*
X156360251Y-149315465D02*
X154860251Y-149315465D01*
X154860251Y-148744037D01*
X154931680Y-148601180D01*
X155003108Y-148529751D01*
X155145965Y-148458322D01*
X155360251Y-148458322D01*
X155503108Y-148529751D01*
X155574537Y-148601180D01*
X155645965Y-148744037D01*
X155645965Y-149315465D01*
X156360251Y-147815465D02*
X155360251Y-147815465D01*
X154860251Y-147815465D02*
X154931680Y-147886894D01*
X155003108Y-147815465D01*
X154931680Y-147744037D01*
X154860251Y-147815465D01*
X155003108Y-147815465D01*
X155360251Y-147101180D02*
X156360251Y-147101180D01*
X155503108Y-147101180D02*
X155431680Y-147029751D01*
X155360251Y-146886894D01*
X155360251Y-146672608D01*
X155431680Y-146529751D01*
X155574537Y-146458322D01*
X156360251Y-146458322D01*
X156360251Y-143815465D02*
X156360251Y-144672608D01*
X156360251Y-144244037D02*
X154860251Y-144244037D01*
X155074537Y-144386894D01*
X155217394Y-144529751D01*
X155288822Y-144672608D01*
D14*
X157995000Y-136465000D02*
X157995000Y-146745000D01*
X178555000Y-136465000D02*
X157995000Y-136465000D01*
X178555000Y-146745000D02*
X178555000Y-136465000D01*
X157995000Y-146745000D02*
X178555000Y-146745000D01*
X158055000Y-138955000D02*
X158055000Y-140605000D01*
X178495000Y-138955000D02*
X158055000Y-138955000D01*
X178495000Y-144255000D02*
X178495000Y-138955000D01*
X158055000Y-144255000D02*
X178495000Y-144255000D01*
X158055000Y-142605000D02*
X158055000Y-144255000D01*
X158055000Y-140605000D02*
G75*
G02*
X158055000Y-142605000I0J-1000000D01*
G01*
X226635000Y-106045000D02*
X226635000Y-104715000D01*
X226635000Y-104715000D02*
X227965000Y-104715000D01*
X226635000Y-107315000D02*
X229235000Y-107315000D01*
X229235000Y-107315000D02*
X229235000Y-104715000D01*
X229235000Y-104715000D02*
X247075000Y-104715000D01*
X247075000Y-109915000D02*
X247075000Y-104715000D01*
X226635000Y-109915000D02*
X247075000Y-109915000D01*
X226635000Y-109915000D02*
X226635000Y-107315000D01*
X195012000Y-150402600D02*
X195012000Y-149072600D01*
X196342000Y-150402600D02*
X195012000Y-150402600D01*
X197612000Y-150402600D02*
X197612000Y-147742600D01*
X197612000Y-147742600D02*
X258632000Y-147742600D01*
X197612000Y-150402600D02*
X258632000Y-150402600D01*
X258632000Y-150402600D02*
X258632000Y-147742600D01*
X207585000Y-130065000D02*
X207585000Y-135525000D01*
X248345000Y-130065000D02*
X207585000Y-130065000D01*
X248345000Y-142985000D02*
X248345000Y-130065000D01*
X207585000Y-142985000D02*
X248345000Y-142985000D01*
X207585000Y-137525000D02*
X207585000Y-142985000D01*
X207585000Y-135525000D02*
G75*
G02*
X207585000Y-137525000I0J-1000000D01*
G01*
X227845000Y-114240000D02*
X227845000Y-124520000D01*
X245865000Y-114240000D02*
X227845000Y-114240000D01*
X245865000Y-124520000D02*
X245865000Y-114240000D01*
X227845000Y-124520000D02*
X245865000Y-124520000D01*
X227905000Y-116730000D02*
X227905000Y-118380000D01*
X245805000Y-116730000D02*
X227905000Y-116730000D01*
X245805000Y-122030000D02*
X245805000Y-116730000D01*
X227905000Y-122030000D02*
X245805000Y-122030000D01*
X227905000Y-120380000D02*
X227905000Y-122030000D01*
X227905000Y-118380000D02*
G75*
G02*
X227905000Y-120380000I0J-1000000D01*
G01*
X167410000Y-116745000D02*
X167740000Y-116745000D01*
X167740000Y-116745000D02*
X167740000Y-123285000D01*
X167740000Y-123285000D02*
X167410000Y-123285000D01*
X165330000Y-116745000D02*
X165000000Y-116745000D01*
X165000000Y-116745000D02*
X165000000Y-123285000D01*
X165000000Y-123285000D02*
X165330000Y-123285000D01*
X154372000Y-152942600D02*
X154372000Y-151612600D01*
X155702000Y-152942600D02*
X154372000Y-152942600D01*
X156972000Y-152942600D02*
X156972000Y-150282600D01*
X156972000Y-150282600D02*
X256092000Y-150282600D01*
X156972000Y-152942600D02*
X256092000Y-152942600D01*
X256092000Y-152942600D02*
X256092000Y-150282600D01*
X167700000Y-108525000D02*
X165040000Y-108525000D01*
X167700000Y-111125000D02*
X167700000Y-108525000D01*
X165040000Y-111125000D02*
X165040000Y-108525000D01*
X167700000Y-111125000D02*
X165040000Y-111125000D01*
X167700000Y-112395000D02*
X167700000Y-113725000D01*
X167700000Y-113725000D02*
X166370000Y-113725000D01*
X157995000Y-125670000D02*
X157995000Y-135950000D01*
X178555000Y-125670000D02*
X157995000Y-125670000D01*
X178555000Y-135950000D02*
X178555000Y-125670000D01*
X157995000Y-135950000D02*
X178555000Y-135950000D01*
X158055000Y-128160000D02*
X158055000Y-129810000D01*
X178495000Y-128160000D02*
X158055000Y-128160000D01*
X178495000Y-133460000D02*
X178495000Y-128160000D01*
X158055000Y-133460000D02*
X178495000Y-133460000D01*
X158055000Y-131810000D02*
X158055000Y-133460000D01*
X158055000Y-129810000D02*
G75*
G02*
X158055000Y-131810000I0J-1000000D01*
G01*
X182760000Y-125670000D02*
X182760000Y-135950000D01*
X203320000Y-125670000D02*
X182760000Y-125670000D01*
X203320000Y-135950000D02*
X203320000Y-125670000D01*
X182760000Y-135950000D02*
X203320000Y-135950000D01*
X182820000Y-128160000D02*
X182820000Y-129810000D01*
X203260000Y-128160000D02*
X182820000Y-128160000D01*
X203260000Y-133460000D02*
X203260000Y-128160000D01*
X182820000Y-133460000D02*
X203260000Y-133460000D01*
X182820000Y-131810000D02*
X182820000Y-133460000D01*
X182820000Y-129810000D02*
G75*
G02*
X182820000Y-131810000I0J-1000000D01*
G01*
X182760000Y-136465000D02*
X182760000Y-146745000D01*
X203320000Y-136465000D02*
X182760000Y-136465000D01*
X203320000Y-146745000D02*
X203320000Y-136465000D01*
X182760000Y-146745000D02*
X203320000Y-146745000D01*
X182820000Y-138955000D02*
X182820000Y-140605000D01*
X203260000Y-138955000D02*
X182820000Y-138955000D01*
X203260000Y-144255000D02*
X203260000Y-138955000D01*
X182820000Y-144255000D02*
X203260000Y-144255000D01*
X182820000Y-142605000D02*
X182820000Y-144255000D01*
X182820000Y-140605000D02*
G75*
G02*
X182820000Y-142605000I0J-1000000D01*
G01*
X170695000Y-104715000D02*
X170695000Y-122615000D01*
X221735000Y-104715000D02*
X170695000Y-104715000D01*
X221735000Y-122615000D02*
X221735000Y-104715000D01*
X170695000Y-122615000D02*
X221735000Y-122615000D01*
X170755000Y-107205000D02*
X170755000Y-112665000D01*
X221675000Y-107205000D02*
X170755000Y-107205000D01*
X221675000Y-120125000D02*
X221675000Y-107205000D01*
X170755000Y-120125000D02*
X221675000Y-120125000D01*
X170755000Y-114665000D02*
X170755000Y-120125000D01*
X170755000Y-112665000D02*
G75*
G02*
X170755000Y-114665000I0J-1000000D01*
G01*
X225005000Y-118480000D02*
X224940000Y-118480000D01*
X227180000Y-118480000D02*
X227115000Y-118480000D01*
X225005000Y-115240000D02*
X224940000Y-115240000D01*
X227180000Y-115240000D02*
X227115000Y-115240000D01*
X224940000Y-115240000D02*
X224940000Y-118480000D01*
X227180000Y-115240000D02*
X227180000Y-118480000D01*
X217475000Y-123405000D02*
X217475000Y-123340000D01*
X217475000Y-125580000D02*
X217475000Y-125515000D01*
X220715000Y-123405000D02*
X220715000Y-123340000D01*
X220715000Y-125580000D02*
X220715000Y-125515000D01*
X220715000Y-123340000D02*
X217475000Y-123340000D01*
X220715000Y-125580000D02*
X217475000Y-125580000D01*
X211825000Y-127420000D02*
X211825000Y-127485000D01*
X211825000Y-125245000D02*
X211825000Y-125310000D01*
X208585000Y-127420000D02*
X208585000Y-127485000D01*
X208585000Y-125245000D02*
X208585000Y-125310000D01*
X208585000Y-127485000D02*
X211825000Y-127485000D01*
X208585000Y-125245000D02*
X211825000Y-125245000D01*
X182030000Y-134925000D02*
X182095000Y-134925000D01*
X179855000Y-134925000D02*
X179920000Y-134925000D01*
X182030000Y-138165000D02*
X182095000Y-138165000D01*
X179855000Y-138165000D02*
X179920000Y-138165000D01*
X182095000Y-138165000D02*
X182095000Y-134925000D01*
X179855000Y-138165000D02*
X179855000Y-134925000D01*
X182030000Y-124170000D02*
X182095000Y-124170000D01*
X179855000Y-124170000D02*
X179920000Y-124170000D01*
X182030000Y-127410000D02*
X182095000Y-127410000D01*
X179855000Y-127410000D02*
X179920000Y-127410000D01*
X182095000Y-127410000D02*
X182095000Y-124170000D01*
X179855000Y-127410000D02*
X179855000Y-124170000D01*
X155155000Y-140665000D02*
X155090000Y-140665000D01*
X157330000Y-140665000D02*
X157265000Y-140665000D01*
X155155000Y-137425000D02*
X155090000Y-137425000D01*
X157330000Y-137425000D02*
X157265000Y-137425000D01*
X155090000Y-137425000D02*
X155090000Y-140665000D01*
X157330000Y-137425000D02*
X157330000Y-140665000D01*
X155155000Y-129870000D02*
X155090000Y-129870000D01*
X157330000Y-129870000D02*
X157265000Y-129870000D01*
X155155000Y-126630000D02*
X155090000Y-126630000D01*
X157330000Y-126630000D02*
X157265000Y-126630000D01*
X155090000Y-126630000D02*
X155090000Y-129870000D01*
X157330000Y-126630000D02*
X157330000Y-129870000D01*
D10*
X158091428Y-148407380D02*
X158091428Y-147407380D01*
X159139047Y-148312142D02*
X159091428Y-148359761D01*
X158948571Y-148407380D01*
X158853333Y-148407380D01*
X158710476Y-148359761D01*
X158615238Y-148264523D01*
X158567619Y-148169285D01*
X158520000Y-147978809D01*
X158520000Y-147835952D01*
X158567619Y-147645476D01*
X158615238Y-147550238D01*
X158710476Y-147455000D01*
X158853333Y-147407380D01*
X158948571Y-147407380D01*
X159091428Y-147455000D01*
X159139047Y-147502619D01*
X159520000Y-147502619D02*
X159567619Y-147455000D01*
X159662857Y-147407380D01*
X159900952Y-147407380D01*
X159996190Y-147455000D01*
X160043809Y-147502619D01*
X160091428Y-147597857D01*
X160091428Y-147693095D01*
X160043809Y-147835952D01*
X159472380Y-148407380D01*
X160091428Y-148407380D01*
X160710476Y-147407380D02*
X160805714Y-147407380D01*
X160900952Y-147455000D01*
X160948571Y-147502619D01*
X160996190Y-147597857D01*
X161043809Y-147788333D01*
X161043809Y-148026428D01*
X160996190Y-148216904D01*
X160948571Y-148312142D01*
X160900952Y-148359761D01*
X160805714Y-148407380D01*
X160710476Y-148407380D01*
X160615238Y-148359761D01*
X160567619Y-148312142D01*
X160520000Y-148216904D01*
X160472380Y-148026428D01*
X160472380Y-147788333D01*
X160520000Y-147597857D01*
X160567619Y-147502619D01*
X160615238Y-147455000D01*
X160710476Y-147407380D01*
X161377142Y-147407380D02*
X161996190Y-147407380D01*
X161662857Y-147788333D01*
X161805714Y-147788333D01*
X161900952Y-147835952D01*
X161948571Y-147883571D01*
X161996190Y-147978809D01*
X161996190Y-148216904D01*
X161948571Y-148312142D01*
X161900952Y-148359761D01*
X161805714Y-148407380D01*
X161520000Y-148407380D01*
X161424761Y-148359761D01*
X161377142Y-148312142D01*
X165155952Y-141057380D02*
X165822619Y-141057380D01*
X165394047Y-142057380D01*
X166632142Y-141390714D02*
X166632142Y-142057380D01*
X166394047Y-141009761D02*
X166155952Y-141724047D01*
X166775000Y-141724047D01*
X167632142Y-142057380D02*
X167155952Y-142057380D01*
X167155952Y-141057380D01*
X167917857Y-142009761D02*
X168060714Y-142057380D01*
X168298809Y-142057380D01*
X168394047Y-142009761D01*
X168441666Y-141962142D01*
X168489285Y-141866904D01*
X168489285Y-141771666D01*
X168441666Y-141676428D01*
X168394047Y-141628809D01*
X168298809Y-141581190D01*
X168108333Y-141533571D01*
X168013095Y-141485952D01*
X167965476Y-141438333D01*
X167917857Y-141343095D01*
X167917857Y-141247857D01*
X167965476Y-141152619D01*
X168013095Y-141105000D01*
X168108333Y-141057380D01*
X168346428Y-141057380D01*
X168489285Y-141105000D01*
X169441666Y-142057380D02*
X168870238Y-142057380D01*
X169155952Y-142057380D02*
X169155952Y-141057380D01*
X169060714Y-141200238D01*
X168965476Y-141295476D01*
X168870238Y-141343095D01*
X170346428Y-141057380D02*
X169870238Y-141057380D01*
X169822619Y-141533571D01*
X169870238Y-141485952D01*
X169965476Y-141438333D01*
X170203571Y-141438333D01*
X170298809Y-141485952D01*
X170346428Y-141533571D01*
X170394047Y-141628809D01*
X170394047Y-141866904D01*
X170346428Y-141962142D01*
X170298809Y-142009761D01*
X170203571Y-142057380D01*
X169965476Y-142057380D01*
X169870238Y-142009761D01*
X169822619Y-141962142D01*
X170727380Y-141057380D02*
X171394047Y-141057380D01*
X170965476Y-142057380D01*
X224647380Y-107648333D02*
X225361666Y-107648333D01*
X225504523Y-107695952D01*
X225599761Y-107791190D01*
X225647380Y-107934047D01*
X225647380Y-108029285D01*
X225647380Y-106648333D02*
X225647380Y-107219761D01*
X225647380Y-106934047D02*
X224647380Y-106934047D01*
X224790238Y-107029285D01*
X224885476Y-107124523D01*
X224933095Y-107219761D01*
X193464380Y-149905933D02*
X194178666Y-149905933D01*
X194321523Y-149953552D01*
X194416761Y-150048790D01*
X194464380Y-150191647D01*
X194464380Y-150286885D01*
X194464380Y-149429742D02*
X193464380Y-149429742D01*
X193464380Y-149048790D01*
X193512000Y-148953552D01*
X193559619Y-148905933D01*
X193654857Y-148858314D01*
X193797714Y-148858314D01*
X193892952Y-148905933D01*
X193940571Y-148953552D01*
X193988190Y-149048790D01*
X193988190Y-149429742D01*
X193559619Y-148477361D02*
X193512000Y-148429742D01*
X193464380Y-148334504D01*
X193464380Y-148096409D01*
X193512000Y-148001171D01*
X193559619Y-147953552D01*
X193654857Y-147905933D01*
X193750095Y-147905933D01*
X193892952Y-147953552D01*
X194464380Y-148524980D01*
X194464380Y-147905933D01*
X206037380Y-138239285D02*
X206846904Y-138239285D01*
X206942142Y-138191666D01*
X206989761Y-138144047D01*
X207037380Y-138048809D01*
X207037380Y-137858333D01*
X206989761Y-137763095D01*
X206942142Y-137715476D01*
X206846904Y-137667857D01*
X206037380Y-137667857D01*
X207037380Y-136667857D02*
X207037380Y-137239285D01*
X207037380Y-136953571D02*
X206037380Y-136953571D01*
X206180238Y-137048809D01*
X206275476Y-137144047D01*
X206323095Y-137239285D01*
X207037380Y-136191666D02*
X207037380Y-136001190D01*
X206989761Y-135905952D01*
X206942142Y-135858333D01*
X206799285Y-135763095D01*
X206608809Y-135715476D01*
X206227857Y-135715476D01*
X206132619Y-135763095D01*
X206085000Y-135810714D01*
X206037380Y-135905952D01*
X206037380Y-136096428D01*
X206085000Y-136191666D01*
X206132619Y-136239285D01*
X206227857Y-136286904D01*
X206465952Y-136286904D01*
X206561190Y-136239285D01*
X206608809Y-136191666D01*
X206656428Y-136096428D01*
X206656428Y-135905952D01*
X206608809Y-135810714D01*
X206561190Y-135763095D01*
X206465952Y-135715476D01*
X207037380Y-134763095D02*
X207037380Y-135334523D01*
X207037380Y-135048809D02*
X206037380Y-135048809D01*
X206180238Y-135144047D01*
X206275476Y-135239285D01*
X206323095Y-135334523D01*
X221274523Y-136691666D02*
X221750714Y-136691666D01*
X221179285Y-136977380D02*
X221512619Y-135977380D01*
X221845952Y-136977380D01*
X222131666Y-136929761D02*
X222274523Y-136977380D01*
X222512619Y-136977380D01*
X222607857Y-136929761D01*
X222655476Y-136882142D01*
X222703095Y-136786904D01*
X222703095Y-136691666D01*
X222655476Y-136596428D01*
X222607857Y-136548809D01*
X222512619Y-136501190D01*
X222322142Y-136453571D01*
X222226904Y-136405952D01*
X222179285Y-136358333D01*
X222131666Y-136263095D01*
X222131666Y-136167857D01*
X222179285Y-136072619D01*
X222226904Y-136025000D01*
X222322142Y-135977380D01*
X222560238Y-135977380D01*
X222703095Y-136025000D01*
X223560238Y-135977380D02*
X223369761Y-135977380D01*
X223274523Y-136025000D01*
X223226904Y-136072619D01*
X223131666Y-136215476D01*
X223084047Y-136405952D01*
X223084047Y-136786904D01*
X223131666Y-136882142D01*
X223179285Y-136929761D01*
X223274523Y-136977380D01*
X223465000Y-136977380D01*
X223560238Y-136929761D01*
X223607857Y-136882142D01*
X223655476Y-136786904D01*
X223655476Y-136548809D01*
X223607857Y-136453571D01*
X223560238Y-136405952D01*
X223465000Y-136358333D01*
X223274523Y-136358333D01*
X223179285Y-136405952D01*
X223131666Y-136453571D01*
X223084047Y-136548809D01*
X224655476Y-136882142D02*
X224607857Y-136929761D01*
X224465000Y-136977380D01*
X224369761Y-136977380D01*
X224226904Y-136929761D01*
X224131666Y-136834523D01*
X224084047Y-136739285D01*
X224036428Y-136548809D01*
X224036428Y-136405952D01*
X224084047Y-136215476D01*
X224131666Y-136120238D01*
X224226904Y-136025000D01*
X224369761Y-135977380D01*
X224465000Y-135977380D01*
X224607857Y-136025000D01*
X224655476Y-136072619D01*
X225512619Y-136310714D02*
X225512619Y-136977380D01*
X225274523Y-135929761D02*
X225036428Y-136644047D01*
X225655476Y-136644047D01*
X226226904Y-135977380D02*
X226322142Y-135977380D01*
X226417380Y-136025000D01*
X226465000Y-136072619D01*
X226512619Y-136167857D01*
X226560238Y-136358333D01*
X226560238Y-136596428D01*
X226512619Y-136786904D01*
X226465000Y-136882142D01*
X226417380Y-136929761D01*
X226322142Y-136977380D01*
X226226904Y-136977380D01*
X226131666Y-136929761D01*
X226084047Y-136882142D01*
X226036428Y-136786904D01*
X225988809Y-136596428D01*
X225988809Y-136358333D01*
X226036428Y-136167857D01*
X226084047Y-136072619D01*
X226131666Y-136025000D01*
X226226904Y-135977380D01*
X227179285Y-135977380D02*
X227274523Y-135977380D01*
X227369761Y-136025000D01*
X227417380Y-136072619D01*
X227465000Y-136167857D01*
X227512619Y-136358333D01*
X227512619Y-136596428D01*
X227465000Y-136786904D01*
X227417380Y-136882142D01*
X227369761Y-136929761D01*
X227274523Y-136977380D01*
X227179285Y-136977380D01*
X227084047Y-136929761D01*
X227036428Y-136882142D01*
X226988809Y-136786904D01*
X226941190Y-136596428D01*
X226941190Y-136358333D01*
X226988809Y-136167857D01*
X227036428Y-136072619D01*
X227084047Y-136025000D01*
X227179285Y-135977380D01*
X228084047Y-136405952D02*
X227988809Y-136358333D01*
X227941190Y-136310714D01*
X227893571Y-136215476D01*
X227893571Y-136167857D01*
X227941190Y-136072619D01*
X227988809Y-136025000D01*
X228084047Y-135977380D01*
X228274523Y-135977380D01*
X228369761Y-136025000D01*
X228417380Y-136072619D01*
X228465000Y-136167857D01*
X228465000Y-136215476D01*
X228417380Y-136310714D01*
X228369761Y-136358333D01*
X228274523Y-136405952D01*
X228084047Y-136405952D01*
X227988809Y-136453571D01*
X227941190Y-136501190D01*
X227893571Y-136596428D01*
X227893571Y-136786904D01*
X227941190Y-136882142D01*
X227988809Y-136929761D01*
X228084047Y-136977380D01*
X228274523Y-136977380D01*
X228369761Y-136929761D01*
X228417380Y-136882142D01*
X228465000Y-136786904D01*
X228465000Y-136596428D01*
X228417380Y-136501190D01*
X228369761Y-136453571D01*
X228274523Y-136405952D01*
X228893571Y-136596428D02*
X229655476Y-136596428D01*
X230607857Y-135977380D02*
X230131666Y-135977380D01*
X230084047Y-136453571D01*
X230131666Y-136405952D01*
X230226904Y-136358333D01*
X230465000Y-136358333D01*
X230560238Y-136405952D01*
X230607857Y-136453571D01*
X230655476Y-136548809D01*
X230655476Y-136786904D01*
X230607857Y-136882142D01*
X230560238Y-136929761D01*
X230465000Y-136977380D01*
X230226904Y-136977380D01*
X230131666Y-136929761D01*
X230084047Y-136882142D01*
X231560238Y-135977380D02*
X231084047Y-135977380D01*
X231036428Y-136453571D01*
X231084047Y-136405952D01*
X231179285Y-136358333D01*
X231417380Y-136358333D01*
X231512619Y-136405952D01*
X231560238Y-136453571D01*
X231607857Y-136548809D01*
X231607857Y-136786904D01*
X231560238Y-136882142D01*
X231512619Y-136929761D01*
X231417380Y-136977380D01*
X231179285Y-136977380D01*
X231084047Y-136929761D01*
X231036428Y-136882142D01*
X232036428Y-136977380D02*
X232036428Y-135977380D01*
X232417380Y-135977380D01*
X232512619Y-136025000D01*
X232560238Y-136072619D01*
X232607857Y-136167857D01*
X232607857Y-136310714D01*
X232560238Y-136405952D01*
X232512619Y-136453571D01*
X232417380Y-136501190D01*
X232036428Y-136501190D01*
X233607857Y-136882142D02*
X233560238Y-136929761D01*
X233417380Y-136977380D01*
X233322142Y-136977380D01*
X233179285Y-136929761D01*
X233084047Y-136834523D01*
X233036428Y-136739285D01*
X232988809Y-136548809D01*
X232988809Y-136405952D01*
X233036428Y-136215476D01*
X233084047Y-136120238D01*
X233179285Y-136025000D01*
X233322142Y-135977380D01*
X233417380Y-135977380D01*
X233560238Y-136025000D01*
X233607857Y-136072619D01*
X234036428Y-136977380D02*
X234036428Y-135977380D01*
X234607857Y-136977380D01*
X234607857Y-135977380D01*
X227357380Y-123848571D02*
X226357380Y-123848571D01*
X227262142Y-122800952D02*
X227309761Y-122848571D01*
X227357380Y-122991428D01*
X227357380Y-123086666D01*
X227309761Y-123229523D01*
X227214523Y-123324761D01*
X227119285Y-123372380D01*
X226928809Y-123420000D01*
X226785952Y-123420000D01*
X226595476Y-123372380D01*
X226500238Y-123324761D01*
X226405000Y-123229523D01*
X226357380Y-123086666D01*
X226357380Y-122991428D01*
X226405000Y-122848571D01*
X226452619Y-122800952D01*
X227357380Y-121848571D02*
X227357380Y-122420000D01*
X227357380Y-122134285D02*
X226357380Y-122134285D01*
X226500238Y-122229523D01*
X226595476Y-122324761D01*
X226643095Y-122420000D01*
X227357380Y-120896190D02*
X227357380Y-121467619D01*
X227357380Y-121181904D02*
X226357380Y-121181904D01*
X226500238Y-121277142D01*
X226595476Y-121372380D01*
X226643095Y-121467619D01*
X226357380Y-120277142D02*
X226357380Y-120181904D01*
X226405000Y-120086666D01*
X226452619Y-120039047D01*
X226547857Y-119991428D01*
X226738333Y-119943809D01*
X226976428Y-119943809D01*
X227166904Y-119991428D01*
X227262142Y-120039047D01*
X227309761Y-120086666D01*
X227357380Y-120181904D01*
X227357380Y-120277142D01*
X227309761Y-120372380D01*
X227262142Y-120420000D01*
X227166904Y-120467619D01*
X226976428Y-120515238D01*
X226738333Y-120515238D01*
X226547857Y-120467619D01*
X226452619Y-120420000D01*
X226405000Y-120372380D01*
X226357380Y-120277142D01*
X234212142Y-118832380D02*
X234878809Y-118832380D01*
X234450238Y-119832380D01*
X235688333Y-119165714D02*
X235688333Y-119832380D01*
X235450238Y-118784761D02*
X235212142Y-119499047D01*
X235831190Y-119499047D01*
X236688333Y-119832380D02*
X236212142Y-119832380D01*
X236212142Y-118832380D01*
X236974047Y-119784761D02*
X237116904Y-119832380D01*
X237355000Y-119832380D01*
X237450238Y-119784761D01*
X237497857Y-119737142D01*
X237545476Y-119641904D01*
X237545476Y-119546666D01*
X237497857Y-119451428D01*
X237450238Y-119403809D01*
X237355000Y-119356190D01*
X237164523Y-119308571D01*
X237069285Y-119260952D01*
X237021666Y-119213333D01*
X236974047Y-119118095D01*
X236974047Y-119022857D01*
X237021666Y-118927619D01*
X237069285Y-118880000D01*
X237164523Y-118832380D01*
X237402619Y-118832380D01*
X237545476Y-118880000D01*
X238164523Y-118832380D02*
X238259761Y-118832380D01*
X238355000Y-118880000D01*
X238402619Y-118927619D01*
X238450238Y-119022857D01*
X238497857Y-119213333D01*
X238497857Y-119451428D01*
X238450238Y-119641904D01*
X238402619Y-119737142D01*
X238355000Y-119784761D01*
X238259761Y-119832380D01*
X238164523Y-119832380D01*
X238069285Y-119784761D01*
X238021666Y-119737142D01*
X237974047Y-119641904D01*
X237926428Y-119451428D01*
X237926428Y-119213333D01*
X237974047Y-119022857D01*
X238021666Y-118927619D01*
X238069285Y-118880000D01*
X238164523Y-118832380D01*
X239116904Y-118832380D02*
X239212142Y-118832380D01*
X239307380Y-118880000D01*
X239355000Y-118927619D01*
X239402619Y-119022857D01*
X239450238Y-119213333D01*
X239450238Y-119451428D01*
X239402619Y-119641904D01*
X239355000Y-119737142D01*
X239307380Y-119784761D01*
X239212142Y-119832380D01*
X239116904Y-119832380D01*
X239021666Y-119784761D01*
X238974047Y-119737142D01*
X238926428Y-119641904D01*
X238878809Y-119451428D01*
X238878809Y-119213333D01*
X238926428Y-119022857D01*
X238974047Y-118927619D01*
X239021666Y-118880000D01*
X239116904Y-118832380D01*
X169192380Y-121134047D02*
X168716190Y-121467380D01*
X169192380Y-121705476D02*
X168192380Y-121705476D01*
X168192380Y-121324523D01*
X168240000Y-121229285D01*
X168287619Y-121181666D01*
X168382857Y-121134047D01*
X168525714Y-121134047D01*
X168620952Y-121181666D01*
X168668571Y-121229285D01*
X168716190Y-121324523D01*
X168716190Y-121705476D01*
X169192380Y-120181666D02*
X169192380Y-120753095D01*
X169192380Y-120467380D02*
X168192380Y-120467380D01*
X168335238Y-120562619D01*
X168430476Y-120657857D01*
X168478095Y-120753095D01*
X168525714Y-119324523D02*
X169192380Y-119324523D01*
X168144761Y-119562619D02*
X168859047Y-119800714D01*
X168859047Y-119181666D01*
X168287619Y-118848333D02*
X168240000Y-118800714D01*
X168192380Y-118705476D01*
X168192380Y-118467380D01*
X168240000Y-118372142D01*
X168287619Y-118324523D01*
X168382857Y-118276904D01*
X168478095Y-118276904D01*
X168620952Y-118324523D01*
X169192380Y-118895952D01*
X169192380Y-118276904D01*
X166822380Y-120705476D02*
X166822380Y-121276904D01*
X166822380Y-120991190D02*
X165822380Y-120991190D01*
X165965238Y-121086428D01*
X166060476Y-121181666D01*
X166108095Y-121276904D01*
X165822380Y-120086428D02*
X165822380Y-119991190D01*
X165870000Y-119895952D01*
X165917619Y-119848333D01*
X166012857Y-119800714D01*
X166203333Y-119753095D01*
X166441428Y-119753095D01*
X166631904Y-119800714D01*
X166727142Y-119848333D01*
X166774761Y-119895952D01*
X166822380Y-119991190D01*
X166822380Y-120086428D01*
X166774761Y-120181666D01*
X166727142Y-120229285D01*
X166631904Y-120276904D01*
X166441428Y-120324523D01*
X166203333Y-120324523D01*
X166012857Y-120276904D01*
X165917619Y-120229285D01*
X165870000Y-120181666D01*
X165822380Y-120086428D01*
X166822380Y-119324523D02*
X165822380Y-119324523D01*
X166822380Y-118753095D02*
X166250952Y-119181666D01*
X165822380Y-118753095D02*
X166393809Y-119324523D01*
X152824380Y-152445933D02*
X153538666Y-152445933D01*
X153681523Y-152493552D01*
X153776761Y-152588790D01*
X153824380Y-152731647D01*
X153824380Y-152826885D01*
X153824380Y-151969742D02*
X152824380Y-151969742D01*
X152824380Y-151588790D01*
X152872000Y-151493552D01*
X152919619Y-151445933D01*
X153014857Y-151398314D01*
X153157714Y-151398314D01*
X153252952Y-151445933D01*
X153300571Y-151493552D01*
X153348190Y-151588790D01*
X153348190Y-151969742D01*
X153824380Y-150445933D02*
X153824380Y-151017361D01*
X153824380Y-150731647D02*
X152824380Y-150731647D01*
X152967238Y-150826885D01*
X153062476Y-150922123D01*
X153110095Y-151017361D01*
X167441666Y-106767380D02*
X167441666Y-107481666D01*
X167394047Y-107624523D01*
X167298809Y-107719761D01*
X167155952Y-107767380D01*
X167060714Y-107767380D01*
X167917857Y-107767380D02*
X167917857Y-106767380D01*
X168298809Y-106767380D01*
X168394047Y-106815000D01*
X168441666Y-106862619D01*
X168489285Y-106957857D01*
X168489285Y-107100714D01*
X168441666Y-107195952D01*
X168394047Y-107243571D01*
X168298809Y-107291190D01*
X167917857Y-107291190D01*
X168822619Y-106767380D02*
X169441666Y-106767380D01*
X169108333Y-107148333D01*
X169251190Y-107148333D01*
X169346428Y-107195952D01*
X169394047Y-107243571D01*
X169441666Y-107338809D01*
X169441666Y-107576904D01*
X169394047Y-107672142D01*
X169346428Y-107719761D01*
X169251190Y-107767380D01*
X168965476Y-107767380D01*
X168870238Y-107719761D01*
X168822619Y-107672142D01*
X157507380Y-135278571D02*
X156507380Y-135278571D01*
X157412142Y-134230952D02*
X157459761Y-134278571D01*
X157507380Y-134421428D01*
X157507380Y-134516666D01*
X157459761Y-134659523D01*
X157364523Y-134754761D01*
X157269285Y-134802380D01*
X157078809Y-134850000D01*
X156935952Y-134850000D01*
X156745476Y-134802380D01*
X156650238Y-134754761D01*
X156555000Y-134659523D01*
X156507380Y-134516666D01*
X156507380Y-134421428D01*
X156555000Y-134278571D01*
X156602619Y-134230952D01*
X156602619Y-133850000D02*
X156555000Y-133802380D01*
X156507380Y-133707142D01*
X156507380Y-133469047D01*
X156555000Y-133373809D01*
X156602619Y-133326190D01*
X156697857Y-133278571D01*
X156793095Y-133278571D01*
X156935952Y-133326190D01*
X157507380Y-133897619D01*
X157507380Y-133278571D01*
X156507380Y-132659523D02*
X156507380Y-132564285D01*
X156555000Y-132469047D01*
X156602619Y-132421428D01*
X156697857Y-132373809D01*
X156888333Y-132326190D01*
X157126428Y-132326190D01*
X157316904Y-132373809D01*
X157412142Y-132421428D01*
X157459761Y-132469047D01*
X157507380Y-132564285D01*
X157507380Y-132659523D01*
X157459761Y-132754761D01*
X157412142Y-132802380D01*
X157316904Y-132850000D01*
X157126428Y-132897619D01*
X156888333Y-132897619D01*
X156697857Y-132850000D01*
X156602619Y-132802380D01*
X156555000Y-132754761D01*
X156507380Y-132659523D01*
X156840714Y-131469047D02*
X157507380Y-131469047D01*
X156459761Y-131707142D02*
X157174047Y-131945238D01*
X157174047Y-131326190D01*
X165155952Y-130262380D02*
X165822619Y-130262380D01*
X165394047Y-131262380D01*
X166632142Y-130595714D02*
X166632142Y-131262380D01*
X166394047Y-130214761D02*
X166155952Y-130929047D01*
X166775000Y-130929047D01*
X167632142Y-131262380D02*
X167155952Y-131262380D01*
X167155952Y-130262380D01*
X167917857Y-131214761D02*
X168060714Y-131262380D01*
X168298809Y-131262380D01*
X168394047Y-131214761D01*
X168441666Y-131167142D01*
X168489285Y-131071904D01*
X168489285Y-130976666D01*
X168441666Y-130881428D01*
X168394047Y-130833809D01*
X168298809Y-130786190D01*
X168108333Y-130738571D01*
X168013095Y-130690952D01*
X167965476Y-130643333D01*
X167917857Y-130548095D01*
X167917857Y-130452857D01*
X167965476Y-130357619D01*
X168013095Y-130310000D01*
X168108333Y-130262380D01*
X168346428Y-130262380D01*
X168489285Y-130310000D01*
X169441666Y-131262380D02*
X168870238Y-131262380D01*
X169155952Y-131262380D02*
X169155952Y-130262380D01*
X169060714Y-130405238D01*
X168965476Y-130500476D01*
X168870238Y-130548095D01*
X170346428Y-130262380D02*
X169870238Y-130262380D01*
X169822619Y-130738571D01*
X169870238Y-130690952D01*
X169965476Y-130643333D01*
X170203571Y-130643333D01*
X170298809Y-130690952D01*
X170346428Y-130738571D01*
X170394047Y-130833809D01*
X170394047Y-131071904D01*
X170346428Y-131167142D01*
X170298809Y-131214761D01*
X170203571Y-131262380D01*
X169965476Y-131262380D01*
X169870238Y-131214761D01*
X169822619Y-131167142D01*
X170727380Y-130262380D02*
X171394047Y-130262380D01*
X170965476Y-131262380D01*
X182272380Y-132738571D02*
X181272380Y-132738571D01*
X182177142Y-131690952D02*
X182224761Y-131738571D01*
X182272380Y-131881428D01*
X182272380Y-131976666D01*
X182224761Y-132119523D01*
X182129523Y-132214761D01*
X182034285Y-132262380D01*
X181843809Y-132310000D01*
X181700952Y-132310000D01*
X181510476Y-132262380D01*
X181415238Y-132214761D01*
X181320000Y-132119523D01*
X181272380Y-131976666D01*
X181272380Y-131881428D01*
X181320000Y-131738571D01*
X181367619Y-131690952D01*
X181367619Y-131310000D02*
X181320000Y-131262380D01*
X181272380Y-131167142D01*
X181272380Y-130929047D01*
X181320000Y-130833809D01*
X181367619Y-130786190D01*
X181462857Y-130738571D01*
X181558095Y-130738571D01*
X181700952Y-130786190D01*
X182272380Y-131357619D01*
X182272380Y-130738571D01*
X181272380Y-130119523D02*
X181272380Y-130024285D01*
X181320000Y-129929047D01*
X181367619Y-129881428D01*
X181462857Y-129833809D01*
X181653333Y-129786190D01*
X181891428Y-129786190D01*
X182081904Y-129833809D01*
X182177142Y-129881428D01*
X182224761Y-129929047D01*
X182272380Y-130024285D01*
X182272380Y-130119523D01*
X182224761Y-130214761D01*
X182177142Y-130262380D01*
X182081904Y-130310000D01*
X181891428Y-130357619D01*
X181653333Y-130357619D01*
X181462857Y-130310000D01*
X181367619Y-130262380D01*
X181320000Y-130214761D01*
X181272380Y-130119523D01*
X181367619Y-129405238D02*
X181320000Y-129357619D01*
X181272380Y-129262380D01*
X181272380Y-129024285D01*
X181320000Y-128929047D01*
X181367619Y-128881428D01*
X181462857Y-128833809D01*
X181558095Y-128833809D01*
X181700952Y-128881428D01*
X182272380Y-129452857D01*
X182272380Y-128833809D01*
X189920952Y-130262380D02*
X190587619Y-130262380D01*
X190159047Y-131262380D01*
X191397142Y-130595714D02*
X191397142Y-131262380D01*
X191159047Y-130214761D02*
X190920952Y-130929047D01*
X191540000Y-130929047D01*
X192397142Y-131262380D02*
X191920952Y-131262380D01*
X191920952Y-130262380D01*
X192682857Y-131214761D02*
X192825714Y-131262380D01*
X193063809Y-131262380D01*
X193159047Y-131214761D01*
X193206666Y-131167142D01*
X193254285Y-131071904D01*
X193254285Y-130976666D01*
X193206666Y-130881428D01*
X193159047Y-130833809D01*
X193063809Y-130786190D01*
X192873333Y-130738571D01*
X192778095Y-130690952D01*
X192730476Y-130643333D01*
X192682857Y-130548095D01*
X192682857Y-130452857D01*
X192730476Y-130357619D01*
X192778095Y-130310000D01*
X192873333Y-130262380D01*
X193111428Y-130262380D01*
X193254285Y-130310000D01*
X194206666Y-131262380D02*
X193635238Y-131262380D01*
X193920952Y-131262380D02*
X193920952Y-130262380D01*
X193825714Y-130405238D01*
X193730476Y-130500476D01*
X193635238Y-130548095D01*
X195111428Y-130262380D02*
X194635238Y-130262380D01*
X194587619Y-130738571D01*
X194635238Y-130690952D01*
X194730476Y-130643333D01*
X194968571Y-130643333D01*
X195063809Y-130690952D01*
X195111428Y-130738571D01*
X195159047Y-130833809D01*
X195159047Y-131071904D01*
X195111428Y-131167142D01*
X195063809Y-131214761D01*
X194968571Y-131262380D01*
X194730476Y-131262380D01*
X194635238Y-131214761D01*
X194587619Y-131167142D01*
X195492380Y-130262380D02*
X196159047Y-130262380D01*
X195730476Y-131262380D01*
X182272380Y-143533571D02*
X181272380Y-143533571D01*
X182177142Y-142485952D02*
X182224761Y-142533571D01*
X182272380Y-142676428D01*
X182272380Y-142771666D01*
X182224761Y-142914523D01*
X182129523Y-143009761D01*
X182034285Y-143057380D01*
X181843809Y-143105000D01*
X181700952Y-143105000D01*
X181510476Y-143057380D01*
X181415238Y-143009761D01*
X181320000Y-142914523D01*
X181272380Y-142771666D01*
X181272380Y-142676428D01*
X181320000Y-142533571D01*
X181367619Y-142485952D01*
X181367619Y-142105000D02*
X181320000Y-142057380D01*
X181272380Y-141962142D01*
X181272380Y-141724047D01*
X181320000Y-141628809D01*
X181367619Y-141581190D01*
X181462857Y-141533571D01*
X181558095Y-141533571D01*
X181700952Y-141581190D01*
X182272380Y-142152619D01*
X182272380Y-141533571D01*
X181272380Y-140914523D02*
X181272380Y-140819285D01*
X181320000Y-140724047D01*
X181367619Y-140676428D01*
X181462857Y-140628809D01*
X181653333Y-140581190D01*
X181891428Y-140581190D01*
X182081904Y-140628809D01*
X182177142Y-140676428D01*
X182224761Y-140724047D01*
X182272380Y-140819285D01*
X182272380Y-140914523D01*
X182224761Y-141009761D01*
X182177142Y-141057380D01*
X182081904Y-141105000D01*
X181891428Y-141152619D01*
X181653333Y-141152619D01*
X181462857Y-141105000D01*
X181367619Y-141057380D01*
X181320000Y-141009761D01*
X181272380Y-140914523D01*
X182272380Y-139628809D02*
X182272380Y-140200238D01*
X182272380Y-139914523D02*
X181272380Y-139914523D01*
X181415238Y-140009761D01*
X181510476Y-140105000D01*
X181558095Y-140200238D01*
X189920952Y-141057380D02*
X190587619Y-141057380D01*
X190159047Y-142057380D01*
X191397142Y-141390714D02*
X191397142Y-142057380D01*
X191159047Y-141009761D02*
X190920952Y-141724047D01*
X191540000Y-141724047D01*
X192397142Y-142057380D02*
X191920952Y-142057380D01*
X191920952Y-141057380D01*
X192682857Y-142009761D02*
X192825714Y-142057380D01*
X193063809Y-142057380D01*
X193159047Y-142009761D01*
X193206666Y-141962142D01*
X193254285Y-141866904D01*
X193254285Y-141771666D01*
X193206666Y-141676428D01*
X193159047Y-141628809D01*
X193063809Y-141581190D01*
X192873333Y-141533571D01*
X192778095Y-141485952D01*
X192730476Y-141438333D01*
X192682857Y-141343095D01*
X192682857Y-141247857D01*
X192730476Y-141152619D01*
X192778095Y-141105000D01*
X192873333Y-141057380D01*
X193111428Y-141057380D01*
X193254285Y-141105000D01*
X194206666Y-142057380D02*
X193635238Y-142057380D01*
X193920952Y-142057380D02*
X193920952Y-141057380D01*
X193825714Y-141200238D01*
X193730476Y-141295476D01*
X193635238Y-141343095D01*
X195111428Y-141057380D02*
X194635238Y-141057380D01*
X194587619Y-141533571D01*
X194635238Y-141485952D01*
X194730476Y-141438333D01*
X194968571Y-141438333D01*
X195063809Y-141485952D01*
X195111428Y-141533571D01*
X195159047Y-141628809D01*
X195159047Y-141866904D01*
X195111428Y-141962142D01*
X195063809Y-142009761D01*
X194968571Y-142057380D01*
X194730476Y-142057380D01*
X194635238Y-142009761D01*
X194587619Y-141962142D01*
X195492380Y-141057380D02*
X196159047Y-141057380D01*
X195730476Y-142057380D01*
X170207380Y-115593571D02*
X169207380Y-115593571D01*
X170112142Y-114545952D02*
X170159761Y-114593571D01*
X170207380Y-114736428D01*
X170207380Y-114831666D01*
X170159761Y-114974523D01*
X170064523Y-115069761D01*
X169969285Y-115117380D01*
X169778809Y-115165000D01*
X169635952Y-115165000D01*
X169445476Y-115117380D01*
X169350238Y-115069761D01*
X169255000Y-114974523D01*
X169207380Y-114831666D01*
X169207380Y-114736428D01*
X169255000Y-114593571D01*
X169302619Y-114545952D01*
X170207380Y-113593571D02*
X170207380Y-114165000D01*
X170207380Y-113879285D02*
X169207380Y-113879285D01*
X169350238Y-113974523D01*
X169445476Y-114069761D01*
X169493095Y-114165000D01*
X169207380Y-112974523D02*
X169207380Y-112879285D01*
X169255000Y-112784047D01*
X169302619Y-112736428D01*
X169397857Y-112688809D01*
X169588333Y-112641190D01*
X169826428Y-112641190D01*
X170016904Y-112688809D01*
X170112142Y-112736428D01*
X170159761Y-112784047D01*
X170207380Y-112879285D01*
X170207380Y-112974523D01*
X170159761Y-113069761D01*
X170112142Y-113117380D01*
X170016904Y-113165000D01*
X169826428Y-113212619D01*
X169588333Y-113212619D01*
X169397857Y-113165000D01*
X169302619Y-113117380D01*
X169255000Y-113069761D01*
X169207380Y-112974523D01*
X169635952Y-112069761D02*
X169588333Y-112165000D01*
X169540714Y-112212619D01*
X169445476Y-112260238D01*
X169397857Y-112260238D01*
X169302619Y-112212619D01*
X169255000Y-112165000D01*
X169207380Y-112069761D01*
X169207380Y-111879285D01*
X169255000Y-111784047D01*
X169302619Y-111736428D01*
X169397857Y-111688809D01*
X169445476Y-111688809D01*
X169540714Y-111736428D01*
X169588333Y-111784047D01*
X169635952Y-111879285D01*
X169635952Y-112069761D01*
X169683571Y-112165000D01*
X169731190Y-112212619D01*
X169826428Y-112260238D01*
X170016904Y-112260238D01*
X170112142Y-112212619D01*
X170159761Y-112165000D01*
X170207380Y-112069761D01*
X170207380Y-111879285D01*
X170159761Y-111784047D01*
X170112142Y-111736428D01*
X170016904Y-111688809D01*
X169826428Y-111688809D01*
X169731190Y-111736428D01*
X169683571Y-111784047D01*
X169635952Y-111879285D01*
X193476904Y-114117380D02*
X193476904Y-113117380D01*
X193810238Y-113831666D01*
X194143571Y-113117380D01*
X194143571Y-114117380D01*
X195191190Y-114022142D02*
X195143571Y-114069761D01*
X195000714Y-114117380D01*
X194905476Y-114117380D01*
X194762619Y-114069761D01*
X194667380Y-113974523D01*
X194619761Y-113879285D01*
X194572142Y-113688809D01*
X194572142Y-113545952D01*
X194619761Y-113355476D01*
X194667380Y-113260238D01*
X194762619Y-113165000D01*
X194905476Y-113117380D01*
X195000714Y-113117380D01*
X195143571Y-113165000D01*
X195191190Y-113212619D01*
X196048333Y-113117380D02*
X195857857Y-113117380D01*
X195762619Y-113165000D01*
X195715000Y-113212619D01*
X195619761Y-113355476D01*
X195572142Y-113545952D01*
X195572142Y-113926904D01*
X195619761Y-114022142D01*
X195667380Y-114069761D01*
X195762619Y-114117380D01*
X195953095Y-114117380D01*
X196048333Y-114069761D01*
X196095952Y-114022142D01*
X196143571Y-113926904D01*
X196143571Y-113688809D01*
X196095952Y-113593571D01*
X196048333Y-113545952D01*
X195953095Y-113498333D01*
X195762619Y-113498333D01*
X195667380Y-113545952D01*
X195619761Y-113593571D01*
X195572142Y-113688809D01*
X196715000Y-113545952D02*
X196619761Y-113498333D01*
X196572142Y-113450714D01*
X196524523Y-113355476D01*
X196524523Y-113307857D01*
X196572142Y-113212619D01*
X196619761Y-113165000D01*
X196715000Y-113117380D01*
X196905476Y-113117380D01*
X197000714Y-113165000D01*
X197048333Y-113212619D01*
X197095952Y-113307857D01*
X197095952Y-113355476D01*
X197048333Y-113450714D01*
X197000714Y-113498333D01*
X196905476Y-113545952D01*
X196715000Y-113545952D01*
X196619761Y-113593571D01*
X196572142Y-113641190D01*
X196524523Y-113736428D01*
X196524523Y-113926904D01*
X196572142Y-114022142D01*
X196619761Y-114069761D01*
X196715000Y-114117380D01*
X196905476Y-114117380D01*
X197000714Y-114069761D01*
X197048333Y-114022142D01*
X197095952Y-113926904D01*
X197095952Y-113736428D01*
X197048333Y-113641190D01*
X197000714Y-113593571D01*
X196905476Y-113545952D01*
X197953095Y-113450714D02*
X197953095Y-114117380D01*
X197715000Y-113069761D02*
X197476904Y-113784047D01*
X198095952Y-113784047D01*
X198953095Y-113117380D02*
X198476904Y-113117380D01*
X198429285Y-113593571D01*
X198476904Y-113545952D01*
X198572142Y-113498333D01*
X198810238Y-113498333D01*
X198905476Y-113545952D01*
X198953095Y-113593571D01*
X199000714Y-113688809D01*
X199000714Y-113926904D01*
X198953095Y-114022142D01*
X198905476Y-114069761D01*
X198810238Y-114117380D01*
X198572142Y-114117380D01*
X198476904Y-114069761D01*
X198429285Y-114022142D01*
X228667142Y-117026666D02*
X228714761Y-117074285D01*
X228762380Y-117217142D01*
X228762380Y-117312380D01*
X228714761Y-117455238D01*
X228619523Y-117550476D01*
X228524285Y-117598095D01*
X228333809Y-117645714D01*
X228190952Y-117645714D01*
X228000476Y-117598095D01*
X227905238Y-117550476D01*
X227810000Y-117455238D01*
X227762380Y-117312380D01*
X227762380Y-117217142D01*
X227810000Y-117074285D01*
X227857619Y-117026666D01*
X227762380Y-116693333D02*
X227762380Y-116026666D01*
X228762380Y-116455238D01*
X218928333Y-127067142D02*
X218880714Y-127114761D01*
X218737857Y-127162380D01*
X218642619Y-127162380D01*
X218499761Y-127114761D01*
X218404523Y-127019523D01*
X218356904Y-126924285D01*
X218309285Y-126733809D01*
X218309285Y-126590952D01*
X218356904Y-126400476D01*
X218404523Y-126305238D01*
X218499761Y-126210000D01*
X218642619Y-126162380D01*
X218737857Y-126162380D01*
X218880714Y-126210000D01*
X218928333Y-126257619D01*
X219785476Y-126162380D02*
X219595000Y-126162380D01*
X219499761Y-126210000D01*
X219452142Y-126257619D01*
X219356904Y-126400476D01*
X219309285Y-126590952D01*
X219309285Y-126971904D01*
X219356904Y-127067142D01*
X219404523Y-127114761D01*
X219499761Y-127162380D01*
X219690238Y-127162380D01*
X219785476Y-127114761D01*
X219833095Y-127067142D01*
X219880714Y-126971904D01*
X219880714Y-126733809D01*
X219833095Y-126638571D01*
X219785476Y-126590952D01*
X219690238Y-126543333D01*
X219499761Y-126543333D01*
X219404523Y-126590952D01*
X219356904Y-126638571D01*
X219309285Y-126733809D01*
X210038333Y-124472142D02*
X209990714Y-124519761D01*
X209847857Y-124567380D01*
X209752619Y-124567380D01*
X209609761Y-124519761D01*
X209514523Y-124424523D01*
X209466904Y-124329285D01*
X209419285Y-124138809D01*
X209419285Y-123995952D01*
X209466904Y-123805476D01*
X209514523Y-123710238D01*
X209609761Y-123615000D01*
X209752619Y-123567380D01*
X209847857Y-123567380D01*
X209990714Y-123615000D01*
X210038333Y-123662619D01*
X210943095Y-123567380D02*
X210466904Y-123567380D01*
X210419285Y-124043571D01*
X210466904Y-123995952D01*
X210562142Y-123948333D01*
X210800238Y-123948333D01*
X210895476Y-123995952D01*
X210943095Y-124043571D01*
X210990714Y-124138809D01*
X210990714Y-124376904D01*
X210943095Y-124472142D01*
X210895476Y-124519761D01*
X210800238Y-124567380D01*
X210562142Y-124567380D01*
X210466904Y-124519761D01*
X210419285Y-124472142D01*
X179082142Y-136711666D02*
X179129761Y-136759285D01*
X179177380Y-136902142D01*
X179177380Y-136997380D01*
X179129761Y-137140238D01*
X179034523Y-137235476D01*
X178939285Y-137283095D01*
X178748809Y-137330714D01*
X178605952Y-137330714D01*
X178415476Y-137283095D01*
X178320238Y-137235476D01*
X178225000Y-137140238D01*
X178177380Y-136997380D01*
X178177380Y-136902142D01*
X178225000Y-136759285D01*
X178272619Y-136711666D01*
X178510714Y-135854523D02*
X179177380Y-135854523D01*
X178129761Y-136092619D02*
X178844047Y-136330714D01*
X178844047Y-135711666D01*
X179082142Y-124626666D02*
X179129761Y-124674285D01*
X179177380Y-124817142D01*
X179177380Y-124912380D01*
X179129761Y-125055238D01*
X179034523Y-125150476D01*
X178939285Y-125198095D01*
X178748809Y-125245714D01*
X178605952Y-125245714D01*
X178415476Y-125198095D01*
X178320238Y-125150476D01*
X178225000Y-125055238D01*
X178177380Y-124912380D01*
X178177380Y-124817142D01*
X178225000Y-124674285D01*
X178272619Y-124626666D01*
X178177380Y-124293333D02*
X178177380Y-123674285D01*
X178558333Y-124007619D01*
X178558333Y-123864761D01*
X178605952Y-123769523D01*
X178653571Y-123721904D01*
X178748809Y-123674285D01*
X178986904Y-123674285D01*
X179082142Y-123721904D01*
X179129761Y-123769523D01*
X179177380Y-123864761D01*
X179177380Y-124150476D01*
X179129761Y-124245714D01*
X179082142Y-124293333D01*
X158817142Y-139211666D02*
X158864761Y-139259285D01*
X158912380Y-139402142D01*
X158912380Y-139497380D01*
X158864761Y-139640238D01*
X158769523Y-139735476D01*
X158674285Y-139783095D01*
X158483809Y-139830714D01*
X158340952Y-139830714D01*
X158150476Y-139783095D01*
X158055238Y-139735476D01*
X157960000Y-139640238D01*
X157912380Y-139497380D01*
X157912380Y-139402142D01*
X157960000Y-139259285D01*
X158007619Y-139211666D01*
X158007619Y-138830714D02*
X157960000Y-138783095D01*
X157912380Y-138687857D01*
X157912380Y-138449761D01*
X157960000Y-138354523D01*
X158007619Y-138306904D01*
X158102857Y-138259285D01*
X158198095Y-138259285D01*
X158340952Y-138306904D01*
X158912380Y-138878333D01*
X158912380Y-138259285D01*
X158817142Y-128416666D02*
X158864761Y-128464285D01*
X158912380Y-128607142D01*
X158912380Y-128702380D01*
X158864761Y-128845238D01*
X158769523Y-128940476D01*
X158674285Y-128988095D01*
X158483809Y-129035714D01*
X158340952Y-129035714D01*
X158150476Y-128988095D01*
X158055238Y-128940476D01*
X157960000Y-128845238D01*
X157912380Y-128702380D01*
X157912380Y-128607142D01*
X157960000Y-128464285D01*
X158007619Y-128416666D01*
X158912380Y-127464285D02*
X158912380Y-128035714D01*
X158912380Y-127750000D02*
X157912380Y-127750000D01*
X158055238Y-127845238D01*
X158150476Y-127940476D01*
X158198095Y-128035714D01*
M02*
