G04 #@! TF.GenerationSoftware,KiCad,Pcbnew,(5.1.12)-1*
G04 #@! TF.CreationDate,2024-01-30T16:28:47+00:00*
G04 #@! TF.ProjectId,CPCRAM,43504352-414d-42e6-9b69-6361645f7063,rev?*
G04 #@! TF.SameCoordinates,Original*
G04 #@! TF.FileFunction,Soldermask,Bot*
G04 #@! TF.FilePolarity,Negative*
%FSLAX46Y46*%
G04 Gerber Fmt 4.6, Leading zero omitted, Abs format (unit mm)*
G04 Created by KiCad (PCBNEW (5.1.12)-1) date 2024-01-30 16:28:47*
%MOMM*%
%LPD*%
G01*
G04 APERTURE LIST*
%ADD10C,0.100000*%
%ADD11R,1.600000X10.000000*%
%ADD12O,1.600000X1.600000*%
%ADD13R,1.600000X1.600000*%
%ADD14C,1.600000*%
G04 APERTURE END LIST*
D10*
G36*
X250190000Y-170920000D02*
G01*
X250190000Y-160125000D01*
X156210000Y-160125000D01*
X156210000Y-170920000D01*
X250190000Y-170920000D01*
G37*
X250190000Y-170920000D02*
X250190000Y-160125000D01*
X156210000Y-160125000D01*
X156210000Y-170920000D01*
X250190000Y-170920000D01*
D11*
X247650000Y-165735000D03*
X245110000Y-165735000D03*
X242570000Y-165735000D03*
X240030000Y-165735000D03*
X237490000Y-165735000D03*
X234950000Y-165735000D03*
X232410000Y-165735000D03*
X229870000Y-165735000D03*
X227330000Y-165735000D03*
X224790000Y-165735000D03*
X222250000Y-165735000D03*
X219710000Y-165735000D03*
X217170000Y-165735000D03*
X214630000Y-165735000D03*
X212090000Y-165735000D03*
X209550000Y-165735000D03*
X207010000Y-165735000D03*
X204470000Y-165735000D03*
X201930000Y-165735000D03*
X199390000Y-165735000D03*
X196850000Y-165735000D03*
X194310000Y-165735000D03*
X191770000Y-165735000D03*
X189230000Y-165735000D03*
X186690000Y-165735000D03*
X184150000Y-165735000D03*
X181610000Y-165735000D03*
X179070000Y-165735000D03*
X176530000Y-165735000D03*
X173990000Y-165735000D03*
X171450000Y-165735000D03*
X168910000Y-165735000D03*
X166370000Y-165735000D03*
X163830000Y-165735000D03*
X161290000Y-165735000D03*
X158750000Y-165735000D03*
D12*
X159385000Y-137795000D03*
X177165000Y-145415000D03*
X161925000Y-137795000D03*
X174625000Y-145415000D03*
X164465000Y-137795000D03*
X172085000Y-145415000D03*
X167005000Y-137795000D03*
X169545000Y-145415000D03*
X169545000Y-137795000D03*
X167005000Y-145415000D03*
X172085000Y-137795000D03*
X164465000Y-145415000D03*
X174625000Y-137795000D03*
X161925000Y-145415000D03*
X177165000Y-137795000D03*
D13*
X159385000Y-145415000D03*
D12*
X208915000Y-128905000D03*
X247015000Y-144145000D03*
X211455000Y-128905000D03*
X244475000Y-144145000D03*
X213995000Y-128905000D03*
X241935000Y-144145000D03*
X216535000Y-128905000D03*
X239395000Y-144145000D03*
X219075000Y-128905000D03*
X236855000Y-144145000D03*
X221615000Y-128905000D03*
X234315000Y-144145000D03*
X224155000Y-128905000D03*
X231775000Y-144145000D03*
X226695000Y-128905000D03*
X229235000Y-144145000D03*
X229235000Y-128905000D03*
X226695000Y-144145000D03*
X231775000Y-128905000D03*
X224155000Y-144145000D03*
X234315000Y-128905000D03*
X221615000Y-144145000D03*
X236855000Y-128905000D03*
X219075000Y-144145000D03*
X239395000Y-128905000D03*
X216535000Y-144145000D03*
X241935000Y-128905000D03*
X213995000Y-144145000D03*
X244475000Y-128905000D03*
X211455000Y-144145000D03*
X247015000Y-128905000D03*
D13*
X208915000Y-144145000D03*
D12*
X229235000Y-115570000D03*
X244475000Y-123190000D03*
X231775000Y-115570000D03*
X241935000Y-123190000D03*
X234315000Y-115570000D03*
X239395000Y-123190000D03*
X236855000Y-115570000D03*
X236855000Y-123190000D03*
X239395000Y-115570000D03*
X234315000Y-123190000D03*
X241935000Y-115570000D03*
X231775000Y-123190000D03*
X244475000Y-115570000D03*
D13*
X229235000Y-123190000D03*
D12*
X164465000Y-121285000D03*
D14*
X164465000Y-113665000D03*
D12*
X159385000Y-127000000D03*
X177165000Y-134620000D03*
X161925000Y-127000000D03*
X174625000Y-134620000D03*
X164465000Y-127000000D03*
X172085000Y-134620000D03*
X167005000Y-127000000D03*
X169545000Y-134620000D03*
X169545000Y-127000000D03*
X167005000Y-134620000D03*
X172085000Y-127000000D03*
X164465000Y-134620000D03*
X174625000Y-127000000D03*
X161925000Y-134620000D03*
X177165000Y-127000000D03*
D13*
X159385000Y-134620000D03*
D12*
X184150000Y-127000000D03*
X201930000Y-134620000D03*
X186690000Y-127000000D03*
X199390000Y-134620000D03*
X189230000Y-127000000D03*
X196850000Y-134620000D03*
X191770000Y-127000000D03*
X194310000Y-134620000D03*
X194310000Y-127000000D03*
X191770000Y-134620000D03*
X196850000Y-127000000D03*
X189230000Y-134620000D03*
X199390000Y-127000000D03*
X186690000Y-134620000D03*
X201930000Y-127000000D03*
D13*
X184150000Y-134620000D03*
D12*
X184150000Y-137795000D03*
X201930000Y-145415000D03*
X186690000Y-137795000D03*
X199390000Y-145415000D03*
X189230000Y-137795000D03*
X196850000Y-145415000D03*
X191770000Y-137795000D03*
X194310000Y-145415000D03*
X194310000Y-137795000D03*
X191770000Y-145415000D03*
X196850000Y-137795000D03*
X189230000Y-145415000D03*
X199390000Y-137795000D03*
X186690000Y-145415000D03*
X201930000Y-137795000D03*
D13*
X184150000Y-145415000D03*
D12*
X172085000Y-106045000D03*
X220345000Y-121285000D03*
X174625000Y-106045000D03*
X217805000Y-121285000D03*
X177165000Y-106045000D03*
X215265000Y-121285000D03*
X179705000Y-106045000D03*
X212725000Y-121285000D03*
X182245000Y-106045000D03*
X210185000Y-121285000D03*
X184785000Y-106045000D03*
X207645000Y-121285000D03*
X187325000Y-106045000D03*
X205105000Y-121285000D03*
X189865000Y-106045000D03*
X202565000Y-121285000D03*
X192405000Y-106045000D03*
X200025000Y-121285000D03*
X194945000Y-106045000D03*
X197485000Y-121285000D03*
X197485000Y-106045000D03*
X194945000Y-121285000D03*
X200025000Y-106045000D03*
X192405000Y-121285000D03*
X202565000Y-106045000D03*
X189865000Y-121285000D03*
X205105000Y-106045000D03*
X187325000Y-121285000D03*
X207645000Y-106045000D03*
X184785000Y-121285000D03*
X210185000Y-106045000D03*
X182245000Y-121285000D03*
X212725000Y-106045000D03*
X179705000Y-121285000D03*
X215265000Y-106045000D03*
X177165000Y-121285000D03*
X217805000Y-106045000D03*
X174625000Y-121285000D03*
X220345000Y-106045000D03*
D13*
X172085000Y-121285000D03*
D14*
X226060000Y-118110000D03*
X226060000Y-115610000D03*
X217845000Y-124460000D03*
X220345000Y-124460000D03*
X211455000Y-126365000D03*
X208955000Y-126365000D03*
X180975000Y-135295000D03*
X180975000Y-137795000D03*
X180975000Y-124540000D03*
X180975000Y-127040000D03*
X156210000Y-140295000D03*
X156210000Y-137795000D03*
X156210000Y-129500000D03*
X156210000Y-127000000D03*
M02*
