M48
INCH,TZ
T1C0.0157
T2C0.0315
T3C0.0394
%
G90
G05
T1
X63750Y-45250
X64250Y-44750
X65000Y-46350
X65750Y-42700
X66000Y-42200
X66300Y-42450
X67300Y-43550
X69250Y-43200
X69750Y-45750
X70100Y-48400
X70250Y-47050
X70446Y-57748
X70721Y-58100
X71250Y-45750
X71750Y-56550
X72250Y-44300
X73500Y-49050
X73900Y-56800
X74200Y-48208
X74200Y-50550
X75968Y-50518
X77050Y-48454
X78200Y-47300
X78500Y-50750
X79000Y-48500
X79250Y-46650
X79500Y-50750
X81200Y-58000
X81600Y-57550
X82375Y-43925
X83250Y-48950
X86750Y-54750
X87050Y-54000
X87300Y-53300
X87500Y-52500
X87750Y-51300
X87950Y-46000
X88200Y-52246
X88750Y-48950
X89450Y-47150
X90000Y-47700
X90750Y-46250
X92250Y-46300
X92750Y-49800
X93750Y-47200
X94300Y-43900
X95750Y-49050
X96750Y-49450
X97200Y-49750
X98350Y-57800
X99250Y-57800
T2
X61500Y-50000
X61500Y-50984
X61500Y-54250
X61500Y-55234
X62750Y-50000
X62750Y-53000
X62750Y-54250
X62750Y-57250
X63750Y-50000
X63750Y-53000
X63750Y-54250
X63750Y-57250
X64750Y-50000
X64750Y-53000
X64750Y-54250
X64750Y-57250
X65500Y-45750
X65500Y-48750
X65750Y-50000
X65750Y-53000
X65750Y-54250
X65750Y-57250
X66750Y-50000
X66750Y-53000
X66750Y-54250
X66750Y-57250
X67750Y-41750
X67750Y-47750
X67750Y-50000
X67750Y-53000
X67750Y-54250
X67750Y-57250
X68750Y-41750
X68750Y-47750
X68750Y-50000
X68750Y-53000
X68750Y-54250
X68750Y-57250
X69750Y-41750
X69750Y-47750
X69750Y-50000
X69750Y-53000
X69750Y-54250
X69750Y-57250
X70750Y-41750
X70750Y-47750
X71250Y-49031
X71250Y-50016
X71250Y-53266
X71250Y-54250
X71750Y-41750
X71750Y-47750
X72500Y-50000
X72500Y-53000
X72500Y-54250
X72500Y-57250
X72750Y-41750
X72750Y-47750
X73500Y-50000
X73500Y-53000
X73500Y-54250
X73500Y-57250
X73750Y-41750
X73750Y-47750
X74500Y-50000
X74500Y-53000
X74500Y-54250
X74500Y-57250
X74750Y-41750
X74750Y-47750
X75500Y-50000
X75500Y-53000
X75500Y-54250
X75500Y-57250
X75750Y-41750
X75750Y-47750
X76500Y-50000
X76500Y-53000
X76500Y-54250
X76500Y-57250
X76750Y-41750
X76750Y-47750
X77500Y-50000
X77500Y-53000
X77500Y-54250
X77500Y-57250
X77750Y-41750
X77750Y-47750
X78500Y-50000
X78500Y-53000
X78500Y-54250
X78500Y-57250
X78750Y-41750
X78750Y-47750
X79500Y-50000
X79500Y-53000
X79500Y-54250
X79500Y-57250
X79750Y-41750
X79750Y-47750
X80750Y-41750
X80750Y-47750
X81750Y-41750
X81750Y-47750
X82250Y-50750
X82250Y-56750
X82266Y-49750
X82750Y-41750
X82750Y-47750
X83250Y-49750
X83250Y-50750
X83250Y-56750
X83750Y-41750
X83750Y-47750
X84250Y-50750
X84250Y-56750
X84750Y-41750
X84750Y-47750
X85250Y-50750
X85250Y-56750
X85750Y-41750
X85750Y-47750
X85766Y-49000
X86250Y-50750
X86250Y-56750
X86750Y-41750
X86750Y-47750
X86750Y-49000
X87250Y-50750
X87250Y-56750
X88250Y-50750
X88250Y-56750
X89000Y-45516
X89000Y-46500
X89250Y-50750
X89250Y-56750
X90250Y-45500
X90250Y-48500
X90250Y-50750
X90250Y-56750
X91250Y-45500
X91250Y-48500
X91250Y-50750
X91250Y-56750
X92250Y-45500
X92250Y-48500
X92250Y-50750
X92250Y-56750
X93250Y-45500
X93250Y-48500
X93250Y-50750
X93250Y-56750
X94250Y-45500
X94250Y-48500
X94250Y-50750
X94250Y-56750
X95250Y-45500
X95250Y-48500
X95250Y-50750
X95250Y-56750
X96250Y-45500
X96250Y-48500
X96250Y-50750
X96250Y-56750
X97250Y-50750
X97250Y-56750
T3
X61300Y-59690
X62300Y-59690
X63300Y-59690
X64300Y-59690
X65300Y-59690
X65500Y-43250
X65500Y-44250
X66300Y-59690
X67300Y-59690
X68300Y-59690
X69300Y-59690
X70300Y-59690
X71300Y-59690
X72300Y-59690
X73300Y-59690
X74300Y-59690
X75300Y-59690
X76300Y-59690
X77300Y-58690
X77300Y-59690
X78300Y-58690
X78300Y-59690
X79300Y-58690
X79300Y-59690
X80300Y-58690
X80300Y-59690
X81300Y-58690
X81300Y-59690
X82300Y-58690
X82300Y-59690
X83300Y-58690
X83300Y-59690
X84300Y-58690
X84300Y-59690
X85300Y-58690
X85300Y-59690
X86300Y-58690
X86300Y-59690
X87300Y-58690
X87300Y-59690
X88300Y-58690
X88300Y-59690
X89300Y-58690
X89300Y-59690
X89750Y-41750
X89750Y-42750
X90300Y-58690
X90300Y-59690
X90750Y-41750
X90750Y-42750
X91300Y-58690
X91300Y-59690
X91750Y-41750
X91750Y-42750
X92300Y-58690
X92300Y-59690
X92750Y-41750
X92750Y-42750
X93300Y-58690
X93300Y-59690
X93750Y-41750
X93750Y-42750
X94300Y-58690
X94300Y-59690
X94750Y-41750
X94750Y-42750
X95300Y-58690
X95300Y-59690
X95750Y-41750
X95750Y-42750
X96300Y-58690
X96300Y-59690
X96750Y-41750
X96750Y-42750
X97300Y-58690
X97300Y-59690
X98300Y-58690
X98300Y-59690
X99300Y-58690
X99300Y-59690
X100300Y-58690
X100300Y-59690
X101300Y-58690
T0
M30
