M48
INCH,TZ
T1C0.0157
T2C0.0295
T3C0.0315
T4C0.0394
T5C0.0512
%
G90
G05
T1
X65550Y-57000
X66800Y-57000
X68050Y-57000
X69300Y-57000
X70550Y-57000
X71800Y-57000
X73050Y-57000
X74300Y-57000
X75250Y-54900
X75700Y-53450
X78000Y-50500
X84250Y-54750
X85200Y-56000
X86700Y-56311
X86800Y-53900
X87000Y-57550
X87800Y-57750
X88600Y-57900
X97550Y-47500
X98000Y-51800
X98450Y-47500
T2
X92000Y-46500
X92000Y-47500
X92500Y-47000
X95500Y-46500
X95500Y-47500
X96000Y-47000
T3
X62500Y-46000
X63484Y-46000
X65500Y-43500
X65500Y-46500
X67500Y-52750
X67500Y-53734
X68000Y-46750
X68000Y-49750
X68000Y-50750
X68750Y-52750
X68750Y-55750
X68984Y-50750
X69250Y-46750
X69250Y-49750
X69750Y-52750
X69750Y-55750
X70500Y-47750
X70500Y-50750
X70516Y-46750
X70750Y-52750
X70750Y-55750
X71500Y-46750
X71750Y-52750
X71750Y-55750
X72500Y-46750
X72750Y-52750
X72750Y-55750
X73750Y-52750
X73750Y-55750
X74750Y-52750
X74750Y-55750
X75500Y-46750
X75750Y-52750
X75750Y-55750
X76250Y-41500
X76250Y-44500
X76750Y-52750
X76750Y-55750
X77250Y-41500
X77250Y-44500
X77500Y-46500
X77750Y-52750
X77750Y-55750
X78484Y-46500
X78500Y-41500
X78500Y-44500
X79750Y-41500
X79750Y-44500
X79750Y-46500
X79750Y-49500
X79750Y-51000
X79750Y-57000
X80750Y-46500
X80750Y-49500
X80750Y-51000
X80750Y-57000
X81000Y-41500
X81000Y-44500
X81750Y-46500
X81750Y-49500
X81750Y-51000
X81750Y-57000
X82250Y-41500
X82250Y-44500
X82750Y-46500
X82750Y-49500
X82750Y-51000
X82750Y-57000
X83500Y-52500
X83500Y-55500
X83750Y-42500
X83750Y-51000
X83750Y-57000
X84500Y-45000
X84500Y-48000
X84734Y-42500
X84750Y-51000
X84750Y-52500
X84750Y-55500
X84750Y-57000
X85750Y-45000
X85750Y-48000
X85750Y-51000
X85750Y-57000
X86750Y-51000
X86750Y-57000
X87750Y-51000
X87750Y-57000
X88016Y-46750
X88750Y-51000
X88750Y-57000
X89000Y-46750
X89750Y-51000
X89750Y-57000
X90750Y-51000
X90750Y-57000
X91750Y-51000
X91750Y-52500
X91750Y-55500
X91750Y-57000
X92500Y-44750
X92750Y-51000
X92750Y-57000
X93500Y-44750
X93750Y-49250
X93750Y-51000
X93750Y-57000
X94500Y-44750
X94734Y-49250
X94750Y-51000
X94750Y-57000
X95500Y-44750
X95750Y-51000
X95750Y-57000
X96500Y-44750
X96750Y-51000
X96750Y-57000
X97500Y-44750
X97750Y-51000
X97750Y-57000
X98500Y-44750
X98750Y-51000
X98750Y-57000
T4
X61250Y-59750
X62250Y-59750
X63250Y-59750
X64250Y-59750
X65250Y-59750
X66250Y-59750
X67250Y-59750
X68250Y-59750
X69250Y-59750
X70250Y-59750
X71250Y-59750
X72250Y-49000
X72250Y-50000
X72250Y-51000
X72250Y-59750
X73250Y-49000
X73250Y-50000
X73250Y-51000
X73250Y-59750
X74250Y-49000
X74250Y-50000
X74250Y-51000
X74250Y-59750
X75250Y-49000
X75250Y-50000
X75250Y-51000
X75250Y-59750
X76250Y-49000
X76250Y-50000
X76250Y-51000
X76250Y-59750
X77250Y-49000
X77250Y-50000
X77250Y-51000
X77250Y-58750
X77250Y-59750
X78250Y-58750
X78250Y-59750
X79250Y-58750
X79250Y-59750
X80250Y-58750
X80250Y-59750
X81250Y-58750
X81250Y-59750
X82250Y-58750
X82250Y-59750
X83250Y-58750
X83250Y-59750
X84250Y-58750
X84250Y-59750
X85250Y-49250
X85250Y-58750
X85250Y-59750
X86250Y-49250
X86250Y-58750
X86250Y-59750
X87250Y-49250
X87250Y-58750
X87250Y-59750
X87500Y-41750
X87500Y-42750
X87500Y-43750
X88250Y-49250
X88250Y-58750
X88250Y-59750
X88500Y-41750
X88500Y-42750
X88500Y-43750
X89250Y-49250
X89250Y-58750
X89250Y-59750
X89500Y-41750
X89500Y-42750
X89500Y-43750
X90250Y-49250
X90250Y-58750
X90250Y-59750
X90500Y-42750
X90500Y-43750
X91250Y-49250
X91250Y-58750
X91250Y-59750
X92250Y-41750
X92250Y-49250
X92250Y-58750
X92250Y-59750
X93250Y-41750
X93250Y-58750
X93250Y-59750
X94250Y-41750
X94250Y-58750
X94250Y-59750
X95250Y-41750
X95250Y-58750
X95250Y-59750
X96250Y-41750
X96250Y-58750
X96250Y-59750
X97250Y-41750
X97250Y-58750
X97250Y-59750
X98250Y-41750
X98250Y-58750
X98250Y-59750
X99250Y-58750
X99250Y-59750
X100250Y-58750
X100250Y-59750
X101250Y-58750
T5
X67500Y-41750
X70500Y-41750
X74500Y-41750
X74500Y-44750
T4
G00X61250Y-49447
M15
G01X61250Y-49053
M16
G05
G00X61250Y-53197
M15
G01X61250Y-52803
M16
G05
G00X61250Y-56947
M15
G01X61250Y-56553
M16
G05
G00X62195Y-48659
M15
G01X62195Y-48266
M16
G05
G00X62195Y-52409
M15
G01X62195Y-52016
M16
G05
G00X62195Y-56159
M15
G01X62195Y-55766
M16
G05
G00X64360Y-48659
M15
G01X64360Y-48266
M16
G05
G00X64360Y-52409
M15
G01X64360Y-52016
M16
G05
G00X64360Y-56159
M15
G01X64360Y-55766
M16
G05
T0
M30
