G04 #@! TF.GenerationSoftware,KiCad,Pcbnew,(5.1.12)-1*
G04 #@! TF.CreationDate,2024-01-30T16:17:30+00:00*
G04 #@! TF.ProjectId,CPCIO,43504349-4f2e-46b6-9963-61645f706362,rev?*
G04 #@! TF.SameCoordinates,Original*
G04 #@! TF.FileFunction,Legend,Bot*
G04 #@! TF.FilePolarity,Positive*
%FSLAX46Y46*%
G04 Gerber Fmt 4.6, Leading zero omitted, Abs format (unit mm)*
G04 Created by KiCad (PCBNEW (5.1.12)-1) date 2024-01-30 16:17:30*
%MOMM*%
%LPD*%
G01*
G04 APERTURE LIST*
%ADD10C,0.200000*%
%ADD11C,0.150000*%
G04 APERTURE END LIST*
D10*
X164682857Y-126408571D02*
X164682857Y-124908571D01*
X164182857Y-125980000D01*
X163682857Y-124908571D01*
X163682857Y-126408571D01*
X162682857Y-124908571D02*
X162397142Y-124908571D01*
X162254285Y-124980000D01*
X162111428Y-125122857D01*
X162040000Y-125408571D01*
X162040000Y-125908571D01*
X162111428Y-126194285D01*
X162254285Y-126337142D01*
X162397142Y-126408571D01*
X162682857Y-126408571D01*
X162825714Y-126337142D01*
X162968571Y-126194285D01*
X163040000Y-125908571D01*
X163040000Y-125408571D01*
X162968571Y-125122857D01*
X162825714Y-124980000D01*
X162682857Y-124908571D01*
X161611428Y-124908571D02*
X160754285Y-124908571D01*
X161182857Y-126408571D02*
X161182857Y-124908571D01*
X159968571Y-124908571D02*
X159682857Y-124908571D01*
X159540000Y-124980000D01*
X159397142Y-125122857D01*
X159325714Y-125408571D01*
X159325714Y-125908571D01*
X159397142Y-126194285D01*
X159540000Y-126337142D01*
X159682857Y-126408571D01*
X159968571Y-126408571D01*
X160111428Y-126337142D01*
X160254285Y-126194285D01*
X160325714Y-125908571D01*
X160325714Y-125408571D01*
X160254285Y-125122857D01*
X160111428Y-124980000D01*
X159968571Y-124908571D01*
X157825714Y-126408571D02*
X158325714Y-125694285D01*
X158682857Y-126408571D02*
X158682857Y-124908571D01*
X158111428Y-124908571D01*
X157968571Y-124980000D01*
X157897142Y-125051428D01*
X157825714Y-125194285D01*
X157825714Y-125408571D01*
X157897142Y-125551428D01*
X157968571Y-125622857D01*
X158111428Y-125694285D01*
X158682857Y-125694285D01*
X166139285Y-119828571D02*
X165282142Y-119828571D01*
X165710714Y-121328571D02*
X165710714Y-119828571D01*
X164853571Y-120900000D02*
X164139285Y-120900000D01*
X164996428Y-121328571D02*
X164496428Y-119828571D01*
X163996428Y-121328571D01*
X163496428Y-121328571D02*
X163496428Y-119828571D01*
X162925000Y-119828571D01*
X162782142Y-119900000D01*
X162710714Y-119971428D01*
X162639285Y-120114285D01*
X162639285Y-120328571D01*
X162710714Y-120471428D01*
X162782142Y-120542857D01*
X162925000Y-120614285D01*
X163496428Y-120614285D01*
X161996428Y-120542857D02*
X161496428Y-120542857D01*
X161282142Y-121328571D02*
X161996428Y-121328571D01*
X161996428Y-119828571D01*
X161282142Y-119828571D01*
X159496428Y-121328571D02*
X159496428Y-119828571D01*
X158782142Y-121328571D02*
X158782142Y-119828571D01*
X157925000Y-121328571D01*
X157925000Y-119828571D01*
X167774285Y-110303571D02*
X166917142Y-110303571D01*
X167345714Y-111803571D02*
X167345714Y-110303571D01*
X166488571Y-111375000D02*
X165774285Y-111375000D01*
X166631428Y-111803571D02*
X166131428Y-110303571D01*
X165631428Y-111803571D01*
X165131428Y-111803571D02*
X165131428Y-110303571D01*
X164560000Y-110303571D01*
X164417142Y-110375000D01*
X164345714Y-110446428D01*
X164274285Y-110589285D01*
X164274285Y-110803571D01*
X164345714Y-110946428D01*
X164417142Y-111017857D01*
X164560000Y-111089285D01*
X165131428Y-111089285D01*
X163631428Y-111017857D02*
X163131428Y-111017857D01*
X162917142Y-111803571D02*
X163631428Y-111803571D01*
X163631428Y-110303571D01*
X162917142Y-110303571D01*
X160845714Y-110303571D02*
X160560000Y-110303571D01*
X160417142Y-110375000D01*
X160274285Y-110517857D01*
X160202857Y-110803571D01*
X160202857Y-111303571D01*
X160274285Y-111589285D01*
X160417142Y-111732142D01*
X160560000Y-111803571D01*
X160845714Y-111803571D01*
X160988571Y-111732142D01*
X161131428Y-111589285D01*
X161202857Y-111303571D01*
X161202857Y-110803571D01*
X161131428Y-110517857D01*
X160988571Y-110375000D01*
X160845714Y-110303571D01*
X159560000Y-110303571D02*
X159560000Y-111517857D01*
X159488571Y-111660714D01*
X159417142Y-111732142D01*
X159274285Y-111803571D01*
X158988571Y-111803571D01*
X158845714Y-111732142D01*
X158774285Y-111660714D01*
X158702857Y-111517857D01*
X158702857Y-110303571D01*
X158202857Y-110303571D02*
X157345714Y-110303571D01*
X157774285Y-111803571D02*
X157774285Y-110303571D01*
D11*
X195879404Y-115912380D02*
X195879404Y-116721904D01*
X195831785Y-116817142D01*
X195784166Y-116864761D01*
X195688928Y-116912380D01*
X195498452Y-116912380D01*
X195403214Y-116864761D01*
X195355595Y-116817142D01*
X195307976Y-116721904D01*
X195307976Y-115912380D01*
X194831785Y-116245714D02*
X194831785Y-116912380D01*
X194831785Y-116340952D02*
X194784166Y-116293333D01*
X194688928Y-116245714D01*
X194546071Y-116245714D01*
X194450833Y-116293333D01*
X194403214Y-116388571D01*
X194403214Y-116912380D01*
X193784166Y-116912380D02*
X193879404Y-116864761D01*
X193927023Y-116769523D01*
X193927023Y-115912380D01*
X193022261Y-116864761D02*
X193117500Y-116912380D01*
X193307976Y-116912380D01*
X193403214Y-116864761D01*
X193450833Y-116769523D01*
X193450833Y-116388571D01*
X193403214Y-116293333D01*
X193307976Y-116245714D01*
X193117500Y-116245714D01*
X193022261Y-116293333D01*
X192974642Y-116388571D01*
X192974642Y-116483809D01*
X193450833Y-116579047D01*
X192593690Y-116864761D02*
X192498452Y-116912380D01*
X192307976Y-116912380D01*
X192212738Y-116864761D01*
X192165119Y-116769523D01*
X192165119Y-116721904D01*
X192212738Y-116626666D01*
X192307976Y-116579047D01*
X192450833Y-116579047D01*
X192546071Y-116531428D01*
X192593690Y-116436190D01*
X192593690Y-116388571D01*
X192546071Y-116293333D01*
X192450833Y-116245714D01*
X192307976Y-116245714D01*
X192212738Y-116293333D01*
X191784166Y-116864761D02*
X191688928Y-116912380D01*
X191498452Y-116912380D01*
X191403214Y-116864761D01*
X191355595Y-116769523D01*
X191355595Y-116721904D01*
X191403214Y-116626666D01*
X191498452Y-116579047D01*
X191641309Y-116579047D01*
X191736547Y-116531428D01*
X191784166Y-116436190D01*
X191784166Y-116388571D01*
X191736547Y-116293333D01*
X191641309Y-116245714D01*
X191498452Y-116245714D01*
X191403214Y-116293333D01*
X190165119Y-116912380D02*
X190165119Y-116245714D01*
X190165119Y-116340952D02*
X190117500Y-116293333D01*
X190022261Y-116245714D01*
X189879404Y-116245714D01*
X189784166Y-116293333D01*
X189736547Y-116388571D01*
X189736547Y-116912380D01*
X189736547Y-116388571D02*
X189688928Y-116293333D01*
X189593690Y-116245714D01*
X189450833Y-116245714D01*
X189355595Y-116293333D01*
X189307976Y-116388571D01*
X189307976Y-116912380D01*
X188403214Y-116912380D02*
X188403214Y-116388571D01*
X188450833Y-116293333D01*
X188546071Y-116245714D01*
X188736547Y-116245714D01*
X188831785Y-116293333D01*
X188403214Y-116864761D02*
X188498452Y-116912380D01*
X188736547Y-116912380D01*
X188831785Y-116864761D01*
X188879404Y-116769523D01*
X188879404Y-116674285D01*
X188831785Y-116579047D01*
X188736547Y-116531428D01*
X188498452Y-116531428D01*
X188403214Y-116483809D01*
X187927023Y-116912380D02*
X187927023Y-116245714D01*
X187927023Y-116436190D02*
X187879404Y-116340952D01*
X187831785Y-116293333D01*
X187736547Y-116245714D01*
X187641309Y-116245714D01*
X187307976Y-116912380D02*
X187307976Y-115912380D01*
X187212738Y-116531428D02*
X186927023Y-116912380D01*
X186927023Y-116245714D02*
X187307976Y-116626666D01*
X186117500Y-116864761D02*
X186212738Y-116912380D01*
X186403214Y-116912380D01*
X186498452Y-116864761D01*
X186546071Y-116769523D01*
X186546071Y-116388571D01*
X186498452Y-116293333D01*
X186403214Y-116245714D01*
X186212738Y-116245714D01*
X186117500Y-116293333D01*
X186069880Y-116388571D01*
X186069880Y-116483809D01*
X186546071Y-116579047D01*
X185212738Y-116912380D02*
X185212738Y-115912380D01*
X185212738Y-116864761D02*
X185307976Y-116912380D01*
X185498452Y-116912380D01*
X185593690Y-116864761D01*
X185641309Y-116817142D01*
X185688928Y-116721904D01*
X185688928Y-116436190D01*
X185641309Y-116340952D01*
X185593690Y-116293333D01*
X185498452Y-116245714D01*
X185307976Y-116245714D01*
X185212738Y-116293333D01*
X183831785Y-116912380D02*
X183927023Y-116864761D01*
X183974642Y-116817142D01*
X184022261Y-116721904D01*
X184022261Y-116436190D01*
X183974642Y-116340952D01*
X183927023Y-116293333D01*
X183831785Y-116245714D01*
X183688928Y-116245714D01*
X183593690Y-116293333D01*
X183546071Y-116340952D01*
X183498452Y-116436190D01*
X183498452Y-116721904D01*
X183546071Y-116817142D01*
X183593690Y-116864761D01*
X183688928Y-116912380D01*
X183831785Y-116912380D01*
X183212738Y-116245714D02*
X182831785Y-116245714D01*
X183069880Y-115912380D02*
X183069880Y-116769523D01*
X183022261Y-116864761D01*
X182927023Y-116912380D01*
X182831785Y-116912380D01*
X182498452Y-116912380D02*
X182498452Y-115912380D01*
X182069880Y-116912380D02*
X182069880Y-116388571D01*
X182117500Y-116293333D01*
X182212738Y-116245714D01*
X182355595Y-116245714D01*
X182450833Y-116293333D01*
X182498452Y-116340952D01*
X181212738Y-116864761D02*
X181307976Y-116912380D01*
X181498452Y-116912380D01*
X181593690Y-116864761D01*
X181641309Y-116769523D01*
X181641309Y-116388571D01*
X181593690Y-116293333D01*
X181498452Y-116245714D01*
X181307976Y-116245714D01*
X181212738Y-116293333D01*
X181165119Y-116388571D01*
X181165119Y-116483809D01*
X181641309Y-116579047D01*
X180736547Y-116912380D02*
X180736547Y-116245714D01*
X180736547Y-116436190D02*
X180688928Y-116340952D01*
X180641309Y-116293333D01*
X180546071Y-116245714D01*
X180450833Y-116245714D01*
X180212738Y-116245714D02*
X180022261Y-116912380D01*
X179831785Y-116436190D01*
X179641309Y-116912380D01*
X179450833Y-116245714D01*
X179069880Y-116912380D02*
X179069880Y-116245714D01*
X179069880Y-115912380D02*
X179117500Y-115960000D01*
X179069880Y-116007619D01*
X179022261Y-115960000D01*
X179069880Y-115912380D01*
X179069880Y-116007619D01*
X178641309Y-116864761D02*
X178546071Y-116912380D01*
X178355595Y-116912380D01*
X178260357Y-116864761D01*
X178212738Y-116769523D01*
X178212738Y-116721904D01*
X178260357Y-116626666D01*
X178355595Y-116579047D01*
X178498452Y-116579047D01*
X178593690Y-116531428D01*
X178641309Y-116436190D01*
X178641309Y-116388571D01*
X178593690Y-116293333D01*
X178498452Y-116245714D01*
X178355595Y-116245714D01*
X178260357Y-116293333D01*
X177403214Y-116864761D02*
X177498452Y-116912380D01*
X177688928Y-116912380D01*
X177784166Y-116864761D01*
X177831785Y-116769523D01*
X177831785Y-116388571D01*
X177784166Y-116293333D01*
X177688928Y-116245714D01*
X177498452Y-116245714D01*
X177403214Y-116293333D01*
X177355595Y-116388571D01*
X177355595Y-116483809D01*
X177831785Y-116579047D01*
X176927023Y-116817142D02*
X176879404Y-116864761D01*
X176927023Y-116912380D01*
X176974642Y-116864761D01*
X176927023Y-116817142D01*
X176927023Y-116912380D01*
X176927023Y-116293333D02*
X176879404Y-116340952D01*
X176927023Y-116388571D01*
X176974642Y-116340952D01*
X176927023Y-116293333D01*
X176927023Y-116388571D01*
X195927023Y-118276666D02*
X195450833Y-118276666D01*
X196022261Y-118562380D02*
X195688928Y-117562380D01*
X195355595Y-118562380D01*
X194879404Y-118562380D02*
X194974642Y-118514761D01*
X195022261Y-118419523D01*
X195022261Y-117562380D01*
X194355595Y-118562380D02*
X194450833Y-118514761D01*
X194498452Y-118419523D01*
X194498452Y-117562380D01*
X192784166Y-118514761D02*
X192879404Y-118562380D01*
X193069880Y-118562380D01*
X193165119Y-118514761D01*
X193212738Y-118467142D01*
X193260357Y-118371904D01*
X193260357Y-118086190D01*
X193212738Y-117990952D01*
X193165119Y-117943333D01*
X193069880Y-117895714D01*
X192879404Y-117895714D01*
X192784166Y-117943333D01*
X191927023Y-118562380D02*
X191927023Y-118038571D01*
X191974642Y-117943333D01*
X192069880Y-117895714D01*
X192260357Y-117895714D01*
X192355595Y-117943333D01*
X191927023Y-118514761D02*
X192022261Y-118562380D01*
X192260357Y-118562380D01*
X192355595Y-118514761D01*
X192403214Y-118419523D01*
X192403214Y-118324285D01*
X192355595Y-118229047D01*
X192260357Y-118181428D01*
X192022261Y-118181428D01*
X191927023Y-118133809D01*
X191450833Y-117895714D02*
X191450833Y-118895714D01*
X191450833Y-117943333D02*
X191355595Y-117895714D01*
X191165119Y-117895714D01*
X191069880Y-117943333D01*
X191022261Y-117990952D01*
X190974642Y-118086190D01*
X190974642Y-118371904D01*
X191022261Y-118467142D01*
X191069880Y-118514761D01*
X191165119Y-118562380D01*
X191355595Y-118562380D01*
X191450833Y-118514761D01*
X190593690Y-118514761D02*
X190498452Y-118562380D01*
X190307976Y-118562380D01*
X190212738Y-118514761D01*
X190165119Y-118419523D01*
X190165119Y-118371904D01*
X190212738Y-118276666D01*
X190307976Y-118229047D01*
X190450833Y-118229047D01*
X190546071Y-118181428D01*
X190593690Y-118086190D01*
X190593690Y-118038571D01*
X190546071Y-117943333D01*
X190450833Y-117895714D01*
X190307976Y-117895714D01*
X190212738Y-117943333D01*
X188546071Y-118562380D02*
X188546071Y-118038571D01*
X188593690Y-117943333D01*
X188688928Y-117895714D01*
X188879404Y-117895714D01*
X188974642Y-117943333D01*
X188546071Y-118514761D02*
X188641309Y-118562380D01*
X188879404Y-118562380D01*
X188974642Y-118514761D01*
X189022261Y-118419523D01*
X189022261Y-118324285D01*
X188974642Y-118229047D01*
X188879404Y-118181428D01*
X188641309Y-118181428D01*
X188546071Y-118133809D01*
X188069880Y-118562380D02*
X188069880Y-117895714D01*
X188069880Y-118086190D02*
X188022261Y-117990952D01*
X187974642Y-117943333D01*
X187879404Y-117895714D01*
X187784166Y-117895714D01*
X187069880Y-118514761D02*
X187165119Y-118562380D01*
X187355595Y-118562380D01*
X187450833Y-118514761D01*
X187498452Y-118419523D01*
X187498452Y-118038571D01*
X187450833Y-117943333D01*
X187355595Y-117895714D01*
X187165119Y-117895714D01*
X187069880Y-117943333D01*
X187022261Y-118038571D01*
X187022261Y-118133809D01*
X187498452Y-118229047D01*
X185641309Y-117562380D02*
X185546071Y-117562380D01*
X185450833Y-117610000D01*
X185403214Y-117657619D01*
X185355595Y-117752857D01*
X185307976Y-117943333D01*
X185307976Y-118181428D01*
X185355595Y-118371904D01*
X185403214Y-118467142D01*
X185450833Y-118514761D01*
X185546071Y-118562380D01*
X185641309Y-118562380D01*
X185736547Y-118514761D01*
X185784166Y-118467142D01*
X185831785Y-118371904D01*
X185879404Y-118181428D01*
X185879404Y-117943333D01*
X185831785Y-117752857D01*
X185784166Y-117657619D01*
X185736547Y-117610000D01*
X185641309Y-117562380D01*
X184879404Y-118467142D02*
X184831785Y-118514761D01*
X184879404Y-118562380D01*
X184927023Y-118514761D01*
X184879404Y-118467142D01*
X184879404Y-118562380D01*
X183879404Y-118562380D02*
X184450833Y-118562380D01*
X184165119Y-118562380D02*
X184165119Y-117562380D01*
X184260357Y-117705238D01*
X184355595Y-117800476D01*
X184450833Y-117848095D01*
X183022261Y-117895714D02*
X183022261Y-118562380D01*
X183450833Y-117895714D02*
X183450833Y-118419523D01*
X183403214Y-118514761D01*
X183307976Y-118562380D01*
X183165119Y-118562380D01*
X183069880Y-118514761D01*
X183022261Y-118467142D01*
X182212738Y-118038571D02*
X182546071Y-118038571D01*
X182546071Y-118562380D02*
X182546071Y-117562380D01*
X182069880Y-117562380D01*
X195927023Y-119926666D02*
X195450833Y-119926666D01*
X196022261Y-120212380D02*
X195688928Y-119212380D01*
X195355595Y-120212380D01*
X194879404Y-120212380D02*
X194974642Y-120164761D01*
X195022261Y-120069523D01*
X195022261Y-119212380D01*
X194355595Y-120212380D02*
X194450833Y-120164761D01*
X194498452Y-120069523D01*
X194498452Y-119212380D01*
X192784166Y-120212380D02*
X192784166Y-119212380D01*
X192784166Y-120164761D02*
X192879404Y-120212380D01*
X193069880Y-120212380D01*
X193165119Y-120164761D01*
X193212738Y-120117142D01*
X193260357Y-120021904D01*
X193260357Y-119736190D01*
X193212738Y-119640952D01*
X193165119Y-119593333D01*
X193069880Y-119545714D01*
X192879404Y-119545714D01*
X192784166Y-119593333D01*
X192307976Y-120212380D02*
X192307976Y-119545714D01*
X192307976Y-119212380D02*
X192355595Y-119260000D01*
X192307976Y-119307619D01*
X192260357Y-119260000D01*
X192307976Y-119212380D01*
X192307976Y-119307619D01*
X191688928Y-120212380D02*
X191784166Y-120164761D01*
X191831785Y-120117142D01*
X191879404Y-120021904D01*
X191879404Y-119736190D01*
X191831785Y-119640952D01*
X191784166Y-119593333D01*
X191688928Y-119545714D01*
X191546071Y-119545714D01*
X191450833Y-119593333D01*
X191403214Y-119640952D01*
X191355595Y-119736190D01*
X191355595Y-120021904D01*
X191403214Y-120117142D01*
X191450833Y-120164761D01*
X191546071Y-120212380D01*
X191688928Y-120212380D01*
X190498452Y-120212380D02*
X190498452Y-119212380D01*
X190498452Y-120164761D02*
X190593690Y-120212380D01*
X190784166Y-120212380D01*
X190879404Y-120164761D01*
X190927023Y-120117142D01*
X190974642Y-120021904D01*
X190974642Y-119736190D01*
X190927023Y-119640952D01*
X190879404Y-119593333D01*
X190784166Y-119545714D01*
X190593690Y-119545714D01*
X190498452Y-119593333D01*
X189641309Y-120164761D02*
X189736547Y-120212380D01*
X189927023Y-120212380D01*
X190022261Y-120164761D01*
X190069880Y-120069523D01*
X190069880Y-119688571D01*
X190022261Y-119593333D01*
X189927023Y-119545714D01*
X189736547Y-119545714D01*
X189641309Y-119593333D01*
X189593690Y-119688571D01*
X189593690Y-119783809D01*
X190069880Y-119879047D01*
X189212738Y-120164761D02*
X189117500Y-120212380D01*
X188927023Y-120212380D01*
X188831785Y-120164761D01*
X188784166Y-120069523D01*
X188784166Y-120021904D01*
X188831785Y-119926666D01*
X188927023Y-119879047D01*
X189069880Y-119879047D01*
X189165119Y-119831428D01*
X189212738Y-119736190D01*
X189212738Y-119688571D01*
X189165119Y-119593333D01*
X189069880Y-119545714D01*
X188927023Y-119545714D01*
X188831785Y-119593333D01*
X187165119Y-120212380D02*
X187165119Y-119688571D01*
X187212738Y-119593333D01*
X187307976Y-119545714D01*
X187498452Y-119545714D01*
X187593690Y-119593333D01*
X187165119Y-120164761D02*
X187260357Y-120212380D01*
X187498452Y-120212380D01*
X187593690Y-120164761D01*
X187641309Y-120069523D01*
X187641309Y-119974285D01*
X187593690Y-119879047D01*
X187498452Y-119831428D01*
X187260357Y-119831428D01*
X187165119Y-119783809D01*
X186688928Y-120212380D02*
X186688928Y-119545714D01*
X186688928Y-119736190D02*
X186641309Y-119640952D01*
X186593690Y-119593333D01*
X186498452Y-119545714D01*
X186403214Y-119545714D01*
X185688928Y-120164761D02*
X185784166Y-120212380D01*
X185974642Y-120212380D01*
X186069880Y-120164761D01*
X186117500Y-120069523D01*
X186117500Y-119688571D01*
X186069880Y-119593333D01*
X185974642Y-119545714D01*
X185784166Y-119545714D01*
X185688928Y-119593333D01*
X185641309Y-119688571D01*
X185641309Y-119783809D01*
X186117500Y-119879047D01*
X183927023Y-120212380D02*
X184498452Y-120212380D01*
X184212738Y-120212380D02*
X184212738Y-119212380D01*
X184307976Y-119355238D01*
X184403214Y-119450476D01*
X184498452Y-119498095D01*
X183498452Y-120212380D02*
X183498452Y-119212380D01*
X182927023Y-120212380D01*
X182927023Y-119212380D01*
X182022261Y-119545714D02*
X182022261Y-120212380D01*
X182260357Y-119164761D02*
X182498452Y-119879047D01*
X181879404Y-119879047D01*
X180974642Y-120212380D02*
X181546071Y-120212380D01*
X181260357Y-120212380D02*
X181260357Y-119212380D01*
X181355595Y-119355238D01*
X181450833Y-119450476D01*
X181546071Y-119498095D01*
X180117500Y-119545714D02*
X180117500Y-120212380D01*
X180355595Y-119164761D02*
X180593690Y-119879047D01*
X179974642Y-119879047D01*
X179450833Y-119640952D02*
X179546071Y-119593333D01*
X179593690Y-119545714D01*
X179641309Y-119450476D01*
X179641309Y-119402857D01*
X179593690Y-119307619D01*
X179546071Y-119260000D01*
X179450833Y-119212380D01*
X179260357Y-119212380D01*
X179165119Y-119260000D01*
X179117500Y-119307619D01*
X179069880Y-119402857D01*
X179069880Y-119450476D01*
X179117500Y-119545714D01*
X179165119Y-119593333D01*
X179260357Y-119640952D01*
X179450833Y-119640952D01*
X179546071Y-119688571D01*
X179593690Y-119736190D01*
X179641309Y-119831428D01*
X179641309Y-120021904D01*
X179593690Y-120117142D01*
X179546071Y-120164761D01*
X179450833Y-120212380D01*
X179260357Y-120212380D01*
X179165119Y-120164761D01*
X179117500Y-120117142D01*
X179069880Y-120021904D01*
X179069880Y-119831428D01*
X179117500Y-119736190D01*
X179165119Y-119688571D01*
X179260357Y-119640952D01*
X232233214Y-119707380D02*
X232709404Y-119707380D01*
X232709404Y-118707380D01*
X231899880Y-119707380D02*
X231899880Y-119040714D01*
X231899880Y-118707380D02*
X231947500Y-118755000D01*
X231899880Y-118802619D01*
X231852261Y-118755000D01*
X231899880Y-118707380D01*
X231899880Y-118802619D01*
X231423690Y-119040714D02*
X231423690Y-119707380D01*
X231423690Y-119135952D02*
X231376071Y-119088333D01*
X231280833Y-119040714D01*
X231137976Y-119040714D01*
X231042738Y-119088333D01*
X230995119Y-119183571D01*
X230995119Y-119707380D01*
X230518928Y-119707380D02*
X230518928Y-118707380D01*
X230423690Y-119326428D02*
X230137976Y-119707380D01*
X230137976Y-119040714D02*
X230518928Y-119421666D01*
X229757023Y-119659761D02*
X229661785Y-119707380D01*
X229471309Y-119707380D01*
X229376071Y-119659761D01*
X229328452Y-119564523D01*
X229328452Y-119516904D01*
X229376071Y-119421666D01*
X229471309Y-119374047D01*
X229614166Y-119374047D01*
X229709404Y-119326428D01*
X229757023Y-119231190D01*
X229757023Y-119183571D01*
X229709404Y-119088333D01*
X229614166Y-119040714D01*
X229471309Y-119040714D01*
X229376071Y-119088333D01*
X228899880Y-119612142D02*
X228852261Y-119659761D01*
X228899880Y-119707380D01*
X228947500Y-119659761D01*
X228899880Y-119612142D01*
X228899880Y-119707380D01*
X228899880Y-119088333D02*
X228852261Y-119135952D01*
X228899880Y-119183571D01*
X228947500Y-119135952D01*
X228899880Y-119088333D01*
X228899880Y-119183571D01*
X227185595Y-119707380D02*
X227661785Y-119707380D01*
X227661785Y-118707380D01*
X226471309Y-119659761D02*
X226566547Y-119707380D01*
X226757023Y-119707380D01*
X226852261Y-119659761D01*
X226899880Y-119564523D01*
X226899880Y-119183571D01*
X226852261Y-119088333D01*
X226757023Y-119040714D01*
X226566547Y-119040714D01*
X226471309Y-119088333D01*
X226423690Y-119183571D01*
X226423690Y-119278809D01*
X226899880Y-119374047D01*
X225566547Y-119707380D02*
X225566547Y-119183571D01*
X225614166Y-119088333D01*
X225709404Y-119040714D01*
X225899880Y-119040714D01*
X225995119Y-119088333D01*
X225566547Y-119659761D02*
X225661785Y-119707380D01*
X225899880Y-119707380D01*
X225995119Y-119659761D01*
X226042738Y-119564523D01*
X226042738Y-119469285D01*
X225995119Y-119374047D01*
X225899880Y-119326428D01*
X225661785Y-119326428D01*
X225566547Y-119278809D01*
X225185595Y-119040714D02*
X224947500Y-119707380D01*
X224709404Y-119040714D01*
X223947500Y-119659761D02*
X224042738Y-119707380D01*
X224233214Y-119707380D01*
X224328452Y-119659761D01*
X224376071Y-119564523D01*
X224376071Y-119183571D01*
X224328452Y-119088333D01*
X224233214Y-119040714D01*
X224042738Y-119040714D01*
X223947500Y-119088333D01*
X223899880Y-119183571D01*
X223899880Y-119278809D01*
X224376071Y-119374047D01*
X222566547Y-119707380D02*
X222661785Y-119659761D01*
X222709404Y-119612142D01*
X222757023Y-119516904D01*
X222757023Y-119231190D01*
X222709404Y-119135952D01*
X222661785Y-119088333D01*
X222566547Y-119040714D01*
X222423690Y-119040714D01*
X222328452Y-119088333D01*
X222280833Y-119135952D01*
X222233214Y-119231190D01*
X222233214Y-119516904D01*
X222280833Y-119612142D01*
X222328452Y-119659761D01*
X222423690Y-119707380D01*
X222566547Y-119707380D01*
X221804642Y-119040714D02*
X221804642Y-120040714D01*
X221804642Y-119088333D02*
X221709404Y-119040714D01*
X221518928Y-119040714D01*
X221423690Y-119088333D01*
X221376071Y-119135952D01*
X221328452Y-119231190D01*
X221328452Y-119516904D01*
X221376071Y-119612142D01*
X221423690Y-119659761D01*
X221518928Y-119707380D01*
X221709404Y-119707380D01*
X221804642Y-119659761D01*
X220518928Y-119659761D02*
X220614166Y-119707380D01*
X220804642Y-119707380D01*
X220899880Y-119659761D01*
X220947500Y-119564523D01*
X220947500Y-119183571D01*
X220899880Y-119088333D01*
X220804642Y-119040714D01*
X220614166Y-119040714D01*
X220518928Y-119088333D01*
X220471309Y-119183571D01*
X220471309Y-119278809D01*
X220947500Y-119374047D01*
X220042738Y-119040714D02*
X220042738Y-119707380D01*
X220042738Y-119135952D02*
X219995119Y-119088333D01*
X219899880Y-119040714D01*
X219757023Y-119040714D01*
X219661785Y-119088333D01*
X219614166Y-119183571D01*
X219614166Y-119707380D01*
X218518928Y-119040714D02*
X218137976Y-119040714D01*
X218376071Y-119707380D02*
X218376071Y-118850238D01*
X218328452Y-118755000D01*
X218233214Y-118707380D01*
X218137976Y-118707380D01*
X217661785Y-119707380D02*
X217757023Y-119659761D01*
X217804642Y-119612142D01*
X217852261Y-119516904D01*
X217852261Y-119231190D01*
X217804642Y-119135952D01*
X217757023Y-119088333D01*
X217661785Y-119040714D01*
X217518928Y-119040714D01*
X217423690Y-119088333D01*
X217376071Y-119135952D01*
X217328452Y-119231190D01*
X217328452Y-119516904D01*
X217376071Y-119612142D01*
X217423690Y-119659761D01*
X217518928Y-119707380D01*
X217661785Y-119707380D01*
X216899880Y-119707380D02*
X216899880Y-119040714D01*
X216899880Y-119231190D02*
X216852261Y-119135952D01*
X216804642Y-119088333D01*
X216709404Y-119040714D01*
X216614166Y-119040714D01*
X215090357Y-119707380D02*
X215090357Y-118707380D01*
X215090357Y-119659761D02*
X215185595Y-119707380D01*
X215376071Y-119707380D01*
X215471309Y-119659761D01*
X215518928Y-119612142D01*
X215566547Y-119516904D01*
X215566547Y-119231190D01*
X215518928Y-119135952D01*
X215471309Y-119088333D01*
X215376071Y-119040714D01*
X215185595Y-119040714D01*
X215090357Y-119088333D01*
X214233214Y-119659761D02*
X214328452Y-119707380D01*
X214518928Y-119707380D01*
X214614166Y-119659761D01*
X214661785Y-119564523D01*
X214661785Y-119183571D01*
X214614166Y-119088333D01*
X214518928Y-119040714D01*
X214328452Y-119040714D01*
X214233214Y-119088333D01*
X214185595Y-119183571D01*
X214185595Y-119278809D01*
X214661785Y-119374047D01*
X213899880Y-119040714D02*
X213518928Y-119040714D01*
X213757023Y-119707380D02*
X213757023Y-118850238D01*
X213709404Y-118755000D01*
X213614166Y-118707380D01*
X213518928Y-118707380D01*
X212757023Y-119707380D02*
X212757023Y-119183571D01*
X212804642Y-119088333D01*
X212899880Y-119040714D01*
X213090357Y-119040714D01*
X213185595Y-119088333D01*
X212757023Y-119659761D02*
X212852261Y-119707380D01*
X213090357Y-119707380D01*
X213185595Y-119659761D01*
X213233214Y-119564523D01*
X213233214Y-119469285D01*
X213185595Y-119374047D01*
X213090357Y-119326428D01*
X212852261Y-119326428D01*
X212757023Y-119278809D01*
X211852261Y-119040714D02*
X211852261Y-119707380D01*
X212280833Y-119040714D02*
X212280833Y-119564523D01*
X212233214Y-119659761D01*
X212137976Y-119707380D01*
X211995119Y-119707380D01*
X211899880Y-119659761D01*
X211852261Y-119612142D01*
X211233214Y-119707380D02*
X211328452Y-119659761D01*
X211376071Y-119564523D01*
X211376071Y-118707380D01*
X210995119Y-119040714D02*
X210614166Y-119040714D01*
X210852261Y-118707380D02*
X210852261Y-119564523D01*
X210804642Y-119659761D01*
X210709404Y-119707380D01*
X210614166Y-119707380D01*
X210328452Y-119659761D02*
X210233214Y-119707380D01*
X210042738Y-119707380D01*
X209947500Y-119659761D01*
X209899880Y-119564523D01*
X209899880Y-119516904D01*
X209947500Y-119421666D01*
X210042738Y-119374047D01*
X210185595Y-119374047D01*
X210280833Y-119326428D01*
X210328452Y-119231190D01*
X210328452Y-119183571D01*
X210280833Y-119088333D01*
X210185595Y-119040714D01*
X210042738Y-119040714D01*
X209947500Y-119088333D01*
X209471309Y-119612142D02*
X209423690Y-119659761D01*
X209471309Y-119707380D01*
X209518928Y-119659761D01*
X209471309Y-119612142D01*
X209471309Y-119707380D01*
X232137976Y-121357380D02*
X232471309Y-120881190D01*
X232709404Y-121357380D02*
X232709404Y-120357380D01*
X232328452Y-120357380D01*
X232233214Y-120405000D01*
X232185595Y-120452619D01*
X232137976Y-120547857D01*
X232137976Y-120690714D01*
X232185595Y-120785952D01*
X232233214Y-120833571D01*
X232328452Y-120881190D01*
X232709404Y-120881190D01*
X231185595Y-120405000D02*
X231280833Y-120357380D01*
X231423690Y-120357380D01*
X231566547Y-120405000D01*
X231661785Y-120500238D01*
X231709404Y-120595476D01*
X231757023Y-120785952D01*
X231757023Y-120928809D01*
X231709404Y-121119285D01*
X231661785Y-121214523D01*
X231566547Y-121309761D01*
X231423690Y-121357380D01*
X231328452Y-121357380D01*
X231185595Y-121309761D01*
X231137976Y-121262142D01*
X231137976Y-120928809D01*
X231328452Y-120928809D01*
X230518928Y-120357380D02*
X230423690Y-120357380D01*
X230328452Y-120405000D01*
X230280833Y-120452619D01*
X230233214Y-120547857D01*
X230185595Y-120738333D01*
X230185595Y-120976428D01*
X230233214Y-121166904D01*
X230280833Y-121262142D01*
X230328452Y-121309761D01*
X230423690Y-121357380D01*
X230518928Y-121357380D01*
X230614166Y-121309761D01*
X230661785Y-121262142D01*
X230709404Y-121166904D01*
X230757023Y-120976428D01*
X230757023Y-120738333D01*
X230709404Y-120547857D01*
X230661785Y-120452619D01*
X230614166Y-120405000D01*
X230518928Y-120357380D01*
X229757023Y-121262142D02*
X229709404Y-121309761D01*
X229757023Y-121357380D01*
X229804642Y-121309761D01*
X229757023Y-121262142D01*
X229757023Y-121357380D01*
X229280833Y-121262142D02*
X229233214Y-121309761D01*
X229280833Y-121357380D01*
X229328452Y-121309761D01*
X229280833Y-121262142D01*
X229280833Y-121357380D01*
X228233214Y-121357380D02*
X228566547Y-120881190D01*
X228804642Y-121357380D02*
X228804642Y-120357380D01*
X228423690Y-120357380D01*
X228328452Y-120405000D01*
X228280833Y-120452619D01*
X228233214Y-120547857D01*
X228233214Y-120690714D01*
X228280833Y-120785952D01*
X228328452Y-120833571D01*
X228423690Y-120881190D01*
X228804642Y-120881190D01*
X227280833Y-120405000D02*
X227376071Y-120357380D01*
X227518928Y-120357380D01*
X227661785Y-120405000D01*
X227757023Y-120500238D01*
X227804642Y-120595476D01*
X227852261Y-120785952D01*
X227852261Y-120928809D01*
X227804642Y-121119285D01*
X227757023Y-121214523D01*
X227661785Y-121309761D01*
X227518928Y-121357380D01*
X227423690Y-121357380D01*
X227280833Y-121309761D01*
X227233214Y-121262142D01*
X227233214Y-120928809D01*
X227423690Y-120928809D01*
X226899880Y-120357380D02*
X226280833Y-120357380D01*
X226614166Y-120738333D01*
X226471309Y-120738333D01*
X226376071Y-120785952D01*
X226328452Y-120833571D01*
X226280833Y-120928809D01*
X226280833Y-121166904D01*
X226328452Y-121262142D01*
X226376071Y-121309761D01*
X226471309Y-121357380D01*
X226757023Y-121357380D01*
X226852261Y-121309761D01*
X226899880Y-121262142D01*
X225852261Y-121262142D02*
X225804642Y-121309761D01*
X225852261Y-121357380D01*
X225899880Y-121309761D01*
X225852261Y-121262142D01*
X225852261Y-121357380D01*
X225852261Y-120738333D02*
X225804642Y-120785952D01*
X225852261Y-120833571D01*
X225899880Y-120785952D01*
X225852261Y-120738333D01*
X225852261Y-120833571D01*
X224042738Y-121357380D02*
X224376071Y-120881190D01*
X224614166Y-121357380D02*
X224614166Y-120357380D01*
X224233214Y-120357380D01*
X224137976Y-120405000D01*
X224090357Y-120452619D01*
X224042738Y-120547857D01*
X224042738Y-120690714D01*
X224090357Y-120785952D01*
X224137976Y-120833571D01*
X224233214Y-120881190D01*
X224614166Y-120881190D01*
X223233214Y-121309761D02*
X223328452Y-121357380D01*
X223518928Y-121357380D01*
X223614166Y-121309761D01*
X223661785Y-121214523D01*
X223661785Y-120833571D01*
X223614166Y-120738333D01*
X223518928Y-120690714D01*
X223328452Y-120690714D01*
X223233214Y-120738333D01*
X223185595Y-120833571D01*
X223185595Y-120928809D01*
X223661785Y-121024047D01*
X222328452Y-120690714D02*
X222328452Y-121500238D01*
X222376071Y-121595476D01*
X222423690Y-121643095D01*
X222518928Y-121690714D01*
X222661785Y-121690714D01*
X222757023Y-121643095D01*
X222328452Y-121309761D02*
X222423690Y-121357380D01*
X222614166Y-121357380D01*
X222709404Y-121309761D01*
X222757023Y-121262142D01*
X222804642Y-121166904D01*
X222804642Y-120881190D01*
X222757023Y-120785952D01*
X222709404Y-120738333D01*
X222614166Y-120690714D01*
X222423690Y-120690714D01*
X222328452Y-120738333D01*
X221852261Y-121357380D02*
X221852261Y-120690714D01*
X221852261Y-120357380D02*
X221899880Y-120405000D01*
X221852261Y-120452619D01*
X221804642Y-120405000D01*
X221852261Y-120357380D01*
X221852261Y-120452619D01*
X221233214Y-121357380D02*
X221328452Y-121309761D01*
X221376071Y-121262142D01*
X221423690Y-121166904D01*
X221423690Y-120881190D01*
X221376071Y-120785952D01*
X221328452Y-120738333D01*
X221233214Y-120690714D01*
X221090357Y-120690714D01*
X220995119Y-120738333D01*
X220947500Y-120785952D01*
X220899880Y-120881190D01*
X220899880Y-121166904D01*
X220947500Y-121262142D01*
X220995119Y-121309761D01*
X221090357Y-121357380D01*
X221233214Y-121357380D01*
X220471309Y-120690714D02*
X220471309Y-121357380D01*
X220471309Y-120785952D02*
X220423690Y-120738333D01*
X220328452Y-120690714D01*
X220185595Y-120690714D01*
X220090357Y-120738333D01*
X220042738Y-120833571D01*
X220042738Y-121357380D01*
X218518928Y-121738333D02*
X218566547Y-121690714D01*
X218661785Y-121547857D01*
X218709404Y-121452619D01*
X218757023Y-121309761D01*
X218804642Y-121071666D01*
X218804642Y-120881190D01*
X218757023Y-120643095D01*
X218709404Y-120500238D01*
X218661785Y-120405000D01*
X218566547Y-120262142D01*
X218518928Y-120214523D01*
X218137976Y-121357380D02*
X218137976Y-120690714D01*
X218137976Y-120785952D02*
X218090357Y-120738333D01*
X217995119Y-120690714D01*
X217852261Y-120690714D01*
X217757023Y-120738333D01*
X217709404Y-120833571D01*
X217709404Y-121357380D01*
X217709404Y-120833571D02*
X217661785Y-120738333D01*
X217566547Y-120690714D01*
X217423690Y-120690714D01*
X217328452Y-120738333D01*
X217280833Y-120833571D01*
X217280833Y-121357380D01*
X216376071Y-121357380D02*
X216376071Y-120833571D01*
X216423690Y-120738333D01*
X216518928Y-120690714D01*
X216709404Y-120690714D01*
X216804642Y-120738333D01*
X216376071Y-121309761D02*
X216471309Y-121357380D01*
X216709404Y-121357380D01*
X216804642Y-121309761D01*
X216852261Y-121214523D01*
X216852261Y-121119285D01*
X216804642Y-121024047D01*
X216709404Y-120976428D01*
X216471309Y-120976428D01*
X216376071Y-120928809D01*
X215899880Y-120690714D02*
X215899880Y-121357380D01*
X215899880Y-120785952D02*
X215852261Y-120738333D01*
X215757023Y-120690714D01*
X215614166Y-120690714D01*
X215518928Y-120738333D01*
X215471309Y-120833571D01*
X215471309Y-121357380D01*
X214566547Y-120690714D02*
X214566547Y-121357380D01*
X214995119Y-120690714D02*
X214995119Y-121214523D01*
X214947500Y-121309761D01*
X214852261Y-121357380D01*
X214709404Y-121357380D01*
X214614166Y-121309761D01*
X214566547Y-121262142D01*
X214233214Y-120690714D02*
X213852261Y-120690714D01*
X214090357Y-121357380D02*
X214090357Y-120500238D01*
X214042738Y-120405000D01*
X213947500Y-120357380D01*
X213852261Y-120357380D01*
X213090357Y-121357380D02*
X213090357Y-120833571D01*
X213137976Y-120738333D01*
X213233214Y-120690714D01*
X213423690Y-120690714D01*
X213518928Y-120738333D01*
X213090357Y-121309761D02*
X213185595Y-121357380D01*
X213423690Y-121357380D01*
X213518928Y-121309761D01*
X213566547Y-121214523D01*
X213566547Y-121119285D01*
X213518928Y-121024047D01*
X213423690Y-120976428D01*
X213185595Y-120976428D01*
X213090357Y-120928809D01*
X212185595Y-121309761D02*
X212280833Y-121357380D01*
X212471309Y-121357380D01*
X212566547Y-121309761D01*
X212614166Y-121262142D01*
X212661785Y-121166904D01*
X212661785Y-120881190D01*
X212614166Y-120785952D01*
X212566547Y-120738333D01*
X212471309Y-120690714D01*
X212280833Y-120690714D01*
X212185595Y-120738333D01*
X211899880Y-120690714D02*
X211518928Y-120690714D01*
X211757023Y-120357380D02*
X211757023Y-121214523D01*
X211709404Y-121309761D01*
X211614166Y-121357380D01*
X211518928Y-121357380D01*
X210757023Y-120690714D02*
X210757023Y-121357380D01*
X211185595Y-120690714D02*
X211185595Y-121214523D01*
X211137976Y-121309761D01*
X211042738Y-121357380D01*
X210899880Y-121357380D01*
X210804642Y-121309761D01*
X210757023Y-121262142D01*
X210280833Y-121357380D02*
X210280833Y-120690714D01*
X210280833Y-120881190D02*
X210233214Y-120785952D01*
X210185595Y-120738333D01*
X210090357Y-120690714D01*
X209995119Y-120690714D01*
X209280833Y-121309761D02*
X209376071Y-121357380D01*
X209566547Y-121357380D01*
X209661785Y-121309761D01*
X209709404Y-121214523D01*
X209709404Y-120833571D01*
X209661785Y-120738333D01*
X209566547Y-120690714D01*
X209376071Y-120690714D01*
X209280833Y-120738333D01*
X209233214Y-120833571D01*
X209233214Y-120928809D01*
X209709404Y-121024047D01*
X208804642Y-121357380D02*
X208804642Y-120690714D01*
X208804642Y-120881190D02*
X208757023Y-120785952D01*
X208709404Y-120738333D01*
X208614166Y-120690714D01*
X208518928Y-120690714D01*
X208280833Y-121738333D02*
X208233214Y-121690714D01*
X208137976Y-121547857D01*
X208090357Y-121452619D01*
X208042738Y-121309761D01*
X207995119Y-121071666D01*
X207995119Y-120881190D01*
X208042738Y-120643095D01*
X208090357Y-120500238D01*
X208137976Y-120405000D01*
X208233214Y-120262142D01*
X208280833Y-120214523D01*
X232852261Y-122007380D02*
X232518928Y-123007380D01*
X232185595Y-122007380D01*
X231852261Y-123007380D02*
X231852261Y-122007380D01*
X231852261Y-122483571D02*
X231280833Y-122483571D01*
X231280833Y-123007380D02*
X231280833Y-122007380D01*
X230899880Y-122340714D02*
X230376071Y-122340714D01*
X230899880Y-123007380D01*
X230376071Y-123007380D01*
X229995119Y-122912142D02*
X229947500Y-122959761D01*
X229995119Y-123007380D01*
X230042738Y-122959761D01*
X229995119Y-122912142D01*
X229995119Y-123007380D01*
X229995119Y-122388333D02*
X229947500Y-122435952D01*
X229995119Y-122483571D01*
X230042738Y-122435952D01*
X229995119Y-122388333D01*
X229995119Y-122483571D01*
X228280833Y-122007380D02*
X228757023Y-122007380D01*
X228804642Y-122483571D01*
X228757023Y-122435952D01*
X228661785Y-122388333D01*
X228423690Y-122388333D01*
X228328452Y-122435952D01*
X228280833Y-122483571D01*
X228233214Y-122578809D01*
X228233214Y-122816904D01*
X228280833Y-122912142D01*
X228328452Y-122959761D01*
X228423690Y-123007380D01*
X228661785Y-123007380D01*
X228757023Y-122959761D01*
X228804642Y-122912142D01*
X227614166Y-122007380D02*
X227518928Y-122007380D01*
X227423690Y-122055000D01*
X227376071Y-122102619D01*
X227328452Y-122197857D01*
X227280833Y-122388333D01*
X227280833Y-122626428D01*
X227328452Y-122816904D01*
X227376071Y-122912142D01*
X227423690Y-122959761D01*
X227518928Y-123007380D01*
X227614166Y-123007380D01*
X227709404Y-122959761D01*
X227757023Y-122912142D01*
X227804642Y-122816904D01*
X227852261Y-122626428D01*
X227852261Y-122388333D01*
X227804642Y-122197857D01*
X227757023Y-122102619D01*
X227709404Y-122055000D01*
X227614166Y-122007380D01*
X226852261Y-123007380D02*
X226852261Y-122007380D01*
X226852261Y-122483571D02*
X226280833Y-122483571D01*
X226280833Y-123007380D02*
X226280833Y-122007380D01*
X225899880Y-122340714D02*
X225376071Y-122340714D01*
X225899880Y-123007380D01*
X225376071Y-123007380D01*
X224280833Y-121959761D02*
X225137976Y-123245476D01*
X223518928Y-122007380D02*
X223709404Y-122007380D01*
X223804642Y-122055000D01*
X223852261Y-122102619D01*
X223947500Y-122245476D01*
X223995119Y-122435952D01*
X223995119Y-122816904D01*
X223947500Y-122912142D01*
X223899880Y-122959761D01*
X223804642Y-123007380D01*
X223614166Y-123007380D01*
X223518928Y-122959761D01*
X223471309Y-122912142D01*
X223423690Y-122816904D01*
X223423690Y-122578809D01*
X223471309Y-122483571D01*
X223518928Y-122435952D01*
X223614166Y-122388333D01*
X223804642Y-122388333D01*
X223899880Y-122435952D01*
X223947500Y-122483571D01*
X223995119Y-122578809D01*
X222804642Y-122007380D02*
X222709404Y-122007380D01*
X222614166Y-122055000D01*
X222566547Y-122102619D01*
X222518928Y-122197857D01*
X222471309Y-122388333D01*
X222471309Y-122626428D01*
X222518928Y-122816904D01*
X222566547Y-122912142D01*
X222614166Y-122959761D01*
X222709404Y-123007380D01*
X222804642Y-123007380D01*
X222899880Y-122959761D01*
X222947500Y-122912142D01*
X222995119Y-122816904D01*
X223042738Y-122626428D01*
X223042738Y-122388333D01*
X222995119Y-122197857D01*
X222947500Y-122102619D01*
X222899880Y-122055000D01*
X222804642Y-122007380D01*
X222042738Y-123007380D02*
X222042738Y-122007380D01*
X222042738Y-122483571D02*
X221471309Y-122483571D01*
X221471309Y-123007380D02*
X221471309Y-122007380D01*
X221090357Y-122340714D02*
X220566547Y-122340714D01*
X221090357Y-123007380D01*
X220566547Y-123007380D01*
X232709404Y-124133571D02*
X232376071Y-124133571D01*
X232233214Y-124657380D02*
X232709404Y-124657380D01*
X232709404Y-123657380D01*
X232233214Y-123657380D01*
X231899880Y-123657380D02*
X231233214Y-124657380D01*
X231233214Y-123657380D02*
X231899880Y-124657380D01*
X230852261Y-124657380D02*
X230852261Y-123657380D01*
X230471309Y-123657380D01*
X230376071Y-123705000D01*
X230328452Y-123752619D01*
X230280833Y-123847857D01*
X230280833Y-123990714D01*
X230328452Y-124085952D01*
X230376071Y-124133571D01*
X230471309Y-124181190D01*
X230852261Y-124181190D01*
X229852261Y-124562142D02*
X229804642Y-124609761D01*
X229852261Y-124657380D01*
X229899880Y-124609761D01*
X229852261Y-124562142D01*
X229852261Y-124657380D01*
X229852261Y-124038333D02*
X229804642Y-124085952D01*
X229852261Y-124133571D01*
X229899880Y-124085952D01*
X229852261Y-124038333D01*
X229852261Y-124133571D01*
X228661785Y-124371666D02*
X228185595Y-124371666D01*
X228757023Y-124657380D02*
X228423690Y-123657380D01*
X228090357Y-124657380D01*
X227328452Y-123990714D02*
X227328452Y-124657380D01*
X227757023Y-123990714D02*
X227757023Y-124514523D01*
X227709404Y-124609761D01*
X227614166Y-124657380D01*
X227471309Y-124657380D01*
X227376071Y-124609761D01*
X227328452Y-124562142D01*
X226995119Y-123990714D02*
X226614166Y-123990714D01*
X226852261Y-123657380D02*
X226852261Y-124514523D01*
X226804642Y-124609761D01*
X226709404Y-124657380D01*
X226614166Y-124657380D01*
X226137976Y-124657380D02*
X226233214Y-124609761D01*
X226280833Y-124562142D01*
X226328452Y-124466904D01*
X226328452Y-124181190D01*
X226280833Y-124085952D01*
X226233214Y-124038333D01*
X226137976Y-123990714D01*
X225995119Y-123990714D01*
X225899880Y-124038333D01*
X225852261Y-124085952D01*
X225804642Y-124181190D01*
X225804642Y-124466904D01*
X225852261Y-124562142D01*
X225899880Y-124609761D01*
X225995119Y-124657380D01*
X226137976Y-124657380D01*
X225376071Y-124657380D02*
X225376071Y-123657380D01*
X225376071Y-124038333D02*
X225280833Y-123990714D01*
X225090357Y-123990714D01*
X224995119Y-124038333D01*
X224947500Y-124085952D01*
X224899880Y-124181190D01*
X224899880Y-124466904D01*
X224947500Y-124562142D01*
X224995119Y-124609761D01*
X225090357Y-124657380D01*
X225280833Y-124657380D01*
X225376071Y-124609761D01*
X224328452Y-124657380D02*
X224423690Y-124609761D01*
X224471309Y-124562142D01*
X224518928Y-124466904D01*
X224518928Y-124181190D01*
X224471309Y-124085952D01*
X224423690Y-124038333D01*
X224328452Y-123990714D01*
X224185595Y-123990714D01*
X224090357Y-124038333D01*
X224042738Y-124085952D01*
X223995119Y-124181190D01*
X223995119Y-124466904D01*
X224042738Y-124562142D01*
X224090357Y-124609761D01*
X224185595Y-124657380D01*
X224328452Y-124657380D01*
X223423690Y-124657380D02*
X223518928Y-124609761D01*
X223566547Y-124562142D01*
X223614166Y-124466904D01*
X223614166Y-124181190D01*
X223566547Y-124085952D01*
X223518928Y-124038333D01*
X223423690Y-123990714D01*
X223280833Y-123990714D01*
X223185595Y-124038333D01*
X223137976Y-124085952D01*
X223090357Y-124181190D01*
X223090357Y-124466904D01*
X223137976Y-124562142D01*
X223185595Y-124609761D01*
X223280833Y-124657380D01*
X223423690Y-124657380D01*
X222661785Y-124657380D02*
X222661785Y-123657380D01*
X222566547Y-124276428D02*
X222280833Y-124657380D01*
X222280833Y-123990714D02*
X222661785Y-124371666D01*
X220518928Y-124562142D02*
X220566547Y-124609761D01*
X220709404Y-124657380D01*
X220804642Y-124657380D01*
X220947500Y-124609761D01*
X221042738Y-124514523D01*
X221090357Y-124419285D01*
X221137976Y-124228809D01*
X221137976Y-124085952D01*
X221090357Y-123895476D01*
X221042738Y-123800238D01*
X220947500Y-123705000D01*
X220804642Y-123657380D01*
X220709404Y-123657380D01*
X220566547Y-123705000D01*
X220518928Y-123752619D01*
X220090357Y-124657380D02*
X220090357Y-123657380D01*
X219709404Y-123657380D01*
X219614166Y-123705000D01*
X219566547Y-123752619D01*
X219518928Y-123847857D01*
X219518928Y-123990714D01*
X219566547Y-124085952D01*
X219614166Y-124133571D01*
X219709404Y-124181190D01*
X220090357Y-124181190D01*
X218376071Y-123609761D02*
X219233214Y-124895476D01*
X218042738Y-124657380D02*
X218042738Y-123657380D01*
X217709404Y-124371666D01*
X217376071Y-123657380D01*
X217376071Y-124657380D01*
X232709404Y-126307380D02*
X232709404Y-125307380D01*
X232328452Y-125307380D01*
X232233214Y-125355000D01*
X232185595Y-125402619D01*
X232137976Y-125497857D01*
X232137976Y-125640714D01*
X232185595Y-125735952D01*
X232233214Y-125783571D01*
X232328452Y-125831190D01*
X232709404Y-125831190D01*
X231376071Y-125783571D02*
X231233214Y-125831190D01*
X231185595Y-125878809D01*
X231137976Y-125974047D01*
X231137976Y-126116904D01*
X231185595Y-126212142D01*
X231233214Y-126259761D01*
X231328452Y-126307380D01*
X231709404Y-126307380D01*
X231709404Y-125307380D01*
X231376071Y-125307380D01*
X231280833Y-125355000D01*
X231233214Y-125402619D01*
X231185595Y-125497857D01*
X231185595Y-125593095D01*
X231233214Y-125688333D01*
X231280833Y-125735952D01*
X231376071Y-125783571D01*
X231709404Y-125783571D01*
X230757023Y-126259761D02*
X230614166Y-126307380D01*
X230376071Y-126307380D01*
X230280833Y-126259761D01*
X230233214Y-126212142D01*
X230185595Y-126116904D01*
X230185595Y-126021666D01*
X230233214Y-125926428D01*
X230280833Y-125878809D01*
X230376071Y-125831190D01*
X230566547Y-125783571D01*
X230661785Y-125735952D01*
X230709404Y-125688333D01*
X230757023Y-125593095D01*
X230757023Y-125497857D01*
X230709404Y-125402619D01*
X230661785Y-125355000D01*
X230566547Y-125307380D01*
X230328452Y-125307380D01*
X230185595Y-125355000D01*
X229566547Y-125831190D02*
X229566547Y-126307380D01*
X229899880Y-125307380D02*
X229566547Y-125831190D01*
X229233214Y-125307380D01*
X228899880Y-126212142D02*
X228852261Y-126259761D01*
X228899880Y-126307380D01*
X228947500Y-126259761D01*
X228899880Y-126212142D01*
X228899880Y-126307380D01*
X228899880Y-125688333D02*
X228852261Y-125735952D01*
X228899880Y-125783571D01*
X228947500Y-125735952D01*
X228899880Y-125688333D01*
X228899880Y-125783571D01*
X227661785Y-126307380D02*
X227661785Y-125307380D01*
X227280833Y-125307380D01*
X227185595Y-125355000D01*
X227137976Y-125402619D01*
X227090357Y-125497857D01*
X227090357Y-125640714D01*
X227137976Y-125735952D01*
X227185595Y-125783571D01*
X227280833Y-125831190D01*
X227661785Y-125831190D01*
X226661785Y-126307380D02*
X226661785Y-125640714D01*
X226661785Y-125831190D02*
X226614166Y-125735952D01*
X226566547Y-125688333D01*
X226471309Y-125640714D01*
X226376071Y-125640714D01*
X226042738Y-126307380D02*
X226042738Y-125640714D01*
X226042738Y-125307380D02*
X226090357Y-125355000D01*
X226042738Y-125402619D01*
X225995119Y-125355000D01*
X226042738Y-125307380D01*
X226042738Y-125402619D01*
X225566547Y-125640714D02*
X225566547Y-126307380D01*
X225566547Y-125735952D02*
X225518928Y-125688333D01*
X225423690Y-125640714D01*
X225280833Y-125640714D01*
X225185595Y-125688333D01*
X225137976Y-125783571D01*
X225137976Y-126307380D01*
X224804642Y-125640714D02*
X224423690Y-125640714D01*
X224661785Y-125307380D02*
X224661785Y-126164523D01*
X224614166Y-126259761D01*
X224518928Y-126307380D01*
X224423690Y-126307380D01*
X223709404Y-126259761D02*
X223804642Y-126307380D01*
X223995119Y-126307380D01*
X224090357Y-126259761D01*
X224137976Y-126164523D01*
X224137976Y-125783571D01*
X224090357Y-125688333D01*
X223995119Y-125640714D01*
X223804642Y-125640714D01*
X223709404Y-125688333D01*
X223661785Y-125783571D01*
X223661785Y-125878809D01*
X224137976Y-125974047D01*
X223233214Y-126307380D02*
X223233214Y-125640714D01*
X223233214Y-125831190D02*
X223185595Y-125735952D01*
X223137976Y-125688333D01*
X223042738Y-125640714D01*
X222947500Y-125640714D01*
X221852261Y-126307380D02*
X221852261Y-125307380D01*
X221852261Y-125688333D02*
X221757023Y-125640714D01*
X221566547Y-125640714D01*
X221471309Y-125688333D01*
X221423690Y-125735952D01*
X221376071Y-125831190D01*
X221376071Y-126116904D01*
X221423690Y-126212142D01*
X221471309Y-126259761D01*
X221566547Y-126307380D01*
X221757023Y-126307380D01*
X221852261Y-126259761D01*
X220518928Y-125640714D02*
X220518928Y-126307380D01*
X220947500Y-125640714D02*
X220947500Y-126164523D01*
X220899880Y-126259761D01*
X220804642Y-126307380D01*
X220661785Y-126307380D01*
X220566547Y-126259761D01*
X220518928Y-126212142D01*
X220090357Y-126259761D02*
X219995119Y-126307380D01*
X219804642Y-126307380D01*
X219709404Y-126259761D01*
X219661785Y-126164523D01*
X219661785Y-126116904D01*
X219709404Y-126021666D01*
X219804642Y-125974047D01*
X219947500Y-125974047D01*
X220042738Y-125926428D01*
X220090357Y-125831190D01*
X220090357Y-125783571D01*
X220042738Y-125688333D01*
X219947500Y-125640714D01*
X219804642Y-125640714D01*
X219709404Y-125688333D01*
X219328452Y-125640714D02*
X219090357Y-126307380D01*
X218852261Y-125640714D02*
X219090357Y-126307380D01*
X219185595Y-126545476D01*
X219233214Y-126593095D01*
X219328452Y-126640714D01*
D10*
X225985714Y-134020714D02*
X226057142Y-134092142D01*
X226271428Y-134163571D01*
X226414285Y-134163571D01*
X226628571Y-134092142D01*
X226771428Y-133949285D01*
X226842857Y-133806428D01*
X226914285Y-133520714D01*
X226914285Y-133306428D01*
X226842857Y-133020714D01*
X226771428Y-132877857D01*
X226628571Y-132735000D01*
X226414285Y-132663571D01*
X226271428Y-132663571D01*
X226057142Y-132735000D01*
X225985714Y-132806428D01*
X225342857Y-134163571D02*
X225342857Y-132663571D01*
X224771428Y-132663571D01*
X224628571Y-132735000D01*
X224557142Y-132806428D01*
X224485714Y-132949285D01*
X224485714Y-133163571D01*
X224557142Y-133306428D01*
X224628571Y-133377857D01*
X224771428Y-133449285D01*
X225342857Y-133449285D01*
X222985714Y-134020714D02*
X223057142Y-134092142D01*
X223271428Y-134163571D01*
X223414285Y-134163571D01*
X223628571Y-134092142D01*
X223771428Y-133949285D01*
X223842857Y-133806428D01*
X223914285Y-133520714D01*
X223914285Y-133306428D01*
X223842857Y-133020714D01*
X223771428Y-132877857D01*
X223628571Y-132735000D01*
X223414285Y-132663571D01*
X223271428Y-132663571D01*
X223057142Y-132735000D01*
X222985714Y-132806428D01*
X221200000Y-134163571D02*
X221200000Y-132663571D01*
X220700000Y-133735000D01*
X220200000Y-132663571D01*
X220200000Y-134163571D01*
X219271428Y-134163571D02*
X219414285Y-134092142D01*
X219485714Y-134020714D01*
X219557142Y-133877857D01*
X219557142Y-133449285D01*
X219485714Y-133306428D01*
X219414285Y-133235000D01*
X219271428Y-133163571D01*
X219057142Y-133163571D01*
X218914285Y-133235000D01*
X218842857Y-133306428D01*
X218771428Y-133449285D01*
X218771428Y-133877857D01*
X218842857Y-134020714D01*
X218914285Y-134092142D01*
X219057142Y-134163571D01*
X219271428Y-134163571D01*
X217485714Y-134163571D02*
X217485714Y-132663571D01*
X217485714Y-134092142D02*
X217628571Y-134163571D01*
X217914285Y-134163571D01*
X218057142Y-134092142D01*
X218128571Y-134020714D01*
X218200000Y-133877857D01*
X218200000Y-133449285D01*
X218128571Y-133306428D01*
X218057142Y-133235000D01*
X217914285Y-133163571D01*
X217628571Y-133163571D01*
X217485714Y-133235000D01*
X216128571Y-133163571D02*
X216128571Y-134163571D01*
X216771428Y-133163571D02*
X216771428Y-133949285D01*
X216700000Y-134092142D01*
X216557142Y-134163571D01*
X216342857Y-134163571D01*
X216200000Y-134092142D01*
X216128571Y-134020714D01*
X215200000Y-134163571D02*
X215342857Y-134092142D01*
X215414285Y-133949285D01*
X215414285Y-132663571D01*
X213985714Y-134163571D02*
X213985714Y-133377857D01*
X214057142Y-133235000D01*
X214200000Y-133163571D01*
X214485714Y-133163571D01*
X214628571Y-133235000D01*
X213985714Y-134092142D02*
X214128571Y-134163571D01*
X214485714Y-134163571D01*
X214628571Y-134092142D01*
X214700000Y-133949285D01*
X214700000Y-133806428D01*
X214628571Y-133663571D01*
X214485714Y-133592142D01*
X214128571Y-133592142D01*
X213985714Y-133520714D01*
X213271428Y-134163571D02*
X213271428Y-133163571D01*
X213271428Y-133449285D02*
X213200000Y-133306428D01*
X213128571Y-133235000D01*
X212985714Y-133163571D01*
X212842857Y-133163571D01*
X212342857Y-134020714D02*
X212271428Y-134092142D01*
X212342857Y-134163571D01*
X212414285Y-134092142D01*
X212342857Y-134020714D01*
X212342857Y-134163571D01*
X212342857Y-133235000D02*
X212271428Y-133306428D01*
X212342857Y-133377857D01*
X212414285Y-133306428D01*
X212342857Y-133235000D01*
X212342857Y-133377857D01*
X210485714Y-134163571D02*
X210485714Y-132663571D01*
X208700000Y-132592142D02*
X209985714Y-134520714D01*
X207914285Y-132663571D02*
X207628571Y-132663571D01*
X207485714Y-132735000D01*
X207342857Y-132877857D01*
X207271428Y-133163571D01*
X207271428Y-133663571D01*
X207342857Y-133949285D01*
X207485714Y-134092142D01*
X207628571Y-134163571D01*
X207914285Y-134163571D01*
X208057142Y-134092142D01*
X208200000Y-133949285D01*
X208271428Y-133663571D01*
X208271428Y-133163571D01*
X208200000Y-132877857D01*
X208057142Y-132735000D01*
X207914285Y-132663571D01*
X205485714Y-133592142D02*
X204342857Y-133592142D01*
X204914285Y-134163571D02*
X204914285Y-133020714D01*
X202700000Y-132663571D02*
X201842857Y-132663571D01*
X202271428Y-134163571D02*
X202271428Y-132663571D01*
X200700000Y-134163571D02*
X200700000Y-133377857D01*
X200771428Y-133235000D01*
X200914285Y-133163571D01*
X201200000Y-133163571D01*
X201342857Y-133235000D01*
X200700000Y-134092142D02*
X200842857Y-134163571D01*
X201200000Y-134163571D01*
X201342857Y-134092142D01*
X201414285Y-133949285D01*
X201414285Y-133806428D01*
X201342857Y-133663571D01*
X201200000Y-133592142D01*
X200842857Y-133592142D01*
X200700000Y-133520714D01*
X199985714Y-133163571D02*
X199985714Y-134663571D01*
X199985714Y-133235000D02*
X199842857Y-133163571D01*
X199557142Y-133163571D01*
X199414285Y-133235000D01*
X199342857Y-133306428D01*
X199271428Y-133449285D01*
X199271428Y-133877857D01*
X199342857Y-134020714D01*
X199414285Y-134092142D01*
X199557142Y-134163571D01*
X199842857Y-134163571D01*
X199985714Y-134092142D01*
X198057142Y-134092142D02*
X198200000Y-134163571D01*
X198485714Y-134163571D01*
X198628571Y-134092142D01*
X198700000Y-133949285D01*
X198700000Y-133377857D01*
X198628571Y-133235000D01*
X198485714Y-133163571D01*
X198200000Y-133163571D01*
X198057142Y-133235000D01*
X197985714Y-133377857D01*
X197985714Y-133520714D01*
X198700000Y-133663571D01*
X196200000Y-134163571D02*
X196200000Y-133163571D01*
X196200000Y-133306428D02*
X196128571Y-133235000D01*
X195985714Y-133163571D01*
X195771428Y-133163571D01*
X195628571Y-133235000D01*
X195557142Y-133377857D01*
X195557142Y-134163571D01*
X195557142Y-133377857D02*
X195485714Y-133235000D01*
X195342857Y-133163571D01*
X195128571Y-133163571D01*
X194985714Y-133235000D01*
X194914285Y-133377857D01*
X194914285Y-134163571D01*
X193985714Y-134163571D02*
X194128571Y-134092142D01*
X194200000Y-134020714D01*
X194271428Y-133877857D01*
X194271428Y-133449285D01*
X194200000Y-133306428D01*
X194128571Y-133235000D01*
X193985714Y-133163571D01*
X193771428Y-133163571D01*
X193628571Y-133235000D01*
X193557142Y-133306428D01*
X193485714Y-133449285D01*
X193485714Y-133877857D01*
X193557142Y-134020714D01*
X193628571Y-134092142D01*
X193771428Y-134163571D01*
X193985714Y-134163571D01*
X192200000Y-134163571D02*
X192200000Y-132663571D01*
X192200000Y-134092142D02*
X192342857Y-134163571D01*
X192628571Y-134163571D01*
X192771428Y-134092142D01*
X192842857Y-134020714D01*
X192914285Y-133877857D01*
X192914285Y-133449285D01*
X192842857Y-133306428D01*
X192771428Y-133235000D01*
X192628571Y-133163571D01*
X192342857Y-133163571D01*
X192200000Y-133235000D01*
X190842857Y-133163571D02*
X190842857Y-134163571D01*
X191485714Y-133163571D02*
X191485714Y-133949285D01*
X191414285Y-134092142D01*
X191271428Y-134163571D01*
X191057142Y-134163571D01*
X190914285Y-134092142D01*
X190842857Y-134020714D01*
X189914285Y-134163571D02*
X190057142Y-134092142D01*
X190128571Y-133949285D01*
X190128571Y-132663571D01*
X188771428Y-134092142D02*
X188914285Y-134163571D01*
X189200000Y-134163571D01*
X189342857Y-134092142D01*
X189414285Y-133949285D01*
X189414285Y-133377857D01*
X189342857Y-133235000D01*
X189200000Y-133163571D01*
X188914285Y-133163571D01*
X188771428Y-133235000D01*
X188700000Y-133377857D01*
X188700000Y-133520714D01*
X189414285Y-133663571D01*
X226342857Y-135827857D02*
X226128571Y-135899285D01*
X226057142Y-135970714D01*
X225985714Y-136113571D01*
X225985714Y-136327857D01*
X226057142Y-136470714D01*
X226128571Y-136542142D01*
X226271428Y-136613571D01*
X226842857Y-136613571D01*
X226842857Y-135113571D01*
X226342857Y-135113571D01*
X226200000Y-135185000D01*
X226128571Y-135256428D01*
X226057142Y-135399285D01*
X226057142Y-135542142D01*
X226128571Y-135685000D01*
X226200000Y-135756428D01*
X226342857Y-135827857D01*
X226842857Y-135827857D01*
X225342857Y-136613571D02*
X225342857Y-135613571D01*
X225342857Y-135899285D02*
X225271428Y-135756428D01*
X225200000Y-135685000D01*
X225057142Y-135613571D01*
X224914285Y-135613571D01*
X223842857Y-136542142D02*
X223985714Y-136613571D01*
X224271428Y-136613571D01*
X224414285Y-136542142D01*
X224485714Y-136399285D01*
X224485714Y-135827857D01*
X224414285Y-135685000D01*
X224271428Y-135613571D01*
X223985714Y-135613571D01*
X223842857Y-135685000D01*
X223771428Y-135827857D01*
X223771428Y-135970714D01*
X224485714Y-136113571D01*
X222485714Y-136613571D02*
X222485714Y-135827857D01*
X222557142Y-135685000D01*
X222700000Y-135613571D01*
X222985714Y-135613571D01*
X223128571Y-135685000D01*
X222485714Y-136542142D02*
X222628571Y-136613571D01*
X222985714Y-136613571D01*
X223128571Y-136542142D01*
X223200000Y-136399285D01*
X223200000Y-136256428D01*
X223128571Y-136113571D01*
X222985714Y-136042142D01*
X222628571Y-136042142D01*
X222485714Y-135970714D01*
X221128571Y-136613571D02*
X221128571Y-135113571D01*
X221128571Y-136542142D02*
X221271428Y-136613571D01*
X221557142Y-136613571D01*
X221700000Y-136542142D01*
X221771428Y-136470714D01*
X221842857Y-136327857D01*
X221842857Y-135899285D01*
X221771428Y-135756428D01*
X221700000Y-135685000D01*
X221557142Y-135613571D01*
X221271428Y-135613571D01*
X221128571Y-135685000D01*
X220200000Y-135756428D02*
X220342857Y-135685000D01*
X220414285Y-135613571D01*
X220485714Y-135470714D01*
X220485714Y-135399285D01*
X220414285Y-135256428D01*
X220342857Y-135185000D01*
X220200000Y-135113571D01*
X219914285Y-135113571D01*
X219771428Y-135185000D01*
X219700000Y-135256428D01*
X219628571Y-135399285D01*
X219628571Y-135470714D01*
X219700000Y-135613571D01*
X219771428Y-135685000D01*
X219914285Y-135756428D01*
X220200000Y-135756428D01*
X220342857Y-135827857D01*
X220414285Y-135899285D01*
X220485714Y-136042142D01*
X220485714Y-136327857D01*
X220414285Y-136470714D01*
X220342857Y-136542142D01*
X220200000Y-136613571D01*
X219914285Y-136613571D01*
X219771428Y-136542142D01*
X219700000Y-136470714D01*
X219628571Y-136327857D01*
X219628571Y-136042142D01*
X219700000Y-135899285D01*
X219771428Y-135827857D01*
X219914285Y-135756428D01*
X218700000Y-135113571D02*
X218557142Y-135113571D01*
X218414285Y-135185000D01*
X218342857Y-135256428D01*
X218271428Y-135399285D01*
X218200000Y-135685000D01*
X218200000Y-136042142D01*
X218271428Y-136327857D01*
X218342857Y-136470714D01*
X218414285Y-136542142D01*
X218557142Y-136613571D01*
X218700000Y-136613571D01*
X218842857Y-136542142D01*
X218914285Y-136470714D01*
X218985714Y-136327857D01*
X219057142Y-136042142D01*
X219057142Y-135685000D01*
X218985714Y-135399285D01*
X218914285Y-135256428D01*
X218842857Y-135185000D01*
X218700000Y-135113571D01*
X217557142Y-136470714D02*
X217485714Y-136542142D01*
X217557142Y-136613571D01*
X217628571Y-136542142D01*
X217557142Y-136470714D01*
X217557142Y-136613571D01*
X216200000Y-136542142D02*
X216342857Y-136613571D01*
X216628571Y-136613571D01*
X216771428Y-136542142D01*
X216842857Y-136470714D01*
X216914285Y-136327857D01*
X216914285Y-135899285D01*
X216842857Y-135756428D01*
X216771428Y-135685000D01*
X216628571Y-135613571D01*
X216342857Y-135613571D01*
X216200000Y-135685000D01*
X215342857Y-136613571D02*
X215485714Y-136542142D01*
X215557142Y-136470714D01*
X215628571Y-136327857D01*
X215628571Y-135899285D01*
X215557142Y-135756428D01*
X215485714Y-135685000D01*
X215342857Y-135613571D01*
X215128571Y-135613571D01*
X214985714Y-135685000D01*
X214914285Y-135756428D01*
X214842857Y-135899285D01*
X214842857Y-136327857D01*
X214914285Y-136470714D01*
X214985714Y-136542142D01*
X215128571Y-136613571D01*
X215342857Y-136613571D01*
X214200000Y-136613571D02*
X214200000Y-135613571D01*
X214200000Y-135756428D02*
X214128571Y-135685000D01*
X213985714Y-135613571D01*
X213771428Y-135613571D01*
X213628571Y-135685000D01*
X213557142Y-135827857D01*
X213557142Y-136613571D01*
X213557142Y-135827857D02*
X213485714Y-135685000D01*
X213342857Y-135613571D01*
X213128571Y-135613571D01*
X212985714Y-135685000D01*
X212914285Y-135827857D01*
X212914285Y-136613571D01*
X225628571Y-137920714D02*
X225771428Y-137849285D01*
X226057142Y-137849285D01*
X226200000Y-137920714D01*
X226342857Y-138063571D01*
X226414285Y-138206428D01*
X226414285Y-138492142D01*
X226342857Y-138635000D01*
X226200000Y-138777857D01*
X226057142Y-138849285D01*
X225771428Y-138849285D01*
X225628571Y-138777857D01*
X225914285Y-137349285D02*
X226271428Y-137420714D01*
X226628571Y-137635000D01*
X226842857Y-137992142D01*
X226914285Y-138349285D01*
X226842857Y-138706428D01*
X226628571Y-139063571D01*
X226271428Y-139277857D01*
X225914285Y-139349285D01*
X225557142Y-139277857D01*
X225200000Y-139063571D01*
X224985714Y-138706428D01*
X224914285Y-138349285D01*
X224985714Y-137992142D01*
X225200000Y-137635000D01*
X225557142Y-137420714D01*
X225914285Y-137349285D01*
X223128571Y-139063571D02*
X223128571Y-137563571D01*
X222628571Y-138635000D01*
X222128571Y-137563571D01*
X222128571Y-139063571D01*
X221414285Y-139063571D02*
X221414285Y-138063571D01*
X221414285Y-137563571D02*
X221485714Y-137635000D01*
X221414285Y-137706428D01*
X221342857Y-137635000D01*
X221414285Y-137563571D01*
X221414285Y-137706428D01*
X220700000Y-139063571D02*
X220700000Y-137563571D01*
X220557142Y-138492142D02*
X220128571Y-139063571D01*
X220128571Y-138063571D02*
X220700000Y-138635000D01*
X218914285Y-138992142D02*
X219057142Y-139063571D01*
X219342857Y-139063571D01*
X219485714Y-138992142D01*
X219557142Y-138849285D01*
X219557142Y-138277857D01*
X219485714Y-138135000D01*
X219342857Y-138063571D01*
X219057142Y-138063571D01*
X218914285Y-138135000D01*
X218842857Y-138277857D01*
X218842857Y-138420714D01*
X219557142Y-138563571D01*
X217128571Y-138992142D02*
X216914285Y-139063571D01*
X216557142Y-139063571D01*
X216414285Y-138992142D01*
X216342857Y-138920714D01*
X216271428Y-138777857D01*
X216271428Y-138635000D01*
X216342857Y-138492142D01*
X216414285Y-138420714D01*
X216557142Y-138349285D01*
X216842857Y-138277857D01*
X216985714Y-138206428D01*
X217057142Y-138135000D01*
X217128571Y-137992142D01*
X217128571Y-137849285D01*
X217057142Y-137706428D01*
X216985714Y-137635000D01*
X216842857Y-137563571D01*
X216485714Y-137563571D01*
X216271428Y-137635000D01*
X214985714Y-138063571D02*
X214985714Y-139063571D01*
X215628571Y-138063571D02*
X215628571Y-138849285D01*
X215557142Y-138992142D01*
X215414285Y-139063571D01*
X215200000Y-139063571D01*
X215057142Y-138992142D01*
X214985714Y-138920714D01*
X214485714Y-138063571D02*
X213914285Y-138063571D01*
X214271428Y-137563571D02*
X214271428Y-138849285D01*
X214200000Y-138992142D01*
X214057142Y-139063571D01*
X213914285Y-139063571D01*
X213628571Y-138063571D02*
X213057142Y-138063571D01*
X213414285Y-137563571D02*
X213414285Y-138849285D01*
X213342857Y-138992142D01*
X213200000Y-139063571D01*
X213057142Y-139063571D01*
X212342857Y-139063571D02*
X212485714Y-138992142D01*
X212557142Y-138920714D01*
X212628571Y-138777857D01*
X212628571Y-138349285D01*
X212557142Y-138206428D01*
X212485714Y-138135000D01*
X212342857Y-138063571D01*
X212128571Y-138063571D01*
X211985714Y-138135000D01*
X211914285Y-138206428D01*
X211842857Y-138349285D01*
X211842857Y-138777857D01*
X211914285Y-138920714D01*
X211985714Y-138992142D01*
X212128571Y-139063571D01*
X212342857Y-139063571D01*
X211200000Y-138063571D02*
X211200000Y-139063571D01*
X211200000Y-138206428D02*
X211128571Y-138135000D01*
X210985714Y-138063571D01*
X210771428Y-138063571D01*
X210628571Y-138135000D01*
X210557142Y-138277857D01*
X210557142Y-139063571D01*
X208771428Y-137706428D02*
X208700000Y-137635000D01*
X208557142Y-137563571D01*
X208200000Y-137563571D01*
X208057142Y-137635000D01*
X207985714Y-137706428D01*
X207914285Y-137849285D01*
X207914285Y-137992142D01*
X207985714Y-138206428D01*
X208842857Y-139063571D01*
X207914285Y-139063571D01*
X206985714Y-137563571D02*
X206842857Y-137563571D01*
X206700000Y-137635000D01*
X206628571Y-137706428D01*
X206557142Y-137849285D01*
X206485714Y-138135000D01*
X206485714Y-138492142D01*
X206557142Y-138777857D01*
X206628571Y-138920714D01*
X206700000Y-138992142D01*
X206842857Y-139063571D01*
X206985714Y-139063571D01*
X207128571Y-138992142D01*
X207200000Y-138920714D01*
X207271428Y-138777857D01*
X207342857Y-138492142D01*
X207342857Y-138135000D01*
X207271428Y-137849285D01*
X207200000Y-137706428D01*
X207128571Y-137635000D01*
X206985714Y-137563571D01*
X205914285Y-137706428D02*
X205842857Y-137635000D01*
X205700000Y-137563571D01*
X205342857Y-137563571D01*
X205200000Y-137635000D01*
X205128571Y-137706428D01*
X205057142Y-137849285D01*
X205057142Y-137992142D01*
X205128571Y-138206428D01*
X205985714Y-139063571D01*
X205057142Y-139063571D01*
X203771428Y-138063571D02*
X203771428Y-139063571D01*
X204128571Y-137492142D02*
X204485714Y-138563571D01*
X203557142Y-138563571D01*
X225914285Y-140799285D02*
X225985714Y-140727857D01*
X226128571Y-140656428D01*
X226271428Y-140656428D01*
X226414285Y-140727857D01*
X226485714Y-140799285D01*
X226557142Y-140942142D01*
X226557142Y-141085000D01*
X226485714Y-141227857D01*
X226414285Y-141299285D01*
X226271428Y-141370714D01*
X226128571Y-141370714D01*
X225985714Y-141299285D01*
X225914285Y-141227857D01*
X225914285Y-140656428D02*
X225914285Y-141227857D01*
X225842857Y-141299285D01*
X225771428Y-141299285D01*
X225628571Y-141227857D01*
X225557142Y-141085000D01*
X225557142Y-140727857D01*
X225700000Y-140513571D01*
X225914285Y-140370714D01*
X226200000Y-140299285D01*
X226485714Y-140370714D01*
X226700000Y-140513571D01*
X226842857Y-140727857D01*
X226914285Y-141013571D01*
X226842857Y-141299285D01*
X226700000Y-141513571D01*
X226485714Y-141656428D01*
X226200000Y-141727857D01*
X225914285Y-141656428D01*
X225700000Y-141513571D01*
X224914285Y-141513571D02*
X224914285Y-140013571D01*
X224914285Y-140585000D02*
X224771428Y-140513571D01*
X224485714Y-140513571D01*
X224342857Y-140585000D01*
X224271428Y-140656428D01*
X224200000Y-140799285D01*
X224200000Y-141227857D01*
X224271428Y-141370714D01*
X224342857Y-141442142D01*
X224485714Y-141513571D01*
X224771428Y-141513571D01*
X224914285Y-141442142D01*
X223557142Y-141513571D02*
X223557142Y-140513571D01*
X223557142Y-140799285D02*
X223485714Y-140656428D01*
X223414285Y-140585000D01*
X223271428Y-140513571D01*
X223128571Y-140513571D01*
X222057142Y-141442142D02*
X222200000Y-141513571D01*
X222485714Y-141513571D01*
X222628571Y-141442142D01*
X222700000Y-141299285D01*
X222700000Y-140727857D01*
X222628571Y-140585000D01*
X222485714Y-140513571D01*
X222200000Y-140513571D01*
X222057142Y-140585000D01*
X221985714Y-140727857D01*
X221985714Y-140870714D01*
X222700000Y-141013571D01*
X220700000Y-141513571D02*
X220700000Y-140727857D01*
X220771428Y-140585000D01*
X220914285Y-140513571D01*
X221200000Y-140513571D01*
X221342857Y-140585000D01*
X220700000Y-141442142D02*
X220842857Y-141513571D01*
X221200000Y-141513571D01*
X221342857Y-141442142D01*
X221414285Y-141299285D01*
X221414285Y-141156428D01*
X221342857Y-141013571D01*
X221200000Y-140942142D01*
X220842857Y-140942142D01*
X220700000Y-140870714D01*
X219342857Y-141513571D02*
X219342857Y-140013571D01*
X219342857Y-141442142D02*
X219485714Y-141513571D01*
X219771428Y-141513571D01*
X219914285Y-141442142D01*
X219985714Y-141370714D01*
X220057142Y-141227857D01*
X220057142Y-140799285D01*
X219985714Y-140656428D01*
X219914285Y-140585000D01*
X219771428Y-140513571D01*
X219485714Y-140513571D01*
X219342857Y-140585000D01*
X218414285Y-140656428D02*
X218557142Y-140585000D01*
X218628571Y-140513571D01*
X218699999Y-140370714D01*
X218699999Y-140299285D01*
X218628571Y-140156428D01*
X218557142Y-140085000D01*
X218414285Y-140013571D01*
X218128571Y-140013571D01*
X217985714Y-140085000D01*
X217914285Y-140156428D01*
X217842857Y-140299285D01*
X217842857Y-140370714D01*
X217914285Y-140513571D01*
X217985714Y-140585000D01*
X218128571Y-140656428D01*
X218414285Y-140656428D01*
X218557142Y-140727857D01*
X218628571Y-140799285D01*
X218699999Y-140942142D01*
X218699999Y-141227857D01*
X218628571Y-141370714D01*
X218557142Y-141442142D01*
X218414285Y-141513571D01*
X218128571Y-141513571D01*
X217985714Y-141442142D01*
X217914285Y-141370714D01*
X217842857Y-141227857D01*
X217842857Y-140942142D01*
X217914285Y-140799285D01*
X217985714Y-140727857D01*
X218128571Y-140656428D01*
X216914285Y-140013571D02*
X216771428Y-140013571D01*
X216628571Y-140085000D01*
X216557142Y-140156428D01*
X216485714Y-140299285D01*
X216414285Y-140585000D01*
X216414285Y-140942142D01*
X216485714Y-141227857D01*
X216557142Y-141370714D01*
X216628571Y-141442142D01*
X216771428Y-141513571D01*
X216914285Y-141513571D01*
X217057142Y-141442142D01*
X217128571Y-141370714D01*
X217199999Y-141227857D01*
X217271428Y-140942142D01*
X217271428Y-140585000D01*
X217199999Y-140299285D01*
X217128571Y-140156428D01*
X217057142Y-140085000D01*
X216914285Y-140013571D01*
X214842857Y-140799285D02*
X214914285Y-140727857D01*
X215057142Y-140656428D01*
X215199999Y-140656428D01*
X215342857Y-140727857D01*
X215414285Y-140799285D01*
X215485714Y-140942142D01*
X215485714Y-141085000D01*
X215414285Y-141227857D01*
X215342857Y-141299285D01*
X215199999Y-141370714D01*
X215057142Y-141370714D01*
X214914285Y-141299285D01*
X214842857Y-141227857D01*
X214842857Y-140656428D02*
X214842857Y-141227857D01*
X214771428Y-141299285D01*
X214699999Y-141299285D01*
X214557142Y-141227857D01*
X214485714Y-141085000D01*
X214485714Y-140727857D01*
X214628571Y-140513571D01*
X214842857Y-140370714D01*
X215128571Y-140299285D01*
X215414285Y-140370714D01*
X215628571Y-140513571D01*
X215771428Y-140727857D01*
X215842857Y-141013571D01*
X215771428Y-141299285D01*
X215628571Y-141513571D01*
X215414285Y-141656428D01*
X215128571Y-141727857D01*
X214842857Y-141656428D01*
X214628571Y-141513571D01*
X213842857Y-141513571D02*
X213842857Y-140513571D01*
X213842857Y-140656428D02*
X213771428Y-140585000D01*
X213628571Y-140513571D01*
X213414285Y-140513571D01*
X213271428Y-140585000D01*
X213199999Y-140727857D01*
X213199999Y-141513571D01*
X213199999Y-140727857D02*
X213128571Y-140585000D01*
X212985714Y-140513571D01*
X212771428Y-140513571D01*
X212628571Y-140585000D01*
X212557142Y-140727857D01*
X212557142Y-141513571D01*
X211914285Y-141442142D02*
X211771428Y-141513571D01*
X211485714Y-141513571D01*
X211342857Y-141442142D01*
X211271428Y-141299285D01*
X211271428Y-141227857D01*
X211342857Y-141085000D01*
X211485714Y-141013571D01*
X211699999Y-141013571D01*
X211842857Y-140942142D01*
X211914285Y-140799285D01*
X211914285Y-140727857D01*
X211842857Y-140585000D01*
X211699999Y-140513571D01*
X211485714Y-140513571D01*
X211342857Y-140585000D01*
X210842857Y-140513571D02*
X210271428Y-140513571D01*
X210628571Y-140013571D02*
X210628571Y-141299285D01*
X210557142Y-141442142D01*
X210414285Y-141513571D01*
X210271428Y-141513571D01*
X209128571Y-141513571D02*
X209128571Y-140013571D01*
X209128571Y-141442142D02*
X209271428Y-141513571D01*
X209557142Y-141513571D01*
X209699999Y-141442142D01*
X209771428Y-141370714D01*
X209842857Y-141227857D01*
X209842857Y-140799285D01*
X209771428Y-140656428D01*
X209699999Y-140585000D01*
X209557142Y-140513571D01*
X209271428Y-140513571D01*
X209128571Y-140585000D01*
X208414285Y-140513571D02*
X208414285Y-141513571D01*
X208414285Y-140656428D02*
X208342857Y-140585000D01*
X208199999Y-140513571D01*
X207985714Y-140513571D01*
X207842857Y-140585000D01*
X207771428Y-140727857D01*
X207771428Y-141513571D01*
X207057142Y-141370714D02*
X206985714Y-141442142D01*
X207057142Y-141513571D01*
X207128571Y-141442142D01*
X207057142Y-141370714D01*
X207057142Y-141513571D01*
X206414285Y-141442142D02*
X206271428Y-141513571D01*
X205985714Y-141513571D01*
X205842857Y-141442142D01*
X205771428Y-141299285D01*
X205771428Y-141227857D01*
X205842857Y-141085000D01*
X205985714Y-141013571D01*
X206199999Y-141013571D01*
X206342857Y-140942142D01*
X206414285Y-140799285D01*
X206414285Y-140727857D01*
X206342857Y-140585000D01*
X206199999Y-140513571D01*
X205985714Y-140513571D01*
X205842857Y-140585000D01*
X204914285Y-141513571D02*
X205057142Y-141442142D01*
X205128571Y-141370714D01*
X205199999Y-141227857D01*
X205199999Y-140799285D01*
X205128571Y-140656428D01*
X205057142Y-140585000D01*
X204914285Y-140513571D01*
X204699999Y-140513571D01*
X204557142Y-140585000D01*
X204485714Y-140656428D01*
X204414285Y-140799285D01*
X204414285Y-141227857D01*
X204485714Y-141370714D01*
X204557142Y-141442142D01*
X204699999Y-141513571D01*
X204914285Y-141513571D01*
X203128571Y-141442142D02*
X203271428Y-141513571D01*
X203557142Y-141513571D01*
X203699999Y-141442142D01*
X203771428Y-141370714D01*
X203842857Y-141227857D01*
X203842857Y-140799285D01*
X203771428Y-140656428D01*
X203699999Y-140585000D01*
X203557142Y-140513571D01*
X203271428Y-140513571D01*
X203128571Y-140585000D01*
X202485714Y-141513571D02*
X202485714Y-140513571D01*
X202485714Y-140013571D02*
X202557142Y-140085000D01*
X202485714Y-140156428D01*
X202414285Y-140085000D01*
X202485714Y-140013571D01*
X202485714Y-140156428D01*
X201128571Y-141513571D02*
X201128571Y-140727857D01*
X201199999Y-140585000D01*
X201342857Y-140513571D01*
X201628571Y-140513571D01*
X201771428Y-140585000D01*
X201128571Y-141442142D02*
X201271428Y-141513571D01*
X201628571Y-141513571D01*
X201771428Y-141442142D01*
X201842857Y-141299285D01*
X201842857Y-141156428D01*
X201771428Y-141013571D01*
X201628571Y-140942142D01*
X201271428Y-140942142D01*
X201128571Y-140870714D01*
X200199999Y-141513571D02*
X200342857Y-141442142D01*
X200414285Y-141299285D01*
X200414285Y-140013571D01*
D11*
X158948333Y-174182380D02*
X158948333Y-174896666D01*
X158995952Y-175039523D01*
X159091190Y-175134761D01*
X159234047Y-175182380D01*
X159329285Y-175182380D01*
X158472142Y-175182380D02*
X158472142Y-174182380D01*
X158091190Y-174182380D01*
X157995952Y-174230000D01*
X157948333Y-174277619D01*
X157900714Y-174372857D01*
X157900714Y-174515714D01*
X157948333Y-174610952D01*
X157995952Y-174658571D01*
X158091190Y-174706190D01*
X158472142Y-174706190D01*
X156948333Y-175182380D02*
X157519761Y-175182380D01*
X157234047Y-175182380D02*
X157234047Y-174182380D01*
X157329285Y-174325238D01*
X157424523Y-174420476D01*
X157519761Y-174468095D01*
M02*
