M48
INCH,TZ
T1C0.0157
T2C0.0295
T3C0.0315
T4C0.0394
T5C0.0512
%
G90
G05
T1
X62500Y-62650
X63750Y-62100
X68550Y-62450
X69900Y-60000
X70250Y-58800
X71500Y-61700
X72160Y-62710
X73000Y-59700
X73250Y-62450
X74000Y-59800
X74450Y-53950
X74950Y-43600
X75500Y-53350
X76500Y-52750
X77500Y-62550
X78000Y-59000
X78000Y-59800
X78050Y-61950
X78850Y-62450
X79500Y-62550
X79500Y-45800
X79550Y-61350
X80000Y-62250
X80550Y-60850
X81050Y-61300
X81100Y-50250
X82000Y-54900
X82000Y-62450
X82525Y-61325
X82550Y-59300
X83950Y-62050
X85500Y-62200
X86450Y-62600
T2
X66500Y-59000
X67000Y-58500
X67500Y-59000
X75000Y-49250
X75500Y-48750
X76000Y-49250
T3
X66250Y-54266
X66250Y-55250
X66250Y-60500
X67500Y-54250
X67500Y-57250
X68500Y-42000
X68500Y-45000
X69250Y-60500
X69750Y-42000
X69750Y-45000
X70000Y-51000
X70000Y-57000
X70750Y-49250
X71000Y-44000
X71000Y-44984
X71000Y-51000
X71000Y-57000
X72000Y-51000
X72000Y-57000
X72250Y-42000
X72250Y-45000
X73000Y-51000
X73000Y-57000
X73750Y-49250
X74000Y-51000
X74000Y-57000
X74500Y-42000
X74500Y-45000
X75000Y-51000
X75000Y-57000
X75750Y-42000
X75750Y-42984
X76000Y-51000
X76000Y-57000
X77000Y-42000
X77000Y-45000
X77000Y-51000
X77000Y-57000
X77250Y-49250
X78000Y-51000
X78000Y-57000
X78250Y-42000
X78250Y-45000
X79000Y-51000
X79000Y-57000
X79500Y-42000
X79500Y-45000
X80000Y-51000
X80000Y-57000
X80250Y-49250
X80750Y-42000
X80750Y-45000
X81000Y-51000
X81000Y-57000
X82000Y-42000
X82000Y-45000
X82000Y-51000
X82000Y-57000
X83000Y-51000
X83000Y-57000
X83250Y-42000
X83250Y-45000
X84000Y-49250
X84000Y-51000
X84000Y-57000
X84500Y-42000
X84500Y-45000
X84984Y-49250
X85000Y-51000
X85000Y-57000
X86000Y-42250
X86000Y-43250
X86000Y-44250
X86000Y-45250
X86000Y-51000
X86000Y-57000
X87000Y-51000
X87000Y-57000
X88000Y-51000
X88000Y-57000
X89000Y-42250
X89000Y-43250
X89000Y-44250
X89000Y-45250
X89000Y-51000
X89000Y-57000
X90250Y-42250
X90750Y-44250
X91234Y-42250
X91734Y-44250
X92000Y-55750
X92000Y-58750
X92500Y-47750
X92500Y-48750
X92500Y-49750
X92500Y-50750
X92500Y-51750
X92500Y-52750
X92500Y-53750
X93000Y-55750
X93000Y-58750
X93250Y-42250
X94000Y-55750
X94000Y-58750
X95000Y-55750
X95000Y-58750
X95266Y-44500
X96000Y-55750
X96000Y-58750
X96250Y-42250
X96250Y-44500
X97000Y-55750
X97000Y-58750
X98000Y-55750
X98000Y-58750
T4
X97500Y-48750
X97500Y-49750
X97500Y-50750
X97500Y-51750
X97500Y-52750
X97500Y-53750
X98500Y-48750
X98500Y-49750
X98500Y-50750
X98500Y-51750
X98500Y-52750
X98500Y-53750
T5
X61750Y-60500
X64750Y-53500
X64750Y-56500
X64750Y-60500
T3
G00X62724Y-50272
M15
G01X63000Y-50272
M16
G05
G00X62724Y-51728
M15
G01X63000Y-51728
M16
G05
G00X63650Y-50862
M15
G01X63650Y-51138
M16
G05
T4
G00X61250Y-43447
M15
G01X61250Y-43053
M16
G05
G00X61250Y-47197
M15
G01X61250Y-46803
M16
G05
G00X62195Y-42659
M15
G01X62195Y-42266
M16
G05
G00X62195Y-46409
M15
G01X62195Y-46016
M16
G05
G00X64360Y-42659
M15
G01X64360Y-42266
M16
G05
G00X64360Y-46409
M15
G01X64360Y-46016
M16
G05
T0
M30
