G04 #@! TF.GenerationSoftware,KiCad,Pcbnew,(5.1.12)-1*
G04 #@! TF.CreationDate,2023-01-27T17:10:11+00:00*
G04 #@! TF.ProjectId,CPCIO,43504349-4f2e-46b6-9963-61645f706362,rev?*
G04 #@! TF.SameCoordinates,Original*
G04 #@! TF.FileFunction,Soldermask,Top*
G04 #@! TF.FilePolarity,Negative*
%FSLAX46Y46*%
G04 Gerber Fmt 4.6, Leading zero omitted, Abs format (unit mm)*
G04 Created by KiCad (PCBNEW (5.1.12)-1) date 2023-01-27 17:10:11*
%MOMM*%
%LPD*%
G01*
G04 APERTURE LIST*
%ADD10C,1.600000*%
%ADD11O,1.700000X1.700000*%
%ADD12R,1.700000X1.700000*%
%ADD13R,1.800000X1.100000*%
%ADD14O,1.600000X1.600000*%
%ADD15R,1.600000X1.600000*%
%ADD16C,2.300000*%
%ADD17R,2.300000X2.300000*%
%ADD18O,1.800000X2.800000*%
G04 APERTURE END LIST*
D10*
X196850000Y-118110000D03*
X199350000Y-118110000D03*
X161250000Y-116840000D03*
X158750000Y-116840000D03*
X175220000Y-128905000D03*
X172720000Y-128905000D03*
X179110000Y-118745000D03*
X181610000Y-118745000D03*
D11*
X249555000Y-106045000D03*
X247015000Y-106045000D03*
X244475000Y-106045000D03*
X241935000Y-106045000D03*
X239395000Y-106045000D03*
X236855000Y-106045000D03*
D12*
X234315000Y-106045000D03*
D13*
X233280000Y-118110000D03*
G36*
G01*
X232655000Y-120100000D02*
X233905000Y-120100000D01*
G75*
G02*
X234180000Y-120375000I0J-275000D01*
G01*
X234180000Y-120925000D01*
G75*
G02*
X233905000Y-121200000I-275000J0D01*
G01*
X232655000Y-121200000D01*
G75*
G02*
X232380000Y-120925000I0J275000D01*
G01*
X232380000Y-120375000D01*
G75*
G02*
X232655000Y-120100000I275000J0D01*
G01*
G37*
G36*
G01*
X234725000Y-118830000D02*
X235975000Y-118830000D01*
G75*
G02*
X236250000Y-119105000I0J-275000D01*
G01*
X236250000Y-119655000D01*
G75*
G02*
X235975000Y-119930000I-275000J0D01*
G01*
X234725000Y-119930000D01*
G75*
G02*
X234450000Y-119655000I0J275000D01*
G01*
X234450000Y-119105000D01*
G75*
G02*
X234725000Y-118830000I275000J0D01*
G01*
G37*
X242170000Y-118110000D03*
G36*
G01*
X241545000Y-120100000D02*
X242795000Y-120100000D01*
G75*
G02*
X243070000Y-120375000I0J-275000D01*
G01*
X243070000Y-120925000D01*
G75*
G02*
X242795000Y-121200000I-275000J0D01*
G01*
X241545000Y-121200000D01*
G75*
G02*
X241270000Y-120925000I0J275000D01*
G01*
X241270000Y-120375000D01*
G75*
G02*
X241545000Y-120100000I275000J0D01*
G01*
G37*
G36*
G01*
X243615000Y-118830000D02*
X244865000Y-118830000D01*
G75*
G02*
X245140000Y-119105000I0J-275000D01*
G01*
X245140000Y-119655000D01*
G75*
G02*
X244865000Y-119930000I-275000J0D01*
G01*
X243615000Y-119930000D01*
G75*
G02*
X243340000Y-119655000I0J275000D01*
G01*
X243340000Y-119105000D01*
G75*
G02*
X243615000Y-118830000I275000J0D01*
G01*
G37*
D14*
X212090000Y-133350000D03*
D10*
X212090000Y-140970000D03*
D11*
X222250000Y-106045000D03*
X222250000Y-108585000D03*
D12*
X222250000Y-111125000D03*
D11*
X224790000Y-106045000D03*
X224790000Y-108585000D03*
D12*
X224790000Y-111125000D03*
D11*
X227330000Y-106045000D03*
X227330000Y-108585000D03*
D12*
X227330000Y-111125000D03*
D14*
X250190000Y-113665000D03*
X247650000Y-113665000D03*
X245110000Y-113665000D03*
X242570000Y-113665000D03*
X240030000Y-113665000D03*
X237490000Y-113665000D03*
D15*
X234950000Y-113665000D03*
D16*
X189230000Y-113665000D03*
X171450000Y-106045000D03*
X179070000Y-106045000D03*
D17*
X189230000Y-106045000D03*
D14*
X172720000Y-126365000D03*
D10*
X172720000Y-118745000D03*
D14*
X166370000Y-110490000D03*
D10*
X166370000Y-118110000D03*
D14*
X179070000Y-121285000D03*
D10*
X179070000Y-128905000D03*
D14*
X214630000Y-121920000D03*
D10*
X214630000Y-114300000D03*
D14*
X202565000Y-113030000D03*
D10*
X202565000Y-105410000D03*
D14*
X175895000Y-126365000D03*
D10*
X175895000Y-118745000D03*
D14*
X205740000Y-113030000D03*
D10*
X205740000Y-105410000D03*
D14*
X199390000Y-105410000D03*
D10*
X199390000Y-113030000D03*
D14*
X217805000Y-114300000D03*
D10*
X217805000Y-121920000D03*
D14*
X208915000Y-113030000D03*
D10*
X208915000Y-105410000D03*
D18*
X163475000Y-123095000D03*
X157975000Y-123095000D03*
X155575000Y-125095000D03*
X163475000Y-132620000D03*
X157975000Y-132620000D03*
X155575000Y-134620000D03*
X163475000Y-142145000D03*
X157975000Y-142145000D03*
X155575000Y-144145000D03*
D14*
X202565000Y-118110000D03*
X210185000Y-125730000D03*
X205105000Y-118110000D03*
X207645000Y-125730000D03*
X207645000Y-118110000D03*
X205105000Y-125730000D03*
X210185000Y-118110000D03*
D15*
X202565000Y-125730000D03*
D14*
X193675000Y-105410000D03*
D15*
X193675000Y-113030000D03*
D14*
X191770000Y-118745000D03*
D15*
X184150000Y-118745000D03*
D14*
X196215000Y-113030000D03*
D15*
X196215000Y-105410000D03*
D10*
X223560000Y-118745000D03*
D15*
X226060000Y-118745000D03*
D10*
X215225000Y-107950000D03*
D15*
X212725000Y-107950000D03*
D14*
X174625000Y-133985000D03*
X197485000Y-141605000D03*
X177165000Y-133985000D03*
X194945000Y-141605000D03*
X179705000Y-133985000D03*
X192405000Y-141605000D03*
X182245000Y-133985000D03*
X189865000Y-141605000D03*
X184785000Y-133985000D03*
X187325000Y-141605000D03*
X187325000Y-133985000D03*
X184785000Y-141605000D03*
X189865000Y-133985000D03*
X182245000Y-141605000D03*
X192405000Y-133985000D03*
X179705000Y-141605000D03*
X194945000Y-133985000D03*
X177165000Y-141605000D03*
X197485000Y-133985000D03*
D15*
X174625000Y-141605000D03*
D11*
X183515000Y-129540000D03*
X183515000Y-127000000D03*
D12*
X183515000Y-124460000D03*
D11*
X196215000Y-129540000D03*
X196215000Y-127000000D03*
D12*
X196215000Y-124460000D03*
D11*
X186055000Y-129540000D03*
X186055000Y-127000000D03*
D12*
X186055000Y-124460000D03*
D11*
X193675000Y-129540000D03*
X193675000Y-127000000D03*
D12*
X193675000Y-124460000D03*
D11*
X188595000Y-129540000D03*
X188595000Y-127000000D03*
D12*
X188595000Y-124460000D03*
D11*
X191135000Y-129540000D03*
X191135000Y-127000000D03*
D12*
X191135000Y-124460000D03*
D10*
X240625000Y-125095000D03*
X238125000Y-125095000D03*
D11*
X229870000Y-111125000D03*
D12*
X229870000Y-108585000D03*
D11*
X234315000Y-125095000D03*
X231775000Y-125095000D03*
X229235000Y-125095000D03*
X226695000Y-125095000D03*
X224155000Y-125095000D03*
X221615000Y-125095000D03*
X219075000Y-125095000D03*
D12*
X216535000Y-125095000D03*
D14*
X215265000Y-133350000D03*
D10*
X215265000Y-140970000D03*
D14*
X233045000Y-133350000D03*
D10*
X233045000Y-140970000D03*
D11*
X257175000Y-149225000D03*
X254635000Y-149225000D03*
X252095000Y-149225000D03*
X249555000Y-149225000D03*
X247015000Y-149225000D03*
X244475000Y-149225000D03*
X241935000Y-149225000D03*
X239395000Y-149225000D03*
X236855000Y-149225000D03*
X234315000Y-149225000D03*
X231775000Y-149225000D03*
X229235000Y-149225000D03*
X226695000Y-149225000D03*
X224155000Y-149225000D03*
X221615000Y-149225000D03*
X219075000Y-149225000D03*
X216535000Y-149225000D03*
X213995000Y-149225000D03*
X211455000Y-149225000D03*
X208915000Y-149225000D03*
X206375000Y-149225000D03*
X203835000Y-149225000D03*
X201295000Y-149225000D03*
X198755000Y-149225000D03*
D12*
X196215000Y-149225000D03*
D11*
X254635000Y-151765000D03*
X252095000Y-151765000D03*
X249555000Y-151765000D03*
X247015000Y-151765000D03*
X244475000Y-151765000D03*
X241935000Y-151765000D03*
X239395000Y-151765000D03*
X236855000Y-151765000D03*
X234315000Y-151765000D03*
X231775000Y-151765000D03*
X229235000Y-151765000D03*
X226695000Y-151765000D03*
X224155000Y-151765000D03*
X221615000Y-151765000D03*
X219075000Y-151765000D03*
X216535000Y-151765000D03*
X213995000Y-151765000D03*
X211455000Y-151765000D03*
X208915000Y-151765000D03*
X206375000Y-151765000D03*
X203835000Y-151765000D03*
X201295000Y-151765000D03*
X198755000Y-151765000D03*
X196215000Y-151765000D03*
X193675000Y-151765000D03*
X191135000Y-151765000D03*
X188595000Y-151765000D03*
X186055000Y-151765000D03*
X183515000Y-151765000D03*
X180975000Y-151765000D03*
X178435000Y-151765000D03*
X175895000Y-151765000D03*
X173355000Y-151765000D03*
X170815000Y-151765000D03*
X168275000Y-151765000D03*
X165735000Y-151765000D03*
X163195000Y-151765000D03*
X160655000Y-151765000D03*
X158115000Y-151765000D03*
D12*
X155575000Y-151765000D03*
D14*
X202565000Y-129540000D03*
X250825000Y-144780000D03*
X205105000Y-129540000D03*
X248285000Y-144780000D03*
X207645000Y-129540000D03*
X245745000Y-144780000D03*
X210185000Y-129540000D03*
X243205000Y-144780000D03*
X212725000Y-129540000D03*
X240665000Y-144780000D03*
X215265000Y-129540000D03*
X238125000Y-144780000D03*
X217805000Y-129540000D03*
X235585000Y-144780000D03*
X220345000Y-129540000D03*
X233045000Y-144780000D03*
X222885000Y-129540000D03*
X230505000Y-144780000D03*
X225425000Y-129540000D03*
X227965000Y-144780000D03*
X227965000Y-129540000D03*
X225425000Y-144780000D03*
X230505000Y-129540000D03*
X222885000Y-144780000D03*
X233045000Y-129540000D03*
X220345000Y-144780000D03*
X235585000Y-129540000D03*
X217805000Y-144780000D03*
X238125000Y-129540000D03*
X215265000Y-144780000D03*
X240665000Y-129540000D03*
X212725000Y-144780000D03*
X243205000Y-129540000D03*
X210185000Y-144780000D03*
X245745000Y-129540000D03*
X207645000Y-144780000D03*
X248285000Y-129540000D03*
X205105000Y-144780000D03*
X250825000Y-129540000D03*
D15*
X202565000Y-144780000D03*
D10*
X171450000Y-136485000D03*
X171450000Y-133985000D03*
M02*
