G04 #@! TF.GenerationSoftware,KiCad,Pcbnew,(5.1.12)-1*
G04 #@! TF.CreationDate,2023-01-27T17:10:11+00:00*
G04 #@! TF.ProjectId,CPCIO,43504349-4f2e-46b6-9963-61645f706362,rev?*
G04 #@! TF.SameCoordinates,Original*
G04 #@! TF.FileFunction,Soldermask,Bot*
G04 #@! TF.FilePolarity,Negative*
%FSLAX46Y46*%
G04 Gerber Fmt 4.6, Leading zero omitted, Abs format (unit mm)*
G04 Created by KiCad (PCBNEW (5.1.12)-1) date 2023-01-27 17:10:11*
%MOMM*%
%LPD*%
G01*
G04 APERTURE LIST*
%ADD10C,1.600000*%
%ADD11O,1.700000X1.700000*%
%ADD12R,1.700000X1.700000*%
%ADD13R,1.500000X1.000000*%
%ADD14C,0.100000*%
%ADD15R,1.800000X1.100000*%
%ADD16O,1.600000X1.600000*%
%ADD17R,1.600000X1.600000*%
%ADD18C,2.300000*%
%ADD19R,2.300000X2.300000*%
%ADD20O,1.800000X2.800000*%
G04 APERTURE END LIST*
D10*
X196850000Y-118110000D03*
X199350000Y-118110000D03*
X161250000Y-116840000D03*
X158750000Y-116840000D03*
X175220000Y-128905000D03*
X172720000Y-128905000D03*
X179110000Y-118745000D03*
X181610000Y-118745000D03*
D11*
X249555000Y-106045000D03*
X247015000Y-106045000D03*
X244475000Y-106045000D03*
X241935000Y-106045000D03*
X239395000Y-106045000D03*
X236855000Y-106045000D03*
D12*
X234315000Y-106045000D03*
D13*
X186690000Y-146020000D03*
D14*
G36*
X187439398Y-147320000D02*
G01*
X187439398Y-147344534D01*
X187434588Y-147393365D01*
X187425016Y-147441490D01*
X187410772Y-147488445D01*
X187391995Y-147533778D01*
X187368864Y-147577051D01*
X187341604Y-147617850D01*
X187310476Y-147655779D01*
X187275779Y-147690476D01*
X187237850Y-147721604D01*
X187197051Y-147748864D01*
X187153778Y-147771995D01*
X187108445Y-147790772D01*
X187061490Y-147805016D01*
X187013365Y-147814588D01*
X186964534Y-147819398D01*
X186940000Y-147819398D01*
X186940000Y-147820000D01*
X186440000Y-147820000D01*
X186440000Y-147819398D01*
X186415466Y-147819398D01*
X186366635Y-147814588D01*
X186318510Y-147805016D01*
X186271555Y-147790772D01*
X186226222Y-147771995D01*
X186182949Y-147748864D01*
X186142150Y-147721604D01*
X186104221Y-147690476D01*
X186069524Y-147655779D01*
X186038396Y-147617850D01*
X186011136Y-147577051D01*
X185988005Y-147533778D01*
X185969228Y-147488445D01*
X185954984Y-147441490D01*
X185945412Y-147393365D01*
X185940602Y-147344534D01*
X185940602Y-147320000D01*
X185940000Y-147320000D01*
X185940000Y-146770000D01*
X187440000Y-146770000D01*
X187440000Y-147320000D01*
X187439398Y-147320000D01*
G37*
G36*
X185940000Y-145270000D02*
G01*
X185940000Y-144720000D01*
X185940602Y-144720000D01*
X185940602Y-144695466D01*
X185945412Y-144646635D01*
X185954984Y-144598510D01*
X185969228Y-144551555D01*
X185988005Y-144506222D01*
X186011136Y-144462949D01*
X186038396Y-144422150D01*
X186069524Y-144384221D01*
X186104221Y-144349524D01*
X186142150Y-144318396D01*
X186182949Y-144291136D01*
X186226222Y-144268005D01*
X186271555Y-144249228D01*
X186318510Y-144234984D01*
X186366635Y-144225412D01*
X186415466Y-144220602D01*
X186440000Y-144220602D01*
X186440000Y-144220000D01*
X186940000Y-144220000D01*
X186940000Y-144220602D01*
X186964534Y-144220602D01*
X187013365Y-144225412D01*
X187061490Y-144234984D01*
X187108445Y-144249228D01*
X187153778Y-144268005D01*
X187197051Y-144291136D01*
X187237850Y-144318396D01*
X187275779Y-144349524D01*
X187310476Y-144384221D01*
X187341604Y-144422150D01*
X187368864Y-144462949D01*
X187391995Y-144506222D01*
X187410772Y-144551555D01*
X187425016Y-144598510D01*
X187434588Y-144646635D01*
X187439398Y-144695466D01*
X187439398Y-144720000D01*
X187440000Y-144720000D01*
X187440000Y-145270000D01*
X185940000Y-145270000D01*
G37*
D13*
X189865000Y-146050000D03*
D14*
G36*
X190614398Y-147350000D02*
G01*
X190614398Y-147374534D01*
X190609588Y-147423365D01*
X190600016Y-147471490D01*
X190585772Y-147518445D01*
X190566995Y-147563778D01*
X190543864Y-147607051D01*
X190516604Y-147647850D01*
X190485476Y-147685779D01*
X190450779Y-147720476D01*
X190412850Y-147751604D01*
X190372051Y-147778864D01*
X190328778Y-147801995D01*
X190283445Y-147820772D01*
X190236490Y-147835016D01*
X190188365Y-147844588D01*
X190139534Y-147849398D01*
X190115000Y-147849398D01*
X190115000Y-147850000D01*
X189615000Y-147850000D01*
X189615000Y-147849398D01*
X189590466Y-147849398D01*
X189541635Y-147844588D01*
X189493510Y-147835016D01*
X189446555Y-147820772D01*
X189401222Y-147801995D01*
X189357949Y-147778864D01*
X189317150Y-147751604D01*
X189279221Y-147720476D01*
X189244524Y-147685779D01*
X189213396Y-147647850D01*
X189186136Y-147607051D01*
X189163005Y-147563778D01*
X189144228Y-147518445D01*
X189129984Y-147471490D01*
X189120412Y-147423365D01*
X189115602Y-147374534D01*
X189115602Y-147350000D01*
X189115000Y-147350000D01*
X189115000Y-146800000D01*
X190615000Y-146800000D01*
X190615000Y-147350000D01*
X190614398Y-147350000D01*
G37*
G36*
X189115000Y-145300000D02*
G01*
X189115000Y-144750000D01*
X189115602Y-144750000D01*
X189115602Y-144725466D01*
X189120412Y-144676635D01*
X189129984Y-144628510D01*
X189144228Y-144581555D01*
X189163005Y-144536222D01*
X189186136Y-144492949D01*
X189213396Y-144452150D01*
X189244524Y-144414221D01*
X189279221Y-144379524D01*
X189317150Y-144348396D01*
X189357949Y-144321136D01*
X189401222Y-144298005D01*
X189446555Y-144279228D01*
X189493510Y-144264984D01*
X189541635Y-144255412D01*
X189590466Y-144250602D01*
X189615000Y-144250602D01*
X189615000Y-144250000D01*
X190115000Y-144250000D01*
X190115000Y-144250602D01*
X190139534Y-144250602D01*
X190188365Y-144255412D01*
X190236490Y-144264984D01*
X190283445Y-144279228D01*
X190328778Y-144298005D01*
X190372051Y-144321136D01*
X190412850Y-144348396D01*
X190450779Y-144379524D01*
X190485476Y-144414221D01*
X190516604Y-144452150D01*
X190543864Y-144492949D01*
X190566995Y-144536222D01*
X190585772Y-144581555D01*
X190600016Y-144628510D01*
X190609588Y-144676635D01*
X190614398Y-144725466D01*
X190614398Y-144750000D01*
X190615000Y-144750000D01*
X190615000Y-145300000D01*
X189115000Y-145300000D01*
G37*
D13*
X167640000Y-146020000D03*
D14*
G36*
X168389398Y-147320000D02*
G01*
X168389398Y-147344534D01*
X168384588Y-147393365D01*
X168375016Y-147441490D01*
X168360772Y-147488445D01*
X168341995Y-147533778D01*
X168318864Y-147577051D01*
X168291604Y-147617850D01*
X168260476Y-147655779D01*
X168225779Y-147690476D01*
X168187850Y-147721604D01*
X168147051Y-147748864D01*
X168103778Y-147771995D01*
X168058445Y-147790772D01*
X168011490Y-147805016D01*
X167963365Y-147814588D01*
X167914534Y-147819398D01*
X167890000Y-147819398D01*
X167890000Y-147820000D01*
X167390000Y-147820000D01*
X167390000Y-147819398D01*
X167365466Y-147819398D01*
X167316635Y-147814588D01*
X167268510Y-147805016D01*
X167221555Y-147790772D01*
X167176222Y-147771995D01*
X167132949Y-147748864D01*
X167092150Y-147721604D01*
X167054221Y-147690476D01*
X167019524Y-147655779D01*
X166988396Y-147617850D01*
X166961136Y-147577051D01*
X166938005Y-147533778D01*
X166919228Y-147488445D01*
X166904984Y-147441490D01*
X166895412Y-147393365D01*
X166890602Y-147344534D01*
X166890602Y-147320000D01*
X166890000Y-147320000D01*
X166890000Y-146770000D01*
X168390000Y-146770000D01*
X168390000Y-147320000D01*
X168389398Y-147320000D01*
G37*
G36*
X166890000Y-145270000D02*
G01*
X166890000Y-144720000D01*
X166890602Y-144720000D01*
X166890602Y-144695466D01*
X166895412Y-144646635D01*
X166904984Y-144598510D01*
X166919228Y-144551555D01*
X166938005Y-144506222D01*
X166961136Y-144462949D01*
X166988396Y-144422150D01*
X167019524Y-144384221D01*
X167054221Y-144349524D01*
X167092150Y-144318396D01*
X167132949Y-144291136D01*
X167176222Y-144268005D01*
X167221555Y-144249228D01*
X167268510Y-144234984D01*
X167316635Y-144225412D01*
X167365466Y-144220602D01*
X167390000Y-144220602D01*
X167390000Y-144220000D01*
X167890000Y-144220000D01*
X167890000Y-144220602D01*
X167914534Y-144220602D01*
X167963365Y-144225412D01*
X168011490Y-144234984D01*
X168058445Y-144249228D01*
X168103778Y-144268005D01*
X168147051Y-144291136D01*
X168187850Y-144318396D01*
X168225779Y-144349524D01*
X168260476Y-144384221D01*
X168291604Y-144422150D01*
X168318864Y-144462949D01*
X168341995Y-144506222D01*
X168360772Y-144551555D01*
X168375016Y-144598510D01*
X168384588Y-144646635D01*
X168389398Y-144695466D01*
X168389398Y-144720000D01*
X168390000Y-144720000D01*
X168390000Y-145270000D01*
X166890000Y-145270000D01*
G37*
D13*
X183515000Y-146050000D03*
D14*
G36*
X184264398Y-147350000D02*
G01*
X184264398Y-147374534D01*
X184259588Y-147423365D01*
X184250016Y-147471490D01*
X184235772Y-147518445D01*
X184216995Y-147563778D01*
X184193864Y-147607051D01*
X184166604Y-147647850D01*
X184135476Y-147685779D01*
X184100779Y-147720476D01*
X184062850Y-147751604D01*
X184022051Y-147778864D01*
X183978778Y-147801995D01*
X183933445Y-147820772D01*
X183886490Y-147835016D01*
X183838365Y-147844588D01*
X183789534Y-147849398D01*
X183765000Y-147849398D01*
X183765000Y-147850000D01*
X183265000Y-147850000D01*
X183265000Y-147849398D01*
X183240466Y-147849398D01*
X183191635Y-147844588D01*
X183143510Y-147835016D01*
X183096555Y-147820772D01*
X183051222Y-147801995D01*
X183007949Y-147778864D01*
X182967150Y-147751604D01*
X182929221Y-147720476D01*
X182894524Y-147685779D01*
X182863396Y-147647850D01*
X182836136Y-147607051D01*
X182813005Y-147563778D01*
X182794228Y-147518445D01*
X182779984Y-147471490D01*
X182770412Y-147423365D01*
X182765602Y-147374534D01*
X182765602Y-147350000D01*
X182765000Y-147350000D01*
X182765000Y-146800000D01*
X184265000Y-146800000D01*
X184265000Y-147350000D01*
X184264398Y-147350000D01*
G37*
G36*
X182765000Y-145300000D02*
G01*
X182765000Y-144750000D01*
X182765602Y-144750000D01*
X182765602Y-144725466D01*
X182770412Y-144676635D01*
X182779984Y-144628510D01*
X182794228Y-144581555D01*
X182813005Y-144536222D01*
X182836136Y-144492949D01*
X182863396Y-144452150D01*
X182894524Y-144414221D01*
X182929221Y-144379524D01*
X182967150Y-144348396D01*
X183007949Y-144321136D01*
X183051222Y-144298005D01*
X183096555Y-144279228D01*
X183143510Y-144264984D01*
X183191635Y-144255412D01*
X183240466Y-144250602D01*
X183265000Y-144250602D01*
X183265000Y-144250000D01*
X183765000Y-144250000D01*
X183765000Y-144250602D01*
X183789534Y-144250602D01*
X183838365Y-144255412D01*
X183886490Y-144264984D01*
X183933445Y-144279228D01*
X183978778Y-144298005D01*
X184022051Y-144321136D01*
X184062850Y-144348396D01*
X184100779Y-144379524D01*
X184135476Y-144414221D01*
X184166604Y-144452150D01*
X184193864Y-144492949D01*
X184216995Y-144536222D01*
X184235772Y-144581555D01*
X184250016Y-144628510D01*
X184259588Y-144676635D01*
X184264398Y-144725466D01*
X184264398Y-144750000D01*
X184265000Y-144750000D01*
X184265000Y-145300000D01*
X182765000Y-145300000D01*
G37*
D13*
X170815000Y-146020000D03*
D14*
G36*
X171564398Y-147320000D02*
G01*
X171564398Y-147344534D01*
X171559588Y-147393365D01*
X171550016Y-147441490D01*
X171535772Y-147488445D01*
X171516995Y-147533778D01*
X171493864Y-147577051D01*
X171466604Y-147617850D01*
X171435476Y-147655779D01*
X171400779Y-147690476D01*
X171362850Y-147721604D01*
X171322051Y-147748864D01*
X171278778Y-147771995D01*
X171233445Y-147790772D01*
X171186490Y-147805016D01*
X171138365Y-147814588D01*
X171089534Y-147819398D01*
X171065000Y-147819398D01*
X171065000Y-147820000D01*
X170565000Y-147820000D01*
X170565000Y-147819398D01*
X170540466Y-147819398D01*
X170491635Y-147814588D01*
X170443510Y-147805016D01*
X170396555Y-147790772D01*
X170351222Y-147771995D01*
X170307949Y-147748864D01*
X170267150Y-147721604D01*
X170229221Y-147690476D01*
X170194524Y-147655779D01*
X170163396Y-147617850D01*
X170136136Y-147577051D01*
X170113005Y-147533778D01*
X170094228Y-147488445D01*
X170079984Y-147441490D01*
X170070412Y-147393365D01*
X170065602Y-147344534D01*
X170065602Y-147320000D01*
X170065000Y-147320000D01*
X170065000Y-146770000D01*
X171565000Y-146770000D01*
X171565000Y-147320000D01*
X171564398Y-147320000D01*
G37*
G36*
X170065000Y-145270000D02*
G01*
X170065000Y-144720000D01*
X170065602Y-144720000D01*
X170065602Y-144695466D01*
X170070412Y-144646635D01*
X170079984Y-144598510D01*
X170094228Y-144551555D01*
X170113005Y-144506222D01*
X170136136Y-144462949D01*
X170163396Y-144422150D01*
X170194524Y-144384221D01*
X170229221Y-144349524D01*
X170267150Y-144318396D01*
X170307949Y-144291136D01*
X170351222Y-144268005D01*
X170396555Y-144249228D01*
X170443510Y-144234984D01*
X170491635Y-144225412D01*
X170540466Y-144220602D01*
X170565000Y-144220602D01*
X170565000Y-144220000D01*
X171065000Y-144220000D01*
X171065000Y-144220602D01*
X171089534Y-144220602D01*
X171138365Y-144225412D01*
X171186490Y-144234984D01*
X171233445Y-144249228D01*
X171278778Y-144268005D01*
X171322051Y-144291136D01*
X171362850Y-144318396D01*
X171400779Y-144349524D01*
X171435476Y-144384221D01*
X171466604Y-144422150D01*
X171493864Y-144462949D01*
X171516995Y-144506222D01*
X171535772Y-144551555D01*
X171550016Y-144598510D01*
X171559588Y-144646635D01*
X171564398Y-144695466D01*
X171564398Y-144720000D01*
X171565000Y-144720000D01*
X171565000Y-145270000D01*
X170065000Y-145270000D01*
G37*
D13*
X180340000Y-146050000D03*
D14*
G36*
X181089398Y-147350000D02*
G01*
X181089398Y-147374534D01*
X181084588Y-147423365D01*
X181075016Y-147471490D01*
X181060772Y-147518445D01*
X181041995Y-147563778D01*
X181018864Y-147607051D01*
X180991604Y-147647850D01*
X180960476Y-147685779D01*
X180925779Y-147720476D01*
X180887850Y-147751604D01*
X180847051Y-147778864D01*
X180803778Y-147801995D01*
X180758445Y-147820772D01*
X180711490Y-147835016D01*
X180663365Y-147844588D01*
X180614534Y-147849398D01*
X180590000Y-147849398D01*
X180590000Y-147850000D01*
X180090000Y-147850000D01*
X180090000Y-147849398D01*
X180065466Y-147849398D01*
X180016635Y-147844588D01*
X179968510Y-147835016D01*
X179921555Y-147820772D01*
X179876222Y-147801995D01*
X179832949Y-147778864D01*
X179792150Y-147751604D01*
X179754221Y-147720476D01*
X179719524Y-147685779D01*
X179688396Y-147647850D01*
X179661136Y-147607051D01*
X179638005Y-147563778D01*
X179619228Y-147518445D01*
X179604984Y-147471490D01*
X179595412Y-147423365D01*
X179590602Y-147374534D01*
X179590602Y-147350000D01*
X179590000Y-147350000D01*
X179590000Y-146800000D01*
X181090000Y-146800000D01*
X181090000Y-147350000D01*
X181089398Y-147350000D01*
G37*
G36*
X179590000Y-145300000D02*
G01*
X179590000Y-144750000D01*
X179590602Y-144750000D01*
X179590602Y-144725466D01*
X179595412Y-144676635D01*
X179604984Y-144628510D01*
X179619228Y-144581555D01*
X179638005Y-144536222D01*
X179661136Y-144492949D01*
X179688396Y-144452150D01*
X179719524Y-144414221D01*
X179754221Y-144379524D01*
X179792150Y-144348396D01*
X179832949Y-144321136D01*
X179876222Y-144298005D01*
X179921555Y-144279228D01*
X179968510Y-144264984D01*
X180016635Y-144255412D01*
X180065466Y-144250602D01*
X180090000Y-144250602D01*
X180090000Y-144250000D01*
X180590000Y-144250000D01*
X180590000Y-144250602D01*
X180614534Y-144250602D01*
X180663365Y-144255412D01*
X180711490Y-144264984D01*
X180758445Y-144279228D01*
X180803778Y-144298005D01*
X180847051Y-144321136D01*
X180887850Y-144348396D01*
X180925779Y-144379524D01*
X180960476Y-144414221D01*
X180991604Y-144452150D01*
X181018864Y-144492949D01*
X181041995Y-144536222D01*
X181060772Y-144581555D01*
X181075016Y-144628510D01*
X181084588Y-144676635D01*
X181089398Y-144725466D01*
X181089398Y-144750000D01*
X181090000Y-144750000D01*
X181090000Y-145300000D01*
X179590000Y-145300000D01*
G37*
D13*
X173990000Y-146020000D03*
D14*
G36*
X174739398Y-147320000D02*
G01*
X174739398Y-147344534D01*
X174734588Y-147393365D01*
X174725016Y-147441490D01*
X174710772Y-147488445D01*
X174691995Y-147533778D01*
X174668864Y-147577051D01*
X174641604Y-147617850D01*
X174610476Y-147655779D01*
X174575779Y-147690476D01*
X174537850Y-147721604D01*
X174497051Y-147748864D01*
X174453778Y-147771995D01*
X174408445Y-147790772D01*
X174361490Y-147805016D01*
X174313365Y-147814588D01*
X174264534Y-147819398D01*
X174240000Y-147819398D01*
X174240000Y-147820000D01*
X173740000Y-147820000D01*
X173740000Y-147819398D01*
X173715466Y-147819398D01*
X173666635Y-147814588D01*
X173618510Y-147805016D01*
X173571555Y-147790772D01*
X173526222Y-147771995D01*
X173482949Y-147748864D01*
X173442150Y-147721604D01*
X173404221Y-147690476D01*
X173369524Y-147655779D01*
X173338396Y-147617850D01*
X173311136Y-147577051D01*
X173288005Y-147533778D01*
X173269228Y-147488445D01*
X173254984Y-147441490D01*
X173245412Y-147393365D01*
X173240602Y-147344534D01*
X173240602Y-147320000D01*
X173240000Y-147320000D01*
X173240000Y-146770000D01*
X174740000Y-146770000D01*
X174740000Y-147320000D01*
X174739398Y-147320000D01*
G37*
G36*
X173240000Y-145270000D02*
G01*
X173240000Y-144720000D01*
X173240602Y-144720000D01*
X173240602Y-144695466D01*
X173245412Y-144646635D01*
X173254984Y-144598510D01*
X173269228Y-144551555D01*
X173288005Y-144506222D01*
X173311136Y-144462949D01*
X173338396Y-144422150D01*
X173369524Y-144384221D01*
X173404221Y-144349524D01*
X173442150Y-144318396D01*
X173482949Y-144291136D01*
X173526222Y-144268005D01*
X173571555Y-144249228D01*
X173618510Y-144234984D01*
X173666635Y-144225412D01*
X173715466Y-144220602D01*
X173740000Y-144220602D01*
X173740000Y-144220000D01*
X174240000Y-144220000D01*
X174240000Y-144220602D01*
X174264534Y-144220602D01*
X174313365Y-144225412D01*
X174361490Y-144234984D01*
X174408445Y-144249228D01*
X174453778Y-144268005D01*
X174497051Y-144291136D01*
X174537850Y-144318396D01*
X174575779Y-144349524D01*
X174610476Y-144384221D01*
X174641604Y-144422150D01*
X174668864Y-144462949D01*
X174691995Y-144506222D01*
X174710772Y-144551555D01*
X174725016Y-144598510D01*
X174734588Y-144646635D01*
X174739398Y-144695466D01*
X174739398Y-144720000D01*
X174740000Y-144720000D01*
X174740000Y-145270000D01*
X173240000Y-145270000D01*
G37*
D13*
X177165000Y-146020000D03*
D14*
G36*
X177914398Y-147320000D02*
G01*
X177914398Y-147344534D01*
X177909588Y-147393365D01*
X177900016Y-147441490D01*
X177885772Y-147488445D01*
X177866995Y-147533778D01*
X177843864Y-147577051D01*
X177816604Y-147617850D01*
X177785476Y-147655779D01*
X177750779Y-147690476D01*
X177712850Y-147721604D01*
X177672051Y-147748864D01*
X177628778Y-147771995D01*
X177583445Y-147790772D01*
X177536490Y-147805016D01*
X177488365Y-147814588D01*
X177439534Y-147819398D01*
X177415000Y-147819398D01*
X177415000Y-147820000D01*
X176915000Y-147820000D01*
X176915000Y-147819398D01*
X176890466Y-147819398D01*
X176841635Y-147814588D01*
X176793510Y-147805016D01*
X176746555Y-147790772D01*
X176701222Y-147771995D01*
X176657949Y-147748864D01*
X176617150Y-147721604D01*
X176579221Y-147690476D01*
X176544524Y-147655779D01*
X176513396Y-147617850D01*
X176486136Y-147577051D01*
X176463005Y-147533778D01*
X176444228Y-147488445D01*
X176429984Y-147441490D01*
X176420412Y-147393365D01*
X176415602Y-147344534D01*
X176415602Y-147320000D01*
X176415000Y-147320000D01*
X176415000Y-146770000D01*
X177915000Y-146770000D01*
X177915000Y-147320000D01*
X177914398Y-147320000D01*
G37*
G36*
X176415000Y-145270000D02*
G01*
X176415000Y-144720000D01*
X176415602Y-144720000D01*
X176415602Y-144695466D01*
X176420412Y-144646635D01*
X176429984Y-144598510D01*
X176444228Y-144551555D01*
X176463005Y-144506222D01*
X176486136Y-144462949D01*
X176513396Y-144422150D01*
X176544524Y-144384221D01*
X176579221Y-144349524D01*
X176617150Y-144318396D01*
X176657949Y-144291136D01*
X176701222Y-144268005D01*
X176746555Y-144249228D01*
X176793510Y-144234984D01*
X176841635Y-144225412D01*
X176890466Y-144220602D01*
X176915000Y-144220602D01*
X176915000Y-144220000D01*
X177415000Y-144220000D01*
X177415000Y-144220602D01*
X177439534Y-144220602D01*
X177488365Y-144225412D01*
X177536490Y-144234984D01*
X177583445Y-144249228D01*
X177628778Y-144268005D01*
X177672051Y-144291136D01*
X177712850Y-144318396D01*
X177750779Y-144349524D01*
X177785476Y-144384221D01*
X177816604Y-144422150D01*
X177843864Y-144462949D01*
X177866995Y-144506222D01*
X177885772Y-144551555D01*
X177900016Y-144598510D01*
X177909588Y-144646635D01*
X177914398Y-144695466D01*
X177914398Y-144720000D01*
X177915000Y-144720000D01*
X177915000Y-145270000D01*
X176415000Y-145270000D01*
G37*
D15*
X233280000Y-118110000D03*
G36*
G01*
X232655000Y-120100000D02*
X233905000Y-120100000D01*
G75*
G02*
X234180000Y-120375000I0J-275000D01*
G01*
X234180000Y-120925000D01*
G75*
G02*
X233905000Y-121200000I-275000J0D01*
G01*
X232655000Y-121200000D01*
G75*
G02*
X232380000Y-120925000I0J275000D01*
G01*
X232380000Y-120375000D01*
G75*
G02*
X232655000Y-120100000I275000J0D01*
G01*
G37*
G36*
G01*
X234725000Y-118830000D02*
X235975000Y-118830000D01*
G75*
G02*
X236250000Y-119105000I0J-275000D01*
G01*
X236250000Y-119655000D01*
G75*
G02*
X235975000Y-119930000I-275000J0D01*
G01*
X234725000Y-119930000D01*
G75*
G02*
X234450000Y-119655000I0J275000D01*
G01*
X234450000Y-119105000D01*
G75*
G02*
X234725000Y-118830000I275000J0D01*
G01*
G37*
X242170000Y-118110000D03*
G36*
G01*
X241545000Y-120100000D02*
X242795000Y-120100000D01*
G75*
G02*
X243070000Y-120375000I0J-275000D01*
G01*
X243070000Y-120925000D01*
G75*
G02*
X242795000Y-121200000I-275000J0D01*
G01*
X241545000Y-121200000D01*
G75*
G02*
X241270000Y-120925000I0J275000D01*
G01*
X241270000Y-120375000D01*
G75*
G02*
X241545000Y-120100000I275000J0D01*
G01*
G37*
G36*
G01*
X243615000Y-118830000D02*
X244865000Y-118830000D01*
G75*
G02*
X245140000Y-119105000I0J-275000D01*
G01*
X245140000Y-119655000D01*
G75*
G02*
X244865000Y-119930000I-275000J0D01*
G01*
X243615000Y-119930000D01*
G75*
G02*
X243340000Y-119655000I0J275000D01*
G01*
X243340000Y-119105000D01*
G75*
G02*
X243615000Y-118830000I275000J0D01*
G01*
G37*
D16*
X212090000Y-133350000D03*
D10*
X212090000Y-140970000D03*
D11*
X222250000Y-106045000D03*
X222250000Y-108585000D03*
D12*
X222250000Y-111125000D03*
D11*
X224790000Y-106045000D03*
X224790000Y-108585000D03*
D12*
X224790000Y-111125000D03*
D11*
X227330000Y-106045000D03*
X227330000Y-108585000D03*
D12*
X227330000Y-111125000D03*
D16*
X250190000Y-113665000D03*
X247650000Y-113665000D03*
X245110000Y-113665000D03*
X242570000Y-113665000D03*
X240030000Y-113665000D03*
X237490000Y-113665000D03*
D17*
X234950000Y-113665000D03*
D18*
X189230000Y-113665000D03*
X171450000Y-106045000D03*
X179070000Y-106045000D03*
D19*
X189230000Y-106045000D03*
D16*
X172720000Y-126365000D03*
D10*
X172720000Y-118745000D03*
D16*
X166370000Y-110490000D03*
D10*
X166370000Y-118110000D03*
D16*
X179070000Y-121285000D03*
D10*
X179070000Y-128905000D03*
D16*
X214630000Y-121920000D03*
D10*
X214630000Y-114300000D03*
D16*
X202565000Y-113030000D03*
D10*
X202565000Y-105410000D03*
D16*
X175895000Y-126365000D03*
D10*
X175895000Y-118745000D03*
D16*
X205740000Y-113030000D03*
D10*
X205740000Y-105410000D03*
D16*
X199390000Y-105410000D03*
D10*
X199390000Y-113030000D03*
D16*
X217805000Y-114300000D03*
D10*
X217805000Y-121920000D03*
D16*
X208915000Y-113030000D03*
D10*
X208915000Y-105410000D03*
D20*
X163475000Y-123095000D03*
X157975000Y-123095000D03*
X155575000Y-125095000D03*
X163475000Y-132620000D03*
X157975000Y-132620000D03*
X155575000Y-134620000D03*
X163475000Y-142145000D03*
X157975000Y-142145000D03*
X155575000Y-144145000D03*
D16*
X202565000Y-118110000D03*
X210185000Y-125730000D03*
X205105000Y-118110000D03*
X207645000Y-125730000D03*
X207645000Y-118110000D03*
X205105000Y-125730000D03*
X210185000Y-118110000D03*
D17*
X202565000Y-125730000D03*
D16*
X193675000Y-105410000D03*
D17*
X193675000Y-113030000D03*
D16*
X191770000Y-118745000D03*
D17*
X184150000Y-118745000D03*
D16*
X196215000Y-113030000D03*
D17*
X196215000Y-105410000D03*
D10*
X223560000Y-118745000D03*
D17*
X226060000Y-118745000D03*
D10*
X215225000Y-107950000D03*
D17*
X212725000Y-107950000D03*
D16*
X174625000Y-133985000D03*
X197485000Y-141605000D03*
X177165000Y-133985000D03*
X194945000Y-141605000D03*
X179705000Y-133985000D03*
X192405000Y-141605000D03*
X182245000Y-133985000D03*
X189865000Y-141605000D03*
X184785000Y-133985000D03*
X187325000Y-141605000D03*
X187325000Y-133985000D03*
X184785000Y-141605000D03*
X189865000Y-133985000D03*
X182245000Y-141605000D03*
X192405000Y-133985000D03*
X179705000Y-141605000D03*
X194945000Y-133985000D03*
X177165000Y-141605000D03*
X197485000Y-133985000D03*
D17*
X174625000Y-141605000D03*
D11*
X183515000Y-129540000D03*
X183515000Y-127000000D03*
D12*
X183515000Y-124460000D03*
D11*
X196215000Y-129540000D03*
X196215000Y-127000000D03*
D12*
X196215000Y-124460000D03*
D11*
X186055000Y-129540000D03*
X186055000Y-127000000D03*
D12*
X186055000Y-124460000D03*
D11*
X193675000Y-129540000D03*
X193675000Y-127000000D03*
D12*
X193675000Y-124460000D03*
D11*
X188595000Y-129540000D03*
X188595000Y-127000000D03*
D12*
X188595000Y-124460000D03*
D11*
X191135000Y-129540000D03*
X191135000Y-127000000D03*
D12*
X191135000Y-124460000D03*
D10*
X240625000Y-125095000D03*
X238125000Y-125095000D03*
D11*
X229870000Y-111125000D03*
D12*
X229870000Y-108585000D03*
D11*
X234315000Y-125095000D03*
X231775000Y-125095000D03*
X229235000Y-125095000D03*
X226695000Y-125095000D03*
X224155000Y-125095000D03*
X221615000Y-125095000D03*
X219075000Y-125095000D03*
D12*
X216535000Y-125095000D03*
D16*
X215265000Y-133350000D03*
D10*
X215265000Y-140970000D03*
D16*
X233045000Y-133350000D03*
D10*
X233045000Y-140970000D03*
D11*
X257175000Y-149225000D03*
X254635000Y-149225000D03*
X252095000Y-149225000D03*
X249555000Y-149225000D03*
X247015000Y-149225000D03*
X244475000Y-149225000D03*
X241935000Y-149225000D03*
X239395000Y-149225000D03*
X236855000Y-149225000D03*
X234315000Y-149225000D03*
X231775000Y-149225000D03*
X229235000Y-149225000D03*
X226695000Y-149225000D03*
X224155000Y-149225000D03*
X221615000Y-149225000D03*
X219075000Y-149225000D03*
X216535000Y-149225000D03*
X213995000Y-149225000D03*
X211455000Y-149225000D03*
X208915000Y-149225000D03*
X206375000Y-149225000D03*
X203835000Y-149225000D03*
X201295000Y-149225000D03*
X198755000Y-149225000D03*
D12*
X196215000Y-149225000D03*
D11*
X254635000Y-151765000D03*
X252095000Y-151765000D03*
X249555000Y-151765000D03*
X247015000Y-151765000D03*
X244475000Y-151765000D03*
X241935000Y-151765000D03*
X239395000Y-151765000D03*
X236855000Y-151765000D03*
X234315000Y-151765000D03*
X231775000Y-151765000D03*
X229235000Y-151765000D03*
X226695000Y-151765000D03*
X224155000Y-151765000D03*
X221615000Y-151765000D03*
X219075000Y-151765000D03*
X216535000Y-151765000D03*
X213995000Y-151765000D03*
X211455000Y-151765000D03*
X208915000Y-151765000D03*
X206375000Y-151765000D03*
X203835000Y-151765000D03*
X201295000Y-151765000D03*
X198755000Y-151765000D03*
X196215000Y-151765000D03*
X193675000Y-151765000D03*
X191135000Y-151765000D03*
X188595000Y-151765000D03*
X186055000Y-151765000D03*
X183515000Y-151765000D03*
X180975000Y-151765000D03*
X178435000Y-151765000D03*
X175895000Y-151765000D03*
X173355000Y-151765000D03*
X170815000Y-151765000D03*
X168275000Y-151765000D03*
X165735000Y-151765000D03*
X163195000Y-151765000D03*
X160655000Y-151765000D03*
X158115000Y-151765000D03*
D12*
X155575000Y-151765000D03*
D16*
X202565000Y-129540000D03*
X250825000Y-144780000D03*
X205105000Y-129540000D03*
X248285000Y-144780000D03*
X207645000Y-129540000D03*
X245745000Y-144780000D03*
X210185000Y-129540000D03*
X243205000Y-144780000D03*
X212725000Y-129540000D03*
X240665000Y-144780000D03*
X215265000Y-129540000D03*
X238125000Y-144780000D03*
X217805000Y-129540000D03*
X235585000Y-144780000D03*
X220345000Y-129540000D03*
X233045000Y-144780000D03*
X222885000Y-129540000D03*
X230505000Y-144780000D03*
X225425000Y-129540000D03*
X227965000Y-144780000D03*
X227965000Y-129540000D03*
X225425000Y-144780000D03*
X230505000Y-129540000D03*
X222885000Y-144780000D03*
X233045000Y-129540000D03*
X220345000Y-144780000D03*
X235585000Y-129540000D03*
X217805000Y-144780000D03*
X238125000Y-129540000D03*
X215265000Y-144780000D03*
X240665000Y-129540000D03*
X212725000Y-144780000D03*
X243205000Y-129540000D03*
X210185000Y-144780000D03*
X245745000Y-129540000D03*
X207645000Y-144780000D03*
X248285000Y-129540000D03*
X205105000Y-144780000D03*
X250825000Y-129540000D03*
D17*
X202565000Y-144780000D03*
D10*
X171450000Y-136485000D03*
X171450000Y-133985000D03*
M02*
